  0
SECTION
  2
HEADER
  9
$ANGBASE
  50
0.0
  9
$ANGDIR
  70
  1
  9
$MEASUREMENT
  70
0
  0
ENDSEC
  0
SECTION
  2
TABLES
  0
TABLE
  2
LTYPE
  70
4
  0
LTYPE
  5
40F
  2
CONTINUOUS
  70
0
  3
Solid line
  72
65
  73
0
  40
0.0
  0
LTYPE
  5
410
  2
DASHDOT
 70
0
  3
Dash Dot ____ _ ____ _
 72
65
 73
4
 40
2.0
 49
1.25
 49
-0.25
 49
0.25
 49
-0.25
  0
LTYPE
  5
411
  2
DASHED
 70
0
  3
Dashed __ __ __ __ __
 72
65
 73
2
 40
0.75
 49
0.5
 49
-0.25
  0
LTYPE
  5
43B
  2
DOTTED
 70
0
  3
Dotted .  .  .  .
 72
65
 73
2
 40
0.2
 49
0.0
 49
-0.2
  0
ENDTAB
  0
TABLE
  2
STYLE
  70
4
  0
STYLE
  2
KICAD
  70
0
  40
0
  41
1
  42
1
  50
0
  71
0
  3
isocp.shx
  0
STYLE
  2
KICADB
  70
0
  40
0
  41
1
  42
1
  50
0
  71
0
  3
isocp.shx
  0
STYLE
  2
KICADI
  70
0
  40
0
  41
1
  42
1
  50
15
  71
0
  3
isocp.shx
  0
STYLE
  2
KICADBI
  70
0
  40
0
  41
1
  42
1
  50
15
  71
0
  3
isocp.shx
  0
ENDTAB
  0
TABLE
  2
LAYER
  70
30
  0
LAYER
  2
BLACK
  70
0
  62
7
  6
CONTINUOUS
  0
LAYER
  2
GRAY1
  70
0
  62
251
  6
CONTINUOUS
  0
LAYER
  2
GRAY2
  70
0
  62
8
  6
CONTINUOUS
  0
LAYER
  2
GRAY3
  70
0
  62
9
  6
CONTINUOUS
  0
LAYER
  2
WHITE
  70
0
  62
7
  6
CONTINUOUS
  0
LAYER
  2
LYELLOW
  70
0
  62
51
  6
CONTINUOUS
  0
LAYER
  2
BLUE1
  70
0
  62
178
  6
CONTINUOUS
  0
LAYER
  2
GREEN1
  70
0
  62
98
  6
CONTINUOUS
  0
LAYER
  2
CYAN1
  70
0
  62
138
  6
CONTINUOUS
  0
LAYER
  2
RED1
  70
0
  62
18
  6
CONTINUOUS
  0
LAYER
  2
MAGENTA1
  70
0
  62
228
  6
CONTINUOUS
  0
LAYER
  2
BROWN1
  70
0
  62
58
  6
CONTINUOUS
  0
LAYER
  2
BLUE2
  70
0
  62
5
  6
CONTINUOUS
  0
LAYER
  2
GREEN2
  70
0
  62
3
  6
CONTINUOUS
  0
LAYER
  2
CYAN2
  70
0
  62
4
  6
CONTINUOUS
  0
LAYER
  2
RED2
  70
0
  62
1
  6
CONTINUOUS
  0
LAYER
  2
MAGENTA2
  70
0
  62
6
  6
CONTINUOUS
  0
LAYER
  2
BROWN2
  70
0
  62
54
  6
CONTINUOUS
  0
LAYER
  2
BLUE3
  70
0
  62
171
  6
CONTINUOUS
  0
LAYER
  2
GREEN3
  70
0
  62
91
  6
CONTINUOUS
  0
LAYER
  2
CYAN3
  70
0
  62
131
  6
CONTINUOUS
  0
LAYER
  2
RED3
  70
0
  62
11
  6
CONTINUOUS
  0
LAYER
  2
MAGENTA3
  70
0
  62
221
  6
CONTINUOUS
  0
LAYER
  2
YELLOW3
  70
0
  62
2
  6
CONTINUOUS
  0
LAYER
  2
BLUE4
  70
0
  62
5
  6
CONTINUOUS
  0
LAYER
  2
GREEN4
  70
0
  62
3
  6
CONTINUOUS
  0
LAYER
  2
CYAN4
  70
0
  62
4
  6
CONTINUOUS
  0
LAYER
  2
RED4
  70
0
  62
1
  6
CONTINUOUS
  0
LAYER
  2
MAGENTA4
  70
0
  62
6
  6
CONTINUOUS
  0
LAYER
  2
YELLOW4
  70
0
  62
2
  6
CONTINUOUS
  0
ENDTAB
  0
ENDSEC
  0
SECTION
  2
ENTITIES
0
LINE
8
BLACK
6
CONTINUOUS
10
105.41
20
-135.001
11
105.41
21
-89.408
0
LINE
8
BLACK
6
CONTINUOUS
10
189.23
20
-135.001
11
189.23
21
-89.408
0
LINE
8
BLACK
6
CONTINUOUS
10
187.96
20
-136.271
11
106.68
21
-136.271
0
LINE
8
BLACK
6
CONTINUOUS
10
106.68
20
-88.138
11
187.96
21
-88.138
0
ARC
8
BLACK
10
106.68
20
-89.408
40
1.27
50
90
51
180
0
ARC
8
BLACK
10
106.68
20
-135.001
40
1.27
50
-180
51
-90
0
ARC
8
BLACK
10
187.96
20
-89.408
40
1.27
50
-0
51
90
0
ARC
8
BLACK
10
187.96
20
-135.001
40
1.27
50
-90
51
-0
0
LINE
8
BLACK
6
CONTINUOUS
10
108.224
20
-140.978
11
108.224
21
-137.978
0
LINE
8
BLACK
6
CONTINUOUS
10
108.224
20
-137.978
11
108.939
21
-137.978
0
LINE
8
BLACK
6
CONTINUOUS
10
108.939
20
-137.978
11
109.367
21
-138.121
0
LINE
8
BLACK
6
CONTINUOUS
10
109.367
20
-138.121
11
109.653
21
-138.407
0
LINE
8
BLACK
6
CONTINUOUS
10
109.653
20
-138.407
11
109.796
21
-138.692
0
LINE
8
BLACK
6
CONTINUOUS
10
109.796
20
-138.692
11
109.939
21
-139.264
0
LINE
8
BLACK
6
CONTINUOUS
10
109.939
20
-139.264
11
109.939
21
-139.692
0
LINE
8
BLACK
6
CONTINUOUS
10
109.939
20
-139.692
11
109.796
21
-140.264
0
LINE
8
BLACK
6
CONTINUOUS
10
109.796
20
-140.264
11
109.653
21
-140.55
0
LINE
8
BLACK
6
CONTINUOUS
10
109.653
20
-140.55
11
109.367
21
-140.835
0
LINE
8
BLACK
6
CONTINUOUS
10
109.367
20
-140.835
11
108.939
21
-140.978
0
LINE
8
BLACK
6
CONTINUOUS
10
108.939
20
-140.978
11
108.224
21
-140.978
0
LINE
8
BLACK
6
CONTINUOUS
10
111.224
20
-140.978
11
111.224
21
-138.978
0
LINE
8
BLACK
6
CONTINUOUS
10
111.224
20
-139.55
11
111.367
21
-139.264
0
LINE
8
BLACK
6
CONTINUOUS
10
111.367
20
-139.264
11
111.51
21
-139.121
0
LINE
8
BLACK
6
CONTINUOUS
10
111.51
20
-139.121
11
111.796
21
-138.978
0
LINE
8
BLACK
6
CONTINUOUS
10
111.796
20
-138.978
11
112.081
21
-138.978
0
LINE
8
BLACK
6
CONTINUOUS
10
113.081
20
-140.978
11
113.081
21
-138.978
0
LINE
8
BLACK
6
CONTINUOUS
10
113.081
20
-137.978
11
112.939
21
-138.121
0
LINE
8
BLACK
6
CONTINUOUS
10
112.939
20
-138.121
11
113.081
21
-138.264
0
LINE
8
BLACK
6
CONTINUOUS
10
113.081
20
-138.264
11
113.224
21
-138.121
0
LINE
8
BLACK
6
CONTINUOUS
10
113.224
20
-138.121
11
113.081
21
-137.978
0
LINE
8
BLACK
6
CONTINUOUS
10
113.081
20
-137.978
11
113.081
21
-138.264
0
LINE
8
BLACK
6
CONTINUOUS
10
114.939
20
-140.978
11
114.653
21
-140.835
0
LINE
8
BLACK
6
CONTINUOUS
10
114.653
20
-140.835
11
114.51
21
-140.55
0
LINE
8
BLACK
6
CONTINUOUS
10
114.51
20
-140.55
11
114.51
21
-137.978
0
LINE
8
BLACK
6
CONTINUOUS
10
116.51
20
-140.978
11
116.224
21
-140.835
0
LINE
8
BLACK
6
CONTINUOUS
10
116.224
20
-140.835
11
116.081
21
-140.55
0
LINE
8
BLACK
6
CONTINUOUS
10
116.081
20
-140.55
11
116.081
21
-137.978
0
LINE
8
BLACK
6
CONTINUOUS
10
119.939
20
-140.978
11
119.939
21
-137.978
0
LINE
8
BLACK
6
CONTINUOUS
10
119.939
20
-137.978
11
120.939
21
-140.121
0
LINE
8
BLACK
6
CONTINUOUS
10
120.939
20
-140.121
11
121.939
21
-137.978
0
LINE
8
BLACK
6
CONTINUOUS
10
121.939
20
-137.978
11
121.939
21
-140.978
0
LINE
8
BLACK
6
CONTINUOUS
10
124.653
20
-140.978
11
124.653
21
-139.407
0
LINE
8
BLACK
6
CONTINUOUS
10
124.653
20
-139.407
11
124.51
21
-139.121
0
LINE
8
BLACK
6
CONTINUOUS
10
124.51
20
-139.121
11
124.224
21
-138.978
0
LINE
8
BLACK
6
CONTINUOUS
10
124.224
20
-138.978
11
123.653
21
-138.978
0
LINE
8
BLACK
6
CONTINUOUS
10
123.653
20
-138.978
11
123.367
21
-139.121
0
LINE
8
BLACK
6
CONTINUOUS
10
124.653
20
-140.835
11
124.367
21
-140.978
0
LINE
8
BLACK
6
CONTINUOUS
10
124.367
20
-140.978
11
123.653
21
-140.978
0
LINE
8
BLACK
6
CONTINUOUS
10
123.653
20
-140.978
11
123.367
21
-140.835
0
LINE
8
BLACK
6
CONTINUOUS
10
123.367
20
-140.835
11
123.224
21
-140.55
0
LINE
8
BLACK
6
CONTINUOUS
10
123.224
20
-140.55
11
123.224
21
-140.264
0
LINE
8
BLACK
6
CONTINUOUS
10
123.224
20
-140.264
11
123.367
21
-139.978
0
LINE
8
BLACK
6
CONTINUOUS
10
123.367
20
-139.978
11
123.653
21
-139.835
0
LINE
8
BLACK
6
CONTINUOUS
10
123.653
20
-139.835
11
124.367
21
-139.835
0
LINE
8
BLACK
6
CONTINUOUS
10
124.367
20
-139.835
11
124.653
21
-139.692
0
LINE
8
BLACK
6
CONTINUOUS
10
126.081
20
-138.978
11
126.081
21
-141.978
0
LINE
8
BLACK
6
CONTINUOUS
10
126.081
20
-139.121
11
126.367
21
-138.978
0
LINE
8
BLACK
6
CONTINUOUS
10
126.367
20
-138.978
11
126.939
21
-138.978
0
LINE
8
BLACK
6
CONTINUOUS
10
126.939
20
-138.978
11
127.224
21
-139.121
0
LINE
8
BLACK
6
CONTINUOUS
10
127.224
20
-139.121
11
127.367
21
-139.264
0
LINE
8
BLACK
6
CONTINUOUS
10
127.367
20
-139.264
11
127.51
21
-139.55
0
LINE
8
BLACK
6
CONTINUOUS
10
127.51
20
-139.55
11
127.51
21
-140.407
0
LINE
8
BLACK
6
CONTINUOUS
10
127.51
20
-140.407
11
127.367
21
-140.692
0
LINE
8
BLACK
6
CONTINUOUS
10
127.367
20
-140.692
11
127.224
21
-140.835
0
LINE
8
BLACK
6
CONTINUOUS
10
127.224
20
-140.835
11
126.939
21
-140.978
0
LINE
8
BLACK
6
CONTINUOUS
10
126.939
20
-140.978
11
126.367
21
-140.978
0
LINE
8
BLACK
6
CONTINUOUS
10
126.367
20
-140.978
11
126.081
21
-140.835
0
LINE
8
BLACK
6
CONTINUOUS
10
128.796
20
-140.692
11
128.939
21
-140.835
0
LINE
8
BLACK
6
CONTINUOUS
10
128.939
20
-140.835
11
128.796
21
-140.978
0
LINE
8
BLACK
6
CONTINUOUS
10
128.796
20
-140.978
11
128.653
21
-140.835
0
LINE
8
BLACK
6
CONTINUOUS
10
128.653
20
-140.835
11
128.796
21
-140.692
0
LINE
8
BLACK
6
CONTINUOUS
10
128.796
20
-140.692
11
128.796
21
-140.978
0
LINE
8
BLACK
6
CONTINUOUS
10
128.796
20
-139.121
11
128.939
21
-139.264
0
LINE
8
BLACK
6
CONTINUOUS
10
128.939
20
-139.264
11
128.796
21
-139.407
0
LINE
8
BLACK
6
CONTINUOUS
10
128.796
20
-139.407
11
128.653
21
-139.264
0
LINE
8
BLACK
6
CONTINUOUS
10
128.653
20
-139.264
11
128.796
21
-139.121
0
LINE
8
BLACK
6
CONTINUOUS
10
128.796
20
-139.121
11
128.796
21
-139.407
  0
ENDSEC
  0
EOF
