  0
SECTION
  2
HEADER
  9
$ANGBASE
  50
0.0
  9
$ANGDIR
  70
  1
  9
$MEASUREMENT
  70
0
  0
ENDSEC
  0
SECTION
  2
TABLES
  0
TABLE
  2
LTYPE
  70
4
  0
LTYPE
  5
40F
  2
CONTINUOUS
  70
0
  3
Solid line
  72
65
  73
0
  40
0.0
  0
LTYPE
  5
410
  2
DASHDOT
 70
0
  3
Dash Dot ____ _ ____ _
 72
65
 73
4
 40
2.0
 49
1.25
 49
-0.25
 49
0.25
 49
-0.25
  0
LTYPE
  5
411
  2
DASHED
 70
0
  3
Dashed __ __ __ __ __
 72
65
 73
2
 40
0.75
 49
0.5
 49
-0.25
  0
LTYPE
  5
43B
  2
DOTTED
 70
0
  3
Dotted .  .  .  .
 72
65
 73
2
 40
0.2
 49
0.0
 49
-0.2
  0
ENDTAB
  0
TABLE
  2
STYLE
  70
4
  0
STYLE
  2
KICAD
  70
0
  40
0
  41
1
  42
1
  50
0
  71
0
  3
isocp.shx
  0
STYLE
  2
KICADB
  70
0
  40
0
  41
1
  42
1
  50
0
  71
0
  3
isocp.shx
  0
STYLE
  2
KICADI
  70
0
  40
0
  41
1
  42
1
  50
15
  71
0
  3
isocp.shx
  0
STYLE
  2
KICADBI
  70
0
  40
0
  41
1
  42
1
  50
15
  71
0
  3
isocp.shx
  0
ENDTAB
  0
TABLE
  2
LAYER
  70
30
  0
LAYER
  2
BLACK
  70
0
  62
7
  6
CONTINUOUS
  0
LAYER
  2
GRAY1
  70
0
  62
251
  6
CONTINUOUS
  0
LAYER
  2
GRAY2
  70
0
  62
8
  6
CONTINUOUS
  0
LAYER
  2
GRAY3
  70
0
  62
9
  6
CONTINUOUS
  0
LAYER
  2
WHITE
  70
0
  62
7
  6
CONTINUOUS
  0
LAYER
  2
LYELLOW
  70
0
  62
51
  6
CONTINUOUS
  0
LAYER
  2
BLUE1
  70
0
  62
178
  6
CONTINUOUS
  0
LAYER
  2
GREEN1
  70
0
  62
98
  6
CONTINUOUS
  0
LAYER
  2
CYAN1
  70
0
  62
138
  6
CONTINUOUS
  0
LAYER
  2
RED1
  70
0
  62
18
  6
CONTINUOUS
  0
LAYER
  2
MAGENTA1
  70
0
  62
228
  6
CONTINUOUS
  0
LAYER
  2
BROWN1
  70
0
  62
58
  6
CONTINUOUS
  0
LAYER
  2
BLUE2
  70
0
  62
5
  6
CONTINUOUS
  0
LAYER
  2
GREEN2
  70
0
  62
3
  6
CONTINUOUS
  0
LAYER
  2
CYAN2
  70
0
  62
4
  6
CONTINUOUS
  0
LAYER
  2
RED2
  70
0
  62
1
  6
CONTINUOUS
  0
LAYER
  2
MAGENTA2
  70
0
  62
6
  6
CONTINUOUS
  0
LAYER
  2
BROWN2
  70
0
  62
54
  6
CONTINUOUS
  0
LAYER
  2
BLUE3
  70
0
  62
171
  6
CONTINUOUS
  0
LAYER
  2
GREEN3
  70
0
  62
91
  6
CONTINUOUS
  0
LAYER
  2
CYAN3
  70
0
  62
131
  6
CONTINUOUS
  0
LAYER
  2
RED3
  70
0
  62
11
  6
CONTINUOUS
  0
LAYER
  2
MAGENTA3
  70
0
  62
221
  6
CONTINUOUS
  0
LAYER
  2
YELLOW3
  70
0
  62
2
  6
CONTINUOUS
  0
LAYER
  2
BLUE4
  70
0
  62
5
  6
CONTINUOUS
  0
LAYER
  2
GREEN4
  70
0
  62
3
  6
CONTINUOUS
  0
LAYER
  2
CYAN4
  70
0
  62
4
  6
CONTINUOUS
  0
LAYER
  2
RED4
  70
0
  62
1
  6
CONTINUOUS
  0
LAYER
  2
MAGENTA4
  70
0
  62
6
  6
CONTINUOUS
  0
LAYER
  2
YELLOW4
  70
0
  62
2
  6
CONTINUOUS
  0
ENDTAB
  0
ENDSEC
  0
SECTION
  2
ENTITIES
0
LINE
8
BLACK
6
CONTINUOUS
10
188.815
20
-88.403
11
189.098
21
-88.7409
0
LINE
8
BLACK
6
CONTINUOUS
10
189.098
20
-88.7409
11
189.098
21
-88.7409
0
LINE
8
BLACK
6
CONTINUOUS
10
189.098
20
-88.7409
11
189.107
21
-88.7559
0
LINE
8
BLACK
6
CONTINUOUS
10
189.107
20
-88.7559
11
189.258
21
-89.1704
0
LINE
8
BLACK
6
CONTINUOUS
10
189.258
20
-89.1704
11
189.259
21
-89.1768
0
LINE
8
BLACK
6
CONTINUOUS
10
189.259
20
-89.1768
11
189.261
21
-89.1831
0
LINE
8
BLACK
6
CONTINUOUS
10
189.261
20
-89.1831
11
189.28
21
-89.4015
0
LINE
8
BLACK
6
CONTINUOUS
10
189.28
20
-89.4015
11
189.28
21
-89.4036
0
LINE
8
BLACK
6
CONTINUOUS
10
189.28
20
-89.4036
11
189.28
21
-135.005
0
LINE
8
BLACK
6
CONTINUOUS
10
189.28
20
-135.005
11
189.279
21
-135.01
0
LINE
8
BLACK
6
CONTINUOUS
10
189.279
20
-135.01
11
189.203
21
-135.444
0
LINE
8
BLACK
6
CONTINUOUS
10
189.203
20
-135.444
11
189.203
21
-135.444
0
LINE
8
BLACK
6
CONTINUOUS
10
189.203
20
-135.444
11
189.199
21
-135.453
0
LINE
8
BLACK
6
CONTINUOUS
10
189.199
20
-135.453
11
189.197
21
-135.46
0
LINE
8
BLACK
6
CONTINUOUS
10
189.197
20
-135.46
11
189.197
21
-135.46
0
LINE
8
BLACK
6
CONTINUOUS
10
189.197
20
-135.46
11
188.976
21
-135.842
0
LINE
8
BLACK
6
CONTINUOUS
10
188.976
20
-135.842
11
188.965
21
-135.856
0
LINE
8
BLACK
6
CONTINUOUS
10
188.965
20
-135.856
11
188.965
21
-135.856
0
LINE
8
BLACK
6
CONTINUOUS
10
188.965
20
-135.856
11
188.627
21
-136.139
0
LINE
8
BLACK
6
CONTINUOUS
10
188.627
20
-136.139
11
188.627
21
-136.139
0
LINE
8
BLACK
6
CONTINUOUS
10
188.627
20
-136.139
11
188.612
21
-136.148
0
LINE
8
BLACK
6
CONTINUOUS
10
188.612
20
-136.148
11
188.198
21
-136.299
0
LINE
8
BLACK
6
CONTINUOUS
10
188.198
20
-136.299
11
188.191
21
-136.3
0
LINE
8
BLACK
6
CONTINUOUS
10
188.191
20
-136.3
11
188.185
21
-136.302
0
LINE
8
BLACK
6
CONTINUOUS
10
188.185
20
-136.302
11
187.967
21
-136.321
0
LINE
8
BLACK
6
CONTINUOUS
10
187.967
20
-136.321
11
187.964
21
-136.321
0
LINE
8
BLACK
6
CONTINUOUS
10
187.964
20
-136.321
11
106.676
21
-136.321
0
LINE
8
BLACK
6
CONTINUOUS
10
106.676
20
-136.321
11
106.663
21
-136.319
0
LINE
8
BLACK
6
CONTINUOUS
10
106.663
20
-136.319
11
106.237
21
-136.244
0
LINE
8
BLACK
6
CONTINUOUS
10
106.237
20
-136.244
11
106.237
21
-136.244
0
LINE
8
BLACK
6
CONTINUOUS
10
106.237
20
-136.244
11
106.228
21
-136.24
0
LINE
8
BLACK
6
CONTINUOUS
10
106.228
20
-136.24
11
106.221
21
-136.238
0
LINE
8
BLACK
6
CONTINUOUS
10
106.221
20
-136.238
11
106.221
21
-136.238
0
LINE
8
BLACK
6
CONTINUOUS
10
106.221
20
-136.238
11
105.839
21
-136.017
0
LINE
8
BLACK
6
CONTINUOUS
10
105.839
20
-136.017
11
105.825
21
-136.006
0
LINE
8
BLACK
6
CONTINUOUS
10
105.825
20
-136.006
11
105.825
21
-136.006
0
LINE
8
BLACK
6
CONTINUOUS
10
105.825
20
-136.006
11
105.542
21
-135.668
0
LINE
8
BLACK
6
CONTINUOUS
10
105.542
20
-135.668
11
105.542
21
-135.668
0
LINE
8
BLACK
6
CONTINUOUS
10
105.542
20
-135.668
11
105.533
21
-135.653
0
LINE
8
BLACK
6
CONTINUOUS
10
105.533
20
-135.653
11
105.382
21
-135.239
0
LINE
8
BLACK
6
CONTINUOUS
10
105.382
20
-135.239
11
105.381
21
-135.232
0
LINE
8
BLACK
6
CONTINUOUS
10
105.381
20
-135.232
11
105.379
21
-135.226
0
LINE
8
BLACK
6
CONTINUOUS
10
105.379
20
-135.226
11
105.36
21
-135.008
0
LINE
8
BLACK
6
CONTINUOUS
10
105.36
20
-135.008
11
105.36
21
-135.005
0
LINE
8
BLACK
6
CONTINUOUS
10
105.36
20
-135.005
11
105.36
21
-89.4036
0
LINE
8
BLACK
6
CONTINUOUS
10
105.36
20
-89.4036
11
105.361
21
-89.3993
0
LINE
8
BLACK
6
CONTINUOUS
10
105.361
20
-89.3993
11
105.361
21
-89.3993
0
LINE
8
BLACK
6
CONTINUOUS
10
105.361
20
-89.3993
11
105.437
21
-88.965
0
LINE
8
BLACK
6
CONTINUOUS
10
105.437
20
-88.965
11
105.437
21
-88.965
0
LINE
8
BLACK
6
CONTINUOUS
10
105.437
20
-88.965
11
105.44
21
-88.9568
0
LINE
8
BLACK
6
CONTINUOUS
10
105.44
20
-88.9568
11
105.443
21
-88.9486
0
LINE
8
BLACK
6
CONTINUOUS
10
105.443
20
-88.9486
11
105.443
21
-88.9486
0
LINE
8
BLACK
6
CONTINUOUS
10
105.443
20
-88.9486
11
105.664
21
-88.5667
0
LINE
8
BLACK
6
CONTINUOUS
10
105.664
20
-88.5667
11
105.664
21
-88.5667
0
LINE
8
BLACK
6
CONTINUOUS
10
105.664
20
-88.5667
11
105.675
21
-88.5534
0
LINE
8
BLACK
6
CONTINUOUS
10
105.675
20
-88.5534
11
105.675
21
-88.5534
0
LINE
8
BLACK
6
CONTINUOUS
10
105.675
20
-88.5534
11
106.013
21
-88.2699
0
LINE
8
BLACK
6
CONTINUOUS
10
106.013
20
-88.2699
11
106.013
21
-88.2698
0
LINE
8
BLACK
6
CONTINUOUS
10
106.013
20
-88.2698
11
106.028
21
-88.2612
0
LINE
8
BLACK
6
CONTINUOUS
10
106.028
20
-88.2612
11
106.442
21
-88.1103
0
LINE
8
BLACK
6
CONTINUOUS
10
106.442
20
-88.1103
11
106.449
21
-88.1092
0
LINE
8
BLACK
6
CONTINUOUS
10
106.449
20
-88.1092
11
106.455
21
-88.1075
0
LINE
8
BLACK
6
CONTINUOUS
10
106.455
20
-88.1075
11
106.673
21
-88.0884
0
LINE
8
BLACK
6
CONTINUOUS
10
106.673
20
-88.0884
11
106.676
21
-88.088
0
LINE
8
BLACK
6
CONTINUOUS
10
106.676
20
-88.088
11
187.964
21
-88.088
0
LINE
8
BLACK
6
CONTINUOUS
10
187.964
20
-88.088
11
187.969
21
-88.0888
0
LINE
8
BLACK
6
CONTINUOUS
10
187.969
20
-88.0888
11
188.403
21
-88.1653
0
LINE
8
BLACK
6
CONTINUOUS
10
188.403
20
-88.1653
11
188.403
21
-88.1653
0
LINE
8
BLACK
6
CONTINUOUS
10
188.403
20
-88.1653
11
188.411
21
-88.1683
0
LINE
8
BLACK
6
CONTINUOUS
10
188.411
20
-88.1683
11
188.419
21
-88.1713
0
LINE
8
BLACK
6
CONTINUOUS
10
188.419
20
-88.1713
11
188.419
21
-88.1713
0
LINE
8
BLACK
6
CONTINUOUS
10
188.419
20
-88.1713
11
188.801
21
-88.3918
0
LINE
8
BLACK
6
CONTINUOUS
10
188.801
20
-88.3918
11
188.801
21
-88.3918
0
LINE
8
BLACK
6
CONTINUOUS
10
188.801
20
-88.3918
11
188.815
21
-88.403
0
LINE
8
BLACK
6
CONTINUOUS
10
188.815
20
-88.403
11
188.815
21
-88.403
0
LINE
8
BLACK
6
CONTINUOUS
10
106.682
20
-88.188
11
106.47
21
-88.2065
0
LINE
8
BLACK
6
CONTINUOUS
10
106.47
20
-88.2065
11
106.07
21
-88.3521
0
LINE
8
BLACK
6
CONTINUOUS
10
106.07
20
-88.3521
11
105.746
21
-88.6243
0
LINE
8
BLACK
6
CONTINUOUS
10
105.746
20
-88.6243
11
105.534
21
-88.991
0
LINE
8
BLACK
6
CONTINUOUS
10
105.534
20
-88.991
11
105.46
21
-89.4124
0
LINE
8
BLACK
6
CONTINUOUS
10
105.46
20
-89.4124
11
105.46
21
-134.999
0
LINE
8
BLACK
6
CONTINUOUS
10
105.46
20
-134.999
11
105.479
21
-135.211
0
LINE
8
BLACK
6
CONTINUOUS
10
105.479
20
-135.211
11
105.624
21
-135.611
0
LINE
8
BLACK
6
CONTINUOUS
10
105.624
20
-135.611
11
105.896
21
-135.935
0
LINE
8
BLACK
6
CONTINUOUS
10
105.896
20
-135.935
11
106.263
21
-136.147
0
LINE
8
BLACK
6
CONTINUOUS
10
106.263
20
-136.147
11
106.684
21
-136.221
0
LINE
8
BLACK
6
CONTINUOUS
10
106.684
20
-136.221
11
187.958
21
-136.221
0
LINE
8
BLACK
6
CONTINUOUS
10
187.958
20
-136.221
11
188.17
21
-136.202
0
LINE
8
BLACK
6
CONTINUOUS
10
188.17
20
-136.202
11
188.57
21
-136.057
0
LINE
8
BLACK
6
CONTINUOUS
10
188.57
20
-136.057
11
188.894
21
-135.785
0
LINE
8
BLACK
6
CONTINUOUS
10
188.894
20
-135.785
11
189.106
21
-135.418
0
LINE
8
BLACK
6
CONTINUOUS
10
189.106
20
-135.418
11
189.18
21
-134.997
0
LINE
8
BLACK
6
CONTINUOUS
10
189.18
20
-134.997
11
189.18
21
-89.4102
0
LINE
8
BLACK
6
CONTINUOUS
10
189.18
20
-89.4102
11
189.161
21
-89.1984
0
LINE
8
BLACK
6
CONTINUOUS
10
189.161
20
-89.1984
11
189.016
21
-88.7984
0
LINE
8
BLACK
6
CONTINUOUS
10
189.016
20
-88.7984
11
188.744
21
-88.474
0
LINE
8
BLACK
6
CONTINUOUS
10
188.744
20
-88.474
11
188.377
21
-88.2623
0
LINE
8
BLACK
6
CONTINUOUS
10
188.377
20
-88.2623
11
187.956
21
-88.188
0
LINE
8
BLACK
6
CONTINUOUS
10
187.956
20
-88.188
11
106.682
21
-88.188
  0
ENDSEC
  0
EOF
