M48
;DRILL file {KiCad (5.0.0-rc3-dev)} date 2019 April 27, Saturday 01:25:05
;FORMAT={-:-/ absolute / inch / decimal}
FMAT,2
INCH,TZ
T1C0.0157
T2C0.0236
T3C0.0315
T4C0.0315
T5C0.0354
T6C0.0394
T7C0.0394
T8C0.0472
T9C0.1181
T10C0.1260
%
G90
G05
M72
T1
X4.65Y-4.45
X4.65Y-4.5
X4.65Y-4.55
X4.65Y-4.825
X4.7Y-4.5
X4.7Y-4.5925
X4.75Y-4.35
X4.8Y-4.35
X4.8Y-4.4
X4.8Y-4.81
X4.85Y-4.35
X4.9Y-4.5
X4.9Y-4.95
X4.95Y-4.45
X4.95Y-4.5
X4.95Y-4.55
X5.25Y-4.81
X5.3Y-4.2
X5.3Y-4.95
X5.45Y-4.81
X5.45Y-4.95
X5.5Y-4.2
X5.5Y-4.38
X5.53Y-4.445
X5.65Y-4.2
X5.65Y-5.2475
X5.75Y-4.2
X5.8Y-3.78
X5.825Y-3.81
X5.85Y-3.78
X5.85Y-4.2
X5.95Y-3.78
X6.Y-4.2
X6.Y-4.6
X6.1Y-4.6
X6.2Y-4.2
X6.3Y-4.2
X6.3Y-4.6
X6.45Y-4.2
X6.45Y-4.6
X6.6Y-3.785
X6.6Y-4.1
X6.6Y-4.6
X6.6Y-4.95
X6.7Y-3.785
X6.745Y-4.1
X6.745Y-4.3
X6.745Y-4.95
X6.8Y-3.785
X6.9Y-3.785
X6.9Y-4.1
X6.9Y-4.3
X6.9Y-4.7
X6.9Y-4.95
T2
X6.7775Y-3.9725
T3
X6.6Y-4.2
X6.6Y-4.2984
X6.1Y-3.85
X6.4Y-3.85
X5.9Y-3.85
X5.9984Y-3.85
X5.4Y-3.9
X5.7Y-3.9
X6.94Y-3.9316
X6.94Y-4.03
T4
X4.5Y-4.1
X4.5Y-4.7
X4.6Y-4.1
X4.6Y-4.7
X4.7Y-4.1
X4.7Y-4.7
X4.8Y-4.1
X4.8Y-4.7
X4.9Y-4.1
X4.9Y-4.7
X5.Y-4.1
X5.Y-4.7
X5.1Y-4.1
X5.1Y-4.7
X5.2Y-4.1
X5.2Y-4.7
X5.3Y-4.1
X5.3Y-4.7
X5.4Y-4.1
X5.4Y-4.7
X5.5Y-4.1
X5.5Y-4.7
X5.6Y-4.1
X5.6Y-4.7
X5.7Y-4.1
X5.7Y-4.7
X5.8Y-4.1
X5.8Y-4.7
X5.9Y-4.1
X5.9Y-4.7
X6.Y-4.1
X6.Y-4.7
X6.1Y-4.1
X6.1Y-4.7
X6.2Y-4.1
X6.2Y-4.7
X6.3Y-4.1
X6.3Y-4.7
X6.4Y-4.1
X6.4Y-4.7
T5
X5.35Y-3.7
X5.45Y-3.7
T6
X6.8Y-4.2
X6.9Y-4.2
X7.Y-4.2
X4.6Y-5.05
X4.6Y-5.15
X4.7Y-5.05
X4.7Y-5.15
X4.8Y-5.05
X4.8Y-5.15
X4.9Y-5.05
X4.9Y-5.15
X5.Y-5.05
X5.Y-5.15
X5.1Y-5.05
X5.1Y-5.15
X5.2Y-5.05
X5.2Y-5.15
X5.3Y-5.05
X5.3Y-5.15
X5.4Y-5.05
X5.4Y-5.15
X5.5Y-5.05
X5.5Y-5.15
X5.6Y-5.05
X5.6Y-5.15
X5.7Y-5.05
X5.7Y-5.15
X5.8Y-5.05
X5.8Y-5.15
X5.9Y-5.05
X5.9Y-5.15
X6.Y-5.05
X6.Y-5.15
X6.1Y-5.05
X6.1Y-5.15
X6.2Y-5.05
X6.2Y-5.15
X6.3Y-5.05
X6.3Y-5.15
X6.4Y-5.05
X6.4Y-5.15
X6.5Y-5.05
X6.5Y-5.15
X6.6Y-5.05
X6.6Y-5.15
X6.7Y-5.05
X6.7Y-5.15
X6.8Y-5.05
X6.8Y-5.15
X6.9Y-5.05
X6.9Y-5.15
X7.Y-5.05
X7.Y-5.15
X6.6Y-3.9
X6.7Y-3.9
X5.6Y-3.7025
X5.7Y-3.7025
X5.8Y-3.7025
X5.9Y-3.7025
X6.Y-3.7025
X6.1Y-3.7025
X6.2Y-3.7025
X6.3Y-3.7025
X6.4Y-3.7025
X6.5Y-3.7025
X6.6Y-3.7025
X6.7Y-3.7025
X6.8Y-3.7025
X6.9Y-3.7025
X7.Y-3.7025
X7.1Y-3.7025
X7.2Y-3.7025
X7.3Y-3.7025
T8
X4.7441Y-3.6157
X4.7441Y-3.8243
T10
X7.3Y-4.75
X4.3Y-4.75
X4.3Y-4.05
X7.3Y-4.05
T7
X4.315Y-3.7167G85X4.315Y-3.7954
G05
X4.5393Y-3.6379G85X4.4607Y-3.6379
G05
X4.5393Y-3.8741G85X4.4607Y-3.8741
G05
T9
X4.3654Y-5.1289G85X4.2506Y-5.1011
G05
X7.2346Y-5.1289G85X7.3494Y-5.1011
G05
T0
M30
