  0
SECTION
  2
HEADER
  9
$ANGBASE
  50
0.0
  9
$ANGDIR
  70
  1
  9
$MEASUREMENT
  70
0
  0
ENDSEC
  0
SECTION
  2
TABLES
  0
TABLE
  2
LTYPE
  70
4
  0
LTYPE
  5
40F
  2
CONTINUOUS
  70
0
  3
Solid line
  72
65
  73
0
  40
0.0
  0
LTYPE
  5
410
  2
DASHDOT
 70
0
  3
Dash Dot ____ _ ____ _
 72
65
 73
4
 40
2.0
 49
1.25
 49
-0.25
 49
0.25
 49
-0.25
  0
LTYPE
  5
411
  2
DASHED
 70
0
  3
Dashed __ __ __ __ __
 72
65
 73
2
 40
0.75
 49
0.5
 49
-0.25
  0
LTYPE
  5
43B
  2
DOTTED
 70
0
  3
Dotted .  .  .  .
 72
65
 73
2
 40
0.2
 49
0.0
 49
-0.2
  0
ENDTAB
  0
TABLE
  2
STYLE
  70
4
  0
STYLE
  2
KICAD
  70
0
  40
0
  41
1
  42
1
  50
0
  71
0
  3
isocp.shx
  0
STYLE
  2
KICADB
  70
0
  40
0
  41
1
  42
1
  50
0
  71
0
  3
isocp.shx
  0
STYLE
  2
KICADI
  70
0
  40
0
  41
1
  42
1
  50
15
  71
0
  3
isocp.shx
  0
STYLE
  2
KICADBI
  70
0
  40
0
  41
1
  42
1
  50
15
  71
0
  3
isocp.shx
  0
ENDTAB
  0
TABLE
  2
LAYER
  70
30
  0
LAYER
  2
BLACK
  70
0
  62
7
  6
CONTINUOUS
  0
LAYER
  2
GRAY1
  70
0
  62
251
  6
CONTINUOUS
  0
LAYER
  2
GRAY2
  70
0
  62
8
  6
CONTINUOUS
  0
LAYER
  2
GRAY3
  70
0
  62
9
  6
CONTINUOUS
  0
LAYER
  2
WHITE
  70
0
  62
7
  6
CONTINUOUS
  0
LAYER
  2
LYELLOW
  70
0
  62
51
  6
CONTINUOUS
  0
LAYER
  2
BLUE1
  70
0
  62
178
  6
CONTINUOUS
  0
LAYER
  2
GREEN1
  70
0
  62
98
  6
CONTINUOUS
  0
LAYER
  2
CYAN1
  70
0
  62
138
  6
CONTINUOUS
  0
LAYER
  2
RED1
  70
0
  62
18
  6
CONTINUOUS
  0
LAYER
  2
MAGENTA1
  70
0
  62
228
  6
CONTINUOUS
  0
LAYER
  2
BROWN1
  70
0
  62
58
  6
CONTINUOUS
  0
LAYER
  2
BLUE2
  70
0
  62
5
  6
CONTINUOUS
  0
LAYER
  2
GREEN2
  70
0
  62
3
  6
CONTINUOUS
  0
LAYER
  2
CYAN2
  70
0
  62
4
  6
CONTINUOUS
  0
LAYER
  2
RED2
  70
0
  62
1
  6
CONTINUOUS
  0
LAYER
  2
MAGENTA2
  70
0
  62
6
  6
CONTINUOUS
  0
LAYER
  2
BROWN2
  70
0
  62
54
  6
CONTINUOUS
  0
LAYER
  2
BLUE3
  70
0
  62
171
  6
CONTINUOUS
  0
LAYER
  2
GREEN3
  70
0
  62
91
  6
CONTINUOUS
  0
LAYER
  2
CYAN3
  70
0
  62
131
  6
CONTINUOUS
  0
LAYER
  2
RED3
  70
0
  62
11
  6
CONTINUOUS
  0
LAYER
  2
MAGENTA3
  70
0
  62
221
  6
CONTINUOUS
  0
LAYER
  2
YELLOW3
  70
0
  62
2
  6
CONTINUOUS
  0
LAYER
  2
BLUE4
  70
0
  62
5
  6
CONTINUOUS
  0
LAYER
  2
GREEN4
  70
0
  62
3
  6
CONTINUOUS
  0
LAYER
  2
CYAN4
  70
0
  62
4
  6
CONTINUOUS
  0
LAYER
  2
RED4
  70
0
  62
1
  6
CONTINUOUS
  0
LAYER
  2
MAGENTA4
  70
0
  62
6
  6
CONTINUOUS
  0
LAYER
  2
YELLOW4
  70
0
  62
2
  6
CONTINUOUS
  0
ENDTAB
  0
ENDSEC
  0
SECTION
  2
ENTITIES
0
LINE
8
BLACK
6
CONTINUOUS
10
117.59
20
-133.856
11
117.59
21
-134.856
0
LINE
8
BLACK
6
CONTINUOUS
10
117.59
20
-134.856
11
116.09
21
-134.856
0
LINE
8
BLACK
6
CONTINUOUS
10
116.09
20
-134.856
11
116.09
21
-133.856
0
LINE
8
BLACK
6
CONTINUOUS
10
116.09
20
-133.856
11
116.84
21
-133.356
0
LINE
8
BLACK
6
CONTINUOUS
10
116.84
20
-133.356
11
117.59
21
-133.856
0
LINE
8
BLACK
6
CONTINUOUS
10
155.69
20
-133.856
11
155.69
21
-134.856
0
LINE
8
BLACK
6
CONTINUOUS
10
155.69
20
-134.856
11
154.19
21
-134.856
0
LINE
8
BLACK
6
CONTINUOUS
10
154.19
20
-134.856
11
154.19
21
-133.856
0
LINE
8
BLACK
6
CONTINUOUS
10
154.19
20
-133.856
11
154.94
21
-133.356
0
LINE
8
BLACK
6
CONTINUOUS
10
154.94
20
-133.356
11
155.69
21
-133.856
0
LINE
8
BLACK
6
CONTINUOUS
10
120.13
20
-133.829
11
120.13
21
-134.829
0
LINE
8
BLACK
6
CONTINUOUS
10
120.13
20
-134.829
11
118.63
21
-134.829
0
LINE
8
BLACK
6
CONTINUOUS
10
118.63
20
-134.829
11
118.63
21
-133.829
0
LINE
8
BLACK
6
CONTINUOUS
10
118.63
20
-133.829
11
119.38
21
-133.329
0
LINE
8
BLACK
6
CONTINUOUS
10
119.38
20
-133.329
11
120.13
21
-133.829
0
LINE
8
BLACK
6
CONTINUOUS
10
117.59
20
-133.555
11
116.84
21
-133.055
0
LINE
8
BLACK
6
CONTINUOUS
10
116.84
20
-133.055
11
116.09
21
-133.555
0
LINE
8
BLACK
6
CONTINUOUS
10
116.09
20
-133.555
11
116.09
21
-132.405
0
LINE
8
BLACK
6
CONTINUOUS
10
116.09
20
-132.405
11
117.59
21
-132.405
0
LINE
8
BLACK
6
CONTINUOUS
10
117.59
20
-132.405
11
117.59
21
-133.555
0
LINE
8
BLACK
6
CONTINUOUS
10
155.69
20
-133.555
11
154.94
21
-133.055
0
LINE
8
BLACK
6
CONTINUOUS
10
154.94
20
-133.055
11
154.19
21
-133.555
0
LINE
8
BLACK
6
CONTINUOUS
10
154.19
20
-133.555
11
154.19
21
-132.405
0
LINE
8
BLACK
6
CONTINUOUS
10
154.19
20
-132.405
11
155.69
21
-132.405
0
LINE
8
BLACK
6
CONTINUOUS
10
155.69
20
-132.405
11
155.69
21
-133.555
0
LINE
8
BLACK
6
CONTINUOUS
10
120.13
20
-133.529
11
119.38
21
-133.029
0
LINE
8
BLACK
6
CONTINUOUS
10
119.38
20
-133.029
11
118.63
21
-133.529
0
LINE
8
BLACK
6
CONTINUOUS
10
118.63
20
-133.529
11
118.63
21
-132.379
0
LINE
8
BLACK
6
CONTINUOUS
10
118.63
20
-132.379
11
120.13
21
-132.379
0
LINE
8
BLACK
6
CONTINUOUS
10
120.13
20
-132.379
11
120.13
21
-133.529
0
LINE
8
BLACK
6
CONTINUOUS
10
187.555
20
-127.795
11
188.109
21
-128.203
0
LINE
8
BLACK
6
CONTINUOUS
10
188.109
20
-128.203
11
188.489
21
-128.776
0
LINE
8
BLACK
6
CONTINUOUS
10
188.489
20
-128.776
11
188.651
21
-129.444
0
LINE
8
BLACK
6
CONTINUOUS
10
188.651
20
-129.444
11
188.574
21
-130.127
0
LINE
8
BLACK
6
CONTINUOUS
10
188.574
20
-130.127
11
188.268
21
-130.743
0
LINE
8
BLACK
6
CONTINUOUS
10
188.268
20
-130.743
11
187.771
21
-131.218
0
LINE
8
BLACK
6
CONTINUOUS
10
187.771
20
-131.218
11
187.299
21
-131.423
0
LINE
8
BLACK
6
CONTINUOUS
10
187.299
20
-131.423
11
184.052
21
-132.209
0
LINE
8
BLACK
6
CONTINUOUS
10
184.052
20
-132.209
11
183.538
21
-132.241
0
LINE
8
BLACK
6
CONTINUOUS
10
183.538
20
-132.241
11
182.878
21
-132.047
0
LINE
8
BLACK
6
CONTINUOUS
10
182.878
20
-132.047
11
182.325
21
-131.639
0
LINE
8
BLACK
6
CONTINUOUS
10
182.325
20
-131.639
11
181.944
21
-131.066
0
LINE
8
BLACK
6
CONTINUOUS
10
181.944
20
-131.066
11
181.783
21
-130.398
0
LINE
8
BLACK
6
CONTINUOUS
10
181.783
20
-130.398
11
181.859
21
-129.715
0
LINE
8
BLACK
6
CONTINUOUS
10
181.859
20
-129.715
11
182.165
21
-129.099
0
LINE
8
BLACK
6
CONTINUOUS
10
182.165
20
-129.099
11
182.663
21
-128.624
0
LINE
8
BLACK
6
CONTINUOUS
10
182.663
20
-128.624
11
183.135
21
-128.419
0
LINE
8
BLACK
6
CONTINUOUS
10
183.135
20
-128.419
11
186.382
21
-127.633
0
LINE
8
BLACK
6
CONTINUOUS
10
186.382
20
-127.633
11
186.895
21
-127.601
0
LINE
8
BLACK
6
CONTINUOUS
10
186.895
20
-127.601
11
187.555
21
-127.795
0
LINE
8
BLACK
6
CONTINUOUS
10
108.258
20
-127.633
11
111.505
21
-128.419
0
LINE
8
BLACK
6
CONTINUOUS
10
111.505
20
-128.419
11
111.977
21
-128.624
0
LINE
8
BLACK
6
CONTINUOUS
10
111.977
20
-128.624
11
112.475
21
-129.099
0
LINE
8
BLACK
6
CONTINUOUS
10
112.475
20
-129.099
11
112.781
21
-129.715
0
LINE
8
BLACK
6
CONTINUOUS
10
112.781
20
-129.715
11
112.857
21
-130.398
0
LINE
8
BLACK
6
CONTINUOUS
10
112.857
20
-130.398
11
112.696
21
-131.066
0
LINE
8
BLACK
6
CONTINUOUS
10
112.696
20
-131.066
11
112.315
21
-131.639
0
LINE
8
BLACK
6
CONTINUOUS
10
112.315
20
-131.639
11
111.762
21
-132.047
0
LINE
8
BLACK
6
CONTINUOUS
10
111.762
20
-132.047
11
111.102
21
-132.241
0
LINE
8
BLACK
6
CONTINUOUS
10
111.102
20
-132.241
11
110.588
21
-132.209
0
LINE
8
BLACK
6
CONTINUOUS
10
110.588
20
-132.209
11
107.341
21
-131.423
0
LINE
8
BLACK
6
CONTINUOUS
10
107.341
20
-131.423
11
106.869
21
-131.218
0
LINE
8
BLACK
6
CONTINUOUS
10
106.869
20
-131.218
11
106.372
21
-130.743
0
LINE
8
BLACK
6
CONTINUOUS
10
106.372
20
-130.743
11
106.066
21
-130.127
0
LINE
8
BLACK
6
CONTINUOUS
10
106.066
20
-130.127
11
105.989
21
-129.444
0
LINE
8
BLACK
6
CONTINUOUS
10
105.989
20
-129.444
11
106.151
21
-128.776
0
LINE
8
BLACK
6
CONTINUOUS
10
106.151
20
-128.776
11
106.531
21
-128.203
0
LINE
8
BLACK
6
CONTINUOUS
10
106.531
20
-128.203
11
107.085
21
-127.795
0
LINE
8
BLACK
6
CONTINUOUS
10
107.085
20
-127.795
11
107.745
21
-127.601
0
LINE
8
BLACK
6
CONTINUOUS
10
107.745
20
-127.601
11
108.258
21
-127.633
0
LINE
8
BLACK
6
CONTINUOUS
10
170.561
20
-130.15
11
170.763
21
-130.32
0
LINE
8
BLACK
6
CONTINUOUS
10
170.763
20
-130.32
11
170.896
21
-130.55
0
LINE
8
BLACK
6
CONTINUOUS
10
170.896
20
-130.55
11
170.93
21
-130.744
0
LINE
8
BLACK
6
CONTINUOUS
10
170.93
20
-130.744
11
170.93
21
-131.376
0
LINE
8
BLACK
6
CONTINUOUS
10
170.93
20
-131.376
11
170.896
21
-131.57
0
LINE
8
BLACK
6
CONTINUOUS
10
170.896
20
-131.57
11
170.763
21
-131.8
0
LINE
8
BLACK
6
CONTINUOUS
10
170.763
20
-131.8
11
170.561
21
-131.97
0
LINE
8
BLACK
6
CONTINUOUS
10
170.561
20
-131.97
11
170.312
21
-132.06
0
LINE
8
BLACK
6
CONTINUOUS
10
170.312
20
-132.06
11
170.048
21
-132.06
0
LINE
8
BLACK
6
CONTINUOUS
10
170.048
20
-132.06
11
169.799
21
-131.97
0
LINE
8
BLACK
6
CONTINUOUS
10
169.799
20
-131.97
11
169.597
21
-131.8
0
LINE
8
BLACK
6
CONTINUOUS
10
169.597
20
-131.8
11
169.464
21
-131.57
0
LINE
8
BLACK
6
CONTINUOUS
10
169.464
20
-131.57
11
169.43
21
-131.376
0
LINE
8
BLACK
6
CONTINUOUS
10
169.43
20
-131.376
11
169.43
21
-130.744
0
LINE
8
BLACK
6
CONTINUOUS
10
169.43
20
-130.744
11
169.464
21
-130.55
0
LINE
8
BLACK
6
CONTINUOUS
10
169.464
20
-130.55
11
169.597
21
-130.32
0
LINE
8
BLACK
6
CONTINUOUS
10
169.597
20
-130.32
11
169.799
21
-130.15
0
LINE
8
BLACK
6
CONTINUOUS
10
169.799
20
-130.15
11
170.048
21
-130.06
0
LINE
8
BLACK
6
CONTINUOUS
10
170.048
20
-130.06
11
170.312
21
-130.06
0
LINE
8
BLACK
6
CONTINUOUS
10
170.312
20
-130.06
11
170.561
21
-130.15
0
LINE
8
BLACK
6
CONTINUOUS
10
168.021
20
-130.15
11
168.223
21
-130.32
0
LINE
8
BLACK
6
CONTINUOUS
10
168.223
20
-130.32
11
168.356
21
-130.55
0
LINE
8
BLACK
6
CONTINUOUS
10
168.356
20
-130.55
11
168.39
21
-130.744
0
LINE
8
BLACK
6
CONTINUOUS
10
168.39
20
-130.744
11
168.39
21
-131.376
0
LINE
8
BLACK
6
CONTINUOUS
10
168.39
20
-131.376
11
168.356
21
-131.57
0
LINE
8
BLACK
6
CONTINUOUS
10
168.356
20
-131.57
11
168.223
21
-131.8
0
LINE
8
BLACK
6
CONTINUOUS
10
168.223
20
-131.8
11
168.021
21
-131.97
0
LINE
8
BLACK
6
CONTINUOUS
10
168.021
20
-131.97
11
167.772
21
-132.06
0
LINE
8
BLACK
6
CONTINUOUS
10
167.772
20
-132.06
11
167.508
21
-132.06
0
LINE
8
BLACK
6
CONTINUOUS
10
167.508
20
-132.06
11
167.259
21
-131.97
0
LINE
8
BLACK
6
CONTINUOUS
10
167.259
20
-131.97
11
167.057
21
-131.8
0
LINE
8
BLACK
6
CONTINUOUS
10
167.057
20
-131.8
11
166.924
21
-131.57
0
LINE
8
BLACK
6
CONTINUOUS
10
166.924
20
-131.57
11
166.89
21
-131.376
0
LINE
8
BLACK
6
CONTINUOUS
10
166.89
20
-131.376
11
166.89
21
-130.744
0
LINE
8
BLACK
6
CONTINUOUS
10
166.89
20
-130.744
11
166.924
21
-130.55
0
LINE
8
BLACK
6
CONTINUOUS
10
166.924
20
-130.55
11
167.057
21
-130.32
0
LINE
8
BLACK
6
CONTINUOUS
10
167.057
20
-130.32
11
167.259
21
-130.15
0
LINE
8
BLACK
6
CONTINUOUS
10
167.259
20
-130.15
11
167.508
21
-130.06
0
LINE
8
BLACK
6
CONTINUOUS
10
167.508
20
-130.06
11
167.772
21
-130.06
0
LINE
8
BLACK
6
CONTINUOUS
10
167.772
20
-130.06
11
168.021
21
-130.15
0
LINE
8
BLACK
6
CONTINUOUS
10
165.481
20
-130.15
11
165.683
21
-130.32
0
LINE
8
BLACK
6
CONTINUOUS
10
165.683
20
-130.32
11
165.816
21
-130.55
0
LINE
8
BLACK
6
CONTINUOUS
10
165.816
20
-130.55
11
165.85
21
-130.744
0
LINE
8
BLACK
6
CONTINUOUS
10
165.85
20
-130.744
11
165.85
21
-131.376
0
LINE
8
BLACK
6
CONTINUOUS
10
165.85
20
-131.376
11
165.816
21
-131.57
0
LINE
8
BLACK
6
CONTINUOUS
10
165.816
20
-131.57
11
165.683
21
-131.8
0
LINE
8
BLACK
6
CONTINUOUS
10
165.683
20
-131.8
11
165.481
21
-131.97
0
LINE
8
BLACK
6
CONTINUOUS
10
165.481
20
-131.97
11
165.232
21
-132.06
0
LINE
8
BLACK
6
CONTINUOUS
10
165.232
20
-132.06
11
164.968
21
-132.06
0
LINE
8
BLACK
6
CONTINUOUS
10
164.968
20
-132.06
11
164.719
21
-131.97
0
LINE
8
BLACK
6
CONTINUOUS
10
164.719
20
-131.97
11
164.517
21
-131.8
0
LINE
8
BLACK
6
CONTINUOUS
10
164.517
20
-131.8
11
164.384
21
-131.57
0
LINE
8
BLACK
6
CONTINUOUS
10
164.384
20
-131.57
11
164.35
21
-131.376
0
LINE
8
BLACK
6
CONTINUOUS
10
164.35
20
-131.376
11
164.35
21
-130.744
0
LINE
8
BLACK
6
CONTINUOUS
10
164.35
20
-130.744
11
164.384
21
-130.55
0
LINE
8
BLACK
6
CONTINUOUS
10
164.384
20
-130.55
11
164.517
21
-130.32
0
LINE
8
BLACK
6
CONTINUOUS
10
164.517
20
-130.32
11
164.719
21
-130.15
0
LINE
8
BLACK
6
CONTINUOUS
10
164.719
20
-130.15
11
164.968
21
-130.06
0
LINE
8
BLACK
6
CONTINUOUS
10
164.968
20
-130.06
11
165.232
21
-130.06
0
LINE
8
BLACK
6
CONTINUOUS
10
165.232
20
-130.06
11
165.481
21
-130.15
0
LINE
8
BLACK
6
CONTINUOUS
10
162.941
20
-130.15
11
163.143
21
-130.32
0
LINE
8
BLACK
6
CONTINUOUS
10
163.143
20
-130.32
11
163.276
21
-130.55
0
LINE
8
BLACK
6
CONTINUOUS
10
163.276
20
-130.55
11
163.31
21
-130.744
0
LINE
8
BLACK
6
CONTINUOUS
10
163.31
20
-130.744
11
163.31
21
-131.376
0
LINE
8
BLACK
6
CONTINUOUS
10
163.31
20
-131.376
11
163.276
21
-131.57
0
LINE
8
BLACK
6
CONTINUOUS
10
163.276
20
-131.57
11
163.143
21
-131.8
0
LINE
8
BLACK
6
CONTINUOUS
10
163.143
20
-131.8
11
162.941
21
-131.97
0
LINE
8
BLACK
6
CONTINUOUS
10
162.941
20
-131.97
11
162.692
21
-132.06
0
LINE
8
BLACK
6
CONTINUOUS
10
162.692
20
-132.06
11
162.428
21
-132.06
0
LINE
8
BLACK
6
CONTINUOUS
10
162.428
20
-132.06
11
162.179
21
-131.97
0
LINE
8
BLACK
6
CONTINUOUS
10
162.179
20
-131.97
11
161.977
21
-131.8
0
LINE
8
BLACK
6
CONTINUOUS
10
161.977
20
-131.8
11
161.844
21
-131.57
0
LINE
8
BLACK
6
CONTINUOUS
10
161.844
20
-131.57
11
161.81
21
-131.376
0
LINE
8
BLACK
6
CONTINUOUS
10
161.81
20
-131.376
11
161.81
21
-130.744
0
LINE
8
BLACK
6
CONTINUOUS
10
161.81
20
-130.744
11
161.844
21
-130.55
0
LINE
8
BLACK
6
CONTINUOUS
10
161.844
20
-130.55
11
161.977
21
-130.32
0
LINE
8
BLACK
6
CONTINUOUS
10
161.977
20
-130.32
11
162.179
21
-130.15
0
LINE
8
BLACK
6
CONTINUOUS
10
162.179
20
-130.15
11
162.428
21
-130.06
0
LINE
8
BLACK
6
CONTINUOUS
10
162.428
20
-130.06
11
162.692
21
-130.06
0
LINE
8
BLACK
6
CONTINUOUS
10
162.692
20
-130.06
11
162.941
21
-130.15
0
LINE
8
BLACK
6
CONTINUOUS
10
160.401
20
-130.15
11
160.603
21
-130.32
0
LINE
8
BLACK
6
CONTINUOUS
10
160.603
20
-130.32
11
160.736
21
-130.55
0
LINE
8
BLACK
6
CONTINUOUS
10
160.736
20
-130.55
11
160.77
21
-130.744
0
LINE
8
BLACK
6
CONTINUOUS
10
160.77
20
-130.744
11
160.77
21
-131.376
0
LINE
8
BLACK
6
CONTINUOUS
10
160.77
20
-131.376
11
160.736
21
-131.57
0
LINE
8
BLACK
6
CONTINUOUS
10
160.736
20
-131.57
11
160.603
21
-131.8
0
LINE
8
BLACK
6
CONTINUOUS
10
160.603
20
-131.8
11
160.401
21
-131.97
0
LINE
8
BLACK
6
CONTINUOUS
10
160.401
20
-131.97
11
160.152
21
-132.06
0
LINE
8
BLACK
6
CONTINUOUS
10
160.152
20
-132.06
11
159.888
21
-132.06
0
LINE
8
BLACK
6
CONTINUOUS
10
159.888
20
-132.06
11
159.639
21
-131.97
0
LINE
8
BLACK
6
CONTINUOUS
10
159.639
20
-131.97
11
159.437
21
-131.8
0
LINE
8
BLACK
6
CONTINUOUS
10
159.437
20
-131.8
11
159.304
21
-131.57
0
LINE
8
BLACK
6
CONTINUOUS
10
159.304
20
-131.57
11
159.27
21
-131.376
0
LINE
8
BLACK
6
CONTINUOUS
10
159.27
20
-131.376
11
159.27
21
-130.744
0
LINE
8
BLACK
6
CONTINUOUS
10
159.27
20
-130.744
11
159.304
21
-130.55
0
LINE
8
BLACK
6
CONTINUOUS
10
159.304
20
-130.55
11
159.437
21
-130.32
0
LINE
8
BLACK
6
CONTINUOUS
10
159.437
20
-130.32
11
159.639
21
-130.15
0
LINE
8
BLACK
6
CONTINUOUS
10
159.639
20
-130.15
11
159.888
21
-130.06
0
LINE
8
BLACK
6
CONTINUOUS
10
159.888
20
-130.06
11
160.152
21
-130.06
0
LINE
8
BLACK
6
CONTINUOUS
10
160.152
20
-130.06
11
160.401
21
-130.15
0
LINE
8
BLACK
6
CONTINUOUS
10
178.181
20
-130.15
11
178.383
21
-130.32
0
LINE
8
BLACK
6
CONTINUOUS
10
178.383
20
-130.32
11
178.516
21
-130.55
0
LINE
8
BLACK
6
CONTINUOUS
10
178.516
20
-130.55
11
178.55
21
-130.744
0
LINE
8
BLACK
6
CONTINUOUS
10
178.55
20
-130.744
11
178.55
21
-131.376
0
LINE
8
BLACK
6
CONTINUOUS
10
178.55
20
-131.376
11
178.516
21
-131.57
0
LINE
8
BLACK
6
CONTINUOUS
10
178.516
20
-131.57
11
178.383
21
-131.8
0
LINE
8
BLACK
6
CONTINUOUS
10
178.383
20
-131.8
11
178.181
21
-131.97
0
LINE
8
BLACK
6
CONTINUOUS
10
178.181
20
-131.97
11
177.932
21
-132.06
0
LINE
8
BLACK
6
CONTINUOUS
10
177.932
20
-132.06
11
177.668
21
-132.06
0
LINE
8
BLACK
6
CONTINUOUS
10
177.668
20
-132.06
11
177.419
21
-131.97
0
LINE
8
BLACK
6
CONTINUOUS
10
177.419
20
-131.97
11
177.217
21
-131.8
0
LINE
8
BLACK
6
CONTINUOUS
10
177.217
20
-131.8
11
177.084
21
-131.57
0
LINE
8
BLACK
6
CONTINUOUS
10
177.084
20
-131.57
11
177.05
21
-131.376
0
LINE
8
BLACK
6
CONTINUOUS
10
177.05
20
-131.376
11
177.05
21
-130.744
0
LINE
8
BLACK
6
CONTINUOUS
10
177.05
20
-130.744
11
177.084
21
-130.55
0
LINE
8
BLACK
6
CONTINUOUS
10
177.084
20
-130.55
11
177.217
21
-130.32
0
LINE
8
BLACK
6
CONTINUOUS
10
177.217
20
-130.32
11
177.419
21
-130.15
0
LINE
8
BLACK
6
CONTINUOUS
10
177.419
20
-130.15
11
177.668
21
-130.06
0
LINE
8
BLACK
6
CONTINUOUS
10
177.668
20
-130.06
11
177.932
21
-130.06
0
LINE
8
BLACK
6
CONTINUOUS
10
177.932
20
-130.06
11
178.181
21
-130.15
0
LINE
8
BLACK
6
CONTINUOUS
10
175.641
20
-130.15
11
175.843
21
-130.32
0
LINE
8
BLACK
6
CONTINUOUS
10
175.843
20
-130.32
11
175.976
21
-130.55
0
LINE
8
BLACK
6
CONTINUOUS
10
175.976
20
-130.55
11
176.01
21
-130.744
0
LINE
8
BLACK
6
CONTINUOUS
10
176.01
20
-130.744
11
176.01
21
-131.376
0
LINE
8
BLACK
6
CONTINUOUS
10
176.01
20
-131.376
11
175.976
21
-131.57
0
LINE
8
BLACK
6
CONTINUOUS
10
175.976
20
-131.57
11
175.843
21
-131.8
0
LINE
8
BLACK
6
CONTINUOUS
10
175.843
20
-131.8
11
175.641
21
-131.97
0
LINE
8
BLACK
6
CONTINUOUS
10
175.641
20
-131.97
11
175.392
21
-132.06
0
LINE
8
BLACK
6
CONTINUOUS
10
175.392
20
-132.06
11
175.128
21
-132.06
0
LINE
8
BLACK
6
CONTINUOUS
10
175.128
20
-132.06
11
174.879
21
-131.97
0
LINE
8
BLACK
6
CONTINUOUS
10
174.879
20
-131.97
11
174.677
21
-131.8
0
LINE
8
BLACK
6
CONTINUOUS
10
174.677
20
-131.8
11
174.544
21
-131.57
0
LINE
8
BLACK
6
CONTINUOUS
10
174.544
20
-131.57
11
174.51
21
-131.376
0
LINE
8
BLACK
6
CONTINUOUS
10
174.51
20
-131.376
11
174.51
21
-130.744
0
LINE
8
BLACK
6
CONTINUOUS
10
174.51
20
-130.744
11
174.544
21
-130.55
0
LINE
8
BLACK
6
CONTINUOUS
10
174.544
20
-130.55
11
174.677
21
-130.32
0
LINE
8
BLACK
6
CONTINUOUS
10
174.677
20
-130.32
11
174.879
21
-130.15
0
LINE
8
BLACK
6
CONTINUOUS
10
174.879
20
-130.15
11
175.128
21
-130.06
0
LINE
8
BLACK
6
CONTINUOUS
10
175.128
20
-130.06
11
175.392
21
-130.06
0
LINE
8
BLACK
6
CONTINUOUS
10
175.392
20
-130.06
11
175.641
21
-130.15
0
LINE
8
BLACK
6
CONTINUOUS
10
173.101
20
-130.15
11
173.303
21
-130.32
0
LINE
8
BLACK
6
CONTINUOUS
10
173.303
20
-130.32
11
173.436
21
-130.55
0
LINE
8
BLACK
6
CONTINUOUS
10
173.436
20
-130.55
11
173.47
21
-130.744
0
LINE
8
BLACK
6
CONTINUOUS
10
173.47
20
-130.744
11
173.47
21
-131.376
0
LINE
8
BLACK
6
CONTINUOUS
10
173.47
20
-131.376
11
173.436
21
-131.57
0
LINE
8
BLACK
6
CONTINUOUS
10
173.436
20
-131.57
11
173.303
21
-131.8
0
LINE
8
BLACK
6
CONTINUOUS
10
173.303
20
-131.8
11
173.101
21
-131.97
0
LINE
8
BLACK
6
CONTINUOUS
10
173.101
20
-131.97
11
172.852
21
-132.06
0
LINE
8
BLACK
6
CONTINUOUS
10
172.852
20
-132.06
11
172.588
21
-132.06
0
LINE
8
BLACK
6
CONTINUOUS
10
172.588
20
-132.06
11
172.339
21
-131.97
0
LINE
8
BLACK
6
CONTINUOUS
10
172.339
20
-131.97
11
172.137
21
-131.8
0
LINE
8
BLACK
6
CONTINUOUS
10
172.137
20
-131.8
11
172.004
21
-131.57
0
LINE
8
BLACK
6
CONTINUOUS
10
172.004
20
-131.57
11
171.97
21
-131.376
0
LINE
8
BLACK
6
CONTINUOUS
10
171.97
20
-131.376
11
171.97
21
-130.744
0
LINE
8
BLACK
6
CONTINUOUS
10
171.97
20
-130.744
11
172.004
21
-130.55
0
LINE
8
BLACK
6
CONTINUOUS
10
172.004
20
-130.55
11
172.137
21
-130.32
0
LINE
8
BLACK
6
CONTINUOUS
10
172.137
20
-130.32
11
172.339
21
-130.15
0
LINE
8
BLACK
6
CONTINUOUS
10
172.339
20
-130.15
11
172.588
21
-130.06
0
LINE
8
BLACK
6
CONTINUOUS
10
172.588
20
-130.06
11
172.852
21
-130.06
0
LINE
8
BLACK
6
CONTINUOUS
10
172.852
20
-130.06
11
173.101
21
-130.15
0
LINE
8
BLACK
6
CONTINUOUS
10
155.321
20
-130.15
11
155.523
21
-130.32
0
LINE
8
BLACK
6
CONTINUOUS
10
155.523
20
-130.32
11
155.656
21
-130.55
0
LINE
8
BLACK
6
CONTINUOUS
10
155.656
20
-130.55
11
155.69
21
-130.744
0
LINE
8
BLACK
6
CONTINUOUS
10
155.69
20
-130.744
11
155.69
21
-131.376
0
LINE
8
BLACK
6
CONTINUOUS
10
155.69
20
-131.376
11
155.656
21
-131.57
0
LINE
8
BLACK
6
CONTINUOUS
10
155.656
20
-131.57
11
155.523
21
-131.8
0
LINE
8
BLACK
6
CONTINUOUS
10
155.523
20
-131.8
11
155.321
21
-131.97
0
LINE
8
BLACK
6
CONTINUOUS
10
155.321
20
-131.97
11
155.072
21
-132.06
0
LINE
8
BLACK
6
CONTINUOUS
10
155.072
20
-132.06
11
154.808
21
-132.06
0
LINE
8
BLACK
6
CONTINUOUS
10
154.808
20
-132.06
11
154.559
21
-131.97
0
LINE
8
BLACK
6
CONTINUOUS
10
154.559
20
-131.97
11
154.357
21
-131.8
0
LINE
8
BLACK
6
CONTINUOUS
10
154.357
20
-131.8
11
154.224
21
-131.57
0
LINE
8
BLACK
6
CONTINUOUS
10
154.224
20
-131.57
11
154.19
21
-131.376
0
LINE
8
BLACK
6
CONTINUOUS
10
154.19
20
-131.376
11
154.19
21
-130.744
0
LINE
8
BLACK
6
CONTINUOUS
10
154.19
20
-130.744
11
154.224
21
-130.55
0
LINE
8
BLACK
6
CONTINUOUS
10
154.224
20
-130.55
11
154.357
21
-130.32
0
LINE
8
BLACK
6
CONTINUOUS
10
154.357
20
-130.32
11
154.559
21
-130.15
0
LINE
8
BLACK
6
CONTINUOUS
10
154.559
20
-130.15
11
154.808
21
-130.06
0
LINE
8
BLACK
6
CONTINUOUS
10
154.808
20
-130.06
11
155.072
21
-130.06
0
LINE
8
BLACK
6
CONTINUOUS
10
155.072
20
-130.06
11
155.321
21
-130.15
0
LINE
8
BLACK
6
CONTINUOUS
10
152.781
20
-130.15
11
152.983
21
-130.32
0
LINE
8
BLACK
6
CONTINUOUS
10
152.983
20
-130.32
11
153.116
21
-130.55
0
LINE
8
BLACK
6
CONTINUOUS
10
153.116
20
-130.55
11
153.15
21
-130.744
0
LINE
8
BLACK
6
CONTINUOUS
10
153.15
20
-130.744
11
153.15
21
-131.376
0
LINE
8
BLACK
6
CONTINUOUS
10
153.15
20
-131.376
11
153.116
21
-131.57
0
LINE
8
BLACK
6
CONTINUOUS
10
153.116
20
-131.57
11
152.983
21
-131.8
0
LINE
8
BLACK
6
CONTINUOUS
10
152.983
20
-131.8
11
152.781
21
-131.97
0
LINE
8
BLACK
6
CONTINUOUS
10
152.781
20
-131.97
11
152.532
21
-132.06
0
LINE
8
BLACK
6
CONTINUOUS
10
152.532
20
-132.06
11
152.268
21
-132.06
0
LINE
8
BLACK
6
CONTINUOUS
10
152.268
20
-132.06
11
152.019
21
-131.97
0
LINE
8
BLACK
6
CONTINUOUS
10
152.019
20
-131.97
11
151.817
21
-131.8
0
LINE
8
BLACK
6
CONTINUOUS
10
151.817
20
-131.8
11
151.684
21
-131.57
0
LINE
8
BLACK
6
CONTINUOUS
10
151.684
20
-131.57
11
151.65
21
-131.376
0
LINE
8
BLACK
6
CONTINUOUS
10
151.65
20
-131.376
11
151.65
21
-130.744
0
LINE
8
BLACK
6
CONTINUOUS
10
151.65
20
-130.744
11
151.684
21
-130.55
0
LINE
8
BLACK
6
CONTINUOUS
10
151.684
20
-130.55
11
151.817
21
-130.32
0
LINE
8
BLACK
6
CONTINUOUS
10
151.817
20
-130.32
11
152.019
21
-130.15
0
LINE
8
BLACK
6
CONTINUOUS
10
152.019
20
-130.15
11
152.268
21
-130.06
0
LINE
8
BLACK
6
CONTINUOUS
10
152.268
20
-130.06
11
152.532
21
-130.06
0
LINE
8
BLACK
6
CONTINUOUS
10
152.532
20
-130.06
11
152.781
21
-130.15
0
LINE
8
BLACK
6
CONTINUOUS
10
150.241
20
-130.15
11
150.443
21
-130.32
0
LINE
8
BLACK
6
CONTINUOUS
10
150.443
20
-130.32
11
150.576
21
-130.55
0
LINE
8
BLACK
6
CONTINUOUS
10
150.576
20
-130.55
11
150.61
21
-130.744
0
LINE
8
BLACK
6
CONTINUOUS
10
150.61
20
-130.744
11
150.61
21
-131.376
0
LINE
8
BLACK
6
CONTINUOUS
10
150.61
20
-131.376
11
150.576
21
-131.57
0
LINE
8
BLACK
6
CONTINUOUS
10
150.576
20
-131.57
11
150.443
21
-131.8
0
LINE
8
BLACK
6
CONTINUOUS
10
150.443
20
-131.8
11
150.241
21
-131.97
0
LINE
8
BLACK
6
CONTINUOUS
10
150.241
20
-131.97
11
149.992
21
-132.06
0
LINE
8
BLACK
6
CONTINUOUS
10
149.992
20
-132.06
11
149.728
21
-132.06
0
LINE
8
BLACK
6
CONTINUOUS
10
149.728
20
-132.06
11
149.479
21
-131.97
0
LINE
8
BLACK
6
CONTINUOUS
10
149.479
20
-131.97
11
149.277
21
-131.8
0
LINE
8
BLACK
6
CONTINUOUS
10
149.277
20
-131.8
11
149.144
21
-131.57
0
LINE
8
BLACK
6
CONTINUOUS
10
149.144
20
-131.57
11
149.11
21
-131.376
0
LINE
8
BLACK
6
CONTINUOUS
10
149.11
20
-131.376
11
149.11
21
-130.744
0
LINE
8
BLACK
6
CONTINUOUS
10
149.11
20
-130.744
11
149.144
21
-130.55
0
LINE
8
BLACK
6
CONTINUOUS
10
149.144
20
-130.55
11
149.277
21
-130.32
0
LINE
8
BLACK
6
CONTINUOUS
10
149.277
20
-130.32
11
149.479
21
-130.15
0
LINE
8
BLACK
6
CONTINUOUS
10
149.479
20
-130.15
11
149.728
21
-130.06
0
LINE
8
BLACK
6
CONTINUOUS
10
149.728
20
-130.06
11
149.992
21
-130.06
0
LINE
8
BLACK
6
CONTINUOUS
10
149.992
20
-130.06
11
150.241
21
-130.15
0
LINE
8
BLACK
6
CONTINUOUS
10
147.701
20
-130.15
11
147.903
21
-130.32
0
LINE
8
BLACK
6
CONTINUOUS
10
147.903
20
-130.32
11
148.036
21
-130.55
0
LINE
8
BLACK
6
CONTINUOUS
10
148.036
20
-130.55
11
148.07
21
-130.744
0
LINE
8
BLACK
6
CONTINUOUS
10
148.07
20
-130.744
11
148.07
21
-131.376
0
LINE
8
BLACK
6
CONTINUOUS
10
148.07
20
-131.376
11
148.036
21
-131.57
0
LINE
8
BLACK
6
CONTINUOUS
10
148.036
20
-131.57
11
147.903
21
-131.8
0
LINE
8
BLACK
6
CONTINUOUS
10
147.903
20
-131.8
11
147.701
21
-131.97
0
LINE
8
BLACK
6
CONTINUOUS
10
147.701
20
-131.97
11
147.452
21
-132.06
0
LINE
8
BLACK
6
CONTINUOUS
10
147.452
20
-132.06
11
147.188
21
-132.06
0
LINE
8
BLACK
6
CONTINUOUS
10
147.188
20
-132.06
11
146.939
21
-131.97
0
LINE
8
BLACK
6
CONTINUOUS
10
146.939
20
-131.97
11
146.737
21
-131.8
0
LINE
8
BLACK
6
CONTINUOUS
10
146.737
20
-131.8
11
146.604
21
-131.57
0
LINE
8
BLACK
6
CONTINUOUS
10
146.604
20
-131.57
11
146.57
21
-131.376
0
LINE
8
BLACK
6
CONTINUOUS
10
146.57
20
-131.376
11
146.57
21
-130.744
0
LINE
8
BLACK
6
CONTINUOUS
10
146.57
20
-130.744
11
146.604
21
-130.55
0
LINE
8
BLACK
6
CONTINUOUS
10
146.604
20
-130.55
11
146.737
21
-130.32
0
LINE
8
BLACK
6
CONTINUOUS
10
146.737
20
-130.32
11
146.939
21
-130.15
0
LINE
8
BLACK
6
CONTINUOUS
10
146.939
20
-130.15
11
147.188
21
-130.06
0
LINE
8
BLACK
6
CONTINUOUS
10
147.188
20
-130.06
11
147.452
21
-130.06
0
LINE
8
BLACK
6
CONTINUOUS
10
147.452
20
-130.06
11
147.701
21
-130.15
0
LINE
8
BLACK
6
CONTINUOUS
10
142.621
20
-130.15
11
142.823
21
-130.32
0
LINE
8
BLACK
6
CONTINUOUS
10
142.823
20
-130.32
11
142.956
21
-130.55
0
LINE
8
BLACK
6
CONTINUOUS
10
142.956
20
-130.55
11
142.99
21
-130.744
0
LINE
8
BLACK
6
CONTINUOUS
10
142.99
20
-130.744
11
142.99
21
-131.376
0
LINE
8
BLACK
6
CONTINUOUS
10
142.99
20
-131.376
11
142.956
21
-131.57
0
LINE
8
BLACK
6
CONTINUOUS
10
142.956
20
-131.57
11
142.823
21
-131.8
0
LINE
8
BLACK
6
CONTINUOUS
10
142.823
20
-131.8
11
142.621
21
-131.97
0
LINE
8
BLACK
6
CONTINUOUS
10
142.621
20
-131.97
11
142.372
21
-132.06
0
LINE
8
BLACK
6
CONTINUOUS
10
142.372
20
-132.06
11
142.108
21
-132.06
0
LINE
8
BLACK
6
CONTINUOUS
10
142.108
20
-132.06
11
141.859
21
-131.97
0
LINE
8
BLACK
6
CONTINUOUS
10
141.859
20
-131.97
11
141.657
21
-131.8
0
LINE
8
BLACK
6
CONTINUOUS
10
141.657
20
-131.8
11
141.524
21
-131.57
0
LINE
8
BLACK
6
CONTINUOUS
10
141.524
20
-131.57
11
141.49
21
-131.376
0
LINE
8
BLACK
6
CONTINUOUS
10
141.49
20
-131.376
11
141.49
21
-130.744
0
LINE
8
BLACK
6
CONTINUOUS
10
141.49
20
-130.744
11
141.524
21
-130.55
0
LINE
8
BLACK
6
CONTINUOUS
10
141.524
20
-130.55
11
141.657
21
-130.32
0
LINE
8
BLACK
6
CONTINUOUS
10
141.657
20
-130.32
11
141.859
21
-130.15
0
LINE
8
BLACK
6
CONTINUOUS
10
141.859
20
-130.15
11
142.108
21
-130.06
0
LINE
8
BLACK
6
CONTINUOUS
10
142.108
20
-130.06
11
142.372
21
-130.06
0
LINE
8
BLACK
6
CONTINUOUS
10
142.372
20
-130.06
11
142.621
21
-130.15
0
LINE
8
BLACK
6
CONTINUOUS
10
145.161
20
-130.15
11
145.363
21
-130.32
0
LINE
8
BLACK
6
CONTINUOUS
10
145.363
20
-130.32
11
145.496
21
-130.55
0
LINE
8
BLACK
6
CONTINUOUS
10
145.496
20
-130.55
11
145.53
21
-130.744
0
LINE
8
BLACK
6
CONTINUOUS
10
145.53
20
-130.744
11
145.53
21
-131.376
0
LINE
8
BLACK
6
CONTINUOUS
10
145.53
20
-131.376
11
145.496
21
-131.57
0
LINE
8
BLACK
6
CONTINUOUS
10
145.496
20
-131.57
11
145.363
21
-131.8
0
LINE
8
BLACK
6
CONTINUOUS
10
145.363
20
-131.8
11
145.161
21
-131.97
0
LINE
8
BLACK
6
CONTINUOUS
10
145.161
20
-131.97
11
144.912
21
-132.06
0
LINE
8
BLACK
6
CONTINUOUS
10
144.912
20
-132.06
11
144.648
21
-132.06
0
LINE
8
BLACK
6
CONTINUOUS
10
144.648
20
-132.06
11
144.399
21
-131.97
0
LINE
8
BLACK
6
CONTINUOUS
10
144.399
20
-131.97
11
144.197
21
-131.8
0
LINE
8
BLACK
6
CONTINUOUS
10
144.197
20
-131.8
11
144.064
21
-131.57
0
LINE
8
BLACK
6
CONTINUOUS
10
144.064
20
-131.57
11
144.03
21
-131.376
0
LINE
8
BLACK
6
CONTINUOUS
10
144.03
20
-131.376
11
144.03
21
-130.744
0
LINE
8
BLACK
6
CONTINUOUS
10
144.03
20
-130.744
11
144.064
21
-130.55
0
LINE
8
BLACK
6
CONTINUOUS
10
144.064
20
-130.55
11
144.197
21
-130.32
0
LINE
8
BLACK
6
CONTINUOUS
10
144.197
20
-130.32
11
144.399
21
-130.15
0
LINE
8
BLACK
6
CONTINUOUS
10
144.399
20
-130.15
11
144.648
21
-130.06
0
LINE
8
BLACK
6
CONTINUOUS
10
144.648
20
-130.06
11
144.912
21
-130.06
0
LINE
8
BLACK
6
CONTINUOUS
10
144.912
20
-130.06
11
145.161
21
-130.15
0
LINE
8
BLACK
6
CONTINUOUS
10
140.081
20
-130.15
11
140.283
21
-130.32
0
LINE
8
BLACK
6
CONTINUOUS
10
140.283
20
-130.32
11
140.416
21
-130.55
0
LINE
8
BLACK
6
CONTINUOUS
10
140.416
20
-130.55
11
140.45
21
-130.744
0
LINE
8
BLACK
6
CONTINUOUS
10
140.45
20
-130.744
11
140.45
21
-131.376
0
LINE
8
BLACK
6
CONTINUOUS
10
140.45
20
-131.376
11
140.416
21
-131.57
0
LINE
8
BLACK
6
CONTINUOUS
10
140.416
20
-131.57
11
140.283
21
-131.8
0
LINE
8
BLACK
6
CONTINUOUS
10
140.283
20
-131.8
11
140.081
21
-131.97
0
LINE
8
BLACK
6
CONTINUOUS
10
140.081
20
-131.97
11
139.832
21
-132.06
0
LINE
8
BLACK
6
CONTINUOUS
10
139.832
20
-132.06
11
139.568
21
-132.06
0
LINE
8
BLACK
6
CONTINUOUS
10
139.568
20
-132.06
11
139.319
21
-131.97
0
LINE
8
BLACK
6
CONTINUOUS
10
139.319
20
-131.97
11
139.117
21
-131.8
0
LINE
8
BLACK
6
CONTINUOUS
10
139.117
20
-131.8
11
138.984
21
-131.57
0
LINE
8
BLACK
6
CONTINUOUS
10
138.984
20
-131.57
11
138.95
21
-131.376
0
LINE
8
BLACK
6
CONTINUOUS
10
138.95
20
-131.376
11
138.95
21
-130.744
0
LINE
8
BLACK
6
CONTINUOUS
10
138.95
20
-130.744
11
138.984
21
-130.55
0
LINE
8
BLACK
6
CONTINUOUS
10
138.984
20
-130.55
11
139.117
21
-130.32
0
LINE
8
BLACK
6
CONTINUOUS
10
139.117
20
-130.32
11
139.319
21
-130.15
0
LINE
8
BLACK
6
CONTINUOUS
10
139.319
20
-130.15
11
139.568
21
-130.06
0
LINE
8
BLACK
6
CONTINUOUS
10
139.568
20
-130.06
11
139.832
21
-130.06
0
LINE
8
BLACK
6
CONTINUOUS
10
139.832
20
-130.06
11
140.081
21
-130.15
0
LINE
8
BLACK
6
CONTINUOUS
10
137.541
20
-130.15
11
137.743
21
-130.32
0
LINE
8
BLACK
6
CONTINUOUS
10
137.743
20
-130.32
11
137.876
21
-130.55
0
LINE
8
BLACK
6
CONTINUOUS
10
137.876
20
-130.55
11
137.91
21
-130.744
0
LINE
8
BLACK
6
CONTINUOUS
10
137.91
20
-130.744
11
137.91
21
-131.376
0
LINE
8
BLACK
6
CONTINUOUS
10
137.91
20
-131.376
11
137.876
21
-131.57
0
LINE
8
BLACK
6
CONTINUOUS
10
137.876
20
-131.57
11
137.743
21
-131.8
0
LINE
8
BLACK
6
CONTINUOUS
10
137.743
20
-131.8
11
137.541
21
-131.97
0
LINE
8
BLACK
6
CONTINUOUS
10
137.541
20
-131.97
11
137.292
21
-132.06
0
LINE
8
BLACK
6
CONTINUOUS
10
137.292
20
-132.06
11
137.028
21
-132.06
0
LINE
8
BLACK
6
CONTINUOUS
10
137.028
20
-132.06
11
136.779
21
-131.97
0
LINE
8
BLACK
6
CONTINUOUS
10
136.779
20
-131.97
11
136.577
21
-131.8
0
LINE
8
BLACK
6
CONTINUOUS
10
136.577
20
-131.8
11
136.444
21
-131.57
0
LINE
8
BLACK
6
CONTINUOUS
10
136.444
20
-131.57
11
136.41
21
-131.376
0
LINE
8
BLACK
6
CONTINUOUS
10
136.41
20
-131.376
11
136.41
21
-130.744
0
LINE
8
BLACK
6
CONTINUOUS
10
136.41
20
-130.744
11
136.444
21
-130.55
0
LINE
8
BLACK
6
CONTINUOUS
10
136.444
20
-130.55
11
136.577
21
-130.32
0
LINE
8
BLACK
6
CONTINUOUS
10
136.577
20
-130.32
11
136.779
21
-130.15
0
LINE
8
BLACK
6
CONTINUOUS
10
136.779
20
-130.15
11
137.028
21
-130.06
0
LINE
8
BLACK
6
CONTINUOUS
10
137.028
20
-130.06
11
137.292
21
-130.06
0
LINE
8
BLACK
6
CONTINUOUS
10
137.292
20
-130.06
11
137.541
21
-130.15
0
LINE
8
BLACK
6
CONTINUOUS
10
135.001
20
-130.15
11
135.203
21
-130.32
0
LINE
8
BLACK
6
CONTINUOUS
10
135.203
20
-130.32
11
135.336
21
-130.55
0
LINE
8
BLACK
6
CONTINUOUS
10
135.336
20
-130.55
11
135.37
21
-130.744
0
LINE
8
BLACK
6
CONTINUOUS
10
135.37
20
-130.744
11
135.37
21
-131.376
0
LINE
8
BLACK
6
CONTINUOUS
10
135.37
20
-131.376
11
135.336
21
-131.57
0
LINE
8
BLACK
6
CONTINUOUS
10
135.336
20
-131.57
11
135.203
21
-131.8
0
LINE
8
BLACK
6
CONTINUOUS
10
135.203
20
-131.8
11
135.001
21
-131.97
0
LINE
8
BLACK
6
CONTINUOUS
10
135.001
20
-131.97
11
134.752
21
-132.06
0
LINE
8
BLACK
6
CONTINUOUS
10
134.752
20
-132.06
11
134.488
21
-132.06
0
LINE
8
BLACK
6
CONTINUOUS
10
134.488
20
-132.06
11
134.239
21
-131.97
0
LINE
8
BLACK
6
CONTINUOUS
10
134.239
20
-131.97
11
134.037
21
-131.8
0
LINE
8
BLACK
6
CONTINUOUS
10
134.037
20
-131.8
11
133.904
21
-131.57
0
LINE
8
BLACK
6
CONTINUOUS
10
133.904
20
-131.57
11
133.87
21
-131.376
0
LINE
8
BLACK
6
CONTINUOUS
10
133.87
20
-131.376
11
133.87
21
-130.744
0
LINE
8
BLACK
6
CONTINUOUS
10
133.87
20
-130.744
11
133.904
21
-130.55
0
LINE
8
BLACK
6
CONTINUOUS
10
133.904
20
-130.55
11
134.037
21
-130.32
0
LINE
8
BLACK
6
CONTINUOUS
10
134.037
20
-130.32
11
134.239
21
-130.15
0
LINE
8
BLACK
6
CONTINUOUS
10
134.239
20
-130.15
11
134.488
21
-130.06
0
LINE
8
BLACK
6
CONTINUOUS
10
134.488
20
-130.06
11
134.752
21
-130.06
0
LINE
8
BLACK
6
CONTINUOUS
10
134.752
20
-130.06
11
135.001
21
-130.15
0
LINE
8
BLACK
6
CONTINUOUS
10
129.921
20
-130.15
11
130.123
21
-130.32
0
LINE
8
BLACK
6
CONTINUOUS
10
130.123
20
-130.32
11
130.256
21
-130.55
0
LINE
8
BLACK
6
CONTINUOUS
10
130.256
20
-130.55
11
130.29
21
-130.744
0
LINE
8
BLACK
6
CONTINUOUS
10
130.29
20
-130.744
11
130.29
21
-131.376
0
LINE
8
BLACK
6
CONTINUOUS
10
130.29
20
-131.376
11
130.256
21
-131.57
0
LINE
8
BLACK
6
CONTINUOUS
10
130.256
20
-131.57
11
130.123
21
-131.8
0
LINE
8
BLACK
6
CONTINUOUS
10
130.123
20
-131.8
11
129.921
21
-131.97
0
LINE
8
BLACK
6
CONTINUOUS
10
129.921
20
-131.97
11
129.672
21
-132.06
0
LINE
8
BLACK
6
CONTINUOUS
10
129.672
20
-132.06
11
129.408
21
-132.06
0
LINE
8
BLACK
6
CONTINUOUS
10
129.408
20
-132.06
11
129.159
21
-131.97
0
LINE
8
BLACK
6
CONTINUOUS
10
129.159
20
-131.97
11
128.957
21
-131.8
0
LINE
8
BLACK
6
CONTINUOUS
10
128.957
20
-131.8
11
128.824
21
-131.57
0
LINE
8
BLACK
6
CONTINUOUS
10
128.824
20
-131.57
11
128.79
21
-131.376
0
LINE
8
BLACK
6
CONTINUOUS
10
128.79
20
-131.376
11
128.79
21
-130.744
0
LINE
8
BLACK
6
CONTINUOUS
10
128.79
20
-130.744
11
128.824
21
-130.55
0
LINE
8
BLACK
6
CONTINUOUS
10
128.824
20
-130.55
11
128.957
21
-130.32
0
LINE
8
BLACK
6
CONTINUOUS
10
128.957
20
-130.32
11
129.159
21
-130.15
0
LINE
8
BLACK
6
CONTINUOUS
10
129.159
20
-130.15
11
129.408
21
-130.06
0
LINE
8
BLACK
6
CONTINUOUS
10
129.408
20
-130.06
11
129.672
21
-130.06
0
LINE
8
BLACK
6
CONTINUOUS
10
129.672
20
-130.06
11
129.921
21
-130.15
0
LINE
8
BLACK
6
CONTINUOUS
10
132.461
20
-130.15
11
132.663
21
-130.32
0
LINE
8
BLACK
6
CONTINUOUS
10
132.663
20
-130.32
11
132.796
21
-130.55
0
LINE
8
BLACK
6
CONTINUOUS
10
132.796
20
-130.55
11
132.83
21
-130.744
0
LINE
8
BLACK
6
CONTINUOUS
10
132.83
20
-130.744
11
132.83
21
-131.376
0
LINE
8
BLACK
6
CONTINUOUS
10
132.83
20
-131.376
11
132.796
21
-131.57
0
LINE
8
BLACK
6
CONTINUOUS
10
132.796
20
-131.57
11
132.663
21
-131.8
0
LINE
8
BLACK
6
CONTINUOUS
10
132.663
20
-131.8
11
132.461
21
-131.97
0
LINE
8
BLACK
6
CONTINUOUS
10
132.461
20
-131.97
11
132.212
21
-132.06
0
LINE
8
BLACK
6
CONTINUOUS
10
132.212
20
-132.06
11
131.948
21
-132.06
0
LINE
8
BLACK
6
CONTINUOUS
10
131.948
20
-132.06
11
131.699
21
-131.97
0
LINE
8
BLACK
6
CONTINUOUS
10
131.699
20
-131.97
11
131.497
21
-131.8
0
LINE
8
BLACK
6
CONTINUOUS
10
131.497
20
-131.8
11
131.364
21
-131.57
0
LINE
8
BLACK
6
CONTINUOUS
10
131.364
20
-131.57
11
131.33
21
-131.376
0
LINE
8
BLACK
6
CONTINUOUS
10
131.33
20
-131.376
11
131.33
21
-130.744
0
LINE
8
BLACK
6
CONTINUOUS
10
131.33
20
-130.744
11
131.364
21
-130.55
0
LINE
8
BLACK
6
CONTINUOUS
10
131.364
20
-130.55
11
131.497
21
-130.32
0
LINE
8
BLACK
6
CONTINUOUS
10
131.497
20
-130.32
11
131.699
21
-130.15
0
LINE
8
BLACK
6
CONTINUOUS
10
131.699
20
-130.15
11
131.948
21
-130.06
0
LINE
8
BLACK
6
CONTINUOUS
10
131.948
20
-130.06
11
132.212
21
-130.06
0
LINE
8
BLACK
6
CONTINUOUS
10
132.212
20
-130.06
11
132.461
21
-130.15
0
LINE
8
BLACK
6
CONTINUOUS
10
119.761
20
-130.15
11
119.963
21
-130.32
0
LINE
8
BLACK
6
CONTINUOUS
10
119.963
20
-130.32
11
120.096
21
-130.55
0
LINE
8
BLACK
6
CONTINUOUS
10
120.096
20
-130.55
11
120.13
21
-130.744
0
LINE
8
BLACK
6
CONTINUOUS
10
120.13
20
-130.744
11
120.13
21
-131.376
0
LINE
8
BLACK
6
CONTINUOUS
10
120.13
20
-131.376
11
120.096
21
-131.57
0
LINE
8
BLACK
6
CONTINUOUS
10
120.096
20
-131.57
11
119.963
21
-131.8
0
LINE
8
BLACK
6
CONTINUOUS
10
119.963
20
-131.8
11
119.761
21
-131.97
0
LINE
8
BLACK
6
CONTINUOUS
10
119.761
20
-131.97
11
119.512
21
-132.06
0
LINE
8
BLACK
6
CONTINUOUS
10
119.512
20
-132.06
11
119.248
21
-132.06
0
LINE
8
BLACK
6
CONTINUOUS
10
119.248
20
-132.06
11
118.999
21
-131.97
0
LINE
8
BLACK
6
CONTINUOUS
10
118.999
20
-131.97
11
118.797
21
-131.8
0
LINE
8
BLACK
6
CONTINUOUS
10
118.797
20
-131.8
11
118.664
21
-131.57
0
LINE
8
BLACK
6
CONTINUOUS
10
118.664
20
-131.57
11
118.63
21
-131.376
0
LINE
8
BLACK
6
CONTINUOUS
10
118.63
20
-131.376
11
118.63
21
-130.744
0
LINE
8
BLACK
6
CONTINUOUS
10
118.63
20
-130.744
11
118.664
21
-130.55
0
LINE
8
BLACK
6
CONTINUOUS
10
118.664
20
-130.55
11
118.797
21
-130.32
0
LINE
8
BLACK
6
CONTINUOUS
10
118.797
20
-130.32
11
118.999
21
-130.15
0
LINE
8
BLACK
6
CONTINUOUS
10
118.999
20
-130.15
11
119.248
21
-130.06
0
LINE
8
BLACK
6
CONTINUOUS
10
119.248
20
-130.06
11
119.512
21
-130.06
0
LINE
8
BLACK
6
CONTINUOUS
10
119.512
20
-130.06
11
119.761
21
-130.15
0
LINE
8
BLACK
6
CONTINUOUS
10
117.221
20
-130.15
11
117.423
21
-130.32
0
LINE
8
BLACK
6
CONTINUOUS
10
117.423
20
-130.32
11
117.556
21
-130.55
0
LINE
8
BLACK
6
CONTINUOUS
10
117.556
20
-130.55
11
117.59
21
-130.744
0
LINE
8
BLACK
6
CONTINUOUS
10
117.59
20
-130.744
11
117.59
21
-131.376
0
LINE
8
BLACK
6
CONTINUOUS
10
117.59
20
-131.376
11
117.556
21
-131.57
0
LINE
8
BLACK
6
CONTINUOUS
10
117.556
20
-131.57
11
117.423
21
-131.8
0
LINE
8
BLACK
6
CONTINUOUS
10
117.423
20
-131.8
11
117.221
21
-131.97
0
LINE
8
BLACK
6
CONTINUOUS
10
117.221
20
-131.97
11
116.972
21
-132.06
0
LINE
8
BLACK
6
CONTINUOUS
10
116.972
20
-132.06
11
116.708
21
-132.06
0
LINE
8
BLACK
6
CONTINUOUS
10
116.708
20
-132.06
11
116.459
21
-131.97
0
LINE
8
BLACK
6
CONTINUOUS
10
116.459
20
-131.97
11
116.257
21
-131.8
0
LINE
8
BLACK
6
CONTINUOUS
10
116.257
20
-131.8
11
116.124
21
-131.57
0
LINE
8
BLACK
6
CONTINUOUS
10
116.124
20
-131.57
11
116.09
21
-131.376
0
LINE
8
BLACK
6
CONTINUOUS
10
116.09
20
-131.376
11
116.09
21
-130.744
0
LINE
8
BLACK
6
CONTINUOUS
10
116.09
20
-130.744
11
116.124
21
-130.55
0
LINE
8
BLACK
6
CONTINUOUS
10
116.124
20
-130.55
11
116.257
21
-130.32
0
LINE
8
BLACK
6
CONTINUOUS
10
116.257
20
-130.32
11
116.459
21
-130.15
0
LINE
8
BLACK
6
CONTINUOUS
10
116.459
20
-130.15
11
116.708
21
-130.06
0
LINE
8
BLACK
6
CONTINUOUS
10
116.708
20
-130.06
11
116.972
21
-130.06
0
LINE
8
BLACK
6
CONTINUOUS
10
116.972
20
-130.06
11
117.221
21
-130.15
0
LINE
8
BLACK
6
CONTINUOUS
10
122.301
20
-130.15
11
122.503
21
-130.32
0
LINE
8
BLACK
6
CONTINUOUS
10
122.503
20
-130.32
11
122.636
21
-130.55
0
LINE
8
BLACK
6
CONTINUOUS
10
122.636
20
-130.55
11
122.67
21
-130.744
0
LINE
8
BLACK
6
CONTINUOUS
10
122.67
20
-130.744
11
122.67
21
-131.376
0
LINE
8
BLACK
6
CONTINUOUS
10
122.67
20
-131.376
11
122.636
21
-131.57
0
LINE
8
BLACK
6
CONTINUOUS
10
122.636
20
-131.57
11
122.503
21
-131.8
0
LINE
8
BLACK
6
CONTINUOUS
10
122.503
20
-131.8
11
122.301
21
-131.97
0
LINE
8
BLACK
6
CONTINUOUS
10
122.301
20
-131.97
11
122.052
21
-132.06
0
LINE
8
BLACK
6
CONTINUOUS
10
122.052
20
-132.06
11
121.788
21
-132.06
0
LINE
8
BLACK
6
CONTINUOUS
10
121.788
20
-132.06
11
121.539
21
-131.97
0
LINE
8
BLACK
6
CONTINUOUS
10
121.539
20
-131.97
11
121.337
21
-131.8
0
LINE
8
BLACK
6
CONTINUOUS
10
121.337
20
-131.8
11
121.204
21
-131.57
0
LINE
8
BLACK
6
CONTINUOUS
10
121.204
20
-131.57
11
121.17
21
-131.376
0
LINE
8
BLACK
6
CONTINUOUS
10
121.17
20
-131.376
11
121.17
21
-130.744
0
LINE
8
BLACK
6
CONTINUOUS
10
121.17
20
-130.744
11
121.204
21
-130.55
0
LINE
8
BLACK
6
CONTINUOUS
10
121.204
20
-130.55
11
121.337
21
-130.32
0
LINE
8
BLACK
6
CONTINUOUS
10
121.337
20
-130.32
11
121.539
21
-130.15
0
LINE
8
BLACK
6
CONTINUOUS
10
121.539
20
-130.15
11
121.788
21
-130.06
0
LINE
8
BLACK
6
CONTINUOUS
10
121.788
20
-130.06
11
122.052
21
-130.06
0
LINE
8
BLACK
6
CONTINUOUS
10
122.052
20
-130.06
11
122.301
21
-130.15
0
LINE
8
BLACK
6
CONTINUOUS
10
124.841
20
-130.15
11
125.043
21
-130.32
0
LINE
8
BLACK
6
CONTINUOUS
10
125.043
20
-130.32
11
125.176
21
-130.55
0
LINE
8
BLACK
6
CONTINUOUS
10
125.176
20
-130.55
11
125.21
21
-130.744
0
LINE
8
BLACK
6
CONTINUOUS
10
125.21
20
-130.744
11
125.21
21
-131.376
0
LINE
8
BLACK
6
CONTINUOUS
10
125.21
20
-131.376
11
125.176
21
-131.57
0
LINE
8
BLACK
6
CONTINUOUS
10
125.176
20
-131.57
11
125.043
21
-131.8
0
LINE
8
BLACK
6
CONTINUOUS
10
125.043
20
-131.8
11
124.841
21
-131.97
0
LINE
8
BLACK
6
CONTINUOUS
10
124.841
20
-131.97
11
124.592
21
-132.06
0
LINE
8
BLACK
6
CONTINUOUS
10
124.592
20
-132.06
11
124.328
21
-132.06
0
LINE
8
BLACK
6
CONTINUOUS
10
124.328
20
-132.06
11
124.079
21
-131.97
0
LINE
8
BLACK
6
CONTINUOUS
10
124.079
20
-131.97
11
123.877
21
-131.8
0
LINE
8
BLACK
6
CONTINUOUS
10
123.877
20
-131.8
11
123.744
21
-131.57
0
LINE
8
BLACK
6
CONTINUOUS
10
123.744
20
-131.57
11
123.71
21
-131.376
0
LINE
8
BLACK
6
CONTINUOUS
10
123.71
20
-131.376
11
123.71
21
-130.744
0
LINE
8
BLACK
6
CONTINUOUS
10
123.71
20
-130.744
11
123.744
21
-130.55
0
LINE
8
BLACK
6
CONTINUOUS
10
123.744
20
-130.55
11
123.877
21
-130.32
0
LINE
8
BLACK
6
CONTINUOUS
10
123.877
20
-130.32
11
124.079
21
-130.15
0
LINE
8
BLACK
6
CONTINUOUS
10
124.079
20
-130.15
11
124.328
21
-130.06
0
LINE
8
BLACK
6
CONTINUOUS
10
124.328
20
-130.06
11
124.592
21
-130.06
0
LINE
8
BLACK
6
CONTINUOUS
10
124.592
20
-130.06
11
124.841
21
-130.15
0
LINE
8
BLACK
6
CONTINUOUS
10
127.381
20
-130.15
11
127.583
21
-130.32
0
LINE
8
BLACK
6
CONTINUOUS
10
127.583
20
-130.32
11
127.716
21
-130.55
0
LINE
8
BLACK
6
CONTINUOUS
10
127.716
20
-130.55
11
127.75
21
-130.744
0
LINE
8
BLACK
6
CONTINUOUS
10
127.75
20
-130.744
11
127.75
21
-131.376
0
LINE
8
BLACK
6
CONTINUOUS
10
127.75
20
-131.376
11
127.716
21
-131.57
0
LINE
8
BLACK
6
CONTINUOUS
10
127.716
20
-131.57
11
127.583
21
-131.8
0
LINE
8
BLACK
6
CONTINUOUS
10
127.583
20
-131.8
11
127.381
21
-131.97
0
LINE
8
BLACK
6
CONTINUOUS
10
127.381
20
-131.97
11
127.132
21
-132.06
0
LINE
8
BLACK
6
CONTINUOUS
10
127.132
20
-132.06
11
126.868
21
-132.06
0
LINE
8
BLACK
6
CONTINUOUS
10
126.868
20
-132.06
11
126.619
21
-131.97
0
LINE
8
BLACK
6
CONTINUOUS
10
126.619
20
-131.97
11
126.417
21
-131.8
0
LINE
8
BLACK
6
CONTINUOUS
10
126.417
20
-131.8
11
126.284
21
-131.57
0
LINE
8
BLACK
6
CONTINUOUS
10
126.284
20
-131.57
11
126.25
21
-131.376
0
LINE
8
BLACK
6
CONTINUOUS
10
126.25
20
-131.376
11
126.25
21
-130.744
0
LINE
8
BLACK
6
CONTINUOUS
10
126.25
20
-130.744
11
126.284
21
-130.55
0
LINE
8
BLACK
6
CONTINUOUS
10
126.284
20
-130.55
11
126.417
21
-130.32
0
LINE
8
BLACK
6
CONTINUOUS
10
126.417
20
-130.32
11
126.619
21
-130.15
0
LINE
8
BLACK
6
CONTINUOUS
10
126.619
20
-130.15
11
126.868
21
-130.06
0
LINE
8
BLACK
6
CONTINUOUS
10
126.868
20
-130.06
11
127.132
21
-130.06
0
LINE
8
BLACK
6
CONTINUOUS
10
127.132
20
-130.06
11
127.381
21
-130.15
0
LINE
8
BLACK
6
CONTINUOUS
10
157.861
20
-130.15
11
158.063
21
-130.32
0
LINE
8
BLACK
6
CONTINUOUS
10
158.063
20
-130.32
11
158.196
21
-130.55
0
LINE
8
BLACK
6
CONTINUOUS
10
158.196
20
-130.55
11
158.23
21
-130.744
0
LINE
8
BLACK
6
CONTINUOUS
10
158.23
20
-130.744
11
158.23
21
-131.376
0
LINE
8
BLACK
6
CONTINUOUS
10
158.23
20
-131.376
11
158.196
21
-131.57
0
LINE
8
BLACK
6
CONTINUOUS
10
158.196
20
-131.57
11
158.063
21
-131.8
0
LINE
8
BLACK
6
CONTINUOUS
10
158.063
20
-131.8
11
157.861
21
-131.97
0
LINE
8
BLACK
6
CONTINUOUS
10
157.861
20
-131.97
11
157.612
21
-132.06
0
LINE
8
BLACK
6
CONTINUOUS
10
157.612
20
-132.06
11
157.348
21
-132.06
0
LINE
8
BLACK
6
CONTINUOUS
10
157.348
20
-132.06
11
157.099
21
-131.97
0
LINE
8
BLACK
6
CONTINUOUS
10
157.099
20
-131.97
11
156.897
21
-131.8
0
LINE
8
BLACK
6
CONTINUOUS
10
156.897
20
-131.8
11
156.764
21
-131.57
0
LINE
8
BLACK
6
CONTINUOUS
10
156.764
20
-131.57
11
156.73
21
-131.376
0
LINE
8
BLACK
6
CONTINUOUS
10
156.73
20
-131.376
11
156.73
21
-130.744
0
LINE
8
BLACK
6
CONTINUOUS
10
156.73
20
-130.744
11
156.764
21
-130.55
0
LINE
8
BLACK
6
CONTINUOUS
10
156.764
20
-130.55
11
156.897
21
-130.32
0
LINE
8
BLACK
6
CONTINUOUS
10
156.897
20
-130.32
11
157.099
21
-130.15
0
LINE
8
BLACK
6
CONTINUOUS
10
157.099
20
-130.15
11
157.348
21
-130.06
0
LINE
8
BLACK
6
CONTINUOUS
10
157.348
20
-130.06
11
157.612
21
-130.06
0
LINE
8
BLACK
6
CONTINUOUS
10
157.612
20
-130.06
11
157.861
21
-130.15
0
LINE
8
BLACK
6
CONTINUOUS
10
178.55
20
-129.02
11
177.05
21
-129.02
0
LINE
8
BLACK
6
CONTINUOUS
10
177.05
20
-129.02
11
177.05
21
-127.02
0
LINE
8
BLACK
6
CONTINUOUS
10
177.05
20
-127.02
11
178.55
21
-127.02
0
LINE
8
BLACK
6
CONTINUOUS
10
178.55
20
-127.02
11
178.55
21
-129.02
0
LINE
8
BLACK
6
CONTINUOUS
10
119.761
20
-127.11
11
119.963
21
-127.28
0
LINE
8
BLACK
6
CONTINUOUS
10
119.963
20
-127.28
11
120.096
21
-127.51
0
LINE
8
BLACK
6
CONTINUOUS
10
120.096
20
-127.51
11
120.13
21
-127.704
0
LINE
8
BLACK
6
CONTINUOUS
10
120.13
20
-127.704
11
120.13
21
-128.336
0
LINE
8
BLACK
6
CONTINUOUS
10
120.13
20
-128.336
11
120.096
21
-128.53
0
LINE
8
BLACK
6
CONTINUOUS
10
120.096
20
-128.53
11
119.963
21
-128.76
0
LINE
8
BLACK
6
CONTINUOUS
10
119.963
20
-128.76
11
119.761
21
-128.93
0
LINE
8
BLACK
6
CONTINUOUS
10
119.761
20
-128.93
11
119.512
21
-129.02
0
LINE
8
BLACK
6
CONTINUOUS
10
119.512
20
-129.02
11
119.248
21
-129.02
0
LINE
8
BLACK
6
CONTINUOUS
10
119.248
20
-129.02
11
118.999
21
-128.93
0
LINE
8
BLACK
6
CONTINUOUS
10
118.999
20
-128.93
11
118.797
21
-128.76
0
LINE
8
BLACK
6
CONTINUOUS
10
118.797
20
-128.76
11
118.664
21
-128.53
0
LINE
8
BLACK
6
CONTINUOUS
10
118.664
20
-128.53
11
118.63
21
-128.336
0
LINE
8
BLACK
6
CONTINUOUS
10
118.63
20
-128.336
11
118.63
21
-127.704
0
LINE
8
BLACK
6
CONTINUOUS
10
118.63
20
-127.704
11
118.664
21
-127.51
0
LINE
8
BLACK
6
CONTINUOUS
10
118.664
20
-127.51
11
118.797
21
-127.28
0
LINE
8
BLACK
6
CONTINUOUS
10
118.797
20
-127.28
11
118.999
21
-127.11
0
LINE
8
BLACK
6
CONTINUOUS
10
118.999
20
-127.11
11
119.248
21
-127.02
0
LINE
8
BLACK
6
CONTINUOUS
10
119.248
20
-127.02
11
119.512
21
-127.02
0
LINE
8
BLACK
6
CONTINUOUS
10
119.512
20
-127.02
11
119.761
21
-127.11
0
LINE
8
BLACK
6
CONTINUOUS
10
152.781
20
-127.11
11
152.983
21
-127.28
0
LINE
8
BLACK
6
CONTINUOUS
10
152.983
20
-127.28
11
153.116
21
-127.51
0
LINE
8
BLACK
6
CONTINUOUS
10
153.116
20
-127.51
11
153.15
21
-127.704
0
LINE
8
BLACK
6
CONTINUOUS
10
153.15
20
-127.704
11
153.15
21
-128.336
0
LINE
8
BLACK
6
CONTINUOUS
10
153.15
20
-128.336
11
153.116
21
-128.53
0
LINE
8
BLACK
6
CONTINUOUS
10
153.116
20
-128.53
11
152.983
21
-128.76
0
LINE
8
BLACK
6
CONTINUOUS
10
152.983
20
-128.76
11
152.781
21
-128.93
0
LINE
8
BLACK
6
CONTINUOUS
10
152.781
20
-128.93
11
152.532
21
-129.02
0
LINE
8
BLACK
6
CONTINUOUS
10
152.532
20
-129.02
11
152.268
21
-129.02
0
LINE
8
BLACK
6
CONTINUOUS
10
152.268
20
-129.02
11
152.019
21
-128.93
0
LINE
8
BLACK
6
CONTINUOUS
10
152.019
20
-128.93
11
151.817
21
-128.76
0
LINE
8
BLACK
6
CONTINUOUS
10
151.817
20
-128.76
11
151.684
21
-128.53
0
LINE
8
BLACK
6
CONTINUOUS
10
151.684
20
-128.53
11
151.65
21
-128.336
0
LINE
8
BLACK
6
CONTINUOUS
10
151.65
20
-128.336
11
151.65
21
-127.704
0
LINE
8
BLACK
6
CONTINUOUS
10
151.65
20
-127.704
11
151.684
21
-127.51
0
LINE
8
BLACK
6
CONTINUOUS
10
151.684
20
-127.51
11
151.817
21
-127.28
0
LINE
8
BLACK
6
CONTINUOUS
10
151.817
20
-127.28
11
152.019
21
-127.11
0
LINE
8
BLACK
6
CONTINUOUS
10
152.019
20
-127.11
11
152.268
21
-127.02
0
LINE
8
BLACK
6
CONTINUOUS
10
152.268
20
-127.02
11
152.532
21
-127.02
0
LINE
8
BLACK
6
CONTINUOUS
10
152.532
20
-127.02
11
152.781
21
-127.11
0
LINE
8
BLACK
6
CONTINUOUS
10
155.321
20
-127.11
11
155.523
21
-127.28
0
LINE
8
BLACK
6
CONTINUOUS
10
155.523
20
-127.28
11
155.656
21
-127.51
0
LINE
8
BLACK
6
CONTINUOUS
10
155.656
20
-127.51
11
155.69
21
-127.704
0
LINE
8
BLACK
6
CONTINUOUS
10
155.69
20
-127.704
11
155.69
21
-128.336
0
LINE
8
BLACK
6
CONTINUOUS
10
155.69
20
-128.336
11
155.656
21
-128.53
0
LINE
8
BLACK
6
CONTINUOUS
10
155.656
20
-128.53
11
155.523
21
-128.76
0
LINE
8
BLACK
6
CONTINUOUS
10
155.523
20
-128.76
11
155.321
21
-128.93
0
LINE
8
BLACK
6
CONTINUOUS
10
155.321
20
-128.93
11
155.072
21
-129.02
0
LINE
8
BLACK
6
CONTINUOUS
10
155.072
20
-129.02
11
154.808
21
-129.02
0
LINE
8
BLACK
6
CONTINUOUS
10
154.808
20
-129.02
11
154.559
21
-128.93
0
LINE
8
BLACK
6
CONTINUOUS
10
154.559
20
-128.93
11
154.357
21
-128.76
0
LINE
8
BLACK
6
CONTINUOUS
10
154.357
20
-128.76
11
154.224
21
-128.53
0
LINE
8
BLACK
6
CONTINUOUS
10
154.224
20
-128.53
11
154.19
21
-128.336
0
LINE
8
BLACK
6
CONTINUOUS
10
154.19
20
-128.336
11
154.19
21
-127.704
0
LINE
8
BLACK
6
CONTINUOUS
10
154.19
20
-127.704
11
154.224
21
-127.51
0
LINE
8
BLACK
6
CONTINUOUS
10
154.224
20
-127.51
11
154.357
21
-127.28
0
LINE
8
BLACK
6
CONTINUOUS
10
154.357
20
-127.28
11
154.559
21
-127.11
0
LINE
8
BLACK
6
CONTINUOUS
10
154.559
20
-127.11
11
154.808
21
-127.02
0
LINE
8
BLACK
6
CONTINUOUS
10
154.808
20
-127.02
11
155.072
21
-127.02
0
LINE
8
BLACK
6
CONTINUOUS
10
155.072
20
-127.02
11
155.321
21
-127.11
0
LINE
8
BLACK
6
CONTINUOUS
10
157.861
20
-127.11
11
158.063
21
-127.28
0
LINE
8
BLACK
6
CONTINUOUS
10
158.063
20
-127.28
11
158.196
21
-127.51
0
LINE
8
BLACK
6
CONTINUOUS
10
158.196
20
-127.51
11
158.23
21
-127.704
0
LINE
8
BLACK
6
CONTINUOUS
10
158.23
20
-127.704
11
158.23
21
-128.336
0
LINE
8
BLACK
6
CONTINUOUS
10
158.23
20
-128.336
11
158.196
21
-128.53
0
LINE
8
BLACK
6
CONTINUOUS
10
158.196
20
-128.53
11
158.063
21
-128.76
0
LINE
8
BLACK
6
CONTINUOUS
10
158.063
20
-128.76
11
157.861
21
-128.93
0
LINE
8
BLACK
6
CONTINUOUS
10
157.861
20
-128.93
11
157.612
21
-129.02
0
LINE
8
BLACK
6
CONTINUOUS
10
157.612
20
-129.02
11
157.348
21
-129.02
0
LINE
8
BLACK
6
CONTINUOUS
10
157.348
20
-129.02
11
157.099
21
-128.93
0
LINE
8
BLACK
6
CONTINUOUS
10
157.099
20
-128.93
11
156.897
21
-128.76
0
LINE
8
BLACK
6
CONTINUOUS
10
156.897
20
-128.76
11
156.764
21
-128.53
0
LINE
8
BLACK
6
CONTINUOUS
10
156.764
20
-128.53
11
156.73
21
-128.336
0
LINE
8
BLACK
6
CONTINUOUS
10
156.73
20
-128.336
11
156.73
21
-127.704
0
LINE
8
BLACK
6
CONTINUOUS
10
156.73
20
-127.704
11
156.764
21
-127.51
0
LINE
8
BLACK
6
CONTINUOUS
10
156.764
20
-127.51
11
156.897
21
-127.28
0
LINE
8
BLACK
6
CONTINUOUS
10
156.897
20
-127.28
11
157.099
21
-127.11
0
LINE
8
BLACK
6
CONTINUOUS
10
157.099
20
-127.11
11
157.348
21
-127.02
0
LINE
8
BLACK
6
CONTINUOUS
10
157.348
20
-127.02
11
157.612
21
-127.02
0
LINE
8
BLACK
6
CONTINUOUS
10
157.612
20
-127.02
11
157.861
21
-127.11
0
LINE
8
BLACK
6
CONTINUOUS
10
150.241
20
-127.11
11
150.443
21
-127.28
0
LINE
8
BLACK
6
CONTINUOUS
10
150.443
20
-127.28
11
150.576
21
-127.51
0
LINE
8
BLACK
6
CONTINUOUS
10
150.576
20
-127.51
11
150.61
21
-127.704
0
LINE
8
BLACK
6
CONTINUOUS
10
150.61
20
-127.704
11
150.61
21
-128.336
0
LINE
8
BLACK
6
CONTINUOUS
10
150.61
20
-128.336
11
150.576
21
-128.53
0
LINE
8
BLACK
6
CONTINUOUS
10
150.576
20
-128.53
11
150.443
21
-128.76
0
LINE
8
BLACK
6
CONTINUOUS
10
150.443
20
-128.76
11
150.241
21
-128.93
0
LINE
8
BLACK
6
CONTINUOUS
10
150.241
20
-128.93
11
149.992
21
-129.02
0
LINE
8
BLACK
6
CONTINUOUS
10
149.992
20
-129.02
11
149.728
21
-129.02
0
LINE
8
BLACK
6
CONTINUOUS
10
149.728
20
-129.02
11
149.479
21
-128.93
0
LINE
8
BLACK
6
CONTINUOUS
10
149.479
20
-128.93
11
149.277
21
-128.76
0
LINE
8
BLACK
6
CONTINUOUS
10
149.277
20
-128.76
11
149.144
21
-128.53
0
LINE
8
BLACK
6
CONTINUOUS
10
149.144
20
-128.53
11
149.11
21
-128.336
0
LINE
8
BLACK
6
CONTINUOUS
10
149.11
20
-128.336
11
149.11
21
-127.704
0
LINE
8
BLACK
6
CONTINUOUS
10
149.11
20
-127.704
11
149.144
21
-127.51
0
LINE
8
BLACK
6
CONTINUOUS
10
149.144
20
-127.51
11
149.277
21
-127.28
0
LINE
8
BLACK
6
CONTINUOUS
10
149.277
20
-127.28
11
149.479
21
-127.11
0
LINE
8
BLACK
6
CONTINUOUS
10
149.479
20
-127.11
11
149.728
21
-127.02
0
LINE
8
BLACK
6
CONTINUOUS
10
149.728
20
-127.02
11
149.992
21
-127.02
0
LINE
8
BLACK
6
CONTINUOUS
10
149.992
20
-127.02
11
150.241
21
-127.11
0
LINE
8
BLACK
6
CONTINUOUS
10
147.701
20
-127.11
11
147.903
21
-127.28
0
LINE
8
BLACK
6
CONTINUOUS
10
147.903
20
-127.28
11
148.036
21
-127.51
0
LINE
8
BLACK
6
CONTINUOUS
10
148.036
20
-127.51
11
148.07
21
-127.704
0
LINE
8
BLACK
6
CONTINUOUS
10
148.07
20
-127.704
11
148.07
21
-128.336
0
LINE
8
BLACK
6
CONTINUOUS
10
148.07
20
-128.336
11
148.036
21
-128.53
0
LINE
8
BLACK
6
CONTINUOUS
10
148.036
20
-128.53
11
147.903
21
-128.76
0
LINE
8
BLACK
6
CONTINUOUS
10
147.903
20
-128.76
11
147.701
21
-128.93
0
LINE
8
BLACK
6
CONTINUOUS
10
147.701
20
-128.93
11
147.452
21
-129.02
0
LINE
8
BLACK
6
CONTINUOUS
10
147.452
20
-129.02
11
147.188
21
-129.02
0
LINE
8
BLACK
6
CONTINUOUS
10
147.188
20
-129.02
11
146.939
21
-128.93
0
LINE
8
BLACK
6
CONTINUOUS
10
146.939
20
-128.93
11
146.737
21
-128.76
0
LINE
8
BLACK
6
CONTINUOUS
10
146.737
20
-128.76
11
146.604
21
-128.53
0
LINE
8
BLACK
6
CONTINUOUS
10
146.604
20
-128.53
11
146.57
21
-128.336
0
LINE
8
BLACK
6
CONTINUOUS
10
146.57
20
-128.336
11
146.57
21
-127.704
0
LINE
8
BLACK
6
CONTINUOUS
10
146.57
20
-127.704
11
146.604
21
-127.51
0
LINE
8
BLACK
6
CONTINUOUS
10
146.604
20
-127.51
11
146.737
21
-127.28
0
LINE
8
BLACK
6
CONTINUOUS
10
146.737
20
-127.28
11
146.939
21
-127.11
0
LINE
8
BLACK
6
CONTINUOUS
10
146.939
20
-127.11
11
147.188
21
-127.02
0
LINE
8
BLACK
6
CONTINUOUS
10
147.188
20
-127.02
11
147.452
21
-127.02
0
LINE
8
BLACK
6
CONTINUOUS
10
147.452
20
-127.02
11
147.701
21
-127.11
0
LINE
8
BLACK
6
CONTINUOUS
10
142.621
20
-127.11
11
142.823
21
-127.28
0
LINE
8
BLACK
6
CONTINUOUS
10
142.823
20
-127.28
11
142.956
21
-127.51
0
LINE
8
BLACK
6
CONTINUOUS
10
142.956
20
-127.51
11
142.99
21
-127.704
0
LINE
8
BLACK
6
CONTINUOUS
10
142.99
20
-127.704
11
142.99
21
-128.336
0
LINE
8
BLACK
6
CONTINUOUS
10
142.99
20
-128.336
11
142.956
21
-128.53
0
LINE
8
BLACK
6
CONTINUOUS
10
142.956
20
-128.53
11
142.823
21
-128.76
0
LINE
8
BLACK
6
CONTINUOUS
10
142.823
20
-128.76
11
142.621
21
-128.93
0
LINE
8
BLACK
6
CONTINUOUS
10
142.621
20
-128.93
11
142.372
21
-129.02
0
LINE
8
BLACK
6
CONTINUOUS
10
142.372
20
-129.02
11
142.108
21
-129.02
0
LINE
8
BLACK
6
CONTINUOUS
10
142.108
20
-129.02
11
141.859
21
-128.93
0
LINE
8
BLACK
6
CONTINUOUS
10
141.859
20
-128.93
11
141.657
21
-128.76
0
LINE
8
BLACK
6
CONTINUOUS
10
141.657
20
-128.76
11
141.524
21
-128.53
0
LINE
8
BLACK
6
CONTINUOUS
10
141.524
20
-128.53
11
141.49
21
-128.336
0
LINE
8
BLACK
6
CONTINUOUS
10
141.49
20
-128.336
11
141.49
21
-127.704
0
LINE
8
BLACK
6
CONTINUOUS
10
141.49
20
-127.704
11
141.524
21
-127.51
0
LINE
8
BLACK
6
CONTINUOUS
10
141.524
20
-127.51
11
141.657
21
-127.28
0
LINE
8
BLACK
6
CONTINUOUS
10
141.657
20
-127.28
11
141.859
21
-127.11
0
LINE
8
BLACK
6
CONTINUOUS
10
141.859
20
-127.11
11
142.108
21
-127.02
0
LINE
8
BLACK
6
CONTINUOUS
10
142.108
20
-127.02
11
142.372
21
-127.02
0
LINE
8
BLACK
6
CONTINUOUS
10
142.372
20
-127.02
11
142.621
21
-127.11
0
LINE
8
BLACK
6
CONTINUOUS
10
160.401
20
-127.11
11
160.603
21
-127.28
0
LINE
8
BLACK
6
CONTINUOUS
10
160.603
20
-127.28
11
160.736
21
-127.51
0
LINE
8
BLACK
6
CONTINUOUS
10
160.736
20
-127.51
11
160.77
21
-127.704
0
LINE
8
BLACK
6
CONTINUOUS
10
160.77
20
-127.704
11
160.77
21
-128.336
0
LINE
8
BLACK
6
CONTINUOUS
10
160.77
20
-128.336
11
160.736
21
-128.53
0
LINE
8
BLACK
6
CONTINUOUS
10
160.736
20
-128.53
11
160.603
21
-128.76
0
LINE
8
BLACK
6
CONTINUOUS
10
160.603
20
-128.76
11
160.401
21
-128.93
0
LINE
8
BLACK
6
CONTINUOUS
10
160.401
20
-128.93
11
160.152
21
-129.02
0
LINE
8
BLACK
6
CONTINUOUS
10
160.152
20
-129.02
11
159.888
21
-129.02
0
LINE
8
BLACK
6
CONTINUOUS
10
159.888
20
-129.02
11
159.639
21
-128.93
0
LINE
8
BLACK
6
CONTINUOUS
10
159.639
20
-128.93
11
159.437
21
-128.76
0
LINE
8
BLACK
6
CONTINUOUS
10
159.437
20
-128.76
11
159.304
21
-128.53
0
LINE
8
BLACK
6
CONTINUOUS
10
159.304
20
-128.53
11
159.27
21
-128.336
0
LINE
8
BLACK
6
CONTINUOUS
10
159.27
20
-128.336
11
159.27
21
-127.704
0
LINE
8
BLACK
6
CONTINUOUS
10
159.27
20
-127.704
11
159.304
21
-127.51
0
LINE
8
BLACK
6
CONTINUOUS
10
159.304
20
-127.51
11
159.437
21
-127.28
0
LINE
8
BLACK
6
CONTINUOUS
10
159.437
20
-127.28
11
159.639
21
-127.11
0
LINE
8
BLACK
6
CONTINUOUS
10
159.639
20
-127.11
11
159.888
21
-127.02
0
LINE
8
BLACK
6
CONTINUOUS
10
159.888
20
-127.02
11
160.152
21
-127.02
0
LINE
8
BLACK
6
CONTINUOUS
10
160.152
20
-127.02
11
160.401
21
-127.11
0
LINE
8
BLACK
6
CONTINUOUS
10
162.941
20
-127.11
11
163.143
21
-127.28
0
LINE
8
BLACK
6
CONTINUOUS
10
163.143
20
-127.28
11
163.276
21
-127.51
0
LINE
8
BLACK
6
CONTINUOUS
10
163.276
20
-127.51
11
163.31
21
-127.704
0
LINE
8
BLACK
6
CONTINUOUS
10
163.31
20
-127.704
11
163.31
21
-128.336
0
LINE
8
BLACK
6
CONTINUOUS
10
163.31
20
-128.336
11
163.276
21
-128.53
0
LINE
8
BLACK
6
CONTINUOUS
10
163.276
20
-128.53
11
163.143
21
-128.76
0
LINE
8
BLACK
6
CONTINUOUS
10
163.143
20
-128.76
11
162.941
21
-128.93
0
LINE
8
BLACK
6
CONTINUOUS
10
162.941
20
-128.93
11
162.692
21
-129.02
0
LINE
8
BLACK
6
CONTINUOUS
10
162.692
20
-129.02
11
162.428
21
-129.02
0
LINE
8
BLACK
6
CONTINUOUS
10
162.428
20
-129.02
11
162.179
21
-128.93
0
LINE
8
BLACK
6
CONTINUOUS
10
162.179
20
-128.93
11
161.977
21
-128.76
0
LINE
8
BLACK
6
CONTINUOUS
10
161.977
20
-128.76
11
161.844
21
-128.53
0
LINE
8
BLACK
6
CONTINUOUS
10
161.844
20
-128.53
11
161.81
21
-128.336
0
LINE
8
BLACK
6
CONTINUOUS
10
161.81
20
-128.336
11
161.81
21
-127.704
0
LINE
8
BLACK
6
CONTINUOUS
10
161.81
20
-127.704
11
161.844
21
-127.51
0
LINE
8
BLACK
6
CONTINUOUS
10
161.844
20
-127.51
11
161.977
21
-127.28
0
LINE
8
BLACK
6
CONTINUOUS
10
161.977
20
-127.28
11
162.179
21
-127.11
0
LINE
8
BLACK
6
CONTINUOUS
10
162.179
20
-127.11
11
162.428
21
-127.02
0
LINE
8
BLACK
6
CONTINUOUS
10
162.428
20
-127.02
11
162.692
21
-127.02
0
LINE
8
BLACK
6
CONTINUOUS
10
162.692
20
-127.02
11
162.941
21
-127.11
0
LINE
8
BLACK
6
CONTINUOUS
10
145.161
20
-127.11
11
145.363
21
-127.28
0
LINE
8
BLACK
6
CONTINUOUS
10
145.363
20
-127.28
11
145.496
21
-127.51
0
LINE
8
BLACK
6
CONTINUOUS
10
145.496
20
-127.51
11
145.53
21
-127.704
0
LINE
8
BLACK
6
CONTINUOUS
10
145.53
20
-127.704
11
145.53
21
-128.336
0
LINE
8
BLACK
6
CONTINUOUS
10
145.53
20
-128.336
11
145.496
21
-128.53
0
LINE
8
BLACK
6
CONTINUOUS
10
145.496
20
-128.53
11
145.363
21
-128.76
0
LINE
8
BLACK
6
CONTINUOUS
10
145.363
20
-128.76
11
145.161
21
-128.93
0
LINE
8
BLACK
6
CONTINUOUS
10
145.161
20
-128.93
11
144.912
21
-129.02
0
LINE
8
BLACK
6
CONTINUOUS
10
144.912
20
-129.02
11
144.648
21
-129.02
0
LINE
8
BLACK
6
CONTINUOUS
10
144.648
20
-129.02
11
144.399
21
-128.93
0
LINE
8
BLACK
6
CONTINUOUS
10
144.399
20
-128.93
11
144.197
21
-128.76
0
LINE
8
BLACK
6
CONTINUOUS
10
144.197
20
-128.76
11
144.064
21
-128.53
0
LINE
8
BLACK
6
CONTINUOUS
10
144.064
20
-128.53
11
144.03
21
-128.336
0
LINE
8
BLACK
6
CONTINUOUS
10
144.03
20
-128.336
11
144.03
21
-127.704
0
LINE
8
BLACK
6
CONTINUOUS
10
144.03
20
-127.704
11
144.064
21
-127.51
0
LINE
8
BLACK
6
CONTINUOUS
10
144.064
20
-127.51
11
144.197
21
-127.28
0
LINE
8
BLACK
6
CONTINUOUS
10
144.197
20
-127.28
11
144.399
21
-127.11
0
LINE
8
BLACK
6
CONTINUOUS
10
144.399
20
-127.11
11
144.648
21
-127.02
0
LINE
8
BLACK
6
CONTINUOUS
10
144.648
20
-127.02
11
144.912
21
-127.02
0
LINE
8
BLACK
6
CONTINUOUS
10
144.912
20
-127.02
11
145.161
21
-127.11
0
LINE
8
BLACK
6
CONTINUOUS
10
140.081
20
-127.11
11
140.283
21
-127.28
0
LINE
8
BLACK
6
CONTINUOUS
10
140.283
20
-127.28
11
140.416
21
-127.51
0
LINE
8
BLACK
6
CONTINUOUS
10
140.416
20
-127.51
11
140.45
21
-127.704
0
LINE
8
BLACK
6
CONTINUOUS
10
140.45
20
-127.704
11
140.45
21
-128.336
0
LINE
8
BLACK
6
CONTINUOUS
10
140.45
20
-128.336
11
140.416
21
-128.53
0
LINE
8
BLACK
6
CONTINUOUS
10
140.416
20
-128.53
11
140.283
21
-128.76
0
LINE
8
BLACK
6
CONTINUOUS
10
140.283
20
-128.76
11
140.081
21
-128.93
0
LINE
8
BLACK
6
CONTINUOUS
10
140.081
20
-128.93
11
139.832
21
-129.02
0
LINE
8
BLACK
6
CONTINUOUS
10
139.832
20
-129.02
11
139.568
21
-129.02
0
LINE
8
BLACK
6
CONTINUOUS
10
139.568
20
-129.02
11
139.319
21
-128.93
0
LINE
8
BLACK
6
CONTINUOUS
10
139.319
20
-128.93
11
139.117
21
-128.76
0
LINE
8
BLACK
6
CONTINUOUS
10
139.117
20
-128.76
11
138.984
21
-128.53
0
LINE
8
BLACK
6
CONTINUOUS
10
138.984
20
-128.53
11
138.95
21
-128.336
0
LINE
8
BLACK
6
CONTINUOUS
10
138.95
20
-128.336
11
138.95
21
-127.704
0
LINE
8
BLACK
6
CONTINUOUS
10
138.95
20
-127.704
11
138.984
21
-127.51
0
LINE
8
BLACK
6
CONTINUOUS
10
138.984
20
-127.51
11
139.117
21
-127.28
0
LINE
8
BLACK
6
CONTINUOUS
10
139.117
20
-127.28
11
139.319
21
-127.11
0
LINE
8
BLACK
6
CONTINUOUS
10
139.319
20
-127.11
11
139.568
21
-127.02
0
LINE
8
BLACK
6
CONTINUOUS
10
139.568
20
-127.02
11
139.832
21
-127.02
0
LINE
8
BLACK
6
CONTINUOUS
10
139.832
20
-127.02
11
140.081
21
-127.11
0
LINE
8
BLACK
6
CONTINUOUS
10
137.541
20
-127.11
11
137.743
21
-127.28
0
LINE
8
BLACK
6
CONTINUOUS
10
137.743
20
-127.28
11
137.876
21
-127.51
0
LINE
8
BLACK
6
CONTINUOUS
10
137.876
20
-127.51
11
137.91
21
-127.704
0
LINE
8
BLACK
6
CONTINUOUS
10
137.91
20
-127.704
11
137.91
21
-128.336
0
LINE
8
BLACK
6
CONTINUOUS
10
137.91
20
-128.336
11
137.876
21
-128.53
0
LINE
8
BLACK
6
CONTINUOUS
10
137.876
20
-128.53
11
137.743
21
-128.76
0
LINE
8
BLACK
6
CONTINUOUS
10
137.743
20
-128.76
11
137.541
21
-128.93
0
LINE
8
BLACK
6
CONTINUOUS
10
137.541
20
-128.93
11
137.292
21
-129.02
0
LINE
8
BLACK
6
CONTINUOUS
10
137.292
20
-129.02
11
137.028
21
-129.02
0
LINE
8
BLACK
6
CONTINUOUS
10
137.028
20
-129.02
11
136.779
21
-128.93
0
LINE
8
BLACK
6
CONTINUOUS
10
136.779
20
-128.93
11
136.577
21
-128.76
0
LINE
8
BLACK
6
CONTINUOUS
10
136.577
20
-128.76
11
136.444
21
-128.53
0
LINE
8
BLACK
6
CONTINUOUS
10
136.444
20
-128.53
11
136.41
21
-128.336
0
LINE
8
BLACK
6
CONTINUOUS
10
136.41
20
-128.336
11
136.41
21
-127.704
0
LINE
8
BLACK
6
CONTINUOUS
10
136.41
20
-127.704
11
136.444
21
-127.51
0
LINE
8
BLACK
6
CONTINUOUS
10
136.444
20
-127.51
11
136.577
21
-127.28
0
LINE
8
BLACK
6
CONTINUOUS
10
136.577
20
-127.28
11
136.779
21
-127.11
0
LINE
8
BLACK
6
CONTINUOUS
10
136.779
20
-127.11
11
137.028
21
-127.02
0
LINE
8
BLACK
6
CONTINUOUS
10
137.028
20
-127.02
11
137.292
21
-127.02
0
LINE
8
BLACK
6
CONTINUOUS
10
137.292
20
-127.02
11
137.541
21
-127.11
0
LINE
8
BLACK
6
CONTINUOUS
10
165.481
20
-127.11
11
165.683
21
-127.28
0
LINE
8
BLACK
6
CONTINUOUS
10
165.683
20
-127.28
11
165.816
21
-127.51
0
LINE
8
BLACK
6
CONTINUOUS
10
165.816
20
-127.51
11
165.85
21
-127.704
0
LINE
8
BLACK
6
CONTINUOUS
10
165.85
20
-127.704
11
165.85
21
-128.336
0
LINE
8
BLACK
6
CONTINUOUS
10
165.85
20
-128.336
11
165.816
21
-128.53
0
LINE
8
BLACK
6
CONTINUOUS
10
165.816
20
-128.53
11
165.683
21
-128.76
0
LINE
8
BLACK
6
CONTINUOUS
10
165.683
20
-128.76
11
165.481
21
-128.93
0
LINE
8
BLACK
6
CONTINUOUS
10
165.481
20
-128.93
11
165.232
21
-129.02
0
LINE
8
BLACK
6
CONTINUOUS
10
165.232
20
-129.02
11
164.968
21
-129.02
0
LINE
8
BLACK
6
CONTINUOUS
10
164.968
20
-129.02
11
164.719
21
-128.93
0
LINE
8
BLACK
6
CONTINUOUS
10
164.719
20
-128.93
11
164.517
21
-128.76
0
LINE
8
BLACK
6
CONTINUOUS
10
164.517
20
-128.76
11
164.384
21
-128.53
0
LINE
8
BLACK
6
CONTINUOUS
10
164.384
20
-128.53
11
164.35
21
-128.336
0
LINE
8
BLACK
6
CONTINUOUS
10
164.35
20
-128.336
11
164.35
21
-127.704
0
LINE
8
BLACK
6
CONTINUOUS
10
164.35
20
-127.704
11
164.384
21
-127.51
0
LINE
8
BLACK
6
CONTINUOUS
10
164.384
20
-127.51
11
164.517
21
-127.28
0
LINE
8
BLACK
6
CONTINUOUS
10
164.517
20
-127.28
11
164.719
21
-127.11
0
LINE
8
BLACK
6
CONTINUOUS
10
164.719
20
-127.11
11
164.968
21
-127.02
0
LINE
8
BLACK
6
CONTINUOUS
10
164.968
20
-127.02
11
165.232
21
-127.02
0
LINE
8
BLACK
6
CONTINUOUS
10
165.232
20
-127.02
11
165.481
21
-127.11
0
LINE
8
BLACK
6
CONTINUOUS
10
135.001
20
-127.11
11
135.203
21
-127.28
0
LINE
8
BLACK
6
CONTINUOUS
10
135.203
20
-127.28
11
135.336
21
-127.51
0
LINE
8
BLACK
6
CONTINUOUS
10
135.336
20
-127.51
11
135.37
21
-127.704
0
LINE
8
BLACK
6
CONTINUOUS
10
135.37
20
-127.704
11
135.37
21
-128.336
0
LINE
8
BLACK
6
CONTINUOUS
10
135.37
20
-128.336
11
135.336
21
-128.53
0
LINE
8
BLACK
6
CONTINUOUS
10
135.336
20
-128.53
11
135.203
21
-128.76
0
LINE
8
BLACK
6
CONTINUOUS
10
135.203
20
-128.76
11
135.001
21
-128.93
0
LINE
8
BLACK
6
CONTINUOUS
10
135.001
20
-128.93
11
134.752
21
-129.02
0
LINE
8
BLACK
6
CONTINUOUS
10
134.752
20
-129.02
11
134.488
21
-129.02
0
LINE
8
BLACK
6
CONTINUOUS
10
134.488
20
-129.02
11
134.239
21
-128.93
0
LINE
8
BLACK
6
CONTINUOUS
10
134.239
20
-128.93
11
134.037
21
-128.76
0
LINE
8
BLACK
6
CONTINUOUS
10
134.037
20
-128.76
11
133.904
21
-128.53
0
LINE
8
BLACK
6
CONTINUOUS
10
133.904
20
-128.53
11
133.87
21
-128.336
0
LINE
8
BLACK
6
CONTINUOUS
10
133.87
20
-128.336
11
133.87
21
-127.704
0
LINE
8
BLACK
6
CONTINUOUS
10
133.87
20
-127.704
11
133.904
21
-127.51
0
LINE
8
BLACK
6
CONTINUOUS
10
133.904
20
-127.51
11
134.037
21
-127.28
0
LINE
8
BLACK
6
CONTINUOUS
10
134.037
20
-127.28
11
134.239
21
-127.11
0
LINE
8
BLACK
6
CONTINUOUS
10
134.239
20
-127.11
11
134.488
21
-127.02
0
LINE
8
BLACK
6
CONTINUOUS
10
134.488
20
-127.02
11
134.752
21
-127.02
0
LINE
8
BLACK
6
CONTINUOUS
10
134.752
20
-127.02
11
135.001
21
-127.11
0
LINE
8
BLACK
6
CONTINUOUS
10
129.921
20
-127.11
11
130.123
21
-127.28
0
LINE
8
BLACK
6
CONTINUOUS
10
130.123
20
-127.28
11
130.256
21
-127.51
0
LINE
8
BLACK
6
CONTINUOUS
10
130.256
20
-127.51
11
130.29
21
-127.704
0
LINE
8
BLACK
6
CONTINUOUS
10
130.29
20
-127.704
11
130.29
21
-128.336
0
LINE
8
BLACK
6
CONTINUOUS
10
130.29
20
-128.336
11
130.256
21
-128.53
0
LINE
8
BLACK
6
CONTINUOUS
10
130.256
20
-128.53
11
130.123
21
-128.76
0
LINE
8
BLACK
6
CONTINUOUS
10
130.123
20
-128.76
11
129.921
21
-128.93
0
LINE
8
BLACK
6
CONTINUOUS
10
129.921
20
-128.93
11
129.672
21
-129.02
0
LINE
8
BLACK
6
CONTINUOUS
10
129.672
20
-129.02
11
129.408
21
-129.02
0
LINE
8
BLACK
6
CONTINUOUS
10
129.408
20
-129.02
11
129.159
21
-128.93
0
LINE
8
BLACK
6
CONTINUOUS
10
129.159
20
-128.93
11
128.957
21
-128.76
0
LINE
8
BLACK
6
CONTINUOUS
10
128.957
20
-128.76
11
128.824
21
-128.53
0
LINE
8
BLACK
6
CONTINUOUS
10
128.824
20
-128.53
11
128.79
21
-128.336
0
LINE
8
BLACK
6
CONTINUOUS
10
128.79
20
-128.336
11
128.79
21
-127.704
0
LINE
8
BLACK
6
CONTINUOUS
10
128.79
20
-127.704
11
128.824
21
-127.51
0
LINE
8
BLACK
6
CONTINUOUS
10
128.824
20
-127.51
11
128.957
21
-127.28
0
LINE
8
BLACK
6
CONTINUOUS
10
128.957
20
-127.28
11
129.159
21
-127.11
0
LINE
8
BLACK
6
CONTINUOUS
10
129.159
20
-127.11
11
129.408
21
-127.02
0
LINE
8
BLACK
6
CONTINUOUS
10
129.408
20
-127.02
11
129.672
21
-127.02
0
LINE
8
BLACK
6
CONTINUOUS
10
129.672
20
-127.02
11
129.921
21
-127.11
0
LINE
8
BLACK
6
CONTINUOUS
10
168.021
20
-127.11
11
168.223
21
-127.28
0
LINE
8
BLACK
6
CONTINUOUS
10
168.223
20
-127.28
11
168.356
21
-127.51
0
LINE
8
BLACK
6
CONTINUOUS
10
168.356
20
-127.51
11
168.39
21
-127.704
0
LINE
8
BLACK
6
CONTINUOUS
10
168.39
20
-127.704
11
168.39
21
-128.336
0
LINE
8
BLACK
6
CONTINUOUS
10
168.39
20
-128.336
11
168.356
21
-128.53
0
LINE
8
BLACK
6
CONTINUOUS
10
168.356
20
-128.53
11
168.223
21
-128.76
0
LINE
8
BLACK
6
CONTINUOUS
10
168.223
20
-128.76
11
168.021
21
-128.93
0
LINE
8
BLACK
6
CONTINUOUS
10
168.021
20
-128.93
11
167.772
21
-129.02
0
LINE
8
BLACK
6
CONTINUOUS
10
167.772
20
-129.02
11
167.508
21
-129.02
0
LINE
8
BLACK
6
CONTINUOUS
10
167.508
20
-129.02
11
167.259
21
-128.93
0
LINE
8
BLACK
6
CONTINUOUS
10
167.259
20
-128.93
11
167.057
21
-128.76
0
LINE
8
BLACK
6
CONTINUOUS
10
167.057
20
-128.76
11
166.924
21
-128.53
0
LINE
8
BLACK
6
CONTINUOUS
10
166.924
20
-128.53
11
166.89
21
-128.336
0
LINE
8
BLACK
6
CONTINUOUS
10
166.89
20
-128.336
11
166.89
21
-127.704
0
LINE
8
BLACK
6
CONTINUOUS
10
166.89
20
-127.704
11
166.924
21
-127.51
0
LINE
8
BLACK
6
CONTINUOUS
10
166.924
20
-127.51
11
167.057
21
-127.28
0
LINE
8
BLACK
6
CONTINUOUS
10
167.057
20
-127.28
11
167.259
21
-127.11
0
LINE
8
BLACK
6
CONTINUOUS
10
167.259
20
-127.11
11
167.508
21
-127.02
0
LINE
8
BLACK
6
CONTINUOUS
10
167.508
20
-127.02
11
167.772
21
-127.02
0
LINE
8
BLACK
6
CONTINUOUS
10
167.772
20
-127.02
11
168.021
21
-127.11
0
LINE
8
BLACK
6
CONTINUOUS
10
132.461
20
-127.11
11
132.663
21
-127.28
0
LINE
8
BLACK
6
CONTINUOUS
10
132.663
20
-127.28
11
132.796
21
-127.51
0
LINE
8
BLACK
6
CONTINUOUS
10
132.796
20
-127.51
11
132.83
21
-127.704
0
LINE
8
BLACK
6
CONTINUOUS
10
132.83
20
-127.704
11
132.83
21
-128.336
0
LINE
8
BLACK
6
CONTINUOUS
10
132.83
20
-128.336
11
132.796
21
-128.53
0
LINE
8
BLACK
6
CONTINUOUS
10
132.796
20
-128.53
11
132.663
21
-128.76
0
LINE
8
BLACK
6
CONTINUOUS
10
132.663
20
-128.76
11
132.461
21
-128.93
0
LINE
8
BLACK
6
CONTINUOUS
10
132.461
20
-128.93
11
132.212
21
-129.02
0
LINE
8
BLACK
6
CONTINUOUS
10
132.212
20
-129.02
11
131.948
21
-129.02
0
LINE
8
BLACK
6
CONTINUOUS
10
131.948
20
-129.02
11
131.699
21
-128.93
0
LINE
8
BLACK
6
CONTINUOUS
10
131.699
20
-128.93
11
131.497
21
-128.76
0
LINE
8
BLACK
6
CONTINUOUS
10
131.497
20
-128.76
11
131.364
21
-128.53
0
LINE
8
BLACK
6
CONTINUOUS
10
131.364
20
-128.53
11
131.33
21
-128.336
0
LINE
8
BLACK
6
CONTINUOUS
10
131.33
20
-128.336
11
131.33
21
-127.704
0
LINE
8
BLACK
6
CONTINUOUS
10
131.33
20
-127.704
11
131.364
21
-127.51
0
LINE
8
BLACK
6
CONTINUOUS
10
131.364
20
-127.51
11
131.497
21
-127.28
0
LINE
8
BLACK
6
CONTINUOUS
10
131.497
20
-127.28
11
131.699
21
-127.11
0
LINE
8
BLACK
6
CONTINUOUS
10
131.699
20
-127.11
11
131.948
21
-127.02
0
LINE
8
BLACK
6
CONTINUOUS
10
131.948
20
-127.02
11
132.212
21
-127.02
0
LINE
8
BLACK
6
CONTINUOUS
10
132.212
20
-127.02
11
132.461
21
-127.11
0
LINE
8
BLACK
6
CONTINUOUS
10
170.561
20
-127.11
11
170.763
21
-127.28
0
LINE
8
BLACK
6
CONTINUOUS
10
170.763
20
-127.28
11
170.896
21
-127.51
0
LINE
8
BLACK
6
CONTINUOUS
10
170.896
20
-127.51
11
170.93
21
-127.704
0
LINE
8
BLACK
6
CONTINUOUS
10
170.93
20
-127.704
11
170.93
21
-128.336
0
LINE
8
BLACK
6
CONTINUOUS
10
170.93
20
-128.336
11
170.896
21
-128.53
0
LINE
8
BLACK
6
CONTINUOUS
10
170.896
20
-128.53
11
170.763
21
-128.76
0
LINE
8
BLACK
6
CONTINUOUS
10
170.763
20
-128.76
11
170.561
21
-128.93
0
LINE
8
BLACK
6
CONTINUOUS
10
170.561
20
-128.93
11
170.312
21
-129.02
0
LINE
8
BLACK
6
CONTINUOUS
10
170.312
20
-129.02
11
170.048
21
-129.02
0
LINE
8
BLACK
6
CONTINUOUS
10
170.048
20
-129.02
11
169.799
21
-128.93
0
LINE
8
BLACK
6
CONTINUOUS
10
169.799
20
-128.93
11
169.597
21
-128.76
0
LINE
8
BLACK
6
CONTINUOUS
10
169.597
20
-128.76
11
169.464
21
-128.53
0
LINE
8
BLACK
6
CONTINUOUS
10
169.464
20
-128.53
11
169.43
21
-128.336
0
LINE
8
BLACK
6
CONTINUOUS
10
169.43
20
-128.336
11
169.43
21
-127.704
0
LINE
8
BLACK
6
CONTINUOUS
10
169.43
20
-127.704
11
169.464
21
-127.51
0
LINE
8
BLACK
6
CONTINUOUS
10
169.464
20
-127.51
11
169.597
21
-127.28
0
LINE
8
BLACK
6
CONTINUOUS
10
169.597
20
-127.28
11
169.799
21
-127.11
0
LINE
8
BLACK
6
CONTINUOUS
10
169.799
20
-127.11
11
170.048
21
-127.02
0
LINE
8
BLACK
6
CONTINUOUS
10
170.048
20
-127.02
11
170.312
21
-127.02
0
LINE
8
BLACK
6
CONTINUOUS
10
170.312
20
-127.02
11
170.561
21
-127.11
0
LINE
8
BLACK
6
CONTINUOUS
10
117.221
20
-127.11
11
117.423
21
-127.28
0
LINE
8
BLACK
6
CONTINUOUS
10
117.423
20
-127.28
11
117.556
21
-127.51
0
LINE
8
BLACK
6
CONTINUOUS
10
117.556
20
-127.51
11
117.59
21
-127.704
0
LINE
8
BLACK
6
CONTINUOUS
10
117.59
20
-127.704
11
117.59
21
-128.336
0
LINE
8
BLACK
6
CONTINUOUS
10
117.59
20
-128.336
11
117.556
21
-128.53
0
LINE
8
BLACK
6
CONTINUOUS
10
117.556
20
-128.53
11
117.423
21
-128.76
0
LINE
8
BLACK
6
CONTINUOUS
10
117.423
20
-128.76
11
117.221
21
-128.93
0
LINE
8
BLACK
6
CONTINUOUS
10
117.221
20
-128.93
11
116.972
21
-129.02
0
LINE
8
BLACK
6
CONTINUOUS
10
116.972
20
-129.02
11
116.708
21
-129.02
0
LINE
8
BLACK
6
CONTINUOUS
10
116.708
20
-129.02
11
116.459
21
-128.93
0
LINE
8
BLACK
6
CONTINUOUS
10
116.459
20
-128.93
11
116.257
21
-128.76
0
LINE
8
BLACK
6
CONTINUOUS
10
116.257
20
-128.76
11
116.124
21
-128.53
0
LINE
8
BLACK
6
CONTINUOUS
10
116.124
20
-128.53
11
116.09
21
-128.336
0
LINE
8
BLACK
6
CONTINUOUS
10
116.09
20
-128.336
11
116.09
21
-127.704
0
LINE
8
BLACK
6
CONTINUOUS
10
116.09
20
-127.704
11
116.124
21
-127.51
0
LINE
8
BLACK
6
CONTINUOUS
10
116.124
20
-127.51
11
116.257
21
-127.28
0
LINE
8
BLACK
6
CONTINUOUS
10
116.257
20
-127.28
11
116.459
21
-127.11
0
LINE
8
BLACK
6
CONTINUOUS
10
116.459
20
-127.11
11
116.708
21
-127.02
0
LINE
8
BLACK
6
CONTINUOUS
10
116.708
20
-127.02
11
116.972
21
-127.02
0
LINE
8
BLACK
6
CONTINUOUS
10
116.972
20
-127.02
11
117.221
21
-127.11
0
LINE
8
BLACK
6
CONTINUOUS
10
122.301
20
-127.11
11
122.503
21
-127.28
0
LINE
8
BLACK
6
CONTINUOUS
10
122.503
20
-127.28
11
122.636
21
-127.51
0
LINE
8
BLACK
6
CONTINUOUS
10
122.636
20
-127.51
11
122.67
21
-127.704
0
LINE
8
BLACK
6
CONTINUOUS
10
122.67
20
-127.704
11
122.67
21
-128.336
0
LINE
8
BLACK
6
CONTINUOUS
10
122.67
20
-128.336
11
122.636
21
-128.53
0
LINE
8
BLACK
6
CONTINUOUS
10
122.636
20
-128.53
11
122.503
21
-128.76
0
LINE
8
BLACK
6
CONTINUOUS
10
122.503
20
-128.76
11
122.301
21
-128.93
0
LINE
8
BLACK
6
CONTINUOUS
10
122.301
20
-128.93
11
122.052
21
-129.02
0
LINE
8
BLACK
6
CONTINUOUS
10
122.052
20
-129.02
11
121.788
21
-129.02
0
LINE
8
BLACK
6
CONTINUOUS
10
121.788
20
-129.02
11
121.539
21
-128.93
0
LINE
8
BLACK
6
CONTINUOUS
10
121.539
20
-128.93
11
121.337
21
-128.76
0
LINE
8
BLACK
6
CONTINUOUS
10
121.337
20
-128.76
11
121.204
21
-128.53
0
LINE
8
BLACK
6
CONTINUOUS
10
121.204
20
-128.53
11
121.17
21
-128.336
0
LINE
8
BLACK
6
CONTINUOUS
10
121.17
20
-128.336
11
121.17
21
-127.704
0
LINE
8
BLACK
6
CONTINUOUS
10
121.17
20
-127.704
11
121.204
21
-127.51
0
LINE
8
BLACK
6
CONTINUOUS
10
121.204
20
-127.51
11
121.337
21
-127.28
0
LINE
8
BLACK
6
CONTINUOUS
10
121.337
20
-127.28
11
121.539
21
-127.11
0
LINE
8
BLACK
6
CONTINUOUS
10
121.539
20
-127.11
11
121.788
21
-127.02
0
LINE
8
BLACK
6
CONTINUOUS
10
121.788
20
-127.02
11
122.052
21
-127.02
0
LINE
8
BLACK
6
CONTINUOUS
10
122.052
20
-127.02
11
122.301
21
-127.11
0
LINE
8
BLACK
6
CONTINUOUS
10
175.641
20
-127.11
11
175.843
21
-127.28
0
LINE
8
BLACK
6
CONTINUOUS
10
175.843
20
-127.28
11
175.976
21
-127.51
0
LINE
8
BLACK
6
CONTINUOUS
10
175.976
20
-127.51
11
176.01
21
-127.704
0
LINE
8
BLACK
6
CONTINUOUS
10
176.01
20
-127.704
11
176.01
21
-128.336
0
LINE
8
BLACK
6
CONTINUOUS
10
176.01
20
-128.336
11
175.976
21
-128.53
0
LINE
8
BLACK
6
CONTINUOUS
10
175.976
20
-128.53
11
175.843
21
-128.76
0
LINE
8
BLACK
6
CONTINUOUS
10
175.843
20
-128.76
11
175.641
21
-128.93
0
LINE
8
BLACK
6
CONTINUOUS
10
175.641
20
-128.93
11
175.392
21
-129.02
0
LINE
8
BLACK
6
CONTINUOUS
10
175.392
20
-129.02
11
175.128
21
-129.02
0
LINE
8
BLACK
6
CONTINUOUS
10
175.128
20
-129.02
11
174.879
21
-128.93
0
LINE
8
BLACK
6
CONTINUOUS
10
174.879
20
-128.93
11
174.677
21
-128.76
0
LINE
8
BLACK
6
CONTINUOUS
10
174.677
20
-128.76
11
174.544
21
-128.53
0
LINE
8
BLACK
6
CONTINUOUS
10
174.544
20
-128.53
11
174.51
21
-128.336
0
LINE
8
BLACK
6
CONTINUOUS
10
174.51
20
-128.336
11
174.51
21
-127.704
0
LINE
8
BLACK
6
CONTINUOUS
10
174.51
20
-127.704
11
174.544
21
-127.51
0
LINE
8
BLACK
6
CONTINUOUS
10
174.544
20
-127.51
11
174.677
21
-127.28
0
LINE
8
BLACK
6
CONTINUOUS
10
174.677
20
-127.28
11
174.879
21
-127.11
0
LINE
8
BLACK
6
CONTINUOUS
10
174.879
20
-127.11
11
175.128
21
-127.02
0
LINE
8
BLACK
6
CONTINUOUS
10
175.128
20
-127.02
11
175.392
21
-127.02
0
LINE
8
BLACK
6
CONTINUOUS
10
175.392
20
-127.02
11
175.641
21
-127.11
0
LINE
8
BLACK
6
CONTINUOUS
10
124.841
20
-127.11
11
125.043
21
-127.28
0
LINE
8
BLACK
6
CONTINUOUS
10
125.043
20
-127.28
11
125.176
21
-127.51
0
LINE
8
BLACK
6
CONTINUOUS
10
125.176
20
-127.51
11
125.21
21
-127.704
0
LINE
8
BLACK
6
CONTINUOUS
10
125.21
20
-127.704
11
125.21
21
-128.336
0
LINE
8
BLACK
6
CONTINUOUS
10
125.21
20
-128.336
11
125.176
21
-128.53
0
LINE
8
BLACK
6
CONTINUOUS
10
125.176
20
-128.53
11
125.043
21
-128.76
0
LINE
8
BLACK
6
CONTINUOUS
10
125.043
20
-128.76
11
124.841
21
-128.93
0
LINE
8
BLACK
6
CONTINUOUS
10
124.841
20
-128.93
11
124.592
21
-129.02
0
LINE
8
BLACK
6
CONTINUOUS
10
124.592
20
-129.02
11
124.328
21
-129.02
0
LINE
8
BLACK
6
CONTINUOUS
10
124.328
20
-129.02
11
124.079
21
-128.93
0
LINE
8
BLACK
6
CONTINUOUS
10
124.079
20
-128.93
11
123.877
21
-128.76
0
LINE
8
BLACK
6
CONTINUOUS
10
123.877
20
-128.76
11
123.744
21
-128.53
0
LINE
8
BLACK
6
CONTINUOUS
10
123.744
20
-128.53
11
123.71
21
-128.336
0
LINE
8
BLACK
6
CONTINUOUS
10
123.71
20
-128.336
11
123.71
21
-127.704
0
LINE
8
BLACK
6
CONTINUOUS
10
123.71
20
-127.704
11
123.744
21
-127.51
0
LINE
8
BLACK
6
CONTINUOUS
10
123.744
20
-127.51
11
123.877
21
-127.28
0
LINE
8
BLACK
6
CONTINUOUS
10
123.877
20
-127.28
11
124.079
21
-127.11
0
LINE
8
BLACK
6
CONTINUOUS
10
124.079
20
-127.11
11
124.328
21
-127.02
0
LINE
8
BLACK
6
CONTINUOUS
10
124.328
20
-127.02
11
124.592
21
-127.02
0
LINE
8
BLACK
6
CONTINUOUS
10
124.592
20
-127.02
11
124.841
21
-127.11
0
LINE
8
BLACK
6
CONTINUOUS
10
127.381
20
-127.11
11
127.583
21
-127.28
0
LINE
8
BLACK
6
CONTINUOUS
10
127.583
20
-127.28
11
127.716
21
-127.51
0
LINE
8
BLACK
6
CONTINUOUS
10
127.716
20
-127.51
11
127.75
21
-127.704
0
LINE
8
BLACK
6
CONTINUOUS
10
127.75
20
-127.704
11
127.75
21
-128.336
0
LINE
8
BLACK
6
CONTINUOUS
10
127.75
20
-128.336
11
127.716
21
-128.53
0
LINE
8
BLACK
6
CONTINUOUS
10
127.716
20
-128.53
11
127.583
21
-128.76
0
LINE
8
BLACK
6
CONTINUOUS
10
127.583
20
-128.76
11
127.381
21
-128.93
0
LINE
8
BLACK
6
CONTINUOUS
10
127.381
20
-128.93
11
127.132
21
-129.02
0
LINE
8
BLACK
6
CONTINUOUS
10
127.132
20
-129.02
11
126.868
21
-129.02
0
LINE
8
BLACK
6
CONTINUOUS
10
126.868
20
-129.02
11
126.619
21
-128.93
0
LINE
8
BLACK
6
CONTINUOUS
10
126.619
20
-128.93
11
126.417
21
-128.76
0
LINE
8
BLACK
6
CONTINUOUS
10
126.417
20
-128.76
11
126.284
21
-128.53
0
LINE
8
BLACK
6
CONTINUOUS
10
126.284
20
-128.53
11
126.25
21
-128.336
0
LINE
8
BLACK
6
CONTINUOUS
10
126.25
20
-128.336
11
126.25
21
-127.704
0
LINE
8
BLACK
6
CONTINUOUS
10
126.25
20
-127.704
11
126.284
21
-127.51
0
LINE
8
BLACK
6
CONTINUOUS
10
126.284
20
-127.51
11
126.417
21
-127.28
0
LINE
8
BLACK
6
CONTINUOUS
10
126.417
20
-127.28
11
126.619
21
-127.11
0
LINE
8
BLACK
6
CONTINUOUS
10
126.619
20
-127.11
11
126.868
21
-127.02
0
LINE
8
BLACK
6
CONTINUOUS
10
126.868
20
-127.02
11
127.132
21
-127.02
0
LINE
8
BLACK
6
CONTINUOUS
10
127.132
20
-127.02
11
127.381
21
-127.11
0
LINE
8
BLACK
6
CONTINUOUS
10
173.101
20
-127.11
11
173.303
21
-127.28
0
LINE
8
BLACK
6
CONTINUOUS
10
173.303
20
-127.28
11
173.436
21
-127.51
0
LINE
8
BLACK
6
CONTINUOUS
10
173.436
20
-127.51
11
173.47
21
-127.704
0
LINE
8
BLACK
6
CONTINUOUS
10
173.47
20
-127.704
11
173.47
21
-128.336
0
LINE
8
BLACK
6
CONTINUOUS
10
173.47
20
-128.336
11
173.436
21
-128.53
0
LINE
8
BLACK
6
CONTINUOUS
10
173.436
20
-128.53
11
173.303
21
-128.76
0
LINE
8
BLACK
6
CONTINUOUS
10
173.303
20
-128.76
11
173.101
21
-128.93
0
LINE
8
BLACK
6
CONTINUOUS
10
173.101
20
-128.93
11
172.852
21
-129.02
0
LINE
8
BLACK
6
CONTINUOUS
10
172.852
20
-129.02
11
172.588
21
-129.02
0
LINE
8
BLACK
6
CONTINUOUS
10
172.588
20
-129.02
11
172.339
21
-128.93
0
LINE
8
BLACK
6
CONTINUOUS
10
172.339
20
-128.93
11
172.137
21
-128.76
0
LINE
8
BLACK
6
CONTINUOUS
10
172.137
20
-128.76
11
172.004
21
-128.53
0
LINE
8
BLACK
6
CONTINUOUS
10
172.004
20
-128.53
11
171.97
21
-128.336
0
LINE
8
BLACK
6
CONTINUOUS
10
171.97
20
-128.336
11
171.97
21
-127.704
0
LINE
8
BLACK
6
CONTINUOUS
10
171.97
20
-127.704
11
172.004
21
-127.51
0
LINE
8
BLACK
6
CONTINUOUS
10
172.004
20
-127.51
11
172.137
21
-127.28
0
LINE
8
BLACK
6
CONTINUOUS
10
172.137
20
-127.28
11
172.339
21
-127.11
0
LINE
8
BLACK
6
CONTINUOUS
10
172.339
20
-127.11
11
172.588
21
-127.02
0
LINE
8
BLACK
6
CONTINUOUS
10
172.588
20
-127.02
11
172.852
21
-127.02
0
LINE
8
BLACK
6
CONTINUOUS
10
172.852
20
-127.02
11
173.101
21
-127.11
0
LINE
8
BLACK
6
CONTINUOUS
10
120.13
20
-126.674
11
118.63
21
-126.674
0
LINE
8
BLACK
6
CONTINUOUS
10
118.63
20
-126.674
11
118.63
21
-125.524
0
LINE
8
BLACK
6
CONTINUOUS
10
118.63
20
-125.524
11
119.38
21
-126.024
0
LINE
8
BLACK
6
CONTINUOUS
10
119.38
20
-126.024
11
120.13
21
-125.524
0
LINE
8
BLACK
6
CONTINUOUS
10
120.13
20
-125.524
11
120.13
21
-126.674
0
LINE
8
BLACK
6
CONTINUOUS
10
117.59
20
-126.674
11
116.09
21
-126.674
0
LINE
8
BLACK
6
CONTINUOUS
10
116.09
20
-126.674
11
116.09
21
-125.524
0
LINE
8
BLACK
6
CONTINUOUS
10
116.09
20
-125.524
11
116.84
21
-126.024
0
LINE
8
BLACK
6
CONTINUOUS
10
116.84
20
-126.024
11
117.59
21
-125.524
0
LINE
8
BLACK
6
CONTINUOUS
10
117.59
20
-125.524
11
117.59
21
-126.674
0
LINE
8
BLACK
6
CONTINUOUS
10
155.69
20
-126.674
11
154.19
21
-126.674
0
LINE
8
BLACK
6
CONTINUOUS
10
154.19
20
-126.674
11
154.19
21
-125.524
0
LINE
8
BLACK
6
CONTINUOUS
10
154.19
20
-125.524
11
154.94
21
-126.024
0
LINE
8
BLACK
6
CONTINUOUS
10
154.94
20
-126.024
11
155.69
21
-125.524
0
LINE
8
BLACK
6
CONTINUOUS
10
155.69
20
-125.524
11
155.69
21
-126.674
0
LINE
8
BLACK
6
CONTINUOUS
10
120.13
20
-125.224
11
119.38
21
-125.724
0
LINE
8
BLACK
6
CONTINUOUS
10
119.38
20
-125.724
11
118.63
21
-125.224
0
LINE
8
BLACK
6
CONTINUOUS
10
118.63
20
-125.224
11
118.63
21
-124.224
0
LINE
8
BLACK
6
CONTINUOUS
10
118.63
20
-124.224
11
120.13
21
-124.224
0
LINE
8
BLACK
6
CONTINUOUS
10
120.13
20
-124.224
11
120.13
21
-125.224
0
LINE
8
BLACK
6
CONTINUOUS
10
117.59
20
-125.224
11
116.84
21
-125.724
0
LINE
8
BLACK
6
CONTINUOUS
10
116.84
20
-125.724
11
116.09
21
-125.224
0
LINE
8
BLACK
6
CONTINUOUS
10
116.09
20
-125.224
11
116.09
21
-124.224
0
LINE
8
BLACK
6
CONTINUOUS
10
116.09
20
-124.224
11
117.59
21
-124.224
0
LINE
8
BLACK
6
CONTINUOUS
10
117.59
20
-124.224
11
117.59
21
-125.224
0
LINE
8
BLACK
6
CONTINUOUS
10
155.69
20
-125.224
11
154.94
21
-125.724
0
LINE
8
BLACK
6
CONTINUOUS
10
154.94
20
-125.724
11
154.19
21
-125.224
0
LINE
8
BLACK
6
CONTINUOUS
10
154.19
20
-125.224
11
154.19
21
-124.224
0
LINE
8
BLACK
6
CONTINUOUS
10
154.19
20
-124.224
11
155.69
21
-124.224
0
LINE
8
BLACK
6
CONTINUOUS
10
155.69
20
-124.224
11
155.69
21
-125.224
0
LINE
8
BLACK
6
CONTINUOUS
10
110.088
20
-118.265
11
110.852
21
-118.705
0
LINE
8
BLACK
6
CONTINUOUS
10
110.852
20
-118.705
11
111.418
21
-119.381
0
LINE
8
BLACK
6
CONTINUOUS
10
111.418
20
-119.381
11
111.72
21
-120.209
0
LINE
8
BLACK
6
CONTINUOUS
10
111.72
20
-120.209
11
111.72
21
-121.091
0
LINE
8
BLACK
6
CONTINUOUS
10
111.72
20
-121.091
11
111.418
21
-121.919
0
LINE
8
BLACK
6
CONTINUOUS
10
111.418
20
-121.919
11
110.852
21
-122.595
0
LINE
8
BLACK
6
CONTINUOUS
10
110.852
20
-122.595
11
110.088
21
-123.035
0
LINE
8
BLACK
6
CONTINUOUS
10
110.088
20
-123.035
11
109.22
21
-123.189
0
LINE
8
BLACK
6
CONTINUOUS
10
109.22
20
-123.189
11
108.352
21
-123.035
0
LINE
8
BLACK
6
CONTINUOUS
10
108.352
20
-123.035
11
107.588
21
-122.595
0
LINE
8
BLACK
6
CONTINUOUS
10
107.588
20
-122.595
11
107.022
21
-121.919
0
LINE
8
BLACK
6
CONTINUOUS
10
107.022
20
-121.919
11
106.72
21
-121.091
0
LINE
8
BLACK
6
CONTINUOUS
10
106.72
20
-121.091
11
106.72
21
-120.209
0
LINE
8
BLACK
6
CONTINUOUS
10
106.72
20
-120.209
11
107.022
21
-119.381
0
LINE
8
BLACK
6
CONTINUOUS
10
107.022
20
-119.381
11
107.588
21
-118.705
0
LINE
8
BLACK
6
CONTINUOUS
10
107.588
20
-118.705
11
108.352
21
-118.265
0
LINE
8
BLACK
6
CONTINUOUS
10
108.352
20
-118.265
11
109.22
21
-118.111
0
LINE
8
BLACK
6
CONTINUOUS
10
109.22
20
-118.111
11
110.088
21
-118.265
0
LINE
8
BLACK
6
CONTINUOUS
10
186.288
20
-118.265
11
187.052
21
-118.705
0
LINE
8
BLACK
6
CONTINUOUS
10
187.052
20
-118.705
11
187.618
21
-119.381
0
LINE
8
BLACK
6
CONTINUOUS
10
187.618
20
-119.381
11
187.92
21
-120.209
0
LINE
8
BLACK
6
CONTINUOUS
10
187.92
20
-120.209
11
187.92
21
-121.091
0
LINE
8
BLACK
6
CONTINUOUS
10
187.92
20
-121.091
11
187.618
21
-121.919
0
LINE
8
BLACK
6
CONTINUOUS
10
187.618
20
-121.919
11
187.052
21
-122.595
0
LINE
8
BLACK
6
CONTINUOUS
10
187.052
20
-122.595
11
186.288
21
-123.035
0
LINE
8
BLACK
6
CONTINUOUS
10
186.288
20
-123.035
11
185.42
21
-123.189
0
LINE
8
BLACK
6
CONTINUOUS
10
185.42
20
-123.189
11
184.552
21
-123.035
0
LINE
8
BLACK
6
CONTINUOUS
10
184.552
20
-123.035
11
183.788
21
-122.595
0
LINE
8
BLACK
6
CONTINUOUS
10
183.788
20
-122.595
11
183.222
21
-121.919
0
LINE
8
BLACK
6
CONTINUOUS
10
183.222
20
-121.919
11
182.92
21
-121.091
0
LINE
8
BLACK
6
CONTINUOUS
10
182.92
20
-121.091
11
182.92
21
-120.209
0
LINE
8
BLACK
6
CONTINUOUS
10
182.92
20
-120.209
11
183.222
21
-119.381
0
LINE
8
BLACK
6
CONTINUOUS
10
183.222
20
-119.381
11
183.788
21
-118.705
0
LINE
8
BLACK
6
CONTINUOUS
10
183.788
20
-118.705
11
184.552
21
-118.265
0
LINE
8
BLACK
6
CONTINUOUS
10
184.552
20
-118.265
11
185.42
21
-118.111
0
LINE
8
BLACK
6
CONTINUOUS
10
185.42
20
-118.111
11
186.288
21
-118.265
0
LINE
8
BLACK
6
CONTINUOUS
10
124.841
20
-118.371
11
125.044
21
-118.541
0
LINE
8
BLACK
6
CONTINUOUS
10
125.044
20
-118.541
11
125.176
21
-118.77
0
LINE
8
BLACK
6
CONTINUOUS
10
125.176
20
-118.77
11
125.211
21
-118.965
0
LINE
8
BLACK
6
CONTINUOUS
10
125.211
20
-118.965
11
125.211
21
-119.795
0
LINE
8
BLACK
6
CONTINUOUS
10
125.211
20
-119.795
11
125.176
21
-119.99
0
LINE
8
BLACK
6
CONTINUOUS
10
125.176
20
-119.99
11
125.044
21
-120.219
0
LINE
8
BLACK
6
CONTINUOUS
10
125.044
20
-120.219
11
124.841
21
-120.389
0
LINE
8
BLACK
6
CONTINUOUS
10
124.841
20
-120.389
11
124.592
21
-120.48
0
LINE
8
BLACK
6
CONTINUOUS
10
124.592
20
-120.48
11
124.328
21
-120.48
0
LINE
8
BLACK
6
CONTINUOUS
10
124.328
20
-120.48
11
124.079
21
-120.389
0
LINE
8
BLACK
6
CONTINUOUS
10
124.079
20
-120.389
11
123.876
21
-120.219
0
LINE
8
BLACK
6
CONTINUOUS
10
123.876
20
-120.219
11
123.744
21
-119.99
0
LINE
8
BLACK
6
CONTINUOUS
10
123.744
20
-119.99
11
123.709
21
-119.795
0
LINE
8
BLACK
6
CONTINUOUS
10
123.709
20
-119.795
11
123.709
21
-118.965
0
LINE
8
BLACK
6
CONTINUOUS
10
123.709
20
-118.965
11
123.744
21
-118.77
0
LINE
8
BLACK
6
CONTINUOUS
10
123.744
20
-118.77
11
123.876
21
-118.541
0
LINE
8
BLACK
6
CONTINUOUS
10
123.876
20
-118.541
11
124.079
21
-118.371
0
LINE
8
BLACK
6
CONTINUOUS
10
124.079
20
-118.371
11
124.328
21
-118.28
0
LINE
8
BLACK
6
CONTINUOUS
10
124.328
20
-118.28
11
124.592
21
-118.28
0
LINE
8
BLACK
6
CONTINUOUS
10
124.592
20
-118.28
11
124.841
21
-118.371
0
LINE
8
BLACK
6
CONTINUOUS
10
127.381
20
-118.371
11
127.584
21
-118.541
0
LINE
8
BLACK
6
CONTINUOUS
10
127.584
20
-118.541
11
127.716
21
-118.77
0
LINE
8
BLACK
6
CONTINUOUS
10
127.716
20
-118.77
11
127.751
21
-118.965
0
LINE
8
BLACK
6
CONTINUOUS
10
127.751
20
-118.965
11
127.751
21
-119.795
0
LINE
8
BLACK
6
CONTINUOUS
10
127.751
20
-119.795
11
127.716
21
-119.99
0
LINE
8
BLACK
6
CONTINUOUS
10
127.716
20
-119.99
11
127.584
21
-120.219
0
LINE
8
BLACK
6
CONTINUOUS
10
127.584
20
-120.219
11
127.381
21
-120.389
0
LINE
8
BLACK
6
CONTINUOUS
10
127.381
20
-120.389
11
127.132
21
-120.48
0
LINE
8
BLACK
6
CONTINUOUS
10
127.132
20
-120.48
11
126.868
21
-120.48
0
LINE
8
BLACK
6
CONTINUOUS
10
126.868
20
-120.48
11
126.619
21
-120.389
0
LINE
8
BLACK
6
CONTINUOUS
10
126.619
20
-120.389
11
126.416
21
-120.219
0
LINE
8
BLACK
6
CONTINUOUS
10
126.416
20
-120.219
11
126.284
21
-119.99
0
LINE
8
BLACK
6
CONTINUOUS
10
126.284
20
-119.99
11
126.249
21
-119.795
0
LINE
8
BLACK
6
CONTINUOUS
10
126.249
20
-119.795
11
126.249
21
-118.965
0
LINE
8
BLACK
6
CONTINUOUS
10
126.249
20
-118.965
11
126.284
21
-118.77
0
LINE
8
BLACK
6
CONTINUOUS
10
126.284
20
-118.77
11
126.416
21
-118.541
0
LINE
8
BLACK
6
CONTINUOUS
10
126.416
20
-118.541
11
126.619
21
-118.371
0
LINE
8
BLACK
6
CONTINUOUS
10
126.619
20
-118.371
11
126.868
21
-118.28
0
LINE
8
BLACK
6
CONTINUOUS
10
126.868
20
-118.28
11
127.132
21
-118.28
0
LINE
8
BLACK
6
CONTINUOUS
10
127.132
20
-118.28
11
127.381
21
-118.371
0
LINE
8
BLACK
6
CONTINUOUS
10
129.921
20
-118.371
11
130.124
21
-118.541
0
LINE
8
BLACK
6
CONTINUOUS
10
130.124
20
-118.541
11
130.256
21
-118.77
0
LINE
8
BLACK
6
CONTINUOUS
10
130.256
20
-118.77
11
130.291
21
-118.965
0
LINE
8
BLACK
6
CONTINUOUS
10
130.291
20
-118.965
11
130.291
21
-119.795
0
LINE
8
BLACK
6
CONTINUOUS
10
130.291
20
-119.795
11
130.256
21
-119.99
0
LINE
8
BLACK
6
CONTINUOUS
10
130.256
20
-119.99
11
130.124
21
-120.219
0
LINE
8
BLACK
6
CONTINUOUS
10
130.124
20
-120.219
11
129.921
21
-120.389
0
LINE
8
BLACK
6
CONTINUOUS
10
129.921
20
-120.389
11
129.672
21
-120.48
0
LINE
8
BLACK
6
CONTINUOUS
10
129.672
20
-120.48
11
129.408
21
-120.48
0
LINE
8
BLACK
6
CONTINUOUS
10
129.408
20
-120.48
11
129.159
21
-120.389
0
LINE
8
BLACK
6
CONTINUOUS
10
129.159
20
-120.389
11
128.956
21
-120.219
0
LINE
8
BLACK
6
CONTINUOUS
10
128.956
20
-120.219
11
128.824
21
-119.99
0
LINE
8
BLACK
6
CONTINUOUS
10
128.824
20
-119.99
11
128.789
21
-119.795
0
LINE
8
BLACK
6
CONTINUOUS
10
128.789
20
-119.795
11
128.789
21
-118.965
0
LINE
8
BLACK
6
CONTINUOUS
10
128.789
20
-118.965
11
128.824
21
-118.77
0
LINE
8
BLACK
6
CONTINUOUS
10
128.824
20
-118.77
11
128.956
21
-118.541
0
LINE
8
BLACK
6
CONTINUOUS
10
128.956
20
-118.541
11
129.159
21
-118.371
0
LINE
8
BLACK
6
CONTINUOUS
10
129.159
20
-118.371
11
129.408
21
-118.28
0
LINE
8
BLACK
6
CONTINUOUS
10
129.408
20
-118.28
11
129.672
21
-118.28
0
LINE
8
BLACK
6
CONTINUOUS
10
129.672
20
-118.28
11
129.921
21
-118.371
0
LINE
8
BLACK
6
CONTINUOUS
10
122.301
20
-118.371
11
122.504
21
-118.541
0
LINE
8
BLACK
6
CONTINUOUS
10
122.504
20
-118.541
11
122.636
21
-118.77
0
LINE
8
BLACK
6
CONTINUOUS
10
122.636
20
-118.77
11
122.671
21
-118.965
0
LINE
8
BLACK
6
CONTINUOUS
10
122.671
20
-118.965
11
122.671
21
-119.795
0
LINE
8
BLACK
6
CONTINUOUS
10
122.671
20
-119.795
11
122.636
21
-119.99
0
LINE
8
BLACK
6
CONTINUOUS
10
122.636
20
-119.99
11
122.504
21
-120.219
0
LINE
8
BLACK
6
CONTINUOUS
10
122.504
20
-120.219
11
122.301
21
-120.389
0
LINE
8
BLACK
6
CONTINUOUS
10
122.301
20
-120.389
11
122.052
21
-120.48
0
LINE
8
BLACK
6
CONTINUOUS
10
122.052
20
-120.48
11
121.788
21
-120.48
0
LINE
8
BLACK
6
CONTINUOUS
10
121.788
20
-120.48
11
121.539
21
-120.389
0
LINE
8
BLACK
6
CONTINUOUS
10
121.539
20
-120.389
11
121.336
21
-120.219
0
LINE
8
BLACK
6
CONTINUOUS
10
121.336
20
-120.219
11
121.204
21
-119.99
0
LINE
8
BLACK
6
CONTINUOUS
10
121.204
20
-119.99
11
121.169
21
-119.795
0
LINE
8
BLACK
6
CONTINUOUS
10
121.169
20
-119.795
11
121.169
21
-118.965
0
LINE
8
BLACK
6
CONTINUOUS
10
121.169
20
-118.965
11
121.204
21
-118.77
0
LINE
8
BLACK
6
CONTINUOUS
10
121.204
20
-118.77
11
121.336
21
-118.541
0
LINE
8
BLACK
6
CONTINUOUS
10
121.336
20
-118.541
11
121.539
21
-118.371
0
LINE
8
BLACK
6
CONTINUOUS
10
121.539
20
-118.371
11
121.788
21
-118.28
0
LINE
8
BLACK
6
CONTINUOUS
10
121.788
20
-118.28
11
122.052
21
-118.28
0
LINE
8
BLACK
6
CONTINUOUS
10
122.052
20
-118.28
11
122.301
21
-118.371
0
LINE
8
BLACK
6
CONTINUOUS
10
132.461
20
-118.371
11
132.664
21
-118.541
0
LINE
8
BLACK
6
CONTINUOUS
10
132.664
20
-118.541
11
132.796
21
-118.77
0
LINE
8
BLACK
6
CONTINUOUS
10
132.796
20
-118.77
11
132.831
21
-118.965
0
LINE
8
BLACK
6
CONTINUOUS
10
132.831
20
-118.965
11
132.831
21
-119.795
0
LINE
8
BLACK
6
CONTINUOUS
10
132.831
20
-119.795
11
132.796
21
-119.99
0
LINE
8
BLACK
6
CONTINUOUS
10
132.796
20
-119.99
11
132.664
21
-120.219
0
LINE
8
BLACK
6
CONTINUOUS
10
132.664
20
-120.219
11
132.461
21
-120.389
0
LINE
8
BLACK
6
CONTINUOUS
10
132.461
20
-120.389
11
132.212
21
-120.48
0
LINE
8
BLACK
6
CONTINUOUS
10
132.212
20
-120.48
11
131.948
21
-120.48
0
LINE
8
BLACK
6
CONTINUOUS
10
131.948
20
-120.48
11
131.699
21
-120.389
0
LINE
8
BLACK
6
CONTINUOUS
10
131.699
20
-120.389
11
131.496
21
-120.219
0
LINE
8
BLACK
6
CONTINUOUS
10
131.496
20
-120.219
11
131.364
21
-119.99
0
LINE
8
BLACK
6
CONTINUOUS
10
131.364
20
-119.99
11
131.329
21
-119.795
0
LINE
8
BLACK
6
CONTINUOUS
10
131.329
20
-119.795
11
131.329
21
-118.965
0
LINE
8
BLACK
6
CONTINUOUS
10
131.329
20
-118.965
11
131.364
21
-118.77
0
LINE
8
BLACK
6
CONTINUOUS
10
131.364
20
-118.77
11
131.496
21
-118.541
0
LINE
8
BLACK
6
CONTINUOUS
10
131.496
20
-118.541
11
131.699
21
-118.371
0
LINE
8
BLACK
6
CONTINUOUS
10
131.699
20
-118.371
11
131.948
21
-118.28
0
LINE
8
BLACK
6
CONTINUOUS
10
131.948
20
-118.28
11
132.212
21
-118.28
0
LINE
8
BLACK
6
CONTINUOUS
10
132.212
20
-118.28
11
132.461
21
-118.371
0
LINE
8
BLACK
6
CONTINUOUS
10
135.001
20
-118.371
11
135.204
21
-118.541
0
LINE
8
BLACK
6
CONTINUOUS
10
135.204
20
-118.541
11
135.336
21
-118.77
0
LINE
8
BLACK
6
CONTINUOUS
10
135.336
20
-118.77
11
135.371
21
-118.965
0
LINE
8
BLACK
6
CONTINUOUS
10
135.371
20
-118.965
11
135.371
21
-119.795
0
LINE
8
BLACK
6
CONTINUOUS
10
135.371
20
-119.795
11
135.336
21
-119.99
0
LINE
8
BLACK
6
CONTINUOUS
10
135.336
20
-119.99
11
135.204
21
-120.219
0
LINE
8
BLACK
6
CONTINUOUS
10
135.204
20
-120.219
11
135.001
21
-120.389
0
LINE
8
BLACK
6
CONTINUOUS
10
135.001
20
-120.389
11
134.752
21
-120.48
0
LINE
8
BLACK
6
CONTINUOUS
10
134.752
20
-120.48
11
134.488
21
-120.48
0
LINE
8
BLACK
6
CONTINUOUS
10
134.488
20
-120.48
11
134.239
21
-120.389
0
LINE
8
BLACK
6
CONTINUOUS
10
134.239
20
-120.389
11
134.036
21
-120.219
0
LINE
8
BLACK
6
CONTINUOUS
10
134.036
20
-120.219
11
133.904
21
-119.99
0
LINE
8
BLACK
6
CONTINUOUS
10
133.904
20
-119.99
11
133.869
21
-119.795
0
LINE
8
BLACK
6
CONTINUOUS
10
133.869
20
-119.795
11
133.869
21
-118.965
0
LINE
8
BLACK
6
CONTINUOUS
10
133.869
20
-118.965
11
133.904
21
-118.77
0
LINE
8
BLACK
6
CONTINUOUS
10
133.904
20
-118.77
11
134.036
21
-118.541
0
LINE
8
BLACK
6
CONTINUOUS
10
134.036
20
-118.541
11
134.239
21
-118.371
0
LINE
8
BLACK
6
CONTINUOUS
10
134.239
20
-118.371
11
134.488
21
-118.28
0
LINE
8
BLACK
6
CONTINUOUS
10
134.488
20
-118.28
11
134.752
21
-118.28
0
LINE
8
BLACK
6
CONTINUOUS
10
134.752
20
-118.28
11
135.001
21
-118.371
0
LINE
8
BLACK
6
CONTINUOUS
10
137.541
20
-118.371
11
137.744
21
-118.541
0
LINE
8
BLACK
6
CONTINUOUS
10
137.744
20
-118.541
11
137.876
21
-118.77
0
LINE
8
BLACK
6
CONTINUOUS
10
137.876
20
-118.77
11
137.911
21
-118.965
0
LINE
8
BLACK
6
CONTINUOUS
10
137.911
20
-118.965
11
137.911
21
-119.795
0
LINE
8
BLACK
6
CONTINUOUS
10
137.911
20
-119.795
11
137.876
21
-119.99
0
LINE
8
BLACK
6
CONTINUOUS
10
137.876
20
-119.99
11
137.744
21
-120.219
0
LINE
8
BLACK
6
CONTINUOUS
10
137.744
20
-120.219
11
137.541
21
-120.389
0
LINE
8
BLACK
6
CONTINUOUS
10
137.541
20
-120.389
11
137.292
21
-120.48
0
LINE
8
BLACK
6
CONTINUOUS
10
137.292
20
-120.48
11
137.028
21
-120.48
0
LINE
8
BLACK
6
CONTINUOUS
10
137.028
20
-120.48
11
136.779
21
-120.389
0
LINE
8
BLACK
6
CONTINUOUS
10
136.779
20
-120.389
11
136.576
21
-120.219
0
LINE
8
BLACK
6
CONTINUOUS
10
136.576
20
-120.219
11
136.444
21
-119.99
0
LINE
8
BLACK
6
CONTINUOUS
10
136.444
20
-119.99
11
136.409
21
-119.795
0
LINE
8
BLACK
6
CONTINUOUS
10
136.409
20
-119.795
11
136.409
21
-118.965
0
LINE
8
BLACK
6
CONTINUOUS
10
136.409
20
-118.965
11
136.444
21
-118.77
0
LINE
8
BLACK
6
CONTINUOUS
10
136.444
20
-118.77
11
136.576
21
-118.541
0
LINE
8
BLACK
6
CONTINUOUS
10
136.576
20
-118.541
11
136.779
21
-118.371
0
LINE
8
BLACK
6
CONTINUOUS
10
136.779
20
-118.371
11
137.028
21
-118.28
0
LINE
8
BLACK
6
CONTINUOUS
10
137.028
20
-118.28
11
137.292
21
-118.28
0
LINE
8
BLACK
6
CONTINUOUS
10
137.292
20
-118.28
11
137.541
21
-118.371
0
LINE
8
BLACK
6
CONTINUOUS
10
119.761
20
-118.371
11
119.964
21
-118.541
0
LINE
8
BLACK
6
CONTINUOUS
10
119.964
20
-118.541
11
120.096
21
-118.77
0
LINE
8
BLACK
6
CONTINUOUS
10
120.096
20
-118.77
11
120.131
21
-118.965
0
LINE
8
BLACK
6
CONTINUOUS
10
120.131
20
-118.965
11
120.131
21
-119.795
0
LINE
8
BLACK
6
CONTINUOUS
10
120.131
20
-119.795
11
120.096
21
-119.99
0
LINE
8
BLACK
6
CONTINUOUS
10
120.096
20
-119.99
11
119.964
21
-120.219
0
LINE
8
BLACK
6
CONTINUOUS
10
119.964
20
-120.219
11
119.761
21
-120.389
0
LINE
8
BLACK
6
CONTINUOUS
10
119.761
20
-120.389
11
119.512
21
-120.48
0
LINE
8
BLACK
6
CONTINUOUS
10
119.512
20
-120.48
11
119.248
21
-120.48
0
LINE
8
BLACK
6
CONTINUOUS
10
119.248
20
-120.48
11
118.999
21
-120.389
0
LINE
8
BLACK
6
CONTINUOUS
10
118.999
20
-120.389
11
118.796
21
-120.219
0
LINE
8
BLACK
6
CONTINUOUS
10
118.796
20
-120.219
11
118.664
21
-119.99
0
LINE
8
BLACK
6
CONTINUOUS
10
118.664
20
-119.99
11
118.629
21
-119.795
0
LINE
8
BLACK
6
CONTINUOUS
10
118.629
20
-119.795
11
118.629
21
-118.965
0
LINE
8
BLACK
6
CONTINUOUS
10
118.629
20
-118.965
11
118.664
21
-118.77
0
LINE
8
BLACK
6
CONTINUOUS
10
118.664
20
-118.77
11
118.796
21
-118.541
0
LINE
8
BLACK
6
CONTINUOUS
10
118.796
20
-118.541
11
118.999
21
-118.371
0
LINE
8
BLACK
6
CONTINUOUS
10
118.999
20
-118.371
11
119.248
21
-118.28
0
LINE
8
BLACK
6
CONTINUOUS
10
119.248
20
-118.28
11
119.512
21
-118.28
0
LINE
8
BLACK
6
CONTINUOUS
10
119.512
20
-118.28
11
119.761
21
-118.371
0
LINE
8
BLACK
6
CONTINUOUS
10
140.081
20
-118.371
11
140.284
21
-118.541
0
LINE
8
BLACK
6
CONTINUOUS
10
140.284
20
-118.541
11
140.416
21
-118.77
0
LINE
8
BLACK
6
CONTINUOUS
10
140.416
20
-118.77
11
140.451
21
-118.965
0
LINE
8
BLACK
6
CONTINUOUS
10
140.451
20
-118.965
11
140.451
21
-119.795
0
LINE
8
BLACK
6
CONTINUOUS
10
140.451
20
-119.795
11
140.416
21
-119.99
0
LINE
8
BLACK
6
CONTINUOUS
10
140.416
20
-119.99
11
140.284
21
-120.219
0
LINE
8
BLACK
6
CONTINUOUS
10
140.284
20
-120.219
11
140.081
21
-120.389
0
LINE
8
BLACK
6
CONTINUOUS
10
140.081
20
-120.389
11
139.832
21
-120.48
0
LINE
8
BLACK
6
CONTINUOUS
10
139.832
20
-120.48
11
139.568
21
-120.48
0
LINE
8
BLACK
6
CONTINUOUS
10
139.568
20
-120.48
11
139.319
21
-120.389
0
LINE
8
BLACK
6
CONTINUOUS
10
139.319
20
-120.389
11
139.116
21
-120.219
0
LINE
8
BLACK
6
CONTINUOUS
10
139.116
20
-120.219
11
138.984
21
-119.99
0
LINE
8
BLACK
6
CONTINUOUS
10
138.984
20
-119.99
11
138.949
21
-119.795
0
LINE
8
BLACK
6
CONTINUOUS
10
138.949
20
-119.795
11
138.949
21
-118.965
0
LINE
8
BLACK
6
CONTINUOUS
10
138.949
20
-118.965
11
138.984
21
-118.77
0
LINE
8
BLACK
6
CONTINUOUS
10
138.984
20
-118.77
11
139.116
21
-118.541
0
LINE
8
BLACK
6
CONTINUOUS
10
139.116
20
-118.541
11
139.319
21
-118.371
0
LINE
8
BLACK
6
CONTINUOUS
10
139.319
20
-118.371
11
139.568
21
-118.28
0
LINE
8
BLACK
6
CONTINUOUS
10
139.568
20
-118.28
11
139.832
21
-118.28
0
LINE
8
BLACK
6
CONTINUOUS
10
139.832
20
-118.28
11
140.081
21
-118.371
0
LINE
8
BLACK
6
CONTINUOUS
10
142.621
20
-118.371
11
142.824
21
-118.541
0
LINE
8
BLACK
6
CONTINUOUS
10
142.824
20
-118.541
11
142.956
21
-118.77
0
LINE
8
BLACK
6
CONTINUOUS
10
142.956
20
-118.77
11
142.991
21
-118.965
0
LINE
8
BLACK
6
CONTINUOUS
10
142.991
20
-118.965
11
142.991
21
-119.795
0
LINE
8
BLACK
6
CONTINUOUS
10
142.991
20
-119.795
11
142.956
21
-119.99
0
LINE
8
BLACK
6
CONTINUOUS
10
142.956
20
-119.99
11
142.824
21
-120.219
0
LINE
8
BLACK
6
CONTINUOUS
10
142.824
20
-120.219
11
142.621
21
-120.389
0
LINE
8
BLACK
6
CONTINUOUS
10
142.621
20
-120.389
11
142.372
21
-120.48
0
LINE
8
BLACK
6
CONTINUOUS
10
142.372
20
-120.48
11
142.108
21
-120.48
0
LINE
8
BLACK
6
CONTINUOUS
10
142.108
20
-120.48
11
141.859
21
-120.389
0
LINE
8
BLACK
6
CONTINUOUS
10
141.859
20
-120.389
11
141.656
21
-120.219
0
LINE
8
BLACK
6
CONTINUOUS
10
141.656
20
-120.219
11
141.524
21
-119.99
0
LINE
8
BLACK
6
CONTINUOUS
10
141.524
20
-119.99
11
141.489
21
-119.795
0
LINE
8
BLACK
6
CONTINUOUS
10
141.489
20
-119.795
11
141.489
21
-118.965
0
LINE
8
BLACK
6
CONTINUOUS
10
141.489
20
-118.965
11
141.524
21
-118.77
0
LINE
8
BLACK
6
CONTINUOUS
10
141.524
20
-118.77
11
141.656
21
-118.541
0
LINE
8
BLACK
6
CONTINUOUS
10
141.656
20
-118.541
11
141.859
21
-118.371
0
LINE
8
BLACK
6
CONTINUOUS
10
141.859
20
-118.371
11
142.108
21
-118.28
0
LINE
8
BLACK
6
CONTINUOUS
10
142.108
20
-118.28
11
142.372
21
-118.28
0
LINE
8
BLACK
6
CONTINUOUS
10
142.372
20
-118.28
11
142.621
21
-118.371
0
LINE
8
BLACK
6
CONTINUOUS
10
145.161
20
-118.371
11
145.364
21
-118.541
0
LINE
8
BLACK
6
CONTINUOUS
10
145.364
20
-118.541
11
145.496
21
-118.77
0
LINE
8
BLACK
6
CONTINUOUS
10
145.496
20
-118.77
11
145.531
21
-118.965
0
LINE
8
BLACK
6
CONTINUOUS
10
145.531
20
-118.965
11
145.531
21
-119.795
0
LINE
8
BLACK
6
CONTINUOUS
10
145.531
20
-119.795
11
145.496
21
-119.99
0
LINE
8
BLACK
6
CONTINUOUS
10
145.496
20
-119.99
11
145.364
21
-120.219
0
LINE
8
BLACK
6
CONTINUOUS
10
145.364
20
-120.219
11
145.161
21
-120.389
0
LINE
8
BLACK
6
CONTINUOUS
10
145.161
20
-120.389
11
144.912
21
-120.48
0
LINE
8
BLACK
6
CONTINUOUS
10
144.912
20
-120.48
11
144.648
21
-120.48
0
LINE
8
BLACK
6
CONTINUOUS
10
144.648
20
-120.48
11
144.399
21
-120.389
0
LINE
8
BLACK
6
CONTINUOUS
10
144.399
20
-120.389
11
144.196
21
-120.219
0
LINE
8
BLACK
6
CONTINUOUS
10
144.196
20
-120.219
11
144.064
21
-119.99
0
LINE
8
BLACK
6
CONTINUOUS
10
144.064
20
-119.99
11
144.029
21
-119.795
0
LINE
8
BLACK
6
CONTINUOUS
10
144.029
20
-119.795
11
144.029
21
-118.965
0
LINE
8
BLACK
6
CONTINUOUS
10
144.029
20
-118.965
11
144.064
21
-118.77
0
LINE
8
BLACK
6
CONTINUOUS
10
144.064
20
-118.77
11
144.196
21
-118.541
0
LINE
8
BLACK
6
CONTINUOUS
10
144.196
20
-118.541
11
144.399
21
-118.371
0
LINE
8
BLACK
6
CONTINUOUS
10
144.399
20
-118.371
11
144.648
21
-118.28
0
LINE
8
BLACK
6
CONTINUOUS
10
144.648
20
-118.28
11
144.912
21
-118.28
0
LINE
8
BLACK
6
CONTINUOUS
10
144.912
20
-118.28
11
145.161
21
-118.371
0
LINE
8
BLACK
6
CONTINUOUS
10
147.701
20
-118.371
11
147.904
21
-118.541
0
LINE
8
BLACK
6
CONTINUOUS
10
147.904
20
-118.541
11
148.036
21
-118.77
0
LINE
8
BLACK
6
CONTINUOUS
10
148.036
20
-118.77
11
148.071
21
-118.965
0
LINE
8
BLACK
6
CONTINUOUS
10
148.071
20
-118.965
11
148.071
21
-119.795
0
LINE
8
BLACK
6
CONTINUOUS
10
148.071
20
-119.795
11
148.036
21
-119.99
0
LINE
8
BLACK
6
CONTINUOUS
10
148.036
20
-119.99
11
147.904
21
-120.219
0
LINE
8
BLACK
6
CONTINUOUS
10
147.904
20
-120.219
11
147.701
21
-120.389
0
LINE
8
BLACK
6
CONTINUOUS
10
147.701
20
-120.389
11
147.452
21
-120.48
0
LINE
8
BLACK
6
CONTINUOUS
10
147.452
20
-120.48
11
147.188
21
-120.48
0
LINE
8
BLACK
6
CONTINUOUS
10
147.188
20
-120.48
11
146.939
21
-120.389
0
LINE
8
BLACK
6
CONTINUOUS
10
146.939
20
-120.389
11
146.736
21
-120.219
0
LINE
8
BLACK
6
CONTINUOUS
10
146.736
20
-120.219
11
146.604
21
-119.99
0
LINE
8
BLACK
6
CONTINUOUS
10
146.604
20
-119.99
11
146.569
21
-119.795
0
LINE
8
BLACK
6
CONTINUOUS
10
146.569
20
-119.795
11
146.569
21
-118.965
0
LINE
8
BLACK
6
CONTINUOUS
10
146.569
20
-118.965
11
146.604
21
-118.77
0
LINE
8
BLACK
6
CONTINUOUS
10
146.604
20
-118.77
11
146.736
21
-118.541
0
LINE
8
BLACK
6
CONTINUOUS
10
146.736
20
-118.541
11
146.939
21
-118.371
0
LINE
8
BLACK
6
CONTINUOUS
10
146.939
20
-118.371
11
147.188
21
-118.28
0
LINE
8
BLACK
6
CONTINUOUS
10
147.188
20
-118.28
11
147.452
21
-118.28
0
LINE
8
BLACK
6
CONTINUOUS
10
147.452
20
-118.28
11
147.701
21
-118.371
0
LINE
8
BLACK
6
CONTINUOUS
10
150.241
20
-118.371
11
150.444
21
-118.541
0
LINE
8
BLACK
6
CONTINUOUS
10
150.444
20
-118.541
11
150.576
21
-118.77
0
LINE
8
BLACK
6
CONTINUOUS
10
150.576
20
-118.77
11
150.611
21
-118.965
0
LINE
8
BLACK
6
CONTINUOUS
10
150.611
20
-118.965
11
150.611
21
-119.795
0
LINE
8
BLACK
6
CONTINUOUS
10
150.611
20
-119.795
11
150.576
21
-119.99
0
LINE
8
BLACK
6
CONTINUOUS
10
150.576
20
-119.99
11
150.444
21
-120.219
0
LINE
8
BLACK
6
CONTINUOUS
10
150.444
20
-120.219
11
150.241
21
-120.389
0
LINE
8
BLACK
6
CONTINUOUS
10
150.241
20
-120.389
11
149.992
21
-120.48
0
LINE
8
BLACK
6
CONTINUOUS
10
149.992
20
-120.48
11
149.728
21
-120.48
0
LINE
8
BLACK
6
CONTINUOUS
10
149.728
20
-120.48
11
149.479
21
-120.389
0
LINE
8
BLACK
6
CONTINUOUS
10
149.479
20
-120.389
11
149.276
21
-120.219
0
LINE
8
BLACK
6
CONTINUOUS
10
149.276
20
-120.219
11
149.144
21
-119.99
0
LINE
8
BLACK
6
CONTINUOUS
10
149.144
20
-119.99
11
149.109
21
-119.795
0
LINE
8
BLACK
6
CONTINUOUS
10
149.109
20
-119.795
11
149.109
21
-118.965
0
LINE
8
BLACK
6
CONTINUOUS
10
149.109
20
-118.965
11
149.144
21
-118.77
0
LINE
8
BLACK
6
CONTINUOUS
10
149.144
20
-118.77
11
149.276
21
-118.541
0
LINE
8
BLACK
6
CONTINUOUS
10
149.276
20
-118.541
11
149.479
21
-118.371
0
LINE
8
BLACK
6
CONTINUOUS
10
149.479
20
-118.371
11
149.728
21
-118.28
0
LINE
8
BLACK
6
CONTINUOUS
10
149.728
20
-118.28
11
149.992
21
-118.28
0
LINE
8
BLACK
6
CONTINUOUS
10
149.992
20
-118.28
11
150.241
21
-118.371
0
LINE
8
BLACK
6
CONTINUOUS
10
152.781
20
-118.371
11
152.984
21
-118.541
0
LINE
8
BLACK
6
CONTINUOUS
10
152.984
20
-118.541
11
153.116
21
-118.77
0
LINE
8
BLACK
6
CONTINUOUS
10
153.116
20
-118.77
11
153.151
21
-118.965
0
LINE
8
BLACK
6
CONTINUOUS
10
153.151
20
-118.965
11
153.151
21
-119.795
0
LINE
8
BLACK
6
CONTINUOUS
10
153.151
20
-119.795
11
153.116
21
-119.99
0
LINE
8
BLACK
6
CONTINUOUS
10
153.116
20
-119.99
11
152.984
21
-120.219
0
LINE
8
BLACK
6
CONTINUOUS
10
152.984
20
-120.219
11
152.781
21
-120.389
0
LINE
8
BLACK
6
CONTINUOUS
10
152.781
20
-120.389
11
152.532
21
-120.48
0
LINE
8
BLACK
6
CONTINUOUS
10
152.532
20
-120.48
11
152.268
21
-120.48
0
LINE
8
BLACK
6
CONTINUOUS
10
152.268
20
-120.48
11
152.019
21
-120.389
0
LINE
8
BLACK
6
CONTINUOUS
10
152.019
20
-120.389
11
151.816
21
-120.219
0
LINE
8
BLACK
6
CONTINUOUS
10
151.816
20
-120.219
11
151.684
21
-119.99
0
LINE
8
BLACK
6
CONTINUOUS
10
151.684
20
-119.99
11
151.649
21
-119.795
0
LINE
8
BLACK
6
CONTINUOUS
10
151.649
20
-119.795
11
151.649
21
-118.965
0
LINE
8
BLACK
6
CONTINUOUS
10
151.649
20
-118.965
11
151.684
21
-118.77
0
LINE
8
BLACK
6
CONTINUOUS
10
151.684
20
-118.77
11
151.816
21
-118.541
0
LINE
8
BLACK
6
CONTINUOUS
10
151.816
20
-118.541
11
152.019
21
-118.371
0
LINE
8
BLACK
6
CONTINUOUS
10
152.019
20
-118.371
11
152.268
21
-118.28
0
LINE
8
BLACK
6
CONTINUOUS
10
152.268
20
-118.28
11
152.532
21
-118.28
0
LINE
8
BLACK
6
CONTINUOUS
10
152.532
20
-118.28
11
152.781
21
-118.371
0
LINE
8
BLACK
6
CONTINUOUS
10
155.321
20
-118.371
11
155.524
21
-118.541
0
LINE
8
BLACK
6
CONTINUOUS
10
155.524
20
-118.541
11
155.656
21
-118.77
0
LINE
8
BLACK
6
CONTINUOUS
10
155.656
20
-118.77
11
155.691
21
-118.965
0
LINE
8
BLACK
6
CONTINUOUS
10
155.691
20
-118.965
11
155.691
21
-119.795
0
LINE
8
BLACK
6
CONTINUOUS
10
155.691
20
-119.795
11
155.656
21
-119.99
0
LINE
8
BLACK
6
CONTINUOUS
10
155.656
20
-119.99
11
155.524
21
-120.219
0
LINE
8
BLACK
6
CONTINUOUS
10
155.524
20
-120.219
11
155.321
21
-120.389
0
LINE
8
BLACK
6
CONTINUOUS
10
155.321
20
-120.389
11
155.072
21
-120.48
0
LINE
8
BLACK
6
CONTINUOUS
10
155.072
20
-120.48
11
154.808
21
-120.48
0
LINE
8
BLACK
6
CONTINUOUS
10
154.808
20
-120.48
11
154.559
21
-120.389
0
LINE
8
BLACK
6
CONTINUOUS
10
154.559
20
-120.389
11
154.356
21
-120.219
0
LINE
8
BLACK
6
CONTINUOUS
10
154.356
20
-120.219
11
154.224
21
-119.99
0
LINE
8
BLACK
6
CONTINUOUS
10
154.224
20
-119.99
11
154.189
21
-119.795
0
LINE
8
BLACK
6
CONTINUOUS
10
154.189
20
-119.795
11
154.189
21
-118.965
0
LINE
8
BLACK
6
CONTINUOUS
10
154.189
20
-118.965
11
154.224
21
-118.77
0
LINE
8
BLACK
6
CONTINUOUS
10
154.224
20
-118.77
11
154.356
21
-118.541
0
LINE
8
BLACK
6
CONTINUOUS
10
154.356
20
-118.541
11
154.559
21
-118.371
0
LINE
8
BLACK
6
CONTINUOUS
10
154.559
20
-118.371
11
154.808
21
-118.28
0
LINE
8
BLACK
6
CONTINUOUS
10
154.808
20
-118.28
11
155.072
21
-118.28
0
LINE
8
BLACK
6
CONTINUOUS
10
155.072
20
-118.28
11
155.321
21
-118.371
0
LINE
8
BLACK
6
CONTINUOUS
10
157.861
20
-118.371
11
158.064
21
-118.541
0
LINE
8
BLACK
6
CONTINUOUS
10
158.064
20
-118.541
11
158.196
21
-118.77
0
LINE
8
BLACK
6
CONTINUOUS
10
158.196
20
-118.77
11
158.231
21
-118.965
0
LINE
8
BLACK
6
CONTINUOUS
10
158.231
20
-118.965
11
158.231
21
-119.795
0
LINE
8
BLACK
6
CONTINUOUS
10
158.231
20
-119.795
11
158.196
21
-119.99
0
LINE
8
BLACK
6
CONTINUOUS
10
158.196
20
-119.99
11
158.064
21
-120.219
0
LINE
8
BLACK
6
CONTINUOUS
10
158.064
20
-120.219
11
157.861
21
-120.389
0
LINE
8
BLACK
6
CONTINUOUS
10
157.861
20
-120.389
11
157.612
21
-120.48
0
LINE
8
BLACK
6
CONTINUOUS
10
157.612
20
-120.48
11
157.348
21
-120.48
0
LINE
8
BLACK
6
CONTINUOUS
10
157.348
20
-120.48
11
157.099
21
-120.389
0
LINE
8
BLACK
6
CONTINUOUS
10
157.099
20
-120.389
11
156.896
21
-120.219
0
LINE
8
BLACK
6
CONTINUOUS
10
156.896
20
-120.219
11
156.764
21
-119.99
0
LINE
8
BLACK
6
CONTINUOUS
10
156.764
20
-119.99
11
156.729
21
-119.795
0
LINE
8
BLACK
6
CONTINUOUS
10
156.729
20
-119.795
11
156.729
21
-118.965
0
LINE
8
BLACK
6
CONTINUOUS
10
156.729
20
-118.965
11
156.764
21
-118.77
0
LINE
8
BLACK
6
CONTINUOUS
10
156.764
20
-118.77
11
156.896
21
-118.541
0
LINE
8
BLACK
6
CONTINUOUS
10
156.896
20
-118.541
11
157.099
21
-118.371
0
LINE
8
BLACK
6
CONTINUOUS
10
157.099
20
-118.371
11
157.348
21
-118.28
0
LINE
8
BLACK
6
CONTINUOUS
10
157.348
20
-118.28
11
157.612
21
-118.28
0
LINE
8
BLACK
6
CONTINUOUS
10
157.612
20
-118.28
11
157.861
21
-118.371
0
LINE
8
BLACK
6
CONTINUOUS
10
160.401
20
-118.371
11
160.604
21
-118.541
0
LINE
8
BLACK
6
CONTINUOUS
10
160.604
20
-118.541
11
160.736
21
-118.77
0
LINE
8
BLACK
6
CONTINUOUS
10
160.736
20
-118.77
11
160.771
21
-118.965
0
LINE
8
BLACK
6
CONTINUOUS
10
160.771
20
-118.965
11
160.771
21
-119.795
0
LINE
8
BLACK
6
CONTINUOUS
10
160.771
20
-119.795
11
160.736
21
-119.99
0
LINE
8
BLACK
6
CONTINUOUS
10
160.736
20
-119.99
11
160.604
21
-120.219
0
LINE
8
BLACK
6
CONTINUOUS
10
160.604
20
-120.219
11
160.401
21
-120.389
0
LINE
8
BLACK
6
CONTINUOUS
10
160.401
20
-120.389
11
160.152
21
-120.48
0
LINE
8
BLACK
6
CONTINUOUS
10
160.152
20
-120.48
11
159.888
21
-120.48
0
LINE
8
BLACK
6
CONTINUOUS
10
159.888
20
-120.48
11
159.639
21
-120.389
0
LINE
8
BLACK
6
CONTINUOUS
10
159.639
20
-120.389
11
159.436
21
-120.219
0
LINE
8
BLACK
6
CONTINUOUS
10
159.436
20
-120.219
11
159.304
21
-119.99
0
LINE
8
BLACK
6
CONTINUOUS
10
159.304
20
-119.99
11
159.269
21
-119.795
0
LINE
8
BLACK
6
CONTINUOUS
10
159.269
20
-119.795
11
159.269
21
-118.965
0
LINE
8
BLACK
6
CONTINUOUS
10
159.269
20
-118.965
11
159.304
21
-118.77
0
LINE
8
BLACK
6
CONTINUOUS
10
159.304
20
-118.77
11
159.436
21
-118.541
0
LINE
8
BLACK
6
CONTINUOUS
10
159.436
20
-118.541
11
159.639
21
-118.371
0
LINE
8
BLACK
6
CONTINUOUS
10
159.639
20
-118.371
11
159.888
21
-118.28
0
LINE
8
BLACK
6
CONTINUOUS
10
159.888
20
-118.28
11
160.152
21
-118.28
0
LINE
8
BLACK
6
CONTINUOUS
10
160.152
20
-118.28
11
160.401
21
-118.371
0
LINE
8
BLACK
6
CONTINUOUS
10
162.941
20
-118.371
11
163.144
21
-118.541
0
LINE
8
BLACK
6
CONTINUOUS
10
163.144
20
-118.541
11
163.276
21
-118.77
0
LINE
8
BLACK
6
CONTINUOUS
10
163.276
20
-118.77
11
163.311
21
-118.965
0
LINE
8
BLACK
6
CONTINUOUS
10
163.311
20
-118.965
11
163.311
21
-119.795
0
LINE
8
BLACK
6
CONTINUOUS
10
163.311
20
-119.795
11
163.276
21
-119.99
0
LINE
8
BLACK
6
CONTINUOUS
10
163.276
20
-119.99
11
163.144
21
-120.219
0
LINE
8
BLACK
6
CONTINUOUS
10
163.144
20
-120.219
11
162.941
21
-120.389
0
LINE
8
BLACK
6
CONTINUOUS
10
162.941
20
-120.389
11
162.692
21
-120.48
0
LINE
8
BLACK
6
CONTINUOUS
10
162.692
20
-120.48
11
162.428
21
-120.48
0
LINE
8
BLACK
6
CONTINUOUS
10
162.428
20
-120.48
11
162.179
21
-120.389
0
LINE
8
BLACK
6
CONTINUOUS
10
162.179
20
-120.389
11
161.976
21
-120.219
0
LINE
8
BLACK
6
CONTINUOUS
10
161.976
20
-120.219
11
161.844
21
-119.99
0
LINE
8
BLACK
6
CONTINUOUS
10
161.844
20
-119.99
11
161.809
21
-119.795
0
LINE
8
BLACK
6
CONTINUOUS
10
161.809
20
-119.795
11
161.809
21
-118.965
0
LINE
8
BLACK
6
CONTINUOUS
10
161.809
20
-118.965
11
161.844
21
-118.77
0
LINE
8
BLACK
6
CONTINUOUS
10
161.844
20
-118.77
11
161.976
21
-118.541
0
LINE
8
BLACK
6
CONTINUOUS
10
161.976
20
-118.541
11
162.179
21
-118.371
0
LINE
8
BLACK
6
CONTINUOUS
10
162.179
20
-118.371
11
162.428
21
-118.28
0
LINE
8
BLACK
6
CONTINUOUS
10
162.428
20
-118.28
11
162.692
21
-118.28
0
LINE
8
BLACK
6
CONTINUOUS
10
162.692
20
-118.28
11
162.941
21
-118.371
0
LINE
8
BLACK
6
CONTINUOUS
10
117.221
20
-118.371
11
117.424
21
-118.541
0
LINE
8
BLACK
6
CONTINUOUS
10
117.424
20
-118.541
11
117.556
21
-118.77
0
LINE
8
BLACK
6
CONTINUOUS
10
117.556
20
-118.77
11
117.591
21
-118.965
0
LINE
8
BLACK
6
CONTINUOUS
10
117.591
20
-118.965
11
117.591
21
-119.795
0
LINE
8
BLACK
6
CONTINUOUS
10
117.591
20
-119.795
11
117.556
21
-119.99
0
LINE
8
BLACK
6
CONTINUOUS
10
117.556
20
-119.99
11
117.424
21
-120.219
0
LINE
8
BLACK
6
CONTINUOUS
10
117.424
20
-120.219
11
117.221
21
-120.389
0
LINE
8
BLACK
6
CONTINUOUS
10
117.221
20
-120.389
11
116.972
21
-120.48
0
LINE
8
BLACK
6
CONTINUOUS
10
116.972
20
-120.48
11
116.708
21
-120.48
0
LINE
8
BLACK
6
CONTINUOUS
10
116.708
20
-120.48
11
116.459
21
-120.389
0
LINE
8
BLACK
6
CONTINUOUS
10
116.459
20
-120.389
11
116.256
21
-120.219
0
LINE
8
BLACK
6
CONTINUOUS
10
116.256
20
-120.219
11
116.124
21
-119.99
0
LINE
8
BLACK
6
CONTINUOUS
10
116.124
20
-119.99
11
116.089
21
-119.795
0
LINE
8
BLACK
6
CONTINUOUS
10
116.089
20
-119.795
11
116.089
21
-118.965
0
LINE
8
BLACK
6
CONTINUOUS
10
116.089
20
-118.965
11
116.124
21
-118.77
0
LINE
8
BLACK
6
CONTINUOUS
10
116.124
20
-118.77
11
116.256
21
-118.541
0
LINE
8
BLACK
6
CONTINUOUS
10
116.256
20
-118.541
11
116.459
21
-118.371
0
LINE
8
BLACK
6
CONTINUOUS
10
116.459
20
-118.371
11
116.708
21
-118.28
0
LINE
8
BLACK
6
CONTINUOUS
10
116.708
20
-118.28
11
116.972
21
-118.28
0
LINE
8
BLACK
6
CONTINUOUS
10
116.972
20
-118.28
11
117.221
21
-118.371
0
LINE
8
BLACK
6
CONTINUOUS
10
114.681
20
-118.371
11
114.884
21
-118.541
0
LINE
8
BLACK
6
CONTINUOUS
10
114.884
20
-118.541
11
115.016
21
-118.77
0
LINE
8
BLACK
6
CONTINUOUS
10
115.016
20
-118.77
11
115.051
21
-118.965
0
LINE
8
BLACK
6
CONTINUOUS
10
115.051
20
-118.965
11
115.051
21
-119.795
0
LINE
8
BLACK
6
CONTINUOUS
10
115.051
20
-119.795
11
115.016
21
-119.99
0
LINE
8
BLACK
6
CONTINUOUS
10
115.016
20
-119.99
11
114.884
21
-120.219
0
LINE
8
BLACK
6
CONTINUOUS
10
114.884
20
-120.219
11
114.681
21
-120.389
0
LINE
8
BLACK
6
CONTINUOUS
10
114.681
20
-120.389
11
114.432
21
-120.48
0
LINE
8
BLACK
6
CONTINUOUS
10
114.432
20
-120.48
11
114.168
21
-120.48
0
LINE
8
BLACK
6
CONTINUOUS
10
114.168
20
-120.48
11
113.919
21
-120.389
0
LINE
8
BLACK
6
CONTINUOUS
10
113.919
20
-120.389
11
113.716
21
-120.219
0
LINE
8
BLACK
6
CONTINUOUS
10
113.716
20
-120.219
11
113.584
21
-119.99
0
LINE
8
BLACK
6
CONTINUOUS
10
113.584
20
-119.99
11
113.549
21
-119.795
0
LINE
8
BLACK
6
CONTINUOUS
10
113.549
20
-119.795
11
113.549
21
-118.965
0
LINE
8
BLACK
6
CONTINUOUS
10
113.549
20
-118.965
11
113.584
21
-118.77
0
LINE
8
BLACK
6
CONTINUOUS
10
113.584
20
-118.77
11
113.716
21
-118.541
0
LINE
8
BLACK
6
CONTINUOUS
10
113.716
20
-118.541
11
113.919
21
-118.371
0
LINE
8
BLACK
6
CONTINUOUS
10
113.919
20
-118.371
11
114.168
21
-118.28
0
LINE
8
BLACK
6
CONTINUOUS
10
114.168
20
-118.28
11
114.432
21
-118.28
0
LINE
8
BLACK
6
CONTINUOUS
10
114.432
20
-118.28
11
114.681
21
-118.371
0
LINE
8
BLACK
6
CONTINUOUS
10
167.918
20
-108.417
11
168.162
21
-108.558
0
LINE
8
BLACK
6
CONTINUOUS
10
168.162
20
-108.558
11
168.344
21
-108.774
0
LINE
8
BLACK
6
CONTINUOUS
10
168.344
20
-108.774
11
168.44
21
-109.039
0
LINE
8
BLACK
6
CONTINUOUS
10
168.44
20
-109.039
11
168.44
21
-109.321
0
LINE
8
BLACK
6
CONTINUOUS
10
168.44
20
-109.321
11
168.344
21
-109.586
0
LINE
8
BLACK
6
CONTINUOUS
10
168.344
20
-109.586
11
168.162
21
-109.802
0
LINE
8
BLACK
6
CONTINUOUS
10
168.162
20
-109.802
11
167.918
21
-109.943
0
LINE
8
BLACK
6
CONTINUOUS
10
167.918
20
-109.943
11
167.64
21
-109.992
0
LINE
8
BLACK
6
CONTINUOUS
10
167.64
20
-109.992
11
167.362
21
-109.943
0
LINE
8
BLACK
6
CONTINUOUS
10
167.362
20
-109.943
11
167.118
21
-109.802
0
LINE
8
BLACK
6
CONTINUOUS
10
167.118
20
-109.802
11
166.936
21
-109.586
0
LINE
8
BLACK
6
CONTINUOUS
10
166.936
20
-109.586
11
166.84
21
-109.321
0
LINE
8
BLACK
6
CONTINUOUS
10
166.84
20
-109.321
11
166.84
21
-109.039
0
LINE
8
BLACK
6
CONTINUOUS
10
166.84
20
-109.039
11
166.936
21
-108.774
0
LINE
8
BLACK
6
CONTINUOUS
10
166.936
20
-108.774
11
167.118
21
-108.558
0
LINE
8
BLACK
6
CONTINUOUS
10
167.118
20
-108.558
11
167.362
21
-108.417
0
LINE
8
BLACK
6
CONTINUOUS
10
167.362
20
-108.417
11
167.64
21
-108.368
0
LINE
8
BLACK
6
CONTINUOUS
10
167.64
20
-108.368
11
167.918
21
-108.417
0
LINE
8
BLACK
6
CONTINUOUS
10
178.55
20
-107.93
11
177.05
21
-107.93
0
LINE
8
BLACK
6
CONTINUOUS
10
177.05
20
-107.93
11
177.05
21
-105.43
0
LINE
8
BLACK
6
CONTINUOUS
10
177.05
20
-105.43
11
178.55
21
-105.43
0
LINE
8
BLACK
6
CONTINUOUS
10
178.55
20
-105.43
11
178.55
21
-107.93
0
LINE
8
BLACK
6
CONTINUOUS
10
175.641
20
-105.52
11
175.843
21
-105.69
0
LINE
8
BLACK
6
CONTINUOUS
10
175.843
20
-105.69
11
175.976
21
-105.92
0
LINE
8
BLACK
6
CONTINUOUS
10
175.976
20
-105.92
11
176.01
21
-106.114
0
LINE
8
BLACK
6
CONTINUOUS
10
176.01
20
-106.114
11
176.01
21
-107.246
0
LINE
8
BLACK
6
CONTINUOUS
10
176.01
20
-107.246
11
175.976
21
-107.44
0
LINE
8
BLACK
6
CONTINUOUS
10
175.976
20
-107.44
11
175.843
21
-107.67
0
LINE
8
BLACK
6
CONTINUOUS
10
175.843
20
-107.67
11
175.641
21
-107.84
0
LINE
8
BLACK
6
CONTINUOUS
10
175.641
20
-107.84
11
175.392
21
-107.93
0
LINE
8
BLACK
6
CONTINUOUS
10
175.392
20
-107.93
11
175.128
21
-107.93
0
LINE
8
BLACK
6
CONTINUOUS
10
175.128
20
-107.93
11
174.879
21
-107.84
0
LINE
8
BLACK
6
CONTINUOUS
10
174.879
20
-107.84
11
174.677
21
-107.67
0
LINE
8
BLACK
6
CONTINUOUS
10
174.677
20
-107.67
11
174.544
21
-107.44
0
LINE
8
BLACK
6
CONTINUOUS
10
174.544
20
-107.44
11
174.51
21
-107.246
0
LINE
8
BLACK
6
CONTINUOUS
10
174.51
20
-107.246
11
174.51
21
-106.114
0
LINE
8
BLACK
6
CONTINUOUS
10
174.51
20
-106.114
11
174.544
21
-105.92
0
LINE
8
BLACK
6
CONTINUOUS
10
174.544
20
-105.92
11
174.677
21
-105.69
0
LINE
8
BLACK
6
CONTINUOUS
10
174.677
20
-105.69
11
174.879
21
-105.52
0
LINE
8
BLACK
6
CONTINUOUS
10
174.879
20
-105.52
11
175.128
21
-105.43
0
LINE
8
BLACK
6
CONTINUOUS
10
175.128
20
-105.43
11
175.392
21
-105.43
0
LINE
8
BLACK
6
CONTINUOUS
10
175.392
20
-105.43
11
175.641
21
-105.52
0
LINE
8
BLACK
6
CONTINUOUS
10
173.101
20
-105.52
11
173.303
21
-105.69
0
LINE
8
BLACK
6
CONTINUOUS
10
173.303
20
-105.69
11
173.436
21
-105.92
0
LINE
8
BLACK
6
CONTINUOUS
10
173.436
20
-105.92
11
173.47
21
-106.114
0
LINE
8
BLACK
6
CONTINUOUS
10
173.47
20
-106.114
11
173.47
21
-107.246
0
LINE
8
BLACK
6
CONTINUOUS
10
173.47
20
-107.246
11
173.436
21
-107.44
0
LINE
8
BLACK
6
CONTINUOUS
10
173.436
20
-107.44
11
173.303
21
-107.67
0
LINE
8
BLACK
6
CONTINUOUS
10
173.303
20
-107.67
11
173.101
21
-107.84
0
LINE
8
BLACK
6
CONTINUOUS
10
173.101
20
-107.84
11
172.852
21
-107.93
0
LINE
8
BLACK
6
CONTINUOUS
10
172.852
20
-107.93
11
172.588
21
-107.93
0
LINE
8
BLACK
6
CONTINUOUS
10
172.588
20
-107.93
11
172.339
21
-107.84
0
LINE
8
BLACK
6
CONTINUOUS
10
172.339
20
-107.84
11
172.137
21
-107.67
0
LINE
8
BLACK
6
CONTINUOUS
10
172.137
20
-107.67
11
172.004
21
-107.44
0
LINE
8
BLACK
6
CONTINUOUS
10
172.004
20
-107.44
11
171.97
21
-107.246
0
LINE
8
BLACK
6
CONTINUOUS
10
171.97
20
-107.246
11
171.97
21
-106.114
0
LINE
8
BLACK
6
CONTINUOUS
10
171.97
20
-106.114
11
172.004
21
-105.92
0
LINE
8
BLACK
6
CONTINUOUS
10
172.004
20
-105.92
11
172.137
21
-105.69
0
LINE
8
BLACK
6
CONTINUOUS
10
172.137
20
-105.69
11
172.339
21
-105.52
0
LINE
8
BLACK
6
CONTINUOUS
10
172.339
20
-105.52
11
172.588
21
-105.43
0
LINE
8
BLACK
6
CONTINUOUS
10
172.588
20
-105.43
11
172.852
21
-105.43
0
LINE
8
BLACK
6
CONTINUOUS
10
172.852
20
-105.43
11
173.101
21
-105.52
0
LINE
8
BLACK
6
CONTINUOUS
10
167.918
20
-105.917
11
168.162
21
-106.058
0
LINE
8
BLACK
6
CONTINUOUS
10
168.162
20
-106.058
11
168.344
21
-106.274
0
LINE
8
BLACK
6
CONTINUOUS
10
168.344
20
-106.274
11
168.44
21
-106.539
0
LINE
8
BLACK
6
CONTINUOUS
10
168.44
20
-106.539
11
168.44
21
-106.821
0
LINE
8
BLACK
6
CONTINUOUS
10
168.44
20
-106.821
11
168.344
21
-107.086
0
LINE
8
BLACK
6
CONTINUOUS
10
168.344
20
-107.086
11
168.162
21
-107.302
0
LINE
8
BLACK
6
CONTINUOUS
10
168.162
20
-107.302
11
167.918
21
-107.443
0
LINE
8
BLACK
6
CONTINUOUS
10
167.918
20
-107.443
11
167.64
21
-107.492
0
LINE
8
BLACK
6
CONTINUOUS
10
167.64
20
-107.492
11
167.362
21
-107.443
0
LINE
8
BLACK
6
CONTINUOUS
10
167.362
20
-107.443
11
167.118
21
-107.302
0
LINE
8
BLACK
6
CONTINUOUS
10
167.118
20
-107.302
11
166.936
21
-107.086
0
LINE
8
BLACK
6
CONTINUOUS
10
166.936
20
-107.086
11
166.84
21
-106.821
0
LINE
8
BLACK
6
CONTINUOUS
10
166.84
20
-106.821
11
166.84
21
-106.539
0
LINE
8
BLACK
6
CONTINUOUS
10
166.84
20
-106.539
11
166.936
21
-106.274
0
LINE
8
BLACK
6
CONTINUOUS
10
166.936
20
-106.274
11
167.118
21
-106.058
0
LINE
8
BLACK
6
CONTINUOUS
10
167.118
20
-106.058
11
167.362
21
-105.917
0
LINE
8
BLACK
6
CONTINUOUS
10
167.362
20
-105.917
11
167.64
21
-105.868
0
LINE
8
BLACK
6
CONTINUOUS
10
167.64
20
-105.868
11
167.918
21
-105.917
0
LINE
8
BLACK
6
CONTINUOUS
10
186.288
20
-100.485
11
187.052
21
-100.925
0
LINE
8
BLACK
6
CONTINUOUS
10
187.052
20
-100.925
11
187.618
21
-101.601
0
LINE
8
BLACK
6
CONTINUOUS
10
187.618
20
-101.601
11
187.92
21
-102.429
0
LINE
8
BLACK
6
CONTINUOUS
10
187.92
20
-102.429
11
187.92
21
-103.311
0
LINE
8
BLACK
6
CONTINUOUS
10
187.92
20
-103.311
11
187.618
21
-104.139
0
LINE
8
BLACK
6
CONTINUOUS
10
187.618
20
-104.139
11
187.052
21
-104.815
0
LINE
8
BLACK
6
CONTINUOUS
10
187.052
20
-104.815
11
186.288
21
-105.255
0
LINE
8
BLACK
6
CONTINUOUS
10
186.288
20
-105.255
11
185.42
21
-105.409
0
LINE
8
BLACK
6
CONTINUOUS
10
185.42
20
-105.409
11
184.552
21
-105.255
0
LINE
8
BLACK
6
CONTINUOUS
10
184.552
20
-105.255
11
183.788
21
-104.815
0
LINE
8
BLACK
6
CONTINUOUS
10
183.788
20
-104.815
11
183.222
21
-104.139
0
LINE
8
BLACK
6
CONTINUOUS
10
183.222
20
-104.139
11
182.92
21
-103.311
0
LINE
8
BLACK
6
CONTINUOUS
10
182.92
20
-103.311
11
182.92
21
-102.429
0
LINE
8
BLACK
6
CONTINUOUS
10
182.92
20
-102.429
11
183.222
21
-101.601
0
LINE
8
BLACK
6
CONTINUOUS
10
183.222
20
-101.601
11
183.788
21
-100.925
0
LINE
8
BLACK
6
CONTINUOUS
10
183.788
20
-100.925
11
184.552
21
-100.485
0
LINE
8
BLACK
6
CONTINUOUS
10
184.552
20
-100.485
11
185.42
21
-100.331
0
LINE
8
BLACK
6
CONTINUOUS
10
185.42
20
-100.331
11
186.288
21
-100.485
0
LINE
8
BLACK
6
CONTINUOUS
10
110.088
20
-100.485
11
110.852
21
-100.925
0
LINE
8
BLACK
6
CONTINUOUS
10
110.852
20
-100.925
11
111.418
21
-101.601
0
LINE
8
BLACK
6
CONTINUOUS
10
111.418
20
-101.601
11
111.72
21
-102.429
0
LINE
8
BLACK
6
CONTINUOUS
10
111.72
20
-102.429
11
111.72
21
-103.311
0
LINE
8
BLACK
6
CONTINUOUS
10
111.72
20
-103.311
11
111.418
21
-104.139
0
LINE
8
BLACK
6
CONTINUOUS
10
111.418
20
-104.139
11
110.852
21
-104.815
0
LINE
8
BLACK
6
CONTINUOUS
10
110.852
20
-104.815
11
110.088
21
-105.255
0
LINE
8
BLACK
6
CONTINUOUS
10
110.088
20
-105.255
11
109.22
21
-105.409
0
LINE
8
BLACK
6
CONTINUOUS
10
109.22
20
-105.409
11
108.352
21
-105.255
0
LINE
8
BLACK
6
CONTINUOUS
10
108.352
20
-105.255
11
107.588
21
-104.815
0
LINE
8
BLACK
6
CONTINUOUS
10
107.588
20
-104.815
11
107.022
21
-104.139
0
LINE
8
BLACK
6
CONTINUOUS
10
107.022
20
-104.139
11
106.72
21
-103.311
0
LINE
8
BLACK
6
CONTINUOUS
10
106.72
20
-103.311
11
106.72
21
-102.429
0
LINE
8
BLACK
6
CONTINUOUS
10
106.72
20
-102.429
11
107.022
21
-101.601
0
LINE
8
BLACK
6
CONTINUOUS
10
107.022
20
-101.601
11
107.588
21
-100.925
0
LINE
8
BLACK
6
CONTINUOUS
10
107.588
20
-100.925
11
108.352
21
-100.485
0
LINE
8
BLACK
6
CONTINUOUS
10
108.352
20
-100.485
11
109.22
21
-100.331
0
LINE
8
BLACK
6
CONTINUOUS
10
109.22
20
-100.331
11
110.088
21
-100.485
0
LINE
8
BLACK
6
CONTINUOUS
10
150.241
20
-103.131
11
150.444
21
-103.301
0
LINE
8
BLACK
6
CONTINUOUS
10
150.444
20
-103.301
11
150.576
21
-103.53
0
LINE
8
BLACK
6
CONTINUOUS
10
150.576
20
-103.53
11
150.611
21
-103.725
0
LINE
8
BLACK
6
CONTINUOUS
10
150.611
20
-103.725
11
150.611
21
-104.555
0
LINE
8
BLACK
6
CONTINUOUS
10
150.611
20
-104.555
11
150.576
21
-104.75
0
LINE
8
BLACK
6
CONTINUOUS
10
150.576
20
-104.75
11
150.444
21
-104.979
0
LINE
8
BLACK
6
CONTINUOUS
10
150.444
20
-104.979
11
150.241
21
-105.149
0
LINE
8
BLACK
6
CONTINUOUS
10
150.241
20
-105.149
11
149.992
21
-105.24
0
LINE
8
BLACK
6
CONTINUOUS
10
149.992
20
-105.24
11
149.728
21
-105.24
0
LINE
8
BLACK
6
CONTINUOUS
10
149.728
20
-105.24
11
149.479
21
-105.149
0
LINE
8
BLACK
6
CONTINUOUS
10
149.479
20
-105.149
11
149.276
21
-104.979
0
LINE
8
BLACK
6
CONTINUOUS
10
149.276
20
-104.979
11
149.144
21
-104.75
0
LINE
8
BLACK
6
CONTINUOUS
10
149.144
20
-104.75
11
149.109
21
-104.555
0
LINE
8
BLACK
6
CONTINUOUS
10
149.109
20
-104.555
11
149.109
21
-103.725
0
LINE
8
BLACK
6
CONTINUOUS
10
149.109
20
-103.725
11
149.144
21
-103.53
0
LINE
8
BLACK
6
CONTINUOUS
10
149.144
20
-103.53
11
149.276
21
-103.301
0
LINE
8
BLACK
6
CONTINUOUS
10
149.276
20
-103.301
11
149.479
21
-103.131
0
LINE
8
BLACK
6
CONTINUOUS
10
149.479
20
-103.131
11
149.728
21
-103.04
0
LINE
8
BLACK
6
CONTINUOUS
10
149.728
20
-103.04
11
149.992
21
-103.04
0
LINE
8
BLACK
6
CONTINUOUS
10
149.992
20
-103.04
11
150.241
21
-103.131
0
LINE
8
BLACK
6
CONTINUOUS
10
152.781
20
-103.131
11
152.984
21
-103.301
0
LINE
8
BLACK
6
CONTINUOUS
10
152.984
20
-103.301
11
153.116
21
-103.53
0
LINE
8
BLACK
6
CONTINUOUS
10
153.116
20
-103.53
11
153.151
21
-103.725
0
LINE
8
BLACK
6
CONTINUOUS
10
153.151
20
-103.725
11
153.151
21
-104.555
0
LINE
8
BLACK
6
CONTINUOUS
10
153.151
20
-104.555
11
153.116
21
-104.75
0
LINE
8
BLACK
6
CONTINUOUS
10
153.116
20
-104.75
11
152.984
21
-104.979
0
LINE
8
BLACK
6
CONTINUOUS
10
152.984
20
-104.979
11
152.781
21
-105.149
0
LINE
8
BLACK
6
CONTINUOUS
10
152.781
20
-105.149
11
152.532
21
-105.24
0
LINE
8
BLACK
6
CONTINUOUS
10
152.532
20
-105.24
11
152.268
21
-105.24
0
LINE
8
BLACK
6
CONTINUOUS
10
152.268
20
-105.24
11
152.019
21
-105.149
0
LINE
8
BLACK
6
CONTINUOUS
10
152.019
20
-105.149
11
151.816
21
-104.979
0
LINE
8
BLACK
6
CONTINUOUS
10
151.816
20
-104.979
11
151.684
21
-104.75
0
LINE
8
BLACK
6
CONTINUOUS
10
151.684
20
-104.75
11
151.649
21
-104.555
0
LINE
8
BLACK
6
CONTINUOUS
10
151.649
20
-104.555
11
151.649
21
-103.725
0
LINE
8
BLACK
6
CONTINUOUS
10
151.649
20
-103.725
11
151.684
21
-103.53
0
LINE
8
BLACK
6
CONTINUOUS
10
151.684
20
-103.53
11
151.816
21
-103.301
0
LINE
8
BLACK
6
CONTINUOUS
10
151.816
20
-103.301
11
152.019
21
-103.131
0
LINE
8
BLACK
6
CONTINUOUS
10
152.019
20
-103.131
11
152.268
21
-103.04
0
LINE
8
BLACK
6
CONTINUOUS
10
152.268
20
-103.04
11
152.532
21
-103.04
0
LINE
8
BLACK
6
CONTINUOUS
10
152.532
20
-103.04
11
152.781
21
-103.131
0
LINE
8
BLACK
6
CONTINUOUS
10
155.321
20
-103.131
11
155.524
21
-103.301
0
LINE
8
BLACK
6
CONTINUOUS
10
155.524
20
-103.301
11
155.656
21
-103.53
0
LINE
8
BLACK
6
CONTINUOUS
10
155.656
20
-103.53
11
155.691
21
-103.725
0
LINE
8
BLACK
6
CONTINUOUS
10
155.691
20
-103.725
11
155.691
21
-104.555
0
LINE
8
BLACK
6
CONTINUOUS
10
155.691
20
-104.555
11
155.656
21
-104.75
0
LINE
8
BLACK
6
CONTINUOUS
10
155.656
20
-104.75
11
155.524
21
-104.979
0
LINE
8
BLACK
6
CONTINUOUS
10
155.524
20
-104.979
11
155.321
21
-105.149
0
LINE
8
BLACK
6
CONTINUOUS
10
155.321
20
-105.149
11
155.072
21
-105.24
0
LINE
8
BLACK
6
CONTINUOUS
10
155.072
20
-105.24
11
154.808
21
-105.24
0
LINE
8
BLACK
6
CONTINUOUS
10
154.808
20
-105.24
11
154.559
21
-105.149
0
LINE
8
BLACK
6
CONTINUOUS
10
154.559
20
-105.149
11
154.356
21
-104.979
0
LINE
8
BLACK
6
CONTINUOUS
10
154.356
20
-104.979
11
154.224
21
-104.75
0
LINE
8
BLACK
6
CONTINUOUS
10
154.224
20
-104.75
11
154.189
21
-104.555
0
LINE
8
BLACK
6
CONTINUOUS
10
154.189
20
-104.555
11
154.189
21
-103.725
0
LINE
8
BLACK
6
CONTINUOUS
10
154.189
20
-103.725
11
154.224
21
-103.53
0
LINE
8
BLACK
6
CONTINUOUS
10
154.224
20
-103.53
11
154.356
21
-103.301
0
LINE
8
BLACK
6
CONTINUOUS
10
154.356
20
-103.301
11
154.559
21
-103.131
0
LINE
8
BLACK
6
CONTINUOUS
10
154.559
20
-103.131
11
154.808
21
-103.04
0
LINE
8
BLACK
6
CONTINUOUS
10
154.808
20
-103.04
11
155.072
21
-103.04
0
LINE
8
BLACK
6
CONTINUOUS
10
155.072
20
-103.04
11
155.321
21
-103.131
0
LINE
8
BLACK
6
CONTINUOUS
10
157.861
20
-103.131
11
158.064
21
-103.301
0
LINE
8
BLACK
6
CONTINUOUS
10
158.064
20
-103.301
11
158.196
21
-103.53
0
LINE
8
BLACK
6
CONTINUOUS
10
158.196
20
-103.53
11
158.231
21
-103.725
0
LINE
8
BLACK
6
CONTINUOUS
10
158.231
20
-103.725
11
158.231
21
-104.555
0
LINE
8
BLACK
6
CONTINUOUS
10
158.231
20
-104.555
11
158.196
21
-104.75
0
LINE
8
BLACK
6
CONTINUOUS
10
158.196
20
-104.75
11
158.064
21
-104.979
0
LINE
8
BLACK
6
CONTINUOUS
10
158.064
20
-104.979
11
157.861
21
-105.149
0
LINE
8
BLACK
6
CONTINUOUS
10
157.861
20
-105.149
11
157.612
21
-105.24
0
LINE
8
BLACK
6
CONTINUOUS
10
157.612
20
-105.24
11
157.348
21
-105.24
0
LINE
8
BLACK
6
CONTINUOUS
10
157.348
20
-105.24
11
157.099
21
-105.149
0
LINE
8
BLACK
6
CONTINUOUS
10
157.099
20
-105.149
11
156.896
21
-104.979
0
LINE
8
BLACK
6
CONTINUOUS
10
156.896
20
-104.979
11
156.764
21
-104.75
0
LINE
8
BLACK
6
CONTINUOUS
10
156.764
20
-104.75
11
156.729
21
-104.555
0
LINE
8
BLACK
6
CONTINUOUS
10
156.729
20
-104.555
11
156.729
21
-103.725
0
LINE
8
BLACK
6
CONTINUOUS
10
156.729
20
-103.725
11
156.764
21
-103.53
0
LINE
8
BLACK
6
CONTINUOUS
10
156.764
20
-103.53
11
156.896
21
-103.301
0
LINE
8
BLACK
6
CONTINUOUS
10
156.896
20
-103.301
11
157.099
21
-103.131
0
LINE
8
BLACK
6
CONTINUOUS
10
157.099
20
-103.131
11
157.348
21
-103.04
0
LINE
8
BLACK
6
CONTINUOUS
10
157.348
20
-103.04
11
157.612
21
-103.04
0
LINE
8
BLACK
6
CONTINUOUS
10
157.612
20
-103.04
11
157.861
21
-103.131
0
LINE
8
BLACK
6
CONTINUOUS
10
114.681
20
-103.131
11
114.884
21
-103.301
0
LINE
8
BLACK
6
CONTINUOUS
10
114.884
20
-103.301
11
115.016
21
-103.53
0
LINE
8
BLACK
6
CONTINUOUS
10
115.016
20
-103.53
11
115.051
21
-103.725
0
LINE
8
BLACK
6
CONTINUOUS
10
115.051
20
-103.725
11
115.051
21
-104.555
0
LINE
8
BLACK
6
CONTINUOUS
10
115.051
20
-104.555
11
115.016
21
-104.75
0
LINE
8
BLACK
6
CONTINUOUS
10
115.016
20
-104.75
11
114.884
21
-104.979
0
LINE
8
BLACK
6
CONTINUOUS
10
114.884
20
-104.979
11
114.681
21
-105.149
0
LINE
8
BLACK
6
CONTINUOUS
10
114.681
20
-105.149
11
114.432
21
-105.24
0
LINE
8
BLACK
6
CONTINUOUS
10
114.432
20
-105.24
11
114.168
21
-105.24
0
LINE
8
BLACK
6
CONTINUOUS
10
114.168
20
-105.24
11
113.919
21
-105.149
0
LINE
8
BLACK
6
CONTINUOUS
10
113.919
20
-105.149
11
113.716
21
-104.979
0
LINE
8
BLACK
6
CONTINUOUS
10
113.716
20
-104.979
11
113.584
21
-104.75
0
LINE
8
BLACK
6
CONTINUOUS
10
113.584
20
-104.75
11
113.549
21
-104.555
0
LINE
8
BLACK
6
CONTINUOUS
10
113.549
20
-104.555
11
113.549
21
-103.725
0
LINE
8
BLACK
6
CONTINUOUS
10
113.549
20
-103.725
11
113.584
21
-103.53
0
LINE
8
BLACK
6
CONTINUOUS
10
113.584
20
-103.53
11
113.716
21
-103.301
0
LINE
8
BLACK
6
CONTINUOUS
10
113.716
20
-103.301
11
113.919
21
-103.131
0
LINE
8
BLACK
6
CONTINUOUS
10
113.919
20
-103.131
11
114.168
21
-103.04
0
LINE
8
BLACK
6
CONTINUOUS
10
114.168
20
-103.04
11
114.432
21
-103.04
0
LINE
8
BLACK
6
CONTINUOUS
10
114.432
20
-103.04
11
114.681
21
-103.131
0
LINE
8
BLACK
6
CONTINUOUS
10
117.221
20
-103.131
11
117.424
21
-103.301
0
LINE
8
BLACK
6
CONTINUOUS
10
117.424
20
-103.301
11
117.556
21
-103.53
0
LINE
8
BLACK
6
CONTINUOUS
10
117.556
20
-103.53
11
117.591
21
-103.725
0
LINE
8
BLACK
6
CONTINUOUS
10
117.591
20
-103.725
11
117.591
21
-104.555
0
LINE
8
BLACK
6
CONTINUOUS
10
117.591
20
-104.555
11
117.556
21
-104.75
0
LINE
8
BLACK
6
CONTINUOUS
10
117.556
20
-104.75
11
117.424
21
-104.979
0
LINE
8
BLACK
6
CONTINUOUS
10
117.424
20
-104.979
11
117.221
21
-105.149
0
LINE
8
BLACK
6
CONTINUOUS
10
117.221
20
-105.149
11
116.972
21
-105.24
0
LINE
8
BLACK
6
CONTINUOUS
10
116.972
20
-105.24
11
116.708
21
-105.24
0
LINE
8
BLACK
6
CONTINUOUS
10
116.708
20
-105.24
11
116.459
21
-105.149
0
LINE
8
BLACK
6
CONTINUOUS
10
116.459
20
-105.149
11
116.256
21
-104.979
0
LINE
8
BLACK
6
CONTINUOUS
10
116.256
20
-104.979
11
116.124
21
-104.75
0
LINE
8
BLACK
6
CONTINUOUS
10
116.124
20
-104.75
11
116.089
21
-104.555
0
LINE
8
BLACK
6
CONTINUOUS
10
116.089
20
-104.555
11
116.089
21
-103.725
0
LINE
8
BLACK
6
CONTINUOUS
10
116.089
20
-103.725
11
116.124
21
-103.53
0
LINE
8
BLACK
6
CONTINUOUS
10
116.124
20
-103.53
11
116.256
21
-103.301
0
LINE
8
BLACK
6
CONTINUOUS
10
116.256
20
-103.301
11
116.459
21
-103.131
0
LINE
8
BLACK
6
CONTINUOUS
10
116.459
20
-103.131
11
116.708
21
-103.04
0
LINE
8
BLACK
6
CONTINUOUS
10
116.708
20
-103.04
11
116.972
21
-103.04
0
LINE
8
BLACK
6
CONTINUOUS
10
116.972
20
-103.04
11
117.221
21
-103.131
0
LINE
8
BLACK
6
CONTINUOUS
10
119.761
20
-103.131
11
119.964
21
-103.301
0
LINE
8
BLACK
6
CONTINUOUS
10
119.964
20
-103.301
11
120.096
21
-103.53
0
LINE
8
BLACK
6
CONTINUOUS
10
120.096
20
-103.53
11
120.131
21
-103.725
0
LINE
8
BLACK
6
CONTINUOUS
10
120.131
20
-103.725
11
120.131
21
-104.555
0
LINE
8
BLACK
6
CONTINUOUS
10
120.131
20
-104.555
11
120.096
21
-104.75
0
LINE
8
BLACK
6
CONTINUOUS
10
120.096
20
-104.75
11
119.964
21
-104.979
0
LINE
8
BLACK
6
CONTINUOUS
10
119.964
20
-104.979
11
119.761
21
-105.149
0
LINE
8
BLACK
6
CONTINUOUS
10
119.761
20
-105.149
11
119.512
21
-105.24
0
LINE
8
BLACK
6
CONTINUOUS
10
119.512
20
-105.24
11
119.248
21
-105.24
0
LINE
8
BLACK
6
CONTINUOUS
10
119.248
20
-105.24
11
118.999
21
-105.149
0
LINE
8
BLACK
6
CONTINUOUS
10
118.999
20
-105.149
11
118.796
21
-104.979
0
LINE
8
BLACK
6
CONTINUOUS
10
118.796
20
-104.979
11
118.664
21
-104.75
0
LINE
8
BLACK
6
CONTINUOUS
10
118.664
20
-104.75
11
118.629
21
-104.555
0
LINE
8
BLACK
6
CONTINUOUS
10
118.629
20
-104.555
11
118.629
21
-103.725
0
LINE
8
BLACK
6
CONTINUOUS
10
118.629
20
-103.725
11
118.664
21
-103.53
0
LINE
8
BLACK
6
CONTINUOUS
10
118.664
20
-103.53
11
118.796
21
-103.301
0
LINE
8
BLACK
6
CONTINUOUS
10
118.796
20
-103.301
11
118.999
21
-103.131
0
LINE
8
BLACK
6
CONTINUOUS
10
118.999
20
-103.131
11
119.248
21
-103.04
0
LINE
8
BLACK
6
CONTINUOUS
10
119.248
20
-103.04
11
119.512
21
-103.04
0
LINE
8
BLACK
6
CONTINUOUS
10
119.512
20
-103.04
11
119.761
21
-103.131
0
LINE
8
BLACK
6
CONTINUOUS
10
122.301
20
-103.131
11
122.504
21
-103.301
0
LINE
8
BLACK
6
CONTINUOUS
10
122.504
20
-103.301
11
122.636
21
-103.53
0
LINE
8
BLACK
6
CONTINUOUS
10
122.636
20
-103.53
11
122.671
21
-103.725
0
LINE
8
BLACK
6
CONTINUOUS
10
122.671
20
-103.725
11
122.671
21
-104.555
0
LINE
8
BLACK
6
CONTINUOUS
10
122.671
20
-104.555
11
122.636
21
-104.75
0
LINE
8
BLACK
6
CONTINUOUS
10
122.636
20
-104.75
11
122.504
21
-104.979
0
LINE
8
BLACK
6
CONTINUOUS
10
122.504
20
-104.979
11
122.301
21
-105.149
0
LINE
8
BLACK
6
CONTINUOUS
10
122.301
20
-105.149
11
122.052
21
-105.24
0
LINE
8
BLACK
6
CONTINUOUS
10
122.052
20
-105.24
11
121.788
21
-105.24
0
LINE
8
BLACK
6
CONTINUOUS
10
121.788
20
-105.24
11
121.539
21
-105.149
0
LINE
8
BLACK
6
CONTINUOUS
10
121.539
20
-105.149
11
121.336
21
-104.979
0
LINE
8
BLACK
6
CONTINUOUS
10
121.336
20
-104.979
11
121.204
21
-104.75
0
LINE
8
BLACK
6
CONTINUOUS
10
121.204
20
-104.75
11
121.169
21
-104.555
0
LINE
8
BLACK
6
CONTINUOUS
10
121.169
20
-104.555
11
121.169
21
-103.725
0
LINE
8
BLACK
6
CONTINUOUS
10
121.169
20
-103.725
11
121.204
21
-103.53
0
LINE
8
BLACK
6
CONTINUOUS
10
121.204
20
-103.53
11
121.336
21
-103.301
0
LINE
8
BLACK
6
CONTINUOUS
10
121.336
20
-103.301
11
121.539
21
-103.131
0
LINE
8
BLACK
6
CONTINUOUS
10
121.539
20
-103.131
11
121.788
21
-103.04
0
LINE
8
BLACK
6
CONTINUOUS
10
121.788
20
-103.04
11
122.052
21
-103.04
0
LINE
8
BLACK
6
CONTINUOUS
10
122.052
20
-103.04
11
122.301
21
-103.131
0
LINE
8
BLACK
6
CONTINUOUS
10
124.841
20
-103.131
11
125.044
21
-103.301
0
LINE
8
BLACK
6
CONTINUOUS
10
125.044
20
-103.301
11
125.176
21
-103.53
0
LINE
8
BLACK
6
CONTINUOUS
10
125.176
20
-103.53
11
125.211
21
-103.725
0
LINE
8
BLACK
6
CONTINUOUS
10
125.211
20
-103.725
11
125.211
21
-104.555
0
LINE
8
BLACK
6
CONTINUOUS
10
125.211
20
-104.555
11
125.176
21
-104.75
0
LINE
8
BLACK
6
CONTINUOUS
10
125.176
20
-104.75
11
125.044
21
-104.979
0
LINE
8
BLACK
6
CONTINUOUS
10
125.044
20
-104.979
11
124.841
21
-105.149
0
LINE
8
BLACK
6
CONTINUOUS
10
124.841
20
-105.149
11
124.592
21
-105.24
0
LINE
8
BLACK
6
CONTINUOUS
10
124.592
20
-105.24
11
124.328
21
-105.24
0
LINE
8
BLACK
6
CONTINUOUS
10
124.328
20
-105.24
11
124.079
21
-105.149
0
LINE
8
BLACK
6
CONTINUOUS
10
124.079
20
-105.149
11
123.876
21
-104.979
0
LINE
8
BLACK
6
CONTINUOUS
10
123.876
20
-104.979
11
123.744
21
-104.75
0
LINE
8
BLACK
6
CONTINUOUS
10
123.744
20
-104.75
11
123.709
21
-104.555
0
LINE
8
BLACK
6
CONTINUOUS
10
123.709
20
-104.555
11
123.709
21
-103.725
0
LINE
8
BLACK
6
CONTINUOUS
10
123.709
20
-103.725
11
123.744
21
-103.53
0
LINE
8
BLACK
6
CONTINUOUS
10
123.744
20
-103.53
11
123.876
21
-103.301
0
LINE
8
BLACK
6
CONTINUOUS
10
123.876
20
-103.301
11
124.079
21
-103.131
0
LINE
8
BLACK
6
CONTINUOUS
10
124.079
20
-103.131
11
124.328
21
-103.04
0
LINE
8
BLACK
6
CONTINUOUS
10
124.328
20
-103.04
11
124.592
21
-103.04
0
LINE
8
BLACK
6
CONTINUOUS
10
124.592
20
-103.04
11
124.841
21
-103.131
0
LINE
8
BLACK
6
CONTINUOUS
10
127.381
20
-103.131
11
127.584
21
-103.301
0
LINE
8
BLACK
6
CONTINUOUS
10
127.584
20
-103.301
11
127.716
21
-103.53
0
LINE
8
BLACK
6
CONTINUOUS
10
127.716
20
-103.53
11
127.751
21
-103.725
0
LINE
8
BLACK
6
CONTINUOUS
10
127.751
20
-103.725
11
127.751
21
-104.555
0
LINE
8
BLACK
6
CONTINUOUS
10
127.751
20
-104.555
11
127.716
21
-104.75
0
LINE
8
BLACK
6
CONTINUOUS
10
127.716
20
-104.75
11
127.584
21
-104.979
0
LINE
8
BLACK
6
CONTINUOUS
10
127.584
20
-104.979
11
127.381
21
-105.149
0
LINE
8
BLACK
6
CONTINUOUS
10
127.381
20
-105.149
11
127.132
21
-105.24
0
LINE
8
BLACK
6
CONTINUOUS
10
127.132
20
-105.24
11
126.868
21
-105.24
0
LINE
8
BLACK
6
CONTINUOUS
10
126.868
20
-105.24
11
126.619
21
-105.149
0
LINE
8
BLACK
6
CONTINUOUS
10
126.619
20
-105.149
11
126.416
21
-104.979
0
LINE
8
BLACK
6
CONTINUOUS
10
126.416
20
-104.979
11
126.284
21
-104.75
0
LINE
8
BLACK
6
CONTINUOUS
10
126.284
20
-104.75
11
126.249
21
-104.555
0
LINE
8
BLACK
6
CONTINUOUS
10
126.249
20
-104.555
11
126.249
21
-103.725
0
LINE
8
BLACK
6
CONTINUOUS
10
126.249
20
-103.725
11
126.284
21
-103.53
0
LINE
8
BLACK
6
CONTINUOUS
10
126.284
20
-103.53
11
126.416
21
-103.301
0
LINE
8
BLACK
6
CONTINUOUS
10
126.416
20
-103.301
11
126.619
21
-103.131
0
LINE
8
BLACK
6
CONTINUOUS
10
126.619
20
-103.131
11
126.868
21
-103.04
0
LINE
8
BLACK
6
CONTINUOUS
10
126.868
20
-103.04
11
127.132
21
-103.04
0
LINE
8
BLACK
6
CONTINUOUS
10
127.132
20
-103.04
11
127.381
21
-103.131
0
LINE
8
BLACK
6
CONTINUOUS
10
147.701
20
-103.131
11
147.904
21
-103.301
0
LINE
8
BLACK
6
CONTINUOUS
10
147.904
20
-103.301
11
148.036
21
-103.53
0
LINE
8
BLACK
6
CONTINUOUS
10
148.036
20
-103.53
11
148.071
21
-103.725
0
LINE
8
BLACK
6
CONTINUOUS
10
148.071
20
-103.725
11
148.071
21
-104.555
0
LINE
8
BLACK
6
CONTINUOUS
10
148.071
20
-104.555
11
148.036
21
-104.75
0
LINE
8
BLACK
6
CONTINUOUS
10
148.036
20
-104.75
11
147.904
21
-104.979
0
LINE
8
BLACK
6
CONTINUOUS
10
147.904
20
-104.979
11
147.701
21
-105.149
0
LINE
8
BLACK
6
CONTINUOUS
10
147.701
20
-105.149
11
147.452
21
-105.24
0
LINE
8
BLACK
6
CONTINUOUS
10
147.452
20
-105.24
11
147.188
21
-105.24
0
LINE
8
BLACK
6
CONTINUOUS
10
147.188
20
-105.24
11
146.939
21
-105.149
0
LINE
8
BLACK
6
CONTINUOUS
10
146.939
20
-105.149
11
146.736
21
-104.979
0
LINE
8
BLACK
6
CONTINUOUS
10
146.736
20
-104.979
11
146.604
21
-104.75
0
LINE
8
BLACK
6
CONTINUOUS
10
146.604
20
-104.75
11
146.569
21
-104.555
0
LINE
8
BLACK
6
CONTINUOUS
10
146.569
20
-104.555
11
146.569
21
-103.725
0
LINE
8
BLACK
6
CONTINUOUS
10
146.569
20
-103.725
11
146.604
21
-103.53
0
LINE
8
BLACK
6
CONTINUOUS
10
146.604
20
-103.53
11
146.736
21
-103.301
0
LINE
8
BLACK
6
CONTINUOUS
10
146.736
20
-103.301
11
146.939
21
-103.131
0
LINE
8
BLACK
6
CONTINUOUS
10
146.939
20
-103.131
11
147.188
21
-103.04
0
LINE
8
BLACK
6
CONTINUOUS
10
147.188
20
-103.04
11
147.452
21
-103.04
0
LINE
8
BLACK
6
CONTINUOUS
10
147.452
20
-103.04
11
147.701
21
-103.131
0
LINE
8
BLACK
6
CONTINUOUS
10
129.921
20
-103.131
11
130.124
21
-103.301
0
LINE
8
BLACK
6
CONTINUOUS
10
130.124
20
-103.301
11
130.256
21
-103.53
0
LINE
8
BLACK
6
CONTINUOUS
10
130.256
20
-103.53
11
130.291
21
-103.725
0
LINE
8
BLACK
6
CONTINUOUS
10
130.291
20
-103.725
11
130.291
21
-104.555
0
LINE
8
BLACK
6
CONTINUOUS
10
130.291
20
-104.555
11
130.256
21
-104.75
0
LINE
8
BLACK
6
CONTINUOUS
10
130.256
20
-104.75
11
130.124
21
-104.979
0
LINE
8
BLACK
6
CONTINUOUS
10
130.124
20
-104.979
11
129.921
21
-105.149
0
LINE
8
BLACK
6
CONTINUOUS
10
129.921
20
-105.149
11
129.672
21
-105.24
0
LINE
8
BLACK
6
CONTINUOUS
10
129.672
20
-105.24
11
129.408
21
-105.24
0
LINE
8
BLACK
6
CONTINUOUS
10
129.408
20
-105.24
11
129.159
21
-105.149
0
LINE
8
BLACK
6
CONTINUOUS
10
129.159
20
-105.149
11
128.956
21
-104.979
0
LINE
8
BLACK
6
CONTINUOUS
10
128.956
20
-104.979
11
128.824
21
-104.75
0
LINE
8
BLACK
6
CONTINUOUS
10
128.824
20
-104.75
11
128.789
21
-104.555
0
LINE
8
BLACK
6
CONTINUOUS
10
128.789
20
-104.555
11
128.789
21
-103.725
0
LINE
8
BLACK
6
CONTINUOUS
10
128.789
20
-103.725
11
128.824
21
-103.53
0
LINE
8
BLACK
6
CONTINUOUS
10
128.824
20
-103.53
11
128.956
21
-103.301
0
LINE
8
BLACK
6
CONTINUOUS
10
128.956
20
-103.301
11
129.159
21
-103.131
0
LINE
8
BLACK
6
CONTINUOUS
10
129.159
20
-103.131
11
129.408
21
-103.04
0
LINE
8
BLACK
6
CONTINUOUS
10
129.408
20
-103.04
11
129.672
21
-103.04
0
LINE
8
BLACK
6
CONTINUOUS
10
129.672
20
-103.04
11
129.921
21
-103.131
0
LINE
8
BLACK
6
CONTINUOUS
10
132.461
20
-103.131
11
132.664
21
-103.301
0
LINE
8
BLACK
6
CONTINUOUS
10
132.664
20
-103.301
11
132.796
21
-103.53
0
LINE
8
BLACK
6
CONTINUOUS
10
132.796
20
-103.53
11
132.831
21
-103.725
0
LINE
8
BLACK
6
CONTINUOUS
10
132.831
20
-103.725
11
132.831
21
-104.555
0
LINE
8
BLACK
6
CONTINUOUS
10
132.831
20
-104.555
11
132.796
21
-104.75
0
LINE
8
BLACK
6
CONTINUOUS
10
132.796
20
-104.75
11
132.664
21
-104.979
0
LINE
8
BLACK
6
CONTINUOUS
10
132.664
20
-104.979
11
132.461
21
-105.149
0
LINE
8
BLACK
6
CONTINUOUS
10
132.461
20
-105.149
11
132.212
21
-105.24
0
LINE
8
BLACK
6
CONTINUOUS
10
132.212
20
-105.24
11
131.948
21
-105.24
0
LINE
8
BLACK
6
CONTINUOUS
10
131.948
20
-105.24
11
131.699
21
-105.149
0
LINE
8
BLACK
6
CONTINUOUS
10
131.699
20
-105.149
11
131.496
21
-104.979
0
LINE
8
BLACK
6
CONTINUOUS
10
131.496
20
-104.979
11
131.364
21
-104.75
0
LINE
8
BLACK
6
CONTINUOUS
10
131.364
20
-104.75
11
131.329
21
-104.555
0
LINE
8
BLACK
6
CONTINUOUS
10
131.329
20
-104.555
11
131.329
21
-103.725
0
LINE
8
BLACK
6
CONTINUOUS
10
131.329
20
-103.725
11
131.364
21
-103.53
0
LINE
8
BLACK
6
CONTINUOUS
10
131.364
20
-103.53
11
131.496
21
-103.301
0
LINE
8
BLACK
6
CONTINUOUS
10
131.496
20
-103.301
11
131.699
21
-103.131
0
LINE
8
BLACK
6
CONTINUOUS
10
131.699
20
-103.131
11
131.948
21
-103.04
0
LINE
8
BLACK
6
CONTINUOUS
10
131.948
20
-103.04
11
132.212
21
-103.04
0
LINE
8
BLACK
6
CONTINUOUS
10
132.212
20
-103.04
11
132.461
21
-103.131
0
LINE
8
BLACK
6
CONTINUOUS
10
135.001
20
-103.131
11
135.204
21
-103.301
0
LINE
8
BLACK
6
CONTINUOUS
10
135.204
20
-103.301
11
135.336
21
-103.53
0
LINE
8
BLACK
6
CONTINUOUS
10
135.336
20
-103.53
11
135.371
21
-103.725
0
LINE
8
BLACK
6
CONTINUOUS
10
135.371
20
-103.725
11
135.371
21
-104.555
0
LINE
8
BLACK
6
CONTINUOUS
10
135.371
20
-104.555
11
135.336
21
-104.75
0
LINE
8
BLACK
6
CONTINUOUS
10
135.336
20
-104.75
11
135.204
21
-104.979
0
LINE
8
BLACK
6
CONTINUOUS
10
135.204
20
-104.979
11
135.001
21
-105.149
0
LINE
8
BLACK
6
CONTINUOUS
10
135.001
20
-105.149
11
134.752
21
-105.24
0
LINE
8
BLACK
6
CONTINUOUS
10
134.752
20
-105.24
11
134.488
21
-105.24
0
LINE
8
BLACK
6
CONTINUOUS
10
134.488
20
-105.24
11
134.239
21
-105.149
0
LINE
8
BLACK
6
CONTINUOUS
10
134.239
20
-105.149
11
134.036
21
-104.979
0
LINE
8
BLACK
6
CONTINUOUS
10
134.036
20
-104.979
11
133.904
21
-104.75
0
LINE
8
BLACK
6
CONTINUOUS
10
133.904
20
-104.75
11
133.869
21
-104.555
0
LINE
8
BLACK
6
CONTINUOUS
10
133.869
20
-104.555
11
133.869
21
-103.725
0
LINE
8
BLACK
6
CONTINUOUS
10
133.869
20
-103.725
11
133.904
21
-103.53
0
LINE
8
BLACK
6
CONTINUOUS
10
133.904
20
-103.53
11
134.036
21
-103.301
0
LINE
8
BLACK
6
CONTINUOUS
10
134.036
20
-103.301
11
134.239
21
-103.131
0
LINE
8
BLACK
6
CONTINUOUS
10
134.239
20
-103.131
11
134.488
21
-103.04
0
LINE
8
BLACK
6
CONTINUOUS
10
134.488
20
-103.04
11
134.752
21
-103.04
0
LINE
8
BLACK
6
CONTINUOUS
10
134.752
20
-103.04
11
135.001
21
-103.131
0
LINE
8
BLACK
6
CONTINUOUS
10
137.541
20
-103.131
11
137.744
21
-103.301
0
LINE
8
BLACK
6
CONTINUOUS
10
137.744
20
-103.301
11
137.876
21
-103.53
0
LINE
8
BLACK
6
CONTINUOUS
10
137.876
20
-103.53
11
137.911
21
-103.725
0
LINE
8
BLACK
6
CONTINUOUS
10
137.911
20
-103.725
11
137.911
21
-104.555
0
LINE
8
BLACK
6
CONTINUOUS
10
137.911
20
-104.555
11
137.876
21
-104.75
0
LINE
8
BLACK
6
CONTINUOUS
10
137.876
20
-104.75
11
137.744
21
-104.979
0
LINE
8
BLACK
6
CONTINUOUS
10
137.744
20
-104.979
11
137.541
21
-105.149
0
LINE
8
BLACK
6
CONTINUOUS
10
137.541
20
-105.149
11
137.292
21
-105.24
0
LINE
8
BLACK
6
CONTINUOUS
10
137.292
20
-105.24
11
137.028
21
-105.24
0
LINE
8
BLACK
6
CONTINUOUS
10
137.028
20
-105.24
11
136.779
21
-105.149
0
LINE
8
BLACK
6
CONTINUOUS
10
136.779
20
-105.149
11
136.576
21
-104.979
0
LINE
8
BLACK
6
CONTINUOUS
10
136.576
20
-104.979
11
136.444
21
-104.75
0
LINE
8
BLACK
6
CONTINUOUS
10
136.444
20
-104.75
11
136.409
21
-104.555
0
LINE
8
BLACK
6
CONTINUOUS
10
136.409
20
-104.555
11
136.409
21
-103.725
0
LINE
8
BLACK
6
CONTINUOUS
10
136.409
20
-103.725
11
136.444
21
-103.53
0
LINE
8
BLACK
6
CONTINUOUS
10
136.444
20
-103.53
11
136.576
21
-103.301
0
LINE
8
BLACK
6
CONTINUOUS
10
136.576
20
-103.301
11
136.779
21
-103.131
0
LINE
8
BLACK
6
CONTINUOUS
10
136.779
20
-103.131
11
137.028
21
-103.04
0
LINE
8
BLACK
6
CONTINUOUS
10
137.028
20
-103.04
11
137.292
21
-103.04
0
LINE
8
BLACK
6
CONTINUOUS
10
137.292
20
-103.04
11
137.541
21
-103.131
0
LINE
8
BLACK
6
CONTINUOUS
10
140.081
20
-103.131
11
140.284
21
-103.301
0
LINE
8
BLACK
6
CONTINUOUS
10
140.284
20
-103.301
11
140.416
21
-103.53
0
LINE
8
BLACK
6
CONTINUOUS
10
140.416
20
-103.53
11
140.451
21
-103.725
0
LINE
8
BLACK
6
CONTINUOUS
10
140.451
20
-103.725
11
140.451
21
-104.555
0
LINE
8
BLACK
6
CONTINUOUS
10
140.451
20
-104.555
11
140.416
21
-104.75
0
LINE
8
BLACK
6
CONTINUOUS
10
140.416
20
-104.75
11
140.284
21
-104.979
0
LINE
8
BLACK
6
CONTINUOUS
10
140.284
20
-104.979
11
140.081
21
-105.149
0
LINE
8
BLACK
6
CONTINUOUS
10
140.081
20
-105.149
11
139.832
21
-105.24
0
LINE
8
BLACK
6
CONTINUOUS
10
139.832
20
-105.24
11
139.568
21
-105.24
0
LINE
8
BLACK
6
CONTINUOUS
10
139.568
20
-105.24
11
139.319
21
-105.149
0
LINE
8
BLACK
6
CONTINUOUS
10
139.319
20
-105.149
11
139.116
21
-104.979
0
LINE
8
BLACK
6
CONTINUOUS
10
139.116
20
-104.979
11
138.984
21
-104.75
0
LINE
8
BLACK
6
CONTINUOUS
10
138.984
20
-104.75
11
138.949
21
-104.555
0
LINE
8
BLACK
6
CONTINUOUS
10
138.949
20
-104.555
11
138.949
21
-103.725
0
LINE
8
BLACK
6
CONTINUOUS
10
138.949
20
-103.725
11
138.984
21
-103.53
0
LINE
8
BLACK
6
CONTINUOUS
10
138.984
20
-103.53
11
139.116
21
-103.301
0
LINE
8
BLACK
6
CONTINUOUS
10
139.116
20
-103.301
11
139.319
21
-103.131
0
LINE
8
BLACK
6
CONTINUOUS
10
139.319
20
-103.131
11
139.568
21
-103.04
0
LINE
8
BLACK
6
CONTINUOUS
10
139.568
20
-103.04
11
139.832
21
-103.04
0
LINE
8
BLACK
6
CONTINUOUS
10
139.832
20
-103.04
11
140.081
21
-103.131
0
LINE
8
BLACK
6
CONTINUOUS
10
142.621
20
-103.131
11
142.824
21
-103.301
0
LINE
8
BLACK
6
CONTINUOUS
10
142.824
20
-103.301
11
142.956
21
-103.53
0
LINE
8
BLACK
6
CONTINUOUS
10
142.956
20
-103.53
11
142.991
21
-103.725
0
LINE
8
BLACK
6
CONTINUOUS
10
142.991
20
-103.725
11
142.991
21
-104.555
0
LINE
8
BLACK
6
CONTINUOUS
10
142.991
20
-104.555
11
142.956
21
-104.75
0
LINE
8
BLACK
6
CONTINUOUS
10
142.956
20
-104.75
11
142.824
21
-104.979
0
LINE
8
BLACK
6
CONTINUOUS
10
142.824
20
-104.979
11
142.621
21
-105.149
0
LINE
8
BLACK
6
CONTINUOUS
10
142.621
20
-105.149
11
142.372
21
-105.24
0
LINE
8
BLACK
6
CONTINUOUS
10
142.372
20
-105.24
11
142.108
21
-105.24
0
LINE
8
BLACK
6
CONTINUOUS
10
142.108
20
-105.24
11
141.859
21
-105.149
0
LINE
8
BLACK
6
CONTINUOUS
10
141.859
20
-105.149
11
141.656
21
-104.979
0
LINE
8
BLACK
6
CONTINUOUS
10
141.656
20
-104.979
11
141.524
21
-104.75
0
LINE
8
BLACK
6
CONTINUOUS
10
141.524
20
-104.75
11
141.489
21
-104.555
0
LINE
8
BLACK
6
CONTINUOUS
10
141.489
20
-104.555
11
141.489
21
-103.725
0
LINE
8
BLACK
6
CONTINUOUS
10
141.489
20
-103.725
11
141.524
21
-103.53
0
LINE
8
BLACK
6
CONTINUOUS
10
141.524
20
-103.53
11
141.656
21
-103.301
0
LINE
8
BLACK
6
CONTINUOUS
10
141.656
20
-103.301
11
141.859
21
-103.131
0
LINE
8
BLACK
6
CONTINUOUS
10
141.859
20
-103.131
11
142.108
21
-103.04
0
LINE
8
BLACK
6
CONTINUOUS
10
142.108
20
-103.04
11
142.372
21
-103.04
0
LINE
8
BLACK
6
CONTINUOUS
10
142.372
20
-103.04
11
142.621
21
-103.131
0
LINE
8
BLACK
6
CONTINUOUS
10
145.161
20
-103.131
11
145.364
21
-103.301
0
LINE
8
BLACK
6
CONTINUOUS
10
145.364
20
-103.301
11
145.496
21
-103.53
0
LINE
8
BLACK
6
CONTINUOUS
10
145.496
20
-103.53
11
145.531
21
-103.725
0
LINE
8
BLACK
6
CONTINUOUS
10
145.531
20
-103.725
11
145.531
21
-104.555
0
LINE
8
BLACK
6
CONTINUOUS
10
145.531
20
-104.555
11
145.496
21
-104.75
0
LINE
8
BLACK
6
CONTINUOUS
10
145.496
20
-104.75
11
145.364
21
-104.979
0
LINE
8
BLACK
6
CONTINUOUS
10
145.364
20
-104.979
11
145.161
21
-105.149
0
LINE
8
BLACK
6
CONTINUOUS
10
145.161
20
-105.149
11
144.912
21
-105.24
0
LINE
8
BLACK
6
CONTINUOUS
10
144.912
20
-105.24
11
144.648
21
-105.24
0
LINE
8
BLACK
6
CONTINUOUS
10
144.648
20
-105.24
11
144.399
21
-105.149
0
LINE
8
BLACK
6
CONTINUOUS
10
144.399
20
-105.149
11
144.196
21
-104.979
0
LINE
8
BLACK
6
CONTINUOUS
10
144.196
20
-104.979
11
144.064
21
-104.75
0
LINE
8
BLACK
6
CONTINUOUS
10
144.064
20
-104.75
11
144.029
21
-104.555
0
LINE
8
BLACK
6
CONTINUOUS
10
144.029
20
-104.555
11
144.029
21
-103.725
0
LINE
8
BLACK
6
CONTINUOUS
10
144.029
20
-103.725
11
144.064
21
-103.53
0
LINE
8
BLACK
6
CONTINUOUS
10
144.064
20
-103.53
11
144.196
21
-103.301
0
LINE
8
BLACK
6
CONTINUOUS
10
144.196
20
-103.301
11
144.399
21
-103.131
0
LINE
8
BLACK
6
CONTINUOUS
10
144.399
20
-103.131
11
144.648
21
-103.04
0
LINE
8
BLACK
6
CONTINUOUS
10
144.648
20
-103.04
11
144.912
21
-103.04
0
LINE
8
BLACK
6
CONTINUOUS
10
144.912
20
-103.04
11
145.161
21
-103.131
0
LINE
8
BLACK
6
CONTINUOUS
10
162.941
20
-103.131
11
163.144
21
-103.301
0
LINE
8
BLACK
6
CONTINUOUS
10
163.144
20
-103.301
11
163.276
21
-103.53
0
LINE
8
BLACK
6
CONTINUOUS
10
163.276
20
-103.53
11
163.311
21
-103.725
0
LINE
8
BLACK
6
CONTINUOUS
10
163.311
20
-103.725
11
163.311
21
-104.555
0
LINE
8
BLACK
6
CONTINUOUS
10
163.311
20
-104.555
11
163.276
21
-104.75
0
LINE
8
BLACK
6
CONTINUOUS
10
163.276
20
-104.75
11
163.144
21
-104.979
0
LINE
8
BLACK
6
CONTINUOUS
10
163.144
20
-104.979
11
162.941
21
-105.149
0
LINE
8
BLACK
6
CONTINUOUS
10
162.941
20
-105.149
11
162.692
21
-105.24
0
LINE
8
BLACK
6
CONTINUOUS
10
162.692
20
-105.24
11
162.428
21
-105.24
0
LINE
8
BLACK
6
CONTINUOUS
10
162.428
20
-105.24
11
162.179
21
-105.149
0
LINE
8
BLACK
6
CONTINUOUS
10
162.179
20
-105.149
11
161.976
21
-104.979
0
LINE
8
BLACK
6
CONTINUOUS
10
161.976
20
-104.979
11
161.844
21
-104.75
0
LINE
8
BLACK
6
CONTINUOUS
10
161.844
20
-104.75
11
161.809
21
-104.555
0
LINE
8
BLACK
6
CONTINUOUS
10
161.809
20
-104.555
11
161.809
21
-103.725
0
LINE
8
BLACK
6
CONTINUOUS
10
161.809
20
-103.725
11
161.844
21
-103.53
0
LINE
8
BLACK
6
CONTINUOUS
10
161.844
20
-103.53
11
161.976
21
-103.301
0
LINE
8
BLACK
6
CONTINUOUS
10
161.976
20
-103.301
11
162.179
21
-103.131
0
LINE
8
BLACK
6
CONTINUOUS
10
162.179
20
-103.131
11
162.428
21
-103.04
0
LINE
8
BLACK
6
CONTINUOUS
10
162.428
20
-103.04
11
162.692
21
-103.04
0
LINE
8
BLACK
6
CONTINUOUS
10
162.692
20
-103.04
11
162.941
21
-103.131
0
LINE
8
BLACK
6
CONTINUOUS
10
160.401
20
-103.131
11
160.604
21
-103.301
0
LINE
8
BLACK
6
CONTINUOUS
10
160.604
20
-103.301
11
160.736
21
-103.53
0
LINE
8
BLACK
6
CONTINUOUS
10
160.736
20
-103.53
11
160.771
21
-103.725
0
LINE
8
BLACK
6
CONTINUOUS
10
160.771
20
-103.725
11
160.771
21
-104.555
0
LINE
8
BLACK
6
CONTINUOUS
10
160.771
20
-104.555
11
160.736
21
-104.75
0
LINE
8
BLACK
6
CONTINUOUS
10
160.736
20
-104.75
11
160.604
21
-104.979
0
LINE
8
BLACK
6
CONTINUOUS
10
160.604
20
-104.979
11
160.401
21
-105.149
0
LINE
8
BLACK
6
CONTINUOUS
10
160.401
20
-105.149
11
160.152
21
-105.24
0
LINE
8
BLACK
6
CONTINUOUS
10
160.152
20
-105.24
11
159.888
21
-105.24
0
LINE
8
BLACK
6
CONTINUOUS
10
159.888
20
-105.24
11
159.639
21
-105.149
0
LINE
8
BLACK
6
CONTINUOUS
10
159.639
20
-105.149
11
159.436
21
-104.979
0
LINE
8
BLACK
6
CONTINUOUS
10
159.436
20
-104.979
11
159.304
21
-104.75
0
LINE
8
BLACK
6
CONTINUOUS
10
159.304
20
-104.75
11
159.269
21
-104.555
0
LINE
8
BLACK
6
CONTINUOUS
10
159.269
20
-104.555
11
159.269
21
-103.725
0
LINE
8
BLACK
6
CONTINUOUS
10
159.269
20
-103.725
11
159.304
21
-103.53
0
LINE
8
BLACK
6
CONTINUOUS
10
159.304
20
-103.53
11
159.436
21
-103.301
0
LINE
8
BLACK
6
CONTINUOUS
10
159.436
20
-103.301
11
159.639
21
-103.131
0
LINE
8
BLACK
6
CONTINUOUS
10
159.639
20
-103.131
11
159.888
21
-103.04
0
LINE
8
BLACK
6
CONTINUOUS
10
159.888
20
-103.04
11
160.152
21
-103.04
0
LINE
8
BLACK
6
CONTINUOUS
10
160.152
20
-103.04
11
160.401
21
-103.131
0
LINE
8
BLACK
6
CONTINUOUS
10
177.076
20
-103.162
11
175.476
21
-103.162
0
LINE
8
BLACK
6
CONTINUOUS
10
175.476
20
-103.162
11
175.476
21
-101.562
0
LINE
8
BLACK
6
CONTINUOUS
10
175.476
20
-101.562
11
177.076
21
-101.562
0
LINE
8
BLACK
6
CONTINUOUS
10
177.076
20
-101.562
11
177.076
21
-103.162
0
LINE
8
BLACK
6
CONTINUOUS
10
176.554
20
-99.0986
11
176.798
21
-99.2397
0
LINE
8
BLACK
6
CONTINUOUS
10
176.798
20
-99.2397
11
176.98
21
-99.4558
0
LINE
8
BLACK
6
CONTINUOUS
10
176.98
20
-99.4558
11
177.076
21
-99.7209
0
LINE
8
BLACK
6
CONTINUOUS
10
177.076
20
-99.7209
11
177.076
21
-100.003
0
LINE
8
BLACK
6
CONTINUOUS
10
177.076
20
-100.003
11
176.98
21
-100.268
0
LINE
8
BLACK
6
CONTINUOUS
10
176.98
20
-100.268
11
176.798
21
-100.484
0
LINE
8
BLACK
6
CONTINUOUS
10
176.798
20
-100.484
11
176.554
21
-100.625
0
LINE
8
BLACK
6
CONTINUOUS
10
176.554
20
-100.625
11
176.276
21
-100.674
0
LINE
8
BLACK
6
CONTINUOUS
10
176.276
20
-100.674
11
175.998
21
-100.625
0
LINE
8
BLACK
6
CONTINUOUS
10
175.998
20
-100.625
11
175.754
21
-100.484
0
LINE
8
BLACK
6
CONTINUOUS
10
175.754
20
-100.484
11
175.572
21
-100.268
0
LINE
8
BLACK
6
CONTINUOUS
10
175.572
20
-100.268
11
175.476
21
-100.003
0
LINE
8
BLACK
6
CONTINUOUS
10
175.476
20
-100.003
11
175.476
21
-99.7209
0
LINE
8
BLACK
6
CONTINUOUS
10
175.476
20
-99.7209
11
175.572
21
-99.4558
0
LINE
8
BLACK
6
CONTINUOUS
10
175.572
20
-99.4558
11
175.754
21
-99.2397
0
LINE
8
BLACK
6
CONTINUOUS
10
175.754
20
-99.2397
11
175.998
21
-99.0986
0
LINE
8
BLACK
6
CONTINUOUS
10
175.998
20
-99.0986
11
176.276
21
-99.0497
0
LINE
8
BLACK
6
CONTINUOUS
10
176.276
20
-99.0497
11
176.554
21
-99.0986
0
LINE
8
BLACK
6
CONTINUOUS
10
116.05
20
-100.152
11
112.55
21
-100.152
0
LINE
8
BLACK
6
CONTINUOUS
10
112.55
20
-100.152
11
112.55
21
-96.6521
0
LINE
8
BLACK
6
CONTINUOUS
10
112.55
20
-96.6521
11
116.05
21
-96.6521
0
LINE
8
BLACK
6
CONTINUOUS
10
116.05
20
-96.6521
11
116.05
21
-100.152
0
LINE
8
BLACK
6
CONTINUOUS
10
170.475
20
-98.2489
11
170.735
21
-98.3988
0
LINE
8
BLACK
6
CONTINUOUS
10
170.735
20
-98.3988
11
170.927
21
-98.6284
0
LINE
8
BLACK
6
CONTINUOUS
10
170.927
20
-98.6284
11
171.03
21
-98.9101
0
LINE
8
BLACK
6
CONTINUOUS
10
171.03
20
-98.9101
11
171.03
21
-99.2099
0
LINE
8
BLACK
6
CONTINUOUS
10
171.03
20
-99.2099
11
170.927
21
-99.4916
0
LINE
8
BLACK
6
CONTINUOUS
10
170.927
20
-99.4916
11
170.735
21
-99.7212
0
LINE
8
BLACK
6
CONTINUOUS
10
170.735
20
-99.7212
11
170.475
21
-99.8711
0
LINE
8
BLACK
6
CONTINUOUS
10
170.475
20
-99.8711
11
170.254
21
-99.91
0
LINE
8
BLACK
6
CONTINUOUS
10
170.254
20
-99.91
11
170.106
21
-99.91
0
LINE
8
BLACK
6
CONTINUOUS
10
170.106
20
-99.91
11
169.885
21
-99.8711
0
LINE
8
BLACK
6
CONTINUOUS
10
169.885
20
-99.8711
11
169.625
21
-99.7212
0
LINE
8
BLACK
6
CONTINUOUS
10
169.625
20
-99.7212
11
169.433
21
-99.4916
0
LINE
8
BLACK
6
CONTINUOUS
10
169.433
20
-99.4916
11
169.33
21
-99.2099
0
LINE
8
BLACK
6
CONTINUOUS
10
169.33
20
-99.2099
11
169.33
21
-98.9101
0
LINE
8
BLACK
6
CONTINUOUS
10
169.33
20
-98.9101
11
169.433
21
-98.6284
0
LINE
8
BLACK
6
CONTINUOUS
10
169.433
20
-98.6284
11
169.625
21
-98.3988
0
LINE
8
BLACK
6
CONTINUOUS
10
169.625
20
-98.3988
11
169.885
21
-98.2489
0
LINE
8
BLACK
6
CONTINUOUS
10
169.885
20
-98.2489
11
170.106
21
-98.21
0
LINE
8
BLACK
6
CONTINUOUS
10
170.106
20
-98.21
11
170.254
21
-98.21
0
LINE
8
BLACK
6
CONTINUOUS
10
170.254
20
-98.21
11
170.475
21
-98.2489
0
LINE
8
BLACK
6
CONTINUOUS
10
168.49
20
-99.91
11
166.79
21
-99.91
0
LINE
8
BLACK
6
CONTINUOUS
10
166.79
20
-99.91
11
166.79
21
-98.21
0
LINE
8
BLACK
6
CONTINUOUS
10
166.79
20
-98.21
11
168.49
21
-98.21
0
LINE
8
BLACK
6
CONTINUOUS
10
168.49
20
-98.21
11
168.49
21
-99.91
0
LINE
8
BLACK
6
CONTINUOUS
10
145.058
20
-98.2966
11
145.302
21
-98.4377
0
LINE
8
BLACK
6
CONTINUOUS
10
145.302
20
-98.4377
11
145.484
21
-98.6538
0
LINE
8
BLACK
6
CONTINUOUS
10
145.484
20
-98.6538
11
145.58
21
-98.9189
0
LINE
8
BLACK
6
CONTINUOUS
10
145.58
20
-98.9189
11
145.58
21
-99.2011
0
LINE
8
BLACK
6
CONTINUOUS
10
145.58
20
-99.2011
11
145.484
21
-99.4662
0
LINE
8
BLACK
6
CONTINUOUS
10
145.484
20
-99.4662
11
145.302
21
-99.6823
0
LINE
8
BLACK
6
CONTINUOUS
10
145.302
20
-99.6823
11
145.058
21
-99.8234
0
LINE
8
BLACK
6
CONTINUOUS
10
145.058
20
-99.8234
11
144.78
21
-99.8723
0
LINE
8
BLACK
6
CONTINUOUS
10
144.78
20
-99.8723
11
144.502
21
-99.8234
0
LINE
8
BLACK
6
CONTINUOUS
10
144.502
20
-99.8234
11
144.258
21
-99.6823
0
LINE
8
BLACK
6
CONTINUOUS
10
144.258
20
-99.6823
11
144.076
21
-99.4662
0
LINE
8
BLACK
6
CONTINUOUS
10
144.076
20
-99.4662
11
143.98
21
-99.2011
0
LINE
8
BLACK
6
CONTINUOUS
10
143.98
20
-99.2011
11
143.98
21
-98.9189
0
LINE
8
BLACK
6
CONTINUOUS
10
143.98
20
-98.9189
11
144.076
21
-98.6538
0
LINE
8
BLACK
6
CONTINUOUS
10
144.076
20
-98.6538
11
144.258
21
-98.4377
0
LINE
8
BLACK
6
CONTINUOUS
10
144.258
20
-98.4377
11
144.502
21
-98.2966
0
LINE
8
BLACK
6
CONTINUOUS
10
144.502
20
-98.2966
11
144.78
21
-98.2477
0
LINE
8
BLACK
6
CONTINUOUS
10
144.78
20
-98.2477
11
145.058
21
-98.2966
0
LINE
8
BLACK
6
CONTINUOUS
10
137.438
20
-98.2966
11
137.682
21
-98.4377
0
LINE
8
BLACK
6
CONTINUOUS
10
137.682
20
-98.4377
11
137.864
21
-98.6538
0
LINE
8
BLACK
6
CONTINUOUS
10
137.864
20
-98.6538
11
137.96
21
-98.9189
0
LINE
8
BLACK
6
CONTINUOUS
10
137.96
20
-98.9189
11
137.96
21
-99.2011
0
LINE
8
BLACK
6
CONTINUOUS
10
137.96
20
-99.2011
11
137.864
21
-99.4662
0
LINE
8
BLACK
6
CONTINUOUS
10
137.864
20
-99.4662
11
137.682
21
-99.6823
0
LINE
8
BLACK
6
CONTINUOUS
10
137.682
20
-99.6823
11
137.438
21
-99.8234
0
LINE
8
BLACK
6
CONTINUOUS
10
137.438
20
-99.8234
11
137.23
21
-99.86
0
LINE
8
BLACK
6
CONTINUOUS
10
137.23
20
-99.86
11
137.09
21
-99.86
0
LINE
8
BLACK
6
CONTINUOUS
10
137.09
20
-99.86
11
136.882
21
-99.8234
0
LINE
8
BLACK
6
CONTINUOUS
10
136.882
20
-99.8234
11
136.638
21
-99.6823
0
LINE
8
BLACK
6
CONTINUOUS
10
136.638
20
-99.6823
11
136.456
21
-99.4662
0
LINE
8
BLACK
6
CONTINUOUS
10
136.456
20
-99.4662
11
136.36
21
-99.2011
0
LINE
8
BLACK
6
CONTINUOUS
10
136.36
20
-99.2011
11
136.36
21
-98.9189
0
LINE
8
BLACK
6
CONTINUOUS
10
136.36
20
-98.9189
11
136.456
21
-98.6538
0
LINE
8
BLACK
6
CONTINUOUS
10
136.456
20
-98.6538
11
136.638
21
-98.4377
0
LINE
8
BLACK
6
CONTINUOUS
10
136.638
20
-98.4377
11
136.882
21
-98.2966
0
LINE
8
BLACK
6
CONTINUOUS
10
136.882
20
-98.2966
11
137.09
21
-98.26
0
LINE
8
BLACK
6
CONTINUOUS
10
137.09
20
-98.26
11
137.23
21
-98.26
0
LINE
8
BLACK
6
CONTINUOUS
10
137.23
20
-98.26
11
137.438
21
-98.2966
0
LINE
8
BLACK
6
CONTINUOUS
10
150.138
20
-97.0266
11
150.382
21
-97.1677
0
LINE
8
BLACK
6
CONTINUOUS
10
150.382
20
-97.1677
11
150.564
21
-97.3838
0
LINE
8
BLACK
6
CONTINUOUS
10
150.564
20
-97.3838
11
150.66
21
-97.6489
0
LINE
8
BLACK
6
CONTINUOUS
10
150.66
20
-97.6489
11
150.66
21
-97.9311
0
LINE
8
BLACK
6
CONTINUOUS
10
150.66
20
-97.9311
11
150.564
21
-98.1962
0
LINE
8
BLACK
6
CONTINUOUS
10
150.564
20
-98.1962
11
150.382
21
-98.4123
0
LINE
8
BLACK
6
CONTINUOUS
10
150.382
20
-98.4123
11
150.138
21
-98.5534
0
LINE
8
BLACK
6
CONTINUOUS
10
150.138
20
-98.5534
11
149.86
21
-98.6023
0
LINE
8
BLACK
6
CONTINUOUS
10
149.86
20
-98.6023
11
149.582
21
-98.5534
0
LINE
8
BLACK
6
CONTINUOUS
10
149.582
20
-98.5534
11
149.338
21
-98.4123
0
LINE
8
BLACK
6
CONTINUOUS
10
149.338
20
-98.4123
11
149.156
21
-98.1962
0
LINE
8
BLACK
6
CONTINUOUS
10
149.156
20
-98.1962
11
149.06
21
-97.9311
0
LINE
8
BLACK
6
CONTINUOUS
10
149.06
20
-97.9311
11
149.06
21
-97.6489
0
LINE
8
BLACK
6
CONTINUOUS
10
149.06
20
-97.6489
11
149.156
21
-97.3838
0
LINE
8
BLACK
6
CONTINUOUS
10
149.156
20
-97.3838
11
149.338
21
-97.1677
0
LINE
8
BLACK
6
CONTINUOUS
10
149.338
20
-97.1677
11
149.582
21
-97.0266
0
LINE
8
BLACK
6
CONTINUOUS
10
149.582
20
-97.0266
11
149.86
21
-96.9777
0
LINE
8
BLACK
6
CONTINUOUS
10
149.86
20
-96.9777
11
150.138
21
-97.0266
0
LINE
8
BLACK
6
CONTINUOUS
10
152.638
20
-97.0266
11
152.882
21
-97.1677
0
LINE
8
BLACK
6
CONTINUOUS
10
152.882
20
-97.1677
11
153.064
21
-97.3838
0
LINE
8
BLACK
6
CONTINUOUS
10
153.064
20
-97.3838
11
153.16
21
-97.6489
0
LINE
8
BLACK
6
CONTINUOUS
10
153.16
20
-97.6489
11
153.16
21
-97.9311
0
LINE
8
BLACK
6
CONTINUOUS
10
153.16
20
-97.9311
11
153.064
21
-98.1962
0
LINE
8
BLACK
6
CONTINUOUS
10
153.064
20
-98.1962
11
152.882
21
-98.4123
0
LINE
8
BLACK
6
CONTINUOUS
10
152.882
20
-98.4123
11
152.638
21
-98.5534
0
LINE
8
BLACK
6
CONTINUOUS
10
152.638
20
-98.5534
11
152.36
21
-98.6023
0
LINE
8
BLACK
6
CONTINUOUS
10
152.36
20
-98.6023
11
152.082
21
-98.5534
0
LINE
8
BLACK
6
CONTINUOUS
10
152.082
20
-98.5534
11
151.838
21
-98.4123
0
LINE
8
BLACK
6
CONTINUOUS
10
151.838
20
-98.4123
11
151.656
21
-98.1962
0
LINE
8
BLACK
6
CONTINUOUS
10
151.656
20
-98.1962
11
151.56
21
-97.9311
0
LINE
8
BLACK
6
CONTINUOUS
10
151.56
20
-97.9311
11
151.56
21
-97.6489
0
LINE
8
BLACK
6
CONTINUOUS
10
151.56
20
-97.6489
11
151.656
21
-97.3838
0
LINE
8
BLACK
6
CONTINUOUS
10
151.656
20
-97.3838
11
151.838
21
-97.1677
0
LINE
8
BLACK
6
CONTINUOUS
10
151.838
20
-97.1677
11
152.082
21
-97.0266
0
LINE
8
BLACK
6
CONTINUOUS
10
152.082
20
-97.0266
11
152.36
21
-96.9777
0
LINE
8
BLACK
6
CONTINUOUS
10
152.36
20
-96.9777
11
152.638
21
-97.0266
0
LINE
8
BLACK
6
CONTINUOUS
10
155.218
20
-97.0266
11
155.462
21
-97.1677
0
LINE
8
BLACK
6
CONTINUOUS
10
155.462
20
-97.1677
11
155.644
21
-97.3838
0
LINE
8
BLACK
6
CONTINUOUS
10
155.644
20
-97.3838
11
155.74
21
-97.6489
0
LINE
8
BLACK
6
CONTINUOUS
10
155.74
20
-97.6489
11
155.74
21
-97.9311
0
LINE
8
BLACK
6
CONTINUOUS
10
155.74
20
-97.9311
11
155.644
21
-98.1962
0
LINE
8
BLACK
6
CONTINUOUS
10
155.644
20
-98.1962
11
155.462
21
-98.4123
0
LINE
8
BLACK
6
CONTINUOUS
10
155.462
20
-98.4123
11
155.218
21
-98.5534
0
LINE
8
BLACK
6
CONTINUOUS
10
155.218
20
-98.5534
11
154.94
21
-98.6023
0
LINE
8
BLACK
6
CONTINUOUS
10
154.94
20
-98.6023
11
154.662
21
-98.5534
0
LINE
8
BLACK
6
CONTINUOUS
10
154.662
20
-98.5534
11
154.418
21
-98.4123
0
LINE
8
BLACK
6
CONTINUOUS
10
154.418
20
-98.4123
11
154.236
21
-98.1962
0
LINE
8
BLACK
6
CONTINUOUS
10
154.236
20
-98.1962
11
154.14
21
-97.9311
0
LINE
8
BLACK
6
CONTINUOUS
10
154.14
20
-97.9311
11
154.14
21
-97.6489
0
LINE
8
BLACK
6
CONTINUOUS
10
154.14
20
-97.6489
11
154.236
21
-97.3838
0
LINE
8
BLACK
6
CONTINUOUS
10
154.236
20
-97.3838
11
154.418
21
-97.1677
0
LINE
8
BLACK
6
CONTINUOUS
10
154.418
20
-97.1677
11
154.662
21
-97.0266
0
LINE
8
BLACK
6
CONTINUOUS
10
154.662
20
-97.0266
11
154.94
21
-96.9777
0
LINE
8
BLACK
6
CONTINUOUS
10
154.94
20
-96.9777
11
155.218
21
-97.0266
0
LINE
8
BLACK
6
CONTINUOUS
10
162.838
20
-97.0266
11
163.082
21
-97.1677
0
LINE
8
BLACK
6
CONTINUOUS
10
163.082
20
-97.1677
11
163.264
21
-97.3838
0
LINE
8
BLACK
6
CONTINUOUS
10
163.264
20
-97.3838
11
163.36
21
-97.6489
0
LINE
8
BLACK
6
CONTINUOUS
10
163.36
20
-97.6489
11
163.36
21
-97.9311
0
LINE
8
BLACK
6
CONTINUOUS
10
163.36
20
-97.9311
11
163.264
21
-98.1962
0
LINE
8
BLACK
6
CONTINUOUS
10
163.264
20
-98.1962
11
163.082
21
-98.4123
0
LINE
8
BLACK
6
CONTINUOUS
10
163.082
20
-98.4123
11
162.838
21
-98.5534
0
LINE
8
BLACK
6
CONTINUOUS
10
162.838
20
-98.5534
11
162.63
21
-98.59
0
LINE
8
BLACK
6
CONTINUOUS
10
162.63
20
-98.59
11
162.49
21
-98.59
0
LINE
8
BLACK
6
CONTINUOUS
10
162.49
20
-98.59
11
162.282
21
-98.5534
0
LINE
8
BLACK
6
CONTINUOUS
10
162.282
20
-98.5534
11
162.038
21
-98.4123
0
LINE
8
BLACK
6
CONTINUOUS
10
162.038
20
-98.4123
11
161.856
21
-98.1962
0
LINE
8
BLACK
6
CONTINUOUS
10
161.856
20
-98.1962
11
161.76
21
-97.9311
0
LINE
8
BLACK
6
CONTINUOUS
10
161.76
20
-97.9311
11
161.76
21
-97.6489
0
LINE
8
BLACK
6
CONTINUOUS
10
161.76
20
-97.6489
11
161.856
21
-97.3838
0
LINE
8
BLACK
6
CONTINUOUS
10
161.856
20
-97.3838
11
162.038
21
-97.1677
0
LINE
8
BLACK
6
CONTINUOUS
10
162.038
20
-97.1677
11
162.282
21
-97.0266
0
LINE
8
BLACK
6
CONTINUOUS
10
162.282
20
-97.0266
11
162.49
21
-96.99
0
LINE
8
BLACK
6
CONTINUOUS
10
162.49
20
-96.99
11
162.63
21
-96.99
0
LINE
8
BLACK
6
CONTINUOUS
10
162.63
20
-96.99
11
162.838
21
-97.0266
0
LINE
8
BLACK
6
CONTINUOUS
10
120.847
20
-96.1838
11
121.153
21
-96.3601
0
LINE
8
BLACK
6
CONTINUOUS
10
121.153
20
-96.3601
11
121.379
21
-96.6303
0
LINE
8
BLACK
6
CONTINUOUS
10
121.379
20
-96.6303
11
121.5
21
-96.9617
0
LINE
8
BLACK
6
CONTINUOUS
10
121.5
20
-96.9617
11
121.5
21
-97.3143
0
LINE
8
BLACK
6
CONTINUOUS
10
121.5
20
-97.3143
11
121.379
21
-97.6457
0
LINE
8
BLACK
6
CONTINUOUS
10
121.379
20
-97.6457
11
121.153
21
-97.9159
0
LINE
8
BLACK
6
CONTINUOUS
10
121.153
20
-97.9159
11
120.847
21
-98.0922
0
LINE
8
BLACK
6
CONTINUOUS
10
120.847
20
-98.0922
11
120.5
21
-98.1534
0
LINE
8
BLACK
6
CONTINUOUS
10
120.5
20
-98.1534
11
120.153
21
-98.0922
0
LINE
8
BLACK
6
CONTINUOUS
10
120.153
20
-98.0922
11
119.847
21
-97.9159
0
LINE
8
BLACK
6
CONTINUOUS
10
119.847
20
-97.9159
11
119.621
21
-97.6457
0
LINE
8
BLACK
6
CONTINUOUS
10
119.621
20
-97.6457
11
119.5
21
-97.3143
0
LINE
8
BLACK
6
CONTINUOUS
10
119.5
20
-97.3143
11
119.5
21
-96.9617
0
LINE
8
BLACK
6
CONTINUOUS
10
119.5
20
-96.9617
11
119.621
21
-96.6303
0
LINE
8
BLACK
6
CONTINUOUS
10
119.621
20
-96.6303
11
119.847
21
-96.3601
0
LINE
8
BLACK
6
CONTINUOUS
10
119.847
20
-96.3601
11
120.153
21
-96.1838
0
LINE
8
BLACK
6
CONTINUOUS
10
120.153
20
-96.1838
11
120.5
21
-96.1226
0
LINE
8
BLACK
6
CONTINUOUS
10
120.5
20
-96.1226
11
120.847
21
-96.1838
0
LINE
8
BLACK
6
CONTINUOUS
10
111.351
20
-97.1525
11
107.851
21
-97.1525
0
LINE
8
BLACK
6
CONTINUOUS
10
107.851
20
-97.1525
11
107.851
21
-93.6523
0
LINE
8
BLACK
6
CONTINUOUS
10
107.851
20
-93.6523
11
111.351
21
-93.6523
0
LINE
8
BLACK
6
CONTINUOUS
10
111.351
20
-93.6523
11
111.351
21
-97.1525
0
LINE
8
BLACK
6
CONTINUOUS
10
136.203
20
-93.1212
11
136.477
21
-93.2799
0
LINE
8
BLACK
6
CONTINUOUS
10
136.477
20
-93.2799
11
136.681
21
-93.5231
0
LINE
8
BLACK
6
CONTINUOUS
10
136.681
20
-93.5231
11
136.79
21
-93.8213
0
LINE
8
BLACK
6
CONTINUOUS
10
136.79
20
-93.8213
11
136.79
21
-94.1387
0
LINE
8
BLACK
6
CONTINUOUS
10
136.79
20
-94.1387
11
136.681
21
-94.4369
0
LINE
8
BLACK
6
CONTINUOUS
10
136.681
20
-94.4369
11
136.477
21
-94.6801
0
LINE
8
BLACK
6
CONTINUOUS
10
136.477
20
-94.6801
11
136.203
21
-94.8388
0
LINE
8
BLACK
6
CONTINUOUS
10
136.203
20
-94.8388
11
135.89
21
-94.8939
0
LINE
8
BLACK
6
CONTINUOUS
10
135.89
20
-94.8939
11
135.577
21
-94.8388
0
LINE
8
BLACK
6
CONTINUOUS
10
135.577
20
-94.8388
11
135.303
21
-94.6801
0
LINE
8
BLACK
6
CONTINUOUS
10
135.303
20
-94.6801
11
135.099
21
-94.4369
0
LINE
8
BLACK
6
CONTINUOUS
10
135.099
20
-94.4369
11
134.99
21
-94.1387
0
LINE
8
BLACK
6
CONTINUOUS
10
134.99
20
-94.1387
11
134.99
21
-93.8213
0
LINE
8
BLACK
6
CONTINUOUS
10
134.99
20
-93.8213
11
135.099
21
-93.5231
0
LINE
8
BLACK
6
CONTINUOUS
10
135.099
20
-93.5231
11
135.303
21
-93.2799
0
LINE
8
BLACK
6
CONTINUOUS
10
135.303
20
-93.2799
11
135.577
21
-93.1212
0
LINE
8
BLACK
6
CONTINUOUS
10
135.577
20
-93.1212
11
135.89
21
-93.0661
0
LINE
8
BLACK
6
CONTINUOUS
10
135.89
20
-93.0661
11
136.203
21
-93.1212
0
LINE
8
BLACK
6
CONTINUOUS
10
175.555
20
-93.2324
11
175.815
21
-93.3823
0
LINE
8
BLACK
6
CONTINUOUS
10
175.815
20
-93.3823
11
176.007
21
-93.6119
0
LINE
8
BLACK
6
CONTINUOUS
10
176.007
20
-93.6119
11
176.11
21
-93.8936
0
LINE
8
BLACK
6
CONTINUOUS
10
176.11
20
-93.8936
11
176.11
21
-94.1934
0
LINE
8
BLACK
6
CONTINUOUS
10
176.11
20
-94.1934
11
176.007
21
-94.4751
0
LINE
8
BLACK
6
CONTINUOUS
10
176.007
20
-94.4751
11
175.815
21
-94.7047
0
LINE
8
BLACK
6
CONTINUOUS
10
175.815
20
-94.7047
11
175.555
21
-94.8546
0
LINE
8
BLACK
6
CONTINUOUS
10
175.555
20
-94.8546
11
175.334
21
-94.8935
0
LINE
8
BLACK
6
CONTINUOUS
10
175.334
20
-94.8935
11
175.186
21
-94.8935
0
LINE
8
BLACK
6
CONTINUOUS
10
175.186
20
-94.8935
11
174.965
21
-94.8546
0
LINE
8
BLACK
6
CONTINUOUS
10
174.965
20
-94.8546
11
174.705
21
-94.7047
0
LINE
8
BLACK
6
CONTINUOUS
10
174.705
20
-94.7047
11
174.513
21
-94.4751
0
LINE
8
BLACK
6
CONTINUOUS
10
174.513
20
-94.4751
11
174.41
21
-94.1934
0
LINE
8
BLACK
6
CONTINUOUS
10
174.41
20
-94.1934
11
174.41
21
-93.8936
0
LINE
8
BLACK
6
CONTINUOUS
10
174.41
20
-93.8936
11
174.513
21
-93.6119
0
LINE
8
BLACK
6
CONTINUOUS
10
174.513
20
-93.6119
11
174.705
21
-93.3823
0
LINE
8
BLACK
6
CONTINUOUS
10
174.705
20
-93.3823
11
174.965
21
-93.2324
0
LINE
8
BLACK
6
CONTINUOUS
10
174.965
20
-93.2324
11
175.186
21
-93.1935
0
LINE
8
BLACK
6
CONTINUOUS
10
175.186
20
-93.1935
11
175.334
21
-93.1935
0
LINE
8
BLACK
6
CONTINUOUS
10
175.334
20
-93.1935
11
175.555
21
-93.2324
0
LINE
8
BLACK
6
CONTINUOUS
10
173.015
20
-93.2324
11
173.275
21
-93.3823
0
LINE
8
BLACK
6
CONTINUOUS
10
173.275
20
-93.3823
11
173.467
21
-93.6119
0
LINE
8
BLACK
6
CONTINUOUS
10
173.467
20
-93.6119
11
173.57
21
-93.8936
0
LINE
8
BLACK
6
CONTINUOUS
10
173.57
20
-93.8936
11
173.57
21
-94.1934
0
LINE
8
BLACK
6
CONTINUOUS
10
173.57
20
-94.1934
11
173.467
21
-94.4751
0
LINE
8
BLACK
6
CONTINUOUS
10
173.467
20
-94.4751
11
173.275
21
-94.7047
0
LINE
8
BLACK
6
CONTINUOUS
10
173.275
20
-94.7047
11
173.015
21
-94.8546
0
LINE
8
BLACK
6
CONTINUOUS
10
173.015
20
-94.8546
11
172.794
21
-94.8935
0
LINE
8
BLACK
6
CONTINUOUS
10
172.794
20
-94.8935
11
172.646
21
-94.8935
0
LINE
8
BLACK
6
CONTINUOUS
10
172.646
20
-94.8935
11
172.425
21
-94.8546
0
LINE
8
BLACK
6
CONTINUOUS
10
172.425
20
-94.8546
11
172.165
21
-94.7047
0
LINE
8
BLACK
6
CONTINUOUS
10
172.165
20
-94.7047
11
171.973
21
-94.4751
0
LINE
8
BLACK
6
CONTINUOUS
10
171.973
20
-94.4751
11
171.87
21
-94.1934
0
LINE
8
BLACK
6
CONTINUOUS
10
171.87
20
-94.1934
11
171.87
21
-93.8936
0
LINE
8
BLACK
6
CONTINUOUS
10
171.87
20
-93.8936
11
171.973
21
-93.6119
0
LINE
8
BLACK
6
CONTINUOUS
10
171.973
20
-93.6119
11
172.165
21
-93.3823
0
LINE
8
BLACK
6
CONTINUOUS
10
172.165
20
-93.3823
11
172.425
21
-93.2324
0
LINE
8
BLACK
6
CONTINUOUS
10
172.425
20
-93.2324
11
172.646
21
-93.1935
0
LINE
8
BLACK
6
CONTINUOUS
10
172.646
20
-93.1935
11
172.794
21
-93.1935
0
LINE
8
BLACK
6
CONTINUOUS
10
172.794
20
-93.1935
11
173.015
21
-93.2324
0
LINE
8
BLACK
6
CONTINUOUS
10
170.475
20
-93.2324
11
170.735
21
-93.3823
0
LINE
8
BLACK
6
CONTINUOUS
10
170.735
20
-93.3823
11
170.927
21
-93.6119
0
LINE
8
BLACK
6
CONTINUOUS
10
170.927
20
-93.6119
11
171.03
21
-93.8936
0
LINE
8
BLACK
6
CONTINUOUS
10
171.03
20
-93.8936
11
171.03
21
-94.1934
0
LINE
8
BLACK
6
CONTINUOUS
10
171.03
20
-94.1934
11
170.927
21
-94.4751
0
LINE
8
BLACK
6
CONTINUOUS
10
170.927
20
-94.4751
11
170.735
21
-94.7047
0
LINE
8
BLACK
6
CONTINUOUS
10
170.735
20
-94.7047
11
170.475
21
-94.8546
0
LINE
8
BLACK
6
CONTINUOUS
10
170.475
20
-94.8546
11
170.254
21
-94.8935
0
LINE
8
BLACK
6
CONTINUOUS
10
170.254
20
-94.8935
11
170.106
21
-94.8935
0
LINE
8
BLACK
6
CONTINUOUS
10
170.106
20
-94.8935
11
169.885
21
-94.8546
0
LINE
8
BLACK
6
CONTINUOUS
10
169.885
20
-94.8546
11
169.625
21
-94.7047
0
LINE
8
BLACK
6
CONTINUOUS
10
169.625
20
-94.7047
11
169.433
21
-94.4751
0
LINE
8
BLACK
6
CONTINUOUS
10
169.433
20
-94.4751
11
169.33
21
-94.1934
0
LINE
8
BLACK
6
CONTINUOUS
10
169.33
20
-94.1934
11
169.33
21
-93.8936
0
LINE
8
BLACK
6
CONTINUOUS
10
169.33
20
-93.8936
11
169.433
21
-93.6119
0
LINE
8
BLACK
6
CONTINUOUS
10
169.433
20
-93.6119
11
169.625
21
-93.3823
0
LINE
8
BLACK
6
CONTINUOUS
10
169.625
20
-93.3823
11
169.885
21
-93.2324
0
LINE
8
BLACK
6
CONTINUOUS
10
169.885
20
-93.2324
11
170.106
21
-93.1935
0
LINE
8
BLACK
6
CONTINUOUS
10
170.106
20
-93.1935
11
170.254
21
-93.1935
0
LINE
8
BLACK
6
CONTINUOUS
10
170.254
20
-93.1935
11
170.475
21
-93.2324
0
LINE
8
BLACK
6
CONTINUOUS
10
167.935
20
-93.2324
11
168.195
21
-93.3823
0
LINE
8
BLACK
6
CONTINUOUS
10
168.195
20
-93.3823
11
168.387
21
-93.6119
0
LINE
8
BLACK
6
CONTINUOUS
10
168.387
20
-93.6119
11
168.49
21
-93.8936
0
LINE
8
BLACK
6
CONTINUOUS
10
168.49
20
-93.8936
11
168.49
21
-94.1934
0
LINE
8
BLACK
6
CONTINUOUS
10
168.49
20
-94.1934
11
168.387
21
-94.4751
0
LINE
8
BLACK
6
CONTINUOUS
10
168.387
20
-94.4751
11
168.195
21
-94.7047
0
LINE
8
BLACK
6
CONTINUOUS
10
168.195
20
-94.7047
11
167.935
21
-94.8546
0
LINE
8
BLACK
6
CONTINUOUS
10
167.935
20
-94.8546
11
167.714
21
-94.8935
0
LINE
8
BLACK
6
CONTINUOUS
10
167.714
20
-94.8935
11
167.566
21
-94.8935
0
LINE
8
BLACK
6
CONTINUOUS
10
167.566
20
-94.8935
11
167.345
21
-94.8546
0
LINE
8
BLACK
6
CONTINUOUS
10
167.345
20
-94.8546
11
167.085
21
-94.7047
0
LINE
8
BLACK
6
CONTINUOUS
10
167.085
20
-94.7047
11
166.893
21
-94.4751
0
LINE
8
BLACK
6
CONTINUOUS
10
166.893
20
-94.4751
11
166.79
21
-94.1934
0
LINE
8
BLACK
6
CONTINUOUS
10
166.79
20
-94.1934
11
166.79
21
-93.8936
0
LINE
8
BLACK
6
CONTINUOUS
10
166.79
20
-93.8936
11
166.893
21
-93.6119
0
LINE
8
BLACK
6
CONTINUOUS
10
166.893
20
-93.6119
11
167.085
21
-93.3823
0
LINE
8
BLACK
6
CONTINUOUS
10
167.085
20
-93.3823
11
167.345
21
-93.2324
0
LINE
8
BLACK
6
CONTINUOUS
10
167.345
20
-93.2324
11
167.566
21
-93.1935
0
LINE
8
BLACK
6
CONTINUOUS
10
167.566
20
-93.1935
11
167.714
21
-93.1935
0
LINE
8
BLACK
6
CONTINUOUS
10
167.714
20
-93.1935
11
167.935
21
-93.2324
0
LINE
8
BLACK
6
CONTINUOUS
10
165.395
20
-93.2324
11
165.655
21
-93.3823
0
LINE
8
BLACK
6
CONTINUOUS
10
165.655
20
-93.3823
11
165.847
21
-93.6119
0
LINE
8
BLACK
6
CONTINUOUS
10
165.847
20
-93.6119
11
165.95
21
-93.8936
0
LINE
8
BLACK
6
CONTINUOUS
10
165.95
20
-93.8936
11
165.95
21
-94.1934
0
LINE
8
BLACK
6
CONTINUOUS
10
165.95
20
-94.1934
11
165.847
21
-94.4751
0
LINE
8
BLACK
6
CONTINUOUS
10
165.847
20
-94.4751
11
165.655
21
-94.7047
0
LINE
8
BLACK
6
CONTINUOUS
10
165.655
20
-94.7047
11
165.395
21
-94.8546
0
LINE
8
BLACK
6
CONTINUOUS
10
165.395
20
-94.8546
11
165.174
21
-94.8935
0
LINE
8
BLACK
6
CONTINUOUS
10
165.174
20
-94.8935
11
165.026
21
-94.8935
0
LINE
8
BLACK
6
CONTINUOUS
10
165.026
20
-94.8935
11
164.805
21
-94.8546
0
LINE
8
BLACK
6
CONTINUOUS
10
164.805
20
-94.8546
11
164.545
21
-94.7047
0
LINE
8
BLACK
6
CONTINUOUS
10
164.545
20
-94.7047
11
164.353
21
-94.4751
0
LINE
8
BLACK
6
CONTINUOUS
10
164.353
20
-94.4751
11
164.25
21
-94.1934
0
LINE
8
BLACK
6
CONTINUOUS
10
164.25
20
-94.1934
11
164.25
21
-93.8936
0
LINE
8
BLACK
6
CONTINUOUS
10
164.25
20
-93.8936
11
164.353
21
-93.6119
0
LINE
8
BLACK
6
CONTINUOUS
10
164.353
20
-93.6119
11
164.545
21
-93.3823
0
LINE
8
BLACK
6
CONTINUOUS
10
164.545
20
-93.3823
11
164.805
21
-93.2324
0
LINE
8
BLACK
6
CONTINUOUS
10
164.805
20
-93.2324
11
165.026
21
-93.1935
0
LINE
8
BLACK
6
CONTINUOUS
10
165.026
20
-93.1935
11
165.174
21
-93.1935
0
LINE
8
BLACK
6
CONTINUOUS
10
165.174
20
-93.1935
11
165.395
21
-93.2324
0
LINE
8
BLACK
6
CONTINUOUS
10
162.855
20
-93.2324
11
163.115
21
-93.3823
0
LINE
8
BLACK
6
CONTINUOUS
10
163.115
20
-93.3823
11
163.307
21
-93.6119
0
LINE
8
BLACK
6
CONTINUOUS
10
163.307
20
-93.6119
11
163.41
21
-93.8936
0
LINE
8
BLACK
6
CONTINUOUS
10
163.41
20
-93.8936
11
163.41
21
-94.1934
0
LINE
8
BLACK
6
CONTINUOUS
10
163.41
20
-94.1934
11
163.307
21
-94.4751
0
LINE
8
BLACK
6
CONTINUOUS
10
163.307
20
-94.4751
11
163.115
21
-94.7047
0
LINE
8
BLACK
6
CONTINUOUS
10
163.115
20
-94.7047
11
162.855
21
-94.8546
0
LINE
8
BLACK
6
CONTINUOUS
10
162.855
20
-94.8546
11
162.634
21
-94.8935
0
LINE
8
BLACK
6
CONTINUOUS
10
162.634
20
-94.8935
11
162.486
21
-94.8935
0
LINE
8
BLACK
6
CONTINUOUS
10
162.486
20
-94.8935
11
162.265
21
-94.8546
0
LINE
8
BLACK
6
CONTINUOUS
10
162.265
20
-94.8546
11
162.005
21
-94.7047
0
LINE
8
BLACK
6
CONTINUOUS
10
162.005
20
-94.7047
11
161.813
21
-94.4751
0
LINE
8
BLACK
6
CONTINUOUS
10
161.813
20
-94.4751
11
161.71
21
-94.1934
0
LINE
8
BLACK
6
CONTINUOUS
10
161.71
20
-94.1934
11
161.71
21
-93.8936
0
LINE
8
BLACK
6
CONTINUOUS
10
161.71
20
-93.8936
11
161.813
21
-93.6119
0
LINE
8
BLACK
6
CONTINUOUS
10
161.813
20
-93.6119
11
162.005
21
-93.3823
0
LINE
8
BLACK
6
CONTINUOUS
10
162.005
20
-93.3823
11
162.265
21
-93.2324
0
LINE
8
BLACK
6
CONTINUOUS
10
162.265
20
-93.2324
11
162.486
21
-93.1935
0
LINE
8
BLACK
6
CONTINUOUS
10
162.486
20
-93.1935
11
162.634
21
-93.1935
0
LINE
8
BLACK
6
CONTINUOUS
10
162.634
20
-93.1935
11
162.855
21
-93.2324
0
LINE
8
BLACK
6
CONTINUOUS
10
160.315
20
-93.2324
11
160.575
21
-93.3823
0
LINE
8
BLACK
6
CONTINUOUS
10
160.575
20
-93.3823
11
160.767
21
-93.6119
0
LINE
8
BLACK
6
CONTINUOUS
10
160.767
20
-93.6119
11
160.87
21
-93.8936
0
LINE
8
BLACK
6
CONTINUOUS
10
160.87
20
-93.8936
11
160.87
21
-94.1934
0
LINE
8
BLACK
6
CONTINUOUS
10
160.87
20
-94.1934
11
160.767
21
-94.4751
0
LINE
8
BLACK
6
CONTINUOUS
10
160.767
20
-94.4751
11
160.575
21
-94.7047
0
LINE
8
BLACK
6
CONTINUOUS
10
160.575
20
-94.7047
11
160.315
21
-94.8546
0
LINE
8
BLACK
6
CONTINUOUS
10
160.315
20
-94.8546
11
160.094
21
-94.8935
0
LINE
8
BLACK
6
CONTINUOUS
10
160.094
20
-94.8935
11
159.946
21
-94.8935
0
LINE
8
BLACK
6
CONTINUOUS
10
159.946
20
-94.8935
11
159.725
21
-94.8546
0
LINE
8
BLACK
6
CONTINUOUS
10
159.725
20
-94.8546
11
159.465
21
-94.7047
0
LINE
8
BLACK
6
CONTINUOUS
10
159.465
20
-94.7047
11
159.273
21
-94.4751
0
LINE
8
BLACK
6
CONTINUOUS
10
159.273
20
-94.4751
11
159.17
21
-94.1934
0
LINE
8
BLACK
6
CONTINUOUS
10
159.17
20
-94.1934
11
159.17
21
-93.8936
0
LINE
8
BLACK
6
CONTINUOUS
10
159.17
20
-93.8936
11
159.273
21
-93.6119
0
LINE
8
BLACK
6
CONTINUOUS
10
159.273
20
-93.6119
11
159.465
21
-93.3823
0
LINE
8
BLACK
6
CONTINUOUS
10
159.465
20
-93.3823
11
159.725
21
-93.2324
0
LINE
8
BLACK
6
CONTINUOUS
10
159.725
20
-93.2324
11
159.946
21
-93.1935
0
LINE
8
BLACK
6
CONTINUOUS
10
159.946
20
-93.1935
11
160.094
21
-93.1935
0
LINE
8
BLACK
6
CONTINUOUS
10
160.094
20
-93.1935
11
160.315
21
-93.2324
0
LINE
8
BLACK
6
CONTINUOUS
10
157.775
20
-93.2324
11
158.035
21
-93.3823
0
LINE
8
BLACK
6
CONTINUOUS
10
158.035
20
-93.3823
11
158.227
21
-93.6119
0
LINE
8
BLACK
6
CONTINUOUS
10
158.227
20
-93.6119
11
158.33
21
-93.8936
0
LINE
8
BLACK
6
CONTINUOUS
10
158.33
20
-93.8936
11
158.33
21
-94.1934
0
LINE
8
BLACK
6
CONTINUOUS
10
158.33
20
-94.1934
11
158.227
21
-94.4751
0
LINE
8
BLACK
6
CONTINUOUS
10
158.227
20
-94.4751
11
158.035
21
-94.7047
0
LINE
8
BLACK
6
CONTINUOUS
10
158.035
20
-94.7047
11
157.775
21
-94.8546
0
LINE
8
BLACK
6
CONTINUOUS
10
157.775
20
-94.8546
11
157.554
21
-94.8935
0
LINE
8
BLACK
6
CONTINUOUS
10
157.554
20
-94.8935
11
157.406
21
-94.8935
0
LINE
8
BLACK
6
CONTINUOUS
10
157.406
20
-94.8935
11
157.185
21
-94.8546
0
LINE
8
BLACK
6
CONTINUOUS
10
157.185
20
-94.8546
11
156.925
21
-94.7047
0
LINE
8
BLACK
6
CONTINUOUS
10
156.925
20
-94.7047
11
156.733
21
-94.4751
0
LINE
8
BLACK
6
CONTINUOUS
10
156.733
20
-94.4751
11
156.63
21
-94.1934
0
LINE
8
BLACK
6
CONTINUOUS
10
156.63
20
-94.1934
11
156.63
21
-93.8936
0
LINE
8
BLACK
6
CONTINUOUS
10
156.63
20
-93.8936
11
156.733
21
-93.6119
0
LINE
8
BLACK
6
CONTINUOUS
10
156.733
20
-93.6119
11
156.925
21
-93.3823
0
LINE
8
BLACK
6
CONTINUOUS
10
156.925
20
-93.3823
11
157.185
21
-93.2324
0
LINE
8
BLACK
6
CONTINUOUS
10
157.185
20
-93.2324
11
157.406
21
-93.1935
0
LINE
8
BLACK
6
CONTINUOUS
10
157.406
20
-93.1935
11
157.554
21
-93.1935
0
LINE
8
BLACK
6
CONTINUOUS
10
157.554
20
-93.1935
11
157.775
21
-93.2324
0
LINE
8
BLACK
6
CONTINUOUS
10
155.235
20
-93.2324
11
155.495
21
-93.3823
0
LINE
8
BLACK
6
CONTINUOUS
10
155.495
20
-93.3823
11
155.687
21
-93.6119
0
LINE
8
BLACK
6
CONTINUOUS
10
155.687
20
-93.6119
11
155.79
21
-93.8936
0
LINE
8
BLACK
6
CONTINUOUS
10
155.79
20
-93.8936
11
155.79
21
-94.1934
0
LINE
8
BLACK
6
CONTINUOUS
10
155.79
20
-94.1934
11
155.687
21
-94.4751
0
LINE
8
BLACK
6
CONTINUOUS
10
155.687
20
-94.4751
11
155.495
21
-94.7047
0
LINE
8
BLACK
6
CONTINUOUS
10
155.495
20
-94.7047
11
155.235
21
-94.8546
0
LINE
8
BLACK
6
CONTINUOUS
10
155.235
20
-94.8546
11
155.014
21
-94.8935
0
LINE
8
BLACK
6
CONTINUOUS
10
155.014
20
-94.8935
11
154.866
21
-94.8935
0
LINE
8
BLACK
6
CONTINUOUS
10
154.866
20
-94.8935
11
154.645
21
-94.8546
0
LINE
8
BLACK
6
CONTINUOUS
10
154.645
20
-94.8546
11
154.385
21
-94.7047
0
LINE
8
BLACK
6
CONTINUOUS
10
154.385
20
-94.7047
11
154.193
21
-94.4751
0
LINE
8
BLACK
6
CONTINUOUS
10
154.193
20
-94.4751
11
154.09
21
-94.1934
0
LINE
8
BLACK
6
CONTINUOUS
10
154.09
20
-94.1934
11
154.09
21
-93.8936
0
LINE
8
BLACK
6
CONTINUOUS
10
154.09
20
-93.8936
11
154.193
21
-93.6119
0
LINE
8
BLACK
6
CONTINUOUS
10
154.193
20
-93.6119
11
154.385
21
-93.3823
0
LINE
8
BLACK
6
CONTINUOUS
10
154.385
20
-93.3823
11
154.645
21
-93.2324
0
LINE
8
BLACK
6
CONTINUOUS
10
154.645
20
-93.2324
11
154.866
21
-93.1935
0
LINE
8
BLACK
6
CONTINUOUS
10
154.866
20
-93.1935
11
155.014
21
-93.1935
0
LINE
8
BLACK
6
CONTINUOUS
10
155.014
20
-93.1935
11
155.235
21
-93.2324
0
LINE
8
BLACK
6
CONTINUOUS
10
152.695
20
-93.2324
11
152.955
21
-93.3823
0
LINE
8
BLACK
6
CONTINUOUS
10
152.955
20
-93.3823
11
153.147
21
-93.6119
0
LINE
8
BLACK
6
CONTINUOUS
10
153.147
20
-93.6119
11
153.25
21
-93.8936
0
LINE
8
BLACK
6
CONTINUOUS
10
153.25
20
-93.8936
11
153.25
21
-94.1934
0
LINE
8
BLACK
6
CONTINUOUS
10
153.25
20
-94.1934
11
153.147
21
-94.4751
0
LINE
8
BLACK
6
CONTINUOUS
10
153.147
20
-94.4751
11
152.955
21
-94.7047
0
LINE
8
BLACK
6
CONTINUOUS
10
152.955
20
-94.7047
11
152.695
21
-94.8546
0
LINE
8
BLACK
6
CONTINUOUS
10
152.695
20
-94.8546
11
152.474
21
-94.8935
0
LINE
8
BLACK
6
CONTINUOUS
10
152.474
20
-94.8935
11
152.326
21
-94.8935
0
LINE
8
BLACK
6
CONTINUOUS
10
152.326
20
-94.8935
11
152.105
21
-94.8546
0
LINE
8
BLACK
6
CONTINUOUS
10
152.105
20
-94.8546
11
151.845
21
-94.7047
0
LINE
8
BLACK
6
CONTINUOUS
10
151.845
20
-94.7047
11
151.653
21
-94.4751
0
LINE
8
BLACK
6
CONTINUOUS
10
151.653
20
-94.4751
11
151.55
21
-94.1934
0
LINE
8
BLACK
6
CONTINUOUS
10
151.55
20
-94.1934
11
151.55
21
-93.8936
0
LINE
8
BLACK
6
CONTINUOUS
10
151.55
20
-93.8936
11
151.653
21
-93.6119
0
LINE
8
BLACK
6
CONTINUOUS
10
151.653
20
-93.6119
11
151.845
21
-93.3823
0
LINE
8
BLACK
6
CONTINUOUS
10
151.845
20
-93.3823
11
152.105
21
-93.2324
0
LINE
8
BLACK
6
CONTINUOUS
10
152.105
20
-93.2324
11
152.326
21
-93.1935
0
LINE
8
BLACK
6
CONTINUOUS
10
152.326
20
-93.1935
11
152.474
21
-93.1935
0
LINE
8
BLACK
6
CONTINUOUS
10
152.474
20
-93.1935
11
152.695
21
-93.2324
0
LINE
8
BLACK
6
CONTINUOUS
10
150.155
20
-93.2324
11
150.415
21
-93.3823
0
LINE
8
BLACK
6
CONTINUOUS
10
150.415
20
-93.3823
11
150.607
21
-93.6119
0
LINE
8
BLACK
6
CONTINUOUS
10
150.607
20
-93.6119
11
150.71
21
-93.8936
0
LINE
8
BLACK
6
CONTINUOUS
10
150.71
20
-93.8936
11
150.71
21
-94.1934
0
LINE
8
BLACK
6
CONTINUOUS
10
150.71
20
-94.1934
11
150.607
21
-94.4751
0
LINE
8
BLACK
6
CONTINUOUS
10
150.607
20
-94.4751
11
150.415
21
-94.7047
0
LINE
8
BLACK
6
CONTINUOUS
10
150.415
20
-94.7047
11
150.155
21
-94.8546
0
LINE
8
BLACK
6
CONTINUOUS
10
150.155
20
-94.8546
11
149.934
21
-94.8935
0
LINE
8
BLACK
6
CONTINUOUS
10
149.934
20
-94.8935
11
149.786
21
-94.8935
0
LINE
8
BLACK
6
CONTINUOUS
10
149.786
20
-94.8935
11
149.565
21
-94.8546
0
LINE
8
BLACK
6
CONTINUOUS
10
149.565
20
-94.8546
11
149.305
21
-94.7047
0
LINE
8
BLACK
6
CONTINUOUS
10
149.305
20
-94.7047
11
149.113
21
-94.4751
0
LINE
8
BLACK
6
CONTINUOUS
10
149.113
20
-94.4751
11
149.01
21
-94.1934
0
LINE
8
BLACK
6
CONTINUOUS
10
149.01
20
-94.1934
11
149.01
21
-93.8936
0
LINE
8
BLACK
6
CONTINUOUS
10
149.01
20
-93.8936
11
149.113
21
-93.6119
0
LINE
8
BLACK
6
CONTINUOUS
10
149.113
20
-93.6119
11
149.305
21
-93.3823
0
LINE
8
BLACK
6
CONTINUOUS
10
149.305
20
-93.3823
11
149.565
21
-93.2324
0
LINE
8
BLACK
6
CONTINUOUS
10
149.565
20
-93.2324
11
149.786
21
-93.1935
0
LINE
8
BLACK
6
CONTINUOUS
10
149.786
20
-93.1935
11
149.934
21
-93.1935
0
LINE
8
BLACK
6
CONTINUOUS
10
149.934
20
-93.1935
11
150.155
21
-93.2324
0
LINE
8
BLACK
6
CONTINUOUS
10
147.615
20
-93.2324
11
147.875
21
-93.3823
0
LINE
8
BLACK
6
CONTINUOUS
10
147.875
20
-93.3823
11
148.067
21
-93.6119
0
LINE
8
BLACK
6
CONTINUOUS
10
148.067
20
-93.6119
11
148.17
21
-93.8936
0
LINE
8
BLACK
6
CONTINUOUS
10
148.17
20
-93.8936
11
148.17
21
-94.1934
0
LINE
8
BLACK
6
CONTINUOUS
10
148.17
20
-94.1934
11
148.067
21
-94.4751
0
LINE
8
BLACK
6
CONTINUOUS
10
148.067
20
-94.4751
11
147.875
21
-94.7047
0
LINE
8
BLACK
6
CONTINUOUS
10
147.875
20
-94.7047
11
147.615
21
-94.8546
0
LINE
8
BLACK
6
CONTINUOUS
10
147.615
20
-94.8546
11
147.394
21
-94.8935
0
LINE
8
BLACK
6
CONTINUOUS
10
147.394
20
-94.8935
11
147.246
21
-94.8935
0
LINE
8
BLACK
6
CONTINUOUS
10
147.246
20
-94.8935
11
147.025
21
-94.8546
0
LINE
8
BLACK
6
CONTINUOUS
10
147.025
20
-94.8546
11
146.765
21
-94.7047
0
LINE
8
BLACK
6
CONTINUOUS
10
146.765
20
-94.7047
11
146.573
21
-94.4751
0
LINE
8
BLACK
6
CONTINUOUS
10
146.573
20
-94.4751
11
146.47
21
-94.1934
0
LINE
8
BLACK
6
CONTINUOUS
10
146.47
20
-94.1934
11
146.47
21
-93.8936
0
LINE
8
BLACK
6
CONTINUOUS
10
146.47
20
-93.8936
11
146.573
21
-93.6119
0
LINE
8
BLACK
6
CONTINUOUS
10
146.573
20
-93.6119
11
146.765
21
-93.3823
0
LINE
8
BLACK
6
CONTINUOUS
10
146.765
20
-93.3823
11
147.025
21
-93.2324
0
LINE
8
BLACK
6
CONTINUOUS
10
147.025
20
-93.2324
11
147.246
21
-93.1935
0
LINE
8
BLACK
6
CONTINUOUS
10
147.246
20
-93.1935
11
147.394
21
-93.1935
0
LINE
8
BLACK
6
CONTINUOUS
10
147.394
20
-93.1935
11
147.615
21
-93.2324
0
LINE
8
BLACK
6
CONTINUOUS
10
145.075
20
-93.2324
11
145.335
21
-93.3823
0
LINE
8
BLACK
6
CONTINUOUS
10
145.335
20
-93.3823
11
145.527
21
-93.6119
0
LINE
8
BLACK
6
CONTINUOUS
10
145.527
20
-93.6119
11
145.63
21
-93.8936
0
LINE
8
BLACK
6
CONTINUOUS
10
145.63
20
-93.8936
11
145.63
21
-94.1934
0
LINE
8
BLACK
6
CONTINUOUS
10
145.63
20
-94.1934
11
145.527
21
-94.4751
0
LINE
8
BLACK
6
CONTINUOUS
10
145.527
20
-94.4751
11
145.335
21
-94.7047
0
LINE
8
BLACK
6
CONTINUOUS
10
145.335
20
-94.7047
11
145.075
21
-94.8546
0
LINE
8
BLACK
6
CONTINUOUS
10
145.075
20
-94.8546
11
144.854
21
-94.8935
0
LINE
8
BLACK
6
CONTINUOUS
10
144.854
20
-94.8935
11
144.706
21
-94.8935
0
LINE
8
BLACK
6
CONTINUOUS
10
144.706
20
-94.8935
11
144.485
21
-94.8546
0
LINE
8
BLACK
6
CONTINUOUS
10
144.485
20
-94.8546
11
144.225
21
-94.7047
0
LINE
8
BLACK
6
CONTINUOUS
10
144.225
20
-94.7047
11
144.033
21
-94.4751
0
LINE
8
BLACK
6
CONTINUOUS
10
144.033
20
-94.4751
11
143.93
21
-94.1934
0
LINE
8
BLACK
6
CONTINUOUS
10
143.93
20
-94.1934
11
143.93
21
-93.8936
0
LINE
8
BLACK
6
CONTINUOUS
10
143.93
20
-93.8936
11
144.033
21
-93.6119
0
LINE
8
BLACK
6
CONTINUOUS
10
144.033
20
-93.6119
11
144.225
21
-93.3823
0
LINE
8
BLACK
6
CONTINUOUS
10
144.225
20
-93.3823
11
144.485
21
-93.2324
0
LINE
8
BLACK
6
CONTINUOUS
10
144.485
20
-93.2324
11
144.706
21
-93.1935
0
LINE
8
BLACK
6
CONTINUOUS
10
144.706
20
-93.1935
11
144.854
21
-93.1935
0
LINE
8
BLACK
6
CONTINUOUS
10
144.854
20
-93.1935
11
145.075
21
-93.2324
0
LINE
8
BLACK
6
CONTINUOUS
10
143.09
20
-94.8935
11
141.39
21
-94.8935
0
LINE
8
BLACK
6
CONTINUOUS
10
141.39
20
-94.8935
11
141.39
21
-93.1935
0
LINE
8
BLACK
6
CONTINUOUS
10
141.39
20
-93.1935
11
143.09
21
-93.1935
0
LINE
8
BLACK
6
CONTINUOUS
10
143.09
20
-93.1935
11
143.09
21
-94.8935
0
LINE
8
BLACK
6
CONTINUOUS
10
178.095
20
-93.2324
11
178.355
21
-93.3823
0
LINE
8
BLACK
6
CONTINUOUS
10
178.355
20
-93.3823
11
178.547
21
-93.6119
0
LINE
8
BLACK
6
CONTINUOUS
10
178.547
20
-93.6119
11
178.65
21
-93.8936
0
LINE
8
BLACK
6
CONTINUOUS
10
178.65
20
-93.8936
11
178.65
21
-94.1934
0
LINE
8
BLACK
6
CONTINUOUS
10
178.65
20
-94.1934
11
178.547
21
-94.4751
0
LINE
8
BLACK
6
CONTINUOUS
10
178.547
20
-94.4751
11
178.355
21
-94.7047
0
LINE
8
BLACK
6
CONTINUOUS
10
178.355
20
-94.7047
11
178.095
21
-94.8546
0
LINE
8
BLACK
6
CONTINUOUS
10
178.095
20
-94.8546
11
177.874
21
-94.8935
0
LINE
8
BLACK
6
CONTINUOUS
10
177.874
20
-94.8935
11
177.726
21
-94.8935
0
LINE
8
BLACK
6
CONTINUOUS
10
177.726
20
-94.8935
11
177.505
21
-94.8546
0
LINE
8
BLACK
6
CONTINUOUS
10
177.505
20
-94.8546
11
177.245
21
-94.7047
0
LINE
8
BLACK
6
CONTINUOUS
10
177.245
20
-94.7047
11
177.053
21
-94.4751
0
LINE
8
BLACK
6
CONTINUOUS
10
177.053
20
-94.4751
11
176.95
21
-94.1934
0
LINE
8
BLACK
6
CONTINUOUS
10
176.95
20
-94.1934
11
176.95
21
-93.8936
0
LINE
8
BLACK
6
CONTINUOUS
10
176.95
20
-93.8936
11
177.053
21
-93.6119
0
LINE
8
BLACK
6
CONTINUOUS
10
177.053
20
-93.6119
11
177.245
21
-93.3823
0
LINE
8
BLACK
6
CONTINUOUS
10
177.245
20
-93.3823
11
177.505
21
-93.2324
0
LINE
8
BLACK
6
CONTINUOUS
10
177.505
20
-93.2324
11
177.726
21
-93.1935
0
LINE
8
BLACK
6
CONTINUOUS
10
177.726
20
-93.1935
11
177.874
21
-93.1935
0
LINE
8
BLACK
6
CONTINUOUS
10
177.874
20
-93.1935
11
178.095
21
-93.2324
0
LINE
8
BLACK
6
CONTINUOUS
10
180.635
20
-93.2324
11
180.895
21
-93.3823
0
LINE
8
BLACK
6
CONTINUOUS
10
180.895
20
-93.3823
11
181.087
21
-93.6119
0
LINE
8
BLACK
6
CONTINUOUS
10
181.087
20
-93.6119
11
181.19
21
-93.8936
0
LINE
8
BLACK
6
CONTINUOUS
10
181.19
20
-93.8936
11
181.19
21
-94.1934
0
LINE
8
BLACK
6
CONTINUOUS
10
181.19
20
-94.1934
11
181.087
21
-94.4751
0
LINE
8
BLACK
6
CONTINUOUS
10
181.087
20
-94.4751
11
180.895
21
-94.7047
0
LINE
8
BLACK
6
CONTINUOUS
10
180.895
20
-94.7047
11
180.635
21
-94.8546
0
LINE
8
BLACK
6
CONTINUOUS
10
180.635
20
-94.8546
11
180.414
21
-94.8935
0
LINE
8
BLACK
6
CONTINUOUS
10
180.414
20
-94.8935
11
180.266
21
-94.8935
0
LINE
8
BLACK
6
CONTINUOUS
10
180.266
20
-94.8935
11
180.045
21
-94.8546
0
LINE
8
BLACK
6
CONTINUOUS
10
180.045
20
-94.8546
11
179.785
21
-94.7047
0
LINE
8
BLACK
6
CONTINUOUS
10
179.785
20
-94.7047
11
179.593
21
-94.4751
0
LINE
8
BLACK
6
CONTINUOUS
10
179.593
20
-94.4751
11
179.49
21
-94.1934
0
LINE
8
BLACK
6
CONTINUOUS
10
179.49
20
-94.1934
11
179.49
21
-93.8936
0
LINE
8
BLACK
6
CONTINUOUS
10
179.49
20
-93.8936
11
179.593
21
-93.6119
0
LINE
8
BLACK
6
CONTINUOUS
10
179.593
20
-93.6119
11
179.785
21
-93.3823
0
LINE
8
BLACK
6
CONTINUOUS
10
179.785
20
-93.3823
11
180.045
21
-93.2324
0
LINE
8
BLACK
6
CONTINUOUS
10
180.045
20
-93.2324
11
180.266
21
-93.1935
0
LINE
8
BLACK
6
CONTINUOUS
10
180.266
20
-93.1935
11
180.414
21
-93.1935
0
LINE
8
BLACK
6
CONTINUOUS
10
180.414
20
-93.1935
11
180.635
21
-93.2324
0
LINE
8
BLACK
6
CONTINUOUS
10
183.175
20
-93.2324
11
183.435
21
-93.3823
0
LINE
8
BLACK
6
CONTINUOUS
10
183.435
20
-93.3823
11
183.627
21
-93.6119
0
LINE
8
BLACK
6
CONTINUOUS
10
183.627
20
-93.6119
11
183.73
21
-93.8936
0
LINE
8
BLACK
6
CONTINUOUS
10
183.73
20
-93.8936
11
183.73
21
-94.1934
0
LINE
8
BLACK
6
CONTINUOUS
10
183.73
20
-94.1934
11
183.627
21
-94.4751
0
LINE
8
BLACK
6
CONTINUOUS
10
183.627
20
-94.4751
11
183.435
21
-94.7047
0
LINE
8
BLACK
6
CONTINUOUS
10
183.435
20
-94.7047
11
183.175
21
-94.8546
0
LINE
8
BLACK
6
CONTINUOUS
10
183.175
20
-94.8546
11
182.954
21
-94.8935
0
LINE
8
BLACK
6
CONTINUOUS
10
182.954
20
-94.8935
11
182.806
21
-94.8935
0
LINE
8
BLACK
6
CONTINUOUS
10
182.806
20
-94.8935
11
182.585
21
-94.8546
0
LINE
8
BLACK
6
CONTINUOUS
10
182.585
20
-94.8546
11
182.325
21
-94.7047
0
LINE
8
BLACK
6
CONTINUOUS
10
182.325
20
-94.7047
11
182.133
21
-94.4751
0
LINE
8
BLACK
6
CONTINUOUS
10
182.133
20
-94.4751
11
182.03
21
-94.1934
0
LINE
8
BLACK
6
CONTINUOUS
10
182.03
20
-94.1934
11
182.03
21
-93.8936
0
LINE
8
BLACK
6
CONTINUOUS
10
182.03
20
-93.8936
11
182.133
21
-93.6119
0
LINE
8
BLACK
6
CONTINUOUS
10
182.133
20
-93.6119
11
182.325
21
-93.3823
0
LINE
8
BLACK
6
CONTINUOUS
10
182.325
20
-93.3823
11
182.585
21
-93.2324
0
LINE
8
BLACK
6
CONTINUOUS
10
182.585
20
-93.2324
11
182.806
21
-93.1935
0
LINE
8
BLACK
6
CONTINUOUS
10
182.806
20
-93.1935
11
182.954
21
-93.1935
0
LINE
8
BLACK
6
CONTINUOUS
10
182.954
20
-93.1935
11
183.175
21
-93.2324
0
LINE
8
BLACK
6
CONTINUOUS
10
185.715
20
-93.2324
11
185.975
21
-93.3823
0
LINE
8
BLACK
6
CONTINUOUS
10
185.975
20
-93.3823
11
186.167
21
-93.6119
0
LINE
8
BLACK
6
CONTINUOUS
10
186.167
20
-93.6119
11
186.27
21
-93.8936
0
LINE
8
BLACK
6
CONTINUOUS
10
186.27
20
-93.8936
11
186.27
21
-94.1934
0
LINE
8
BLACK
6
CONTINUOUS
10
186.27
20
-94.1934
11
186.167
21
-94.4751
0
LINE
8
BLACK
6
CONTINUOUS
10
186.167
20
-94.4751
11
185.975
21
-94.7047
0
LINE
8
BLACK
6
CONTINUOUS
10
185.975
20
-94.7047
11
185.715
21
-94.8546
0
LINE
8
BLACK
6
CONTINUOUS
10
185.715
20
-94.8546
11
185.494
21
-94.8935
0
LINE
8
BLACK
6
CONTINUOUS
10
185.494
20
-94.8935
11
185.346
21
-94.8935
0
LINE
8
BLACK
6
CONTINUOUS
10
185.346
20
-94.8935
11
185.125
21
-94.8546
0
LINE
8
BLACK
6
CONTINUOUS
10
185.125
20
-94.8546
11
184.865
21
-94.7047
0
LINE
8
BLACK
6
CONTINUOUS
10
184.865
20
-94.7047
11
184.673
21
-94.4751
0
LINE
8
BLACK
6
CONTINUOUS
10
184.673
20
-94.4751
11
184.57
21
-94.1934
0
LINE
8
BLACK
6
CONTINUOUS
10
184.57
20
-94.1934
11
184.57
21
-93.8936
0
LINE
8
BLACK
6
CONTINUOUS
10
184.57
20
-93.8936
11
184.673
21
-93.6119
0
LINE
8
BLACK
6
CONTINUOUS
10
184.673
20
-93.6119
11
184.865
21
-93.3823
0
LINE
8
BLACK
6
CONTINUOUS
10
184.865
20
-93.3823
11
185.125
21
-93.2324
0
LINE
8
BLACK
6
CONTINUOUS
10
185.125
20
-93.2324
11
185.346
21
-93.1935
0
LINE
8
BLACK
6
CONTINUOUS
10
185.346
20
-93.1935
11
185.494
21
-93.1935
0
LINE
8
BLACK
6
CONTINUOUS
10
185.494
20
-93.1935
11
185.715
21
-93.2324
0
LINE
8
BLACK
6
CONTINUOUS
10
139.33
20
-94.88
11
137.53
21
-94.88
0
LINE
8
BLACK
6
CONTINUOUS
10
137.53
20
-94.88
11
137.53
21
-93.08
0
LINE
8
BLACK
6
CONTINUOUS
10
137.53
20
-93.08
11
139.33
21
-93.08
0
LINE
8
BLACK
6
CONTINUOUS
10
139.33
20
-93.08
11
139.33
21
-94.88
0
LINE
8
BLACK
6
CONTINUOUS
10
116.05
20
-94.1527
11
112.55
21
-94.1527
0
LINE
8
BLACK
6
CONTINUOUS
10
112.55
20
-94.1527
11
112.55
21
-90.6526
0
LINE
8
BLACK
6
CONTINUOUS
10
112.55
20
-90.6526
11
116.05
21
-90.6526
0
LINE
8
BLACK
6
CONTINUOUS
10
116.05
20
-90.6526
11
116.05
21
-94.1527
0
LINE
8
BLACK
6
CONTINUOUS
10
121.5
20
-92.838
11
119.5
21
-92.838
0
LINE
8
BLACK
6
CONTINUOUS
10
119.5
20
-92.838
11
119.5
21
-90.838
0
LINE
8
BLACK
6
CONTINUOUS
10
119.5
20
-90.838
11
121.5
21
-90.838
0
LINE
8
BLACK
6
CONTINUOUS
10
121.5
20
-90.838
11
121.5
21
-92.838
  0
ENDSEC
  0
EOF
