%FSLAX45Y45*%
G04 Gerber Fmt 4.5, Leading zero omitted, Abs format (unit mm)*
G04 Created by KiCad (PCBNEW (5.0.0-rc3-dev)) date 2019 January 29, Tuesday 23:40:17*
%MOMM*%
%LPD*%
G01*
G04 APERTURE LIST*
%ADD10C,0.100000*%
%ADD11C,0.200000*%
%ADD12C,0.300000*%
G04 APERTURE END LIST*
D10*
X10541000Y-13500100D02*
X10541000Y-8940800D01*
X18923000Y-13500100D02*
X18923000Y-8940800D01*
X18796000Y-13627100D02*
X10668000Y-13627100D01*
X10668000Y-8813800D02*
X18796000Y-8813800D01*
X10668000Y-8813800D02*
G75*
G03X10541000Y-8940800I0J-127000D01*
G01*
X10541000Y-13500100D02*
G75*
G03X10668000Y-13627100I127000J0D01*
G01*
X18923000Y-8940800D02*
G75*
G03X18796000Y-8813800I-127000J0D01*
G01*
X18796000Y-13627100D02*
G75*
G03X18923000Y-13500100I0J127000D01*
G01*
D11*
X11664000Y-10673400D02*
X11704000Y-10713400D01*
X11704000Y-10673400D02*
X11664000Y-10713400D01*
X11664000Y-11613200D02*
X11704000Y-11653200D01*
X11704000Y-11613200D02*
X11664000Y-11653200D01*
X11791000Y-12235501D02*
X11831000Y-12275501D01*
X11831000Y-12235501D02*
X11791000Y-12275501D01*
X11867200Y-11638600D02*
X11907200Y-11678600D01*
X11907200Y-11638600D02*
X11867200Y-11678600D01*
X12172000Y-11156000D02*
X12212000Y-11196000D01*
X12212000Y-11156000D02*
X12172000Y-11196000D01*
X12172000Y-12184700D02*
X12212000Y-12224700D01*
X12212000Y-12184700D02*
X12172000Y-12224700D01*
X12426000Y-12375200D02*
X12466000Y-12415200D01*
X12466000Y-12375200D02*
X12426000Y-12415200D01*
X12680000Y-11156000D02*
X12720000Y-11196000D01*
X12720000Y-11156000D02*
X12680000Y-11196000D01*
X13442000Y-12140250D02*
X13482000Y-12180250D01*
X13482000Y-12140250D02*
X13442000Y-12180250D01*
X13442000Y-12578400D02*
X13482000Y-12618400D01*
X13482000Y-12578400D02*
X13442000Y-12618400D01*
X13823000Y-12184700D02*
X13863000Y-12224700D01*
X13863000Y-12184700D02*
X13823000Y-12224700D01*
X13823000Y-12578400D02*
X13863000Y-12618400D01*
X13863000Y-12578400D02*
X13823000Y-12618400D01*
X13950000Y-10673400D02*
X13990000Y-10713400D01*
X13990000Y-10673400D02*
X13950000Y-10713400D01*
X14102400Y-11181400D02*
X14142400Y-11221400D01*
X14142400Y-11181400D02*
X14102400Y-11221400D01*
X14318300Y-13302300D02*
X14358300Y-13342300D01*
X14358300Y-13302300D02*
X14318300Y-13342300D01*
X14331000Y-10673400D02*
X14371000Y-10713400D01*
X14371000Y-10673400D02*
X14331000Y-10713400D01*
X14585000Y-10673400D02*
X14625000Y-10713400D01*
X14625000Y-10673400D02*
X14585000Y-10713400D01*
X14839000Y-9568500D02*
X14879000Y-9608500D01*
X14879000Y-9568500D02*
X14839000Y-9608500D01*
X14839000Y-10673400D02*
X14879000Y-10713400D01*
X14879000Y-10673400D02*
X14839000Y-10713400D01*
X15220000Y-10673400D02*
X15260000Y-10713400D01*
X15260000Y-10673400D02*
X15220000Y-10713400D01*
X15220000Y-11638600D02*
X15260000Y-11678600D01*
X15260000Y-11638600D02*
X15220000Y-11678600D01*
X15347000Y-9568500D02*
X15387000Y-9608500D01*
X15387000Y-9568500D02*
X15347000Y-9608500D01*
X15728000Y-10673400D02*
X15768000Y-10713400D01*
X15768000Y-10673400D02*
X15728000Y-10713400D01*
X15982000Y-10673400D02*
X16022000Y-10713400D01*
X16022000Y-10673400D02*
X15982000Y-10713400D01*
X15982000Y-11638600D02*
X16022000Y-11678600D01*
X16022000Y-11638600D02*
X15982000Y-11678600D01*
X16451900Y-10673400D02*
X16491900Y-10713400D01*
X16491900Y-10673400D02*
X16451900Y-10713400D01*
X16451900Y-11638600D02*
X16491900Y-11678600D01*
X16491900Y-11638600D02*
X16451900Y-11678600D01*
X16490000Y-9759000D02*
X16530000Y-9799000D01*
X16530000Y-9759000D02*
X16490000Y-9799000D01*
X16744000Y-9759000D02*
X16784000Y-9799000D01*
X16784000Y-9759000D02*
X16744000Y-9799000D01*
X16744000Y-10394000D02*
X16784000Y-10434000D01*
X16784000Y-10394000D02*
X16744000Y-10434000D01*
X16744000Y-11638600D02*
X16784000Y-11678600D01*
X16784000Y-11638600D02*
X16744000Y-11678600D01*
X17506000Y-10394000D02*
X17546000Y-10434000D01*
X17546000Y-10394000D02*
X17506000Y-10434000D01*
X17506000Y-11638600D02*
X17546000Y-11678600D01*
X17546000Y-11638600D02*
X17506000Y-11678600D01*
X17506000Y-12502200D02*
X17546000Y-12542200D01*
X17546000Y-12502200D02*
X17506000Y-12542200D01*
X17213100Y-10024999D02*
G75*
G03X17213100Y-10024999I-30000J0D01*
G01*
X15494000Y-9739000D02*
X15494000Y-9819000D01*
X15454000Y-9779000D02*
X15534000Y-9779000D01*
X16256000Y-9739000D02*
X16256000Y-9819000D01*
X16216000Y-9779000D02*
X16296000Y-9779000D01*
X14986000Y-9739000D02*
X14986000Y-9819000D01*
X14946000Y-9779000D02*
X15026000Y-9779000D01*
X15236000Y-9739000D02*
X15236000Y-9819000D01*
X15196000Y-9779000D02*
X15276000Y-9779000D01*
X15748000Y-12253600D02*
X15748000Y-12333600D01*
X15708000Y-12293600D02*
X15788000Y-12293600D01*
X15998000Y-12253600D02*
X15998000Y-12333600D01*
X15958000Y-12293600D02*
X16038000Y-12293600D01*
X17526000Y-9870000D02*
X17526000Y-9950000D01*
X17486000Y-9910000D02*
X17566000Y-9910000D01*
X17526000Y-10120000D02*
X17526000Y-10200000D01*
X17486000Y-10160000D02*
X17566000Y-10160000D01*
X13716000Y-9866000D02*
X13716000Y-9946000D01*
X13676000Y-9906000D02*
X13756000Y-9906000D01*
X14478000Y-9866000D02*
X14478000Y-9946000D01*
X14438000Y-9906000D02*
X14518000Y-9906000D01*
X11458288Y-10442288D02*
X11458288Y-10385712D01*
X11401712Y-10385712D01*
X11401712Y-10442288D01*
X11458288Y-10442288D01*
X11458288Y-11966288D02*
X11458288Y-11909712D01*
X11401712Y-11909712D01*
X11401712Y-11966288D01*
X11458288Y-11966288D01*
X11712288Y-10442288D02*
X11712288Y-10385712D01*
X11655712Y-10385712D01*
X11655712Y-10442288D01*
X11712288Y-10442288D01*
X11712288Y-11966288D02*
X11712288Y-11909712D01*
X11655712Y-11909712D01*
X11655712Y-11966288D01*
X11712288Y-11966288D01*
X11966288Y-10442288D02*
X11966288Y-10385712D01*
X11909712Y-10385712D01*
X11909712Y-10442288D01*
X11966288Y-10442288D01*
X11966288Y-11966288D02*
X11966288Y-11909712D01*
X11909712Y-11909712D01*
X11909712Y-11966288D01*
X11966288Y-11966288D01*
X12220288Y-10442288D02*
X12220288Y-10385712D01*
X12163712Y-10385712D01*
X12163712Y-10442288D01*
X12220288Y-10442288D01*
X12220288Y-11966288D02*
X12220288Y-11909712D01*
X12163712Y-11909712D01*
X12163712Y-11966288D01*
X12220288Y-11966288D01*
X12474288Y-10442288D02*
X12474288Y-10385712D01*
X12417712Y-10385712D01*
X12417712Y-10442288D01*
X12474288Y-10442288D01*
X12474288Y-11966288D02*
X12474288Y-11909712D01*
X12417712Y-11909712D01*
X12417712Y-11966288D01*
X12474288Y-11966288D01*
X12728288Y-10442288D02*
X12728288Y-10385712D01*
X12671712Y-10385712D01*
X12671712Y-10442288D01*
X12728288Y-10442288D01*
X12728288Y-11966288D02*
X12728288Y-11909712D01*
X12671712Y-11909712D01*
X12671712Y-11966288D01*
X12728288Y-11966288D01*
X12982288Y-10442288D02*
X12982288Y-10385712D01*
X12925712Y-10385712D01*
X12925712Y-10442288D01*
X12982288Y-10442288D01*
X12982288Y-11966288D02*
X12982288Y-11909712D01*
X12925712Y-11909712D01*
X12925712Y-11966288D01*
X12982288Y-11966288D01*
X13236288Y-10442288D02*
X13236288Y-10385712D01*
X13179712Y-10385712D01*
X13179712Y-10442288D01*
X13236288Y-10442288D01*
X13236288Y-11966288D02*
X13236288Y-11909712D01*
X13179712Y-11909712D01*
X13179712Y-11966288D01*
X13236288Y-11966288D01*
X13490288Y-10442288D02*
X13490288Y-10385712D01*
X13433712Y-10385712D01*
X13433712Y-10442288D01*
X13490288Y-10442288D01*
X13490288Y-11966288D02*
X13490288Y-11909712D01*
X13433712Y-11909712D01*
X13433712Y-11966288D01*
X13490288Y-11966288D01*
X13744288Y-10442288D02*
X13744288Y-10385712D01*
X13687712Y-10385712D01*
X13687712Y-10442288D01*
X13744288Y-10442288D01*
X13744288Y-11966288D02*
X13744288Y-11909712D01*
X13687712Y-11909712D01*
X13687712Y-11966288D01*
X13744288Y-11966288D01*
X13998288Y-10442288D02*
X13998288Y-10385712D01*
X13941712Y-10385712D01*
X13941712Y-10442288D01*
X13998288Y-10442288D01*
X13998288Y-11966288D02*
X13998288Y-11909712D01*
X13941712Y-11909712D01*
X13941712Y-11966288D01*
X13998288Y-11966288D01*
X14252288Y-10442288D02*
X14252288Y-10385712D01*
X14195712Y-10385712D01*
X14195712Y-10442288D01*
X14252288Y-10442288D01*
X14252288Y-11966288D02*
X14252288Y-11909712D01*
X14195712Y-11909712D01*
X14195712Y-11966288D01*
X14252288Y-11966288D01*
X14506288Y-10442288D02*
X14506288Y-10385712D01*
X14449712Y-10385712D01*
X14449712Y-10442288D01*
X14506288Y-10442288D01*
X14506288Y-11966288D02*
X14506288Y-11909712D01*
X14449712Y-11909712D01*
X14449712Y-11966288D01*
X14506288Y-11966288D01*
X14760288Y-10442288D02*
X14760288Y-10385712D01*
X14703712Y-10385712D01*
X14703712Y-10442288D01*
X14760288Y-10442288D01*
X14760288Y-11966288D02*
X14760288Y-11909712D01*
X14703712Y-11909712D01*
X14703712Y-11966288D01*
X14760288Y-11966288D01*
X15014288Y-10442288D02*
X15014288Y-10385712D01*
X14957712Y-10385712D01*
X14957712Y-10442288D01*
X15014288Y-10442288D01*
X15014288Y-11966288D02*
X15014288Y-11909712D01*
X14957712Y-11909712D01*
X14957712Y-11966288D01*
X15014288Y-11966288D01*
X15268288Y-10442288D02*
X15268288Y-10385712D01*
X15211712Y-10385712D01*
X15211712Y-10442288D01*
X15268288Y-10442288D01*
X15268288Y-11966288D02*
X15268288Y-11909712D01*
X15211712Y-11909712D01*
X15211712Y-11966288D01*
X15268288Y-11966288D01*
X15522288Y-10442288D02*
X15522288Y-10385712D01*
X15465712Y-10385712D01*
X15465712Y-10442288D01*
X15522288Y-10442288D01*
X15522288Y-11966288D02*
X15522288Y-11909712D01*
X15465712Y-11909712D01*
X15465712Y-11966288D01*
X15522288Y-11966288D01*
X15776288Y-10442288D02*
X15776288Y-10385712D01*
X15719712Y-10385712D01*
X15719712Y-10442288D01*
X15776288Y-10442288D01*
X15776288Y-11966288D02*
X15776288Y-11909712D01*
X15719712Y-11909712D01*
X15719712Y-11966288D01*
X15776288Y-11966288D01*
X16030288Y-10442288D02*
X16030288Y-10385712D01*
X15973712Y-10385712D01*
X15973712Y-10442288D01*
X16030288Y-10442288D01*
X16030288Y-11966288D02*
X16030288Y-11909712D01*
X15973712Y-11909712D01*
X15973712Y-11966288D01*
X16030288Y-11966288D01*
X16284288Y-10442288D02*
X16284288Y-10385712D01*
X16227712Y-10385712D01*
X16227712Y-10442288D01*
X16284288Y-10442288D01*
X16284288Y-11966288D02*
X16284288Y-11909712D01*
X16227712Y-11909712D01*
X16227712Y-11966288D01*
X16284288Y-11966288D01*
X13563600Y-9443000D02*
X13608600Y-9398000D01*
X13563600Y-9353000D01*
X13518600Y-9398000D01*
X13563600Y-9443000D01*
X13817600Y-9443000D02*
X13862600Y-9398000D01*
X13817600Y-9353000D01*
X13772600Y-9398000D01*
X13817600Y-9443000D01*
X14174000Y-9354350D02*
X14274000Y-9454350D01*
X14274000Y-9354350D02*
X14174000Y-9454350D01*
X14274000Y-9404350D02*
G75*
G03X14274000Y-9404350I-50000J0D01*
G01*
X14428000Y-9354350D02*
X14528000Y-9454350D01*
X14528000Y-9354350D02*
X14428000Y-9454350D01*
X14528000Y-9404350D02*
G75*
G03X14528000Y-9404350I-50000J0D01*
G01*
X14682000Y-9354350D02*
X14782000Y-9454350D01*
X14782000Y-9354350D02*
X14682000Y-9454350D01*
X14782000Y-9404350D02*
G75*
G03X14782000Y-9404350I-50000J0D01*
G01*
X14936000Y-9354350D02*
X15036000Y-9454350D01*
X15036000Y-9354350D02*
X14936000Y-9454350D01*
X15036000Y-9404350D02*
G75*
G03X15036000Y-9404350I-50000J0D01*
G01*
X15190000Y-9354350D02*
X15290000Y-9454350D01*
X15290000Y-9354350D02*
X15190000Y-9454350D01*
X15290000Y-9404350D02*
G75*
G03X15290000Y-9404350I-50000J0D01*
G01*
X15444000Y-9354350D02*
X15544000Y-9454350D01*
X15544000Y-9354350D02*
X15444000Y-9454350D01*
X15544000Y-9404350D02*
G75*
G03X15544000Y-9404350I-50000J0D01*
G01*
X15698000Y-9354350D02*
X15798000Y-9454350D01*
X15798000Y-9354350D02*
X15698000Y-9454350D01*
X15798000Y-9404350D02*
G75*
G03X15798000Y-9404350I-50000J0D01*
G01*
X15952000Y-9354350D02*
X16052000Y-9454350D01*
X16052000Y-9354350D02*
X15952000Y-9454350D01*
X16052000Y-9404350D02*
G75*
G03X16052000Y-9404350I-50000J0D01*
G01*
X16206000Y-9354350D02*
X16306000Y-9454350D01*
X16306000Y-9354350D02*
X16206000Y-9454350D01*
X16306000Y-9404350D02*
G75*
G03X16306000Y-9404350I-50000J0D01*
G01*
X16460000Y-9354350D02*
X16560000Y-9454350D01*
X16560000Y-9354350D02*
X16460000Y-9454350D01*
X16560000Y-9404350D02*
G75*
G03X16560000Y-9404350I-50000J0D01*
G01*
X16714000Y-9354350D02*
X16814000Y-9454350D01*
X16814000Y-9354350D02*
X16714000Y-9454350D01*
X16814000Y-9404350D02*
G75*
G03X16814000Y-9404350I-50000J0D01*
G01*
X16968000Y-9354350D02*
X17068000Y-9454350D01*
X17068000Y-9354350D02*
X16968000Y-9454350D01*
X17068000Y-9404350D02*
G75*
G03X17068000Y-9404350I-50000J0D01*
G01*
X17222000Y-9354350D02*
X17322000Y-9454350D01*
X17322000Y-9354350D02*
X17222000Y-9454350D01*
X17322000Y-9404350D02*
G75*
G03X17322000Y-9404350I-50000J0D01*
G01*
X17476000Y-9354350D02*
X17576000Y-9454350D01*
X17576000Y-9354350D02*
X17476000Y-9454350D01*
X17576000Y-9404350D02*
G75*
G03X17576000Y-9404350I-50000J0D01*
G01*
X17730000Y-9354350D02*
X17830000Y-9454350D01*
X17830000Y-9354350D02*
X17730000Y-9454350D01*
X17830000Y-9404350D02*
G75*
G03X17830000Y-9404350I-50000J0D01*
G01*
X17984000Y-9354350D02*
X18084000Y-9454350D01*
X18084000Y-9354350D02*
X17984000Y-9454350D01*
X18084000Y-9404350D02*
G75*
G03X18084000Y-9404350I-50000J0D01*
G01*
X18238000Y-9354350D02*
X18338000Y-9454350D01*
X18338000Y-9354350D02*
X18238000Y-9454350D01*
X18338000Y-9404350D02*
G75*
G03X18338000Y-9404350I-50000J0D01*
G01*
X18492000Y-9354350D02*
X18592000Y-9454350D01*
X18592000Y-9354350D02*
X18492000Y-9454350D01*
X18592000Y-9404350D02*
G75*
G03X18592000Y-9404350I-50000J0D01*
G01*
X11634000Y-12777000D02*
X11734000Y-12877000D01*
X11734000Y-12777000D02*
X11634000Y-12877000D01*
X11734000Y-12827000D02*
G75*
G03X11734000Y-12827000I-50000J0D01*
G01*
X11634000Y-13031000D02*
X11734000Y-13131000D01*
X11734000Y-13031000D02*
X11634000Y-13131000D01*
X11734000Y-13081000D02*
G75*
G03X11734000Y-13081000I-50000J0D01*
G01*
X11888000Y-12777000D02*
X11988000Y-12877000D01*
X11988000Y-12777000D02*
X11888000Y-12877000D01*
X11988000Y-12827000D02*
G75*
G03X11988000Y-12827000I-50000J0D01*
G01*
X11888000Y-13031000D02*
X11988000Y-13131000D01*
X11988000Y-13031000D02*
X11888000Y-13131000D01*
X11988000Y-13081000D02*
G75*
G03X11988000Y-13081000I-50000J0D01*
G01*
X12142000Y-12777000D02*
X12242000Y-12877000D01*
X12242000Y-12777000D02*
X12142000Y-12877000D01*
X12242000Y-12827000D02*
G75*
G03X12242000Y-12827000I-50000J0D01*
G01*
X12142000Y-13031000D02*
X12242000Y-13131000D01*
X12242000Y-13031000D02*
X12142000Y-13131000D01*
X12242000Y-13081000D02*
G75*
G03X12242000Y-13081000I-50000J0D01*
G01*
X12396000Y-12777000D02*
X12496000Y-12877000D01*
X12496000Y-12777000D02*
X12396000Y-12877000D01*
X12496000Y-12827000D02*
G75*
G03X12496000Y-12827000I-50000J0D01*
G01*
X12396000Y-13031000D02*
X12496000Y-13131000D01*
X12496000Y-13031000D02*
X12396000Y-13131000D01*
X12496000Y-13081000D02*
G75*
G03X12496000Y-13081000I-50000J0D01*
G01*
X12650000Y-12777000D02*
X12750000Y-12877000D01*
X12750000Y-12777000D02*
X12650000Y-12877000D01*
X12750000Y-12827000D02*
G75*
G03X12750000Y-12827000I-50000J0D01*
G01*
X12650000Y-13031000D02*
X12750000Y-13131000D01*
X12750000Y-13031000D02*
X12650000Y-13131000D01*
X12750000Y-13081000D02*
G75*
G03X12750000Y-13081000I-50000J0D01*
G01*
X12904000Y-12777000D02*
X13004000Y-12877000D01*
X13004000Y-12777000D02*
X12904000Y-12877000D01*
X13004000Y-12827000D02*
G75*
G03X13004000Y-12827000I-50000J0D01*
G01*
X12904000Y-13031000D02*
X13004000Y-13131000D01*
X13004000Y-13031000D02*
X12904000Y-13131000D01*
X13004000Y-13081000D02*
G75*
G03X13004000Y-13081000I-50000J0D01*
G01*
X13158000Y-12777000D02*
X13258000Y-12877000D01*
X13258000Y-12777000D02*
X13158000Y-12877000D01*
X13258000Y-12827000D02*
G75*
G03X13258000Y-12827000I-50000J0D01*
G01*
X13158000Y-13031000D02*
X13258000Y-13131000D01*
X13258000Y-13031000D02*
X13158000Y-13131000D01*
X13258000Y-13081000D02*
G75*
G03X13258000Y-13081000I-50000J0D01*
G01*
X13412000Y-12777000D02*
X13512000Y-12877000D01*
X13512000Y-12777000D02*
X13412000Y-12877000D01*
X13512000Y-12827000D02*
G75*
G03X13512000Y-12827000I-50000J0D01*
G01*
X13412000Y-13031000D02*
X13512000Y-13131000D01*
X13512000Y-13031000D02*
X13412000Y-13131000D01*
X13512000Y-13081000D02*
G75*
G03X13512000Y-13081000I-50000J0D01*
G01*
X13666000Y-12777000D02*
X13766000Y-12877000D01*
X13766000Y-12777000D02*
X13666000Y-12877000D01*
X13766000Y-12827000D02*
G75*
G03X13766000Y-12827000I-50000J0D01*
G01*
X13666000Y-13031000D02*
X13766000Y-13131000D01*
X13766000Y-13031000D02*
X13666000Y-13131000D01*
X13766000Y-13081000D02*
G75*
G03X13766000Y-13081000I-50000J0D01*
G01*
X13920000Y-12777000D02*
X14020000Y-12877000D01*
X14020000Y-12777000D02*
X13920000Y-12877000D01*
X14020000Y-12827000D02*
G75*
G03X14020000Y-12827000I-50000J0D01*
G01*
X13920000Y-13031000D02*
X14020000Y-13131000D01*
X14020000Y-13031000D02*
X13920000Y-13131000D01*
X14020000Y-13081000D02*
G75*
G03X14020000Y-13081000I-50000J0D01*
G01*
X14174000Y-12777000D02*
X14274000Y-12877000D01*
X14274000Y-12777000D02*
X14174000Y-12877000D01*
X14274000Y-12827000D02*
G75*
G03X14274000Y-12827000I-50000J0D01*
G01*
X14174000Y-13031000D02*
X14274000Y-13131000D01*
X14274000Y-13031000D02*
X14174000Y-13131000D01*
X14274000Y-13081000D02*
G75*
G03X14274000Y-13081000I-50000J0D01*
G01*
X14428000Y-12777000D02*
X14528000Y-12877000D01*
X14528000Y-12777000D02*
X14428000Y-12877000D01*
X14528000Y-12827000D02*
G75*
G03X14528000Y-12827000I-50000J0D01*
G01*
X14428000Y-13031000D02*
X14528000Y-13131000D01*
X14528000Y-13031000D02*
X14428000Y-13131000D01*
X14528000Y-13081000D02*
G75*
G03X14528000Y-13081000I-50000J0D01*
G01*
X14682000Y-12777000D02*
X14782000Y-12877000D01*
X14782000Y-12777000D02*
X14682000Y-12877000D01*
X14782000Y-12827000D02*
G75*
G03X14782000Y-12827000I-50000J0D01*
G01*
X14682000Y-13031000D02*
X14782000Y-13131000D01*
X14782000Y-13031000D02*
X14682000Y-13131000D01*
X14782000Y-13081000D02*
G75*
G03X14782000Y-13081000I-50000J0D01*
G01*
X14936000Y-12777000D02*
X15036000Y-12877000D01*
X15036000Y-12777000D02*
X14936000Y-12877000D01*
X15036000Y-12827000D02*
G75*
G03X15036000Y-12827000I-50000J0D01*
G01*
X14936000Y-13031000D02*
X15036000Y-13131000D01*
X15036000Y-13031000D02*
X14936000Y-13131000D01*
X15036000Y-13081000D02*
G75*
G03X15036000Y-13081000I-50000J0D01*
G01*
X15190000Y-12777000D02*
X15290000Y-12877000D01*
X15290000Y-12777000D02*
X15190000Y-12877000D01*
X15290000Y-12827000D02*
G75*
G03X15290000Y-12827000I-50000J0D01*
G01*
X15190000Y-13031000D02*
X15290000Y-13131000D01*
X15290000Y-13031000D02*
X15190000Y-13131000D01*
X15290000Y-13081000D02*
G75*
G03X15290000Y-13081000I-50000J0D01*
G01*
X15444000Y-12777000D02*
X15544000Y-12877000D01*
X15544000Y-12777000D02*
X15444000Y-12877000D01*
X15544000Y-12827000D02*
G75*
G03X15544000Y-12827000I-50000J0D01*
G01*
X15444000Y-13031000D02*
X15544000Y-13131000D01*
X15544000Y-13031000D02*
X15444000Y-13131000D01*
X15544000Y-13081000D02*
G75*
G03X15544000Y-13081000I-50000J0D01*
G01*
X15698000Y-12777000D02*
X15798000Y-12877000D01*
X15798000Y-12777000D02*
X15698000Y-12877000D01*
X15798000Y-12827000D02*
G75*
G03X15798000Y-12827000I-50000J0D01*
G01*
X15698000Y-13031000D02*
X15798000Y-13131000D01*
X15798000Y-13031000D02*
X15698000Y-13131000D01*
X15798000Y-13081000D02*
G75*
G03X15798000Y-13081000I-50000J0D01*
G01*
X15952000Y-12777000D02*
X16052000Y-12877000D01*
X16052000Y-12777000D02*
X15952000Y-12877000D01*
X16052000Y-12827000D02*
G75*
G03X16052000Y-12827000I-50000J0D01*
G01*
X15952000Y-13031000D02*
X16052000Y-13131000D01*
X16052000Y-13031000D02*
X15952000Y-13131000D01*
X16052000Y-13081000D02*
G75*
G03X16052000Y-13081000I-50000J0D01*
G01*
X16206000Y-12777000D02*
X16306000Y-12877000D01*
X16306000Y-12777000D02*
X16206000Y-12877000D01*
X16306000Y-12827000D02*
G75*
G03X16306000Y-12827000I-50000J0D01*
G01*
X16206000Y-13031000D02*
X16306000Y-13131000D01*
X16306000Y-13031000D02*
X16206000Y-13131000D01*
X16306000Y-13081000D02*
G75*
G03X16306000Y-13081000I-50000J0D01*
G01*
X16460000Y-12777000D02*
X16560000Y-12877000D01*
X16560000Y-12777000D02*
X16460000Y-12877000D01*
X16560000Y-12827000D02*
G75*
G03X16560000Y-12827000I-50000J0D01*
G01*
X16460000Y-13031000D02*
X16560000Y-13131000D01*
X16560000Y-13031000D02*
X16460000Y-13131000D01*
X16560000Y-13081000D02*
G75*
G03X16560000Y-13081000I-50000J0D01*
G01*
X16714000Y-12777000D02*
X16814000Y-12877000D01*
X16814000Y-12777000D02*
X16714000Y-12877000D01*
X16814000Y-12827000D02*
G75*
G03X16814000Y-12827000I-50000J0D01*
G01*
X16714000Y-13031000D02*
X16814000Y-13131000D01*
X16814000Y-13031000D02*
X16714000Y-13131000D01*
X16814000Y-13081000D02*
G75*
G03X16814000Y-13081000I-50000J0D01*
G01*
X16968000Y-12777000D02*
X17068000Y-12877000D01*
X17068000Y-12777000D02*
X16968000Y-12877000D01*
X17068000Y-12827000D02*
G75*
G03X17068000Y-12827000I-50000J0D01*
G01*
X16968000Y-13031000D02*
X17068000Y-13131000D01*
X17068000Y-13031000D02*
X16968000Y-13131000D01*
X17068000Y-13081000D02*
G75*
G03X17068000Y-13081000I-50000J0D01*
G01*
X17222000Y-12777000D02*
X17322000Y-12877000D01*
X17322000Y-12777000D02*
X17222000Y-12877000D01*
X17322000Y-12827000D02*
G75*
G03X17322000Y-12827000I-50000J0D01*
G01*
X17222000Y-13031000D02*
X17322000Y-13131000D01*
X17322000Y-13031000D02*
X17222000Y-13131000D01*
X17322000Y-13081000D02*
G75*
G03X17322000Y-13081000I-50000J0D01*
G01*
X17476000Y-12777000D02*
X17576000Y-12877000D01*
X17576000Y-12777000D02*
X17476000Y-12877000D01*
X17576000Y-12827000D02*
G75*
G03X17576000Y-12827000I-50000J0D01*
G01*
X17476000Y-13031000D02*
X17576000Y-13131000D01*
X17576000Y-13031000D02*
X17476000Y-13131000D01*
X17576000Y-13081000D02*
G75*
G03X17576000Y-13081000I-50000J0D01*
G01*
X17730000Y-12777000D02*
X17830000Y-12877000D01*
X17830000Y-12777000D02*
X17730000Y-12877000D01*
X17830000Y-12827000D02*
G75*
G03X17830000Y-12827000I-50000J0D01*
G01*
X17730000Y-13031000D02*
X17830000Y-13131000D01*
X17830000Y-13031000D02*
X17730000Y-13131000D01*
X17830000Y-13081000D02*
G75*
G03X17830000Y-13081000I-50000J0D01*
G01*
X17222000Y-10653900D02*
X17322000Y-10753900D01*
X17322000Y-10653900D02*
X17222000Y-10753900D01*
X17322000Y-10703900D02*
G75*
G03X17322000Y-10703900I-50000J0D01*
G01*
X17476000Y-10653900D02*
X17576000Y-10753900D01*
X17576000Y-10653900D02*
X17476000Y-10753900D01*
X17576000Y-10703900D02*
G75*
G03X17576000Y-10703900I-50000J0D01*
G01*
X17730000Y-10653900D02*
X17830000Y-10753900D01*
X17830000Y-10653900D02*
X17730000Y-10753900D01*
X17830000Y-10703900D02*
G75*
G03X17830000Y-10703900I-50000J0D01*
G01*
X10910062Y-9490202D02*
X11010138Y-9590278D01*
X11010138Y-9490202D02*
X10910062Y-9590278D01*
X10960100Y-9490202D02*
X10960100Y-9590278D01*
X10910062Y-9540240D02*
X11010138Y-9540240D01*
X10920062Y-9440291D02*
X10920062Y-9640189D01*
X11000138Y-9440291D02*
X11000138Y-9640189D01*
X10920062Y-9640189D02*
G75*
G03X11000138Y-9640189I40038J0D01*
G01*
X11000138Y-9440291D02*
G75*
G03X10920062Y-9440291I-40038J0D01*
G01*
X11379962Y-9190228D02*
X11480038Y-9290304D01*
X11480038Y-9190228D02*
X11379962Y-9290304D01*
X11430000Y-9190228D02*
X11430000Y-9290304D01*
X11379962Y-9240266D02*
X11480038Y-9240266D01*
X11529949Y-9200228D02*
X11330051Y-9200228D01*
X11529949Y-9280304D02*
X11330051Y-9280304D01*
X11330051Y-9200228D02*
G75*
G03X11330051Y-9280304I0J-40038D01*
G01*
X11529949Y-9280304D02*
G75*
G03X11529949Y-9200228I0J40038D01*
G01*
X11379962Y-9790176D02*
X11480038Y-9890252D01*
X11480038Y-9790176D02*
X11379962Y-9890252D01*
X11430000Y-9790176D02*
X11430000Y-9890252D01*
X11379962Y-9840214D02*
X11480038Y-9840214D01*
X11529949Y-9800176D02*
X11330051Y-9800176D01*
X11529949Y-9880252D02*
X11330051Y-9880252D01*
X11330051Y-9800176D02*
G75*
G03X11330051Y-9880252I0J-40038D01*
G01*
X11529949Y-9880252D02*
G75*
G03X11529949Y-9800176I0J40038D01*
G01*
X11990000Y-9123800D02*
X12110000Y-9243800D01*
X12110000Y-9123800D02*
X11990000Y-9243800D01*
X12092427Y-9226227D02*
X12092427Y-9141373D01*
X12007573Y-9141373D01*
X12007573Y-9226227D01*
X12092427Y-9226227D01*
X11990000Y-9653800D02*
X12110000Y-9773800D01*
X12110000Y-9653800D02*
X11990000Y-9773800D01*
X12092427Y-9756227D02*
X12092427Y-9671373D01*
X12007573Y-9671373D01*
X12007573Y-9756227D01*
X12092427Y-9756227D01*
X10792320Y-12842100D02*
X11092320Y-13142100D01*
X11092320Y-12842100D02*
X10792320Y-13142100D01*
X10942320Y-13142100D02*
X11092320Y-12992100D01*
X10942320Y-12842100D01*
X10792320Y-12992100D01*
X10942320Y-13142100D01*
X11121034Y-12891297D02*
X10829446Y-12820754D01*
X11055194Y-13163446D02*
X10763606Y-13092903D01*
X10829446Y-12820754D02*
G75*
G03X10763606Y-13092903I-32920J-136075D01*
G01*
X11055194Y-13163446D02*
G75*
G03X11121034Y-12891297I32920J136075D01*
G01*
X18371680Y-12842100D02*
X18671680Y-13142100D01*
X18671680Y-12842100D02*
X18371680Y-13142100D01*
X18521680Y-13142100D02*
X18671680Y-12992100D01*
X18521680Y-12842100D01*
X18371680Y-12992100D01*
X18521680Y-13142100D01*
X18408806Y-13163446D02*
X18700394Y-13092903D01*
X18342966Y-12891297D02*
X18634554Y-12820754D01*
X18700394Y-13092903D02*
G75*
G03X18634554Y-12820754I-32920J136075D01*
G01*
X18342966Y-12891297D02*
G75*
G03X18408806Y-13163446I32920J-136075D01*
G01*
X18542000Y-11905000D02*
X18542000Y-12225000D01*
X18382000Y-12065000D02*
X18702000Y-12065000D01*
X18702000Y-12065000D02*
G75*
G03X18702000Y-12065000I-160000J0D01*
G01*
X18542000Y-10127000D02*
X18542000Y-10447000D01*
X18382000Y-10287000D02*
X18702000Y-10287000D01*
X18702000Y-10287000D02*
G75*
G03X18702000Y-10287000I-160000J0D01*
G01*
X10922000Y-11905000D02*
X10922000Y-12225000D01*
X10762000Y-12065000D02*
X11082000Y-12065000D01*
X11082000Y-12065000D02*
G75*
G03X11082000Y-12065000I-160000J0D01*
G01*
X10922000Y-10127000D02*
X10922000Y-10447000D01*
X10762000Y-10287000D02*
X11082000Y-10287000D01*
X11082000Y-10287000D02*
G75*
G03X11082000Y-10287000I-160000J0D01*
G01*
D12*
X10822428Y-14097814D02*
X10822428Y-13797814D01*
X10893857Y-13797814D01*
X10936714Y-13812100D01*
X10965286Y-13840671D01*
X10979571Y-13869243D01*
X10993857Y-13926386D01*
X10993857Y-13969243D01*
X10979571Y-14026386D01*
X10965286Y-14054957D01*
X10936714Y-14083529D01*
X10893857Y-14097814D01*
X10822428Y-14097814D01*
X11122428Y-14097814D02*
X11122428Y-13897814D01*
X11122428Y-13954957D02*
X11136714Y-13926386D01*
X11151000Y-13912100D01*
X11179571Y-13897814D01*
X11208143Y-13897814D01*
X11308143Y-14097814D02*
X11308143Y-13897814D01*
X11308143Y-13797814D02*
X11293857Y-13812100D01*
X11308143Y-13826386D01*
X11322428Y-13812100D01*
X11308143Y-13797814D01*
X11308143Y-13826386D01*
X11493857Y-14097814D02*
X11465286Y-14083529D01*
X11451000Y-14054957D01*
X11451000Y-13797814D01*
X11651000Y-14097814D02*
X11622428Y-14083529D01*
X11608143Y-14054957D01*
X11608143Y-13797814D01*
X11993857Y-14097814D02*
X11993857Y-13797814D01*
X12093857Y-14012100D01*
X12193857Y-13797814D01*
X12193857Y-14097814D01*
X12465286Y-14097814D02*
X12465286Y-13940671D01*
X12451000Y-13912100D01*
X12422428Y-13897814D01*
X12365286Y-13897814D01*
X12336714Y-13912100D01*
X12465286Y-14083529D02*
X12436714Y-14097814D01*
X12365286Y-14097814D01*
X12336714Y-14083529D01*
X12322428Y-14054957D01*
X12322428Y-14026386D01*
X12336714Y-13997814D01*
X12365286Y-13983529D01*
X12436714Y-13983529D01*
X12465286Y-13969243D01*
X12608143Y-13897814D02*
X12608143Y-14197814D01*
X12608143Y-13912100D02*
X12636714Y-13897814D01*
X12693857Y-13897814D01*
X12722428Y-13912100D01*
X12736714Y-13926386D01*
X12751000Y-13954957D01*
X12751000Y-14040671D01*
X12736714Y-14069243D01*
X12722428Y-14083529D01*
X12693857Y-14097814D01*
X12636714Y-14097814D01*
X12608143Y-14083529D01*
X12879571Y-14069243D02*
X12893857Y-14083529D01*
X12879571Y-14097814D01*
X12865286Y-14083529D01*
X12879571Y-14069243D01*
X12879571Y-14097814D01*
X12879571Y-13912100D02*
X12893857Y-13926386D01*
X12879571Y-13940671D01*
X12865286Y-13926386D01*
X12879571Y-13912100D01*
X12879571Y-13940671D01*
X10496000Y-14572100D02*
X10536000Y-14612100D01*
X10536000Y-14572100D02*
X10496000Y-14612100D01*
X10879571Y-14427814D02*
X10908143Y-14427814D01*
X10936714Y-14442100D01*
X10951000Y-14456386D01*
X10965286Y-14484957D01*
X10979571Y-14542100D01*
X10979571Y-14613529D01*
X10965286Y-14670671D01*
X10951000Y-14699243D01*
X10936714Y-14713529D01*
X10908143Y-14727814D01*
X10879571Y-14727814D01*
X10851000Y-14713529D01*
X10836714Y-14699243D01*
X10822428Y-14670671D01*
X10808143Y-14613529D01*
X10808143Y-14542100D01*
X10822428Y-14484957D01*
X10836714Y-14456386D01*
X10851000Y-14442100D01*
X10879571Y-14427814D01*
X11108143Y-14699243D02*
X11122428Y-14713529D01*
X11108143Y-14727814D01*
X11093857Y-14713529D01*
X11108143Y-14699243D01*
X11108143Y-14727814D01*
X11379571Y-14527814D02*
X11379571Y-14727814D01*
X11308143Y-14413529D02*
X11236714Y-14627814D01*
X11422428Y-14627814D01*
X11593857Y-14427814D02*
X11622428Y-14427814D01*
X11651000Y-14442100D01*
X11665286Y-14456386D01*
X11679571Y-14484957D01*
X11693857Y-14542100D01*
X11693857Y-14613529D01*
X11679571Y-14670671D01*
X11665286Y-14699243D01*
X11651000Y-14713529D01*
X11622428Y-14727814D01*
X11593857Y-14727814D01*
X11565286Y-14713529D01*
X11551000Y-14699243D01*
X11536714Y-14670671D01*
X11522428Y-14613529D01*
X11522428Y-14542100D01*
X11536714Y-14484957D01*
X11551000Y-14456386D01*
X11565286Y-14442100D01*
X11593857Y-14427814D01*
X11822428Y-14727814D02*
X11822428Y-14527814D01*
X11822428Y-14556386D02*
X11836714Y-14542100D01*
X11865286Y-14527814D01*
X11908143Y-14527814D01*
X11936714Y-14542100D01*
X11951000Y-14570671D01*
X11951000Y-14727814D01*
X11951000Y-14570671D02*
X11965286Y-14542100D01*
X11993857Y-14527814D01*
X12036714Y-14527814D01*
X12065286Y-14542100D01*
X12079571Y-14570671D01*
X12079571Y-14727814D01*
X12222428Y-14727814D02*
X12222428Y-14527814D01*
X12222428Y-14556386D02*
X12236714Y-14542100D01*
X12265286Y-14527814D01*
X12308143Y-14527814D01*
X12336714Y-14542100D01*
X12351000Y-14570671D01*
X12351000Y-14727814D01*
X12351000Y-14570671D02*
X12365286Y-14542100D01*
X12393857Y-14527814D01*
X12436714Y-14527814D01*
X12465286Y-14542100D01*
X12479571Y-14570671D01*
X12479571Y-14727814D01*
X13065286Y-14413529D02*
X12808143Y-14799243D01*
X13451000Y-14427814D02*
X13479571Y-14427814D01*
X13508143Y-14442100D01*
X13522428Y-14456386D01*
X13536714Y-14484957D01*
X13551000Y-14542100D01*
X13551000Y-14613529D01*
X13536714Y-14670671D01*
X13522428Y-14699243D01*
X13508143Y-14713529D01*
X13479571Y-14727814D01*
X13451000Y-14727814D01*
X13422428Y-14713529D01*
X13408143Y-14699243D01*
X13393857Y-14670671D01*
X13379571Y-14613529D01*
X13379571Y-14542100D01*
X13393857Y-14484957D01*
X13408143Y-14456386D01*
X13422428Y-14442100D01*
X13451000Y-14427814D01*
X13679571Y-14699243D02*
X13693857Y-14713529D01*
X13679571Y-14727814D01*
X13665286Y-14713529D01*
X13679571Y-14699243D01*
X13679571Y-14727814D01*
X13879571Y-14427814D02*
X13908143Y-14427814D01*
X13936714Y-14442100D01*
X13951000Y-14456386D01*
X13965286Y-14484957D01*
X13979571Y-14542100D01*
X13979571Y-14613529D01*
X13965286Y-14670671D01*
X13951000Y-14699243D01*
X13936714Y-14713529D01*
X13908143Y-14727814D01*
X13879571Y-14727814D01*
X13851000Y-14713529D01*
X13836714Y-14699243D01*
X13822428Y-14670671D01*
X13808143Y-14613529D01*
X13808143Y-14542100D01*
X13822428Y-14484957D01*
X13836714Y-14456386D01*
X13851000Y-14442100D01*
X13879571Y-14427814D01*
X14265286Y-14727814D02*
X14093857Y-14727814D01*
X14179571Y-14727814D02*
X14179571Y-14427814D01*
X14151000Y-14470671D01*
X14122428Y-14499243D01*
X14093857Y-14513529D01*
X14522428Y-14427814D02*
X14465286Y-14427814D01*
X14436714Y-14442100D01*
X14422428Y-14456386D01*
X14393857Y-14499243D01*
X14379571Y-14556386D01*
X14379571Y-14670671D01*
X14393857Y-14699243D01*
X14408143Y-14713529D01*
X14436714Y-14727814D01*
X14493857Y-14727814D01*
X14522428Y-14713529D01*
X14536714Y-14699243D01*
X14551000Y-14670671D01*
X14551000Y-14599243D01*
X14536714Y-14570671D01*
X14522428Y-14556386D01*
X14493857Y-14542100D01*
X14436714Y-14542100D01*
X14408143Y-14556386D01*
X14393857Y-14570671D01*
X14379571Y-14599243D01*
X14665286Y-14427814D02*
X14665286Y-14484957D01*
X14779571Y-14427814D02*
X14779571Y-14484957D01*
X15222428Y-14842100D02*
X15208143Y-14827814D01*
X15179571Y-14784957D01*
X15165286Y-14756386D01*
X15151000Y-14713529D01*
X15136714Y-14642100D01*
X15136714Y-14584957D01*
X15151000Y-14513529D01*
X15165286Y-14470671D01*
X15179571Y-14442100D01*
X15208143Y-14399243D01*
X15222428Y-14384957D01*
X15308143Y-14427814D02*
X15493857Y-14427814D01*
X15393857Y-14542100D01*
X15436714Y-14542100D01*
X15465286Y-14556386D01*
X15479571Y-14570671D01*
X15493857Y-14599243D01*
X15493857Y-14670671D01*
X15479571Y-14699243D01*
X15465286Y-14713529D01*
X15436714Y-14727814D01*
X15351000Y-14727814D01*
X15322428Y-14713529D01*
X15308143Y-14699243D01*
X15751000Y-14527814D02*
X15751000Y-14727814D01*
X15679571Y-14413529D02*
X15608143Y-14627814D01*
X15793857Y-14627814D01*
X16136714Y-14727814D02*
X16136714Y-14427814D01*
X16265286Y-14727814D02*
X16265286Y-14570671D01*
X16251000Y-14542100D01*
X16222428Y-14527814D01*
X16179571Y-14527814D01*
X16151000Y-14542100D01*
X16136714Y-14556386D01*
X16451000Y-14727814D02*
X16422428Y-14713529D01*
X16408143Y-14699243D01*
X16393857Y-14670671D01*
X16393857Y-14584957D01*
X16408143Y-14556386D01*
X16422428Y-14542100D01*
X16451000Y-14527814D01*
X16493857Y-14527814D01*
X16522428Y-14542100D01*
X16536714Y-14556386D01*
X16551000Y-14584957D01*
X16551000Y-14670671D01*
X16536714Y-14699243D01*
X16522428Y-14713529D01*
X16493857Y-14727814D01*
X16451000Y-14727814D01*
X16722428Y-14727814D02*
X16693857Y-14713529D01*
X16679571Y-14684957D01*
X16679571Y-14427814D01*
X16951000Y-14713529D02*
X16922428Y-14727814D01*
X16865286Y-14727814D01*
X16836714Y-14713529D01*
X16822428Y-14684957D01*
X16822428Y-14570671D01*
X16836714Y-14542100D01*
X16865286Y-14527814D01*
X16922428Y-14527814D01*
X16951000Y-14542100D01*
X16965286Y-14570671D01*
X16965286Y-14599243D01*
X16822428Y-14627814D01*
X17079571Y-14713529D02*
X17108143Y-14727814D01*
X17165286Y-14727814D01*
X17193857Y-14713529D01*
X17208143Y-14684957D01*
X17208143Y-14670671D01*
X17193857Y-14642100D01*
X17165286Y-14627814D01*
X17122428Y-14627814D01*
X17093857Y-14613529D01*
X17079571Y-14584957D01*
X17079571Y-14570671D01*
X17093857Y-14542100D01*
X17122428Y-14527814D01*
X17165286Y-14527814D01*
X17193857Y-14542100D01*
X17308143Y-14842100D02*
X17322428Y-14827814D01*
X17351000Y-14784957D01*
X17365286Y-14756386D01*
X17379571Y-14713529D01*
X17393857Y-14642100D01*
X17393857Y-14584957D01*
X17379571Y-14513529D01*
X17365286Y-14470671D01*
X17351000Y-14442100D01*
X17322428Y-14399243D01*
X17308143Y-14384957D01*
X10536000Y-14988100D02*
G75*
G03X10536000Y-14988100I-30000J0D01*
G01*
X10879571Y-14823814D02*
X10908143Y-14823814D01*
X10936714Y-14838100D01*
X10951000Y-14852386D01*
X10965286Y-14880957D01*
X10979571Y-14938100D01*
X10979571Y-15009529D01*
X10965286Y-15066671D01*
X10951000Y-15095243D01*
X10936714Y-15109529D01*
X10908143Y-15123814D01*
X10879571Y-15123814D01*
X10851000Y-15109529D01*
X10836714Y-15095243D01*
X10822428Y-15066671D01*
X10808143Y-15009529D01*
X10808143Y-14938100D01*
X10822428Y-14880957D01*
X10836714Y-14852386D01*
X10851000Y-14838100D01*
X10879571Y-14823814D01*
X11108143Y-15095243D02*
X11122428Y-15109529D01*
X11108143Y-15123814D01*
X11093857Y-15109529D01*
X11108143Y-15095243D01*
X11108143Y-15123814D01*
X11379571Y-14823814D02*
X11322428Y-14823814D01*
X11293857Y-14838100D01*
X11279571Y-14852386D01*
X11251000Y-14895243D01*
X11236714Y-14952386D01*
X11236714Y-15066671D01*
X11251000Y-15095243D01*
X11265286Y-15109529D01*
X11293857Y-15123814D01*
X11351000Y-15123814D01*
X11379571Y-15109529D01*
X11393857Y-15095243D01*
X11408143Y-15066671D01*
X11408143Y-14995243D01*
X11393857Y-14966671D01*
X11379571Y-14952386D01*
X11351000Y-14938100D01*
X11293857Y-14938100D01*
X11265286Y-14952386D01*
X11251000Y-14966671D01*
X11236714Y-14995243D01*
X11593857Y-14823814D02*
X11622428Y-14823814D01*
X11651000Y-14838100D01*
X11665286Y-14852386D01*
X11679571Y-14880957D01*
X11693857Y-14938100D01*
X11693857Y-15009529D01*
X11679571Y-15066671D01*
X11665286Y-15095243D01*
X11651000Y-15109529D01*
X11622428Y-15123814D01*
X11593857Y-15123814D01*
X11565286Y-15109529D01*
X11551000Y-15095243D01*
X11536714Y-15066671D01*
X11522428Y-15009529D01*
X11522428Y-14938100D01*
X11536714Y-14880957D01*
X11551000Y-14852386D01*
X11565286Y-14838100D01*
X11593857Y-14823814D01*
X11822428Y-15123814D02*
X11822428Y-14923814D01*
X11822428Y-14952386D02*
X11836714Y-14938100D01*
X11865286Y-14923814D01*
X11908143Y-14923814D01*
X11936714Y-14938100D01*
X11951000Y-14966671D01*
X11951000Y-15123814D01*
X11951000Y-14966671D02*
X11965286Y-14938100D01*
X11993857Y-14923814D01*
X12036714Y-14923814D01*
X12065286Y-14938100D01*
X12079571Y-14966671D01*
X12079571Y-15123814D01*
X12222428Y-15123814D02*
X12222428Y-14923814D01*
X12222428Y-14952386D02*
X12236714Y-14938100D01*
X12265286Y-14923814D01*
X12308143Y-14923814D01*
X12336714Y-14938100D01*
X12351000Y-14966671D01*
X12351000Y-15123814D01*
X12351000Y-14966671D02*
X12365286Y-14938100D01*
X12393857Y-14923814D01*
X12436714Y-14923814D01*
X12465286Y-14938100D01*
X12479571Y-14966671D01*
X12479571Y-15123814D01*
X13065286Y-14809529D02*
X12808143Y-15195243D01*
X13451000Y-14823814D02*
X13479571Y-14823814D01*
X13508143Y-14838100D01*
X13522428Y-14852386D01*
X13536714Y-14880957D01*
X13551000Y-14938100D01*
X13551000Y-15009529D01*
X13536714Y-15066671D01*
X13522428Y-15095243D01*
X13508143Y-15109529D01*
X13479571Y-15123814D01*
X13451000Y-15123814D01*
X13422428Y-15109529D01*
X13408143Y-15095243D01*
X13393857Y-15066671D01*
X13379571Y-15009529D01*
X13379571Y-14938100D01*
X13393857Y-14880957D01*
X13408143Y-14852386D01*
X13422428Y-14838100D01*
X13451000Y-14823814D01*
X13679571Y-15095243D02*
X13693857Y-15109529D01*
X13679571Y-15123814D01*
X13665286Y-15109529D01*
X13679571Y-15095243D01*
X13679571Y-15123814D01*
X13879571Y-14823814D02*
X13908143Y-14823814D01*
X13936714Y-14838100D01*
X13951000Y-14852386D01*
X13965286Y-14880957D01*
X13979571Y-14938100D01*
X13979571Y-15009529D01*
X13965286Y-15066671D01*
X13951000Y-15095243D01*
X13936714Y-15109529D01*
X13908143Y-15123814D01*
X13879571Y-15123814D01*
X13851000Y-15109529D01*
X13836714Y-15095243D01*
X13822428Y-15066671D01*
X13808143Y-15009529D01*
X13808143Y-14938100D01*
X13822428Y-14880957D01*
X13836714Y-14852386D01*
X13851000Y-14838100D01*
X13879571Y-14823814D01*
X14093857Y-14852386D02*
X14108143Y-14838100D01*
X14136714Y-14823814D01*
X14208143Y-14823814D01*
X14236714Y-14838100D01*
X14251000Y-14852386D01*
X14265286Y-14880957D01*
X14265286Y-14909529D01*
X14251000Y-14952386D01*
X14079571Y-15123814D01*
X14265286Y-15123814D01*
X14522428Y-14923814D02*
X14522428Y-15123814D01*
X14451000Y-14809529D02*
X14379571Y-15023814D01*
X14565286Y-15023814D01*
X14665286Y-14823814D02*
X14665286Y-14880957D01*
X14779571Y-14823814D02*
X14779571Y-14880957D01*
X15222428Y-15238100D02*
X15208143Y-15223814D01*
X15179571Y-15180957D01*
X15165286Y-15152386D01*
X15151000Y-15109529D01*
X15136714Y-15038100D01*
X15136714Y-14980957D01*
X15151000Y-14909529D01*
X15165286Y-14866671D01*
X15179571Y-14838100D01*
X15208143Y-14795243D01*
X15222428Y-14780957D01*
X15493857Y-15123814D02*
X15322428Y-15123814D01*
X15408143Y-15123814D02*
X15408143Y-14823814D01*
X15379571Y-14866671D01*
X15351000Y-14895243D01*
X15322428Y-14909529D01*
X15851000Y-15123814D02*
X15851000Y-14823814D01*
X15979571Y-15123814D02*
X15979571Y-14966671D01*
X15965286Y-14938100D01*
X15936714Y-14923814D01*
X15893857Y-14923814D01*
X15865286Y-14938100D01*
X15851000Y-14952386D01*
X16165286Y-15123814D02*
X16136714Y-15109529D01*
X16122428Y-15095243D01*
X16108143Y-15066671D01*
X16108143Y-14980957D01*
X16122428Y-14952386D01*
X16136714Y-14938100D01*
X16165286Y-14923814D01*
X16208143Y-14923814D01*
X16236714Y-14938100D01*
X16251000Y-14952386D01*
X16265286Y-14980957D01*
X16265286Y-15066671D01*
X16251000Y-15095243D01*
X16236714Y-15109529D01*
X16208143Y-15123814D01*
X16165286Y-15123814D01*
X16436714Y-15123814D02*
X16408143Y-15109529D01*
X16393857Y-15080957D01*
X16393857Y-14823814D01*
X16665286Y-15109529D02*
X16636714Y-15123814D01*
X16579571Y-15123814D01*
X16551000Y-15109529D01*
X16536714Y-15080957D01*
X16536714Y-14966671D01*
X16551000Y-14938100D01*
X16579571Y-14923814D01*
X16636714Y-14923814D01*
X16665286Y-14938100D01*
X16679571Y-14966671D01*
X16679571Y-14995243D01*
X16536714Y-15023814D01*
X16779571Y-15238100D02*
X16793857Y-15223814D01*
X16822428Y-15180957D01*
X16836714Y-15152386D01*
X16851000Y-15109529D01*
X16865286Y-15038100D01*
X16865286Y-14980957D01*
X16851000Y-14909529D01*
X16836714Y-14866671D01*
X16822428Y-14838100D01*
X16793857Y-14795243D01*
X16779571Y-14780957D01*
X10496000Y-15344100D02*
X10496000Y-15424100D01*
X10456000Y-15384100D02*
X10536000Y-15384100D01*
X10879571Y-15219814D02*
X10908143Y-15219814D01*
X10936714Y-15234100D01*
X10951000Y-15248386D01*
X10965286Y-15276957D01*
X10979571Y-15334100D01*
X10979571Y-15405529D01*
X10965286Y-15462671D01*
X10951000Y-15491243D01*
X10936714Y-15505529D01*
X10908143Y-15519814D01*
X10879571Y-15519814D01*
X10851000Y-15505529D01*
X10836714Y-15491243D01*
X10822428Y-15462671D01*
X10808143Y-15405529D01*
X10808143Y-15334100D01*
X10822428Y-15276957D01*
X10836714Y-15248386D01*
X10851000Y-15234100D01*
X10879571Y-15219814D01*
X11108143Y-15491243D02*
X11122428Y-15505529D01*
X11108143Y-15519814D01*
X11093857Y-15505529D01*
X11108143Y-15491243D01*
X11108143Y-15519814D01*
X11293857Y-15348386D02*
X11265286Y-15334100D01*
X11251000Y-15319814D01*
X11236714Y-15291243D01*
X11236714Y-15276957D01*
X11251000Y-15248386D01*
X11265286Y-15234100D01*
X11293857Y-15219814D01*
X11351000Y-15219814D01*
X11379571Y-15234100D01*
X11393857Y-15248386D01*
X11408143Y-15276957D01*
X11408143Y-15291243D01*
X11393857Y-15319814D01*
X11379571Y-15334100D01*
X11351000Y-15348386D01*
X11293857Y-15348386D01*
X11265286Y-15362671D01*
X11251000Y-15376957D01*
X11236714Y-15405529D01*
X11236714Y-15462671D01*
X11251000Y-15491243D01*
X11265286Y-15505529D01*
X11293857Y-15519814D01*
X11351000Y-15519814D01*
X11379571Y-15505529D01*
X11393857Y-15491243D01*
X11408143Y-15462671D01*
X11408143Y-15405529D01*
X11393857Y-15376957D01*
X11379571Y-15362671D01*
X11351000Y-15348386D01*
X11593857Y-15219814D02*
X11622428Y-15219814D01*
X11651000Y-15234100D01*
X11665286Y-15248386D01*
X11679571Y-15276957D01*
X11693857Y-15334100D01*
X11693857Y-15405529D01*
X11679571Y-15462671D01*
X11665286Y-15491243D01*
X11651000Y-15505529D01*
X11622428Y-15519814D01*
X11593857Y-15519814D01*
X11565286Y-15505529D01*
X11551000Y-15491243D01*
X11536714Y-15462671D01*
X11522428Y-15405529D01*
X11522428Y-15334100D01*
X11536714Y-15276957D01*
X11551000Y-15248386D01*
X11565286Y-15234100D01*
X11593857Y-15219814D01*
X11822428Y-15519814D02*
X11822428Y-15319814D01*
X11822428Y-15348386D02*
X11836714Y-15334100D01*
X11865286Y-15319814D01*
X11908143Y-15319814D01*
X11936714Y-15334100D01*
X11951000Y-15362671D01*
X11951000Y-15519814D01*
X11951000Y-15362671D02*
X11965286Y-15334100D01*
X11993857Y-15319814D01*
X12036714Y-15319814D01*
X12065286Y-15334100D01*
X12079571Y-15362671D01*
X12079571Y-15519814D01*
X12222428Y-15519814D02*
X12222428Y-15319814D01*
X12222428Y-15348386D02*
X12236714Y-15334100D01*
X12265286Y-15319814D01*
X12308143Y-15319814D01*
X12336714Y-15334100D01*
X12351000Y-15362671D01*
X12351000Y-15519814D01*
X12351000Y-15362671D02*
X12365286Y-15334100D01*
X12393857Y-15319814D01*
X12436714Y-15319814D01*
X12465286Y-15334100D01*
X12479571Y-15362671D01*
X12479571Y-15519814D01*
X13065286Y-15205529D02*
X12808143Y-15591243D01*
X13451000Y-15219814D02*
X13479571Y-15219814D01*
X13508143Y-15234100D01*
X13522428Y-15248386D01*
X13536714Y-15276957D01*
X13551000Y-15334100D01*
X13551000Y-15405529D01*
X13536714Y-15462671D01*
X13522428Y-15491243D01*
X13508143Y-15505529D01*
X13479571Y-15519814D01*
X13451000Y-15519814D01*
X13422428Y-15505529D01*
X13408143Y-15491243D01*
X13393857Y-15462671D01*
X13379571Y-15405529D01*
X13379571Y-15334100D01*
X13393857Y-15276957D01*
X13408143Y-15248386D01*
X13422428Y-15234100D01*
X13451000Y-15219814D01*
X13679571Y-15491243D02*
X13693857Y-15505529D01*
X13679571Y-15519814D01*
X13665286Y-15505529D01*
X13679571Y-15491243D01*
X13679571Y-15519814D01*
X13879571Y-15219814D02*
X13908143Y-15219814D01*
X13936714Y-15234100D01*
X13951000Y-15248386D01*
X13965286Y-15276957D01*
X13979571Y-15334100D01*
X13979571Y-15405529D01*
X13965286Y-15462671D01*
X13951000Y-15491243D01*
X13936714Y-15505529D01*
X13908143Y-15519814D01*
X13879571Y-15519814D01*
X13851000Y-15505529D01*
X13836714Y-15491243D01*
X13822428Y-15462671D01*
X13808143Y-15405529D01*
X13808143Y-15334100D01*
X13822428Y-15276957D01*
X13836714Y-15248386D01*
X13851000Y-15234100D01*
X13879571Y-15219814D01*
X14079571Y-15219814D02*
X14265286Y-15219814D01*
X14165286Y-15334100D01*
X14208143Y-15334100D01*
X14236714Y-15348386D01*
X14251000Y-15362671D01*
X14265286Y-15391243D01*
X14265286Y-15462671D01*
X14251000Y-15491243D01*
X14236714Y-15505529D01*
X14208143Y-15519814D01*
X14122428Y-15519814D01*
X14093857Y-15505529D01*
X14079571Y-15491243D01*
X14551000Y-15519814D02*
X14379571Y-15519814D01*
X14465286Y-15519814D02*
X14465286Y-15219814D01*
X14436714Y-15262671D01*
X14408143Y-15291243D01*
X14379571Y-15305529D01*
X14665286Y-15219814D02*
X14665286Y-15276957D01*
X14779571Y-15219814D02*
X14779571Y-15276957D01*
X15222428Y-15634100D02*
X15208143Y-15619814D01*
X15179571Y-15576957D01*
X15165286Y-15548386D01*
X15151000Y-15505529D01*
X15136714Y-15434100D01*
X15136714Y-15376957D01*
X15151000Y-15305529D01*
X15165286Y-15262671D01*
X15179571Y-15234100D01*
X15208143Y-15191243D01*
X15222428Y-15176957D01*
X15493857Y-15519814D02*
X15322428Y-15519814D01*
X15408143Y-15519814D02*
X15408143Y-15219814D01*
X15379571Y-15262671D01*
X15351000Y-15291243D01*
X15322428Y-15305529D01*
X15679571Y-15219814D02*
X15708143Y-15219814D01*
X15736714Y-15234100D01*
X15751000Y-15248386D01*
X15765286Y-15276957D01*
X15779571Y-15334100D01*
X15779571Y-15405529D01*
X15765286Y-15462671D01*
X15751000Y-15491243D01*
X15736714Y-15505529D01*
X15708143Y-15519814D01*
X15679571Y-15519814D01*
X15651000Y-15505529D01*
X15636714Y-15491243D01*
X15622428Y-15462671D01*
X15608143Y-15405529D01*
X15608143Y-15334100D01*
X15622428Y-15276957D01*
X15636714Y-15248386D01*
X15651000Y-15234100D01*
X15679571Y-15219814D01*
X16136714Y-15519814D02*
X16136714Y-15219814D01*
X16265286Y-15519814D02*
X16265286Y-15362671D01*
X16251000Y-15334100D01*
X16222428Y-15319814D01*
X16179571Y-15319814D01*
X16151000Y-15334100D01*
X16136714Y-15348386D01*
X16451000Y-15519814D02*
X16422428Y-15505529D01*
X16408143Y-15491243D01*
X16393857Y-15462671D01*
X16393857Y-15376957D01*
X16408143Y-15348386D01*
X16422428Y-15334100D01*
X16451000Y-15319814D01*
X16493857Y-15319814D01*
X16522428Y-15334100D01*
X16536714Y-15348386D01*
X16551000Y-15376957D01*
X16551000Y-15462671D01*
X16536714Y-15491243D01*
X16522428Y-15505529D01*
X16493857Y-15519814D01*
X16451000Y-15519814D01*
X16722428Y-15519814D02*
X16693857Y-15505529D01*
X16679571Y-15476957D01*
X16679571Y-15219814D01*
X16951000Y-15505529D02*
X16922428Y-15519814D01*
X16865286Y-15519814D01*
X16836714Y-15505529D01*
X16822428Y-15476957D01*
X16822428Y-15362671D01*
X16836714Y-15334100D01*
X16865286Y-15319814D01*
X16922428Y-15319814D01*
X16951000Y-15334100D01*
X16965286Y-15362671D01*
X16965286Y-15391243D01*
X16822428Y-15419814D01*
X17079571Y-15505529D02*
X17108143Y-15519814D01*
X17165286Y-15519814D01*
X17193857Y-15505529D01*
X17208143Y-15476957D01*
X17208143Y-15462671D01*
X17193857Y-15434100D01*
X17165286Y-15419814D01*
X17122428Y-15419814D01*
X17093857Y-15405529D01*
X17079571Y-15376957D01*
X17079571Y-15362671D01*
X17093857Y-15334100D01*
X17122428Y-15319814D01*
X17165286Y-15319814D01*
X17193857Y-15334100D01*
X17308143Y-15634100D02*
X17322428Y-15619814D01*
X17351000Y-15576957D01*
X17365286Y-15548386D01*
X17379571Y-15505529D01*
X17393857Y-15434100D01*
X17393857Y-15376957D01*
X17379571Y-15305529D01*
X17365286Y-15262671D01*
X17351000Y-15234100D01*
X17322428Y-15191243D01*
X17308143Y-15176957D01*
X10524283Y-15808388D02*
X10524283Y-15751812D01*
X10467707Y-15751812D01*
X10467707Y-15808388D01*
X10524283Y-15808388D01*
X10879571Y-15615814D02*
X10908143Y-15615814D01*
X10936714Y-15630100D01*
X10951000Y-15644386D01*
X10965286Y-15672957D01*
X10979571Y-15730100D01*
X10979571Y-15801529D01*
X10965286Y-15858671D01*
X10951000Y-15887243D01*
X10936714Y-15901529D01*
X10908143Y-15915814D01*
X10879571Y-15915814D01*
X10851000Y-15901529D01*
X10836714Y-15887243D01*
X10822428Y-15858671D01*
X10808143Y-15801529D01*
X10808143Y-15730100D01*
X10822428Y-15672957D01*
X10836714Y-15644386D01*
X10851000Y-15630100D01*
X10879571Y-15615814D01*
X11108143Y-15887243D02*
X11122428Y-15901529D01*
X11108143Y-15915814D01*
X11093857Y-15901529D01*
X11108143Y-15887243D01*
X11108143Y-15915814D01*
X11293857Y-15744386D02*
X11265286Y-15730100D01*
X11251000Y-15715814D01*
X11236714Y-15687243D01*
X11236714Y-15672957D01*
X11251000Y-15644386D01*
X11265286Y-15630100D01*
X11293857Y-15615814D01*
X11351000Y-15615814D01*
X11379571Y-15630100D01*
X11393857Y-15644386D01*
X11408143Y-15672957D01*
X11408143Y-15687243D01*
X11393857Y-15715814D01*
X11379571Y-15730100D01*
X11351000Y-15744386D01*
X11293857Y-15744386D01*
X11265286Y-15758671D01*
X11251000Y-15772957D01*
X11236714Y-15801529D01*
X11236714Y-15858671D01*
X11251000Y-15887243D01*
X11265286Y-15901529D01*
X11293857Y-15915814D01*
X11351000Y-15915814D01*
X11379571Y-15901529D01*
X11393857Y-15887243D01*
X11408143Y-15858671D01*
X11408143Y-15801529D01*
X11393857Y-15772957D01*
X11379571Y-15758671D01*
X11351000Y-15744386D01*
X11593857Y-15615814D02*
X11622428Y-15615814D01*
X11651000Y-15630100D01*
X11665286Y-15644386D01*
X11679571Y-15672957D01*
X11693857Y-15730100D01*
X11693857Y-15801529D01*
X11679571Y-15858671D01*
X11665286Y-15887243D01*
X11651000Y-15901529D01*
X11622428Y-15915814D01*
X11593857Y-15915814D01*
X11565286Y-15901529D01*
X11551000Y-15887243D01*
X11536714Y-15858671D01*
X11522428Y-15801529D01*
X11522428Y-15730100D01*
X11536714Y-15672957D01*
X11551000Y-15644386D01*
X11565286Y-15630100D01*
X11593857Y-15615814D01*
X11822428Y-15915814D02*
X11822428Y-15715814D01*
X11822428Y-15744386D02*
X11836714Y-15730100D01*
X11865286Y-15715814D01*
X11908143Y-15715814D01*
X11936714Y-15730100D01*
X11951000Y-15758671D01*
X11951000Y-15915814D01*
X11951000Y-15758671D02*
X11965286Y-15730100D01*
X11993857Y-15715814D01*
X12036714Y-15715814D01*
X12065286Y-15730100D01*
X12079571Y-15758671D01*
X12079571Y-15915814D01*
X12222428Y-15915814D02*
X12222428Y-15715814D01*
X12222428Y-15744386D02*
X12236714Y-15730100D01*
X12265286Y-15715814D01*
X12308143Y-15715814D01*
X12336714Y-15730100D01*
X12351000Y-15758671D01*
X12351000Y-15915814D01*
X12351000Y-15758671D02*
X12365286Y-15730100D01*
X12393857Y-15715814D01*
X12436714Y-15715814D01*
X12465286Y-15730100D01*
X12479571Y-15758671D01*
X12479571Y-15915814D01*
X13065286Y-15601529D02*
X12808143Y-15987243D01*
X13451000Y-15615814D02*
X13479571Y-15615814D01*
X13508143Y-15630100D01*
X13522428Y-15644386D01*
X13536714Y-15672957D01*
X13551000Y-15730100D01*
X13551000Y-15801529D01*
X13536714Y-15858671D01*
X13522428Y-15887243D01*
X13508143Y-15901529D01*
X13479571Y-15915814D01*
X13451000Y-15915814D01*
X13422428Y-15901529D01*
X13408143Y-15887243D01*
X13393857Y-15858671D01*
X13379571Y-15801529D01*
X13379571Y-15730100D01*
X13393857Y-15672957D01*
X13408143Y-15644386D01*
X13422428Y-15630100D01*
X13451000Y-15615814D01*
X13679571Y-15887243D02*
X13693857Y-15901529D01*
X13679571Y-15915814D01*
X13665286Y-15901529D01*
X13679571Y-15887243D01*
X13679571Y-15915814D01*
X13879571Y-15615814D02*
X13908143Y-15615814D01*
X13936714Y-15630100D01*
X13951000Y-15644386D01*
X13965286Y-15672957D01*
X13979571Y-15730100D01*
X13979571Y-15801529D01*
X13965286Y-15858671D01*
X13951000Y-15887243D01*
X13936714Y-15901529D01*
X13908143Y-15915814D01*
X13879571Y-15915814D01*
X13851000Y-15901529D01*
X13836714Y-15887243D01*
X13822428Y-15858671D01*
X13808143Y-15801529D01*
X13808143Y-15730100D01*
X13822428Y-15672957D01*
X13836714Y-15644386D01*
X13851000Y-15630100D01*
X13879571Y-15615814D01*
X14079571Y-15615814D02*
X14265286Y-15615814D01*
X14165286Y-15730100D01*
X14208143Y-15730100D01*
X14236714Y-15744386D01*
X14251000Y-15758671D01*
X14265286Y-15787243D01*
X14265286Y-15858671D01*
X14251000Y-15887243D01*
X14236714Y-15901529D01*
X14208143Y-15915814D01*
X14122428Y-15915814D01*
X14093857Y-15901529D01*
X14079571Y-15887243D01*
X14379571Y-15644386D02*
X14393857Y-15630100D01*
X14422428Y-15615814D01*
X14493857Y-15615814D01*
X14522428Y-15630100D01*
X14536714Y-15644386D01*
X14551000Y-15672957D01*
X14551000Y-15701529D01*
X14536714Y-15744386D01*
X14365286Y-15915814D01*
X14551000Y-15915814D01*
X14665286Y-15615814D02*
X14665286Y-15672957D01*
X14779571Y-15615814D02*
X14779571Y-15672957D01*
X15222428Y-16030100D02*
X15208143Y-16015814D01*
X15179571Y-15972957D01*
X15165286Y-15944386D01*
X15151000Y-15901529D01*
X15136714Y-15830100D01*
X15136714Y-15772957D01*
X15151000Y-15701529D01*
X15165286Y-15658671D01*
X15179571Y-15630100D01*
X15208143Y-15587243D01*
X15222428Y-15572957D01*
X15465286Y-15715814D02*
X15465286Y-15915814D01*
X15393857Y-15601529D02*
X15322428Y-15815814D01*
X15508143Y-15815814D01*
X15679571Y-15615814D02*
X15708143Y-15615814D01*
X15736714Y-15630100D01*
X15751000Y-15644386D01*
X15765286Y-15672957D01*
X15779571Y-15730100D01*
X15779571Y-15801529D01*
X15765286Y-15858671D01*
X15751000Y-15887243D01*
X15736714Y-15901529D01*
X15708143Y-15915814D01*
X15679571Y-15915814D01*
X15651000Y-15901529D01*
X15636714Y-15887243D01*
X15622428Y-15858671D01*
X15608143Y-15801529D01*
X15608143Y-15730100D01*
X15622428Y-15672957D01*
X15636714Y-15644386D01*
X15651000Y-15630100D01*
X15679571Y-15615814D01*
X16136714Y-15915814D02*
X16136714Y-15615814D01*
X16265286Y-15915814D02*
X16265286Y-15758671D01*
X16251000Y-15730100D01*
X16222428Y-15715814D01*
X16179571Y-15715814D01*
X16151000Y-15730100D01*
X16136714Y-15744386D01*
X16451000Y-15915814D02*
X16422428Y-15901529D01*
X16408143Y-15887243D01*
X16393857Y-15858671D01*
X16393857Y-15772957D01*
X16408143Y-15744386D01*
X16422428Y-15730100D01*
X16451000Y-15715814D01*
X16493857Y-15715814D01*
X16522428Y-15730100D01*
X16536714Y-15744386D01*
X16551000Y-15772957D01*
X16551000Y-15858671D01*
X16536714Y-15887243D01*
X16522428Y-15901529D01*
X16493857Y-15915814D01*
X16451000Y-15915814D01*
X16722428Y-15915814D02*
X16693857Y-15901529D01*
X16679571Y-15872957D01*
X16679571Y-15615814D01*
X16951000Y-15901529D02*
X16922428Y-15915814D01*
X16865286Y-15915814D01*
X16836714Y-15901529D01*
X16822428Y-15872957D01*
X16822428Y-15758671D01*
X16836714Y-15730100D01*
X16865286Y-15715814D01*
X16922428Y-15715814D01*
X16951000Y-15730100D01*
X16965286Y-15758671D01*
X16965286Y-15787243D01*
X16822428Y-15815814D01*
X17079571Y-15901529D02*
X17108143Y-15915814D01*
X17165286Y-15915814D01*
X17193857Y-15901529D01*
X17208143Y-15872957D01*
X17208143Y-15858671D01*
X17193857Y-15830100D01*
X17165286Y-15815814D01*
X17122428Y-15815814D01*
X17093857Y-15801529D01*
X17079571Y-15772957D01*
X17079571Y-15758671D01*
X17093857Y-15730100D01*
X17122428Y-15715814D01*
X17165286Y-15715814D01*
X17193857Y-15730100D01*
X17308143Y-16030100D02*
X17322428Y-16015814D01*
X17351000Y-15972957D01*
X17365286Y-15944386D01*
X17379571Y-15901529D01*
X17393857Y-15830100D01*
X17393857Y-15772957D01*
X17379571Y-15701529D01*
X17365286Y-15658671D01*
X17351000Y-15630100D01*
X17322428Y-15587243D01*
X17308143Y-15572957D01*
X10491000Y-16221100D02*
X10536000Y-16176100D01*
X10491000Y-16131100D01*
X10446000Y-16176100D01*
X10491000Y-16221100D01*
X10879571Y-16011814D02*
X10908143Y-16011814D01*
X10936714Y-16026100D01*
X10951000Y-16040386D01*
X10965286Y-16068957D01*
X10979571Y-16126100D01*
X10979571Y-16197529D01*
X10965286Y-16254671D01*
X10951000Y-16283243D01*
X10936714Y-16297529D01*
X10908143Y-16311814D01*
X10879571Y-16311814D01*
X10851000Y-16297529D01*
X10836714Y-16283243D01*
X10822428Y-16254671D01*
X10808143Y-16197529D01*
X10808143Y-16126100D01*
X10822428Y-16068957D01*
X10836714Y-16040386D01*
X10851000Y-16026100D01*
X10879571Y-16011814D01*
X11108143Y-16283243D02*
X11122428Y-16297529D01*
X11108143Y-16311814D01*
X11093857Y-16297529D01*
X11108143Y-16283243D01*
X11108143Y-16311814D01*
X11265286Y-16311814D02*
X11322428Y-16311814D01*
X11351000Y-16297529D01*
X11365286Y-16283243D01*
X11393857Y-16240386D01*
X11408143Y-16183243D01*
X11408143Y-16068957D01*
X11393857Y-16040386D01*
X11379571Y-16026100D01*
X11351000Y-16011814D01*
X11293857Y-16011814D01*
X11265286Y-16026100D01*
X11251000Y-16040386D01*
X11236714Y-16068957D01*
X11236714Y-16140386D01*
X11251000Y-16168957D01*
X11265286Y-16183243D01*
X11293857Y-16197529D01*
X11351000Y-16197529D01*
X11379571Y-16183243D01*
X11393857Y-16168957D01*
X11408143Y-16140386D01*
X11593857Y-16011814D02*
X11622428Y-16011814D01*
X11651000Y-16026100D01*
X11665286Y-16040386D01*
X11679571Y-16068957D01*
X11693857Y-16126100D01*
X11693857Y-16197529D01*
X11679571Y-16254671D01*
X11665286Y-16283243D01*
X11651000Y-16297529D01*
X11622428Y-16311814D01*
X11593857Y-16311814D01*
X11565286Y-16297529D01*
X11551000Y-16283243D01*
X11536714Y-16254671D01*
X11522428Y-16197529D01*
X11522428Y-16126100D01*
X11536714Y-16068957D01*
X11551000Y-16040386D01*
X11565286Y-16026100D01*
X11593857Y-16011814D01*
X11822428Y-16311814D02*
X11822428Y-16111814D01*
X11822428Y-16140386D02*
X11836714Y-16126100D01*
X11865286Y-16111814D01*
X11908143Y-16111814D01*
X11936714Y-16126100D01*
X11951000Y-16154671D01*
X11951000Y-16311814D01*
X11951000Y-16154671D02*
X11965286Y-16126100D01*
X11993857Y-16111814D01*
X12036714Y-16111814D01*
X12065286Y-16126100D01*
X12079571Y-16154671D01*
X12079571Y-16311814D01*
X12222428Y-16311814D02*
X12222428Y-16111814D01*
X12222428Y-16140386D02*
X12236714Y-16126100D01*
X12265286Y-16111814D01*
X12308143Y-16111814D01*
X12336714Y-16126100D01*
X12351000Y-16154671D01*
X12351000Y-16311814D01*
X12351000Y-16154671D02*
X12365286Y-16126100D01*
X12393857Y-16111814D01*
X12436714Y-16111814D01*
X12465286Y-16126100D01*
X12479571Y-16154671D01*
X12479571Y-16311814D01*
X13065286Y-15997529D02*
X12808143Y-16383243D01*
X13451000Y-16011814D02*
X13479571Y-16011814D01*
X13508143Y-16026100D01*
X13522428Y-16040386D01*
X13536714Y-16068957D01*
X13551000Y-16126100D01*
X13551000Y-16197529D01*
X13536714Y-16254671D01*
X13522428Y-16283243D01*
X13508143Y-16297529D01*
X13479571Y-16311814D01*
X13451000Y-16311814D01*
X13422428Y-16297529D01*
X13408143Y-16283243D01*
X13393857Y-16254671D01*
X13379571Y-16197529D01*
X13379571Y-16126100D01*
X13393857Y-16068957D01*
X13408143Y-16040386D01*
X13422428Y-16026100D01*
X13451000Y-16011814D01*
X13679571Y-16283243D02*
X13693857Y-16297529D01*
X13679571Y-16311814D01*
X13665286Y-16297529D01*
X13679571Y-16283243D01*
X13679571Y-16311814D01*
X13879571Y-16011814D02*
X13908143Y-16011814D01*
X13936714Y-16026100D01*
X13951000Y-16040386D01*
X13965286Y-16068957D01*
X13979571Y-16126100D01*
X13979571Y-16197529D01*
X13965286Y-16254671D01*
X13951000Y-16283243D01*
X13936714Y-16297529D01*
X13908143Y-16311814D01*
X13879571Y-16311814D01*
X13851000Y-16297529D01*
X13836714Y-16283243D01*
X13822428Y-16254671D01*
X13808143Y-16197529D01*
X13808143Y-16126100D01*
X13822428Y-16068957D01*
X13836714Y-16040386D01*
X13851000Y-16026100D01*
X13879571Y-16011814D01*
X14079571Y-16011814D02*
X14265286Y-16011814D01*
X14165286Y-16126100D01*
X14208143Y-16126100D01*
X14236714Y-16140386D01*
X14251000Y-16154671D01*
X14265286Y-16183243D01*
X14265286Y-16254671D01*
X14251000Y-16283243D01*
X14236714Y-16297529D01*
X14208143Y-16311814D01*
X14122428Y-16311814D01*
X14093857Y-16297529D01*
X14079571Y-16283243D01*
X14536714Y-16011814D02*
X14393857Y-16011814D01*
X14379571Y-16154671D01*
X14393857Y-16140386D01*
X14422428Y-16126100D01*
X14493857Y-16126100D01*
X14522428Y-16140386D01*
X14536714Y-16154671D01*
X14551000Y-16183243D01*
X14551000Y-16254671D01*
X14536714Y-16283243D01*
X14522428Y-16297529D01*
X14493857Y-16311814D01*
X14422428Y-16311814D01*
X14393857Y-16297529D01*
X14379571Y-16283243D01*
X14665286Y-16011814D02*
X14665286Y-16068957D01*
X14779571Y-16011814D02*
X14779571Y-16068957D01*
X15222428Y-16426100D02*
X15208143Y-16411814D01*
X15179571Y-16368957D01*
X15165286Y-16340386D01*
X15151000Y-16297529D01*
X15136714Y-16226100D01*
X15136714Y-16168957D01*
X15151000Y-16097529D01*
X15165286Y-16054671D01*
X15179571Y-16026100D01*
X15208143Y-15983243D01*
X15222428Y-15968957D01*
X15322428Y-16040386D02*
X15336714Y-16026100D01*
X15365286Y-16011814D01*
X15436714Y-16011814D01*
X15465286Y-16026100D01*
X15479571Y-16040386D01*
X15493857Y-16068957D01*
X15493857Y-16097529D01*
X15479571Y-16140386D01*
X15308143Y-16311814D01*
X15493857Y-16311814D01*
X15851000Y-16311814D02*
X15851000Y-16011814D01*
X15979571Y-16311814D02*
X15979571Y-16154671D01*
X15965286Y-16126100D01*
X15936714Y-16111814D01*
X15893857Y-16111814D01*
X15865286Y-16126100D01*
X15851000Y-16140386D01*
X16165286Y-16311814D02*
X16136714Y-16297529D01*
X16122428Y-16283243D01*
X16108143Y-16254671D01*
X16108143Y-16168957D01*
X16122428Y-16140386D01*
X16136714Y-16126100D01*
X16165286Y-16111814D01*
X16208143Y-16111814D01*
X16236714Y-16126100D01*
X16251000Y-16140386D01*
X16265286Y-16168957D01*
X16265286Y-16254671D01*
X16251000Y-16283243D01*
X16236714Y-16297529D01*
X16208143Y-16311814D01*
X16165286Y-16311814D01*
X16436714Y-16311814D02*
X16408143Y-16297529D01*
X16393857Y-16268957D01*
X16393857Y-16011814D01*
X16665286Y-16297529D02*
X16636714Y-16311814D01*
X16579571Y-16311814D01*
X16551000Y-16297529D01*
X16536714Y-16268957D01*
X16536714Y-16154671D01*
X16551000Y-16126100D01*
X16579571Y-16111814D01*
X16636714Y-16111814D01*
X16665286Y-16126100D01*
X16679571Y-16154671D01*
X16679571Y-16183243D01*
X16536714Y-16211814D01*
X16793857Y-16297529D02*
X16822428Y-16311814D01*
X16879571Y-16311814D01*
X16908143Y-16297529D01*
X16922428Y-16268957D01*
X16922428Y-16254671D01*
X16908143Y-16226100D01*
X16879571Y-16211814D01*
X16836714Y-16211814D01*
X16808143Y-16197529D01*
X16793857Y-16168957D01*
X16793857Y-16154671D01*
X16808143Y-16126100D01*
X16836714Y-16111814D01*
X16879571Y-16111814D01*
X16908143Y-16126100D01*
X17022428Y-16426100D02*
X17036714Y-16411814D01*
X17065286Y-16368957D01*
X17079571Y-16340386D01*
X17093857Y-16297529D01*
X17108143Y-16226100D01*
X17108143Y-16168957D01*
X17093857Y-16097529D01*
X17079571Y-16054671D01*
X17065286Y-16026100D01*
X17036714Y-15983243D01*
X17022428Y-15968957D01*
X10436000Y-16522100D02*
X10536000Y-16622100D01*
X10536000Y-16522100D02*
X10436000Y-16622100D01*
X10536000Y-16572100D02*
G75*
G03X10536000Y-16572100I-50000J0D01*
G01*
X10979571Y-16707814D02*
X10808143Y-16707814D01*
X10893857Y-16707814D02*
X10893857Y-16407814D01*
X10865286Y-16450671D01*
X10836714Y-16479243D01*
X10808143Y-16493529D01*
X11108143Y-16679243D02*
X11122428Y-16693529D01*
X11108143Y-16707814D01*
X11093857Y-16693529D01*
X11108143Y-16679243D01*
X11108143Y-16707814D01*
X11308143Y-16407814D02*
X11336714Y-16407814D01*
X11365286Y-16422100D01*
X11379571Y-16436386D01*
X11393857Y-16464957D01*
X11408143Y-16522100D01*
X11408143Y-16593529D01*
X11393857Y-16650671D01*
X11379571Y-16679243D01*
X11365286Y-16693529D01*
X11336714Y-16707814D01*
X11308143Y-16707814D01*
X11279571Y-16693529D01*
X11265286Y-16679243D01*
X11251000Y-16650671D01*
X11236714Y-16593529D01*
X11236714Y-16522100D01*
X11251000Y-16464957D01*
X11265286Y-16436386D01*
X11279571Y-16422100D01*
X11308143Y-16407814D01*
X11593857Y-16407814D02*
X11622428Y-16407814D01*
X11651000Y-16422100D01*
X11665286Y-16436386D01*
X11679571Y-16464957D01*
X11693857Y-16522100D01*
X11693857Y-16593529D01*
X11679571Y-16650671D01*
X11665286Y-16679243D01*
X11651000Y-16693529D01*
X11622428Y-16707814D01*
X11593857Y-16707814D01*
X11565286Y-16693529D01*
X11551000Y-16679243D01*
X11536714Y-16650671D01*
X11522428Y-16593529D01*
X11522428Y-16522100D01*
X11536714Y-16464957D01*
X11551000Y-16436386D01*
X11565286Y-16422100D01*
X11593857Y-16407814D01*
X11822428Y-16707814D02*
X11822428Y-16507814D01*
X11822428Y-16536386D02*
X11836714Y-16522100D01*
X11865286Y-16507814D01*
X11908143Y-16507814D01*
X11936714Y-16522100D01*
X11951000Y-16550671D01*
X11951000Y-16707814D01*
X11951000Y-16550671D02*
X11965286Y-16522100D01*
X11993857Y-16507814D01*
X12036714Y-16507814D01*
X12065286Y-16522100D01*
X12079571Y-16550671D01*
X12079571Y-16707814D01*
X12222428Y-16707814D02*
X12222428Y-16507814D01*
X12222428Y-16536386D02*
X12236714Y-16522100D01*
X12265286Y-16507814D01*
X12308143Y-16507814D01*
X12336714Y-16522100D01*
X12351000Y-16550671D01*
X12351000Y-16707814D01*
X12351000Y-16550671D02*
X12365286Y-16522100D01*
X12393857Y-16507814D01*
X12436714Y-16507814D01*
X12465286Y-16522100D01*
X12479571Y-16550671D01*
X12479571Y-16707814D01*
X13065286Y-16393529D02*
X12808143Y-16779243D01*
X13451000Y-16407814D02*
X13479571Y-16407814D01*
X13508143Y-16422100D01*
X13522428Y-16436386D01*
X13536714Y-16464957D01*
X13551000Y-16522100D01*
X13551000Y-16593529D01*
X13536714Y-16650671D01*
X13522428Y-16679243D01*
X13508143Y-16693529D01*
X13479571Y-16707814D01*
X13451000Y-16707814D01*
X13422428Y-16693529D01*
X13408143Y-16679243D01*
X13393857Y-16650671D01*
X13379571Y-16593529D01*
X13379571Y-16522100D01*
X13393857Y-16464957D01*
X13408143Y-16436386D01*
X13422428Y-16422100D01*
X13451000Y-16407814D01*
X13679571Y-16679243D02*
X13693857Y-16693529D01*
X13679571Y-16707814D01*
X13665286Y-16693529D01*
X13679571Y-16679243D01*
X13679571Y-16707814D01*
X13879571Y-16407814D02*
X13908143Y-16407814D01*
X13936714Y-16422100D01*
X13951000Y-16436386D01*
X13965286Y-16464957D01*
X13979571Y-16522100D01*
X13979571Y-16593529D01*
X13965286Y-16650671D01*
X13951000Y-16679243D01*
X13936714Y-16693529D01*
X13908143Y-16707814D01*
X13879571Y-16707814D01*
X13851000Y-16693529D01*
X13836714Y-16679243D01*
X13822428Y-16650671D01*
X13808143Y-16593529D01*
X13808143Y-16522100D01*
X13822428Y-16464957D01*
X13836714Y-16436386D01*
X13851000Y-16422100D01*
X13879571Y-16407814D01*
X14079571Y-16407814D02*
X14265286Y-16407814D01*
X14165286Y-16522100D01*
X14208143Y-16522100D01*
X14236714Y-16536386D01*
X14251000Y-16550671D01*
X14265286Y-16579243D01*
X14265286Y-16650671D01*
X14251000Y-16679243D01*
X14236714Y-16693529D01*
X14208143Y-16707814D01*
X14122428Y-16707814D01*
X14093857Y-16693529D01*
X14079571Y-16679243D01*
X14408143Y-16707814D02*
X14465286Y-16707814D01*
X14493857Y-16693529D01*
X14508143Y-16679243D01*
X14536714Y-16636386D01*
X14551000Y-16579243D01*
X14551000Y-16464957D01*
X14536714Y-16436386D01*
X14522428Y-16422100D01*
X14493857Y-16407814D01*
X14436714Y-16407814D01*
X14408143Y-16422100D01*
X14393857Y-16436386D01*
X14379571Y-16464957D01*
X14379571Y-16536386D01*
X14393857Y-16564957D01*
X14408143Y-16579243D01*
X14436714Y-16593529D01*
X14493857Y-16593529D01*
X14522428Y-16579243D01*
X14536714Y-16564957D01*
X14551000Y-16536386D01*
X14665286Y-16407814D02*
X14665286Y-16464957D01*
X14779571Y-16407814D02*
X14779571Y-16464957D01*
X15222428Y-16822100D02*
X15208143Y-16807814D01*
X15179571Y-16764957D01*
X15165286Y-16736386D01*
X15151000Y-16693529D01*
X15136714Y-16622100D01*
X15136714Y-16564957D01*
X15151000Y-16493529D01*
X15165286Y-16450671D01*
X15179571Y-16422100D01*
X15208143Y-16379243D01*
X15222428Y-16364957D01*
X15308143Y-16407814D02*
X15508143Y-16407814D01*
X15379571Y-16707814D01*
X15779571Y-16707814D02*
X15608143Y-16707814D01*
X15693857Y-16707814D02*
X15693857Y-16407814D01*
X15665286Y-16450671D01*
X15636714Y-16479243D01*
X15608143Y-16493529D01*
X16136714Y-16707814D02*
X16136714Y-16407814D01*
X16265286Y-16707814D02*
X16265286Y-16550671D01*
X16251000Y-16522100D01*
X16222428Y-16507814D01*
X16179571Y-16507814D01*
X16151000Y-16522100D01*
X16136714Y-16536386D01*
X16451000Y-16707814D02*
X16422428Y-16693529D01*
X16408143Y-16679243D01*
X16393857Y-16650671D01*
X16393857Y-16564957D01*
X16408143Y-16536386D01*
X16422428Y-16522100D01*
X16451000Y-16507814D01*
X16493857Y-16507814D01*
X16522428Y-16522100D01*
X16536714Y-16536386D01*
X16551000Y-16564957D01*
X16551000Y-16650671D01*
X16536714Y-16679243D01*
X16522428Y-16693529D01*
X16493857Y-16707814D01*
X16451000Y-16707814D01*
X16722428Y-16707814D02*
X16693857Y-16693529D01*
X16679571Y-16664957D01*
X16679571Y-16407814D01*
X16951000Y-16693529D02*
X16922428Y-16707814D01*
X16865286Y-16707814D01*
X16836714Y-16693529D01*
X16822428Y-16664957D01*
X16822428Y-16550671D01*
X16836714Y-16522100D01*
X16865286Y-16507814D01*
X16922428Y-16507814D01*
X16951000Y-16522100D01*
X16965286Y-16550671D01*
X16965286Y-16579243D01*
X16822428Y-16607814D01*
X17079571Y-16693529D02*
X17108143Y-16707814D01*
X17165286Y-16707814D01*
X17193857Y-16693529D01*
X17208143Y-16664957D01*
X17208143Y-16650671D01*
X17193857Y-16622100D01*
X17165286Y-16607814D01*
X17122428Y-16607814D01*
X17093857Y-16593529D01*
X17079571Y-16564957D01*
X17079571Y-16550671D01*
X17093857Y-16522100D01*
X17122428Y-16507814D01*
X17165286Y-16507814D01*
X17193857Y-16522100D01*
X17308143Y-16822100D02*
X17322428Y-16807814D01*
X17351000Y-16764957D01*
X17365286Y-16736386D01*
X17379571Y-16693529D01*
X17393857Y-16622100D01*
X17393857Y-16564957D01*
X17379571Y-16493529D01*
X17365286Y-16450671D01*
X17351000Y-16422100D01*
X17322428Y-16379243D01*
X17308143Y-16364957D01*
X10435924Y-16918062D02*
X10536000Y-17018138D01*
X10536000Y-16918062D02*
X10435924Y-17018138D01*
X10485962Y-16918062D02*
X10485962Y-17018138D01*
X10435924Y-16968100D02*
X10536000Y-16968100D01*
X10979571Y-17103814D02*
X10808143Y-17103814D01*
X10893857Y-17103814D02*
X10893857Y-16803814D01*
X10865286Y-16846672D01*
X10836714Y-16875243D01*
X10808143Y-16889529D01*
X11108143Y-17075243D02*
X11122428Y-17089529D01*
X11108143Y-17103814D01*
X11093857Y-17089529D01*
X11108143Y-17075243D01*
X11108143Y-17103814D01*
X11308143Y-16803814D02*
X11336714Y-16803814D01*
X11365286Y-16818100D01*
X11379571Y-16832386D01*
X11393857Y-16860957D01*
X11408143Y-16918100D01*
X11408143Y-16989529D01*
X11393857Y-17046672D01*
X11379571Y-17075243D01*
X11365286Y-17089529D01*
X11336714Y-17103814D01*
X11308143Y-17103814D01*
X11279571Y-17089529D01*
X11265286Y-17075243D01*
X11251000Y-17046672D01*
X11236714Y-16989529D01*
X11236714Y-16918100D01*
X11251000Y-16860957D01*
X11265286Y-16832386D01*
X11279571Y-16818100D01*
X11308143Y-16803814D01*
X11593857Y-16803814D02*
X11622428Y-16803814D01*
X11651000Y-16818100D01*
X11665286Y-16832386D01*
X11679571Y-16860957D01*
X11693857Y-16918100D01*
X11693857Y-16989529D01*
X11679571Y-17046672D01*
X11665286Y-17075243D01*
X11651000Y-17089529D01*
X11622428Y-17103814D01*
X11593857Y-17103814D01*
X11565286Y-17089529D01*
X11551000Y-17075243D01*
X11536714Y-17046672D01*
X11522428Y-16989529D01*
X11522428Y-16918100D01*
X11536714Y-16860957D01*
X11551000Y-16832386D01*
X11565286Y-16818100D01*
X11593857Y-16803814D01*
X11822428Y-17103814D02*
X11822428Y-16903814D01*
X11822428Y-16932386D02*
X11836714Y-16918100D01*
X11865286Y-16903814D01*
X11908143Y-16903814D01*
X11936714Y-16918100D01*
X11951000Y-16946672D01*
X11951000Y-17103814D01*
X11951000Y-16946672D02*
X11965286Y-16918100D01*
X11993857Y-16903814D01*
X12036714Y-16903814D01*
X12065286Y-16918100D01*
X12079571Y-16946672D01*
X12079571Y-17103814D01*
X12222428Y-17103814D02*
X12222428Y-16903814D01*
X12222428Y-16932386D02*
X12236714Y-16918100D01*
X12265286Y-16903814D01*
X12308143Y-16903814D01*
X12336714Y-16918100D01*
X12351000Y-16946672D01*
X12351000Y-17103814D01*
X12351000Y-16946672D02*
X12365286Y-16918100D01*
X12393857Y-16903814D01*
X12436714Y-16903814D01*
X12465286Y-16918100D01*
X12479571Y-16946672D01*
X12479571Y-17103814D01*
X13065286Y-16789529D02*
X12808143Y-17175243D01*
X13451000Y-16803814D02*
X13479571Y-16803814D01*
X13508143Y-16818100D01*
X13522428Y-16832386D01*
X13536714Y-16860957D01*
X13551000Y-16918100D01*
X13551000Y-16989529D01*
X13536714Y-17046672D01*
X13522428Y-17075243D01*
X13508143Y-17089529D01*
X13479571Y-17103814D01*
X13451000Y-17103814D01*
X13422428Y-17089529D01*
X13408143Y-17075243D01*
X13393857Y-17046672D01*
X13379571Y-16989529D01*
X13379571Y-16918100D01*
X13393857Y-16860957D01*
X13408143Y-16832386D01*
X13422428Y-16818100D01*
X13451000Y-16803814D01*
X13679571Y-17075243D02*
X13693857Y-17089529D01*
X13679571Y-17103814D01*
X13665286Y-17089529D01*
X13679571Y-17075243D01*
X13679571Y-17103814D01*
X13879571Y-16803814D02*
X13908143Y-16803814D01*
X13936714Y-16818100D01*
X13951000Y-16832386D01*
X13965286Y-16860957D01*
X13979571Y-16918100D01*
X13979571Y-16989529D01*
X13965286Y-17046672D01*
X13951000Y-17075243D01*
X13936714Y-17089529D01*
X13908143Y-17103814D01*
X13879571Y-17103814D01*
X13851000Y-17089529D01*
X13836714Y-17075243D01*
X13822428Y-17046672D01*
X13808143Y-16989529D01*
X13808143Y-16918100D01*
X13822428Y-16860957D01*
X13836714Y-16832386D01*
X13851000Y-16818100D01*
X13879571Y-16803814D01*
X14079571Y-16803814D02*
X14265286Y-16803814D01*
X14165286Y-16918100D01*
X14208143Y-16918100D01*
X14236714Y-16932386D01*
X14251000Y-16946672D01*
X14265286Y-16975243D01*
X14265286Y-17046672D01*
X14251000Y-17075243D01*
X14236714Y-17089529D01*
X14208143Y-17103814D01*
X14122428Y-17103814D01*
X14093857Y-17089529D01*
X14079571Y-17075243D01*
X14408143Y-17103814D02*
X14465286Y-17103814D01*
X14493857Y-17089529D01*
X14508143Y-17075243D01*
X14536714Y-17032386D01*
X14551000Y-16975243D01*
X14551000Y-16860957D01*
X14536714Y-16832386D01*
X14522428Y-16818100D01*
X14493857Y-16803814D01*
X14436714Y-16803814D01*
X14408143Y-16818100D01*
X14393857Y-16832386D01*
X14379571Y-16860957D01*
X14379571Y-16932386D01*
X14393857Y-16960957D01*
X14408143Y-16975243D01*
X14436714Y-16989529D01*
X14493857Y-16989529D01*
X14522428Y-16975243D01*
X14536714Y-16960957D01*
X14551000Y-16932386D01*
X14665286Y-16803814D02*
X14665286Y-16860957D01*
X14779571Y-16803814D02*
X14779571Y-16860957D01*
X15222428Y-17218100D02*
X15208143Y-17203814D01*
X15179571Y-17160957D01*
X15165286Y-17132386D01*
X15151000Y-17089529D01*
X15136714Y-17018100D01*
X15136714Y-16960957D01*
X15151000Y-16889529D01*
X15165286Y-16846672D01*
X15179571Y-16818100D01*
X15208143Y-16775243D01*
X15222428Y-16760957D01*
X15393857Y-16803814D02*
X15422428Y-16803814D01*
X15451000Y-16818100D01*
X15465286Y-16832386D01*
X15479571Y-16860957D01*
X15493857Y-16918100D01*
X15493857Y-16989529D01*
X15479571Y-17046672D01*
X15465286Y-17075243D01*
X15451000Y-17089529D01*
X15422428Y-17103814D01*
X15393857Y-17103814D01*
X15365286Y-17089529D01*
X15351000Y-17075243D01*
X15336714Y-17046672D01*
X15322428Y-16989529D01*
X15322428Y-16918100D01*
X15336714Y-16860957D01*
X15351000Y-16832386D01*
X15365286Y-16818100D01*
X15393857Y-16803814D01*
X15851000Y-17103814D02*
X15851000Y-16803814D01*
X15979571Y-17103814D02*
X15979571Y-16946672D01*
X15965286Y-16918100D01*
X15936714Y-16903814D01*
X15893857Y-16903814D01*
X15865286Y-16918100D01*
X15851000Y-16932386D01*
X16165286Y-17103814D02*
X16136714Y-17089529D01*
X16122428Y-17075243D01*
X16108143Y-17046672D01*
X16108143Y-16960957D01*
X16122428Y-16932386D01*
X16136714Y-16918100D01*
X16165286Y-16903814D01*
X16208143Y-16903814D01*
X16236714Y-16918100D01*
X16251000Y-16932386D01*
X16265286Y-16960957D01*
X16265286Y-17046672D01*
X16251000Y-17075243D01*
X16236714Y-17089529D01*
X16208143Y-17103814D01*
X16165286Y-17103814D01*
X16436714Y-17103814D02*
X16408143Y-17089529D01*
X16393857Y-17060957D01*
X16393857Y-16803814D01*
X16665286Y-17089529D02*
X16636714Y-17103814D01*
X16579571Y-17103814D01*
X16551000Y-17089529D01*
X16536714Y-17060957D01*
X16536714Y-16946672D01*
X16551000Y-16918100D01*
X16579571Y-16903814D01*
X16636714Y-16903814D01*
X16665286Y-16918100D01*
X16679571Y-16946672D01*
X16679571Y-16975243D01*
X16536714Y-17003814D01*
X16793857Y-17089529D02*
X16822428Y-17103814D01*
X16879571Y-17103814D01*
X16908143Y-17089529D01*
X16922428Y-17060957D01*
X16922428Y-17046672D01*
X16908143Y-17018100D01*
X16879571Y-17003814D01*
X16836714Y-17003814D01*
X16808143Y-16989529D01*
X16793857Y-16960957D01*
X16793857Y-16946672D01*
X16808143Y-16918100D01*
X16836714Y-16903814D01*
X16879571Y-16903814D01*
X16908143Y-16918100D01*
X17279571Y-16989529D02*
X17508143Y-16989529D01*
X17393857Y-17103814D02*
X17393857Y-16875243D01*
X17851000Y-16803814D02*
X18036714Y-16803814D01*
X17936714Y-16918100D01*
X17979571Y-16918100D01*
X18008143Y-16932386D01*
X18022428Y-16946672D01*
X18036714Y-16975243D01*
X18036714Y-17046672D01*
X18022428Y-17075243D01*
X18008143Y-17089529D01*
X17979571Y-17103814D01*
X17893857Y-17103814D01*
X17865286Y-17089529D01*
X17851000Y-17075243D01*
X18379571Y-17089529D02*
X18408143Y-17103814D01*
X18465286Y-17103814D01*
X18493857Y-17089529D01*
X18508143Y-17060957D01*
X18508143Y-17046672D01*
X18493857Y-17018100D01*
X18465286Y-17003814D01*
X18422428Y-17003814D01*
X18393857Y-16989529D01*
X18379571Y-16960957D01*
X18379571Y-16946672D01*
X18393857Y-16918100D01*
X18422428Y-16903814D01*
X18465286Y-16903814D01*
X18493857Y-16918100D01*
X18679571Y-17103814D02*
X18651000Y-17089529D01*
X18636714Y-17060957D01*
X18636714Y-16803814D01*
X18836714Y-17103814D02*
X18808143Y-17089529D01*
X18793857Y-17075243D01*
X18779571Y-17046672D01*
X18779571Y-16960957D01*
X18793857Y-16932386D01*
X18808143Y-16918100D01*
X18836714Y-16903814D01*
X18879571Y-16903814D01*
X18908143Y-16918100D01*
X18922428Y-16932386D01*
X18936714Y-16960957D01*
X18936714Y-17046672D01*
X18922428Y-17075243D01*
X18908143Y-17089529D01*
X18879571Y-17103814D01*
X18836714Y-17103814D01*
X19022428Y-16903814D02*
X19136714Y-16903814D01*
X19065286Y-16803814D02*
X19065286Y-17060957D01*
X19079571Y-17089529D01*
X19108143Y-17103814D01*
X19136714Y-17103814D01*
X19222428Y-17089529D02*
X19251000Y-17103814D01*
X19308143Y-17103814D01*
X19336714Y-17089529D01*
X19351000Y-17060957D01*
X19351000Y-17046672D01*
X19336714Y-17018100D01*
X19308143Y-17003814D01*
X19265286Y-17003814D01*
X19236714Y-16989529D01*
X19222428Y-16960957D01*
X19222428Y-16946672D01*
X19236714Y-16918100D01*
X19265286Y-16903814D01*
X19308143Y-16903814D01*
X19336714Y-16918100D01*
X19451000Y-17218100D02*
X19465286Y-17203814D01*
X19493857Y-17160957D01*
X19508143Y-17132386D01*
X19522428Y-17089529D01*
X19536714Y-17018100D01*
X19536714Y-16960957D01*
X19522428Y-16889529D01*
X19508143Y-16846672D01*
X19493857Y-16818100D01*
X19465286Y-16775243D01*
X19451000Y-16760957D01*
X10416000Y-17304100D02*
X10536000Y-17424100D01*
X10536000Y-17304100D02*
X10416000Y-17424100D01*
X10518427Y-17406527D02*
X10518427Y-17321673D01*
X10433573Y-17321673D01*
X10433573Y-17406527D01*
X10518427Y-17406527D01*
X10979571Y-17499814D02*
X10808143Y-17499814D01*
X10893857Y-17499814D02*
X10893857Y-17199814D01*
X10865286Y-17242672D01*
X10836714Y-17271243D01*
X10808143Y-17285529D01*
X11108143Y-17471243D02*
X11122428Y-17485529D01*
X11108143Y-17499814D01*
X11093857Y-17485529D01*
X11108143Y-17471243D01*
X11108143Y-17499814D01*
X11236714Y-17228386D02*
X11251000Y-17214100D01*
X11279571Y-17199814D01*
X11351000Y-17199814D01*
X11379571Y-17214100D01*
X11393857Y-17228386D01*
X11408143Y-17256957D01*
X11408143Y-17285529D01*
X11393857Y-17328386D01*
X11222428Y-17499814D01*
X11408143Y-17499814D01*
X11593857Y-17199814D02*
X11622428Y-17199814D01*
X11651000Y-17214100D01*
X11665286Y-17228386D01*
X11679571Y-17256957D01*
X11693857Y-17314100D01*
X11693857Y-17385529D01*
X11679571Y-17442672D01*
X11665286Y-17471243D01*
X11651000Y-17485529D01*
X11622428Y-17499814D01*
X11593857Y-17499814D01*
X11565286Y-17485529D01*
X11551000Y-17471243D01*
X11536714Y-17442672D01*
X11522428Y-17385529D01*
X11522428Y-17314100D01*
X11536714Y-17256957D01*
X11551000Y-17228386D01*
X11565286Y-17214100D01*
X11593857Y-17199814D01*
X11822428Y-17499814D02*
X11822428Y-17299814D01*
X11822428Y-17328386D02*
X11836714Y-17314100D01*
X11865286Y-17299814D01*
X11908143Y-17299814D01*
X11936714Y-17314100D01*
X11951000Y-17342672D01*
X11951000Y-17499814D01*
X11951000Y-17342672D02*
X11965286Y-17314100D01*
X11993857Y-17299814D01*
X12036714Y-17299814D01*
X12065286Y-17314100D01*
X12079571Y-17342672D01*
X12079571Y-17499814D01*
X12222428Y-17499814D02*
X12222428Y-17299814D01*
X12222428Y-17328386D02*
X12236714Y-17314100D01*
X12265286Y-17299814D01*
X12308143Y-17299814D01*
X12336714Y-17314100D01*
X12351000Y-17342672D01*
X12351000Y-17499814D01*
X12351000Y-17342672D02*
X12365286Y-17314100D01*
X12393857Y-17299814D01*
X12436714Y-17299814D01*
X12465286Y-17314100D01*
X12479571Y-17342672D01*
X12479571Y-17499814D01*
X13065286Y-17185529D02*
X12808143Y-17571243D01*
X13451000Y-17199814D02*
X13479571Y-17199814D01*
X13508143Y-17214100D01*
X13522428Y-17228386D01*
X13536714Y-17256957D01*
X13551000Y-17314100D01*
X13551000Y-17385529D01*
X13536714Y-17442672D01*
X13522428Y-17471243D01*
X13508143Y-17485529D01*
X13479571Y-17499814D01*
X13451000Y-17499814D01*
X13422428Y-17485529D01*
X13408143Y-17471243D01*
X13393857Y-17442672D01*
X13379571Y-17385529D01*
X13379571Y-17314100D01*
X13393857Y-17256957D01*
X13408143Y-17228386D01*
X13422428Y-17214100D01*
X13451000Y-17199814D01*
X13679571Y-17471243D02*
X13693857Y-17485529D01*
X13679571Y-17499814D01*
X13665286Y-17485529D01*
X13679571Y-17471243D01*
X13679571Y-17499814D01*
X13879571Y-17199814D02*
X13908143Y-17199814D01*
X13936714Y-17214100D01*
X13951000Y-17228386D01*
X13965286Y-17256957D01*
X13979571Y-17314100D01*
X13979571Y-17385529D01*
X13965286Y-17442672D01*
X13951000Y-17471243D01*
X13936714Y-17485529D01*
X13908143Y-17499814D01*
X13879571Y-17499814D01*
X13851000Y-17485529D01*
X13836714Y-17471243D01*
X13822428Y-17442672D01*
X13808143Y-17385529D01*
X13808143Y-17314100D01*
X13822428Y-17256957D01*
X13836714Y-17228386D01*
X13851000Y-17214100D01*
X13879571Y-17199814D01*
X14236714Y-17299814D02*
X14236714Y-17499814D01*
X14165286Y-17185529D02*
X14093857Y-17399814D01*
X14279571Y-17399814D01*
X14365286Y-17199814D02*
X14565286Y-17199814D01*
X14436714Y-17499814D01*
X14665286Y-17199814D02*
X14665286Y-17256957D01*
X14779571Y-17199814D02*
X14779571Y-17256957D01*
X15222428Y-17614100D02*
X15208143Y-17599814D01*
X15179571Y-17556957D01*
X15165286Y-17528386D01*
X15151000Y-17485529D01*
X15136714Y-17414100D01*
X15136714Y-17356957D01*
X15151000Y-17285529D01*
X15165286Y-17242672D01*
X15179571Y-17214100D01*
X15208143Y-17171243D01*
X15222428Y-17156957D01*
X15322428Y-17228386D02*
X15336714Y-17214100D01*
X15365286Y-17199814D01*
X15436714Y-17199814D01*
X15465286Y-17214100D01*
X15479571Y-17228386D01*
X15493857Y-17256957D01*
X15493857Y-17285529D01*
X15479571Y-17328386D01*
X15308143Y-17499814D01*
X15493857Y-17499814D01*
X15851000Y-17499814D02*
X15851000Y-17199814D01*
X15979571Y-17499814D02*
X15979571Y-17342672D01*
X15965286Y-17314100D01*
X15936714Y-17299814D01*
X15893857Y-17299814D01*
X15865286Y-17314100D01*
X15851000Y-17328386D01*
X16165286Y-17499814D02*
X16136714Y-17485529D01*
X16122428Y-17471243D01*
X16108143Y-17442672D01*
X16108143Y-17356957D01*
X16122428Y-17328386D01*
X16136714Y-17314100D01*
X16165286Y-17299814D01*
X16208143Y-17299814D01*
X16236714Y-17314100D01*
X16251000Y-17328386D01*
X16265286Y-17356957D01*
X16265286Y-17442672D01*
X16251000Y-17471243D01*
X16236714Y-17485529D01*
X16208143Y-17499814D01*
X16165286Y-17499814D01*
X16436714Y-17499814D02*
X16408143Y-17485529D01*
X16393857Y-17456957D01*
X16393857Y-17199814D01*
X16665286Y-17485529D02*
X16636714Y-17499814D01*
X16579571Y-17499814D01*
X16551000Y-17485529D01*
X16536714Y-17456957D01*
X16536714Y-17342672D01*
X16551000Y-17314100D01*
X16579571Y-17299814D01*
X16636714Y-17299814D01*
X16665286Y-17314100D01*
X16679571Y-17342672D01*
X16679571Y-17371243D01*
X16536714Y-17399814D01*
X16793857Y-17485529D02*
X16822428Y-17499814D01*
X16879571Y-17499814D01*
X16908143Y-17485529D01*
X16922428Y-17456957D01*
X16922428Y-17442672D01*
X16908143Y-17414100D01*
X16879571Y-17399814D01*
X16836714Y-17399814D01*
X16808143Y-17385529D01*
X16793857Y-17356957D01*
X16793857Y-17342672D01*
X16808143Y-17314100D01*
X16836714Y-17299814D01*
X16879571Y-17299814D01*
X16908143Y-17314100D01*
X17022428Y-17614100D02*
X17036714Y-17599814D01*
X17065286Y-17556957D01*
X17079571Y-17528386D01*
X17093857Y-17485529D01*
X17108143Y-17414100D01*
X17108143Y-17356957D01*
X17093857Y-17285529D01*
X17079571Y-17242672D01*
X17065286Y-17214100D01*
X17036714Y-17171243D01*
X17022428Y-17156957D01*
X10236000Y-17610100D02*
X10536000Y-17910100D01*
X10536000Y-17610100D02*
X10236000Y-17910100D01*
X10386000Y-17910100D02*
X10536000Y-17760100D01*
X10386000Y-17610100D01*
X10236000Y-17760100D01*
X10386000Y-17910100D01*
X10793857Y-17595814D02*
X10979571Y-17595814D01*
X10879571Y-17710100D01*
X10922428Y-17710100D01*
X10951000Y-17724386D01*
X10965286Y-17738672D01*
X10979571Y-17767243D01*
X10979571Y-17838672D01*
X10965286Y-17867243D01*
X10951000Y-17881529D01*
X10922428Y-17895814D01*
X10836714Y-17895814D01*
X10808143Y-17881529D01*
X10793857Y-17867243D01*
X11108143Y-17867243D02*
X11122428Y-17881529D01*
X11108143Y-17895814D01*
X11093857Y-17881529D01*
X11108143Y-17867243D01*
X11108143Y-17895814D01*
X11308143Y-17595814D02*
X11336714Y-17595814D01*
X11365286Y-17610100D01*
X11379571Y-17624386D01*
X11393857Y-17652957D01*
X11408143Y-17710100D01*
X11408143Y-17781529D01*
X11393857Y-17838672D01*
X11379571Y-17867243D01*
X11365286Y-17881529D01*
X11336714Y-17895814D01*
X11308143Y-17895814D01*
X11279571Y-17881529D01*
X11265286Y-17867243D01*
X11251000Y-17838672D01*
X11236714Y-17781529D01*
X11236714Y-17710100D01*
X11251000Y-17652957D01*
X11265286Y-17624386D01*
X11279571Y-17610100D01*
X11308143Y-17595814D01*
X11593857Y-17595814D02*
X11622428Y-17595814D01*
X11651000Y-17610100D01*
X11665286Y-17624386D01*
X11679571Y-17652957D01*
X11693857Y-17710100D01*
X11693857Y-17781529D01*
X11679571Y-17838672D01*
X11665286Y-17867243D01*
X11651000Y-17881529D01*
X11622428Y-17895814D01*
X11593857Y-17895814D01*
X11565286Y-17881529D01*
X11551000Y-17867243D01*
X11536714Y-17838672D01*
X11522428Y-17781529D01*
X11522428Y-17710100D01*
X11536714Y-17652957D01*
X11551000Y-17624386D01*
X11565286Y-17610100D01*
X11593857Y-17595814D01*
X11822428Y-17895814D02*
X11822428Y-17695814D01*
X11822428Y-17724386D02*
X11836714Y-17710100D01*
X11865286Y-17695814D01*
X11908143Y-17695814D01*
X11936714Y-17710100D01*
X11951000Y-17738672D01*
X11951000Y-17895814D01*
X11951000Y-17738672D02*
X11965286Y-17710100D01*
X11993857Y-17695814D01*
X12036714Y-17695814D01*
X12065286Y-17710100D01*
X12079571Y-17738672D01*
X12079571Y-17895814D01*
X12222428Y-17895814D02*
X12222428Y-17695814D01*
X12222428Y-17724386D02*
X12236714Y-17710100D01*
X12265286Y-17695814D01*
X12308143Y-17695814D01*
X12336714Y-17710100D01*
X12351000Y-17738672D01*
X12351000Y-17895814D01*
X12351000Y-17738672D02*
X12365286Y-17710100D01*
X12393857Y-17695814D01*
X12436714Y-17695814D01*
X12465286Y-17710100D01*
X12479571Y-17738672D01*
X12479571Y-17895814D01*
X13065286Y-17581529D02*
X12808143Y-17967243D01*
X13451000Y-17595814D02*
X13479571Y-17595814D01*
X13508143Y-17610100D01*
X13522428Y-17624386D01*
X13536714Y-17652957D01*
X13551000Y-17710100D01*
X13551000Y-17781529D01*
X13536714Y-17838672D01*
X13522428Y-17867243D01*
X13508143Y-17881529D01*
X13479571Y-17895814D01*
X13451000Y-17895814D01*
X13422428Y-17881529D01*
X13408143Y-17867243D01*
X13393857Y-17838672D01*
X13379571Y-17781529D01*
X13379571Y-17710100D01*
X13393857Y-17652957D01*
X13408143Y-17624386D01*
X13422428Y-17610100D01*
X13451000Y-17595814D01*
X13679571Y-17867243D02*
X13693857Y-17881529D01*
X13679571Y-17895814D01*
X13665286Y-17881529D01*
X13679571Y-17867243D01*
X13679571Y-17895814D01*
X13979571Y-17895814D02*
X13808143Y-17895814D01*
X13893857Y-17895814D02*
X13893857Y-17595814D01*
X13865286Y-17638672D01*
X13836714Y-17667243D01*
X13808143Y-17681529D01*
X14265286Y-17895814D02*
X14093857Y-17895814D01*
X14179571Y-17895814D02*
X14179571Y-17595814D01*
X14151000Y-17638672D01*
X14122428Y-17667243D01*
X14093857Y-17681529D01*
X14436714Y-17724386D02*
X14408143Y-17710100D01*
X14393857Y-17695814D01*
X14379571Y-17667243D01*
X14379571Y-17652957D01*
X14393857Y-17624386D01*
X14408143Y-17610100D01*
X14436714Y-17595814D01*
X14493857Y-17595814D01*
X14522428Y-17610100D01*
X14536714Y-17624386D01*
X14551000Y-17652957D01*
X14551000Y-17667243D01*
X14536714Y-17695814D01*
X14522428Y-17710100D01*
X14493857Y-17724386D01*
X14436714Y-17724386D01*
X14408143Y-17738672D01*
X14393857Y-17752957D01*
X14379571Y-17781529D01*
X14379571Y-17838672D01*
X14393857Y-17867243D01*
X14408143Y-17881529D01*
X14436714Y-17895814D01*
X14493857Y-17895814D01*
X14522428Y-17881529D01*
X14536714Y-17867243D01*
X14551000Y-17838672D01*
X14551000Y-17781529D01*
X14536714Y-17752957D01*
X14522428Y-17738672D01*
X14493857Y-17724386D01*
X14665286Y-17595814D02*
X14665286Y-17652957D01*
X14779571Y-17595814D02*
X14779571Y-17652957D01*
X15222428Y-18010100D02*
X15208143Y-17995814D01*
X15179571Y-17952957D01*
X15165286Y-17924386D01*
X15151000Y-17881529D01*
X15136714Y-17810100D01*
X15136714Y-17752957D01*
X15151000Y-17681529D01*
X15165286Y-17638672D01*
X15179571Y-17610100D01*
X15208143Y-17567243D01*
X15222428Y-17552957D01*
X15393857Y-17595814D02*
X15422428Y-17595814D01*
X15451000Y-17610100D01*
X15465286Y-17624386D01*
X15479571Y-17652957D01*
X15493857Y-17710100D01*
X15493857Y-17781529D01*
X15479571Y-17838672D01*
X15465286Y-17867243D01*
X15451000Y-17881529D01*
X15422428Y-17895814D01*
X15393857Y-17895814D01*
X15365286Y-17881529D01*
X15351000Y-17867243D01*
X15336714Y-17838672D01*
X15322428Y-17781529D01*
X15322428Y-17710100D01*
X15336714Y-17652957D01*
X15351000Y-17624386D01*
X15365286Y-17610100D01*
X15393857Y-17595814D01*
X15851000Y-17895814D02*
X15851000Y-17595814D01*
X15979571Y-17895814D02*
X15979571Y-17738672D01*
X15965286Y-17710100D01*
X15936714Y-17695814D01*
X15893857Y-17695814D01*
X15865286Y-17710100D01*
X15851000Y-17724386D01*
X16165286Y-17895814D02*
X16136714Y-17881529D01*
X16122428Y-17867243D01*
X16108143Y-17838672D01*
X16108143Y-17752957D01*
X16122428Y-17724386D01*
X16136714Y-17710100D01*
X16165286Y-17695814D01*
X16208143Y-17695814D01*
X16236714Y-17710100D01*
X16251000Y-17724386D01*
X16265286Y-17752957D01*
X16265286Y-17838672D01*
X16251000Y-17867243D01*
X16236714Y-17881529D01*
X16208143Y-17895814D01*
X16165286Y-17895814D01*
X16436714Y-17895814D02*
X16408143Y-17881529D01*
X16393857Y-17852957D01*
X16393857Y-17595814D01*
X16665286Y-17881529D02*
X16636714Y-17895814D01*
X16579571Y-17895814D01*
X16551000Y-17881529D01*
X16536714Y-17852957D01*
X16536714Y-17738672D01*
X16551000Y-17710100D01*
X16579571Y-17695814D01*
X16636714Y-17695814D01*
X16665286Y-17710100D01*
X16679571Y-17738672D01*
X16679571Y-17767243D01*
X16536714Y-17795814D01*
X16793857Y-17881529D02*
X16822428Y-17895814D01*
X16879571Y-17895814D01*
X16908143Y-17881529D01*
X16922428Y-17852957D01*
X16922428Y-17838672D01*
X16908143Y-17810100D01*
X16879571Y-17795814D01*
X16836714Y-17795814D01*
X16808143Y-17781529D01*
X16793857Y-17752957D01*
X16793857Y-17738672D01*
X16808143Y-17710100D01*
X16836714Y-17695814D01*
X16879571Y-17695814D01*
X16908143Y-17710100D01*
X17279571Y-17781529D02*
X17508143Y-17781529D01*
X17393857Y-17895814D02*
X17393857Y-17667243D01*
X17865286Y-17624386D02*
X17879571Y-17610100D01*
X17908143Y-17595814D01*
X17979571Y-17595814D01*
X18008143Y-17610100D01*
X18022428Y-17624386D01*
X18036714Y-17652957D01*
X18036714Y-17681529D01*
X18022428Y-17724386D01*
X17851000Y-17895814D01*
X18036714Y-17895814D01*
X18379571Y-17881529D02*
X18408143Y-17895814D01*
X18465286Y-17895814D01*
X18493857Y-17881529D01*
X18508143Y-17852957D01*
X18508143Y-17838672D01*
X18493857Y-17810100D01*
X18465286Y-17795814D01*
X18422428Y-17795814D01*
X18393857Y-17781529D01*
X18379571Y-17752957D01*
X18379571Y-17738672D01*
X18393857Y-17710100D01*
X18422428Y-17695814D01*
X18465286Y-17695814D01*
X18493857Y-17710100D01*
X18679571Y-17895814D02*
X18651000Y-17881529D01*
X18636714Y-17852957D01*
X18636714Y-17595814D01*
X18836714Y-17895814D02*
X18808143Y-17881529D01*
X18793857Y-17867243D01*
X18779571Y-17838672D01*
X18779571Y-17752957D01*
X18793857Y-17724386D01*
X18808143Y-17710100D01*
X18836714Y-17695814D01*
X18879571Y-17695814D01*
X18908143Y-17710100D01*
X18922428Y-17724386D01*
X18936714Y-17752957D01*
X18936714Y-17838672D01*
X18922428Y-17867243D01*
X18908143Y-17881529D01*
X18879571Y-17895814D01*
X18836714Y-17895814D01*
X19022428Y-17695814D02*
X19136714Y-17695814D01*
X19065286Y-17595814D02*
X19065286Y-17852957D01*
X19079571Y-17881529D01*
X19108143Y-17895814D01*
X19136714Y-17895814D01*
X19222428Y-17881529D02*
X19251000Y-17895814D01*
X19308143Y-17895814D01*
X19336714Y-17881529D01*
X19351000Y-17852957D01*
X19351000Y-17838672D01*
X19336714Y-17810100D01*
X19308143Y-17795814D01*
X19265286Y-17795814D01*
X19236714Y-17781529D01*
X19222428Y-17752957D01*
X19222428Y-17738672D01*
X19236714Y-17710100D01*
X19265286Y-17695814D01*
X19308143Y-17695814D01*
X19336714Y-17710100D01*
X19451000Y-18010100D02*
X19465286Y-17995814D01*
X19493857Y-17952957D01*
X19508143Y-17924386D01*
X19522428Y-17881529D01*
X19536714Y-17810100D01*
X19536714Y-17752957D01*
X19522428Y-17681529D01*
X19508143Y-17638672D01*
X19493857Y-17610100D01*
X19465286Y-17567243D01*
X19451000Y-17552957D01*
X10376000Y-18030100D02*
X10376000Y-18350100D01*
X10216000Y-18190100D02*
X10536000Y-18190100D01*
X10536000Y-18190100D02*
G75*
G03X10536000Y-18190100I-160000J0D01*
G01*
X10793857Y-18025814D02*
X10979571Y-18025814D01*
X10879571Y-18140100D01*
X10922428Y-18140100D01*
X10951000Y-18154386D01*
X10965286Y-18168672D01*
X10979571Y-18197243D01*
X10979571Y-18268672D01*
X10965286Y-18297243D01*
X10951000Y-18311529D01*
X10922428Y-18325814D01*
X10836714Y-18325814D01*
X10808143Y-18311529D01*
X10793857Y-18297243D01*
X11108143Y-18297243D02*
X11122428Y-18311529D01*
X11108143Y-18325814D01*
X11093857Y-18311529D01*
X11108143Y-18297243D01*
X11108143Y-18325814D01*
X11236714Y-18054386D02*
X11251000Y-18040100D01*
X11279571Y-18025814D01*
X11351000Y-18025814D01*
X11379571Y-18040100D01*
X11393857Y-18054386D01*
X11408143Y-18082957D01*
X11408143Y-18111529D01*
X11393857Y-18154386D01*
X11222428Y-18325814D01*
X11408143Y-18325814D01*
X11593857Y-18025814D02*
X11622428Y-18025814D01*
X11651000Y-18040100D01*
X11665286Y-18054386D01*
X11679571Y-18082957D01*
X11693857Y-18140100D01*
X11693857Y-18211529D01*
X11679571Y-18268672D01*
X11665286Y-18297243D01*
X11651000Y-18311529D01*
X11622428Y-18325814D01*
X11593857Y-18325814D01*
X11565286Y-18311529D01*
X11551000Y-18297243D01*
X11536714Y-18268672D01*
X11522428Y-18211529D01*
X11522428Y-18140100D01*
X11536714Y-18082957D01*
X11551000Y-18054386D01*
X11565286Y-18040100D01*
X11593857Y-18025814D01*
X11822428Y-18325814D02*
X11822428Y-18125814D01*
X11822428Y-18154386D02*
X11836714Y-18140100D01*
X11865286Y-18125814D01*
X11908143Y-18125814D01*
X11936714Y-18140100D01*
X11951000Y-18168672D01*
X11951000Y-18325814D01*
X11951000Y-18168672D02*
X11965286Y-18140100D01*
X11993857Y-18125814D01*
X12036714Y-18125814D01*
X12065286Y-18140100D01*
X12079571Y-18168672D01*
X12079571Y-18325814D01*
X12222428Y-18325814D02*
X12222428Y-18125814D01*
X12222428Y-18154386D02*
X12236714Y-18140100D01*
X12265286Y-18125814D01*
X12308143Y-18125814D01*
X12336714Y-18140100D01*
X12351000Y-18168672D01*
X12351000Y-18325814D01*
X12351000Y-18168672D02*
X12365286Y-18140100D01*
X12393857Y-18125814D01*
X12436714Y-18125814D01*
X12465286Y-18140100D01*
X12479571Y-18168672D01*
X12479571Y-18325814D01*
X13065286Y-18011529D02*
X12808143Y-18397243D01*
X13451000Y-18025814D02*
X13479571Y-18025814D01*
X13508143Y-18040100D01*
X13522428Y-18054386D01*
X13536714Y-18082957D01*
X13551000Y-18140100D01*
X13551000Y-18211529D01*
X13536714Y-18268672D01*
X13522428Y-18297243D01*
X13508143Y-18311529D01*
X13479571Y-18325814D01*
X13451000Y-18325814D01*
X13422428Y-18311529D01*
X13408143Y-18297243D01*
X13393857Y-18268672D01*
X13379571Y-18211529D01*
X13379571Y-18140100D01*
X13393857Y-18082957D01*
X13408143Y-18054386D01*
X13422428Y-18040100D01*
X13451000Y-18025814D01*
X13679571Y-18297243D02*
X13693857Y-18311529D01*
X13679571Y-18325814D01*
X13665286Y-18311529D01*
X13679571Y-18297243D01*
X13679571Y-18325814D01*
X13979571Y-18325814D02*
X13808143Y-18325814D01*
X13893857Y-18325814D02*
X13893857Y-18025814D01*
X13865286Y-18068672D01*
X13836714Y-18097243D01*
X13808143Y-18111529D01*
X14093857Y-18054386D02*
X14108143Y-18040100D01*
X14136714Y-18025814D01*
X14208143Y-18025814D01*
X14236714Y-18040100D01*
X14251000Y-18054386D01*
X14265286Y-18082957D01*
X14265286Y-18111529D01*
X14251000Y-18154386D01*
X14079571Y-18325814D01*
X14265286Y-18325814D01*
X14522428Y-18025814D02*
X14465286Y-18025814D01*
X14436714Y-18040100D01*
X14422428Y-18054386D01*
X14393857Y-18097243D01*
X14379571Y-18154386D01*
X14379571Y-18268672D01*
X14393857Y-18297243D01*
X14408143Y-18311529D01*
X14436714Y-18325814D01*
X14493857Y-18325814D01*
X14522428Y-18311529D01*
X14536714Y-18297243D01*
X14551000Y-18268672D01*
X14551000Y-18197243D01*
X14536714Y-18168672D01*
X14522428Y-18154386D01*
X14493857Y-18140100D01*
X14436714Y-18140100D01*
X14408143Y-18154386D01*
X14393857Y-18168672D01*
X14379571Y-18197243D01*
X14665286Y-18025814D02*
X14665286Y-18082957D01*
X14779571Y-18025814D02*
X14779571Y-18082957D01*
X15222428Y-18440100D02*
X15208143Y-18425814D01*
X15179571Y-18382957D01*
X15165286Y-18354386D01*
X15151000Y-18311529D01*
X15136714Y-18240100D01*
X15136714Y-18182957D01*
X15151000Y-18111529D01*
X15165286Y-18068672D01*
X15179571Y-18040100D01*
X15208143Y-17997243D01*
X15222428Y-17982957D01*
X15465286Y-18125814D02*
X15465286Y-18325814D01*
X15393857Y-18011529D02*
X15322428Y-18225814D01*
X15508143Y-18225814D01*
X15851000Y-18325814D02*
X15851000Y-18025814D01*
X15979571Y-18325814D02*
X15979571Y-18168672D01*
X15965286Y-18140100D01*
X15936714Y-18125814D01*
X15893857Y-18125814D01*
X15865286Y-18140100D01*
X15851000Y-18154386D01*
X16165286Y-18325814D02*
X16136714Y-18311529D01*
X16122428Y-18297243D01*
X16108143Y-18268672D01*
X16108143Y-18182957D01*
X16122428Y-18154386D01*
X16136714Y-18140100D01*
X16165286Y-18125814D01*
X16208143Y-18125814D01*
X16236714Y-18140100D01*
X16251000Y-18154386D01*
X16265286Y-18182957D01*
X16265286Y-18268672D01*
X16251000Y-18297243D01*
X16236714Y-18311529D01*
X16208143Y-18325814D01*
X16165286Y-18325814D01*
X16436714Y-18325814D02*
X16408143Y-18311529D01*
X16393857Y-18282957D01*
X16393857Y-18025814D01*
X16665286Y-18311529D02*
X16636714Y-18325814D01*
X16579571Y-18325814D01*
X16551000Y-18311529D01*
X16536714Y-18282957D01*
X16536714Y-18168672D01*
X16551000Y-18140100D01*
X16579571Y-18125814D01*
X16636714Y-18125814D01*
X16665286Y-18140100D01*
X16679571Y-18168672D01*
X16679571Y-18197243D01*
X16536714Y-18225814D01*
X16793857Y-18311529D02*
X16822428Y-18325814D01*
X16879571Y-18325814D01*
X16908143Y-18311529D01*
X16922428Y-18282957D01*
X16922428Y-18268672D01*
X16908143Y-18240100D01*
X16879571Y-18225814D01*
X16836714Y-18225814D01*
X16808143Y-18211529D01*
X16793857Y-18182957D01*
X16793857Y-18168672D01*
X16808143Y-18140100D01*
X16836714Y-18125814D01*
X16879571Y-18125814D01*
X16908143Y-18140100D01*
X17022428Y-18440100D02*
X17036714Y-18425814D01*
X17065286Y-18382957D01*
X17079571Y-18354386D01*
X17093857Y-18311529D01*
X17108143Y-18240100D01*
X17108143Y-18182957D01*
X17093857Y-18111529D01*
X17079571Y-18068672D01*
X17065286Y-18040100D01*
X17036714Y-17997243D01*
X17022428Y-17982957D01*
M02*
