G04 #@! TF.GenerationSoftware,KiCad,Pcbnew,(5.0.0-rc3-dev)*
G04 #@! TF.CreationDate,2019-06-23T04:24:38+02:00*
G04 #@! TF.ProjectId,Lawo 28x13 Interface,4C61776F20323878313320496E746572,1.1.2*
G04 #@! TF.SameCoordinates,Original*
G04 #@! TF.FileFunction,Legend,Bot*
G04 #@! TF.FilePolarity,Positive*
%FSLAX46Y46*%
G04 Gerber Fmt 4.6, Leading zero omitted, Abs format (unit mm)*
G04 Created by KiCad (PCBNEW (5.0.0-rc3-dev)) date 2019 June 23, Sunday 04:24:38*
%MOMM*%
%LPD*%
G01*
G04 APERTURE LIST*
%ADD10C,0.150000*%
%ADD11C,0.100000*%
%ADD12C,0.200000*%
G04 APERTURE END LIST*
D10*
X157512685Y-122143185D02*
G75*
G02X158051500Y-121920000I538815J-538815D01*
G01*
X167132000Y-116332000D02*
G75*
G02X167894000Y-115570000I762000J0D01*
G01*
X167132000Y-116332000D02*
X167132000Y-121158000D01*
X167830500Y-115570000D02*
X169672000Y-115570000D01*
X167132000Y-121158000D02*
G75*
G02X166370000Y-121920000I-762000J0D01*
G01*
X156337000Y-123317000D02*
X156337000Y-122936000D01*
X156337000Y-123317000D02*
X156718000Y-123317000D01*
X157501147Y-122152853D02*
X156337000Y-123317000D01*
X158038791Y-121920000D02*
X166433500Y-121920000D01*
D11*
X185875714Y-114812857D02*
X185790000Y-114841428D01*
X185647142Y-114841428D01*
X185590000Y-114812857D01*
X185561428Y-114784285D01*
X185532857Y-114727142D01*
X185532857Y-114670000D01*
X185561428Y-114612857D01*
X185590000Y-114584285D01*
X185647142Y-114555714D01*
X185761428Y-114527142D01*
X185818571Y-114498571D01*
X185847142Y-114470000D01*
X185875714Y-114412857D01*
X185875714Y-114355714D01*
X185847142Y-114298571D01*
X185818571Y-114270000D01*
X185761428Y-114241428D01*
X185618571Y-114241428D01*
X185532857Y-114270000D01*
X185047142Y-114812857D02*
X185104285Y-114841428D01*
X185218571Y-114841428D01*
X185275714Y-114812857D01*
X185304285Y-114755714D01*
X185304285Y-114527142D01*
X185275714Y-114470000D01*
X185218571Y-114441428D01*
X185104285Y-114441428D01*
X185047142Y-114470000D01*
X185018571Y-114527142D01*
X185018571Y-114584285D01*
X185304285Y-114641428D01*
X184675714Y-114841428D02*
X184732857Y-114812857D01*
X184761428Y-114755714D01*
X184761428Y-114241428D01*
X184218571Y-114812857D02*
X184275714Y-114841428D01*
X184390000Y-114841428D01*
X184447142Y-114812857D01*
X184475714Y-114755714D01*
X184475714Y-114527142D01*
X184447142Y-114470000D01*
X184390000Y-114441428D01*
X184275714Y-114441428D01*
X184218571Y-114470000D01*
X184190000Y-114527142D01*
X184190000Y-114584285D01*
X184475714Y-114641428D01*
X183675714Y-114812857D02*
X183732857Y-114841428D01*
X183847142Y-114841428D01*
X183904285Y-114812857D01*
X183932857Y-114784285D01*
X183961428Y-114727142D01*
X183961428Y-114555714D01*
X183932857Y-114498571D01*
X183904285Y-114470000D01*
X183847142Y-114441428D01*
X183732857Y-114441428D01*
X183675714Y-114470000D01*
X183504285Y-114441428D02*
X183275714Y-114441428D01*
X183418571Y-114241428D02*
X183418571Y-114755714D01*
X183390000Y-114812857D01*
X183332857Y-114841428D01*
X183275714Y-114841428D01*
X182361428Y-114841428D02*
X182361428Y-114527142D01*
X182390000Y-114470000D01*
X182447142Y-114441428D01*
X182561428Y-114441428D01*
X182618571Y-114470000D01*
X182361428Y-114812857D02*
X182418571Y-114841428D01*
X182561428Y-114841428D01*
X182618571Y-114812857D01*
X182647142Y-114755714D01*
X182647142Y-114698571D01*
X182618571Y-114641428D01*
X182561428Y-114612857D01*
X182418571Y-114612857D01*
X182361428Y-114584285D01*
X182075714Y-114441428D02*
X182075714Y-114841428D01*
X182075714Y-114498571D02*
X182047142Y-114470000D01*
X181990000Y-114441428D01*
X181904285Y-114441428D01*
X181847142Y-114470000D01*
X181818571Y-114527142D01*
X181818571Y-114841428D01*
X181275714Y-114841428D02*
X181275714Y-114241428D01*
X181275714Y-114812857D02*
X181332857Y-114841428D01*
X181447142Y-114841428D01*
X181504285Y-114812857D01*
X181532857Y-114784285D01*
X181561428Y-114727142D01*
X181561428Y-114555714D01*
X181532857Y-114498571D01*
X181504285Y-114470000D01*
X181447142Y-114441428D01*
X181332857Y-114441428D01*
X181275714Y-114470000D01*
X180532857Y-114841428D02*
X180532857Y-114241428D01*
X180532857Y-114470000D02*
X180475714Y-114441428D01*
X180361428Y-114441428D01*
X180304285Y-114470000D01*
X180275714Y-114498571D01*
X180247142Y-114555714D01*
X180247142Y-114727142D01*
X180275714Y-114784285D01*
X180304285Y-114812857D01*
X180361428Y-114841428D01*
X180475714Y-114841428D01*
X180532857Y-114812857D01*
X179990000Y-114841428D02*
X179990000Y-114441428D01*
X179990000Y-114555714D02*
X179961428Y-114498571D01*
X179932857Y-114470000D01*
X179875714Y-114441428D01*
X179818571Y-114441428D01*
X179618571Y-114841428D02*
X179618571Y-114441428D01*
X179618571Y-114241428D02*
X179647142Y-114270000D01*
X179618571Y-114298571D01*
X179590000Y-114270000D01*
X179618571Y-114241428D01*
X179618571Y-114298571D01*
X179075714Y-114841428D02*
X179075714Y-114241428D01*
X179075714Y-114812857D02*
X179132857Y-114841428D01*
X179247142Y-114841428D01*
X179304285Y-114812857D01*
X179332857Y-114784285D01*
X179361428Y-114727142D01*
X179361428Y-114555714D01*
X179332857Y-114498571D01*
X179304285Y-114470000D01*
X179247142Y-114441428D01*
X179132857Y-114441428D01*
X179075714Y-114470000D01*
X178532857Y-114441428D02*
X178532857Y-114927142D01*
X178561428Y-114984285D01*
X178590000Y-115012857D01*
X178647142Y-115041428D01*
X178732857Y-115041428D01*
X178790000Y-115012857D01*
X178532857Y-114812857D02*
X178590000Y-114841428D01*
X178704285Y-114841428D01*
X178761428Y-114812857D01*
X178790000Y-114784285D01*
X178818571Y-114727142D01*
X178818571Y-114555714D01*
X178790000Y-114498571D01*
X178761428Y-114470000D01*
X178704285Y-114441428D01*
X178590000Y-114441428D01*
X178532857Y-114470000D01*
X178018571Y-114812857D02*
X178075714Y-114841428D01*
X178190000Y-114841428D01*
X178247142Y-114812857D01*
X178275714Y-114755714D01*
X178275714Y-114527142D01*
X178247142Y-114470000D01*
X178190000Y-114441428D01*
X178075714Y-114441428D01*
X178018571Y-114470000D01*
X177990000Y-114527142D01*
X177990000Y-114584285D01*
X178275714Y-114641428D01*
X177190000Y-114841428D02*
X177247142Y-114812857D01*
X177275714Y-114784285D01*
X177304285Y-114727142D01*
X177304285Y-114555714D01*
X177275714Y-114498571D01*
X177247142Y-114470000D01*
X177190000Y-114441428D01*
X177104285Y-114441428D01*
X177047142Y-114470000D01*
X177018571Y-114498571D01*
X176990000Y-114555714D01*
X176990000Y-114727142D01*
X177018571Y-114784285D01*
X177047142Y-114812857D01*
X177104285Y-114841428D01*
X177190000Y-114841428D01*
X176732857Y-114441428D02*
X176732857Y-114841428D01*
X176732857Y-114498571D02*
X176704285Y-114470000D01*
X176647142Y-114441428D01*
X176561428Y-114441428D01*
X176504285Y-114470000D01*
X176475714Y-114527142D01*
X176475714Y-114841428D01*
X175961428Y-114812857D02*
X176018571Y-114841428D01*
X176132857Y-114841428D01*
X176190000Y-114812857D01*
X176218571Y-114755714D01*
X176218571Y-114527142D01*
X176190000Y-114470000D01*
X176132857Y-114441428D01*
X176018571Y-114441428D01*
X175961428Y-114470000D01*
X175932857Y-114527142D01*
X175932857Y-114584285D01*
X176218571Y-114641428D01*
X175218571Y-114841428D02*
X175218571Y-114441428D01*
X175218571Y-114498571D02*
X175190000Y-114470000D01*
X175132857Y-114441428D01*
X175047142Y-114441428D01*
X174990000Y-114470000D01*
X174961428Y-114527142D01*
X174961428Y-114841428D01*
X174961428Y-114527142D02*
X174932857Y-114470000D01*
X174875714Y-114441428D01*
X174790000Y-114441428D01*
X174732857Y-114470000D01*
X174704285Y-114527142D01*
X174704285Y-114841428D01*
X174161428Y-114841428D02*
X174161428Y-114527142D01*
X174190000Y-114470000D01*
X174247142Y-114441428D01*
X174361428Y-114441428D01*
X174418571Y-114470000D01*
X174161428Y-114812857D02*
X174218571Y-114841428D01*
X174361428Y-114841428D01*
X174418571Y-114812857D01*
X174447142Y-114755714D01*
X174447142Y-114698571D01*
X174418571Y-114641428D01*
X174361428Y-114612857D01*
X174218571Y-114612857D01*
X174161428Y-114584285D01*
X173961428Y-114441428D02*
X173732857Y-114441428D01*
X173875714Y-114241428D02*
X173875714Y-114755714D01*
X173847142Y-114812857D01*
X173790000Y-114841428D01*
X173732857Y-114841428D01*
X173275714Y-114812857D02*
X173332857Y-114841428D01*
X173447142Y-114841428D01*
X173504285Y-114812857D01*
X173532857Y-114784285D01*
X173561428Y-114727142D01*
X173561428Y-114555714D01*
X173532857Y-114498571D01*
X173504285Y-114470000D01*
X173447142Y-114441428D01*
X173332857Y-114441428D01*
X173275714Y-114470000D01*
X173018571Y-114841428D02*
X173018571Y-114241428D01*
X172761428Y-114841428D02*
X172761428Y-114527142D01*
X172790000Y-114470000D01*
X172847142Y-114441428D01*
X172932857Y-114441428D01*
X172990000Y-114470000D01*
X173018571Y-114498571D01*
X172475714Y-114841428D02*
X172475714Y-114441428D01*
X172475714Y-114241428D02*
X172504285Y-114270000D01*
X172475714Y-114298571D01*
X172447142Y-114270000D01*
X172475714Y-114241428D01*
X172475714Y-114298571D01*
X172190000Y-114441428D02*
X172190000Y-114841428D01*
X172190000Y-114498571D02*
X172161428Y-114470000D01*
X172104285Y-114441428D01*
X172018571Y-114441428D01*
X171961428Y-114470000D01*
X171932857Y-114527142D01*
X171932857Y-114841428D01*
X171390000Y-114441428D02*
X171390000Y-114927142D01*
X171418571Y-114984285D01*
X171447142Y-115012857D01*
X171504285Y-115041428D01*
X171590000Y-115041428D01*
X171647142Y-115012857D01*
X171390000Y-114812857D02*
X171447142Y-114841428D01*
X171561428Y-114841428D01*
X171618571Y-114812857D01*
X171647142Y-114784285D01*
X171675714Y-114727142D01*
X171675714Y-114555714D01*
X171647142Y-114498571D01*
X171618571Y-114470000D01*
X171561428Y-114441428D01*
X171447142Y-114441428D01*
X171390000Y-114470000D01*
X185847142Y-115441428D02*
X185847142Y-116041428D01*
X185847142Y-115470000D02*
X185790000Y-115441428D01*
X185675714Y-115441428D01*
X185618571Y-115470000D01*
X185590000Y-115498571D01*
X185561428Y-115555714D01*
X185561428Y-115727142D01*
X185590000Y-115784285D01*
X185618571Y-115812857D01*
X185675714Y-115841428D01*
X185790000Y-115841428D01*
X185847142Y-115812857D01*
X185047142Y-115841428D02*
X185047142Y-115527142D01*
X185075714Y-115470000D01*
X185132857Y-115441428D01*
X185247142Y-115441428D01*
X185304285Y-115470000D01*
X185047142Y-115812857D02*
X185104285Y-115841428D01*
X185247142Y-115841428D01*
X185304285Y-115812857D01*
X185332857Y-115755714D01*
X185332857Y-115698571D01*
X185304285Y-115641428D01*
X185247142Y-115612857D01*
X185104285Y-115612857D01*
X185047142Y-115584285D01*
X184761428Y-115841428D02*
X184761428Y-115441428D01*
X184761428Y-115241428D02*
X184790000Y-115270000D01*
X184761428Y-115298571D01*
X184732857Y-115270000D01*
X184761428Y-115241428D01*
X184761428Y-115298571D01*
X184475714Y-115841428D02*
X184475714Y-115441428D01*
X184475714Y-115555714D02*
X184447142Y-115498571D01*
X184418571Y-115470000D01*
X184361428Y-115441428D01*
X184304285Y-115441428D01*
X183561428Y-115841428D02*
X183618571Y-115812857D01*
X183647142Y-115784285D01*
X183675714Y-115727142D01*
X183675714Y-115555714D01*
X183647142Y-115498571D01*
X183618571Y-115470000D01*
X183561428Y-115441428D01*
X183475714Y-115441428D01*
X183418571Y-115470000D01*
X183390000Y-115498571D01*
X183361428Y-115555714D01*
X183361428Y-115727142D01*
X183390000Y-115784285D01*
X183418571Y-115812857D01*
X183475714Y-115841428D01*
X183561428Y-115841428D01*
X183190000Y-115441428D02*
X182961428Y-115441428D01*
X183104285Y-115841428D02*
X183104285Y-115327142D01*
X183075714Y-115270000D01*
X183018571Y-115241428D01*
X182961428Y-115241428D01*
X182304285Y-115441428D02*
X182304285Y-115955714D01*
X182332857Y-116012857D01*
X182390000Y-116041428D01*
X182418571Y-116041428D01*
X182304285Y-115241428D02*
X182332857Y-115270000D01*
X182304285Y-115298571D01*
X182275714Y-115270000D01*
X182304285Y-115241428D01*
X182304285Y-115298571D01*
X181761428Y-115441428D02*
X181761428Y-115841428D01*
X182018571Y-115441428D02*
X182018571Y-115755714D01*
X181990000Y-115812857D01*
X181932857Y-115841428D01*
X181847142Y-115841428D01*
X181790000Y-115812857D01*
X181761428Y-115784285D01*
X181475714Y-115841428D02*
X181475714Y-115441428D01*
X181475714Y-115498571D02*
X181447142Y-115470000D01*
X181390000Y-115441428D01*
X181304285Y-115441428D01*
X181247142Y-115470000D01*
X181218571Y-115527142D01*
X181218571Y-115841428D01*
X181218571Y-115527142D02*
X181190000Y-115470000D01*
X181132857Y-115441428D01*
X181047142Y-115441428D01*
X180990000Y-115470000D01*
X180961428Y-115527142D01*
X180961428Y-115841428D01*
X180675714Y-115441428D02*
X180675714Y-116041428D01*
X180675714Y-115470000D02*
X180618571Y-115441428D01*
X180504285Y-115441428D01*
X180447142Y-115470000D01*
X180418571Y-115498571D01*
X180390000Y-115555714D01*
X180390000Y-115727142D01*
X180418571Y-115784285D01*
X180447142Y-115812857D01*
X180504285Y-115841428D01*
X180618571Y-115841428D01*
X180675714Y-115812857D01*
X179904285Y-115812857D02*
X179961428Y-115841428D01*
X180075714Y-115841428D01*
X180132857Y-115812857D01*
X180161428Y-115755714D01*
X180161428Y-115527142D01*
X180132857Y-115470000D01*
X180075714Y-115441428D01*
X179961428Y-115441428D01*
X179904285Y-115470000D01*
X179875714Y-115527142D01*
X179875714Y-115584285D01*
X180161428Y-115641428D01*
X179618571Y-115841428D02*
X179618571Y-115441428D01*
X179618571Y-115555714D02*
X179590000Y-115498571D01*
X179561428Y-115470000D01*
X179504285Y-115441428D01*
X179447142Y-115441428D01*
X179275714Y-115812857D02*
X179218571Y-115841428D01*
X179104285Y-115841428D01*
X179047142Y-115812857D01*
X179018571Y-115755714D01*
X179018571Y-115727142D01*
X179047142Y-115670000D01*
X179104285Y-115641428D01*
X179190000Y-115641428D01*
X179247142Y-115612857D01*
X179275714Y-115555714D01*
X179275714Y-115527142D01*
X179247142Y-115470000D01*
X179190000Y-115441428D01*
X179104285Y-115441428D01*
X179047142Y-115470000D01*
X178304285Y-115841428D02*
X178304285Y-115441428D01*
X178304285Y-115241428D02*
X178332857Y-115270000D01*
X178304285Y-115298571D01*
X178275714Y-115270000D01*
X178304285Y-115241428D01*
X178304285Y-115298571D01*
X178018571Y-115441428D02*
X178018571Y-115841428D01*
X178018571Y-115498571D02*
X177990000Y-115470000D01*
X177932857Y-115441428D01*
X177847142Y-115441428D01*
X177790000Y-115470000D01*
X177761428Y-115527142D01*
X177761428Y-115841428D01*
X177104285Y-115441428D02*
X176875714Y-115441428D01*
X177018571Y-115241428D02*
X177018571Y-115755714D01*
X176990000Y-115812857D01*
X176932857Y-115841428D01*
X176875714Y-115841428D01*
X176675714Y-115841428D02*
X176675714Y-115241428D01*
X176418571Y-115841428D02*
X176418571Y-115527142D01*
X176447142Y-115470000D01*
X176504285Y-115441428D01*
X176590000Y-115441428D01*
X176647142Y-115470000D01*
X176675714Y-115498571D01*
X175904285Y-115812857D02*
X175961428Y-115841428D01*
X176075714Y-115841428D01*
X176132857Y-115812857D01*
X176161428Y-115755714D01*
X176161428Y-115527142D01*
X176132857Y-115470000D01*
X176075714Y-115441428D01*
X175961428Y-115441428D01*
X175904285Y-115470000D01*
X175875714Y-115527142D01*
X175875714Y-115584285D01*
X176161428Y-115641428D01*
X175161428Y-115812857D02*
X175161428Y-115841428D01*
X175190000Y-115898571D01*
X175218571Y-115927142D01*
X174932857Y-115812857D02*
X174932857Y-115841428D01*
X174961428Y-115898571D01*
X174990000Y-115927142D01*
X174361428Y-115841428D02*
X174561428Y-115555714D01*
X174704285Y-115841428D02*
X174704285Y-115241428D01*
X174475714Y-115241428D01*
X174418571Y-115270000D01*
X174390000Y-115298571D01*
X174361428Y-115355714D01*
X174361428Y-115441428D01*
X174390000Y-115498571D01*
X174418571Y-115527142D01*
X174475714Y-115555714D01*
X174704285Y-115555714D01*
X174018571Y-115841428D02*
X174075714Y-115812857D01*
X174104285Y-115784285D01*
X174132857Y-115727142D01*
X174132857Y-115555714D01*
X174104285Y-115498571D01*
X174075714Y-115470000D01*
X174018571Y-115441428D01*
X173932857Y-115441428D01*
X173875714Y-115470000D01*
X173847142Y-115498571D01*
X173818571Y-115555714D01*
X173818571Y-115727142D01*
X173847142Y-115784285D01*
X173875714Y-115812857D01*
X173932857Y-115841428D01*
X174018571Y-115841428D01*
X173618571Y-115441428D02*
X173504285Y-115841428D01*
X173390000Y-115555714D01*
X173275714Y-115841428D01*
X173161428Y-115441428D01*
X172961428Y-115812857D02*
X172904285Y-115841428D01*
X172790000Y-115841428D01*
X172732857Y-115812857D01*
X172704285Y-115755714D01*
X172704285Y-115727142D01*
X172732857Y-115670000D01*
X172790000Y-115641428D01*
X172875714Y-115641428D01*
X172932857Y-115612857D01*
X172961428Y-115555714D01*
X172961428Y-115527142D01*
X172932857Y-115470000D01*
X172875714Y-115441428D01*
X172790000Y-115441428D01*
X172732857Y-115470000D01*
X172275714Y-115270000D02*
X172275714Y-115241428D01*
X172247142Y-115184285D01*
X172218571Y-115155714D01*
X172504285Y-115270000D02*
X172504285Y-115241428D01*
X172475714Y-115184285D01*
X172447142Y-115155714D01*
X171532857Y-115841428D02*
X171532857Y-115241428D01*
X171532857Y-115470000D02*
X171475714Y-115441428D01*
X171361428Y-115441428D01*
X171304285Y-115470000D01*
X171275714Y-115498571D01*
X171247142Y-115555714D01*
X171247142Y-115727142D01*
X171275714Y-115784285D01*
X171304285Y-115812857D01*
X171361428Y-115841428D01*
X171475714Y-115841428D01*
X171532857Y-115812857D01*
X170904285Y-115841428D02*
X170961428Y-115812857D01*
X170990000Y-115784285D01*
X171018571Y-115727142D01*
X171018571Y-115555714D01*
X170990000Y-115498571D01*
X170961428Y-115470000D01*
X170904285Y-115441428D01*
X170818571Y-115441428D01*
X170761428Y-115470000D01*
X170732857Y-115498571D01*
X170704285Y-115555714D01*
X170704285Y-115727142D01*
X170732857Y-115784285D01*
X170761428Y-115812857D01*
X170818571Y-115841428D01*
X170904285Y-115841428D01*
X170504285Y-115841428D02*
X170190000Y-115441428D01*
X170504285Y-115441428D02*
X170190000Y-115841428D01*
X185932857Y-116441428D02*
X185704285Y-116441428D01*
X185847142Y-116241428D02*
X185847142Y-116755714D01*
X185818571Y-116812857D01*
X185761428Y-116841428D01*
X185704285Y-116841428D01*
X185418571Y-116841428D02*
X185475714Y-116812857D01*
X185504285Y-116784285D01*
X185532857Y-116727142D01*
X185532857Y-116555714D01*
X185504285Y-116498571D01*
X185475714Y-116470000D01*
X185418571Y-116441428D01*
X185332857Y-116441428D01*
X185275714Y-116470000D01*
X185247142Y-116498571D01*
X185218571Y-116555714D01*
X185218571Y-116727142D01*
X185247142Y-116784285D01*
X185275714Y-116812857D01*
X185332857Y-116841428D01*
X185418571Y-116841428D01*
X184247142Y-116841428D02*
X184247142Y-116241428D01*
X184247142Y-116812857D02*
X184304285Y-116841428D01*
X184418571Y-116841428D01*
X184475714Y-116812857D01*
X184504285Y-116784285D01*
X184532857Y-116727142D01*
X184532857Y-116555714D01*
X184504285Y-116498571D01*
X184475714Y-116470000D01*
X184418571Y-116441428D01*
X184304285Y-116441428D01*
X184247142Y-116470000D01*
X183732857Y-116812857D02*
X183790000Y-116841428D01*
X183904285Y-116841428D01*
X183961428Y-116812857D01*
X183990000Y-116755714D01*
X183990000Y-116527142D01*
X183961428Y-116470000D01*
X183904285Y-116441428D01*
X183790000Y-116441428D01*
X183732857Y-116470000D01*
X183704285Y-116527142D01*
X183704285Y-116584285D01*
X183990000Y-116641428D01*
X183532857Y-116441428D02*
X183304285Y-116441428D01*
X183447142Y-116841428D02*
X183447142Y-116327142D01*
X183418571Y-116270000D01*
X183361428Y-116241428D01*
X183304285Y-116241428D01*
X183104285Y-116841428D02*
X183104285Y-116441428D01*
X183104285Y-116241428D02*
X183132857Y-116270000D01*
X183104285Y-116298571D01*
X183075714Y-116270000D01*
X183104285Y-116241428D01*
X183104285Y-116298571D01*
X182818571Y-116441428D02*
X182818571Y-116841428D01*
X182818571Y-116498571D02*
X182790000Y-116470000D01*
X182732857Y-116441428D01*
X182647142Y-116441428D01*
X182590000Y-116470000D01*
X182561428Y-116527142D01*
X182561428Y-116841428D01*
X182047142Y-116812857D02*
X182104285Y-116841428D01*
X182218571Y-116841428D01*
X182275714Y-116812857D01*
X182304285Y-116755714D01*
X182304285Y-116527142D01*
X182275714Y-116470000D01*
X182218571Y-116441428D01*
X182104285Y-116441428D01*
X182047142Y-116470000D01*
X182018571Y-116527142D01*
X182018571Y-116584285D01*
X182304285Y-116641428D01*
X181047142Y-116841428D02*
X181047142Y-116527142D01*
X181075714Y-116470000D01*
X181132857Y-116441428D01*
X181247142Y-116441428D01*
X181304285Y-116470000D01*
X181047142Y-116812857D02*
X181104285Y-116841428D01*
X181247142Y-116841428D01*
X181304285Y-116812857D01*
X181332857Y-116755714D01*
X181332857Y-116698571D01*
X181304285Y-116641428D01*
X181247142Y-116612857D01*
X181104285Y-116612857D01*
X181047142Y-116584285D01*
X180761428Y-116441428D02*
X180761428Y-116841428D01*
X180761428Y-116498571D02*
X180732857Y-116470000D01*
X180675714Y-116441428D01*
X180590000Y-116441428D01*
X180532857Y-116470000D01*
X180504285Y-116527142D01*
X180504285Y-116841428D01*
X179961428Y-116841428D02*
X179961428Y-116241428D01*
X179961428Y-116812857D02*
X180018571Y-116841428D01*
X180132857Y-116841428D01*
X180190000Y-116812857D01*
X180218571Y-116784285D01*
X180247142Y-116727142D01*
X180247142Y-116555714D01*
X180218571Y-116498571D01*
X180190000Y-116470000D01*
X180132857Y-116441428D01*
X180018571Y-116441428D01*
X179961428Y-116470000D01*
X178961428Y-116441428D02*
X178961428Y-116841428D01*
X179218571Y-116441428D02*
X179218571Y-116755714D01*
X179190000Y-116812857D01*
X179132857Y-116841428D01*
X179047142Y-116841428D01*
X178990000Y-116812857D01*
X178961428Y-116784285D01*
X178704285Y-116812857D02*
X178647142Y-116841428D01*
X178532857Y-116841428D01*
X178475714Y-116812857D01*
X178447142Y-116755714D01*
X178447142Y-116727142D01*
X178475714Y-116670000D01*
X178532857Y-116641428D01*
X178618571Y-116641428D01*
X178675714Y-116612857D01*
X178704285Y-116555714D01*
X178704285Y-116527142D01*
X178675714Y-116470000D01*
X178618571Y-116441428D01*
X178532857Y-116441428D01*
X178475714Y-116470000D01*
X177961428Y-116812857D02*
X178018571Y-116841428D01*
X178132857Y-116841428D01*
X178190000Y-116812857D01*
X178218571Y-116755714D01*
X178218571Y-116527142D01*
X178190000Y-116470000D01*
X178132857Y-116441428D01*
X178018571Y-116441428D01*
X177961428Y-116470000D01*
X177932857Y-116527142D01*
X177932857Y-116584285D01*
X178218571Y-116641428D01*
X176961428Y-116841428D02*
X176961428Y-116527142D01*
X176990000Y-116470000D01*
X177047142Y-116441428D01*
X177161428Y-116441428D01*
X177218571Y-116470000D01*
X176961428Y-116812857D02*
X177018571Y-116841428D01*
X177161428Y-116841428D01*
X177218571Y-116812857D01*
X177247142Y-116755714D01*
X177247142Y-116698571D01*
X177218571Y-116641428D01*
X177161428Y-116612857D01*
X177018571Y-116612857D01*
X176961428Y-116584285D01*
X175904285Y-116841428D02*
X176247142Y-116841428D01*
X176075714Y-116841428D02*
X176075714Y-116241428D01*
X176132857Y-116327142D01*
X176190000Y-116384285D01*
X176247142Y-116412857D01*
X175390000Y-116441428D02*
X175390000Y-116841428D01*
X175532857Y-116212857D02*
X175675714Y-116641428D01*
X175304285Y-116641428D01*
X175161428Y-116441428D02*
X174932857Y-116441428D01*
X175075714Y-116241428D02*
X175075714Y-116755714D01*
X175047142Y-116812857D01*
X174990000Y-116841428D01*
X174932857Y-116841428D01*
X174732857Y-116841428D02*
X174732857Y-116241428D01*
X174475714Y-116841428D02*
X174475714Y-116527142D01*
X174504285Y-116470000D01*
X174561428Y-116441428D01*
X174647142Y-116441428D01*
X174704285Y-116470000D01*
X174732857Y-116498571D01*
X173732857Y-116841428D02*
X173732857Y-116441428D01*
X173732857Y-116555714D02*
X173704285Y-116498571D01*
X173675714Y-116470000D01*
X173618571Y-116441428D01*
X173561428Y-116441428D01*
X173275714Y-116841428D02*
X173332857Y-116812857D01*
X173361428Y-116784285D01*
X173390000Y-116727142D01*
X173390000Y-116555714D01*
X173361428Y-116498571D01*
X173332857Y-116470000D01*
X173275714Y-116441428D01*
X173190000Y-116441428D01*
X173132857Y-116470000D01*
X173104285Y-116498571D01*
X173075714Y-116555714D01*
X173075714Y-116727142D01*
X173104285Y-116784285D01*
X173132857Y-116812857D01*
X173190000Y-116841428D01*
X173275714Y-116841428D01*
X172875714Y-116441428D02*
X172761428Y-116841428D01*
X172647142Y-116555714D01*
X172532857Y-116841428D01*
X172418571Y-116441428D01*
X172190000Y-116784285D02*
X172161428Y-116812857D01*
X172190000Y-116841428D01*
X172218571Y-116812857D01*
X172190000Y-116784285D01*
X172190000Y-116841428D01*
X186510714Y-96890000D02*
X186225000Y-96890000D01*
X186567857Y-97061428D02*
X186367857Y-96461428D01*
X186167857Y-97061428D01*
X185882142Y-97061428D02*
X185939285Y-97032857D01*
X185967857Y-96975714D01*
X185967857Y-96461428D01*
X185653571Y-97061428D02*
X185653571Y-96661428D01*
X185653571Y-96461428D02*
X185682142Y-96490000D01*
X185653571Y-96518571D01*
X185625000Y-96490000D01*
X185653571Y-96461428D01*
X185653571Y-96518571D01*
X185110714Y-97061428D02*
X185110714Y-96747142D01*
X185139285Y-96690000D01*
X185196428Y-96661428D01*
X185310714Y-96661428D01*
X185367857Y-96690000D01*
X185110714Y-97032857D02*
X185167857Y-97061428D01*
X185310714Y-97061428D01*
X185367857Y-97032857D01*
X185396428Y-96975714D01*
X185396428Y-96918571D01*
X185367857Y-96861428D01*
X185310714Y-96832857D01*
X185167857Y-96832857D01*
X185110714Y-96804285D01*
X184853571Y-97032857D02*
X184796428Y-97061428D01*
X184682142Y-97061428D01*
X184625000Y-97032857D01*
X184596428Y-96975714D01*
X184596428Y-96947142D01*
X184625000Y-96890000D01*
X184682142Y-96861428D01*
X184767857Y-96861428D01*
X184825000Y-96832857D01*
X184853571Y-96775714D01*
X184853571Y-96747142D01*
X184825000Y-96690000D01*
X184767857Y-96661428D01*
X184682142Y-96661428D01*
X184625000Y-96690000D01*
X186482142Y-97747142D02*
X186282142Y-97747142D01*
X186196428Y-98061428D02*
X186482142Y-98061428D01*
X186482142Y-97461428D01*
X186196428Y-97461428D01*
X186082142Y-98118571D02*
X185625000Y-98118571D01*
X185510714Y-97890000D02*
X185225000Y-97890000D01*
X185567857Y-98061428D02*
X185367857Y-97461428D01*
X185167857Y-98061428D01*
X186482142Y-98747142D02*
X186282142Y-98747142D01*
X186196428Y-99061428D02*
X186482142Y-99061428D01*
X186482142Y-98461428D01*
X186196428Y-98461428D01*
X186082142Y-99118571D02*
X185625000Y-99118571D01*
X185482142Y-99061428D02*
X185482142Y-98461428D01*
X185339285Y-98461428D01*
X185253571Y-98490000D01*
X185196428Y-98547142D01*
X185167857Y-98604285D01*
X185139285Y-98718571D01*
X185139285Y-98804285D01*
X185167857Y-98918571D01*
X185196428Y-98975714D01*
X185253571Y-99032857D01*
X185339285Y-99061428D01*
X185482142Y-99061428D01*
X184577142Y-97747142D02*
X184120000Y-97747142D01*
X184120000Y-97918571D02*
X184577142Y-97918571D01*
X183377142Y-97747142D02*
X183177142Y-97747142D01*
X183091428Y-98061428D02*
X183377142Y-98061428D01*
X183377142Y-97461428D01*
X183091428Y-97461428D01*
X182834285Y-98061428D02*
X182834285Y-97661428D01*
X182834285Y-97718571D02*
X182805714Y-97690000D01*
X182748571Y-97661428D01*
X182662857Y-97661428D01*
X182605714Y-97690000D01*
X182577142Y-97747142D01*
X182577142Y-98061428D01*
X182577142Y-97747142D02*
X182548571Y-97690000D01*
X182491428Y-97661428D01*
X182405714Y-97661428D01*
X182348571Y-97690000D01*
X182320000Y-97747142D01*
X182320000Y-98061428D01*
X181691428Y-98061428D02*
X181891428Y-97775714D01*
X182034285Y-98061428D02*
X182034285Y-97461428D01*
X181805714Y-97461428D01*
X181748571Y-97490000D01*
X181720000Y-97518571D01*
X181691428Y-97575714D01*
X181691428Y-97661428D01*
X181720000Y-97718571D01*
X181748571Y-97747142D01*
X181805714Y-97775714D01*
X182034285Y-97775714D01*
X184577142Y-98747142D02*
X184120000Y-98747142D01*
X184120000Y-98918571D02*
X184577142Y-98918571D01*
X183377142Y-98747142D02*
X183177142Y-98747142D01*
X183091428Y-99061428D02*
X183377142Y-99061428D01*
X183377142Y-98461428D01*
X183091428Y-98461428D01*
X182748571Y-99061428D02*
X182805714Y-99032857D01*
X182834285Y-99004285D01*
X182862857Y-98947142D01*
X182862857Y-98775714D01*
X182834285Y-98718571D01*
X182805714Y-98690000D01*
X182748571Y-98661428D01*
X182662857Y-98661428D01*
X182605714Y-98690000D01*
X182577142Y-98718571D01*
X182548571Y-98775714D01*
X182548571Y-98947142D01*
X182577142Y-99004285D01*
X182605714Y-99032857D01*
X182662857Y-99061428D01*
X182748571Y-99061428D01*
X181948571Y-99061428D02*
X182148571Y-98775714D01*
X182291428Y-99061428D02*
X182291428Y-98461428D01*
X182062857Y-98461428D01*
X182005714Y-98490000D01*
X181977142Y-98518571D01*
X181948571Y-98575714D01*
X181948571Y-98661428D01*
X181977142Y-98718571D01*
X182005714Y-98747142D01*
X182062857Y-98775714D01*
X182291428Y-98775714D01*
D12*
X114909600Y-106680000D02*
G75*
G02X115544600Y-107315000I0J-635000D01*
G01*
X115544600Y-116230400D02*
G75*
G02X114909600Y-116865400I-635000J0D01*
G01*
X171958000Y-95504000D02*
X186182000Y-95504000D01*
D10*
X170122857Y-132871738D02*
X170122857Y-133138405D01*
X170541904Y-133252691D02*
X170541904Y-132871738D01*
X169741904Y-132871738D01*
X169741904Y-133252691D01*
X170618095Y-133405072D02*
X170618095Y-134014596D01*
X170122857Y-134471738D02*
X170160952Y-134586024D01*
X170199047Y-134624119D01*
X170275238Y-134662215D01*
X170389523Y-134662215D01*
X170465714Y-134624119D01*
X170503809Y-134586024D01*
X170541904Y-134509834D01*
X170541904Y-134205072D01*
X169741904Y-134205072D01*
X169741904Y-134471738D01*
X169780000Y-134547929D01*
X169818095Y-134586024D01*
X169894285Y-134624119D01*
X169970476Y-134624119D01*
X170046666Y-134586024D01*
X170084761Y-134547929D01*
X170122857Y-134471738D01*
X170122857Y-134205072D01*
X167582857Y-124424643D02*
X167582857Y-124691310D01*
X168001904Y-124805596D02*
X168001904Y-124424643D01*
X167201904Y-124424643D01*
X167201904Y-124805596D01*
X168078095Y-124957977D02*
X168078095Y-125567501D01*
X167925714Y-126215120D02*
X167963809Y-126177024D01*
X168001904Y-126062739D01*
X168001904Y-125986548D01*
X167963809Y-125872262D01*
X167887619Y-125796072D01*
X167811428Y-125757977D01*
X167659047Y-125719881D01*
X167544761Y-125719881D01*
X167392380Y-125757977D01*
X167316190Y-125796072D01*
X167240000Y-125872262D01*
X167201904Y-125986548D01*
X167201904Y-126062739D01*
X167240000Y-126177024D01*
X167278095Y-126215120D01*
D12*
X115570000Y-134810500D02*
X115570000Y-123952000D01*
X166370000Y-103251000D02*
G75*
G03X167005000Y-103886000I635000J0D01*
G01*
X170815000Y-103886000D02*
X167005000Y-103886000D01*
X171450000Y-100965000D02*
X171450000Y-103251000D01*
X170815000Y-103886000D02*
G75*
G03X171450000Y-103251000I0J635000D01*
G01*
X171958000Y-95504000D02*
G75*
G03X171450000Y-96012000I0J-508000D01*
G01*
X171450000Y-100838000D02*
X171450000Y-96012000D01*
D10*
X170122857Y-101337642D02*
X170122857Y-101604309D01*
X170541904Y-101718595D02*
X170541904Y-101337642D01*
X169741904Y-101337642D01*
X169741904Y-101718595D01*
X170618095Y-101870976D02*
X170618095Y-102480500D01*
X170465714Y-103128119D02*
X170503809Y-103090023D01*
X170541904Y-102975738D01*
X170541904Y-102899547D01*
X170503809Y-102785261D01*
X170427619Y-102709071D01*
X170351428Y-102670976D01*
X170199047Y-102632880D01*
X170084761Y-102632880D01*
X169932380Y-102670976D01*
X169856190Y-102709071D01*
X169780000Y-102785261D01*
X169741904Y-102899547D01*
X169741904Y-102975738D01*
X169780000Y-103090023D01*
X169818095Y-103128119D01*
X167582857Y-101299546D02*
X167582857Y-101566213D01*
X168001904Y-101680499D02*
X168001904Y-101299546D01*
X167201904Y-101299546D01*
X167201904Y-101680499D01*
X168078095Y-101832880D02*
X168078095Y-102442404D01*
X167582857Y-102899546D02*
X167620952Y-103013832D01*
X167659047Y-103051927D01*
X167735238Y-103090023D01*
X167849523Y-103090023D01*
X167925714Y-103051927D01*
X167963809Y-103013832D01*
X168001904Y-102937642D01*
X168001904Y-102632880D01*
X167201904Y-102632880D01*
X167201904Y-102899546D01*
X167240000Y-102975737D01*
X167278095Y-103013832D01*
X167354285Y-103051927D01*
X167430476Y-103051927D01*
X167506666Y-103013832D01*
X167544761Y-102975737D01*
X167582857Y-102899546D01*
X167582857Y-102632880D01*
X152969357Y-106852857D02*
X153469357Y-106852857D01*
X153469357Y-107638571D02*
X153469357Y-106138571D01*
X152755071Y-106138571D01*
X151969357Y-107638571D02*
X152112214Y-107567142D01*
X152183642Y-107424285D01*
X152183642Y-106138571D01*
X151397928Y-107638571D02*
X151397928Y-106638571D01*
X151397928Y-106138571D02*
X151469357Y-106210000D01*
X151397928Y-106281428D01*
X151326500Y-106210000D01*
X151397928Y-106138571D01*
X151397928Y-106281428D01*
X150683642Y-106638571D02*
X150683642Y-108138571D01*
X150683642Y-106710000D02*
X150540785Y-106638571D01*
X150255071Y-106638571D01*
X150112214Y-106710000D01*
X150040785Y-106781428D01*
X149969357Y-106924285D01*
X149969357Y-107352857D01*
X150040785Y-107495714D01*
X150112214Y-107567142D01*
X150255071Y-107638571D01*
X150540785Y-107638571D01*
X150683642Y-107567142D01*
X148397928Y-106138571D02*
X147540785Y-106138571D01*
X147969357Y-107638571D02*
X147969357Y-106138571D01*
X147040785Y-107638571D02*
X147040785Y-106138571D01*
X146397928Y-107638571D02*
X146397928Y-106852857D01*
X146469357Y-106710000D01*
X146612214Y-106638571D01*
X146826500Y-106638571D01*
X146969357Y-106710000D01*
X147040785Y-106781428D01*
X145112214Y-107567142D02*
X145255071Y-107638571D01*
X145540785Y-107638571D01*
X145683642Y-107567142D01*
X145755071Y-107424285D01*
X145755071Y-106852857D01*
X145683642Y-106710000D01*
X145540785Y-106638571D01*
X145255071Y-106638571D01*
X145112214Y-106710000D01*
X145040785Y-106852857D01*
X145040785Y-106995714D01*
X145755071Y-107138571D01*
X143255071Y-107638571D02*
X143255071Y-106138571D01*
X142897928Y-106138571D01*
X142683642Y-106210000D01*
X142540785Y-106352857D01*
X142469357Y-106495714D01*
X142397928Y-106781428D01*
X142397928Y-106995714D01*
X142469357Y-107281428D01*
X142540785Y-107424285D01*
X142683642Y-107567142D01*
X142897928Y-107638571D01*
X143255071Y-107638571D01*
X141540785Y-107638571D02*
X141683642Y-107567142D01*
X141755071Y-107495714D01*
X141826500Y-107352857D01*
X141826500Y-106924285D01*
X141755071Y-106781428D01*
X141683642Y-106710000D01*
X141540785Y-106638571D01*
X141326500Y-106638571D01*
X141183642Y-106710000D01*
X141112214Y-106781428D01*
X141040785Y-106924285D01*
X141040785Y-107352857D01*
X141112214Y-107495714D01*
X141183642Y-107567142D01*
X141326500Y-107638571D01*
X141540785Y-107638571D01*
X140612214Y-106638571D02*
X140040785Y-106638571D01*
X140397928Y-106138571D02*
X140397928Y-107424285D01*
X140326500Y-107567142D01*
X140183642Y-107638571D01*
X140040785Y-107638571D01*
X152755071Y-110038571D02*
X153469357Y-110038571D01*
X153469357Y-108538571D01*
X151612214Y-110038571D02*
X151612214Y-109252857D01*
X151683642Y-109110000D01*
X151826500Y-109038571D01*
X152112214Y-109038571D01*
X152255071Y-109110000D01*
X151612214Y-109967142D02*
X151755071Y-110038571D01*
X152112214Y-110038571D01*
X152255071Y-109967142D01*
X152326500Y-109824285D01*
X152326500Y-109681428D01*
X152255071Y-109538571D01*
X152112214Y-109467142D01*
X151755071Y-109467142D01*
X151612214Y-109395714D01*
X151040785Y-109038571D02*
X150755071Y-110038571D01*
X150469357Y-109324285D01*
X150183642Y-110038571D01*
X149897928Y-109038571D01*
X149112214Y-110038571D02*
X149255071Y-109967142D01*
X149326500Y-109895714D01*
X149397928Y-109752857D01*
X149397928Y-109324285D01*
X149326500Y-109181428D01*
X149255071Y-109110000D01*
X149112214Y-109038571D01*
X148897928Y-109038571D01*
X148755071Y-109110000D01*
X148683642Y-109181428D01*
X148612214Y-109324285D01*
X148612214Y-109752857D01*
X148683642Y-109895714D01*
X148755071Y-109967142D01*
X148897928Y-110038571D01*
X149112214Y-110038571D01*
X146326500Y-109252857D02*
X146826500Y-109252857D01*
X146826500Y-110038571D02*
X146826500Y-108538571D01*
X146112214Y-108538571D01*
X145326500Y-110038571D02*
X145469357Y-109967142D01*
X145540785Y-109824285D01*
X145540785Y-108538571D01*
X144755071Y-110038571D02*
X144755071Y-109038571D01*
X144755071Y-108538571D02*
X144826500Y-108610000D01*
X144755071Y-108681428D01*
X144683642Y-108610000D01*
X144755071Y-108538571D01*
X144755071Y-108681428D01*
X144040785Y-109038571D02*
X144040785Y-110538571D01*
X144040785Y-109110000D02*
X143897928Y-109038571D01*
X143612214Y-109038571D01*
X143469357Y-109110000D01*
X143397928Y-109181428D01*
X143326500Y-109324285D01*
X143326500Y-109752857D01*
X143397928Y-109895714D01*
X143469357Y-109967142D01*
X143612214Y-110038571D01*
X143897928Y-110038571D01*
X144040785Y-109967142D01*
X141540785Y-110038571D02*
X141540785Y-108538571D01*
X141183642Y-108538571D01*
X140969357Y-108610000D01*
X140826500Y-108752857D01*
X140755071Y-108895714D01*
X140683642Y-109181428D01*
X140683642Y-109395714D01*
X140755071Y-109681428D01*
X140826500Y-109824285D01*
X140969357Y-109967142D01*
X141183642Y-110038571D01*
X141540785Y-110038571D01*
X139826500Y-110038571D02*
X139969357Y-109967142D01*
X140040785Y-109895714D01*
X140112214Y-109752857D01*
X140112214Y-109324285D01*
X140040785Y-109181428D01*
X139969357Y-109110000D01*
X139826500Y-109038571D01*
X139612214Y-109038571D01*
X139469357Y-109110000D01*
X139397928Y-109181428D01*
X139326500Y-109324285D01*
X139326500Y-109752857D01*
X139397928Y-109895714D01*
X139469357Y-109967142D01*
X139612214Y-110038571D01*
X139826500Y-110038571D01*
X138897928Y-109038571D02*
X138326500Y-109038571D01*
X138683642Y-108538571D02*
X138683642Y-109824285D01*
X138612214Y-109967142D01*
X138469357Y-110038571D01*
X138326500Y-110038571D01*
X135969357Y-108538571D02*
X136683642Y-108538571D01*
X136755071Y-109252857D01*
X136683642Y-109181428D01*
X136540785Y-109110000D01*
X136183642Y-109110000D01*
X136040785Y-109181428D01*
X135969357Y-109252857D01*
X135897928Y-109395714D01*
X135897928Y-109752857D01*
X135969357Y-109895714D01*
X136040785Y-109967142D01*
X136183642Y-110038571D01*
X136540785Y-110038571D01*
X136683642Y-109967142D01*
X136755071Y-109895714D01*
X134969357Y-108538571D02*
X134826500Y-108538571D01*
X134683642Y-108610000D01*
X134612214Y-108681428D01*
X134540785Y-108824285D01*
X134469357Y-109110000D01*
X134469357Y-109467142D01*
X134540785Y-109752857D01*
X134612214Y-109895714D01*
X134683642Y-109967142D01*
X134826500Y-110038571D01*
X134969357Y-110038571D01*
X135112214Y-109967142D01*
X135183642Y-109895714D01*
X135255071Y-109752857D01*
X135326500Y-109467142D01*
X135326500Y-109110000D01*
X135255071Y-108824285D01*
X135183642Y-108681428D01*
X135112214Y-108610000D01*
X134969357Y-108538571D01*
X133826500Y-109038571D02*
X133826500Y-110538571D01*
X133826500Y-109110000D02*
X133683642Y-109038571D01*
X133397928Y-109038571D01*
X133255071Y-109110000D01*
X133183642Y-109181428D01*
X133112214Y-109324285D01*
X133112214Y-109752857D01*
X133183642Y-109895714D01*
X133255071Y-109967142D01*
X133397928Y-110038571D01*
X133683642Y-110038571D01*
X133826500Y-109967142D01*
X132469357Y-110038571D02*
X132469357Y-109038571D01*
X132469357Y-108538571D02*
X132540785Y-108610000D01*
X132469357Y-108681428D01*
X132397928Y-108610000D01*
X132469357Y-108538571D01*
X132469357Y-108681428D01*
X131755071Y-109038571D02*
X131755071Y-110038571D01*
X131755071Y-109181428D02*
X131683642Y-109110000D01*
X131540785Y-109038571D01*
X131326500Y-109038571D01*
X131183642Y-109110000D01*
X131112214Y-109252857D01*
X131112214Y-110038571D01*
X129255071Y-110038571D02*
X129255071Y-108538571D01*
X128540785Y-109038571D02*
X128540785Y-110038571D01*
X128540785Y-109181428D02*
X128469357Y-109110000D01*
X128326500Y-109038571D01*
X128112214Y-109038571D01*
X127969357Y-109110000D01*
X127897928Y-109252857D01*
X127897928Y-110038571D01*
X127397928Y-109038571D02*
X126826500Y-109038571D01*
X127183642Y-108538571D02*
X127183642Y-109824285D01*
X127112214Y-109967142D01*
X126969357Y-110038571D01*
X126826500Y-110038571D01*
X125755071Y-109967142D02*
X125897928Y-110038571D01*
X126183642Y-110038571D01*
X126326500Y-109967142D01*
X126397928Y-109824285D01*
X126397928Y-109252857D01*
X126326500Y-109110000D01*
X126183642Y-109038571D01*
X125897928Y-109038571D01*
X125755071Y-109110000D01*
X125683642Y-109252857D01*
X125683642Y-109395714D01*
X126397928Y-109538571D01*
X125040785Y-110038571D02*
X125040785Y-109038571D01*
X125040785Y-109324285D02*
X124969357Y-109181428D01*
X124897928Y-109110000D01*
X124755071Y-109038571D01*
X124612214Y-109038571D01*
X124326500Y-109038571D02*
X123755071Y-109038571D01*
X124112214Y-110038571D02*
X124112214Y-108752857D01*
X124040785Y-108610000D01*
X123897928Y-108538571D01*
X123755071Y-108538571D01*
X122612214Y-110038571D02*
X122612214Y-109252857D01*
X122683642Y-109110000D01*
X122826500Y-109038571D01*
X123112214Y-109038571D01*
X123255071Y-109110000D01*
X122612214Y-109967142D02*
X122755071Y-110038571D01*
X123112214Y-110038571D01*
X123255071Y-109967142D01*
X123326500Y-109824285D01*
X123326500Y-109681428D01*
X123255071Y-109538571D01*
X123112214Y-109467142D01*
X122755071Y-109467142D01*
X122612214Y-109395714D01*
X121255071Y-109967142D02*
X121397928Y-110038571D01*
X121683642Y-110038571D01*
X121826500Y-109967142D01*
X121897928Y-109895714D01*
X121969357Y-109752857D01*
X121969357Y-109324285D01*
X121897928Y-109181428D01*
X121826500Y-109110000D01*
X121683642Y-109038571D01*
X121397928Y-109038571D01*
X121255071Y-109110000D01*
X120040785Y-109967142D02*
X120183642Y-110038571D01*
X120469357Y-110038571D01*
X120612214Y-109967142D01*
X120683642Y-109824285D01*
X120683642Y-109252857D01*
X120612214Y-109110000D01*
X120469357Y-109038571D01*
X120183642Y-109038571D01*
X120040785Y-109110000D01*
X119969357Y-109252857D01*
X119969357Y-109395714D01*
X120683642Y-109538571D01*
X152683642Y-112438571D02*
X153540785Y-112438571D01*
X153112214Y-112438571D02*
X153112214Y-110938571D01*
X153255071Y-111152857D01*
X153397928Y-111295714D01*
X153540785Y-111367142D01*
X152040785Y-112295714D02*
X151969357Y-112367142D01*
X152040785Y-112438571D01*
X152112214Y-112367142D01*
X152040785Y-112295714D01*
X152040785Y-112438571D01*
X150540785Y-112438571D02*
X151397928Y-112438571D01*
X150969357Y-112438571D02*
X150969357Y-110938571D01*
X151112214Y-111152857D01*
X151255071Y-111295714D01*
X151397928Y-111367142D01*
X149897928Y-112295714D02*
X149826500Y-112367142D01*
X149897928Y-112438571D01*
X149969357Y-112367142D01*
X149897928Y-112295714D01*
X149897928Y-112438571D01*
X149255071Y-111081428D02*
X149183642Y-111010000D01*
X149040785Y-110938571D01*
X148683642Y-110938571D01*
X148540785Y-111010000D01*
X148469357Y-111081428D01*
X148397928Y-111224285D01*
X148397928Y-111367142D01*
X148469357Y-111581428D01*
X149326500Y-112438571D01*
X148397928Y-112438571D01*
X153040785Y-113338571D02*
X153040785Y-114410000D01*
X153112214Y-114624285D01*
X153255071Y-114767142D01*
X153469357Y-114838571D01*
X153612214Y-114838571D01*
X151683642Y-113838571D02*
X151683642Y-114838571D01*
X152326500Y-113838571D02*
X152326500Y-114624285D01*
X152255071Y-114767142D01*
X152112214Y-114838571D01*
X151897928Y-114838571D01*
X151755071Y-114767142D01*
X151683642Y-114695714D01*
X150969357Y-113838571D02*
X150969357Y-114838571D01*
X150969357Y-113981428D02*
X150897928Y-113910000D01*
X150755071Y-113838571D01*
X150540785Y-113838571D01*
X150397928Y-113910000D01*
X150326500Y-114052857D01*
X150326500Y-114838571D01*
X149040785Y-114767142D02*
X149183642Y-114838571D01*
X149469357Y-114838571D01*
X149612214Y-114767142D01*
X149683642Y-114624285D01*
X149683642Y-114052857D01*
X149612214Y-113910000D01*
X149469357Y-113838571D01*
X149183642Y-113838571D01*
X149040785Y-113910000D01*
X148969357Y-114052857D01*
X148969357Y-114195714D01*
X149683642Y-114338571D01*
X147255071Y-113481428D02*
X147183642Y-113410000D01*
X147040785Y-113338571D01*
X146683642Y-113338571D01*
X146540785Y-113410000D01*
X146469357Y-113481428D01*
X146397928Y-113624285D01*
X146397928Y-113767142D01*
X146469357Y-113981428D01*
X147326500Y-114838571D01*
X146397928Y-114838571D01*
X145469357Y-113338571D02*
X145326500Y-113338571D01*
X145183642Y-113410000D01*
X145112214Y-113481428D01*
X145040785Y-113624285D01*
X144969357Y-113910000D01*
X144969357Y-114267142D01*
X145040785Y-114552857D01*
X145112214Y-114695714D01*
X145183642Y-114767142D01*
X145326500Y-114838571D01*
X145469357Y-114838571D01*
X145612214Y-114767142D01*
X145683642Y-114695714D01*
X145755071Y-114552857D01*
X145826500Y-114267142D01*
X145826500Y-113910000D01*
X145755071Y-113624285D01*
X145683642Y-113481428D01*
X145612214Y-113410000D01*
X145469357Y-113338571D01*
X143540785Y-114838571D02*
X144397928Y-114838571D01*
X143969357Y-114838571D02*
X143969357Y-113338571D01*
X144112214Y-113552857D01*
X144255071Y-113695714D01*
X144397928Y-113767142D01*
X142826500Y-114838571D02*
X142540785Y-114838571D01*
X142397928Y-114767142D01*
X142326500Y-114695714D01*
X142183642Y-114481428D01*
X142112214Y-114195714D01*
X142112214Y-113624285D01*
X142183642Y-113481428D01*
X142255071Y-113410000D01*
X142397928Y-113338571D01*
X142683642Y-113338571D01*
X142826500Y-113410000D01*
X142897928Y-113481428D01*
X142969357Y-113624285D01*
X142969357Y-113981428D01*
X142897928Y-114124285D01*
X142826500Y-114195714D01*
X142683642Y-114267142D01*
X142397928Y-114267142D01*
X142255071Y-114195714D01*
X142183642Y-114124285D01*
X142112214Y-113981428D01*
X152612214Y-117238571D02*
X153112214Y-116524285D01*
X153469357Y-117238571D02*
X153469357Y-115738571D01*
X152897928Y-115738571D01*
X152755071Y-115810000D01*
X152683642Y-115881428D01*
X152612214Y-116024285D01*
X152612214Y-116238571D01*
X152683642Y-116381428D01*
X152755071Y-116452857D01*
X152897928Y-116524285D01*
X153469357Y-116524285D01*
X151755071Y-117238571D02*
X151897928Y-117167142D01*
X151969357Y-117095714D01*
X152040785Y-116952857D01*
X152040785Y-116524285D01*
X151969357Y-116381428D01*
X151897928Y-116310000D01*
X151755071Y-116238571D01*
X151540785Y-116238571D01*
X151397928Y-116310000D01*
X151326500Y-116381428D01*
X151255071Y-116524285D01*
X151255071Y-116952857D01*
X151326500Y-117095714D01*
X151397928Y-117167142D01*
X151540785Y-117238571D01*
X151755071Y-117238571D01*
X150612214Y-117238571D02*
X150612214Y-115738571D01*
X150612214Y-116310000D02*
X150469357Y-116238571D01*
X150183642Y-116238571D01*
X150040785Y-116310000D01*
X149969357Y-116381428D01*
X149897928Y-116524285D01*
X149897928Y-116952857D01*
X149969357Y-117095714D01*
X150040785Y-117167142D01*
X150183642Y-117238571D01*
X150469357Y-117238571D01*
X150612214Y-117167142D01*
X148683642Y-117167142D02*
X148826500Y-117238571D01*
X149112214Y-117238571D01*
X149255071Y-117167142D01*
X149326500Y-117024285D01*
X149326500Y-116452857D01*
X149255071Y-116310000D01*
X149112214Y-116238571D01*
X148826500Y-116238571D01*
X148683642Y-116310000D01*
X148612214Y-116452857D01*
X148612214Y-116595714D01*
X149326500Y-116738571D01*
X147969357Y-117238571D02*
X147969357Y-116238571D01*
X147969357Y-116524285D02*
X147897928Y-116381428D01*
X147826500Y-116310000D01*
X147683642Y-116238571D01*
X147540785Y-116238571D01*
X147255071Y-116238571D02*
X146683642Y-116238571D01*
X147040785Y-115738571D02*
X147040785Y-117024285D01*
X146969357Y-117167142D01*
X146826500Y-117238571D01*
X146683642Y-117238571D01*
X144183642Y-117238571D02*
X144683642Y-116524285D01*
X145040785Y-117238571D02*
X145040785Y-115738571D01*
X144469357Y-115738571D01*
X144326500Y-115810000D01*
X144255071Y-115881428D01*
X144183642Y-116024285D01*
X144183642Y-116238571D01*
X144255071Y-116381428D01*
X144326500Y-116452857D01*
X144469357Y-116524285D01*
X145040785Y-116524285D01*
X143326500Y-117238571D02*
X143469357Y-117167142D01*
X143540785Y-117095714D01*
X143612214Y-116952857D01*
X143612214Y-116524285D01*
X143540785Y-116381428D01*
X143469357Y-116310000D01*
X143326500Y-116238571D01*
X143112214Y-116238571D01*
X142969357Y-116310000D01*
X142897928Y-116381428D01*
X142826500Y-116524285D01*
X142826500Y-116952857D01*
X142897928Y-117095714D01*
X142969357Y-117167142D01*
X143112214Y-117238571D01*
X143326500Y-117238571D01*
X143469357Y-115738571D02*
X143397928Y-115810000D01*
X143469357Y-115881428D01*
X143540785Y-115810000D01*
X143469357Y-115738571D01*
X143469357Y-115881428D01*
X142897928Y-115738571D02*
X142826500Y-115810000D01*
X142897928Y-115881428D01*
X142969357Y-115810000D01*
X142897928Y-115738571D01*
X142897928Y-115881428D01*
X142183642Y-117238571D02*
X142183642Y-116238571D01*
X142183642Y-116381428D02*
X142112214Y-116310000D01*
X141969357Y-116238571D01*
X141755071Y-116238571D01*
X141612214Y-116310000D01*
X141540785Y-116452857D01*
X141540785Y-117238571D01*
X141540785Y-116452857D02*
X141469357Y-116310000D01*
X141326500Y-116238571D01*
X141112214Y-116238571D01*
X140969357Y-116310000D01*
X140897928Y-116452857D01*
X140897928Y-117238571D01*
X139612214Y-117167142D02*
X139755071Y-117238571D01*
X140040785Y-117238571D01*
X140183642Y-117167142D01*
X140255071Y-117024285D01*
X140255071Y-116452857D01*
X140183642Y-116310000D01*
X140040785Y-116238571D01*
X139755071Y-116238571D01*
X139612214Y-116310000D01*
X139540785Y-116452857D01*
X139540785Y-116595714D01*
X140255071Y-116738571D01*
X138897928Y-117238571D02*
X138897928Y-116238571D01*
X138897928Y-116524285D02*
X138826500Y-116381428D01*
X138755071Y-116310000D01*
X138612214Y-116238571D01*
X138469357Y-116238571D01*
D12*
X120650000Y-125095000D02*
X120650000Y-124142500D01*
X120650000Y-132715000D02*
X120650000Y-131762500D01*
X120650000Y-134620000D02*
X120650000Y-133667500D01*
X120650000Y-127000000D02*
X120650000Y-126047500D01*
X120650000Y-128905000D02*
X120650000Y-127952500D01*
X120650000Y-130810000D02*
X120650000Y-129857500D01*
X153670000Y-125095000D02*
X153670000Y-124142500D01*
X153670000Y-127000000D02*
X153670000Y-126047500D01*
X153670000Y-128905000D02*
X153670000Y-127952500D01*
X153670000Y-130810000D02*
X153670000Y-129857500D01*
D10*
X138095404Y-123932904D02*
X138362071Y-123551952D01*
X138552547Y-123932904D02*
X138552547Y-123132904D01*
X138247785Y-123132904D01*
X138171595Y-123171000D01*
X138133500Y-123209095D01*
X138095404Y-123285285D01*
X138095404Y-123399571D01*
X138133500Y-123475761D01*
X138171595Y-123513857D01*
X138247785Y-123551952D01*
X138552547Y-123551952D01*
X137638261Y-123932904D02*
X137714452Y-123894809D01*
X137752547Y-123856714D01*
X137790642Y-123780523D01*
X137790642Y-123551952D01*
X137752547Y-123475761D01*
X137714452Y-123437666D01*
X137638261Y-123399571D01*
X137523976Y-123399571D01*
X137447785Y-123437666D01*
X137409690Y-123475761D01*
X137371595Y-123551952D01*
X137371595Y-123780523D01*
X137409690Y-123856714D01*
X137447785Y-123894809D01*
X137523976Y-123932904D01*
X137638261Y-123932904D01*
X137104928Y-123399571D02*
X136952547Y-123932904D01*
X136800166Y-123551952D01*
X136647785Y-123932904D01*
X136495404Y-123399571D01*
X136228738Y-123894809D02*
X136152547Y-123932904D01*
X136000166Y-123932904D01*
X135923976Y-123894809D01*
X135885880Y-123818619D01*
X135885880Y-123780523D01*
X135923976Y-123704333D01*
X136000166Y-123666238D01*
X136114452Y-123666238D01*
X136190642Y-123628142D01*
X136228738Y-123551952D01*
X136228738Y-123513857D01*
X136190642Y-123437666D01*
X136114452Y-123399571D01*
X136000166Y-123399571D01*
X135923976Y-123437666D01*
X168321142Y-123856714D02*
X168359238Y-123894809D01*
X168473523Y-123932904D01*
X168549714Y-123932904D01*
X168664000Y-123894809D01*
X168740190Y-123818619D01*
X168778285Y-123742428D01*
X168816380Y-123590047D01*
X168816380Y-123475761D01*
X168778285Y-123323380D01*
X168740190Y-123247190D01*
X168664000Y-123171000D01*
X168549714Y-123132904D01*
X168473523Y-123132904D01*
X168359238Y-123171000D01*
X168321142Y-123209095D01*
X167864000Y-123932904D02*
X167940190Y-123894809D01*
X167978285Y-123856714D01*
X168016380Y-123780523D01*
X168016380Y-123551952D01*
X167978285Y-123475761D01*
X167940190Y-123437666D01*
X167864000Y-123399571D01*
X167749714Y-123399571D01*
X167673523Y-123437666D01*
X167635428Y-123475761D01*
X167597333Y-123551952D01*
X167597333Y-123780523D01*
X167635428Y-123856714D01*
X167673523Y-123894809D01*
X167749714Y-123932904D01*
X167864000Y-123932904D01*
X167140190Y-123932904D02*
X167216380Y-123894809D01*
X167254476Y-123818619D01*
X167254476Y-123132904D01*
X166492571Y-123399571D02*
X166492571Y-123932904D01*
X166835428Y-123399571D02*
X166835428Y-123818619D01*
X166797333Y-123894809D01*
X166721142Y-123932904D01*
X166606857Y-123932904D01*
X166530666Y-123894809D01*
X166492571Y-123856714D01*
X166111619Y-123932904D02*
X166111619Y-123399571D01*
X166111619Y-123475761D02*
X166073523Y-123437666D01*
X165997333Y-123399571D01*
X165883047Y-123399571D01*
X165806857Y-123437666D01*
X165768761Y-123513857D01*
X165768761Y-123932904D01*
X165768761Y-123513857D02*
X165730666Y-123437666D01*
X165654476Y-123399571D01*
X165540190Y-123399571D01*
X165464000Y-123437666D01*
X165425904Y-123513857D01*
X165425904Y-123932904D01*
X165044952Y-123399571D02*
X165044952Y-123932904D01*
X165044952Y-123475761D02*
X165006857Y-123437666D01*
X164930666Y-123399571D01*
X164816380Y-123399571D01*
X164740190Y-123437666D01*
X164702095Y-123513857D01*
X164702095Y-123932904D01*
X164359238Y-123894809D02*
X164283047Y-123932904D01*
X164130666Y-123932904D01*
X164054476Y-123894809D01*
X164016380Y-123818619D01*
X164016380Y-123780523D01*
X164054476Y-123704333D01*
X164130666Y-123666238D01*
X164244952Y-123666238D01*
X164321142Y-123628142D01*
X164359238Y-123551952D01*
X164359238Y-123513857D01*
X164321142Y-123437666D01*
X164244952Y-123399571D01*
X164130666Y-123399571D01*
X164054476Y-123437666D01*
X163121357Y-107638571D02*
X163121357Y-106138571D01*
X162549928Y-106138571D01*
X162407071Y-106210000D01*
X162335642Y-106281428D01*
X162264214Y-106424285D01*
X162264214Y-106638571D01*
X162335642Y-106781428D01*
X162407071Y-106852857D01*
X162549928Y-106924285D01*
X163121357Y-106924285D01*
X161621357Y-107638571D02*
X161621357Y-106638571D01*
X161621357Y-106924285D02*
X161549928Y-106781428D01*
X161478500Y-106710000D01*
X161335642Y-106638571D01*
X161192785Y-106638571D01*
X160478500Y-107638571D02*
X160621357Y-107567142D01*
X160692785Y-107495714D01*
X160764214Y-107352857D01*
X160764214Y-106924285D01*
X160692785Y-106781428D01*
X160621357Y-106710000D01*
X160478500Y-106638571D01*
X160264214Y-106638571D01*
X160121357Y-106710000D01*
X160049928Y-106781428D01*
X159978500Y-106924285D01*
X159978500Y-107352857D01*
X160049928Y-107495714D01*
X160121357Y-107567142D01*
X160264214Y-107638571D01*
X160478500Y-107638571D01*
X159335642Y-106638571D02*
X159335642Y-107924285D01*
X159407071Y-108067142D01*
X159549928Y-108138571D01*
X159621357Y-108138571D01*
X159335642Y-106138571D02*
X159407071Y-106210000D01*
X159335642Y-106281428D01*
X159264214Y-106210000D01*
X159335642Y-106138571D01*
X159335642Y-106281428D01*
X158049928Y-107567142D02*
X158192785Y-107638571D01*
X158478500Y-107638571D01*
X158621357Y-107567142D01*
X158692785Y-107424285D01*
X158692785Y-106852857D01*
X158621357Y-106710000D01*
X158478500Y-106638571D01*
X158192785Y-106638571D01*
X158049928Y-106710000D01*
X157978500Y-106852857D01*
X157978500Y-106995714D01*
X158692785Y-107138571D01*
X156692785Y-107567142D02*
X156835642Y-107638571D01*
X157121357Y-107638571D01*
X157264214Y-107567142D01*
X157335642Y-107495714D01*
X157407071Y-107352857D01*
X157407071Y-106924285D01*
X157335642Y-106781428D01*
X157264214Y-106710000D01*
X157121357Y-106638571D01*
X156835642Y-106638571D01*
X156692785Y-106710000D01*
X156264214Y-106638571D02*
X155692785Y-106638571D01*
X156049928Y-106138571D02*
X156049928Y-107424285D01*
X155978500Y-107567142D01*
X155835642Y-107638571D01*
X155692785Y-107638571D01*
X155192785Y-107495714D02*
X155121357Y-107567142D01*
X155192785Y-107638571D01*
X155264214Y-107567142D01*
X155192785Y-107495714D01*
X155192785Y-107638571D01*
X155192785Y-106710000D02*
X155121357Y-106781428D01*
X155192785Y-106852857D01*
X155264214Y-106781428D01*
X155192785Y-106710000D01*
X155192785Y-106852857D01*
X163121357Y-110038571D02*
X163121357Y-108538571D01*
X162549928Y-108538571D01*
X162407071Y-108610000D01*
X162335642Y-108681428D01*
X162264214Y-108824285D01*
X162264214Y-109038571D01*
X162335642Y-109181428D01*
X162407071Y-109252857D01*
X162549928Y-109324285D01*
X163121357Y-109324285D01*
X160978500Y-110038571D02*
X160978500Y-109252857D01*
X161049928Y-109110000D01*
X161192785Y-109038571D01*
X161478500Y-109038571D01*
X161621357Y-109110000D01*
X160978500Y-109967142D02*
X161121357Y-110038571D01*
X161478500Y-110038571D01*
X161621357Y-109967142D01*
X161692785Y-109824285D01*
X161692785Y-109681428D01*
X161621357Y-109538571D01*
X161478500Y-109467142D01*
X161121357Y-109467142D01*
X160978500Y-109395714D01*
X160264214Y-110038571D02*
X160264214Y-109038571D01*
X160264214Y-109324285D02*
X160192785Y-109181428D01*
X160121357Y-109110000D01*
X159978500Y-109038571D01*
X159835642Y-109038571D01*
X159549928Y-109038571D02*
X158978500Y-109038571D01*
X159335642Y-108538571D02*
X159335642Y-109824285D01*
X159264214Y-109967142D01*
X159121357Y-110038571D01*
X158978500Y-110038571D01*
X158478500Y-109895714D02*
X158407071Y-109967142D01*
X158478500Y-110038571D01*
X158549928Y-109967142D01*
X158478500Y-109895714D01*
X158478500Y-110038571D01*
X158478500Y-109110000D02*
X158407071Y-109181428D01*
X158478500Y-109252857D01*
X158549928Y-109181428D01*
X158478500Y-109110000D01*
X158478500Y-109252857D01*
X163335642Y-110938571D02*
X162835642Y-112438571D01*
X162335642Y-110938571D01*
X161264214Y-112367142D02*
X161407071Y-112438571D01*
X161692785Y-112438571D01*
X161835642Y-112367142D01*
X161907071Y-112224285D01*
X161907071Y-111652857D01*
X161835642Y-111510000D01*
X161692785Y-111438571D01*
X161407071Y-111438571D01*
X161264214Y-111510000D01*
X161192785Y-111652857D01*
X161192785Y-111795714D01*
X161907071Y-111938571D01*
X160549928Y-112438571D02*
X160549928Y-111438571D01*
X160549928Y-111724285D02*
X160478500Y-111581428D01*
X160407071Y-111510000D01*
X160264214Y-111438571D01*
X160121357Y-111438571D01*
X159692785Y-112367142D02*
X159549928Y-112438571D01*
X159264214Y-112438571D01*
X159121357Y-112367142D01*
X159049928Y-112224285D01*
X159049928Y-112152857D01*
X159121357Y-112010000D01*
X159264214Y-111938571D01*
X159478500Y-111938571D01*
X159621357Y-111867142D01*
X159692785Y-111724285D01*
X159692785Y-111652857D01*
X159621357Y-111510000D01*
X159478500Y-111438571D01*
X159264214Y-111438571D01*
X159121357Y-111510000D01*
X158407071Y-112438571D02*
X158407071Y-111438571D01*
X158407071Y-110938571D02*
X158478500Y-111010000D01*
X158407071Y-111081428D01*
X158335642Y-111010000D01*
X158407071Y-110938571D01*
X158407071Y-111081428D01*
X157478500Y-112438571D02*
X157621357Y-112367142D01*
X157692785Y-112295714D01*
X157764214Y-112152857D01*
X157764214Y-111724285D01*
X157692785Y-111581428D01*
X157621357Y-111510000D01*
X157478500Y-111438571D01*
X157264214Y-111438571D01*
X157121357Y-111510000D01*
X157049928Y-111581428D01*
X156978500Y-111724285D01*
X156978500Y-112152857D01*
X157049928Y-112295714D01*
X157121357Y-112367142D01*
X157264214Y-112438571D01*
X157478500Y-112438571D01*
X156335642Y-111438571D02*
X156335642Y-112438571D01*
X156335642Y-111581428D02*
X156264214Y-111510000D01*
X156121357Y-111438571D01*
X155907071Y-111438571D01*
X155764214Y-111510000D01*
X155692785Y-111652857D01*
X155692785Y-112438571D01*
X154978500Y-112295714D02*
X154907071Y-112367142D01*
X154978500Y-112438571D01*
X155049928Y-112367142D01*
X154978500Y-112295714D01*
X154978500Y-112438571D01*
X154978500Y-111510000D02*
X154907071Y-111581428D01*
X154978500Y-111652857D01*
X155049928Y-111581428D01*
X154978500Y-111510000D01*
X154978500Y-111652857D01*
X163121357Y-114838571D02*
X163121357Y-113338571D01*
X162764214Y-113338571D01*
X162549928Y-113410000D01*
X162407071Y-113552857D01*
X162335642Y-113695714D01*
X162264214Y-113981428D01*
X162264214Y-114195714D01*
X162335642Y-114481428D01*
X162407071Y-114624285D01*
X162549928Y-114767142D01*
X162764214Y-114838571D01*
X163121357Y-114838571D01*
X160978500Y-114838571D02*
X160978500Y-114052857D01*
X161049928Y-113910000D01*
X161192785Y-113838571D01*
X161478500Y-113838571D01*
X161621357Y-113910000D01*
X160978500Y-114767142D02*
X161121357Y-114838571D01*
X161478500Y-114838571D01*
X161621357Y-114767142D01*
X161692785Y-114624285D01*
X161692785Y-114481428D01*
X161621357Y-114338571D01*
X161478500Y-114267142D01*
X161121357Y-114267142D01*
X160978500Y-114195714D01*
X160478500Y-113838571D02*
X159907071Y-113838571D01*
X160264214Y-113338571D02*
X160264214Y-114624285D01*
X160192785Y-114767142D01*
X160049928Y-114838571D01*
X159907071Y-114838571D01*
X158835642Y-114767142D02*
X158978500Y-114838571D01*
X159264214Y-114838571D01*
X159407071Y-114767142D01*
X159478500Y-114624285D01*
X159478500Y-114052857D01*
X159407071Y-113910000D01*
X159264214Y-113838571D01*
X158978500Y-113838571D01*
X158835642Y-113910000D01*
X158764214Y-114052857D01*
X158764214Y-114195714D01*
X159478500Y-114338571D01*
X158121357Y-114695714D02*
X158049928Y-114767142D01*
X158121357Y-114838571D01*
X158192785Y-114767142D01*
X158121357Y-114695714D01*
X158121357Y-114838571D01*
X158121357Y-113910000D02*
X158049928Y-113981428D01*
X158121357Y-114052857D01*
X158192785Y-113981428D01*
X158121357Y-113910000D01*
X158121357Y-114052857D01*
X162621357Y-116452857D02*
X162407071Y-116524285D01*
X162335642Y-116595714D01*
X162264214Y-116738571D01*
X162264214Y-116952857D01*
X162335642Y-117095714D01*
X162407071Y-117167142D01*
X162549928Y-117238571D01*
X163121357Y-117238571D01*
X163121357Y-115738571D01*
X162621357Y-115738571D01*
X162478500Y-115810000D01*
X162407071Y-115881428D01*
X162335642Y-116024285D01*
X162335642Y-116167142D01*
X162407071Y-116310000D01*
X162478500Y-116381428D01*
X162621357Y-116452857D01*
X163121357Y-116452857D01*
X161764214Y-116238571D02*
X161407071Y-117238571D01*
X161049928Y-116238571D02*
X161407071Y-117238571D01*
X161549928Y-117595714D01*
X161621357Y-117667142D01*
X161764214Y-117738571D01*
X160478500Y-117095714D02*
X160407071Y-117167142D01*
X160478500Y-117238571D01*
X160549928Y-117167142D01*
X160478500Y-117095714D01*
X160478500Y-117238571D01*
X160478500Y-116310000D02*
X160407071Y-116381428D01*
X160478500Y-116452857D01*
X160549928Y-116381428D01*
X160478500Y-116310000D01*
X160478500Y-116452857D01*
D12*
X153670000Y-134620000D02*
X153670000Y-133667500D01*
X155575000Y-123317000D02*
G75*
G02X156210000Y-123952000I0J-635000D01*
G01*
X156210000Y-134810500D02*
G75*
G02X155575000Y-135445500I-635000J0D01*
G01*
X153670000Y-132715000D02*
X153670000Y-131762500D01*
X156210000Y-134810500D02*
X156210000Y-123952000D01*
X170815000Y-123317000D02*
G75*
G02X171450000Y-123952000I0J-635000D01*
G01*
X170815000Y-123317000D02*
X169608500Y-123317000D01*
X115570000Y-134810500D02*
X115570000Y-123952000D01*
D10*
X153039119Y-124783809D02*
X152924833Y-124821904D01*
X152734357Y-124821904D01*
X152658166Y-124783809D01*
X152620071Y-124745714D01*
X152581976Y-124669523D01*
X152581976Y-124593333D01*
X152620071Y-124517142D01*
X152658166Y-124479047D01*
X152734357Y-124440952D01*
X152886738Y-124402857D01*
X152962928Y-124364761D01*
X153001023Y-124326666D01*
X153039119Y-124250476D01*
X153039119Y-124174285D01*
X153001023Y-124098095D01*
X152962928Y-124060000D01*
X152886738Y-124021904D01*
X152696261Y-124021904D01*
X152581976Y-124060000D01*
X151934357Y-124783809D02*
X152010547Y-124821904D01*
X152162928Y-124821904D01*
X152239119Y-124783809D01*
X152277214Y-124707619D01*
X152277214Y-124402857D01*
X152239119Y-124326666D01*
X152162928Y-124288571D01*
X152010547Y-124288571D01*
X151934357Y-124326666D01*
X151896261Y-124402857D01*
X151896261Y-124479047D01*
X152277214Y-124555238D01*
X151667690Y-124288571D02*
X151362928Y-124288571D01*
X151553404Y-124021904D02*
X151553404Y-124707619D01*
X151515309Y-124783809D01*
X151439119Y-124821904D01*
X151362928Y-124821904D01*
D12*
X163258500Y-123317000D02*
X159385000Y-123317000D01*
X158750000Y-134810500D02*
X158750000Y-123952000D01*
X159385000Y-135445500D02*
G75*
G02X158750000Y-134810500I0J635000D01*
G01*
X171450000Y-134810500D02*
G75*
G02X170815000Y-135445500I-635000J0D01*
G01*
X171450000Y-134810500D02*
X171450000Y-123952000D01*
X170815000Y-135445500D02*
X159385000Y-135445500D01*
X158750000Y-123952000D02*
G75*
G02X159385000Y-123317000I635000J0D01*
G01*
X115570000Y-123952000D02*
G75*
G02X116205000Y-123317000I635000J0D01*
G01*
X116205000Y-135445500D02*
G75*
G02X115570000Y-134810500I0J635000D01*
G01*
X116205000Y-135445500D02*
X155575000Y-135445500D01*
D10*
X146881904Y-132781784D02*
X146881904Y-133277023D01*
X147186666Y-133010356D01*
X147186666Y-133124642D01*
X147224761Y-133200832D01*
X147262857Y-133238927D01*
X147339047Y-133277023D01*
X147529523Y-133277023D01*
X147605714Y-133238927D01*
X147643809Y-133200832D01*
X147681904Y-133124642D01*
X147681904Y-132896070D01*
X147643809Y-132819880D01*
X147605714Y-132781784D01*
X152416880Y-134727904D02*
X152683547Y-134346952D01*
X152874023Y-134727904D02*
X152874023Y-133927904D01*
X152569261Y-133927904D01*
X152493071Y-133966000D01*
X152454976Y-134004095D01*
X152416880Y-134080285D01*
X152416880Y-134194571D01*
X152454976Y-134270761D01*
X152493071Y-134308857D01*
X152569261Y-134346952D01*
X152874023Y-134346952D01*
X151769261Y-134689809D02*
X151845452Y-134727904D01*
X151997833Y-134727904D01*
X152074023Y-134689809D01*
X152112119Y-134613619D01*
X152112119Y-134308857D01*
X152074023Y-134232666D01*
X151997833Y-134194571D01*
X151845452Y-134194571D01*
X151769261Y-134232666D01*
X151731166Y-134308857D01*
X151731166Y-134385047D01*
X152112119Y-134461238D01*
X151426404Y-134689809D02*
X151350214Y-134727904D01*
X151197833Y-134727904D01*
X151121642Y-134689809D01*
X151083547Y-134613619D01*
X151083547Y-134575523D01*
X151121642Y-134499333D01*
X151197833Y-134461238D01*
X151312119Y-134461238D01*
X151388309Y-134423142D01*
X151426404Y-134346952D01*
X151426404Y-134308857D01*
X151388309Y-134232666D01*
X151312119Y-134194571D01*
X151197833Y-134194571D01*
X151121642Y-134232666D01*
X150435928Y-134689809D02*
X150512119Y-134727904D01*
X150664500Y-134727904D01*
X150740690Y-134689809D01*
X150778785Y-134613619D01*
X150778785Y-134308857D01*
X150740690Y-134232666D01*
X150664500Y-134194571D01*
X150512119Y-134194571D01*
X150435928Y-134232666D01*
X150397833Y-134308857D01*
X150397833Y-134385047D01*
X150778785Y-134461238D01*
X150169261Y-134194571D02*
X149864500Y-134194571D01*
X150054976Y-133927904D02*
X150054976Y-134613619D01*
X150016880Y-134689809D01*
X149940690Y-134727904D01*
X149864500Y-134727904D01*
X139261904Y-133200832D02*
X139261904Y-133048451D01*
X139300000Y-132972261D01*
X139338095Y-132934165D01*
X139452380Y-132857975D01*
X139604761Y-132819880D01*
X139909523Y-132819880D01*
X139985714Y-132857975D01*
X140023809Y-132896070D01*
X140061904Y-132972261D01*
X140061904Y-133124642D01*
X140023809Y-133200832D01*
X139985714Y-133238927D01*
X139909523Y-133277023D01*
X139719047Y-133277023D01*
X139642857Y-133238927D01*
X139604761Y-133200832D01*
X139566666Y-133124642D01*
X139566666Y-132972261D01*
X139604761Y-132896070D01*
X139642857Y-132857975D01*
X139719047Y-132819880D01*
X172281904Y-132719357D02*
X173081904Y-132986023D01*
X172281904Y-133252690D01*
X173005714Y-133976500D02*
X173043809Y-133938404D01*
X173081904Y-133824119D01*
X173081904Y-133747928D01*
X173043809Y-133633642D01*
X172967619Y-133557452D01*
X172891428Y-133519357D01*
X172739047Y-133481261D01*
X172624761Y-133481261D01*
X172472380Y-133519357D01*
X172396190Y-133557452D01*
X172320000Y-133633642D01*
X172281904Y-133747928D01*
X172281904Y-133824119D01*
X172320000Y-133938404D01*
X172358095Y-133976500D01*
X173005714Y-134776500D02*
X173043809Y-134738404D01*
X173081904Y-134624119D01*
X173081904Y-134547928D01*
X173043809Y-134433642D01*
X172967619Y-134357452D01*
X172891428Y-134319357D01*
X172739047Y-134281261D01*
X172624761Y-134281261D01*
X172472380Y-134319357D01*
X172396190Y-134357452D01*
X172320000Y-134433642D01*
X172281904Y-134547928D01*
X172281904Y-134624119D01*
X172320000Y-134738404D01*
X172358095Y-134776500D01*
X141801904Y-133238927D02*
X141801904Y-132857975D01*
X142182857Y-132819880D01*
X142144761Y-132857975D01*
X142106666Y-132934165D01*
X142106666Y-133124642D01*
X142144761Y-133200832D01*
X142182857Y-133238927D01*
X142259047Y-133277023D01*
X142449523Y-133277023D01*
X142525714Y-133238927D01*
X142563809Y-133200832D01*
X142601904Y-133124642D01*
X142601904Y-132934165D01*
X142563809Y-132857975D01*
X142525714Y-132819880D01*
X162693333Y-132795547D02*
X162693333Y-133176500D01*
X162921904Y-132719357D02*
X162121904Y-132986024D01*
X162921904Y-133252690D01*
X162198095Y-133481262D02*
X162160000Y-133519357D01*
X162121904Y-133595547D01*
X162121904Y-133786024D01*
X162160000Y-133862214D01*
X162198095Y-133900309D01*
X162274285Y-133938405D01*
X162350476Y-133938405D01*
X162464761Y-133900309D01*
X162921904Y-133443166D01*
X162921904Y-133938405D01*
X160153333Y-132795547D02*
X160153333Y-133176500D01*
X160381904Y-132719357D02*
X159581904Y-132986024D01*
X160381904Y-133252690D01*
X159581904Y-133671738D02*
X159581904Y-133747928D01*
X159620000Y-133824119D01*
X159658095Y-133862214D01*
X159734285Y-133900309D01*
X159886666Y-133938405D01*
X160077142Y-133938405D01*
X160229523Y-133900309D01*
X160305714Y-133862214D01*
X160343809Y-133824119D01*
X160381904Y-133747928D01*
X160381904Y-133671738D01*
X160343809Y-133595547D01*
X160305714Y-133557452D01*
X160229523Y-133519357D01*
X160077142Y-133481262D01*
X159886666Y-133481262D01*
X159734285Y-133519357D01*
X159658095Y-133557452D01*
X159620000Y-133595547D01*
X159581904Y-133671738D01*
X124821904Y-133277023D02*
X124821904Y-132819880D01*
X124821904Y-133048451D02*
X124021904Y-133048451D01*
X124136190Y-132972261D01*
X124212380Y-132896070D01*
X124250476Y-132819880D01*
X124098095Y-133581785D02*
X124060000Y-133619880D01*
X124021904Y-133696070D01*
X124021904Y-133886547D01*
X124060000Y-133962737D01*
X124098095Y-134000832D01*
X124174285Y-134038928D01*
X124250476Y-134038928D01*
X124364761Y-134000832D01*
X124821904Y-133543689D01*
X124821904Y-134038928D01*
X174860000Y-133252690D02*
X174821904Y-133176500D01*
X174821904Y-133062214D01*
X174860000Y-132947928D01*
X174936190Y-132871738D01*
X175012380Y-132833642D01*
X175164761Y-132795547D01*
X175279047Y-132795547D01*
X175431428Y-132833642D01*
X175507619Y-132871738D01*
X175583809Y-132947928D01*
X175621904Y-133062214D01*
X175621904Y-133138404D01*
X175583809Y-133252690D01*
X175545714Y-133290785D01*
X175279047Y-133290785D01*
X175279047Y-133138404D01*
X175621904Y-133633642D02*
X174821904Y-133633642D01*
X175621904Y-134090785D01*
X174821904Y-134090785D01*
X175621904Y-134471738D02*
X174821904Y-134471738D01*
X174821904Y-134662214D01*
X174860000Y-134776500D01*
X174936190Y-134852690D01*
X175012380Y-134890785D01*
X175164761Y-134928881D01*
X175279047Y-134928881D01*
X175431428Y-134890785D01*
X175507619Y-134852690D01*
X175583809Y-134776500D01*
X175621904Y-134662214D01*
X175621904Y-134471738D01*
X144608571Y-133200832D02*
X145141904Y-133200832D01*
X144303809Y-133010356D02*
X144875238Y-132819880D01*
X144875238Y-133315118D01*
X167582857Y-132871738D02*
X167582857Y-133138405D01*
X168001904Y-133252691D02*
X168001904Y-132871738D01*
X167201904Y-132871738D01*
X167201904Y-133252691D01*
X168078095Y-133405072D02*
X168078095Y-134014596D01*
X168001904Y-134205072D02*
X167201904Y-134205072D01*
X167201904Y-134395548D01*
X167240000Y-134509834D01*
X167316190Y-134586024D01*
X167392380Y-134624119D01*
X167544761Y-134662215D01*
X167659047Y-134662215D01*
X167811428Y-134624119D01*
X167887619Y-134586024D01*
X167963809Y-134509834D01*
X168001904Y-134395548D01*
X168001904Y-134205072D01*
X129901904Y-133277023D02*
X129901904Y-132819880D01*
X129901904Y-133048451D02*
X129101904Y-133048451D01*
X129216190Y-132972261D01*
X129292380Y-132896070D01*
X129330476Y-132819880D01*
X129101904Y-133772261D02*
X129101904Y-133848451D01*
X129140000Y-133924642D01*
X129178095Y-133962737D01*
X129254285Y-134000832D01*
X129406666Y-134038928D01*
X129597142Y-134038928D01*
X129749523Y-134000832D01*
X129825714Y-133962737D01*
X129863809Y-133924642D01*
X129901904Y-133848451D01*
X129901904Y-133772261D01*
X129863809Y-133696070D01*
X129825714Y-133657975D01*
X129749523Y-133619880D01*
X129597142Y-133581785D01*
X129406666Y-133581785D01*
X129254285Y-133619880D01*
X129178095Y-133657975D01*
X129140000Y-133696070D01*
X129101904Y-133772261D01*
X136721904Y-132781784D02*
X136721904Y-133315118D01*
X137521904Y-132972261D01*
X165042857Y-133100310D02*
X165080952Y-133214595D01*
X165119047Y-133252691D01*
X165195238Y-133290786D01*
X165309523Y-133290786D01*
X165385714Y-133252691D01*
X165423809Y-133214595D01*
X165461904Y-133138405D01*
X165461904Y-132833643D01*
X164661904Y-132833643D01*
X164661904Y-133100310D01*
X164700000Y-133176500D01*
X164738095Y-133214595D01*
X164814285Y-133252691D01*
X164890476Y-133252691D01*
X164966666Y-133214595D01*
X165004761Y-133176500D01*
X165042857Y-133100310D01*
X165042857Y-132833643D01*
X164661904Y-133786024D02*
X164661904Y-133862214D01*
X164700000Y-133938405D01*
X164738095Y-133976500D01*
X164814285Y-134014595D01*
X164966666Y-134052691D01*
X165157142Y-134052691D01*
X165309523Y-134014595D01*
X165385714Y-133976500D01*
X165423809Y-133938405D01*
X165461904Y-133862214D01*
X165461904Y-133786024D01*
X165423809Y-133709833D01*
X165385714Y-133671738D01*
X165309523Y-133633643D01*
X165157142Y-133595548D01*
X164966666Y-133595548D01*
X164814285Y-133633643D01*
X164738095Y-133671738D01*
X164700000Y-133709833D01*
X164661904Y-133786024D01*
X127361904Y-133277023D02*
X127361904Y-132819880D01*
X127361904Y-133048451D02*
X126561904Y-133048451D01*
X126676190Y-132972261D01*
X126752380Y-132896070D01*
X126790476Y-132819880D01*
X127361904Y-134038928D02*
X127361904Y-133581785D01*
X127361904Y-133810356D02*
X126561904Y-133810356D01*
X126676190Y-133734166D01*
X126752380Y-133657975D01*
X126790476Y-133581785D01*
X149498095Y-132819880D02*
X149460000Y-132857975D01*
X149421904Y-132934165D01*
X149421904Y-133124642D01*
X149460000Y-133200832D01*
X149498095Y-133238927D01*
X149574285Y-133277023D01*
X149650476Y-133277023D01*
X149764761Y-133238927D01*
X150221904Y-132781784D01*
X150221904Y-133277023D01*
X122281904Y-133277023D02*
X122281904Y-132819880D01*
X122281904Y-133048451D02*
X121481904Y-133048451D01*
X121596190Y-132972261D01*
X121672380Y-132896070D01*
X121710476Y-132819880D01*
X121481904Y-133543689D02*
X121481904Y-134038928D01*
X121786666Y-133772261D01*
X121786666Y-133886547D01*
X121824761Y-133962737D01*
X121862857Y-134000832D01*
X121939047Y-134038928D01*
X122129523Y-134038928D01*
X122205714Y-134000832D01*
X122243809Y-133962737D01*
X122281904Y-133886547D01*
X122281904Y-133657975D01*
X122243809Y-133581785D01*
X122205714Y-133543689D01*
X132441904Y-132896070D02*
X132441904Y-133048451D01*
X132403809Y-133124642D01*
X132365714Y-133162737D01*
X132251428Y-133238927D01*
X132099047Y-133277023D01*
X131794285Y-133277023D01*
X131718095Y-133238927D01*
X131680000Y-133200832D01*
X131641904Y-133124642D01*
X131641904Y-132972261D01*
X131680000Y-132896070D01*
X131718095Y-132857975D01*
X131794285Y-132819880D01*
X131984761Y-132819880D01*
X132060952Y-132857975D01*
X132099047Y-132896070D01*
X132137142Y-132972261D01*
X132137142Y-133124642D01*
X132099047Y-133200832D01*
X132060952Y-133238927D01*
X131984761Y-133277023D01*
X134524761Y-132972261D02*
X134486666Y-132896070D01*
X134448571Y-132857975D01*
X134372380Y-132819880D01*
X134334285Y-132819880D01*
X134258095Y-132857975D01*
X134220000Y-132896070D01*
X134181904Y-132972261D01*
X134181904Y-133124642D01*
X134220000Y-133200832D01*
X134258095Y-133238927D01*
X134334285Y-133277023D01*
X134372380Y-133277023D01*
X134448571Y-133238927D01*
X134486666Y-133200832D01*
X134524761Y-133124642D01*
X134524761Y-132972261D01*
X134562857Y-132896070D01*
X134600952Y-132857975D01*
X134677142Y-132819880D01*
X134829523Y-132819880D01*
X134905714Y-132857975D01*
X134943809Y-132896070D01*
X134981904Y-132972261D01*
X134981904Y-133124642D01*
X134943809Y-133200832D01*
X134905714Y-133238927D01*
X134829523Y-133277023D01*
X134677142Y-133277023D01*
X134600952Y-133238927D01*
X134562857Y-133200832D01*
X134524761Y-133124642D01*
X177361904Y-132719357D02*
X178161904Y-132986024D01*
X177361904Y-133252691D01*
X178123809Y-133481262D02*
X178161904Y-133595548D01*
X178161904Y-133786024D01*
X178123809Y-133862214D01*
X178085714Y-133900310D01*
X178009523Y-133938405D01*
X177933333Y-133938405D01*
X177857142Y-133900310D01*
X177819047Y-133862214D01*
X177780952Y-133786024D01*
X177742857Y-133633643D01*
X177704761Y-133557452D01*
X177666666Y-133519357D01*
X177590476Y-133481262D01*
X177514285Y-133481262D01*
X177438095Y-133519357D01*
X177400000Y-133557452D01*
X177361904Y-133633643D01*
X177361904Y-133824119D01*
X177400000Y-133938405D01*
X178123809Y-134243167D02*
X178161904Y-134357452D01*
X178161904Y-134547929D01*
X178123809Y-134624119D01*
X178085714Y-134662214D01*
X178009523Y-134700310D01*
X177933333Y-134700310D01*
X177857142Y-134662214D01*
X177819047Y-134624119D01*
X177780952Y-134547929D01*
X177742857Y-134395548D01*
X177704761Y-134319357D01*
X177666666Y-134281262D01*
X177590476Y-134243167D01*
X177514285Y-134243167D01*
X177438095Y-134281262D01*
X177400000Y-134319357D01*
X177361904Y-134395548D01*
X177361904Y-134586024D01*
X177400000Y-134700310D01*
X157080000Y-133252690D02*
X157041904Y-133176500D01*
X157041904Y-133062214D01*
X157080000Y-132947928D01*
X157156190Y-132871738D01*
X157232380Y-132833642D01*
X157384761Y-132795547D01*
X157499047Y-132795547D01*
X157651428Y-132833642D01*
X157727619Y-132871738D01*
X157803809Y-132947928D01*
X157841904Y-133062214D01*
X157841904Y-133138404D01*
X157803809Y-133252690D01*
X157765714Y-133290785D01*
X157499047Y-133290785D01*
X157499047Y-133138404D01*
X157841904Y-133633642D02*
X157041904Y-133633642D01*
X157841904Y-134090785D01*
X157041904Y-134090785D01*
X157841904Y-134471738D02*
X157041904Y-134471738D01*
X157041904Y-134662214D01*
X157080000Y-134776500D01*
X157156190Y-134852690D01*
X157232380Y-134890785D01*
X157384761Y-134928881D01*
X157499047Y-134928881D01*
X157651428Y-134890785D01*
X157727619Y-134852690D01*
X157803809Y-134776500D01*
X157841904Y-134662214D01*
X157841904Y-134471738D01*
X152761904Y-133277023D02*
X152761904Y-132819880D01*
X152761904Y-133048451D02*
X151961904Y-133048451D01*
X152076190Y-132972261D01*
X152152380Y-132896070D01*
X152190476Y-132819880D01*
D12*
X116205000Y-123317000D02*
X135128000Y-123317000D01*
X155575000Y-123317000D02*
X139446000Y-123317000D01*
D10*
X152761904Y-126215120D02*
X152761904Y-125757977D01*
X152761904Y-125986548D02*
X151961904Y-125986548D01*
X152076190Y-125910358D01*
X152152380Y-125834167D01*
X152190476Y-125757977D01*
X122281904Y-125453215D02*
X122281904Y-124996072D01*
X122281904Y-125224643D02*
X121481904Y-125224643D01*
X121596190Y-125148453D01*
X121672380Y-125072262D01*
X121710476Y-124996072D01*
X121481904Y-125719881D02*
X121481904Y-126215120D01*
X121786666Y-125948453D01*
X121786666Y-126062739D01*
X121824761Y-126138929D01*
X121862857Y-126177024D01*
X121939047Y-126215120D01*
X122129523Y-126215120D01*
X122205714Y-126177024D01*
X122243809Y-126138929D01*
X122281904Y-126062739D01*
X122281904Y-125834167D01*
X122243809Y-125757977D01*
X122205714Y-125719881D01*
X124821904Y-125453215D02*
X124821904Y-124996072D01*
X124821904Y-125224643D02*
X124021904Y-125224643D01*
X124136190Y-125148453D01*
X124212380Y-125072262D01*
X124250476Y-124996072D01*
X124098095Y-125757977D02*
X124060000Y-125796072D01*
X124021904Y-125872262D01*
X124021904Y-126062739D01*
X124060000Y-126138929D01*
X124098095Y-126177024D01*
X124174285Y-126215120D01*
X124250476Y-126215120D01*
X124364761Y-126177024D01*
X124821904Y-125719881D01*
X124821904Y-126215120D01*
X127361904Y-125453215D02*
X127361904Y-124996072D01*
X127361904Y-125224643D02*
X126561904Y-125224643D01*
X126676190Y-125148453D01*
X126752380Y-125072262D01*
X126790476Y-124996072D01*
X127361904Y-126215120D02*
X127361904Y-125757977D01*
X127361904Y-125986548D02*
X126561904Y-125986548D01*
X126676190Y-125910358D01*
X126752380Y-125834167D01*
X126790476Y-125757977D01*
X129901904Y-125453215D02*
X129901904Y-124996072D01*
X129901904Y-125224643D02*
X129101904Y-125224643D01*
X129216190Y-125148453D01*
X129292380Y-125072262D01*
X129330476Y-124996072D01*
X129101904Y-125948453D02*
X129101904Y-126024643D01*
X129140000Y-126100834D01*
X129178095Y-126138929D01*
X129254285Y-126177024D01*
X129406666Y-126215120D01*
X129597142Y-126215120D01*
X129749523Y-126177024D01*
X129825714Y-126138929D01*
X129863809Y-126100834D01*
X129901904Y-126024643D01*
X129901904Y-125948453D01*
X129863809Y-125872262D01*
X129825714Y-125834167D01*
X129749523Y-125796072D01*
X129597142Y-125757977D01*
X129406666Y-125757977D01*
X129254285Y-125796072D01*
X129178095Y-125834167D01*
X129140000Y-125872262D01*
X129101904Y-125948453D01*
X132441904Y-125834167D02*
X132441904Y-125986548D01*
X132403809Y-126062739D01*
X132365714Y-126100834D01*
X132251428Y-126177024D01*
X132099047Y-126215120D01*
X131794285Y-126215120D01*
X131718095Y-126177024D01*
X131680000Y-126138929D01*
X131641904Y-126062739D01*
X131641904Y-125910358D01*
X131680000Y-125834167D01*
X131718095Y-125796072D01*
X131794285Y-125757977D01*
X131984761Y-125757977D01*
X132060952Y-125796072D01*
X132099047Y-125834167D01*
X132137142Y-125910358D01*
X132137142Y-126062739D01*
X132099047Y-126138929D01*
X132060952Y-126177024D01*
X131984761Y-126215120D01*
X134524761Y-125910358D02*
X134486666Y-125834167D01*
X134448571Y-125796072D01*
X134372380Y-125757977D01*
X134334285Y-125757977D01*
X134258095Y-125796072D01*
X134220000Y-125834167D01*
X134181904Y-125910358D01*
X134181904Y-126062739D01*
X134220000Y-126138929D01*
X134258095Y-126177024D01*
X134334285Y-126215120D01*
X134372380Y-126215120D01*
X134448571Y-126177024D01*
X134486666Y-126138929D01*
X134524761Y-126062739D01*
X134524761Y-125910358D01*
X134562857Y-125834167D01*
X134600952Y-125796072D01*
X134677142Y-125757977D01*
X134829523Y-125757977D01*
X134905714Y-125796072D01*
X134943809Y-125834167D01*
X134981904Y-125910358D01*
X134981904Y-126062739D01*
X134943809Y-126138929D01*
X134905714Y-126177024D01*
X134829523Y-126215120D01*
X134677142Y-126215120D01*
X134600952Y-126177024D01*
X134562857Y-126138929D01*
X134524761Y-126062739D01*
X136721904Y-125719881D02*
X136721904Y-126253215D01*
X137521904Y-125910358D01*
X139261904Y-126138929D02*
X139261904Y-125986548D01*
X139300000Y-125910358D01*
X139338095Y-125872262D01*
X139452380Y-125796072D01*
X139604761Y-125757977D01*
X139909523Y-125757977D01*
X139985714Y-125796072D01*
X140023809Y-125834167D01*
X140061904Y-125910358D01*
X140061904Y-126062739D01*
X140023809Y-126138929D01*
X139985714Y-126177024D01*
X139909523Y-126215120D01*
X139719047Y-126215120D01*
X139642857Y-126177024D01*
X139604761Y-126138929D01*
X139566666Y-126062739D01*
X139566666Y-125910358D01*
X139604761Y-125834167D01*
X139642857Y-125796072D01*
X139719047Y-125757977D01*
X141801904Y-126177024D02*
X141801904Y-125796072D01*
X142182857Y-125757977D01*
X142144761Y-125796072D01*
X142106666Y-125872262D01*
X142106666Y-126062739D01*
X142144761Y-126138929D01*
X142182857Y-126177024D01*
X142259047Y-126215120D01*
X142449523Y-126215120D01*
X142525714Y-126177024D01*
X142563809Y-126138929D01*
X142601904Y-126062739D01*
X142601904Y-125872262D01*
X142563809Y-125796072D01*
X142525714Y-125757977D01*
X144608571Y-126138929D02*
X145141904Y-126138929D01*
X144303809Y-125948453D02*
X144875238Y-125757977D01*
X144875238Y-126253215D01*
X146881904Y-125719881D02*
X146881904Y-126215120D01*
X147186666Y-125948453D01*
X147186666Y-126062739D01*
X147224761Y-126138929D01*
X147262857Y-126177024D01*
X147339047Y-126215120D01*
X147529523Y-126215120D01*
X147605714Y-126177024D01*
X147643809Y-126138929D01*
X147681904Y-126062739D01*
X147681904Y-125834167D01*
X147643809Y-125757977D01*
X147605714Y-125719881D01*
X149498095Y-125757977D02*
X149460000Y-125796072D01*
X149421904Y-125872262D01*
X149421904Y-126062739D01*
X149460000Y-126138929D01*
X149498095Y-126177024D01*
X149574285Y-126215120D01*
X149650476Y-126215120D01*
X149764761Y-126177024D01*
X150221904Y-125719881D01*
X150221904Y-126215120D01*
X157080000Y-124538929D02*
X157041904Y-124462739D01*
X157041904Y-124348453D01*
X157080000Y-124234167D01*
X157156190Y-124157977D01*
X157232380Y-124119881D01*
X157384761Y-124081786D01*
X157499047Y-124081786D01*
X157651428Y-124119881D01*
X157727619Y-124157977D01*
X157803809Y-124234167D01*
X157841904Y-124348453D01*
X157841904Y-124424643D01*
X157803809Y-124538929D01*
X157765714Y-124577024D01*
X157499047Y-124577024D01*
X157499047Y-124424643D01*
X157841904Y-124919881D02*
X157041904Y-124919881D01*
X157841904Y-125377024D01*
X157041904Y-125377024D01*
X157841904Y-125757977D02*
X157041904Y-125757977D01*
X157041904Y-125948453D01*
X157080000Y-126062739D01*
X157156190Y-126138929D01*
X157232380Y-126177024D01*
X157384761Y-126215120D01*
X157499047Y-126215120D01*
X157651428Y-126177024D01*
X157727619Y-126138929D01*
X157803809Y-126062739D01*
X157841904Y-125948453D01*
X157841904Y-125757977D01*
X160153333Y-125072262D02*
X160153333Y-125453215D01*
X160381904Y-124996072D02*
X159581904Y-125262739D01*
X160381904Y-125529405D01*
X160381904Y-126215120D02*
X160381904Y-125757977D01*
X160381904Y-125986548D02*
X159581904Y-125986548D01*
X159696190Y-125910358D01*
X159772380Y-125834167D01*
X159810476Y-125757977D01*
X162921904Y-123777024D02*
X162121904Y-123777024D01*
X162121904Y-123967501D01*
X162160000Y-124081786D01*
X162236190Y-124157977D01*
X162312380Y-124196072D01*
X162464761Y-124234167D01*
X162579047Y-124234167D01*
X162731428Y-124196072D01*
X162807619Y-124157977D01*
X162883809Y-124081786D01*
X162921904Y-123967501D01*
X162921904Y-123777024D01*
X162693333Y-124538929D02*
X162693333Y-124919881D01*
X162921904Y-124462739D02*
X162121904Y-124729405D01*
X162921904Y-124996072D01*
X162121904Y-125148453D02*
X162121904Y-125605596D01*
X162921904Y-125377024D02*
X162121904Y-125377024D01*
X162693333Y-125834167D02*
X162693333Y-126215120D01*
X162921904Y-125757977D02*
X162121904Y-126024643D01*
X162921904Y-126291310D01*
X165042857Y-125262739D02*
X165080952Y-125377024D01*
X165119047Y-125415120D01*
X165195238Y-125453215D01*
X165309523Y-125453215D01*
X165385714Y-125415120D01*
X165423809Y-125377024D01*
X165461904Y-125300834D01*
X165461904Y-124996072D01*
X164661904Y-124996072D01*
X164661904Y-125262739D01*
X164700000Y-125338929D01*
X164738095Y-125377024D01*
X164814285Y-125415120D01*
X164890476Y-125415120D01*
X164966666Y-125377024D01*
X165004761Y-125338929D01*
X165042857Y-125262739D01*
X165042857Y-124996072D01*
X165461904Y-126215120D02*
X165461904Y-125757977D01*
X165461904Y-125986548D02*
X164661904Y-125986548D01*
X164776190Y-125910358D01*
X164852380Y-125834167D01*
X164890476Y-125757977D01*
X170122857Y-124538929D02*
X170122857Y-124805596D01*
X170541904Y-124919881D02*
X170541904Y-124538929D01*
X169741904Y-124538929D01*
X169741904Y-124919881D01*
X170618095Y-125072262D02*
X170618095Y-125681786D01*
X170313333Y-125834167D02*
X170313333Y-126215120D01*
X170541904Y-125757977D02*
X169741904Y-126024643D01*
X170541904Y-126291310D01*
X172281904Y-124157977D02*
X173081904Y-124424643D01*
X172281904Y-124691310D01*
X173005714Y-125415120D02*
X173043809Y-125377024D01*
X173081904Y-125262739D01*
X173081904Y-125186548D01*
X173043809Y-125072262D01*
X172967619Y-124996072D01*
X172891428Y-124957977D01*
X172739047Y-124919881D01*
X172624761Y-124919881D01*
X172472380Y-124957977D01*
X172396190Y-124996072D01*
X172320000Y-125072262D01*
X172281904Y-125186548D01*
X172281904Y-125262739D01*
X172320000Y-125377024D01*
X172358095Y-125415120D01*
X173005714Y-126215120D02*
X173043809Y-126177024D01*
X173081904Y-126062739D01*
X173081904Y-125986548D01*
X173043809Y-125872262D01*
X172967619Y-125796072D01*
X172891428Y-125757977D01*
X172739047Y-125719881D01*
X172624761Y-125719881D01*
X172472380Y-125757977D01*
X172396190Y-125796072D01*
X172320000Y-125872262D01*
X172281904Y-125986548D01*
X172281904Y-126062739D01*
X172320000Y-126177024D01*
X172358095Y-126215120D01*
X174860000Y-124538929D02*
X174821904Y-124462739D01*
X174821904Y-124348453D01*
X174860000Y-124234167D01*
X174936190Y-124157977D01*
X175012380Y-124119881D01*
X175164761Y-124081786D01*
X175279047Y-124081786D01*
X175431428Y-124119881D01*
X175507619Y-124157977D01*
X175583809Y-124234167D01*
X175621904Y-124348453D01*
X175621904Y-124424643D01*
X175583809Y-124538929D01*
X175545714Y-124577024D01*
X175279047Y-124577024D01*
X175279047Y-124424643D01*
X175621904Y-124919881D02*
X174821904Y-124919881D01*
X175621904Y-125377024D01*
X174821904Y-125377024D01*
X175621904Y-125757977D02*
X174821904Y-125757977D01*
X174821904Y-125948453D01*
X174860000Y-126062739D01*
X174936190Y-126138929D01*
X175012380Y-126177024D01*
X175164761Y-126215120D01*
X175279047Y-126215120D01*
X175431428Y-126177024D01*
X175507619Y-126138929D01*
X175583809Y-126062739D01*
X175621904Y-125948453D01*
X175621904Y-125757977D01*
X177361904Y-124234167D02*
X178161904Y-124500834D01*
X177361904Y-124767501D01*
X178123809Y-124996072D02*
X178161904Y-125110358D01*
X178161904Y-125300834D01*
X178123809Y-125377024D01*
X178085714Y-125415120D01*
X178009523Y-125453215D01*
X177933333Y-125453215D01*
X177857142Y-125415120D01*
X177819047Y-125377024D01*
X177780952Y-125300834D01*
X177742857Y-125148453D01*
X177704761Y-125072262D01*
X177666666Y-125034167D01*
X177590476Y-124996072D01*
X177514285Y-124996072D01*
X177438095Y-125034167D01*
X177400000Y-125072262D01*
X177361904Y-125148453D01*
X177361904Y-125338929D01*
X177400000Y-125453215D01*
X178123809Y-125757977D02*
X178161904Y-125872262D01*
X178161904Y-126062739D01*
X178123809Y-126138929D01*
X178085714Y-126177024D01*
X178009523Y-126215120D01*
X177933333Y-126215120D01*
X177857142Y-126177024D01*
X177819047Y-126138929D01*
X177780952Y-126062739D01*
X177742857Y-125910358D01*
X177704761Y-125834167D01*
X177666666Y-125796072D01*
X177590476Y-125757977D01*
X177514285Y-125757977D01*
X177438095Y-125796072D01*
X177400000Y-125834167D01*
X177361904Y-125910358D01*
X177361904Y-126100834D01*
X177400000Y-126215120D01*
X111332309Y-107271904D02*
X111065642Y-108071904D01*
X110798976Y-107271904D01*
X110189452Y-108071904D02*
X110189452Y-107652857D01*
X110227547Y-107576666D01*
X110303738Y-107538571D01*
X110456119Y-107538571D01*
X110532309Y-107576666D01*
X110189452Y-108033809D02*
X110265642Y-108071904D01*
X110456119Y-108071904D01*
X110532309Y-108033809D01*
X110570404Y-107957619D01*
X110570404Y-107881428D01*
X110532309Y-107805238D01*
X110456119Y-107767142D01*
X110265642Y-107767142D01*
X110189452Y-107729047D01*
X109694214Y-108071904D02*
X109770404Y-108033809D01*
X109808500Y-107957619D01*
X109808500Y-107271904D01*
X109046595Y-107538571D02*
X109046595Y-108071904D01*
X109389452Y-107538571D02*
X109389452Y-107957619D01*
X109351357Y-108033809D01*
X109275166Y-108071904D01*
X109160880Y-108071904D01*
X109084690Y-108033809D01*
X109046595Y-107995714D01*
X108360880Y-108033809D02*
X108437071Y-108071904D01*
X108589452Y-108071904D01*
X108665642Y-108033809D01*
X108703738Y-107957619D01*
X108703738Y-107652857D01*
X108665642Y-107576666D01*
X108589452Y-107538571D01*
X108437071Y-107538571D01*
X108360880Y-107576666D01*
X108322785Y-107652857D01*
X108322785Y-107729047D01*
X108703738Y-107805238D01*
X111065642Y-108621904D02*
X110989452Y-108621904D01*
X110913261Y-108660000D01*
X110875166Y-108698095D01*
X110837071Y-108774285D01*
X110798976Y-108926666D01*
X110798976Y-109117142D01*
X110837071Y-109269523D01*
X110875166Y-109345714D01*
X110913261Y-109383809D01*
X110989452Y-109421904D01*
X111065642Y-109421904D01*
X111141833Y-109383809D01*
X111179928Y-109345714D01*
X111218023Y-109269523D01*
X111256119Y-109117142D01*
X111256119Y-108926666D01*
X111218023Y-108774285D01*
X111179928Y-108698095D01*
X111141833Y-108660000D01*
X111065642Y-108621904D01*
X110456119Y-109345714D02*
X110418023Y-109383809D01*
X110456119Y-109421904D01*
X110494214Y-109383809D01*
X110456119Y-109345714D01*
X110456119Y-109421904D01*
X110113261Y-108698095D02*
X110075166Y-108660000D01*
X109998976Y-108621904D01*
X109808500Y-108621904D01*
X109732309Y-108660000D01*
X109694214Y-108698095D01*
X109656119Y-108774285D01*
X109656119Y-108850476D01*
X109694214Y-108964761D01*
X110151357Y-109421904D01*
X109656119Y-109421904D01*
X109351357Y-108698095D02*
X109313261Y-108660000D01*
X109237071Y-108621904D01*
X109046595Y-108621904D01*
X108970404Y-108660000D01*
X108932309Y-108698095D01*
X108894214Y-108774285D01*
X108894214Y-108850476D01*
X108932309Y-108964761D01*
X109389452Y-109421904D01*
X108894214Y-109421904D01*
X108551357Y-108888571D02*
X108551357Y-109688571D01*
X108170404Y-109307619D02*
X108132309Y-109383809D01*
X108056119Y-109421904D01*
X108551357Y-109307619D02*
X108513261Y-109383809D01*
X108437071Y-109421904D01*
X108284690Y-109421904D01*
X108208500Y-109383809D01*
X108170404Y-109307619D01*
X108170404Y-108888571D01*
X107446595Y-109002857D02*
X107713261Y-109002857D01*
X107713261Y-109421904D02*
X107713261Y-108621904D01*
X107332309Y-108621904D01*
X111256119Y-110048095D02*
X111218023Y-110010000D01*
X111141833Y-109971904D01*
X110951357Y-109971904D01*
X110875166Y-110010000D01*
X110837071Y-110048095D01*
X110798976Y-110124285D01*
X110798976Y-110200476D01*
X110837071Y-110314761D01*
X111294214Y-110771904D01*
X110798976Y-110771904D01*
X110494214Y-110048095D02*
X110456119Y-110010000D01*
X110379928Y-109971904D01*
X110189452Y-109971904D01*
X110113261Y-110010000D01*
X110075166Y-110048095D01*
X110037071Y-110124285D01*
X110037071Y-110200476D01*
X110075166Y-110314761D01*
X110532309Y-110771904D01*
X110037071Y-110771904D01*
X109694214Y-110238571D02*
X109694214Y-111038571D01*
X109313261Y-110657619D02*
X109275166Y-110733809D01*
X109198976Y-110771904D01*
X109694214Y-110657619D02*
X109656119Y-110733809D01*
X109579928Y-110771904D01*
X109427547Y-110771904D01*
X109351357Y-110733809D01*
X109313261Y-110657619D01*
X109313261Y-110238571D01*
X108589452Y-110352857D02*
X108856119Y-110352857D01*
X108856119Y-110771904D02*
X108856119Y-109971904D01*
X108475166Y-109971904D01*
X111065642Y-111321904D02*
X110989452Y-111321904D01*
X110913261Y-111360000D01*
X110875166Y-111398095D01*
X110837071Y-111474285D01*
X110798976Y-111626666D01*
X110798976Y-111817142D01*
X110837071Y-111969523D01*
X110875166Y-112045714D01*
X110913261Y-112083809D01*
X110989452Y-112121904D01*
X111065642Y-112121904D01*
X111141833Y-112083809D01*
X111179928Y-112045714D01*
X111218023Y-111969523D01*
X111256119Y-111817142D01*
X111256119Y-111626666D01*
X111218023Y-111474285D01*
X111179928Y-111398095D01*
X111141833Y-111360000D01*
X111065642Y-111321904D01*
X110456119Y-112045714D02*
X110418023Y-112083809D01*
X110456119Y-112121904D01*
X110494214Y-112083809D01*
X110456119Y-112045714D01*
X110456119Y-112121904D01*
X109656119Y-112121904D02*
X110113261Y-112121904D01*
X109884690Y-112121904D02*
X109884690Y-111321904D01*
X109960880Y-111436190D01*
X110037071Y-111512380D01*
X110113261Y-111550476D01*
X109313261Y-111588571D02*
X109313261Y-112388571D01*
X108932309Y-112007619D02*
X108894214Y-112083809D01*
X108818023Y-112121904D01*
X109313261Y-112007619D02*
X109275166Y-112083809D01*
X109198976Y-112121904D01*
X109046595Y-112121904D01*
X108970404Y-112083809D01*
X108932309Y-112007619D01*
X108932309Y-111588571D01*
X108208500Y-111702857D02*
X108475166Y-111702857D01*
X108475166Y-112121904D02*
X108475166Y-111321904D01*
X108094214Y-111321904D01*
X111256119Y-112748095D02*
X111218023Y-112710000D01*
X111141833Y-112671904D01*
X110951357Y-112671904D01*
X110875166Y-112710000D01*
X110837071Y-112748095D01*
X110798976Y-112824285D01*
X110798976Y-112900476D01*
X110837071Y-113014761D01*
X111294214Y-113471904D01*
X110798976Y-113471904D01*
X110494214Y-112748095D02*
X110456119Y-112710000D01*
X110379928Y-112671904D01*
X110189452Y-112671904D01*
X110113261Y-112710000D01*
X110075166Y-112748095D01*
X110037071Y-112824285D01*
X110037071Y-112900476D01*
X110075166Y-113014761D01*
X110532309Y-113471904D01*
X110037071Y-113471904D01*
X109694214Y-113471904D02*
X109694214Y-112671904D01*
X109618023Y-113167142D02*
X109389452Y-113471904D01*
X109389452Y-112938571D02*
X109694214Y-113243333D01*
X108475166Y-113471904D02*
X108284690Y-113471904D01*
X108284690Y-113319523D01*
X108360880Y-113281428D01*
X108437071Y-113205238D01*
X108475166Y-113090952D01*
X108475166Y-112900476D01*
X108437071Y-112786190D01*
X108360880Y-112710000D01*
X108246595Y-112671904D01*
X108094214Y-112671904D01*
X107979928Y-112710000D01*
X107903738Y-112786190D01*
X107865642Y-112900476D01*
X107865642Y-113090952D01*
X107903738Y-113205238D01*
X107979928Y-113281428D01*
X108056119Y-113319523D01*
X108056119Y-113471904D01*
X107865642Y-113471904D01*
X111256119Y-114098095D02*
X111218023Y-114060000D01*
X111141833Y-114021904D01*
X110951357Y-114021904D01*
X110875166Y-114060000D01*
X110837071Y-114098095D01*
X110798976Y-114174285D01*
X110798976Y-114250476D01*
X110837071Y-114364761D01*
X111294214Y-114821904D01*
X110798976Y-114821904D01*
X110494214Y-114098095D02*
X110456119Y-114060000D01*
X110379928Y-114021904D01*
X110189452Y-114021904D01*
X110113261Y-114060000D01*
X110075166Y-114098095D01*
X110037071Y-114174285D01*
X110037071Y-114250476D01*
X110075166Y-114364761D01*
X110532309Y-114821904D01*
X110037071Y-114821904D01*
X109541833Y-114021904D02*
X109465642Y-114021904D01*
X109389452Y-114060000D01*
X109351357Y-114098095D01*
X109313261Y-114174285D01*
X109275166Y-114326666D01*
X109275166Y-114517142D01*
X109313261Y-114669523D01*
X109351357Y-114745714D01*
X109389452Y-114783809D01*
X109465642Y-114821904D01*
X109541833Y-114821904D01*
X109618023Y-114783809D01*
X109656119Y-114745714D01*
X109694214Y-114669523D01*
X109732309Y-114517142D01*
X109732309Y-114326666D01*
X109694214Y-114174285D01*
X109656119Y-114098095D01*
X109618023Y-114060000D01*
X109541833Y-114021904D01*
X108360880Y-114821904D02*
X108170404Y-114821904D01*
X108170404Y-114669523D01*
X108246595Y-114631428D01*
X108322785Y-114555238D01*
X108360880Y-114440952D01*
X108360880Y-114250476D01*
X108322785Y-114136190D01*
X108246595Y-114060000D01*
X108132309Y-114021904D01*
X107979928Y-114021904D01*
X107865642Y-114060000D01*
X107789452Y-114136190D01*
X107751357Y-114250476D01*
X107751357Y-114440952D01*
X107789452Y-114555238D01*
X107865642Y-114631428D01*
X107941833Y-114669523D01*
X107941833Y-114821904D01*
X107751357Y-114821904D01*
X111256119Y-115448095D02*
X111218023Y-115410000D01*
X111141833Y-115371904D01*
X110951357Y-115371904D01*
X110875166Y-115410000D01*
X110837071Y-115448095D01*
X110798976Y-115524285D01*
X110798976Y-115600476D01*
X110837071Y-115714761D01*
X111294214Y-116171904D01*
X110798976Y-116171904D01*
X110113261Y-115638571D02*
X110113261Y-116171904D01*
X110303738Y-115333809D02*
X110494214Y-115905238D01*
X109998976Y-115905238D01*
X109808500Y-115371904D02*
X109541833Y-116171904D01*
X109275166Y-115371904D01*
X109008500Y-115867142D02*
X108398976Y-115867142D01*
X108018023Y-115638571D02*
X107408500Y-115867142D01*
X108018023Y-116095714D01*
X106646595Y-115371904D02*
X107027547Y-115371904D01*
X107065642Y-115752857D01*
X107027547Y-115714761D01*
X106951357Y-115676666D01*
X106760880Y-115676666D01*
X106684690Y-115714761D01*
X106646595Y-115752857D01*
X106608500Y-115829047D01*
X106608500Y-116019523D01*
X106646595Y-116095714D01*
X106684690Y-116133809D01*
X106760880Y-116171904D01*
X106951357Y-116171904D01*
X107027547Y-116133809D01*
X107065642Y-116095714D01*
X106379928Y-115371904D02*
X106113261Y-116171904D01*
X105846595Y-115371904D01*
X108839000Y-89662000D02*
X109093000Y-89662000D01*
X108331000Y-89662000D02*
X108585000Y-89662000D01*
X107823000Y-89662000D02*
X108077000Y-89662000D01*
X109093000Y-89281000D02*
X107823000Y-89281000D01*
D12*
X114935000Y-116865400D02*
X105800000Y-116865400D01*
X115544600Y-107289600D02*
X115544600Y-116230400D01*
X105800000Y-106680000D02*
X114909600Y-106680000D01*
X166370000Y-92202000D02*
X166370000Y-103251000D01*
X165862000Y-95504000D02*
G75*
G03X166370000Y-94996000I0J508000D01*
G01*
X186182000Y-95504000D02*
G75*
G03X186690000Y-94996000I0J508000D01*
G01*
X186690000Y-92202000D02*
X186690000Y-94996000D01*
X149098000Y-95504000D02*
X165862000Y-95504000D01*
X148082000Y-95504000D02*
X141224000Y-95504000D01*
X148590000Y-94996000D02*
X148590000Y-91948000D01*
X140716000Y-94996000D02*
X140716000Y-92202000D01*
X148590000Y-94996000D02*
G75*
G03X149098000Y-95504000I508000J0D01*
G01*
X148082000Y-95504000D02*
G75*
G03X148590000Y-94996000I0J508000D01*
G01*
X140716000Y-94996000D02*
G75*
G03X141224000Y-95504000I508000J0D01*
G01*
D10*
X115505904Y-88860380D02*
X115172571Y-89860380D01*
X114839238Y-88860380D01*
X114505904Y-89860380D02*
X114505904Y-88860380D01*
X114029714Y-89860380D02*
X114029714Y-88860380D01*
X113458285Y-89860380D01*
X113458285Y-88860380D01*
X112982095Y-89765142D02*
X112934476Y-89812761D01*
X112982095Y-89860380D01*
X113029714Y-89812761D01*
X112982095Y-89765142D01*
X112982095Y-89860380D01*
X112982095Y-89241333D02*
X112934476Y-89288952D01*
X112982095Y-89336571D01*
X113029714Y-89288952D01*
X112982095Y-89241333D01*
X112982095Y-89336571D01*
X111791619Y-88955619D02*
X111744000Y-88908000D01*
X111648761Y-88860380D01*
X111410666Y-88860380D01*
X111315428Y-88908000D01*
X111267809Y-88955619D01*
X111220190Y-89050857D01*
X111220190Y-89146095D01*
X111267809Y-89288952D01*
X111839238Y-89860380D01*
X111220190Y-89860380D01*
X110363047Y-89193714D02*
X110363047Y-89860380D01*
X110601142Y-88812761D02*
X110839238Y-89527047D01*
X110220190Y-89527047D01*
X109982095Y-88860380D02*
X109648761Y-89860380D01*
X109315428Y-88860380D01*
X106934476Y-89860380D02*
X107505904Y-89860380D01*
X107220190Y-89860380D02*
X107220190Y-88860380D01*
X107315428Y-89003238D01*
X107410666Y-89098476D01*
X107505904Y-89146095D01*
X106553523Y-89574666D02*
X106077333Y-89574666D01*
X106648761Y-89860380D02*
X106315428Y-88860380D01*
X105982095Y-89860380D01*
X108331000Y-91567000D02*
X107315000Y-91567000D01*
X109523031Y-91007728D02*
G75*
G03X109492000Y-92166000I-421031J-568272D01*
G01*
X111633000Y-91821000D02*
X111633000Y-91313000D01*
X106553000Y-91567000D02*
X106045000Y-91567000D01*
X111379000Y-91567000D02*
X111887000Y-91567000D01*
X109501000Y-91567000D02*
X110617000Y-91567000D01*
X109452210Y-91567000D02*
G75*
G03X109452210Y-91567000I-359210J0D01*
G01*
D12*
X148590000Y-92075000D02*
X148590000Y-89535000D01*
X141986000Y-88900000D02*
G75*
G03X140716000Y-90170000I0J-1270000D01*
G01*
X147320000Y-88900000D02*
X147955000Y-88900000D01*
X149860000Y-88900000D02*
X149225000Y-88900000D01*
X148590000Y-89535000D02*
G75*
G03X147955000Y-88900000I-635000J0D01*
G01*
X149225000Y-88900000D02*
G75*
G03X148590000Y-89535000I0J-635000D01*
G01*
X166370000Y-89535000D02*
G75*
G03X165735000Y-88900000I-635000J0D01*
G01*
X167005000Y-88900000D02*
G75*
G03X166370000Y-89535000I0J-635000D01*
G01*
X165100000Y-88900000D02*
X165735000Y-88900000D01*
X167640000Y-88900000D02*
X167005000Y-88900000D01*
X166370000Y-92075000D02*
X166370000Y-89535000D01*
X186690000Y-90170000D02*
G75*
G03X185420000Y-88900000I-1270000J0D01*
G01*
D10*
X155073333Y-90807261D02*
X155073333Y-91188214D01*
X155301904Y-90731071D02*
X154501904Y-90997738D01*
X155301904Y-91264404D01*
X154501904Y-91683452D02*
X154501904Y-91759642D01*
X154540000Y-91835833D01*
X154578095Y-91873928D01*
X154654285Y-91912023D01*
X154806666Y-91950119D01*
X154997142Y-91950119D01*
X155149523Y-91912023D01*
X155225714Y-91873928D01*
X155263809Y-91835833D01*
X155301904Y-91759642D01*
X155301904Y-91683452D01*
X155263809Y-91607261D01*
X155225714Y-91569166D01*
X155149523Y-91531071D01*
X154997142Y-91492976D01*
X154806666Y-91492976D01*
X154654285Y-91531071D01*
X154578095Y-91569166D01*
X154540000Y-91607261D01*
X154501904Y-91683452D01*
D12*
X141986000Y-88900000D02*
X142875000Y-88900000D01*
X140716000Y-92075000D02*
X140716000Y-90170000D01*
X147320000Y-88900000D02*
X146685000Y-88900000D01*
D10*
X145931309Y-89515904D02*
X145931309Y-88715904D01*
X145626547Y-88715904D01*
X145550357Y-88754000D01*
X145512261Y-88792095D01*
X145474166Y-88868285D01*
X145474166Y-88982571D01*
X145512261Y-89058761D01*
X145550357Y-89096857D01*
X145626547Y-89134952D01*
X145931309Y-89134952D01*
X145207500Y-88715904D02*
X145017023Y-89515904D01*
X144864642Y-88944476D01*
X144712261Y-89515904D01*
X144521785Y-88715904D01*
X143759880Y-89515904D02*
X144026547Y-89134952D01*
X144217023Y-89515904D02*
X144217023Y-88715904D01*
X143912261Y-88715904D01*
X143836071Y-88754000D01*
X143797976Y-88792095D01*
X143759880Y-88868285D01*
X143759880Y-88982571D01*
X143797976Y-89058761D01*
X143836071Y-89096857D01*
X143912261Y-89134952D01*
X144217023Y-89134952D01*
D12*
X186690000Y-90170000D02*
X186690000Y-92075000D01*
X179324000Y-88900000D02*
X185420000Y-88900000D01*
X167640000Y-88900000D02*
X172974000Y-88900000D01*
X160020000Y-88900000D02*
X165100000Y-88900000D01*
X149860000Y-88900000D02*
X155575000Y-88900000D01*
D10*
X178036642Y-89439714D02*
X178074738Y-89477809D01*
X178189023Y-89515904D01*
X178265214Y-89515904D01*
X178379500Y-89477809D01*
X178455690Y-89401619D01*
X178493785Y-89325428D01*
X178531880Y-89173047D01*
X178531880Y-89058761D01*
X178493785Y-88906380D01*
X178455690Y-88830190D01*
X178379500Y-88754000D01*
X178265214Y-88715904D01*
X178189023Y-88715904D01*
X178074738Y-88754000D01*
X178036642Y-88792095D01*
X177579500Y-89515904D02*
X177655690Y-89477809D01*
X177693785Y-89439714D01*
X177731880Y-89363523D01*
X177731880Y-89134952D01*
X177693785Y-89058761D01*
X177655690Y-89020666D01*
X177579500Y-88982571D01*
X177465214Y-88982571D01*
X177389023Y-89020666D01*
X177350928Y-89058761D01*
X177312833Y-89134952D01*
X177312833Y-89363523D01*
X177350928Y-89439714D01*
X177389023Y-89477809D01*
X177465214Y-89515904D01*
X177579500Y-89515904D01*
X176855690Y-89515904D02*
X176931880Y-89477809D01*
X176969976Y-89401619D01*
X176969976Y-88715904D01*
X176208071Y-88982571D02*
X176208071Y-89515904D01*
X176550928Y-88982571D02*
X176550928Y-89401619D01*
X176512833Y-89477809D01*
X176436642Y-89515904D01*
X176322357Y-89515904D01*
X176246166Y-89477809D01*
X176208071Y-89439714D01*
X175827119Y-89515904D02*
X175827119Y-88982571D01*
X175827119Y-89058761D02*
X175789023Y-89020666D01*
X175712833Y-88982571D01*
X175598547Y-88982571D01*
X175522357Y-89020666D01*
X175484261Y-89096857D01*
X175484261Y-89515904D01*
X175484261Y-89096857D02*
X175446166Y-89020666D01*
X175369976Y-88982571D01*
X175255690Y-88982571D01*
X175179500Y-89020666D01*
X175141404Y-89096857D01*
X175141404Y-89515904D01*
X174760452Y-88982571D02*
X174760452Y-89515904D01*
X174760452Y-89058761D02*
X174722357Y-89020666D01*
X174646166Y-88982571D01*
X174531880Y-88982571D01*
X174455690Y-89020666D01*
X174417595Y-89096857D01*
X174417595Y-89515904D01*
X174074738Y-89477809D02*
X173998547Y-89515904D01*
X173846166Y-89515904D01*
X173769976Y-89477809D01*
X173731880Y-89401619D01*
X173731880Y-89363523D01*
X173769976Y-89287333D01*
X173846166Y-89249238D01*
X173960452Y-89249238D01*
X174036642Y-89211142D01*
X174074738Y-89134952D01*
X174074738Y-89096857D01*
X174036642Y-89020666D01*
X173960452Y-88982571D01*
X173846166Y-88982571D01*
X173769976Y-89020666D01*
X158669404Y-89515904D02*
X158936071Y-89134952D01*
X159126547Y-89515904D02*
X159126547Y-88715904D01*
X158821785Y-88715904D01*
X158745595Y-88754000D01*
X158707500Y-88792095D01*
X158669404Y-88868285D01*
X158669404Y-88982571D01*
X158707500Y-89058761D01*
X158745595Y-89096857D01*
X158821785Y-89134952D01*
X159126547Y-89134952D01*
X158212261Y-89515904D02*
X158288452Y-89477809D01*
X158326547Y-89439714D01*
X158364642Y-89363523D01*
X158364642Y-89134952D01*
X158326547Y-89058761D01*
X158288452Y-89020666D01*
X158212261Y-88982571D01*
X158097976Y-88982571D01*
X158021785Y-89020666D01*
X157983690Y-89058761D01*
X157945595Y-89134952D01*
X157945595Y-89363523D01*
X157983690Y-89439714D01*
X158021785Y-89477809D01*
X158097976Y-89515904D01*
X158212261Y-89515904D01*
X157678928Y-88982571D02*
X157526547Y-89515904D01*
X157374166Y-89134952D01*
X157221785Y-89515904D01*
X157069404Y-88982571D01*
X156802738Y-89477809D02*
X156726547Y-89515904D01*
X156574166Y-89515904D01*
X156497976Y-89477809D01*
X156459880Y-89401619D01*
X156459880Y-89363523D01*
X156497976Y-89287333D01*
X156574166Y-89249238D01*
X156688452Y-89249238D01*
X156764642Y-89211142D01*
X156802738Y-89134952D01*
X156802738Y-89096857D01*
X156764642Y-89020666D01*
X156688452Y-88982571D01*
X156574166Y-88982571D01*
X156497976Y-89020666D01*
X185362857Y-90997738D02*
X185400952Y-91112023D01*
X185439047Y-91150119D01*
X185515238Y-91188214D01*
X185629523Y-91188214D01*
X185705714Y-91150119D01*
X185743809Y-91112023D01*
X185781904Y-91035833D01*
X185781904Y-90731071D01*
X184981904Y-90731071D01*
X184981904Y-90997738D01*
X185020000Y-91073928D01*
X185058095Y-91112023D01*
X185134285Y-91150119D01*
X185210476Y-91150119D01*
X185286666Y-91112023D01*
X185324761Y-91073928D01*
X185362857Y-90997738D01*
X185362857Y-90731071D01*
X185781904Y-91950119D02*
X185781904Y-91492976D01*
X185781904Y-91721547D02*
X184981904Y-91721547D01*
X185096190Y-91645357D01*
X185172380Y-91569166D01*
X185210476Y-91492976D01*
X180473333Y-90807261D02*
X180473333Y-91188214D01*
X180701904Y-90731071D02*
X179901904Y-90997738D01*
X180701904Y-91264404D01*
X179978095Y-91492976D02*
X179940000Y-91531071D01*
X179901904Y-91607261D01*
X179901904Y-91797738D01*
X179940000Y-91873928D01*
X179978095Y-91912023D01*
X180054285Y-91950119D01*
X180130476Y-91950119D01*
X180244761Y-91912023D01*
X180701904Y-91454880D01*
X180701904Y-91950119D01*
X165042857Y-90997738D02*
X165080952Y-91112023D01*
X165119047Y-91150119D01*
X165195238Y-91188214D01*
X165309523Y-91188214D01*
X165385714Y-91150119D01*
X165423809Y-91112023D01*
X165461904Y-91035833D01*
X165461904Y-90731071D01*
X164661904Y-90731071D01*
X164661904Y-90997738D01*
X164700000Y-91073928D01*
X164738095Y-91112023D01*
X164814285Y-91150119D01*
X164890476Y-91150119D01*
X164966666Y-91112023D01*
X165004761Y-91073928D01*
X165042857Y-90997738D01*
X165042857Y-90731071D01*
X165461904Y-91950119D02*
X165461904Y-91492976D01*
X165461904Y-91721547D02*
X164661904Y-91721547D01*
X164776190Y-91645357D01*
X164852380Y-91569166D01*
X164890476Y-91492976D01*
X162502857Y-90997738D02*
X162540952Y-91112023D01*
X162579047Y-91150119D01*
X162655238Y-91188214D01*
X162769523Y-91188214D01*
X162845714Y-91150119D01*
X162883809Y-91112023D01*
X162921904Y-91035833D01*
X162921904Y-90731071D01*
X162121904Y-90731071D01*
X162121904Y-90997738D01*
X162160000Y-91073928D01*
X162198095Y-91112023D01*
X162274285Y-91150119D01*
X162350476Y-91150119D01*
X162426666Y-91112023D01*
X162464761Y-91073928D01*
X162502857Y-90997738D01*
X162502857Y-90731071D01*
X162121904Y-91683452D02*
X162121904Y-91759642D01*
X162160000Y-91835833D01*
X162198095Y-91873928D01*
X162274285Y-91912023D01*
X162426666Y-91950119D01*
X162617142Y-91950119D01*
X162769523Y-91912023D01*
X162845714Y-91873928D01*
X162883809Y-91835833D01*
X162921904Y-91759642D01*
X162921904Y-91683452D01*
X162883809Y-91607261D01*
X162845714Y-91569166D01*
X162769523Y-91531071D01*
X162617142Y-91492976D01*
X162426666Y-91492976D01*
X162274285Y-91531071D01*
X162198095Y-91569166D01*
X162160000Y-91607261D01*
X162121904Y-91683452D01*
X182822857Y-90997738D02*
X182860952Y-91112023D01*
X182899047Y-91150119D01*
X182975238Y-91188214D01*
X183089523Y-91188214D01*
X183165714Y-91150119D01*
X183203809Y-91112023D01*
X183241904Y-91035833D01*
X183241904Y-90731071D01*
X182441904Y-90731071D01*
X182441904Y-90997738D01*
X182480000Y-91073928D01*
X182518095Y-91112023D01*
X182594285Y-91150119D01*
X182670476Y-91150119D01*
X182746666Y-91112023D01*
X182784761Y-91073928D01*
X182822857Y-90997738D01*
X182822857Y-90731071D01*
X182441904Y-91683452D02*
X182441904Y-91759642D01*
X182480000Y-91835833D01*
X182518095Y-91873928D01*
X182594285Y-91912023D01*
X182746666Y-91950119D01*
X182937142Y-91950119D01*
X183089523Y-91912023D01*
X183165714Y-91873928D01*
X183203809Y-91835833D01*
X183241904Y-91759642D01*
X183241904Y-91683452D01*
X183203809Y-91607261D01*
X183165714Y-91569166D01*
X183089523Y-91531071D01*
X182937142Y-91492976D01*
X182746666Y-91492976D01*
X182594285Y-91531071D01*
X182518095Y-91569166D01*
X182480000Y-91607261D01*
X182441904Y-91683452D01*
X177933333Y-90807261D02*
X177933333Y-91188214D01*
X178161904Y-90731071D02*
X177361904Y-90997738D01*
X178161904Y-91264404D01*
X178161904Y-91950119D02*
X178161904Y-91492976D01*
X178161904Y-91721547D02*
X177361904Y-91721547D01*
X177476190Y-91645357D01*
X177552380Y-91569166D01*
X177590476Y-91492976D01*
X175393333Y-90807261D02*
X175393333Y-91188214D01*
X175621904Y-90731071D02*
X174821904Y-90997738D01*
X175621904Y-91264404D01*
X174821904Y-91683452D02*
X174821904Y-91759642D01*
X174860000Y-91835833D01*
X174898095Y-91873928D01*
X174974285Y-91912023D01*
X175126666Y-91950119D01*
X175317142Y-91950119D01*
X175469523Y-91912023D01*
X175545714Y-91873928D01*
X175583809Y-91835833D01*
X175621904Y-91759642D01*
X175621904Y-91683452D01*
X175583809Y-91607261D01*
X175545714Y-91569166D01*
X175469523Y-91531071D01*
X175317142Y-91492976D01*
X175126666Y-91492976D01*
X174974285Y-91531071D01*
X174898095Y-91569166D01*
X174860000Y-91607261D01*
X174821904Y-91683452D01*
X173081904Y-89514023D02*
X172281904Y-89514023D01*
X172281904Y-89704500D01*
X172320000Y-89818785D01*
X172396190Y-89894976D01*
X172472380Y-89933071D01*
X172624761Y-89971166D01*
X172739047Y-89971166D01*
X172891428Y-89933071D01*
X172967619Y-89894976D01*
X173043809Y-89818785D01*
X173081904Y-89704500D01*
X173081904Y-89514023D01*
X172853333Y-90275928D02*
X172853333Y-90656880D01*
X173081904Y-90199738D02*
X172281904Y-90466404D01*
X173081904Y-90733071D01*
X172281904Y-90885452D02*
X172281904Y-91342595D01*
X173081904Y-91114023D02*
X172281904Y-91114023D01*
X172853333Y-91571166D02*
X172853333Y-91952119D01*
X173081904Y-91494976D02*
X172281904Y-91761642D01*
X173081904Y-92028309D01*
X170122857Y-90159642D02*
X170122857Y-90426309D01*
X170541904Y-90540595D02*
X170541904Y-90159642D01*
X169741904Y-90159642D01*
X169741904Y-90540595D01*
X170618095Y-90692976D02*
X170618095Y-91302500D01*
X170541904Y-91492976D02*
X169741904Y-91492976D01*
X169741904Y-91683452D01*
X169780000Y-91797738D01*
X169856190Y-91873928D01*
X169932380Y-91912023D01*
X170084761Y-91950119D01*
X170199047Y-91950119D01*
X170351428Y-91912023D01*
X170427619Y-91873928D01*
X170503809Y-91797738D01*
X170541904Y-91683452D01*
X170541904Y-91492976D01*
X167582857Y-90273928D02*
X167582857Y-90540595D01*
X168001904Y-90654880D02*
X168001904Y-90273928D01*
X167201904Y-90273928D01*
X167201904Y-90654880D01*
X168078095Y-90807261D02*
X168078095Y-91416785D01*
X167773333Y-91569166D02*
X167773333Y-91950119D01*
X168001904Y-91492976D02*
X167201904Y-91759642D01*
X168001904Y-92026309D01*
X160153333Y-90807261D02*
X160153333Y-91188214D01*
X160381904Y-90731071D02*
X159581904Y-90997738D01*
X160381904Y-91264404D01*
X159658095Y-91492976D02*
X159620000Y-91531071D01*
X159581904Y-91607261D01*
X159581904Y-91797738D01*
X159620000Y-91873928D01*
X159658095Y-91912023D01*
X159734285Y-91950119D01*
X159810476Y-91950119D01*
X159924761Y-91912023D01*
X160381904Y-91454880D01*
X160381904Y-91950119D01*
X157613333Y-90807261D02*
X157613333Y-91188214D01*
X157841904Y-90731071D02*
X157041904Y-90997738D01*
X157841904Y-91264404D01*
X157841904Y-91950119D02*
X157841904Y-91492976D01*
X157841904Y-91721547D02*
X157041904Y-91721547D01*
X157156190Y-91645357D01*
X157232380Y-91569166D01*
X157270476Y-91492976D01*
X152761904Y-89512023D02*
X151961904Y-89512023D01*
X151961904Y-89702500D01*
X152000000Y-89816785D01*
X152076190Y-89892976D01*
X152152380Y-89931071D01*
X152304761Y-89969166D01*
X152419047Y-89969166D01*
X152571428Y-89931071D01*
X152647619Y-89892976D01*
X152723809Y-89816785D01*
X152761904Y-89702500D01*
X152761904Y-89512023D01*
X152533333Y-90273928D02*
X152533333Y-90654880D01*
X152761904Y-90197738D02*
X151961904Y-90464404D01*
X152761904Y-90731071D01*
X151961904Y-90883452D02*
X151961904Y-91340595D01*
X152761904Y-91112023D02*
X151961904Y-91112023D01*
X152533333Y-91569166D02*
X152533333Y-91950119D01*
X152761904Y-91492976D02*
X151961904Y-91759642D01*
X152761904Y-92026309D01*
X149802857Y-91569166D02*
X149802857Y-91835833D01*
X150221904Y-91950119D02*
X150221904Y-91569166D01*
X149421904Y-91569166D01*
X149421904Y-91950119D01*
X146881904Y-90273928D02*
X147681904Y-90540595D01*
X146881904Y-90807261D01*
X147681904Y-91073928D02*
X146881904Y-91073928D01*
X147681904Y-91454880D02*
X146881904Y-91454880D01*
X147681904Y-91912023D01*
X146881904Y-91912023D01*
X144341904Y-91226309D02*
X144341904Y-90845357D01*
X144722857Y-90807261D01*
X144684761Y-90845357D01*
X144646666Y-90921547D01*
X144646666Y-91112023D01*
X144684761Y-91188214D01*
X144722857Y-91226309D01*
X144799047Y-91264404D01*
X144989523Y-91264404D01*
X145065714Y-91226309D01*
X145103809Y-91188214D01*
X145141904Y-91112023D01*
X145141904Y-90921547D01*
X145103809Y-90845357D01*
X145065714Y-90807261D01*
X144341904Y-91492976D02*
X145141904Y-91759642D01*
X144341904Y-92026309D01*
X141840000Y-90273928D02*
X141801904Y-90197738D01*
X141801904Y-90083452D01*
X141840000Y-89969166D01*
X141916190Y-89892976D01*
X141992380Y-89854880D01*
X142144761Y-89816785D01*
X142259047Y-89816785D01*
X142411428Y-89854880D01*
X142487619Y-89892976D01*
X142563809Y-89969166D01*
X142601904Y-90083452D01*
X142601904Y-90159642D01*
X142563809Y-90273928D01*
X142525714Y-90312023D01*
X142259047Y-90312023D01*
X142259047Y-90159642D01*
X142601904Y-90654880D02*
X141801904Y-90654880D01*
X142601904Y-91112023D01*
X141801904Y-91112023D01*
X142601904Y-91492976D02*
X141801904Y-91492976D01*
X141801904Y-91683452D01*
X141840000Y-91797738D01*
X141916190Y-91873928D01*
X141992380Y-91912023D01*
X142144761Y-91950119D01*
X142259047Y-91950119D01*
X142411428Y-91912023D01*
X142487619Y-91873928D01*
X142563809Y-91797738D01*
X142601904Y-91683452D01*
X142601904Y-91492976D01*
X114647023Y-108071904D02*
X114647023Y-107271904D01*
X114342261Y-107271904D01*
X114266071Y-107310000D01*
X114227976Y-107348095D01*
X114189880Y-107424285D01*
X114189880Y-107538571D01*
X114227976Y-107614761D01*
X114266071Y-107652857D01*
X114342261Y-107690952D01*
X114647023Y-107690952D01*
X113504166Y-108071904D02*
X113504166Y-107652857D01*
X113542261Y-107576666D01*
X113618452Y-107538571D01*
X113770833Y-107538571D01*
X113847023Y-107576666D01*
X113504166Y-108033809D02*
X113580357Y-108071904D01*
X113770833Y-108071904D01*
X113847023Y-108033809D01*
X113885119Y-107957619D01*
X113885119Y-107881428D01*
X113847023Y-107805238D01*
X113770833Y-107767142D01*
X113580357Y-107767142D01*
X113504166Y-107729047D01*
X113123214Y-108071904D02*
X113123214Y-107538571D01*
X113123214Y-107690952D02*
X113085119Y-107614761D01*
X113047023Y-107576666D01*
X112970833Y-107538571D01*
X112894642Y-107538571D01*
X112742261Y-107538571D02*
X112437500Y-107538571D01*
X112627976Y-107271904D02*
X112627976Y-107957619D01*
X112589880Y-108033809D01*
X112513690Y-108071904D01*
X112437500Y-108071904D01*
X114189880Y-109345714D02*
X114227976Y-109383809D01*
X114342261Y-109421904D01*
X114418452Y-109421904D01*
X114532738Y-109383809D01*
X114608928Y-109307619D01*
X114647023Y-109231428D01*
X114685119Y-109079047D01*
X114685119Y-108964761D01*
X114647023Y-108812380D01*
X114608928Y-108736190D01*
X114532738Y-108660000D01*
X114418452Y-108621904D01*
X114342261Y-108621904D01*
X114227976Y-108660000D01*
X114189880Y-108698095D01*
X113427976Y-109421904D02*
X113885119Y-109421904D01*
X113656547Y-109421904D02*
X113656547Y-108621904D01*
X113732738Y-108736190D01*
X113808928Y-108812380D01*
X113885119Y-108850476D01*
X114189880Y-110695714D02*
X114227976Y-110733809D01*
X114342261Y-110771904D01*
X114418452Y-110771904D01*
X114532738Y-110733809D01*
X114608928Y-110657619D01*
X114647023Y-110581428D01*
X114685119Y-110429047D01*
X114685119Y-110314761D01*
X114647023Y-110162380D01*
X114608928Y-110086190D01*
X114532738Y-110010000D01*
X114418452Y-109971904D01*
X114342261Y-109971904D01*
X114227976Y-110010000D01*
X114189880Y-110048095D01*
X113885119Y-110048095D02*
X113847023Y-110010000D01*
X113770833Y-109971904D01*
X113580357Y-109971904D01*
X113504166Y-110010000D01*
X113466071Y-110048095D01*
X113427976Y-110124285D01*
X113427976Y-110200476D01*
X113466071Y-110314761D01*
X113923214Y-110771904D01*
X113427976Y-110771904D01*
X114189880Y-112045714D02*
X114227976Y-112083809D01*
X114342261Y-112121904D01*
X114418452Y-112121904D01*
X114532738Y-112083809D01*
X114608928Y-112007619D01*
X114647023Y-111931428D01*
X114685119Y-111779047D01*
X114685119Y-111664761D01*
X114647023Y-111512380D01*
X114608928Y-111436190D01*
X114532738Y-111360000D01*
X114418452Y-111321904D01*
X114342261Y-111321904D01*
X114227976Y-111360000D01*
X114189880Y-111398095D01*
X113923214Y-111321904D02*
X113427976Y-111321904D01*
X113694642Y-111626666D01*
X113580357Y-111626666D01*
X113504166Y-111664761D01*
X113466071Y-111702857D01*
X113427976Y-111779047D01*
X113427976Y-111969523D01*
X113466071Y-112045714D01*
X113504166Y-112083809D01*
X113580357Y-112121904D01*
X113808928Y-112121904D01*
X113885119Y-112083809D01*
X113923214Y-112045714D01*
X114189880Y-113471904D02*
X114456547Y-113090952D01*
X114647023Y-113471904D02*
X114647023Y-112671904D01*
X114342261Y-112671904D01*
X114266071Y-112710000D01*
X114227976Y-112748095D01*
X114189880Y-112824285D01*
X114189880Y-112938571D01*
X114227976Y-113014761D01*
X114266071Y-113052857D01*
X114342261Y-113090952D01*
X114647023Y-113090952D01*
X113427976Y-113471904D02*
X113885119Y-113471904D01*
X113656547Y-113471904D02*
X113656547Y-112671904D01*
X113732738Y-112786190D01*
X113808928Y-112862380D01*
X113885119Y-112900476D01*
X114189880Y-114821904D02*
X114456547Y-114440952D01*
X114647023Y-114821904D02*
X114647023Y-114021904D01*
X114342261Y-114021904D01*
X114266071Y-114060000D01*
X114227976Y-114098095D01*
X114189880Y-114174285D01*
X114189880Y-114288571D01*
X114227976Y-114364761D01*
X114266071Y-114402857D01*
X114342261Y-114440952D01*
X114647023Y-114440952D01*
X113885119Y-114098095D02*
X113847023Y-114060000D01*
X113770833Y-114021904D01*
X113580357Y-114021904D01*
X113504166Y-114060000D01*
X113466071Y-114098095D01*
X113427976Y-114174285D01*
X113427976Y-114250476D01*
X113466071Y-114364761D01*
X113923214Y-114821904D01*
X113427976Y-114821904D01*
X114647023Y-115371904D02*
X114647023Y-116019523D01*
X114608928Y-116095714D01*
X114570833Y-116133809D01*
X114494642Y-116171904D01*
X114342261Y-116171904D01*
X114266071Y-116133809D01*
X114227976Y-116095714D01*
X114189880Y-116019523D01*
X114189880Y-115371904D01*
X113389880Y-116171904D02*
X113847023Y-116171904D01*
X113618452Y-116171904D02*
X113618452Y-115371904D01*
X113694642Y-115486190D01*
X113770833Y-115562380D01*
X113847023Y-115600476D01*
M02*
