G04 #@! TF.GenerationSoftware,KiCad,Pcbnew,(5.0.0-rc3-dev)*
G04 #@! TF.CreationDate,2019-04-27T01:24:41+02:00*
G04 #@! TF.ProjectId,Lawo 28x13 Interface,4C61776F20323878313320496E746572,1.1.1*
G04 #@! TF.SameCoordinates,Original*
G04 #@! TF.FileFunction,Legend,Top*
G04 #@! TF.FilePolarity,Positive*
%FSLAX46Y46*%
G04 Gerber Fmt 4.6, Leading zero omitted, Abs format (unit mm)*
G04 Created by KiCad (PCBNEW (5.0.0-rc3-dev)) date 2019 April 27, Saturday 01:24:41*
%MOMM*%
%LPD*%
G01*
G04 APERTURE LIST*
%ADD10C,0.150000*%
%ADD11C,0.200000*%
%ADD12C,0.120000*%
%ADD13C,0.381000*%
%ADD14C,0.254000*%
%ADD15C,0.304800*%
%ADD16C,0.299720*%
%ADD17C,0.203200*%
G04 APERTURE END LIST*
D10*
X167900476Y-97351809D02*
X167824285Y-97389904D01*
X167671904Y-97389904D01*
X167595714Y-97351809D01*
X167557619Y-97275619D01*
X167557619Y-96970857D01*
X167595714Y-96894666D01*
X167671904Y-96856571D01*
X167824285Y-96856571D01*
X167900476Y-96894666D01*
X167938571Y-96970857D01*
X167938571Y-97047047D01*
X167557619Y-97123238D01*
X168205238Y-97389904D02*
X168624285Y-96856571D01*
X168205238Y-96856571D02*
X168624285Y-97389904D01*
X168814761Y-96856571D02*
X169119523Y-96856571D01*
X168929047Y-96589904D02*
X168929047Y-97275619D01*
X168967142Y-97351809D01*
X169043333Y-97389904D01*
X169119523Y-97389904D01*
X169386190Y-97389904D02*
X169386190Y-96856571D01*
X169386190Y-97008952D02*
X169424285Y-96932761D01*
X169462380Y-96894666D01*
X169538571Y-96856571D01*
X169614761Y-96856571D01*
X170224285Y-97389904D02*
X170224285Y-96970857D01*
X170186190Y-96894666D01*
X170110000Y-96856571D01*
X169957619Y-96856571D01*
X169881428Y-96894666D01*
X170224285Y-97351809D02*
X170148095Y-97389904D01*
X169957619Y-97389904D01*
X169881428Y-97351809D01*
X169843333Y-97275619D01*
X169843333Y-97199428D01*
X169881428Y-97123238D01*
X169957619Y-97085142D01*
X170148095Y-97085142D01*
X170224285Y-97047047D01*
D11*
X171450000Y-97282000D02*
X171450000Y-95885000D01*
X166370000Y-97282000D02*
X166370000Y-95885000D01*
X115570000Y-133350000D02*
X115570000Y-125730000D01*
X171450000Y-133350000D02*
X171450000Y-125730000D01*
X158750000Y-133350000D02*
X158750000Y-125730000D01*
X156210000Y-133350000D02*
X156210000Y-125730000D01*
X155574459Y-135440702D02*
X130886199Y-135440702D01*
D10*
X117238095Y-135553404D02*
X116971428Y-135172452D01*
X116780952Y-135553404D02*
X116780952Y-134753404D01*
X117085714Y-134753404D01*
X117161904Y-134791500D01*
X117200000Y-134829595D01*
X117238095Y-134905785D01*
X117238095Y-135020071D01*
X117200000Y-135096261D01*
X117161904Y-135134357D01*
X117085714Y-135172452D01*
X116780952Y-135172452D01*
X117695238Y-135553404D02*
X117619047Y-135515309D01*
X117580952Y-135477214D01*
X117542857Y-135401023D01*
X117542857Y-135172452D01*
X117580952Y-135096261D01*
X117619047Y-135058166D01*
X117695238Y-135020071D01*
X117809523Y-135020071D01*
X117885714Y-135058166D01*
X117923809Y-135096261D01*
X117961904Y-135172452D01*
X117961904Y-135401023D01*
X117923809Y-135477214D01*
X117885714Y-135515309D01*
X117809523Y-135553404D01*
X117695238Y-135553404D01*
X118228571Y-135020071D02*
X118380952Y-135553404D01*
X118533333Y-135172452D01*
X118685714Y-135553404D01*
X118838095Y-135020071D01*
X119104761Y-135515309D02*
X119180952Y-135553404D01*
X119333333Y-135553404D01*
X119409523Y-135515309D01*
X119447619Y-135439119D01*
X119447619Y-135401023D01*
X119409523Y-135324833D01*
X119333333Y-135286738D01*
X119219047Y-135286738D01*
X119142857Y-135248642D01*
X119104761Y-135172452D01*
X119104761Y-135134357D01*
X119142857Y-135058166D01*
X119219047Y-135020071D01*
X119333333Y-135020071D01*
X119409523Y-135058166D01*
D11*
X120751600Y-135458200D02*
X120040400Y-135458200D01*
X155574459Y-135440702D02*
G75*
G03X156209459Y-134805702I0J635000D01*
G01*
X156210000Y-134785100D02*
X156210000Y-134366000D01*
X115569459Y-134818402D02*
X115570000Y-134340600D01*
X115569459Y-134818402D02*
G75*
G03X116204459Y-135453402I635000J0D01*
G01*
X158750000Y-134810500D02*
G75*
G03X159385000Y-135445500I635000J0D01*
G01*
X171450000Y-134366000D02*
X171450000Y-134810500D01*
X158750000Y-134366000D02*
X158750000Y-134810500D01*
X161988500Y-135445500D02*
X159385000Y-135445500D01*
X170815000Y-135445500D02*
X168148000Y-135445500D01*
X170815000Y-135445500D02*
G75*
G03X171450000Y-134810500I0J635000D01*
G01*
D10*
X163148857Y-135477214D02*
X163110761Y-135515309D01*
X162996476Y-135553404D01*
X162920285Y-135553404D01*
X162806000Y-135515309D01*
X162729809Y-135439119D01*
X162691714Y-135362928D01*
X162653619Y-135210547D01*
X162653619Y-135096261D01*
X162691714Y-134943880D01*
X162729809Y-134867690D01*
X162806000Y-134791500D01*
X162920285Y-134753404D01*
X162996476Y-134753404D01*
X163110761Y-134791500D01*
X163148857Y-134829595D01*
X163606000Y-135553404D02*
X163529809Y-135515309D01*
X163491714Y-135477214D01*
X163453619Y-135401023D01*
X163453619Y-135172452D01*
X163491714Y-135096261D01*
X163529809Y-135058166D01*
X163606000Y-135020071D01*
X163720285Y-135020071D01*
X163796476Y-135058166D01*
X163834571Y-135096261D01*
X163872666Y-135172452D01*
X163872666Y-135401023D01*
X163834571Y-135477214D01*
X163796476Y-135515309D01*
X163720285Y-135553404D01*
X163606000Y-135553404D01*
X164329809Y-135553404D02*
X164253619Y-135515309D01*
X164215523Y-135439119D01*
X164215523Y-134753404D01*
X164977428Y-135020071D02*
X164977428Y-135553404D01*
X164634571Y-135020071D02*
X164634571Y-135439119D01*
X164672666Y-135515309D01*
X164748857Y-135553404D01*
X164863142Y-135553404D01*
X164939333Y-135515309D01*
X164977428Y-135477214D01*
X165358380Y-135553404D02*
X165358380Y-135020071D01*
X165358380Y-135096261D02*
X165396476Y-135058166D01*
X165472666Y-135020071D01*
X165586952Y-135020071D01*
X165663142Y-135058166D01*
X165701238Y-135134357D01*
X165701238Y-135553404D01*
X165701238Y-135134357D02*
X165739333Y-135058166D01*
X165815523Y-135020071D01*
X165929809Y-135020071D01*
X166006000Y-135058166D01*
X166044095Y-135134357D01*
X166044095Y-135553404D01*
X166425047Y-135020071D02*
X166425047Y-135553404D01*
X166425047Y-135096261D02*
X166463142Y-135058166D01*
X166539333Y-135020071D01*
X166653619Y-135020071D01*
X166729809Y-135058166D01*
X166767904Y-135134357D01*
X166767904Y-135553404D01*
X167110761Y-135515309D02*
X167186952Y-135553404D01*
X167339333Y-135553404D01*
X167415523Y-135515309D01*
X167453619Y-135439119D01*
X167453619Y-135401023D01*
X167415523Y-135324833D01*
X167339333Y-135286738D01*
X167225047Y-135286738D01*
X167148857Y-135248642D01*
X167110761Y-135172452D01*
X167110761Y-135134357D01*
X167148857Y-135058166D01*
X167225047Y-135020071D01*
X167339333Y-135020071D01*
X167415523Y-135058166D01*
X141819403Y-134498185D02*
X141819403Y-134879137D01*
X142200356Y-134917232D01*
X142162260Y-134879137D01*
X142124165Y-134802947D01*
X142124165Y-134612470D01*
X142162260Y-134536280D01*
X142200356Y-134498185D01*
X142276546Y-134460089D01*
X142467022Y-134460089D01*
X142543213Y-134498185D01*
X142581308Y-134536280D01*
X142619403Y-134612470D01*
X142619403Y-134802947D01*
X142581308Y-134879137D01*
X142543213Y-134917232D01*
X139279403Y-134536280D02*
X139279403Y-134688661D01*
X139317499Y-134764851D01*
X139355594Y-134802947D01*
X139469879Y-134879137D01*
X139622260Y-134917232D01*
X139927022Y-134917232D01*
X140003213Y-134879137D01*
X140041308Y-134841042D01*
X140079403Y-134764851D01*
X140079403Y-134612470D01*
X140041308Y-134536280D01*
X140003213Y-134498185D01*
X139927022Y-134460089D01*
X139736546Y-134460089D01*
X139660356Y-134498185D01*
X139622260Y-134536280D01*
X139584165Y-134612470D01*
X139584165Y-134764851D01*
X139622260Y-134841042D01*
X139660356Y-134879137D01*
X139736546Y-134917232D01*
X146899403Y-134955328D02*
X146899403Y-134460089D01*
X147204165Y-134726756D01*
X147204165Y-134612470D01*
X147242260Y-134536280D01*
X147280356Y-134498185D01*
X147356546Y-134460089D01*
X147547022Y-134460089D01*
X147623213Y-134498185D01*
X147661308Y-134536280D01*
X147699403Y-134612470D01*
X147699403Y-134841042D01*
X147661308Y-134917232D01*
X147623213Y-134955328D01*
X152779403Y-134460089D02*
X152779403Y-134917232D01*
X152779403Y-134688661D02*
X151979403Y-134688661D01*
X152093689Y-134764851D01*
X152169879Y-134841042D01*
X152207975Y-134917232D01*
X134542260Y-134764851D02*
X134504165Y-134841042D01*
X134466070Y-134879137D01*
X134389879Y-134917232D01*
X134351784Y-134917232D01*
X134275594Y-134879137D01*
X134237499Y-134841042D01*
X134199403Y-134764851D01*
X134199403Y-134612470D01*
X134237499Y-134536280D01*
X134275594Y-134498185D01*
X134351784Y-134460089D01*
X134389879Y-134460089D01*
X134466070Y-134498185D01*
X134504165Y-134536280D01*
X134542260Y-134612470D01*
X134542260Y-134764851D01*
X134580356Y-134841042D01*
X134618451Y-134879137D01*
X134694641Y-134917232D01*
X134847022Y-134917232D01*
X134923213Y-134879137D01*
X134961308Y-134841042D01*
X134999403Y-134764851D01*
X134999403Y-134612470D01*
X134961308Y-134536280D01*
X134923213Y-134498185D01*
X134847022Y-134460089D01*
X134694641Y-134460089D01*
X134618451Y-134498185D01*
X134580356Y-134536280D01*
X134542260Y-134612470D01*
X132459403Y-134841042D02*
X132459403Y-134688661D01*
X132421308Y-134612470D01*
X132383213Y-134574375D01*
X132268927Y-134498185D01*
X132116546Y-134460089D01*
X131811784Y-134460089D01*
X131735594Y-134498185D01*
X131697499Y-134536280D01*
X131659403Y-134612470D01*
X131659403Y-134764851D01*
X131697499Y-134841042D01*
X131735594Y-134879137D01*
X131811784Y-134917232D01*
X132002260Y-134917232D01*
X132078451Y-134879137D01*
X132116546Y-134841042D01*
X132154641Y-134764851D01*
X132154641Y-134612470D01*
X132116546Y-134536280D01*
X132078451Y-134498185D01*
X132002260Y-134460089D01*
X122299403Y-135221994D02*
X122299403Y-135679137D01*
X122299403Y-135450566D02*
X121499403Y-135450566D01*
X121613689Y-135526756D01*
X121689879Y-135602947D01*
X121727975Y-135679137D01*
X121499403Y-134955328D02*
X121499403Y-134460089D01*
X121804165Y-134726756D01*
X121804165Y-134612470D01*
X121842260Y-134536280D01*
X121880356Y-134498185D01*
X121956546Y-134460089D01*
X122147022Y-134460089D01*
X122223213Y-134498185D01*
X122261308Y-134536280D01*
X122299403Y-134612470D01*
X122299403Y-134841042D01*
X122261308Y-134917232D01*
X122223213Y-134955328D01*
X149515594Y-134917232D02*
X149477499Y-134879137D01*
X149439403Y-134802947D01*
X149439403Y-134612470D01*
X149477499Y-134536280D01*
X149515594Y-134498185D01*
X149591784Y-134460089D01*
X149667975Y-134460089D01*
X149782260Y-134498185D01*
X150239403Y-134955328D01*
X150239403Y-134460089D01*
X127379403Y-135221994D02*
X127379403Y-135679137D01*
X127379403Y-135450566D02*
X126579403Y-135450566D01*
X126693689Y-135526756D01*
X126769879Y-135602947D01*
X126807975Y-135679137D01*
X127379403Y-134460089D02*
X127379403Y-134917232D01*
X127379403Y-134688661D02*
X126579403Y-134688661D01*
X126693689Y-134764851D01*
X126769879Y-134841042D01*
X126807975Y-134917232D01*
X136739403Y-134955328D02*
X136739403Y-134421994D01*
X137539403Y-134764851D01*
X129919403Y-135221994D02*
X129919403Y-135679137D01*
X129919403Y-135450566D02*
X129119403Y-135450566D01*
X129233689Y-135526756D01*
X129309879Y-135602947D01*
X129347975Y-135679137D01*
X129119403Y-134726756D02*
X129119403Y-134650566D01*
X129157499Y-134574375D01*
X129195594Y-134536280D01*
X129271784Y-134498185D01*
X129424165Y-134460089D01*
X129614641Y-134460089D01*
X129767022Y-134498185D01*
X129843213Y-134536280D01*
X129881308Y-134574375D01*
X129919403Y-134650566D01*
X129919403Y-134726756D01*
X129881308Y-134802947D01*
X129843213Y-134841042D01*
X129767022Y-134879137D01*
X129614641Y-134917232D01*
X129424165Y-134917232D01*
X129271784Y-134879137D01*
X129195594Y-134841042D01*
X129157499Y-134802947D01*
X129119403Y-134726756D01*
X144626070Y-134536280D02*
X145159403Y-134536280D01*
X144321308Y-134726756D02*
X144892737Y-134917232D01*
X144892737Y-134421994D01*
X124839403Y-135221994D02*
X124839403Y-135679137D01*
X124839403Y-135450566D02*
X124039403Y-135450566D01*
X124153689Y-135526756D01*
X124229879Y-135602947D01*
X124267975Y-135679137D01*
X124115594Y-134917232D02*
X124077499Y-134879137D01*
X124039403Y-134802947D01*
X124039403Y-134612470D01*
X124077499Y-134536280D01*
X124115594Y-134498185D01*
X124191784Y-134460089D01*
X124267975Y-134460089D01*
X124382260Y-134498185D01*
X124839403Y-134955328D01*
X124839403Y-134460089D01*
D11*
X166370000Y-103251000D02*
X166370000Y-100965000D01*
X166370000Y-103251000D02*
G75*
G03X167005000Y-103886000I635000J0D01*
G01*
X170815000Y-103886000D02*
X167005000Y-103886000D01*
X171450000Y-103251000D02*
X171450000Y-100965000D01*
X170815000Y-103886000D02*
G75*
G03X171450000Y-103251000I0J635000D01*
G01*
D10*
X170122857Y-103090023D02*
X170122857Y-102823357D01*
X170541904Y-102709071D02*
X170541904Y-103090023D01*
X169741904Y-103090023D01*
X169741904Y-102709071D01*
X170008571Y-102442404D02*
X170008571Y-102023357D01*
X170541904Y-102442404D01*
X170541904Y-102023357D01*
X170541904Y-101261452D02*
X170160952Y-101528119D01*
X170541904Y-101718595D02*
X169741904Y-101718595D01*
X169741904Y-101413833D01*
X169780000Y-101337642D01*
X169818095Y-101299547D01*
X169894285Y-101261452D01*
X170008571Y-101261452D01*
X170084761Y-101299547D01*
X170122857Y-101337642D01*
X170160952Y-101413833D01*
X170160952Y-101718595D01*
X167582857Y-103051927D02*
X167582857Y-102785261D01*
X168001904Y-102670975D02*
X168001904Y-103051927D01*
X167201904Y-103051927D01*
X167201904Y-102670975D01*
X167468571Y-102404308D02*
X168001904Y-102213832D01*
X167468571Y-102023356D02*
X168001904Y-102213832D01*
X168192380Y-102290023D01*
X168230476Y-102328118D01*
X168268571Y-102404308D01*
X168001904Y-101261451D02*
X167620952Y-101528118D01*
X168001904Y-101718594D02*
X167201904Y-101718594D01*
X167201904Y-101413832D01*
X167240000Y-101337642D01*
X167278095Y-101299546D01*
X167354285Y-101261451D01*
X167468571Y-101261451D01*
X167544761Y-101299546D01*
X167582857Y-101337642D01*
X167620952Y-101413832D01*
X167620952Y-101718594D01*
X106413466Y-89860380D02*
X106413466Y-88860380D01*
X106794419Y-88860380D01*
X106889657Y-88908000D01*
X106937276Y-88955619D01*
X106984895Y-89050857D01*
X106984895Y-89193714D01*
X106937276Y-89288952D01*
X106889657Y-89336571D01*
X106794419Y-89384190D01*
X106413466Y-89384190D01*
X107318228Y-88860380D02*
X107556323Y-89860380D01*
X107746800Y-89146095D01*
X107937276Y-89860380D01*
X108175371Y-88860380D01*
X109127752Y-89860380D02*
X108794419Y-89384190D01*
X108556323Y-89860380D02*
X108556323Y-88860380D01*
X108937276Y-88860380D01*
X109032514Y-88908000D01*
X109080133Y-88955619D01*
X109127752Y-89050857D01*
X109127752Y-89193714D01*
X109080133Y-89288952D01*
X109032514Y-89336571D01*
X108937276Y-89384190D01*
X108556323Y-89384190D01*
X124238095Y-90622380D02*
X124238095Y-89622380D01*
X124619047Y-89622380D01*
X124714285Y-89670000D01*
X124761904Y-89717619D01*
X124809523Y-89812857D01*
X124809523Y-89955714D01*
X124761904Y-90050952D01*
X124714285Y-90098571D01*
X124619047Y-90146190D01*
X124238095Y-90146190D01*
X125142857Y-89622380D02*
X125380952Y-90622380D01*
X125571428Y-89908095D01*
X125761904Y-90622380D01*
X126000000Y-89622380D01*
X126952380Y-90622380D02*
X126619047Y-90146190D01*
X126380952Y-90622380D02*
X126380952Y-89622380D01*
X126761904Y-89622380D01*
X126857142Y-89670000D01*
X126904761Y-89717619D01*
X126952380Y-89812857D01*
X126952380Y-89955714D01*
X126904761Y-90050952D01*
X126857142Y-90098571D01*
X126761904Y-90146190D01*
X126380952Y-90146190D01*
X127142857Y-90717619D02*
X127904761Y-90717619D01*
X128095238Y-90574761D02*
X128238095Y-90622380D01*
X128476190Y-90622380D01*
X128571428Y-90574761D01*
X128619047Y-90527142D01*
X128666666Y-90431904D01*
X128666666Y-90336666D01*
X128619047Y-90241428D01*
X128571428Y-90193809D01*
X128476190Y-90146190D01*
X128285714Y-90098571D01*
X128190476Y-90050952D01*
X128142857Y-90003333D01*
X128095238Y-89908095D01*
X128095238Y-89812857D01*
X128142857Y-89717619D01*
X128190476Y-89670000D01*
X128285714Y-89622380D01*
X128523809Y-89622380D01*
X128666666Y-89670000D01*
X129000000Y-89622380D02*
X129238095Y-90622380D01*
X129428571Y-89908095D01*
X129619047Y-90622380D01*
X129857142Y-89622380D01*
D11*
X186690000Y-90170000D02*
G75*
G03X185420000Y-88900000I-1270000J0D01*
G01*
X166370000Y-89535000D02*
G75*
G03X165735000Y-88900000I-635000J0D01*
G01*
X167005000Y-88900000D02*
G75*
G03X166370000Y-89535000I0J-635000D01*
G01*
X165100000Y-88900000D02*
X165735000Y-88900000D01*
X167640000Y-88900000D02*
X167005000Y-88900000D01*
X166370000Y-89535000D02*
X166370000Y-92075000D01*
X149225000Y-88900000D02*
X149860000Y-88900000D01*
X147955000Y-88900000D02*
X147320000Y-88900000D01*
X148590000Y-89535000D02*
X148590000Y-92075000D01*
X149225000Y-88900000D02*
G75*
G03X148590000Y-89535000I0J-635000D01*
G01*
X148590000Y-89535000D02*
G75*
G03X147955000Y-88900000I-635000J0D01*
G01*
X141986000Y-88900000D02*
G75*
G03X140716000Y-90170000I0J-1270000D01*
G01*
D10*
X160153333Y-91952119D02*
X160153333Y-91571166D01*
X160381904Y-92028309D02*
X159581904Y-91761642D01*
X160381904Y-91494976D01*
X159658095Y-91266404D02*
X159620000Y-91228309D01*
X159581904Y-91152119D01*
X159581904Y-90961642D01*
X159620000Y-90885452D01*
X159658095Y-90847357D01*
X159734285Y-90809261D01*
X159810476Y-90809261D01*
X159924761Y-90847357D01*
X160381904Y-91304500D01*
X160381904Y-90809261D01*
D11*
X141986000Y-88900000D02*
X142875000Y-88900000D01*
X140716000Y-92075000D02*
X140716000Y-90170000D01*
X147320000Y-88900000D02*
X146685000Y-88900000D01*
D10*
X143797976Y-89515904D02*
X143797976Y-88715904D01*
X144102738Y-88715904D01*
X144178928Y-88754000D01*
X144217023Y-88792095D01*
X144255119Y-88868285D01*
X144255119Y-88982571D01*
X144217023Y-89058761D01*
X144178928Y-89096857D01*
X144102738Y-89134952D01*
X143797976Y-89134952D01*
X144521785Y-88715904D02*
X144712261Y-89515904D01*
X144864642Y-88944476D01*
X145017023Y-89515904D01*
X145207500Y-88715904D01*
X145969404Y-89515904D02*
X145702738Y-89134952D01*
X145512261Y-89515904D02*
X145512261Y-88715904D01*
X145817023Y-88715904D01*
X145893214Y-88754000D01*
X145931309Y-88792095D01*
X145969404Y-88868285D01*
X145969404Y-88982571D01*
X145931309Y-89058761D01*
X145893214Y-89096857D01*
X145817023Y-89134952D01*
X145512261Y-89134952D01*
D11*
X186690000Y-90170000D02*
X186690000Y-92075000D01*
X179324000Y-88900000D02*
X185420000Y-88900000D01*
X167640000Y-88900000D02*
X172974000Y-88900000D01*
X160020000Y-88900000D02*
X165100000Y-88900000D01*
X149860000Y-88900000D02*
X155575000Y-88900000D01*
D10*
X174227119Y-89439714D02*
X174189023Y-89477809D01*
X174074738Y-89515904D01*
X173998547Y-89515904D01*
X173884261Y-89477809D01*
X173808071Y-89401619D01*
X173769976Y-89325428D01*
X173731880Y-89173047D01*
X173731880Y-89058761D01*
X173769976Y-88906380D01*
X173808071Y-88830190D01*
X173884261Y-88754000D01*
X173998547Y-88715904D01*
X174074738Y-88715904D01*
X174189023Y-88754000D01*
X174227119Y-88792095D01*
X174684261Y-89515904D02*
X174608071Y-89477809D01*
X174569976Y-89439714D01*
X174531880Y-89363523D01*
X174531880Y-89134952D01*
X174569976Y-89058761D01*
X174608071Y-89020666D01*
X174684261Y-88982571D01*
X174798547Y-88982571D01*
X174874738Y-89020666D01*
X174912833Y-89058761D01*
X174950928Y-89134952D01*
X174950928Y-89363523D01*
X174912833Y-89439714D01*
X174874738Y-89477809D01*
X174798547Y-89515904D01*
X174684261Y-89515904D01*
X175408071Y-89515904D02*
X175331880Y-89477809D01*
X175293785Y-89401619D01*
X175293785Y-88715904D01*
X176055690Y-88982571D02*
X176055690Y-89515904D01*
X175712833Y-88982571D02*
X175712833Y-89401619D01*
X175750928Y-89477809D01*
X175827119Y-89515904D01*
X175941404Y-89515904D01*
X176017595Y-89477809D01*
X176055690Y-89439714D01*
X176436642Y-89515904D02*
X176436642Y-88982571D01*
X176436642Y-89058761D02*
X176474738Y-89020666D01*
X176550928Y-88982571D01*
X176665214Y-88982571D01*
X176741404Y-89020666D01*
X176779500Y-89096857D01*
X176779500Y-89515904D01*
X176779500Y-89096857D02*
X176817595Y-89020666D01*
X176893785Y-88982571D01*
X177008071Y-88982571D01*
X177084261Y-89020666D01*
X177122357Y-89096857D01*
X177122357Y-89515904D01*
X177503309Y-88982571D02*
X177503309Y-89515904D01*
X177503309Y-89058761D02*
X177541404Y-89020666D01*
X177617595Y-88982571D01*
X177731880Y-88982571D01*
X177808071Y-89020666D01*
X177846166Y-89096857D01*
X177846166Y-89515904D01*
X178189023Y-89477809D02*
X178265214Y-89515904D01*
X178417595Y-89515904D01*
X178493785Y-89477809D01*
X178531880Y-89401619D01*
X178531880Y-89363523D01*
X178493785Y-89287333D01*
X178417595Y-89249238D01*
X178303309Y-89249238D01*
X178227119Y-89211142D01*
X178189023Y-89134952D01*
X178189023Y-89096857D01*
X178227119Y-89020666D01*
X178303309Y-88982571D01*
X178417595Y-88982571D01*
X178493785Y-89020666D01*
X156955119Y-89515904D02*
X156688452Y-89134952D01*
X156497976Y-89515904D02*
X156497976Y-88715904D01*
X156802738Y-88715904D01*
X156878928Y-88754000D01*
X156917023Y-88792095D01*
X156955119Y-88868285D01*
X156955119Y-88982571D01*
X156917023Y-89058761D01*
X156878928Y-89096857D01*
X156802738Y-89134952D01*
X156497976Y-89134952D01*
X157412261Y-89515904D02*
X157336071Y-89477809D01*
X157297976Y-89439714D01*
X157259880Y-89363523D01*
X157259880Y-89134952D01*
X157297976Y-89058761D01*
X157336071Y-89020666D01*
X157412261Y-88982571D01*
X157526547Y-88982571D01*
X157602738Y-89020666D01*
X157640833Y-89058761D01*
X157678928Y-89134952D01*
X157678928Y-89363523D01*
X157640833Y-89439714D01*
X157602738Y-89477809D01*
X157526547Y-89515904D01*
X157412261Y-89515904D01*
X157945595Y-88982571D02*
X158097976Y-89515904D01*
X158250357Y-89134952D01*
X158402738Y-89515904D01*
X158555119Y-88982571D01*
X158821785Y-89477809D02*
X158897976Y-89515904D01*
X159050357Y-89515904D01*
X159126547Y-89477809D01*
X159164642Y-89401619D01*
X159164642Y-89363523D01*
X159126547Y-89287333D01*
X159050357Y-89249238D01*
X158936071Y-89249238D01*
X158859880Y-89211142D01*
X158821785Y-89134952D01*
X158821785Y-89096857D01*
X158859880Y-89020666D01*
X158936071Y-88982571D01*
X159050357Y-88982571D01*
X159126547Y-89020666D01*
X170122857Y-91914023D02*
X170122857Y-91647357D01*
X170541904Y-91533071D02*
X170541904Y-91914023D01*
X169741904Y-91914023D01*
X169741904Y-91533071D01*
X170541904Y-91075928D02*
X170503809Y-91152119D01*
X170465714Y-91190214D01*
X170389523Y-91228309D01*
X170160952Y-91228309D01*
X170084761Y-91190214D01*
X170046666Y-91152119D01*
X170008571Y-91075928D01*
X170008571Y-90961642D01*
X170046666Y-90885452D01*
X170084761Y-90847357D01*
X170160952Y-90809261D01*
X170389523Y-90809261D01*
X170465714Y-90847357D01*
X170503809Y-90885452D01*
X170541904Y-90961642D01*
X170541904Y-91075928D01*
X170541904Y-90009261D02*
X170160952Y-90275928D01*
X170541904Y-90466404D02*
X169741904Y-90466404D01*
X169741904Y-90161642D01*
X169780000Y-90085452D01*
X169818095Y-90047357D01*
X169894285Y-90009261D01*
X170008571Y-90009261D01*
X170084761Y-90047357D01*
X170122857Y-90085452D01*
X170160952Y-90161642D01*
X170160952Y-90466404D01*
X173081904Y-91914023D02*
X172281904Y-91914023D01*
X172281904Y-91723547D01*
X172320000Y-91609261D01*
X172396190Y-91533071D01*
X172472380Y-91494976D01*
X172624761Y-91456880D01*
X172739047Y-91456880D01*
X172891428Y-91494976D01*
X172967619Y-91533071D01*
X173043809Y-91609261D01*
X173081904Y-91723547D01*
X173081904Y-91914023D01*
X172853333Y-91152119D02*
X172853333Y-90771166D01*
X173081904Y-91228309D02*
X172281904Y-90961642D01*
X173081904Y-90694976D01*
X172281904Y-90542595D02*
X172281904Y-90085452D01*
X173081904Y-90314023D02*
X172281904Y-90314023D01*
X172853333Y-89856880D02*
X172853333Y-89475928D01*
X173081904Y-89933071D02*
X172281904Y-89666404D01*
X173081904Y-89399738D01*
X149802857Y-91914023D02*
X149802857Y-91647357D01*
X150221904Y-91533071D02*
X150221904Y-91914023D01*
X149421904Y-91914023D01*
X149421904Y-91533071D01*
X152761904Y-91914023D02*
X151961904Y-91914023D01*
X151961904Y-91723547D01*
X152000000Y-91609261D01*
X152076190Y-91533071D01*
X152152380Y-91494976D01*
X152304761Y-91456880D01*
X152419047Y-91456880D01*
X152571428Y-91494976D01*
X152647619Y-91533071D01*
X152723809Y-91609261D01*
X152761904Y-91723547D01*
X152761904Y-91914023D01*
X152533333Y-91152119D02*
X152533333Y-90771166D01*
X152761904Y-91228309D02*
X151961904Y-90961642D01*
X152761904Y-90694976D01*
X151961904Y-90542595D02*
X151961904Y-90085452D01*
X152761904Y-90314023D02*
X151961904Y-90314023D01*
X152533333Y-89856880D02*
X152533333Y-89475928D01*
X152761904Y-89933071D02*
X151961904Y-89666404D01*
X152761904Y-89399738D01*
X167582857Y-91914023D02*
X167582857Y-91647357D01*
X168001904Y-91533071D02*
X168001904Y-91914023D01*
X167201904Y-91914023D01*
X167201904Y-91533071D01*
X168001904Y-91190214D02*
X167468571Y-91190214D01*
X167544761Y-91190214D02*
X167506666Y-91152119D01*
X167468571Y-91075928D01*
X167468571Y-90961642D01*
X167506666Y-90885452D01*
X167582857Y-90847357D01*
X168001904Y-90847357D01*
X167582857Y-90847357D02*
X167506666Y-90809261D01*
X167468571Y-90733071D01*
X167468571Y-90618785D01*
X167506666Y-90542595D01*
X167582857Y-90504500D01*
X168001904Y-90504500D01*
X168001904Y-89666404D02*
X167620952Y-89933071D01*
X168001904Y-90123547D02*
X167201904Y-90123547D01*
X167201904Y-89818785D01*
X167240000Y-89742595D01*
X167278095Y-89704500D01*
X167354285Y-89666404D01*
X167468571Y-89666404D01*
X167544761Y-89704500D01*
X167582857Y-89742595D01*
X167620952Y-89818785D01*
X167620952Y-90123547D01*
X185362857Y-91647357D02*
X185400952Y-91533071D01*
X185439047Y-91494976D01*
X185515238Y-91456880D01*
X185629523Y-91456880D01*
X185705714Y-91494976D01*
X185743809Y-91533071D01*
X185781904Y-91609261D01*
X185781904Y-91914023D01*
X184981904Y-91914023D01*
X184981904Y-91647357D01*
X185020000Y-91571166D01*
X185058095Y-91533071D01*
X185134285Y-91494976D01*
X185210476Y-91494976D01*
X185286666Y-91533071D01*
X185324761Y-91571166D01*
X185362857Y-91647357D01*
X185362857Y-91914023D01*
X185781904Y-90694976D02*
X185781904Y-91152119D01*
X185781904Y-90923547D02*
X184981904Y-90923547D01*
X185096190Y-90999738D01*
X185172380Y-91075928D01*
X185210476Y-91152119D01*
X182822857Y-91647357D02*
X182860952Y-91533071D01*
X182899047Y-91494976D01*
X182975238Y-91456880D01*
X183089523Y-91456880D01*
X183165714Y-91494976D01*
X183203809Y-91533071D01*
X183241904Y-91609261D01*
X183241904Y-91914023D01*
X182441904Y-91914023D01*
X182441904Y-91647357D01*
X182480000Y-91571166D01*
X182518095Y-91533071D01*
X182594285Y-91494976D01*
X182670476Y-91494976D01*
X182746666Y-91533071D01*
X182784761Y-91571166D01*
X182822857Y-91647357D01*
X182822857Y-91914023D01*
X182441904Y-90961642D02*
X182441904Y-90885452D01*
X182480000Y-90809261D01*
X182518095Y-90771166D01*
X182594285Y-90733071D01*
X182746666Y-90694976D01*
X182937142Y-90694976D01*
X183089523Y-90733071D01*
X183165714Y-90771166D01*
X183203809Y-90809261D01*
X183241904Y-90885452D01*
X183241904Y-90961642D01*
X183203809Y-91037833D01*
X183165714Y-91075928D01*
X183089523Y-91114023D01*
X182937142Y-91152119D01*
X182746666Y-91152119D01*
X182594285Y-91114023D01*
X182518095Y-91075928D01*
X182480000Y-91037833D01*
X182441904Y-90961642D01*
X180473333Y-91952119D02*
X180473333Y-91571166D01*
X180701904Y-92028309D02*
X179901904Y-91761642D01*
X180701904Y-91494976D01*
X179978095Y-91266404D02*
X179940000Y-91228309D01*
X179901904Y-91152119D01*
X179901904Y-90961642D01*
X179940000Y-90885452D01*
X179978095Y-90847357D01*
X180054285Y-90809261D01*
X180130476Y-90809261D01*
X180244761Y-90847357D01*
X180701904Y-91304500D01*
X180701904Y-90809261D01*
X177933333Y-91952119D02*
X177933333Y-91571166D01*
X178161904Y-92028309D02*
X177361904Y-91761642D01*
X178161904Y-91494976D01*
X178161904Y-90809261D02*
X178161904Y-91266404D01*
X178161904Y-91037833D02*
X177361904Y-91037833D01*
X177476190Y-91114023D01*
X177552380Y-91190214D01*
X177590476Y-91266404D01*
X175393333Y-91952119D02*
X175393333Y-91571166D01*
X175621904Y-92028309D02*
X174821904Y-91761642D01*
X175621904Y-91494976D01*
X174821904Y-91075928D02*
X174821904Y-90999738D01*
X174860000Y-90923547D01*
X174898095Y-90885452D01*
X174974285Y-90847357D01*
X175126666Y-90809261D01*
X175317142Y-90809261D01*
X175469523Y-90847357D01*
X175545714Y-90885452D01*
X175583809Y-90923547D01*
X175621904Y-90999738D01*
X175621904Y-91075928D01*
X175583809Y-91152119D01*
X175545714Y-91190214D01*
X175469523Y-91228309D01*
X175317142Y-91266404D01*
X175126666Y-91266404D01*
X174974285Y-91228309D01*
X174898095Y-91190214D01*
X174860000Y-91152119D01*
X174821904Y-91075928D01*
X165042857Y-91647357D02*
X165080952Y-91533071D01*
X165119047Y-91494976D01*
X165195238Y-91456880D01*
X165309523Y-91456880D01*
X165385714Y-91494976D01*
X165423809Y-91533071D01*
X165461904Y-91609261D01*
X165461904Y-91914023D01*
X164661904Y-91914023D01*
X164661904Y-91647357D01*
X164700000Y-91571166D01*
X164738095Y-91533071D01*
X164814285Y-91494976D01*
X164890476Y-91494976D01*
X164966666Y-91533071D01*
X165004761Y-91571166D01*
X165042857Y-91647357D01*
X165042857Y-91914023D01*
X165461904Y-90694976D02*
X165461904Y-91152119D01*
X165461904Y-90923547D02*
X164661904Y-90923547D01*
X164776190Y-90999738D01*
X164852380Y-91075928D01*
X164890476Y-91152119D01*
X162502857Y-91647357D02*
X162540952Y-91533071D01*
X162579047Y-91494976D01*
X162655238Y-91456880D01*
X162769523Y-91456880D01*
X162845714Y-91494976D01*
X162883809Y-91533071D01*
X162921904Y-91609261D01*
X162921904Y-91914023D01*
X162121904Y-91914023D01*
X162121904Y-91647357D01*
X162160000Y-91571166D01*
X162198095Y-91533071D01*
X162274285Y-91494976D01*
X162350476Y-91494976D01*
X162426666Y-91533071D01*
X162464761Y-91571166D01*
X162502857Y-91647357D01*
X162502857Y-91914023D01*
X162121904Y-90961642D02*
X162121904Y-90885452D01*
X162160000Y-90809261D01*
X162198095Y-90771166D01*
X162274285Y-90733071D01*
X162426666Y-90694976D01*
X162617142Y-90694976D01*
X162769523Y-90733071D01*
X162845714Y-90771166D01*
X162883809Y-90809261D01*
X162921904Y-90885452D01*
X162921904Y-90961642D01*
X162883809Y-91037833D01*
X162845714Y-91075928D01*
X162769523Y-91114023D01*
X162617142Y-91152119D01*
X162426666Y-91152119D01*
X162274285Y-91114023D01*
X162198095Y-91075928D01*
X162160000Y-91037833D01*
X162121904Y-90961642D01*
X157613333Y-91952119D02*
X157613333Y-91571166D01*
X157841904Y-92028309D02*
X157041904Y-91761642D01*
X157841904Y-91494976D01*
X157841904Y-90809261D02*
X157841904Y-91266404D01*
X157841904Y-91037833D02*
X157041904Y-91037833D01*
X157156190Y-91114023D01*
X157232380Y-91190214D01*
X157270476Y-91266404D01*
X155073333Y-91952119D02*
X155073333Y-91571166D01*
X155301904Y-92028309D02*
X154501904Y-91761642D01*
X155301904Y-91494976D01*
X154501904Y-91075928D02*
X154501904Y-90999738D01*
X154540000Y-90923547D01*
X154578095Y-90885452D01*
X154654285Y-90847357D01*
X154806666Y-90809261D01*
X154997142Y-90809261D01*
X155149523Y-90847357D01*
X155225714Y-90885452D01*
X155263809Y-90923547D01*
X155301904Y-90999738D01*
X155301904Y-91075928D01*
X155263809Y-91152119D01*
X155225714Y-91190214D01*
X155149523Y-91228309D01*
X154997142Y-91266404D01*
X154806666Y-91266404D01*
X154654285Y-91228309D01*
X154578095Y-91190214D01*
X154540000Y-91152119D01*
X154501904Y-91075928D01*
X146881904Y-92028309D02*
X147681904Y-91761642D01*
X146881904Y-91494976D01*
X147681904Y-91228309D02*
X146881904Y-91228309D01*
X147681904Y-90847357D02*
X146881904Y-90847357D01*
X147681904Y-90390214D01*
X146881904Y-90390214D01*
X144341904Y-91531071D02*
X144341904Y-91912023D01*
X144722857Y-91950119D01*
X144684761Y-91912023D01*
X144646666Y-91835833D01*
X144646666Y-91645357D01*
X144684761Y-91569166D01*
X144722857Y-91531071D01*
X144799047Y-91492976D01*
X144989523Y-91492976D01*
X145065714Y-91531071D01*
X145103809Y-91569166D01*
X145141904Y-91645357D01*
X145141904Y-91835833D01*
X145103809Y-91912023D01*
X145065714Y-91950119D01*
X144341904Y-91264404D02*
X145141904Y-90997738D01*
X144341904Y-90731071D01*
X141840000Y-91492976D02*
X141801904Y-91569166D01*
X141801904Y-91683452D01*
X141840000Y-91797738D01*
X141916190Y-91873928D01*
X141992380Y-91912023D01*
X142144761Y-91950119D01*
X142259047Y-91950119D01*
X142411428Y-91912023D01*
X142487619Y-91873928D01*
X142563809Y-91797738D01*
X142601904Y-91683452D01*
X142601904Y-91607261D01*
X142563809Y-91492976D01*
X142525714Y-91454880D01*
X142259047Y-91454880D01*
X142259047Y-91607261D01*
X142601904Y-91112023D02*
X141801904Y-91112023D01*
X142601904Y-90654880D01*
X141801904Y-90654880D01*
X142601904Y-90273928D02*
X141801904Y-90273928D01*
X141801904Y-90083452D01*
X141840000Y-89969166D01*
X141916190Y-89892976D01*
X141992380Y-89854880D01*
X142144761Y-89816785D01*
X142259047Y-89816785D01*
X142411428Y-89854880D01*
X142487619Y-89892976D01*
X142563809Y-89969166D01*
X142601904Y-90083452D01*
X142601904Y-90273928D01*
D12*
G04 #@! TO.C,C3*
X168750000Y-106170000D02*
X168750000Y-109690000D01*
X166530000Y-106170000D02*
X166530000Y-109690000D01*
X168750000Y-106170000D02*
X168636000Y-106170000D01*
X166644000Y-106170000D02*
X166530000Y-106170000D01*
X168750000Y-109690000D02*
X168636000Y-109690000D01*
X166644000Y-109690000D02*
X166530000Y-109690000D01*
G04 #@! TO.C,LED1*
X139720000Y-95525000D02*
X139720000Y-92435000D01*
X139660000Y-93980000D02*
G75*
G03X139660000Y-93980000I-2500000J0D01*
G01*
X134170000Y-93980462D02*
G75*
G02X139720000Y-92435170I2990000J462D01*
G01*
X134170000Y-93979538D02*
G75*
G03X139720000Y-95524830I2990000J-462D01*
G01*
G04 #@! TO.C,R2*
X144180000Y-100040000D02*
X144180000Y-100370000D01*
X144180000Y-100370000D02*
X137760000Y-100370000D01*
X137760000Y-100370000D02*
X137760000Y-100040000D01*
X144180000Y-98080000D02*
X144180000Y-97750000D01*
X144180000Y-97750000D02*
X137760000Y-97750000D01*
X137760000Y-97750000D02*
X137760000Y-98080000D01*
D13*
G04 #@! TO.C,IC1*
X113030000Y-110490000D02*
X112014000Y-110490000D01*
X113030000Y-113030000D02*
X112014000Y-113030000D01*
D14*
X113030000Y-113030000D02*
G75*
G03X114300000Y-111760000I0J1270000D01*
G01*
X114300000Y-111760000D02*
G75*
G03X113030000Y-110490000I-1270000J0D01*
G01*
D13*
X113030000Y-110490000D02*
X113030000Y-113030000D01*
D14*
X116078000Y-106680000D02*
X116078000Y-116840000D01*
X160782000Y-106680000D02*
X160782000Y-116840000D01*
X139700000Y-116840000D02*
X139700000Y-106680000D01*
X137160000Y-106680000D02*
X137160000Y-116840000D01*
D13*
X112014000Y-104648000D02*
X112014000Y-118872000D01*
X113030000Y-120650000D02*
X113030000Y-102870000D01*
X163830000Y-102870000D02*
X163830000Y-120650000D01*
X164846000Y-118872000D02*
X164846000Y-104648000D01*
X164846000Y-104648000D02*
X112014000Y-104648000D01*
X113030000Y-102870000D02*
X163830000Y-102870000D01*
X164846000Y-118872000D02*
X112014000Y-118872000D01*
X113030000Y-120650000D02*
X163830000Y-120650000D01*
D14*
X160782000Y-116840000D02*
X116078000Y-116840000D01*
X116078000Y-106680000D02*
X160782000Y-106680000D01*
D10*
G04 #@! TO.C,PWR_SW1*
X121000000Y-88488000D02*
X121000000Y-100488000D01*
X121000000Y-100488000D02*
X133000000Y-100488000D01*
X133000000Y-100488000D02*
X133000000Y-88488000D01*
X133000000Y-88488000D02*
X121000000Y-88488000D01*
D15*
G04 #@! TO.C,I1*
X188670000Y-133840000D02*
X188670000Y-125240000D01*
X105970000Y-133840000D02*
X105970000Y-125240000D01*
X188670000Y-125240000D02*
X105970000Y-125240000D01*
X105970000Y-133840000D02*
X188670000Y-133840000D01*
X183120000Y-133840000D02*
X183120000Y-125240000D01*
X111520000Y-133840000D02*
X111520000Y-125240000D01*
D16*
X145020000Y-125340000D02*
X145020000Y-126240000D01*
X145020000Y-126240000D02*
X149620000Y-126240000D01*
X149620000Y-126240000D02*
X149620000Y-125340000D01*
D10*
G04 #@! TO.C,PWR1*
X118800880Y-88201500D02*
X109799120Y-88201500D01*
X109799120Y-88201500D02*
X109799120Y-99202240D01*
X109799120Y-99202240D02*
X118800880Y-99202240D01*
X118800880Y-99202240D02*
X118800880Y-88201500D01*
D12*
G04 #@! TO.C,C1*
X149350000Y-96680000D02*
X152870000Y-96680000D01*
X149350000Y-98900000D02*
X152870000Y-98900000D01*
X149350000Y-96680000D02*
X149350000Y-96794000D01*
X149350000Y-98786000D02*
X149350000Y-98900000D01*
X152870000Y-96680000D02*
X152870000Y-96794000D01*
X152870000Y-98786000D02*
X152870000Y-98900000D01*
G04 #@! TO.C,C2*
X175626000Y-103962000D02*
X176926000Y-103962000D01*
X176276000Y-104562000D02*
X176276000Y-103362000D01*
X175922000Y-98551000D02*
X176630000Y-98551000D01*
X175717000Y-98591000D02*
X176835000Y-98591000D01*
X175569000Y-98631000D02*
X176983000Y-98631000D01*
X175447000Y-98671000D02*
X177105000Y-98671000D01*
X175342000Y-98711000D02*
X177210000Y-98711000D01*
X175248000Y-98751000D02*
X177304000Y-98751000D01*
X175164000Y-98791000D02*
X177388000Y-98791000D01*
X175087000Y-98831000D02*
X177465000Y-98831000D01*
X175015000Y-98871000D02*
X177537000Y-98871000D01*
X177256000Y-98911000D02*
X177603000Y-98911000D01*
X174949000Y-98911000D02*
X175296000Y-98911000D01*
X177256000Y-98951000D02*
X177666000Y-98951000D01*
X174886000Y-98951000D02*
X175296000Y-98951000D01*
X177256000Y-98991000D02*
X177724000Y-98991000D01*
X174828000Y-98991000D02*
X175296000Y-98991000D01*
X177256000Y-99031000D02*
X177780000Y-99031000D01*
X174772000Y-99031000D02*
X175296000Y-99031000D01*
X177256000Y-99071000D02*
X177832000Y-99071000D01*
X174720000Y-99071000D02*
X175296000Y-99071000D01*
X177256000Y-99111000D02*
X177882000Y-99111000D01*
X174670000Y-99111000D02*
X175296000Y-99111000D01*
X177256000Y-99151000D02*
X177930000Y-99151000D01*
X174622000Y-99151000D02*
X175296000Y-99151000D01*
X177256000Y-99191000D02*
X177975000Y-99191000D01*
X174577000Y-99191000D02*
X175296000Y-99191000D01*
X177256000Y-99231000D02*
X178018000Y-99231000D01*
X174534000Y-99231000D02*
X175296000Y-99231000D01*
X177256000Y-99271000D02*
X178059000Y-99271000D01*
X174493000Y-99271000D02*
X175296000Y-99271000D01*
X177256000Y-99311000D02*
X178099000Y-99311000D01*
X174453000Y-99311000D02*
X175296000Y-99311000D01*
X177256000Y-99351000D02*
X178137000Y-99351000D01*
X174415000Y-99351000D02*
X175296000Y-99351000D01*
X177256000Y-99391000D02*
X178173000Y-99391000D01*
X174379000Y-99391000D02*
X175296000Y-99391000D01*
X177256000Y-99431000D02*
X178208000Y-99431000D01*
X174344000Y-99431000D02*
X175296000Y-99431000D01*
X177256000Y-99471000D02*
X178241000Y-99471000D01*
X174311000Y-99471000D02*
X175296000Y-99471000D01*
X177256000Y-99511000D02*
X178273000Y-99511000D01*
X174279000Y-99511000D02*
X175296000Y-99511000D01*
X177256000Y-99551000D02*
X178304000Y-99551000D01*
X174248000Y-99551000D02*
X175296000Y-99551000D01*
X177256000Y-99591000D02*
X178334000Y-99591000D01*
X174218000Y-99591000D02*
X175296000Y-99591000D01*
X177256000Y-99631000D02*
X178362000Y-99631000D01*
X174190000Y-99631000D02*
X175296000Y-99631000D01*
X177256000Y-99671000D02*
X178389000Y-99671000D01*
X174163000Y-99671000D02*
X175296000Y-99671000D01*
X177256000Y-99711000D02*
X178416000Y-99711000D01*
X174136000Y-99711000D02*
X175296000Y-99711000D01*
X177256000Y-99751000D02*
X178441000Y-99751000D01*
X174111000Y-99751000D02*
X175296000Y-99751000D01*
X177256000Y-99791000D02*
X178465000Y-99791000D01*
X174087000Y-99791000D02*
X175296000Y-99791000D01*
X177256000Y-99831000D02*
X178488000Y-99831000D01*
X174064000Y-99831000D02*
X175296000Y-99831000D01*
X177256000Y-99871000D02*
X178510000Y-99871000D01*
X174042000Y-99871000D02*
X175296000Y-99871000D01*
X177256000Y-99911000D02*
X178532000Y-99911000D01*
X174020000Y-99911000D02*
X175296000Y-99911000D01*
X177256000Y-99951000D02*
X178552000Y-99951000D01*
X174000000Y-99951000D02*
X175296000Y-99951000D01*
X177256000Y-99991000D02*
X178572000Y-99991000D01*
X173980000Y-99991000D02*
X175296000Y-99991000D01*
X177256000Y-100031000D02*
X178591000Y-100031000D01*
X173961000Y-100031000D02*
X175296000Y-100031000D01*
X177256000Y-100071000D02*
X178609000Y-100071000D01*
X173943000Y-100071000D02*
X175296000Y-100071000D01*
X177256000Y-100111000D02*
X178626000Y-100111000D01*
X173926000Y-100111000D02*
X175296000Y-100111000D01*
X177256000Y-100151000D02*
X178642000Y-100151000D01*
X173910000Y-100151000D02*
X175296000Y-100151000D01*
X177256000Y-100191000D02*
X178658000Y-100191000D01*
X173894000Y-100191000D02*
X175296000Y-100191000D01*
X177256000Y-100231000D02*
X178672000Y-100231000D01*
X173880000Y-100231000D02*
X175296000Y-100231000D01*
X177256000Y-100271000D02*
X178686000Y-100271000D01*
X173866000Y-100271000D02*
X175296000Y-100271000D01*
X177256000Y-100311000D02*
X178700000Y-100311000D01*
X173852000Y-100311000D02*
X175296000Y-100311000D01*
X177256000Y-100351000D02*
X178712000Y-100351000D01*
X173840000Y-100351000D02*
X175296000Y-100351000D01*
X177256000Y-100391000D02*
X178724000Y-100391000D01*
X173828000Y-100391000D02*
X175296000Y-100391000D01*
X177256000Y-100432000D02*
X178736000Y-100432000D01*
X173816000Y-100432000D02*
X175296000Y-100432000D01*
X177256000Y-100472000D02*
X178746000Y-100472000D01*
X173806000Y-100472000D02*
X175296000Y-100472000D01*
X177256000Y-100512000D02*
X178756000Y-100512000D01*
X173796000Y-100512000D02*
X175296000Y-100512000D01*
X177256000Y-100552000D02*
X178765000Y-100552000D01*
X173787000Y-100552000D02*
X175296000Y-100552000D01*
X177256000Y-100592000D02*
X178774000Y-100592000D01*
X173778000Y-100592000D02*
X175296000Y-100592000D01*
X177256000Y-100632000D02*
X178782000Y-100632000D01*
X173770000Y-100632000D02*
X175296000Y-100632000D01*
X177256000Y-100672000D02*
X178789000Y-100672000D01*
X173763000Y-100672000D02*
X175296000Y-100672000D01*
X177256000Y-100712000D02*
X178795000Y-100712000D01*
X173757000Y-100712000D02*
X175296000Y-100712000D01*
X177256000Y-100752000D02*
X178801000Y-100752000D01*
X173751000Y-100752000D02*
X175296000Y-100752000D01*
X177256000Y-100792000D02*
X178807000Y-100792000D01*
X173745000Y-100792000D02*
X175296000Y-100792000D01*
X177256000Y-100832000D02*
X178811000Y-100832000D01*
X173741000Y-100832000D02*
X175296000Y-100832000D01*
X173737000Y-100872000D02*
X178815000Y-100872000D01*
X173733000Y-100912000D02*
X178819000Y-100912000D01*
X173730000Y-100952000D02*
X178822000Y-100952000D01*
X173728000Y-100992000D02*
X178824000Y-100992000D01*
X173727000Y-101032000D02*
X178825000Y-101032000D01*
X173726000Y-101072000D02*
X178826000Y-101072000D01*
X173726000Y-101112000D02*
X178826000Y-101112000D01*
X177455723Y-98806278D02*
G75*
G03X175096000Y-98806420I-1179723J-2305722D01*
G01*
X177455723Y-98806278D02*
G75*
G02X177456000Y-103417580I-1179723J-2305722D01*
G01*
X175096277Y-98806278D02*
G75*
G03X175096000Y-103417580I1179723J-2305722D01*
G01*
G04 #@! TO.C,I2*
X140910000Y-95373500D02*
X140910000Y-94043500D01*
X142240000Y-95373500D02*
X140910000Y-95373500D01*
X143510000Y-92713500D02*
X143510000Y-95373500D01*
X186750000Y-92713500D02*
X143510000Y-92713500D01*
X186750000Y-95373500D02*
X186750000Y-92713500D01*
X143510000Y-95373500D02*
X186750000Y-95373500D01*
G04 #@! TO.C,R1*
X161960000Y-99100000D02*
X161960000Y-98770000D01*
X155540000Y-99100000D02*
X161960000Y-99100000D01*
X155540000Y-98770000D02*
X155540000Y-99100000D01*
X161960000Y-96480000D02*
X161960000Y-96810000D01*
X155540000Y-96480000D02*
X161960000Y-96480000D01*
X155540000Y-96810000D02*
X155540000Y-96480000D01*
G04 #@! TO.C,U1*
X181550000Y-104230000D02*
X179220000Y-104230000D01*
X181550000Y-106680000D02*
X181550000Y-104230000D01*
X169280000Y-104560000D02*
X181220000Y-104560000D01*
X169280000Y-112410000D02*
X169280000Y-104560000D01*
X181220000Y-112410000D02*
X169280000Y-112410000D01*
X181220000Y-104560000D02*
X181220000Y-112410000D01*
G04 #@! TO.C,I3*
X166310000Y-100390000D02*
X166310000Y-99060000D01*
X167640000Y-100390000D02*
X166310000Y-100390000D01*
X168910000Y-97730000D02*
X168910000Y-100390000D01*
X171510000Y-97730000D02*
X168910000Y-97730000D01*
X171510000Y-100390000D02*
X171510000Y-97730000D01*
X168910000Y-100390000D02*
X171510000Y-100390000D01*
G04 #@! TO.C,C3*
D10*
X167473333Y-111609142D02*
X167425714Y-111656761D01*
X167282857Y-111704380D01*
X167187619Y-111704380D01*
X167044761Y-111656761D01*
X166949523Y-111561523D01*
X166901904Y-111466285D01*
X166854285Y-111275809D01*
X166854285Y-111132952D01*
X166901904Y-110942476D01*
X166949523Y-110847238D01*
X167044761Y-110752000D01*
X167187619Y-110704380D01*
X167282857Y-110704380D01*
X167425714Y-110752000D01*
X167473333Y-110799619D01*
X167806666Y-110704380D02*
X168425714Y-110704380D01*
X168092380Y-111085333D01*
X168235238Y-111085333D01*
X168330476Y-111132952D01*
X168378095Y-111180571D01*
X168425714Y-111275809D01*
X168425714Y-111513904D01*
X168378095Y-111609142D01*
X168330476Y-111656761D01*
X168235238Y-111704380D01*
X167949523Y-111704380D01*
X167854285Y-111656761D01*
X167806666Y-111609142D01*
G04 #@! TO.C,LED1*
X136040952Y-90622380D02*
X135564761Y-90622380D01*
X135564761Y-89622380D01*
X136374285Y-90098571D02*
X136707619Y-90098571D01*
X136850476Y-90622380D02*
X136374285Y-90622380D01*
X136374285Y-89622380D01*
X136850476Y-89622380D01*
X137279047Y-90622380D02*
X137279047Y-89622380D01*
X137517142Y-89622380D01*
X137660000Y-89670000D01*
X137755238Y-89765238D01*
X137802857Y-89860476D01*
X137850476Y-90050952D01*
X137850476Y-90193809D01*
X137802857Y-90384285D01*
X137755238Y-90479523D01*
X137660000Y-90574761D01*
X137517142Y-90622380D01*
X137279047Y-90622380D01*
X138802857Y-90622380D02*
X138231428Y-90622380D01*
X138517142Y-90622380D02*
X138517142Y-89622380D01*
X138421904Y-89765238D01*
X138326666Y-89860476D01*
X138231428Y-89908095D01*
G04 #@! TO.C,R2*
X134707333Y-99512380D02*
X134374000Y-99036190D01*
X134135904Y-99512380D02*
X134135904Y-98512380D01*
X134516857Y-98512380D01*
X134612095Y-98560000D01*
X134659714Y-98607619D01*
X134707333Y-98702857D01*
X134707333Y-98845714D01*
X134659714Y-98940952D01*
X134612095Y-98988571D01*
X134516857Y-99036190D01*
X134135904Y-99036190D01*
X135088285Y-98607619D02*
X135135904Y-98560000D01*
X135231142Y-98512380D01*
X135469238Y-98512380D01*
X135564476Y-98560000D01*
X135612095Y-98607619D01*
X135659714Y-98702857D01*
X135659714Y-98798095D01*
X135612095Y-98940952D01*
X135040666Y-99512380D01*
X135659714Y-99512380D01*
G04 #@! TO.C,IC1*
X109513809Y-112212380D02*
X109513809Y-111212380D01*
X110561428Y-112117142D02*
X110513809Y-112164761D01*
X110370952Y-112212380D01*
X110275714Y-112212380D01*
X110132857Y-112164761D01*
X110037619Y-112069523D01*
X109990000Y-111974285D01*
X109942380Y-111783809D01*
X109942380Y-111640952D01*
X109990000Y-111450476D01*
X110037619Y-111355238D01*
X110132857Y-111260000D01*
X110275714Y-111212380D01*
X110370952Y-111212380D01*
X110513809Y-111260000D01*
X110561428Y-111307619D01*
X111513809Y-112212380D02*
X110942380Y-112212380D01*
X111228095Y-112212380D02*
X111228095Y-111212380D01*
X111132857Y-111355238D01*
X111037619Y-111450476D01*
X110942380Y-111498095D01*
D11*
X122928571Y-111652857D02*
X122428571Y-111652857D01*
X122428571Y-112438571D02*
X122428571Y-110938571D01*
X123142857Y-110938571D01*
X123714285Y-112438571D02*
X123714285Y-110938571D01*
X124285714Y-110938571D01*
X124428571Y-111010000D01*
X124500000Y-111081428D01*
X124571428Y-111224285D01*
X124571428Y-111438571D01*
X124500000Y-111581428D01*
X124428571Y-111652857D01*
X124285714Y-111724285D01*
X123714285Y-111724285D01*
X125142857Y-111081428D02*
X125214285Y-111010000D01*
X125357142Y-110938571D01*
X125714285Y-110938571D01*
X125857142Y-111010000D01*
X125928571Y-111081428D01*
X126000000Y-111224285D01*
X126000000Y-111367142D01*
X125928571Y-111581428D01*
X125071428Y-112438571D01*
X126000000Y-112438571D01*
X126857142Y-111581428D02*
X126714285Y-111510000D01*
X126642857Y-111438571D01*
X126571428Y-111295714D01*
X126571428Y-111224285D01*
X126642857Y-111081428D01*
X126714285Y-111010000D01*
X126857142Y-110938571D01*
X127142857Y-110938571D01*
X127285714Y-111010000D01*
X127357142Y-111081428D01*
X127428571Y-111224285D01*
X127428571Y-111295714D01*
X127357142Y-111438571D01*
X127285714Y-111510000D01*
X127142857Y-111581428D01*
X126857142Y-111581428D01*
X126714285Y-111652857D01*
X126642857Y-111724285D01*
X126571428Y-111867142D01*
X126571428Y-112152857D01*
X126642857Y-112295714D01*
X126714285Y-112367142D01*
X126857142Y-112438571D01*
X127142857Y-112438571D01*
X127285714Y-112367142D01*
X127357142Y-112295714D01*
X127428571Y-112152857D01*
X127428571Y-111867142D01*
X127357142Y-111724285D01*
X127285714Y-111652857D01*
X127142857Y-111581428D01*
X128357142Y-110938571D02*
X128500000Y-110938571D01*
X128642857Y-111010000D01*
X128714285Y-111081428D01*
X128785714Y-111224285D01*
X128857142Y-111510000D01*
X128857142Y-111867142D01*
X128785714Y-112152857D01*
X128714285Y-112295714D01*
X128642857Y-112367142D01*
X128500000Y-112438571D01*
X128357142Y-112438571D01*
X128214285Y-112367142D01*
X128142857Y-112295714D01*
X128071428Y-112152857D01*
X128000000Y-111867142D01*
X128000000Y-111510000D01*
X128071428Y-111224285D01*
X128142857Y-111081428D01*
X128214285Y-111010000D01*
X128357142Y-110938571D01*
X129785714Y-110938571D02*
X129928571Y-110938571D01*
X130071428Y-111010000D01*
X130142857Y-111081428D01*
X130214285Y-111224285D01*
X130285714Y-111510000D01*
X130285714Y-111867142D01*
X130214285Y-112152857D01*
X130142857Y-112295714D01*
X130071428Y-112367142D01*
X129928571Y-112438571D01*
X129785714Y-112438571D01*
X129642857Y-112367142D01*
X129571428Y-112295714D01*
X129500000Y-112152857D01*
X129428571Y-111867142D01*
X129428571Y-111510000D01*
X129500000Y-111224285D01*
X129571428Y-111081428D01*
X129642857Y-111010000D01*
X129785714Y-110938571D01*
X131571428Y-112438571D02*
X131571428Y-111652857D01*
X131500000Y-111510000D01*
X131357142Y-111438571D01*
X131071428Y-111438571D01*
X130928571Y-111510000D01*
X131571428Y-112367142D02*
X131428571Y-112438571D01*
X131071428Y-112438571D01*
X130928571Y-112367142D01*
X130857142Y-112224285D01*
X130857142Y-112081428D01*
X130928571Y-111938571D01*
X131071428Y-111867142D01*
X131428571Y-111867142D01*
X131571428Y-111795714D01*
G04 #@! TO.C,I1*
D17*
X146843809Y-124277380D02*
X146843809Y-123277380D01*
X147843809Y-124277380D02*
X147272380Y-124277380D01*
X147558095Y-124277380D02*
X147558095Y-123277380D01*
X147462857Y-123420238D01*
X147367619Y-123515476D01*
X147272380Y-123563095D01*
G04 #@! TO.C,C1*
D10*
X147661333Y-98147142D02*
X147613714Y-98194761D01*
X147470857Y-98242380D01*
X147375619Y-98242380D01*
X147232761Y-98194761D01*
X147137523Y-98099523D01*
X147089904Y-98004285D01*
X147042285Y-97813809D01*
X147042285Y-97670952D01*
X147089904Y-97480476D01*
X147137523Y-97385238D01*
X147232761Y-97290000D01*
X147375619Y-97242380D01*
X147470857Y-97242380D01*
X147613714Y-97290000D01*
X147661333Y-97337619D01*
X148613714Y-98242380D02*
X148042285Y-98242380D01*
X148328000Y-98242380D02*
X148328000Y-97242380D01*
X148232761Y-97385238D01*
X148137523Y-97480476D01*
X148042285Y-97528095D01*
G04 #@! TO.C,C2*
X176109333Y-97893142D02*
X176061714Y-97940761D01*
X175918857Y-97988380D01*
X175823619Y-97988380D01*
X175680761Y-97940761D01*
X175585523Y-97845523D01*
X175537904Y-97750285D01*
X175490285Y-97559809D01*
X175490285Y-97416952D01*
X175537904Y-97226476D01*
X175585523Y-97131238D01*
X175680761Y-97036000D01*
X175823619Y-96988380D01*
X175918857Y-96988380D01*
X176061714Y-97036000D01*
X176109333Y-97083619D01*
X176490285Y-97083619D02*
X176537904Y-97036000D01*
X176633142Y-96988380D01*
X176871238Y-96988380D01*
X176966476Y-97036000D01*
X177014095Y-97083619D01*
X177061714Y-97178857D01*
X177061714Y-97274095D01*
X177014095Y-97416952D01*
X176442666Y-97988380D01*
X177061714Y-97988380D01*
G04 #@! TO.C,I2*
X187483809Y-94495880D02*
X187483809Y-93495880D01*
X187912380Y-93591119D02*
X187960000Y-93543500D01*
X188055238Y-93495880D01*
X188293333Y-93495880D01*
X188388571Y-93543500D01*
X188436190Y-93591119D01*
X188483809Y-93686357D01*
X188483809Y-93781595D01*
X188436190Y-93924452D01*
X187864761Y-94495880D01*
X188483809Y-94495880D01*
G04 #@! TO.C,R1*
X164679333Y-98242380D02*
X164346000Y-97766190D01*
X164107904Y-98242380D02*
X164107904Y-97242380D01*
X164488857Y-97242380D01*
X164584095Y-97290000D01*
X164631714Y-97337619D01*
X164679333Y-97432857D01*
X164679333Y-97575714D01*
X164631714Y-97670952D01*
X164584095Y-97718571D01*
X164488857Y-97766190D01*
X164107904Y-97766190D01*
X165631714Y-98242380D02*
X165060285Y-98242380D01*
X165346000Y-98242380D02*
X165346000Y-97242380D01*
X165250761Y-97385238D01*
X165155523Y-97480476D01*
X165060285Y-97528095D01*
G04 #@! TO.C,U1*
X174498095Y-112842380D02*
X174498095Y-113651904D01*
X174545714Y-113747142D01*
X174593333Y-113794761D01*
X174688571Y-113842380D01*
X174879047Y-113842380D01*
X174974285Y-113794761D01*
X175021904Y-113747142D01*
X175069523Y-113651904D01*
X175069523Y-112842380D01*
X176069523Y-113842380D02*
X175498095Y-113842380D01*
X175783809Y-113842380D02*
X175783809Y-112842380D01*
X175688571Y-112985238D01*
X175593333Y-113080476D01*
X175498095Y-113128095D01*
D11*
X171724285Y-110303571D02*
X172581428Y-110303571D01*
X172152857Y-111803571D02*
X172152857Y-110303571D01*
X173010000Y-111732142D02*
X173224285Y-111803571D01*
X173581428Y-111803571D01*
X173724285Y-111732142D01*
X173795714Y-111660714D01*
X173867142Y-111517857D01*
X173867142Y-111375000D01*
X173795714Y-111232142D01*
X173724285Y-111160714D01*
X173581428Y-111089285D01*
X173295714Y-111017857D01*
X173152857Y-110946428D01*
X173081428Y-110875000D01*
X173010000Y-110732142D01*
X173010000Y-110589285D01*
X173081428Y-110446428D01*
X173152857Y-110375000D01*
X173295714Y-110303571D01*
X173652857Y-110303571D01*
X173867142Y-110375000D01*
X175367142Y-111803571D02*
X174867142Y-111089285D01*
X174510000Y-111803571D02*
X174510000Y-110303571D01*
X175081428Y-110303571D01*
X175224285Y-110375000D01*
X175295714Y-110446428D01*
X175367142Y-110589285D01*
X175367142Y-110803571D01*
X175295714Y-110946428D01*
X175224285Y-111017857D01*
X175081428Y-111089285D01*
X174510000Y-111089285D01*
X176010000Y-111232142D02*
X177152857Y-111232142D01*
X178652857Y-111803571D02*
X177795714Y-111803571D01*
X178224285Y-111803571D02*
X178224285Y-110303571D01*
X178081428Y-110517857D01*
X177938571Y-110660714D01*
X177795714Y-110732142D01*
G04 #@! TO.C,I3*
D10*
X172116809Y-99512380D02*
X172116809Y-98512380D01*
X172497761Y-98512380D02*
X173116809Y-98512380D01*
X172783476Y-98893333D01*
X172926333Y-98893333D01*
X173021571Y-98940952D01*
X173069190Y-98988571D01*
X173116809Y-99083809D01*
X173116809Y-99321904D01*
X173069190Y-99417142D01*
X173021571Y-99464761D01*
X172926333Y-99512380D01*
X172640619Y-99512380D01*
X172545380Y-99464761D01*
X172497761Y-99417142D01*
G04 #@! TD*
M02*
