G04 #@! TF.GenerationSoftware,KiCad,Pcbnew,(5.0.0-rc3-dev)*
G04 #@! TF.CreationDate,2019-01-29T23:40:13+01:00*
G04 #@! TF.ProjectId,Lawo 28x13,4C61776F2032387831332E6B69636164,0.12*
G04 #@! TF.SameCoordinates,Original*
G04 #@! TF.FileFunction,Legend,Top*
G04 #@! TF.FilePolarity,Positive*
%FSLAX46Y46*%
G04 Gerber Fmt 4.6, Leading zero omitted, Abs format (unit mm)*
G04 Created by KiCad (PCBNEW (5.0.0-rc3-dev)) date 2019 January 29, Tuesday 23:40:13*
%MOMM*%
%LPD*%
G01*
G04 APERTURE LIST*
%ADD10C,0.150000*%
%ADD11C,0.200000*%
%ADD12C,0.120000*%
%ADD13C,0.381000*%
%ADD14C,0.254000*%
%ADD15C,0.304800*%
%ADD16C,0.299720*%
%ADD17C,0.203200*%
G04 APERTURE END LIST*
D10*
X106108666Y-89860380D02*
X106108666Y-88860380D01*
X106489619Y-88860380D01*
X106584857Y-88908000D01*
X106632476Y-88955619D01*
X106680095Y-89050857D01*
X106680095Y-89193714D01*
X106632476Y-89288952D01*
X106584857Y-89336571D01*
X106489619Y-89384190D01*
X106108666Y-89384190D01*
X107013428Y-88860380D02*
X107251523Y-89860380D01*
X107442000Y-89146095D01*
X107632476Y-89860380D01*
X107870571Y-88860380D01*
X108822952Y-89860380D02*
X108489619Y-89384190D01*
X108251523Y-89860380D02*
X108251523Y-88860380D01*
X108632476Y-88860380D01*
X108727714Y-88908000D01*
X108775333Y-88955619D01*
X108822952Y-89050857D01*
X108822952Y-89193714D01*
X108775333Y-89288952D01*
X108727714Y-89336571D01*
X108632476Y-89384190D01*
X108251523Y-89384190D01*
X123984095Y-90368380D02*
X123984095Y-89368380D01*
X124365047Y-89368380D01*
X124460285Y-89416000D01*
X124507904Y-89463619D01*
X124555523Y-89558857D01*
X124555523Y-89701714D01*
X124507904Y-89796952D01*
X124460285Y-89844571D01*
X124365047Y-89892190D01*
X123984095Y-89892190D01*
X124888857Y-89368380D02*
X125126952Y-90368380D01*
X125317428Y-89654095D01*
X125507904Y-90368380D01*
X125746000Y-89368380D01*
X126698380Y-90368380D02*
X126365047Y-89892190D01*
X126126952Y-90368380D02*
X126126952Y-89368380D01*
X126507904Y-89368380D01*
X126603142Y-89416000D01*
X126650761Y-89463619D01*
X126698380Y-89558857D01*
X126698380Y-89701714D01*
X126650761Y-89796952D01*
X126603142Y-89844571D01*
X126507904Y-89892190D01*
X126126952Y-89892190D01*
X126888857Y-90463619D02*
X127650761Y-90463619D01*
X127841238Y-90320761D02*
X127984095Y-90368380D01*
X128222190Y-90368380D01*
X128317428Y-90320761D01*
X128365047Y-90273142D01*
X128412666Y-90177904D01*
X128412666Y-90082666D01*
X128365047Y-89987428D01*
X128317428Y-89939809D01*
X128222190Y-89892190D01*
X128031714Y-89844571D01*
X127936476Y-89796952D01*
X127888857Y-89749333D01*
X127841238Y-89654095D01*
X127841238Y-89558857D01*
X127888857Y-89463619D01*
X127936476Y-89416000D01*
X128031714Y-89368380D01*
X128269809Y-89368380D01*
X128412666Y-89416000D01*
X128746000Y-89368380D02*
X128984095Y-90368380D01*
X129174571Y-89654095D01*
X129365047Y-90368380D01*
X129603142Y-89368380D01*
D11*
X186690000Y-90170000D02*
G75*
G03X185420000Y-88900000I-1270000J0D01*
G01*
X166370000Y-89535000D02*
G75*
G03X165735000Y-88900000I-635000J0D01*
G01*
X167005000Y-88900000D02*
G75*
G03X166370000Y-89535000I0J-635000D01*
G01*
X165100000Y-88900000D02*
X165735000Y-88900000D01*
X167640000Y-88900000D02*
X167005000Y-88900000D01*
X166370000Y-89535000D02*
X166370000Y-92075000D01*
X149225000Y-88900000D02*
X149860000Y-88900000D01*
X147955000Y-88900000D02*
X147320000Y-88900000D01*
X148590000Y-89535000D02*
X148590000Y-92075000D01*
X149225000Y-88900000D02*
G75*
G03X148590000Y-89535000I0J-635000D01*
G01*
X148590000Y-89535000D02*
G75*
G03X147955000Y-88900000I-635000J0D01*
G01*
X141986000Y-88900000D02*
G75*
G03X140716000Y-90170000I0J-1270000D01*
G01*
D10*
X160153333Y-91952119D02*
X160153333Y-91571166D01*
X160381904Y-92028309D02*
X159581904Y-91761642D01*
X160381904Y-91494976D01*
X159658095Y-91266404D02*
X159620000Y-91228309D01*
X159581904Y-91152119D01*
X159581904Y-90961642D01*
X159620000Y-90885452D01*
X159658095Y-90847357D01*
X159734285Y-90809261D01*
X159810476Y-90809261D01*
X159924761Y-90847357D01*
X160381904Y-91304500D01*
X160381904Y-90809261D01*
D11*
X141986000Y-88900000D02*
X142875000Y-88900000D01*
X140716000Y-92075000D02*
X140716000Y-90170000D01*
X147320000Y-88900000D02*
X146685000Y-88900000D01*
D10*
X143797976Y-89515904D02*
X143797976Y-88715904D01*
X144102738Y-88715904D01*
X144178928Y-88754000D01*
X144217023Y-88792095D01*
X144255119Y-88868285D01*
X144255119Y-88982571D01*
X144217023Y-89058761D01*
X144178928Y-89096857D01*
X144102738Y-89134952D01*
X143797976Y-89134952D01*
X144521785Y-88715904D02*
X144712261Y-89515904D01*
X144864642Y-88944476D01*
X145017023Y-89515904D01*
X145207500Y-88715904D01*
X145969404Y-89515904D02*
X145702738Y-89134952D01*
X145512261Y-89515904D02*
X145512261Y-88715904D01*
X145817023Y-88715904D01*
X145893214Y-88754000D01*
X145931309Y-88792095D01*
X145969404Y-88868285D01*
X145969404Y-88982571D01*
X145931309Y-89058761D01*
X145893214Y-89096857D01*
X145817023Y-89134952D01*
X145512261Y-89134952D01*
D11*
X186690000Y-90170000D02*
X186690000Y-92075000D01*
X179324000Y-88900000D02*
X185420000Y-88900000D01*
X167640000Y-88900000D02*
X172974000Y-88900000D01*
X160020000Y-88900000D02*
X165100000Y-88900000D01*
X149860000Y-88900000D02*
X155575000Y-88900000D01*
D10*
X174227119Y-89439714D02*
X174189023Y-89477809D01*
X174074738Y-89515904D01*
X173998547Y-89515904D01*
X173884261Y-89477809D01*
X173808071Y-89401619D01*
X173769976Y-89325428D01*
X173731880Y-89173047D01*
X173731880Y-89058761D01*
X173769976Y-88906380D01*
X173808071Y-88830190D01*
X173884261Y-88754000D01*
X173998547Y-88715904D01*
X174074738Y-88715904D01*
X174189023Y-88754000D01*
X174227119Y-88792095D01*
X174684261Y-89515904D02*
X174608071Y-89477809D01*
X174569976Y-89439714D01*
X174531880Y-89363523D01*
X174531880Y-89134952D01*
X174569976Y-89058761D01*
X174608071Y-89020666D01*
X174684261Y-88982571D01*
X174798547Y-88982571D01*
X174874738Y-89020666D01*
X174912833Y-89058761D01*
X174950928Y-89134952D01*
X174950928Y-89363523D01*
X174912833Y-89439714D01*
X174874738Y-89477809D01*
X174798547Y-89515904D01*
X174684261Y-89515904D01*
X175408071Y-89515904D02*
X175331880Y-89477809D01*
X175293785Y-89401619D01*
X175293785Y-88715904D01*
X176055690Y-88982571D02*
X176055690Y-89515904D01*
X175712833Y-88982571D02*
X175712833Y-89401619D01*
X175750928Y-89477809D01*
X175827119Y-89515904D01*
X175941404Y-89515904D01*
X176017595Y-89477809D01*
X176055690Y-89439714D01*
X176436642Y-89515904D02*
X176436642Y-88982571D01*
X176436642Y-89058761D02*
X176474738Y-89020666D01*
X176550928Y-88982571D01*
X176665214Y-88982571D01*
X176741404Y-89020666D01*
X176779500Y-89096857D01*
X176779500Y-89515904D01*
X176779500Y-89096857D02*
X176817595Y-89020666D01*
X176893785Y-88982571D01*
X177008071Y-88982571D01*
X177084261Y-89020666D01*
X177122357Y-89096857D01*
X177122357Y-89515904D01*
X177503309Y-88982571D02*
X177503309Y-89515904D01*
X177503309Y-89058761D02*
X177541404Y-89020666D01*
X177617595Y-88982571D01*
X177731880Y-88982571D01*
X177808071Y-89020666D01*
X177846166Y-89096857D01*
X177846166Y-89515904D01*
X178189023Y-89477809D02*
X178265214Y-89515904D01*
X178417595Y-89515904D01*
X178493785Y-89477809D01*
X178531880Y-89401619D01*
X178531880Y-89363523D01*
X178493785Y-89287333D01*
X178417595Y-89249238D01*
X178303309Y-89249238D01*
X178227119Y-89211142D01*
X178189023Y-89134952D01*
X178189023Y-89096857D01*
X178227119Y-89020666D01*
X178303309Y-88982571D01*
X178417595Y-88982571D01*
X178493785Y-89020666D01*
X156955119Y-89515904D02*
X156688452Y-89134952D01*
X156497976Y-89515904D02*
X156497976Y-88715904D01*
X156802738Y-88715904D01*
X156878928Y-88754000D01*
X156917023Y-88792095D01*
X156955119Y-88868285D01*
X156955119Y-88982571D01*
X156917023Y-89058761D01*
X156878928Y-89096857D01*
X156802738Y-89134952D01*
X156497976Y-89134952D01*
X157412261Y-89515904D02*
X157336071Y-89477809D01*
X157297976Y-89439714D01*
X157259880Y-89363523D01*
X157259880Y-89134952D01*
X157297976Y-89058761D01*
X157336071Y-89020666D01*
X157412261Y-88982571D01*
X157526547Y-88982571D01*
X157602738Y-89020666D01*
X157640833Y-89058761D01*
X157678928Y-89134952D01*
X157678928Y-89363523D01*
X157640833Y-89439714D01*
X157602738Y-89477809D01*
X157526547Y-89515904D01*
X157412261Y-89515904D01*
X157945595Y-88982571D02*
X158097976Y-89515904D01*
X158250357Y-89134952D01*
X158402738Y-89515904D01*
X158555119Y-88982571D01*
X158821785Y-89477809D02*
X158897976Y-89515904D01*
X159050357Y-89515904D01*
X159126547Y-89477809D01*
X159164642Y-89401619D01*
X159164642Y-89363523D01*
X159126547Y-89287333D01*
X159050357Y-89249238D01*
X158936071Y-89249238D01*
X158859880Y-89211142D01*
X158821785Y-89134952D01*
X158821785Y-89096857D01*
X158859880Y-89020666D01*
X158936071Y-88982571D01*
X159050357Y-88982571D01*
X159126547Y-89020666D01*
X170122857Y-91914023D02*
X170122857Y-91647357D01*
X170541904Y-91533071D02*
X170541904Y-91914023D01*
X169741904Y-91914023D01*
X169741904Y-91533071D01*
X170541904Y-91075928D02*
X170503809Y-91152119D01*
X170465714Y-91190214D01*
X170389523Y-91228309D01*
X170160952Y-91228309D01*
X170084761Y-91190214D01*
X170046666Y-91152119D01*
X170008571Y-91075928D01*
X170008571Y-90961642D01*
X170046666Y-90885452D01*
X170084761Y-90847357D01*
X170160952Y-90809261D01*
X170389523Y-90809261D01*
X170465714Y-90847357D01*
X170503809Y-90885452D01*
X170541904Y-90961642D01*
X170541904Y-91075928D01*
X170541904Y-90009261D02*
X170160952Y-90275928D01*
X170541904Y-90466404D02*
X169741904Y-90466404D01*
X169741904Y-90161642D01*
X169780000Y-90085452D01*
X169818095Y-90047357D01*
X169894285Y-90009261D01*
X170008571Y-90009261D01*
X170084761Y-90047357D01*
X170122857Y-90085452D01*
X170160952Y-90161642D01*
X170160952Y-90466404D01*
X173081904Y-91914023D02*
X172281904Y-91914023D01*
X172281904Y-91723547D01*
X172320000Y-91609261D01*
X172396190Y-91533071D01*
X172472380Y-91494976D01*
X172624761Y-91456880D01*
X172739047Y-91456880D01*
X172891428Y-91494976D01*
X172967619Y-91533071D01*
X173043809Y-91609261D01*
X173081904Y-91723547D01*
X173081904Y-91914023D01*
X172853333Y-91152119D02*
X172853333Y-90771166D01*
X173081904Y-91228309D02*
X172281904Y-90961642D01*
X173081904Y-90694976D01*
X172281904Y-90542595D02*
X172281904Y-90085452D01*
X173081904Y-90314023D02*
X172281904Y-90314023D01*
X172853333Y-89856880D02*
X172853333Y-89475928D01*
X173081904Y-89933071D02*
X172281904Y-89666404D01*
X173081904Y-89399738D01*
X149802857Y-91914023D02*
X149802857Y-91647357D01*
X150221904Y-91533071D02*
X150221904Y-91914023D01*
X149421904Y-91914023D01*
X149421904Y-91533071D01*
X152761904Y-91914023D02*
X151961904Y-91914023D01*
X151961904Y-91723547D01*
X152000000Y-91609261D01*
X152076190Y-91533071D01*
X152152380Y-91494976D01*
X152304761Y-91456880D01*
X152419047Y-91456880D01*
X152571428Y-91494976D01*
X152647619Y-91533071D01*
X152723809Y-91609261D01*
X152761904Y-91723547D01*
X152761904Y-91914023D01*
X152533333Y-91152119D02*
X152533333Y-90771166D01*
X152761904Y-91228309D02*
X151961904Y-90961642D01*
X152761904Y-90694976D01*
X151961904Y-90542595D02*
X151961904Y-90085452D01*
X152761904Y-90314023D02*
X151961904Y-90314023D01*
X152533333Y-89856880D02*
X152533333Y-89475928D01*
X152761904Y-89933071D02*
X151961904Y-89666404D01*
X152761904Y-89399738D01*
X167582857Y-91914023D02*
X167582857Y-91647357D01*
X168001904Y-91533071D02*
X168001904Y-91914023D01*
X167201904Y-91914023D01*
X167201904Y-91533071D01*
X168001904Y-91190214D02*
X167468571Y-91190214D01*
X167544761Y-91190214D02*
X167506666Y-91152119D01*
X167468571Y-91075928D01*
X167468571Y-90961642D01*
X167506666Y-90885452D01*
X167582857Y-90847357D01*
X168001904Y-90847357D01*
X167582857Y-90847357D02*
X167506666Y-90809261D01*
X167468571Y-90733071D01*
X167468571Y-90618785D01*
X167506666Y-90542595D01*
X167582857Y-90504500D01*
X168001904Y-90504500D01*
X168001904Y-89666404D02*
X167620952Y-89933071D01*
X168001904Y-90123547D02*
X167201904Y-90123547D01*
X167201904Y-89818785D01*
X167240000Y-89742595D01*
X167278095Y-89704500D01*
X167354285Y-89666404D01*
X167468571Y-89666404D01*
X167544761Y-89704500D01*
X167582857Y-89742595D01*
X167620952Y-89818785D01*
X167620952Y-90123547D01*
X185362857Y-91647357D02*
X185400952Y-91533071D01*
X185439047Y-91494976D01*
X185515238Y-91456880D01*
X185629523Y-91456880D01*
X185705714Y-91494976D01*
X185743809Y-91533071D01*
X185781904Y-91609261D01*
X185781904Y-91914023D01*
X184981904Y-91914023D01*
X184981904Y-91647357D01*
X185020000Y-91571166D01*
X185058095Y-91533071D01*
X185134285Y-91494976D01*
X185210476Y-91494976D01*
X185286666Y-91533071D01*
X185324761Y-91571166D01*
X185362857Y-91647357D01*
X185362857Y-91914023D01*
X185781904Y-90694976D02*
X185781904Y-91152119D01*
X185781904Y-90923547D02*
X184981904Y-90923547D01*
X185096190Y-90999738D01*
X185172380Y-91075928D01*
X185210476Y-91152119D01*
X182822857Y-91647357D02*
X182860952Y-91533071D01*
X182899047Y-91494976D01*
X182975238Y-91456880D01*
X183089523Y-91456880D01*
X183165714Y-91494976D01*
X183203809Y-91533071D01*
X183241904Y-91609261D01*
X183241904Y-91914023D01*
X182441904Y-91914023D01*
X182441904Y-91647357D01*
X182480000Y-91571166D01*
X182518095Y-91533071D01*
X182594285Y-91494976D01*
X182670476Y-91494976D01*
X182746666Y-91533071D01*
X182784761Y-91571166D01*
X182822857Y-91647357D01*
X182822857Y-91914023D01*
X182441904Y-90961642D02*
X182441904Y-90885452D01*
X182480000Y-90809261D01*
X182518095Y-90771166D01*
X182594285Y-90733071D01*
X182746666Y-90694976D01*
X182937142Y-90694976D01*
X183089523Y-90733071D01*
X183165714Y-90771166D01*
X183203809Y-90809261D01*
X183241904Y-90885452D01*
X183241904Y-90961642D01*
X183203809Y-91037833D01*
X183165714Y-91075928D01*
X183089523Y-91114023D01*
X182937142Y-91152119D01*
X182746666Y-91152119D01*
X182594285Y-91114023D01*
X182518095Y-91075928D01*
X182480000Y-91037833D01*
X182441904Y-90961642D01*
X180473333Y-91952119D02*
X180473333Y-91571166D01*
X180701904Y-92028309D02*
X179901904Y-91761642D01*
X180701904Y-91494976D01*
X179978095Y-91266404D02*
X179940000Y-91228309D01*
X179901904Y-91152119D01*
X179901904Y-90961642D01*
X179940000Y-90885452D01*
X179978095Y-90847357D01*
X180054285Y-90809261D01*
X180130476Y-90809261D01*
X180244761Y-90847357D01*
X180701904Y-91304500D01*
X180701904Y-90809261D01*
X177933333Y-91952119D02*
X177933333Y-91571166D01*
X178161904Y-92028309D02*
X177361904Y-91761642D01*
X178161904Y-91494976D01*
X178161904Y-90809261D02*
X178161904Y-91266404D01*
X178161904Y-91037833D02*
X177361904Y-91037833D01*
X177476190Y-91114023D01*
X177552380Y-91190214D01*
X177590476Y-91266404D01*
X175393333Y-91952119D02*
X175393333Y-91571166D01*
X175621904Y-92028309D02*
X174821904Y-91761642D01*
X175621904Y-91494976D01*
X174821904Y-91075928D02*
X174821904Y-90999738D01*
X174860000Y-90923547D01*
X174898095Y-90885452D01*
X174974285Y-90847357D01*
X175126666Y-90809261D01*
X175317142Y-90809261D01*
X175469523Y-90847357D01*
X175545714Y-90885452D01*
X175583809Y-90923547D01*
X175621904Y-90999738D01*
X175621904Y-91075928D01*
X175583809Y-91152119D01*
X175545714Y-91190214D01*
X175469523Y-91228309D01*
X175317142Y-91266404D01*
X175126666Y-91266404D01*
X174974285Y-91228309D01*
X174898095Y-91190214D01*
X174860000Y-91152119D01*
X174821904Y-91075928D01*
X165042857Y-91647357D02*
X165080952Y-91533071D01*
X165119047Y-91494976D01*
X165195238Y-91456880D01*
X165309523Y-91456880D01*
X165385714Y-91494976D01*
X165423809Y-91533071D01*
X165461904Y-91609261D01*
X165461904Y-91914023D01*
X164661904Y-91914023D01*
X164661904Y-91647357D01*
X164700000Y-91571166D01*
X164738095Y-91533071D01*
X164814285Y-91494976D01*
X164890476Y-91494976D01*
X164966666Y-91533071D01*
X165004761Y-91571166D01*
X165042857Y-91647357D01*
X165042857Y-91914023D01*
X165461904Y-90694976D02*
X165461904Y-91152119D01*
X165461904Y-90923547D02*
X164661904Y-90923547D01*
X164776190Y-90999738D01*
X164852380Y-91075928D01*
X164890476Y-91152119D01*
X162502857Y-91647357D02*
X162540952Y-91533071D01*
X162579047Y-91494976D01*
X162655238Y-91456880D01*
X162769523Y-91456880D01*
X162845714Y-91494976D01*
X162883809Y-91533071D01*
X162921904Y-91609261D01*
X162921904Y-91914023D01*
X162121904Y-91914023D01*
X162121904Y-91647357D01*
X162160000Y-91571166D01*
X162198095Y-91533071D01*
X162274285Y-91494976D01*
X162350476Y-91494976D01*
X162426666Y-91533071D01*
X162464761Y-91571166D01*
X162502857Y-91647357D01*
X162502857Y-91914023D01*
X162121904Y-90961642D02*
X162121904Y-90885452D01*
X162160000Y-90809261D01*
X162198095Y-90771166D01*
X162274285Y-90733071D01*
X162426666Y-90694976D01*
X162617142Y-90694976D01*
X162769523Y-90733071D01*
X162845714Y-90771166D01*
X162883809Y-90809261D01*
X162921904Y-90885452D01*
X162921904Y-90961642D01*
X162883809Y-91037833D01*
X162845714Y-91075928D01*
X162769523Y-91114023D01*
X162617142Y-91152119D01*
X162426666Y-91152119D01*
X162274285Y-91114023D01*
X162198095Y-91075928D01*
X162160000Y-91037833D01*
X162121904Y-90961642D01*
X157613333Y-91952119D02*
X157613333Y-91571166D01*
X157841904Y-92028309D02*
X157041904Y-91761642D01*
X157841904Y-91494976D01*
X157841904Y-90809261D02*
X157841904Y-91266404D01*
X157841904Y-91037833D02*
X157041904Y-91037833D01*
X157156190Y-91114023D01*
X157232380Y-91190214D01*
X157270476Y-91266404D01*
X155073333Y-91952119D02*
X155073333Y-91571166D01*
X155301904Y-92028309D02*
X154501904Y-91761642D01*
X155301904Y-91494976D01*
X154501904Y-91075928D02*
X154501904Y-90999738D01*
X154540000Y-90923547D01*
X154578095Y-90885452D01*
X154654285Y-90847357D01*
X154806666Y-90809261D01*
X154997142Y-90809261D01*
X155149523Y-90847357D01*
X155225714Y-90885452D01*
X155263809Y-90923547D01*
X155301904Y-90999738D01*
X155301904Y-91075928D01*
X155263809Y-91152119D01*
X155225714Y-91190214D01*
X155149523Y-91228309D01*
X154997142Y-91266404D01*
X154806666Y-91266404D01*
X154654285Y-91228309D01*
X154578095Y-91190214D01*
X154540000Y-91152119D01*
X154501904Y-91075928D01*
X146881904Y-92028309D02*
X147681904Y-91761642D01*
X146881904Y-91494976D01*
X147681904Y-91228309D02*
X146881904Y-91228309D01*
X147681904Y-90847357D02*
X146881904Y-90847357D01*
X147681904Y-90390214D01*
X146881904Y-90390214D01*
X144341904Y-91531071D02*
X144341904Y-91912023D01*
X144722857Y-91950119D01*
X144684761Y-91912023D01*
X144646666Y-91835833D01*
X144646666Y-91645357D01*
X144684761Y-91569166D01*
X144722857Y-91531071D01*
X144799047Y-91492976D01*
X144989523Y-91492976D01*
X145065714Y-91531071D01*
X145103809Y-91569166D01*
X145141904Y-91645357D01*
X145141904Y-91835833D01*
X145103809Y-91912023D01*
X145065714Y-91950119D01*
X144341904Y-91264404D02*
X145141904Y-90997738D01*
X144341904Y-90731071D01*
X141840000Y-91492976D02*
X141801904Y-91569166D01*
X141801904Y-91683452D01*
X141840000Y-91797738D01*
X141916190Y-91873928D01*
X141992380Y-91912023D01*
X142144761Y-91950119D01*
X142259047Y-91950119D01*
X142411428Y-91912023D01*
X142487619Y-91873928D01*
X142563809Y-91797738D01*
X142601904Y-91683452D01*
X142601904Y-91607261D01*
X142563809Y-91492976D01*
X142525714Y-91454880D01*
X142259047Y-91454880D01*
X142259047Y-91607261D01*
X142601904Y-91112023D02*
X141801904Y-91112023D01*
X142601904Y-90654880D01*
X141801904Y-90654880D01*
X142601904Y-90273928D02*
X141801904Y-90273928D01*
X141801904Y-90083452D01*
X141840000Y-89969166D01*
X141916190Y-89892976D01*
X141992380Y-89854880D01*
X142144761Y-89816785D01*
X142259047Y-89816785D01*
X142411428Y-89854880D01*
X142487619Y-89892976D01*
X142563809Y-89969166D01*
X142601904Y-90083452D01*
X142601904Y-90273928D01*
D12*
G04 #@! TO.C,R2*
X144180000Y-100040000D02*
X144180000Y-100370000D01*
X144180000Y-100370000D02*
X137760000Y-100370000D01*
X137760000Y-100370000D02*
X137760000Y-100040000D01*
X144180000Y-98080000D02*
X144180000Y-97750000D01*
X144180000Y-97750000D02*
X137760000Y-97750000D01*
X137760000Y-97750000D02*
X137760000Y-98080000D01*
D13*
G04 #@! TO.C,IC1*
X113030000Y-110490000D02*
X112014000Y-110490000D01*
X113030000Y-113030000D02*
X112014000Y-113030000D01*
D14*
X113030000Y-113030000D02*
G75*
G03X114300000Y-111760000I0J1270000D01*
G01*
X114300000Y-111760000D02*
G75*
G03X113030000Y-110490000I-1270000J0D01*
G01*
D13*
X113030000Y-110490000D02*
X113030000Y-113030000D01*
D14*
X116078000Y-106680000D02*
X116078000Y-116840000D01*
X160782000Y-106680000D02*
X160782000Y-116840000D01*
X139700000Y-116840000D02*
X139700000Y-106680000D01*
X137160000Y-106680000D02*
X137160000Y-116840000D01*
D13*
X112014000Y-104648000D02*
X112014000Y-118872000D01*
X113030000Y-120650000D02*
X113030000Y-102870000D01*
X163830000Y-102870000D02*
X163830000Y-120650000D01*
X164846000Y-118872000D02*
X164846000Y-104648000D01*
X164846000Y-104648000D02*
X112014000Y-104648000D01*
X113030000Y-102870000D02*
X163830000Y-102870000D01*
X164846000Y-118872000D02*
X112014000Y-118872000D01*
X113030000Y-120650000D02*
X163830000Y-120650000D01*
D14*
X160782000Y-116840000D02*
X116078000Y-116840000D01*
X116078000Y-106680000D02*
X160782000Y-106680000D01*
D10*
G04 #@! TO.C,PWR_SW1*
X121000000Y-88488000D02*
X121000000Y-100488000D01*
X121000000Y-100488000D02*
X133000000Y-100488000D01*
X133000000Y-100488000D02*
X133000000Y-88488000D01*
X133000000Y-88488000D02*
X121000000Y-88488000D01*
D15*
G04 #@! TO.C,I1*
X188670000Y-133840000D02*
X188670000Y-125240000D01*
X105970000Y-133840000D02*
X105970000Y-125240000D01*
X188670000Y-125240000D02*
X105970000Y-125240000D01*
X105970000Y-133840000D02*
X188670000Y-133840000D01*
X183120000Y-133840000D02*
X183120000Y-125240000D01*
X111520000Y-133840000D02*
X111520000Y-125240000D01*
D16*
X145020000Y-125340000D02*
X145020000Y-126240000D01*
X145020000Y-126240000D02*
X149620000Y-126240000D01*
X149620000Y-126240000D02*
X149620000Y-125340000D01*
D10*
G04 #@! TO.C,PWR1*
X118800880Y-88201500D02*
X109799120Y-88201500D01*
X109799120Y-88201500D02*
X109799120Y-99202240D01*
X109799120Y-99202240D02*
X118800880Y-99202240D01*
X118800880Y-99202240D02*
X118800880Y-88201500D01*
D12*
G04 #@! TO.C,C1*
X149350000Y-96680000D02*
X152870000Y-96680000D01*
X149350000Y-98900000D02*
X152870000Y-98900000D01*
X149350000Y-96680000D02*
X149350000Y-96794000D01*
X149350000Y-98786000D02*
X149350000Y-98900000D01*
X152870000Y-96680000D02*
X152870000Y-96794000D01*
X152870000Y-98786000D02*
X152870000Y-98900000D01*
G04 #@! TO.C,C2*
X174610000Y-103200000D02*
X175910000Y-103200000D01*
X175260000Y-103800000D02*
X175260000Y-102600000D01*
X174906000Y-97789000D02*
X175614000Y-97789000D01*
X174701000Y-97829000D02*
X175819000Y-97829000D01*
X174553000Y-97869000D02*
X175967000Y-97869000D01*
X174431000Y-97909000D02*
X176089000Y-97909000D01*
X174326000Y-97949000D02*
X176194000Y-97949000D01*
X174232000Y-97989000D02*
X176288000Y-97989000D01*
X174148000Y-98029000D02*
X176372000Y-98029000D01*
X174071000Y-98069000D02*
X176449000Y-98069000D01*
X173999000Y-98109000D02*
X176521000Y-98109000D01*
X176240000Y-98149000D02*
X176587000Y-98149000D01*
X173933000Y-98149000D02*
X174280000Y-98149000D01*
X176240000Y-98189000D02*
X176650000Y-98189000D01*
X173870000Y-98189000D02*
X174280000Y-98189000D01*
X176240000Y-98229000D02*
X176708000Y-98229000D01*
X173812000Y-98229000D02*
X174280000Y-98229000D01*
X176240000Y-98269000D02*
X176764000Y-98269000D01*
X173756000Y-98269000D02*
X174280000Y-98269000D01*
X176240000Y-98309000D02*
X176816000Y-98309000D01*
X173704000Y-98309000D02*
X174280000Y-98309000D01*
X176240000Y-98349000D02*
X176866000Y-98349000D01*
X173654000Y-98349000D02*
X174280000Y-98349000D01*
X176240000Y-98389000D02*
X176914000Y-98389000D01*
X173606000Y-98389000D02*
X174280000Y-98389000D01*
X176240000Y-98429000D02*
X176959000Y-98429000D01*
X173561000Y-98429000D02*
X174280000Y-98429000D01*
X176240000Y-98469000D02*
X177002000Y-98469000D01*
X173518000Y-98469000D02*
X174280000Y-98469000D01*
X176240000Y-98509000D02*
X177043000Y-98509000D01*
X173477000Y-98509000D02*
X174280000Y-98509000D01*
X176240000Y-98549000D02*
X177083000Y-98549000D01*
X173437000Y-98549000D02*
X174280000Y-98549000D01*
X176240000Y-98589000D02*
X177121000Y-98589000D01*
X173399000Y-98589000D02*
X174280000Y-98589000D01*
X176240000Y-98629000D02*
X177157000Y-98629000D01*
X173363000Y-98629000D02*
X174280000Y-98629000D01*
X176240000Y-98669000D02*
X177192000Y-98669000D01*
X173328000Y-98669000D02*
X174280000Y-98669000D01*
X176240000Y-98709000D02*
X177225000Y-98709000D01*
X173295000Y-98709000D02*
X174280000Y-98709000D01*
X176240000Y-98749000D02*
X177257000Y-98749000D01*
X173263000Y-98749000D02*
X174280000Y-98749000D01*
X176240000Y-98789000D02*
X177288000Y-98789000D01*
X173232000Y-98789000D02*
X174280000Y-98789000D01*
X176240000Y-98829000D02*
X177318000Y-98829000D01*
X173202000Y-98829000D02*
X174280000Y-98829000D01*
X176240000Y-98869000D02*
X177346000Y-98869000D01*
X173174000Y-98869000D02*
X174280000Y-98869000D01*
X176240000Y-98909000D02*
X177373000Y-98909000D01*
X173147000Y-98909000D02*
X174280000Y-98909000D01*
X176240000Y-98949000D02*
X177400000Y-98949000D01*
X173120000Y-98949000D02*
X174280000Y-98949000D01*
X176240000Y-98989000D02*
X177425000Y-98989000D01*
X173095000Y-98989000D02*
X174280000Y-98989000D01*
X176240000Y-99029000D02*
X177449000Y-99029000D01*
X173071000Y-99029000D02*
X174280000Y-99029000D01*
X176240000Y-99069000D02*
X177472000Y-99069000D01*
X173048000Y-99069000D02*
X174280000Y-99069000D01*
X176240000Y-99109000D02*
X177494000Y-99109000D01*
X173026000Y-99109000D02*
X174280000Y-99109000D01*
X176240000Y-99149000D02*
X177516000Y-99149000D01*
X173004000Y-99149000D02*
X174280000Y-99149000D01*
X176240000Y-99189000D02*
X177536000Y-99189000D01*
X172984000Y-99189000D02*
X174280000Y-99189000D01*
X176240000Y-99229000D02*
X177556000Y-99229000D01*
X172964000Y-99229000D02*
X174280000Y-99229000D01*
X176240000Y-99269000D02*
X177575000Y-99269000D01*
X172945000Y-99269000D02*
X174280000Y-99269000D01*
X176240000Y-99309000D02*
X177593000Y-99309000D01*
X172927000Y-99309000D02*
X174280000Y-99309000D01*
X176240000Y-99349000D02*
X177610000Y-99349000D01*
X172910000Y-99349000D02*
X174280000Y-99349000D01*
X176240000Y-99389000D02*
X177626000Y-99389000D01*
X172894000Y-99389000D02*
X174280000Y-99389000D01*
X176240000Y-99429000D02*
X177642000Y-99429000D01*
X172878000Y-99429000D02*
X174280000Y-99429000D01*
X176240000Y-99469000D02*
X177656000Y-99469000D01*
X172864000Y-99469000D02*
X174280000Y-99469000D01*
X176240000Y-99509000D02*
X177670000Y-99509000D01*
X172850000Y-99509000D02*
X174280000Y-99509000D01*
X176240000Y-99549000D02*
X177684000Y-99549000D01*
X172836000Y-99549000D02*
X174280000Y-99549000D01*
X176240000Y-99589000D02*
X177696000Y-99589000D01*
X172824000Y-99589000D02*
X174280000Y-99589000D01*
X176240000Y-99629000D02*
X177708000Y-99629000D01*
X172812000Y-99629000D02*
X174280000Y-99629000D01*
X176240000Y-99670000D02*
X177720000Y-99670000D01*
X172800000Y-99670000D02*
X174280000Y-99670000D01*
X176240000Y-99710000D02*
X177730000Y-99710000D01*
X172790000Y-99710000D02*
X174280000Y-99710000D01*
X176240000Y-99750000D02*
X177740000Y-99750000D01*
X172780000Y-99750000D02*
X174280000Y-99750000D01*
X176240000Y-99790000D02*
X177749000Y-99790000D01*
X172771000Y-99790000D02*
X174280000Y-99790000D01*
X176240000Y-99830000D02*
X177758000Y-99830000D01*
X172762000Y-99830000D02*
X174280000Y-99830000D01*
X176240000Y-99870000D02*
X177766000Y-99870000D01*
X172754000Y-99870000D02*
X174280000Y-99870000D01*
X176240000Y-99910000D02*
X177773000Y-99910000D01*
X172747000Y-99910000D02*
X174280000Y-99910000D01*
X176240000Y-99950000D02*
X177779000Y-99950000D01*
X172741000Y-99950000D02*
X174280000Y-99950000D01*
X176240000Y-99990000D02*
X177785000Y-99990000D01*
X172735000Y-99990000D02*
X174280000Y-99990000D01*
X176240000Y-100030000D02*
X177791000Y-100030000D01*
X172729000Y-100030000D02*
X174280000Y-100030000D01*
X176240000Y-100070000D02*
X177795000Y-100070000D01*
X172725000Y-100070000D02*
X174280000Y-100070000D01*
X172721000Y-100110000D02*
X177799000Y-100110000D01*
X172717000Y-100150000D02*
X177803000Y-100150000D01*
X172714000Y-100190000D02*
X177806000Y-100190000D01*
X172712000Y-100230000D02*
X177808000Y-100230000D01*
X172711000Y-100270000D02*
X177809000Y-100270000D01*
X172710000Y-100310000D02*
X177810000Y-100310000D01*
X172710000Y-100350000D02*
X177810000Y-100350000D01*
X176439723Y-98044278D02*
G75*
G03X174080000Y-98044420I-1179723J-2305722D01*
G01*
X176439723Y-98044278D02*
G75*
G02X176440000Y-102655580I-1179723J-2305722D01*
G01*
X174080277Y-98044278D02*
G75*
G03X174080000Y-102655580I1179723J-2305722D01*
G01*
G04 #@! TO.C,C3*
X160490000Y-123932000D02*
X160490000Y-124046000D01*
X160490000Y-121826000D02*
X160490000Y-121940000D01*
X156970000Y-123932000D02*
X156970000Y-124046000D01*
X156970000Y-121826000D02*
X156970000Y-121940000D01*
X156970000Y-124046000D02*
X160490000Y-124046000D01*
X156970000Y-121826000D02*
X160490000Y-121826000D01*
G04 #@! TO.C,I2*
X140910000Y-95373500D02*
X140910000Y-94043500D01*
X142240000Y-95373500D02*
X140910000Y-95373500D01*
X143510000Y-92713500D02*
X143510000Y-95373500D01*
X186750000Y-92713500D02*
X143510000Y-92713500D01*
X186750000Y-95373500D02*
X186750000Y-92713500D01*
X143510000Y-95373500D02*
X186750000Y-95373500D01*
G04 #@! TO.C,LED1*
X134346000Y-92435000D02*
X134346000Y-95525000D01*
X139406000Y-93980000D02*
G75*
G03X139406000Y-93980000I-2500000J0D01*
G01*
X139896000Y-93979538D02*
G75*
G02X134346000Y-95524830I-2990000J-462D01*
G01*
X139896000Y-93980462D02*
G75*
G03X134346000Y-92435170I-2990000J462D01*
G01*
G04 #@! TO.C,R1*
X161960000Y-99100000D02*
X161960000Y-98770000D01*
X155540000Y-99100000D02*
X161960000Y-99100000D01*
X155540000Y-98770000D02*
X155540000Y-99100000D01*
X161960000Y-96480000D02*
X161960000Y-96810000D01*
X155540000Y-96480000D02*
X161960000Y-96480000D01*
X155540000Y-96810000D02*
X155540000Y-96480000D01*
G04 #@! TO.C,U1*
X181220000Y-104919000D02*
X181220000Y-112769000D01*
X181220000Y-112769000D02*
X169280000Y-112769000D01*
X169280000Y-112769000D02*
X169280000Y-104919000D01*
X169280000Y-104919000D02*
X181220000Y-104919000D01*
X181550000Y-107039000D02*
X181550000Y-104589000D01*
X181550000Y-104589000D02*
X179220000Y-104589000D01*
G04 #@! TO.C,R2*
D10*
X134707333Y-99512380D02*
X134374000Y-99036190D01*
X134135904Y-99512380D02*
X134135904Y-98512380D01*
X134516857Y-98512380D01*
X134612095Y-98560000D01*
X134659714Y-98607619D01*
X134707333Y-98702857D01*
X134707333Y-98845714D01*
X134659714Y-98940952D01*
X134612095Y-98988571D01*
X134516857Y-99036190D01*
X134135904Y-99036190D01*
X135088285Y-98607619D02*
X135135904Y-98560000D01*
X135231142Y-98512380D01*
X135469238Y-98512380D01*
X135564476Y-98560000D01*
X135612095Y-98607619D01*
X135659714Y-98702857D01*
X135659714Y-98798095D01*
X135612095Y-98940952D01*
X135040666Y-99512380D01*
X135659714Y-99512380D01*
G04 #@! TO.C,IC1*
X109513809Y-112212380D02*
X109513809Y-111212380D01*
X110561428Y-112117142D02*
X110513809Y-112164761D01*
X110370952Y-112212380D01*
X110275714Y-112212380D01*
X110132857Y-112164761D01*
X110037619Y-112069523D01*
X109990000Y-111974285D01*
X109942380Y-111783809D01*
X109942380Y-111640952D01*
X109990000Y-111450476D01*
X110037619Y-111355238D01*
X110132857Y-111260000D01*
X110275714Y-111212380D01*
X110370952Y-111212380D01*
X110513809Y-111260000D01*
X110561428Y-111307619D01*
X111513809Y-112212380D02*
X110942380Y-112212380D01*
X111228095Y-112212380D02*
X111228095Y-111212380D01*
X111132857Y-111355238D01*
X111037619Y-111450476D01*
X110942380Y-111498095D01*
D11*
X122928571Y-111652857D02*
X122428571Y-111652857D01*
X122428571Y-112438571D02*
X122428571Y-110938571D01*
X123142857Y-110938571D01*
X123714285Y-112438571D02*
X123714285Y-110938571D01*
X124285714Y-110938571D01*
X124428571Y-111010000D01*
X124500000Y-111081428D01*
X124571428Y-111224285D01*
X124571428Y-111438571D01*
X124500000Y-111581428D01*
X124428571Y-111652857D01*
X124285714Y-111724285D01*
X123714285Y-111724285D01*
X125142857Y-111081428D02*
X125214285Y-111010000D01*
X125357142Y-110938571D01*
X125714285Y-110938571D01*
X125857142Y-111010000D01*
X125928571Y-111081428D01*
X126000000Y-111224285D01*
X126000000Y-111367142D01*
X125928571Y-111581428D01*
X125071428Y-112438571D01*
X126000000Y-112438571D01*
X126857142Y-111581428D02*
X126714285Y-111510000D01*
X126642857Y-111438571D01*
X126571428Y-111295714D01*
X126571428Y-111224285D01*
X126642857Y-111081428D01*
X126714285Y-111010000D01*
X126857142Y-110938571D01*
X127142857Y-110938571D01*
X127285714Y-111010000D01*
X127357142Y-111081428D01*
X127428571Y-111224285D01*
X127428571Y-111295714D01*
X127357142Y-111438571D01*
X127285714Y-111510000D01*
X127142857Y-111581428D01*
X126857142Y-111581428D01*
X126714285Y-111652857D01*
X126642857Y-111724285D01*
X126571428Y-111867142D01*
X126571428Y-112152857D01*
X126642857Y-112295714D01*
X126714285Y-112367142D01*
X126857142Y-112438571D01*
X127142857Y-112438571D01*
X127285714Y-112367142D01*
X127357142Y-112295714D01*
X127428571Y-112152857D01*
X127428571Y-111867142D01*
X127357142Y-111724285D01*
X127285714Y-111652857D01*
X127142857Y-111581428D01*
X128357142Y-110938571D02*
X128500000Y-110938571D01*
X128642857Y-111010000D01*
X128714285Y-111081428D01*
X128785714Y-111224285D01*
X128857142Y-111510000D01*
X128857142Y-111867142D01*
X128785714Y-112152857D01*
X128714285Y-112295714D01*
X128642857Y-112367142D01*
X128500000Y-112438571D01*
X128357142Y-112438571D01*
X128214285Y-112367142D01*
X128142857Y-112295714D01*
X128071428Y-112152857D01*
X128000000Y-111867142D01*
X128000000Y-111510000D01*
X128071428Y-111224285D01*
X128142857Y-111081428D01*
X128214285Y-111010000D01*
X128357142Y-110938571D01*
X129785714Y-110938571D02*
X129928571Y-110938571D01*
X130071428Y-111010000D01*
X130142857Y-111081428D01*
X130214285Y-111224285D01*
X130285714Y-111510000D01*
X130285714Y-111867142D01*
X130214285Y-112152857D01*
X130142857Y-112295714D01*
X130071428Y-112367142D01*
X129928571Y-112438571D01*
X129785714Y-112438571D01*
X129642857Y-112367142D01*
X129571428Y-112295714D01*
X129500000Y-112152857D01*
X129428571Y-111867142D01*
X129428571Y-111510000D01*
X129500000Y-111224285D01*
X129571428Y-111081428D01*
X129642857Y-111010000D01*
X129785714Y-110938571D01*
X131571428Y-112438571D02*
X131571428Y-111652857D01*
X131500000Y-111510000D01*
X131357142Y-111438571D01*
X131071428Y-111438571D01*
X130928571Y-111510000D01*
X131571428Y-112367142D02*
X131428571Y-112438571D01*
X131071428Y-112438571D01*
X130928571Y-112367142D01*
X130857142Y-112224285D01*
X130857142Y-112081428D01*
X130928571Y-111938571D01*
X131071428Y-111867142D01*
X131428571Y-111867142D01*
X131571428Y-111795714D01*
G04 #@! TO.C,I1*
D17*
X146843809Y-124277380D02*
X146843809Y-123277380D01*
X147843809Y-124277380D02*
X147272380Y-124277380D01*
X147558095Y-124277380D02*
X147558095Y-123277380D01*
X147462857Y-123420238D01*
X147367619Y-123515476D01*
X147272380Y-123563095D01*
G04 #@! TO.C,C1*
D10*
X147661333Y-98147142D02*
X147613714Y-98194761D01*
X147470857Y-98242380D01*
X147375619Y-98242380D01*
X147232761Y-98194761D01*
X147137523Y-98099523D01*
X147089904Y-98004285D01*
X147042285Y-97813809D01*
X147042285Y-97670952D01*
X147089904Y-97480476D01*
X147137523Y-97385238D01*
X147232761Y-97290000D01*
X147375619Y-97242380D01*
X147470857Y-97242380D01*
X147613714Y-97290000D01*
X147661333Y-97337619D01*
X148613714Y-98242380D02*
X148042285Y-98242380D01*
X148328000Y-98242380D02*
X148328000Y-97242380D01*
X148232761Y-97385238D01*
X148137523Y-97480476D01*
X148042285Y-97528095D01*
G04 #@! TO.C,C2*
X175093333Y-96877142D02*
X175045714Y-96924761D01*
X174902857Y-96972380D01*
X174807619Y-96972380D01*
X174664761Y-96924761D01*
X174569523Y-96829523D01*
X174521904Y-96734285D01*
X174474285Y-96543809D01*
X174474285Y-96400952D01*
X174521904Y-96210476D01*
X174569523Y-96115238D01*
X174664761Y-96020000D01*
X174807619Y-95972380D01*
X174902857Y-95972380D01*
X175045714Y-96020000D01*
X175093333Y-96067619D01*
X175474285Y-96067619D02*
X175521904Y-96020000D01*
X175617142Y-95972380D01*
X175855238Y-95972380D01*
X175950476Y-96020000D01*
X175998095Y-96067619D01*
X176045714Y-96162857D01*
X176045714Y-96258095D01*
X175998095Y-96400952D01*
X175426666Y-96972380D01*
X176045714Y-96972380D01*
G04 #@! TO.C,C3*
X154773333Y-123293142D02*
X154725714Y-123340761D01*
X154582857Y-123388380D01*
X154487619Y-123388380D01*
X154344761Y-123340761D01*
X154249523Y-123245523D01*
X154201904Y-123150285D01*
X154154285Y-122959809D01*
X154154285Y-122816952D01*
X154201904Y-122626476D01*
X154249523Y-122531238D01*
X154344761Y-122436000D01*
X154487619Y-122388380D01*
X154582857Y-122388380D01*
X154725714Y-122436000D01*
X154773333Y-122483619D01*
X155106666Y-122388380D02*
X155725714Y-122388380D01*
X155392380Y-122769333D01*
X155535238Y-122769333D01*
X155630476Y-122816952D01*
X155678095Y-122864571D01*
X155725714Y-122959809D01*
X155725714Y-123197904D01*
X155678095Y-123293142D01*
X155630476Y-123340761D01*
X155535238Y-123388380D01*
X155249523Y-123388380D01*
X155154285Y-123340761D01*
X155106666Y-123293142D01*
G04 #@! TO.C,I2*
X187483809Y-94495880D02*
X187483809Y-93495880D01*
X187912380Y-93591119D02*
X187960000Y-93543500D01*
X188055238Y-93495880D01*
X188293333Y-93495880D01*
X188388571Y-93543500D01*
X188436190Y-93591119D01*
X188483809Y-93686357D01*
X188483809Y-93781595D01*
X188436190Y-93924452D01*
X187864761Y-94495880D01*
X188483809Y-94495880D01*
G04 #@! TO.C,LED1*
X136040952Y-90368380D02*
X135564761Y-90368380D01*
X135564761Y-89368380D01*
X136374285Y-89844571D02*
X136707619Y-89844571D01*
X136850476Y-90368380D02*
X136374285Y-90368380D01*
X136374285Y-89368380D01*
X136850476Y-89368380D01*
X137279047Y-90368380D02*
X137279047Y-89368380D01*
X137517142Y-89368380D01*
X137660000Y-89416000D01*
X137755238Y-89511238D01*
X137802857Y-89606476D01*
X137850476Y-89796952D01*
X137850476Y-89939809D01*
X137802857Y-90130285D01*
X137755238Y-90225523D01*
X137660000Y-90320761D01*
X137517142Y-90368380D01*
X137279047Y-90368380D01*
X138802857Y-90368380D02*
X138231428Y-90368380D01*
X138517142Y-90368380D02*
X138517142Y-89368380D01*
X138421904Y-89511238D01*
X138326666Y-89606476D01*
X138231428Y-89654095D01*
G04 #@! TO.C,R1*
X164679333Y-98242380D02*
X164346000Y-97766190D01*
X164107904Y-98242380D02*
X164107904Y-97242380D01*
X164488857Y-97242380D01*
X164584095Y-97290000D01*
X164631714Y-97337619D01*
X164679333Y-97432857D01*
X164679333Y-97575714D01*
X164631714Y-97670952D01*
X164584095Y-97718571D01*
X164488857Y-97766190D01*
X164107904Y-97766190D01*
X165631714Y-98242380D02*
X165060285Y-98242380D01*
X165346000Y-98242380D02*
X165346000Y-97242380D01*
X165250761Y-97385238D01*
X165155523Y-97480476D01*
X165060285Y-97528095D01*
G04 #@! TO.C,U1*
X174498095Y-113201380D02*
X174498095Y-114010904D01*
X174545714Y-114106142D01*
X174593333Y-114153761D01*
X174688571Y-114201380D01*
X174879047Y-114201380D01*
X174974285Y-114153761D01*
X175021904Y-114106142D01*
X175069523Y-114010904D01*
X175069523Y-113201380D01*
X176069523Y-114201380D02*
X175498095Y-114201380D01*
X175783809Y-114201380D02*
X175783809Y-113201380D01*
X175688571Y-113344238D01*
X175593333Y-113439476D01*
X175498095Y-113487095D01*
G04 #@! TD*
M02*
