G04 #@! TF.GenerationSoftware,KiCad,Pcbnew,(5.0.0-rc3-dev)*
G04 #@! TF.CreationDate,2019-02-11T22:12:22+01:00*
G04 #@! TF.ProjectId,Lawo 28x13,4C61776F2032387831332E6B69636164,1.1.0*
G04 #@! TF.SameCoordinates,Original*
G04 #@! TF.FileFunction,Copper,L1,Top,Signal*
G04 #@! TF.FilePolarity,Positive*
%FSLAX46Y46*%
G04 Gerber Fmt 4.6, Leading zero omitted, Abs format (unit mm)*
G04 Created by KiCad (PCBNEW (5.0.0-rc3-dev)) date 2019 February 11, Monday 22:12:22*
%MOMM*%
%LPD*%
G01*
G04 APERTURE LIST*
G04 #@! TA.AperFunction,NonConductor*
%ADD10C,0.300000*%
G04 #@! TD*
G04 #@! TA.AperFunction,ComponentPad*
%ADD11C,1.600000*%
G04 #@! TD*
G04 #@! TA.AperFunction,ComponentPad*
%ADD12C,1.800000*%
G04 #@! TD*
G04 #@! TA.AperFunction,ComponentPad*
%ADD13R,1.800000X1.800000*%
G04 #@! TD*
G04 #@! TA.AperFunction,ComponentPad*
%ADD14O,1.600000X1.600000*%
G04 #@! TD*
G04 #@! TA.AperFunction,ComponentPad*
%ADD15O,1.501140X2.199640*%
G04 #@! TD*
G04 #@! TA.AperFunction,ComponentPad*
%ADD16R,2.000000X2.000000*%
G04 #@! TD*
G04 #@! TA.AperFunction,ComponentPad*
%ADD17C,2.000000*%
G04 #@! TD*
G04 #@! TA.AperFunction,ComponentPad*
%ADD18C,3.900000*%
G04 #@! TD*
G04 #@! TA.AperFunction,Conductor*
%ADD19C,3.900000*%
G04 #@! TD*
G04 #@! TA.AperFunction,ComponentPad*
%ADD20O,1.500000X2.000000*%
G04 #@! TD*
G04 #@! TA.AperFunction,ComponentPad*
%ADD21R,1.500000X2.000000*%
G04 #@! TD*
G04 #@! TA.AperFunction,ComponentPad*
%ADD22C,5.000000*%
G04 #@! TD*
G04 #@! TA.AperFunction,ComponentPad*
%ADD23R,3.500120X3.500120*%
G04 #@! TD*
G04 #@! TA.AperFunction,ComponentPad*
%ADD24R,1.600000X1.600000*%
G04 #@! TD*
G04 #@! TA.AperFunction,ComponentPad*
%ADD25O,1.700000X1.700000*%
G04 #@! TD*
G04 #@! TA.AperFunction,ComponentPad*
%ADD26R,1.700000X1.700000*%
G04 #@! TD*
G04 #@! TA.AperFunction,ComponentPad*
%ADD27R,1.500000X2.500000*%
G04 #@! TD*
G04 #@! TA.AperFunction,ComponentPad*
%ADD28O,1.500000X2.500000*%
G04 #@! TD*
G04 #@! TA.AperFunction,ViaPad*
%ADD29C,0.600000*%
G04 #@! TD*
G04 #@! TA.AperFunction,ViaPad*
%ADD30C,1.100000*%
G04 #@! TD*
G04 #@! TA.AperFunction,Conductor*
%ADD31C,1.000000*%
G04 #@! TD*
G04 #@! TA.AperFunction,Conductor*
%ADD32C,0.500000*%
G04 #@! TD*
G04 #@! TA.AperFunction,Conductor*
%ADD33C,0.400000*%
G04 #@! TD*
G04 #@! TA.AperFunction,Conductor*
%ADD34C,0.254000*%
G04 #@! TD*
G04 APERTURE END LIST*
D10*
X184598571Y-113724285D02*
X184598571Y-112867142D01*
X186098571Y-113295714D02*
X184598571Y-113295714D01*
X184598571Y-112081428D02*
X184598571Y-111795714D01*
X184670000Y-111652857D01*
X184812857Y-111510000D01*
X185098571Y-111438571D01*
X185598571Y-111438571D01*
X185884285Y-111510000D01*
X186027142Y-111652857D01*
X186098571Y-111795714D01*
X186098571Y-112081428D01*
X186027142Y-112224285D01*
X185884285Y-112367142D01*
X185598571Y-112438571D01*
X185098571Y-112438571D01*
X184812857Y-112367142D01*
X184670000Y-112224285D01*
X184598571Y-112081428D01*
X186098571Y-110795714D02*
X184598571Y-110795714D01*
X184598571Y-110224285D01*
X184670000Y-110081428D01*
X184741428Y-110010000D01*
X184884285Y-109938571D01*
X185098571Y-109938571D01*
X185241428Y-110010000D01*
X185312857Y-110081428D01*
X185384285Y-110224285D01*
X185384285Y-110795714D01*
D11*
G04 #@! TO.P,C3,1*
G04 #@! TO.N,+5V*
X167640000Y-106680000D03*
G04 #@! TO.P,C3,2*
G04 #@! TO.N,GND*
X167640000Y-109180000D03*
G04 #@! TD*
D12*
G04 #@! TO.P,LED1,2*
G04 #@! TO.N,Net-(LED1-Pad2)*
X135890000Y-93980000D03*
D13*
G04 #@! TO.P,LED1,1*
G04 #@! TO.N,GND*
X138430000Y-93980000D03*
G04 #@! TD*
D11*
G04 #@! TO.P,R2,1*
G04 #@! TO.N,+5V*
X144780000Y-99060000D03*
D14*
G04 #@! TO.P,R2,2*
G04 #@! TO.N,Net-(LED1-Pad2)*
X137160000Y-99060000D03*
G04 #@! TD*
D15*
G04 #@! TO.P,IC1,40*
G04 #@! TO.N,SET_4*
X114300000Y-104140000D03*
G04 #@! TO.P,IC1,39*
G04 #@! TO.N,SET_6*
X116840000Y-104140000D03*
G04 #@! TO.P,IC1,38*
G04 #@! TO.N,SET_3*
X119380000Y-104140000D03*
G04 #@! TO.P,IC1,37*
G04 #@! TO.N,SET_2*
X121920000Y-104140000D03*
G04 #@! TO.P,IC1,36*
G04 #@! TO.N,SET_1*
X124460000Y-104140000D03*
G04 #@! TO.P,IC1,35*
G04 #@! TO.N,+24V*
X127000000Y-104140000D03*
G04 #@! TO.P,IC1,34*
G04 #@! TO.N,SET_5*
X129540000Y-104140000D03*
G04 #@! TO.P,IC1,33*
G04 #@! TO.N,SET_7*
X132080000Y-104140000D03*
G04 #@! TO.P,IC1,32*
G04 #@! TO.N,SET_X*
X134620000Y-104140000D03*
G04 #@! TO.P,IC1,31*
G04 #@! TO.N,SET_12*
X137160000Y-104140000D03*
G04 #@! TO.P,IC1,30*
G04 #@! TO.N,SET_13*
X139700000Y-104140000D03*
G04 #@! TO.P,IC1,29*
G04 #@! TO.N,SET_11*
X142240000Y-104140000D03*
G04 #@! TO.P,IC1,28*
G04 #@! TO.N,SET_10*
X144780000Y-104140000D03*
G04 #@! TO.P,IC1,27*
G04 #@! TO.N,SET_9*
X147320000Y-104140000D03*
G04 #@! TO.P,IC1,26*
G04 #@! TO.N,SET_8*
X149860000Y-104140000D03*
G04 #@! TO.P,IC1,25*
G04 #@! TO.N,GND*
X152400000Y-104140000D03*
G04 #@! TO.P,IC1,24*
G04 #@! TO.N,Net-(C1-Pad2)*
X154940000Y-104140000D03*
G04 #@! TO.P,IC1,23*
G04 #@! TO.N,ROW_DATA*
X157480000Y-104140000D03*
G04 #@! TO.P,IC1,22*
G04 #@! TO.N,ROW_B1*
X160020000Y-104140000D03*
G04 #@! TO.P,IC1,21*
G04 #@! TO.N,ROW_B0*
X162560000Y-104140000D03*
G04 #@! TO.P,IC1,20*
G04 #@! TO.N,ROW_A2*
X162560000Y-119380000D03*
G04 #@! TO.P,IC1,19*
G04 #@! TO.N,ROW_A0*
X160020000Y-119380000D03*
G04 #@! TO.P,IC1,18*
G04 #@! TO.N,ROW_A1*
X157480000Y-119380000D03*
G04 #@! TO.P,IC1,17*
G04 #@! TO.N,+5V*
X154940000Y-119380000D03*
G04 #@! TO.P,IC1,16*
G04 #@! TO.N,RESET_1*
X152400000Y-119380000D03*
G04 #@! TO.P,IC1,15*
G04 #@! TO.N,RESET_2*
X149860000Y-119380000D03*
G04 #@! TO.P,IC1,14*
G04 #@! TO.N,RESET_3*
X147320000Y-119380000D03*
G04 #@! TO.P,IC1,13*
G04 #@! TO.N,RESET_4*
X144780000Y-119380000D03*
G04 #@! TO.P,IC1,12*
G04 #@! TO.N,RESET_6*
X142240000Y-119380000D03*
G04 #@! TO.P,IC1,11*
G04 #@! TO.N,RESET_5*
X139700000Y-119380000D03*
G04 #@! TO.P,IC1,10*
G04 #@! TO.N,RESET_7*
X137160000Y-119380000D03*
G04 #@! TO.P,IC1,9*
G04 #@! TO.N,RESET_X*
X134620000Y-119380000D03*
G04 #@! TO.P,IC1,8*
G04 #@! TO.N,RESET_12*
X132080000Y-119380000D03*
G04 #@! TO.P,IC1,7*
G04 #@! TO.N,GND*
X129540000Y-119380000D03*
G04 #@! TO.P,IC1,6*
G04 #@! TO.N,RESET_8*
X127000000Y-119380000D03*
G04 #@! TO.P,IC1,5*
G04 #@! TO.N,RESET_9*
X124460000Y-119380000D03*
G04 #@! TO.P,IC1,4*
G04 #@! TO.N,RESET_10*
X121920000Y-119380000D03*
G04 #@! TO.P,IC1,3*
G04 #@! TO.N,RESET_13*
X119380000Y-119380000D03*
G04 #@! TO.P,IC1,2*
G04 #@! TO.N,RESET_11*
X116840000Y-119380000D03*
G04 #@! TO.P,IC1,1*
G04 #@! TO.N,Net-(IC1-Pad1)*
X114300000Y-119380000D03*
G04 #@! TD*
D16*
G04 #@! TO.P,PWR_SW1,1*
G04 #@! TO.N,VIN*
X120500000Y-91838000D03*
D17*
G04 #@! TO.P,PWR_SW1,2*
G04 #@! TO.N,+24V*
X120500000Y-97138000D03*
G04 #@! TD*
D18*
G04 #@! TO.P,I1,*
G04 #@! TO.N,*
X185216800Y-129921000D03*
D19*
G04 #@! TD*
G04 #@! TO.N,*
G04 #@! TO.C,I1*
X183758858Y-130273713D02*
X186674742Y-129568287D01*
D18*
G04 #@! TO.P,I1,*
G04 #@! TO.N,*
X109423200Y-129921000D03*
D19*
G04 #@! TD*
G04 #@! TO.N,*
G04 #@! TO.C,I1*
X110881142Y-130273713D02*
X107965258Y-129568287D01*
D20*
G04 #@! TO.P,I1,42*
G04 #@! TO.N,SET_11*
X127000000Y-131060000D03*
G04 #@! TO.P,I1,41*
G04 #@! TO.N,RESET_11*
X127000000Y-128020000D03*
G04 #@! TO.P,I1,43*
G04 #@! TO.N,RESET_12*
X124460000Y-128020000D03*
G04 #@! TO.P,I1,44*
G04 #@! TO.N,SET_12*
X124460000Y-131060000D03*
G04 #@! TO.P,I1,46*
G04 #@! TO.N,SET_13*
X121920000Y-131060000D03*
G04 #@! TO.P,I1,45*
G04 #@! TO.N,RESET_13*
X121920000Y-128020000D03*
G04 #@! TO.P,I1,49*
G04 #@! TO.N,Net-(I1-Pad49)*
X116840000Y-128020000D03*
G04 #@! TO.P,I1,50*
G04 #@! TO.N,Net-(I1-Pad50)*
X116840000Y-131060000D03*
G04 #@! TO.P,I1,48*
G04 #@! TO.N,Net-(I1-Pad48)*
X119380000Y-131060000D03*
G04 #@! TO.P,I1,47*
G04 #@! TO.N,Net-(I1-Pad47)*
X119380000Y-128020000D03*
G04 #@! TO.P,I1,37*
G04 #@! TO.N,RESET_9*
X132080000Y-128020000D03*
G04 #@! TO.P,I1,38*
G04 #@! TO.N,SET_9*
X132080000Y-131060000D03*
G04 #@! TO.P,I1,40*
G04 #@! TO.N,SET_10*
X129540000Y-131060000D03*
G04 #@! TO.P,I1,39*
G04 #@! TO.N,RESET_10*
X129540000Y-128020000D03*
G04 #@! TO.P,I1,35*
G04 #@! TO.N,RESET_8*
X134620000Y-128020000D03*
G04 #@! TO.P,I1,36*
G04 #@! TO.N,SET_8*
X134620000Y-131060000D03*
G04 #@! TO.P,I1,34*
G04 #@! TO.N,SET_7*
X137160000Y-131060000D03*
G04 #@! TO.P,I1,33*
G04 #@! TO.N,RESET_7*
X137160000Y-128020000D03*
G04 #@! TO.P,I1,31*
G04 #@! TO.N,RESET_6*
X139700000Y-128020000D03*
G04 #@! TO.P,I1,32*
G04 #@! TO.N,SET_6*
X139700000Y-131060000D03*
G04 #@! TO.P,I1,27*
G04 #@! TO.N,RESET_4*
X144780000Y-128020000D03*
G04 #@! TO.P,I1,28*
G04 #@! TO.N,SET_4*
X144780000Y-131060000D03*
G04 #@! TO.P,I1,30*
G04 #@! TO.N,SET_5*
X142240000Y-131060000D03*
G04 #@! TO.P,I1,29*
G04 #@! TO.N,RESET_5*
X142240000Y-128020000D03*
G04 #@! TO.P,I1,25*
G04 #@! TO.N,RESET_3*
X147320000Y-128020000D03*
G04 #@! TO.P,I1,26*
G04 #@! TO.N,SET_3*
X147320000Y-131060000D03*
G04 #@! TO.P,I1,24*
G04 #@! TO.N,SET_2*
X149860000Y-131060000D03*
G04 #@! TO.P,I1,23*
G04 #@! TO.N,RESET_2*
X149860000Y-128020000D03*
G04 #@! TO.P,I1,21*
G04 #@! TO.N,RESET_1*
X152400000Y-128020000D03*
G04 #@! TO.P,I1,22*
G04 #@! TO.N,SET_1*
X152400000Y-131060000D03*
G04 #@! TO.P,I1,20*
G04 #@! TO.N,Net-(I1-Pad20)*
X154940000Y-131060000D03*
G04 #@! TO.P,I1,19*
G04 #@! TO.N,Net-(I1-Pad19)*
X154940000Y-128020000D03*
G04 #@! TO.P,I1,17*
G04 #@! TO.N,GND*
X157480000Y-128020000D03*
G04 #@! TO.P,I1,18*
X157480000Y-131060000D03*
G04 #@! TO.P,I1,16*
G04 #@! TO.N,COL_A0*
X160020000Y-131060000D03*
G04 #@! TO.P,I1,15*
G04 #@! TO.N,COL_A1*
X160020000Y-128020000D03*
G04 #@! TO.P,I1,13*
G04 #@! TO.N,COL_DATA*
X162560000Y-128020000D03*
G04 #@! TO.P,I1,14*
G04 #@! TO.N,COL_A2*
X162560000Y-131060000D03*
G04 #@! TO.P,I1,12*
G04 #@! TO.N,COL_B0*
X165100000Y-131060000D03*
G04 #@! TO.P,I1,11*
G04 #@! TO.N,COL_B1*
X165100000Y-128020000D03*
G04 #@! TO.P,I1,9*
G04 #@! TO.N,COL_ENABLE_yR*
X167640000Y-128020000D03*
G04 #@! TO.P,I1,10*
G04 #@! TO.N,COL_ENABLE_mR*
X167640000Y-131060000D03*
G04 #@! TO.P,I1,8*
G04 #@! TO.N,COL_ENABLE_zR*
X170180000Y-131060000D03*
G04 #@! TO.P,I1,7*
G04 #@! TO.N,COL_ENABLE_oR*
X170180000Y-128020000D03*
D21*
G04 #@! TO.P,I1,1*
G04 #@! TO.N,+24V*
X177800000Y-128020000D03*
D20*
G04 #@! TO.P,I1,2*
X177800000Y-131060000D03*
G04 #@! TO.P,I1,3*
G04 #@! TO.N,GND*
X175260000Y-128020000D03*
G04 #@! TO.P,I1,4*
X175260000Y-131060000D03*
G04 #@! TO.P,I1,5*
G04 #@! TO.N,+5V*
X172720000Y-128020000D03*
G04 #@! TO.P,I1,6*
X172720000Y-131060000D03*
G04 #@! TD*
D22*
G04 #@! TO.P,MTH4,1*
G04 #@! TO.N,GND*
X109220000Y-120650000D03*
G04 #@! TD*
G04 #@! TO.P,MTH2,1*
G04 #@! TO.N,GND*
X185420000Y-102870000D03*
G04 #@! TD*
G04 #@! TO.P,MTH3,1*
G04 #@! TO.N,GND*
X185420000Y-120650000D03*
G04 #@! TD*
G04 #@! TO.P,MTH1,1*
G04 #@! TO.N,GND*
X109220000Y-102870000D03*
G04 #@! TD*
D23*
G04 #@! TO.P,PWR1,1*
G04 #@! TO.N,VIN*
X114300000Y-98402140D03*
G04 #@! TO.P,PWR1,2*
G04 #@! TO.N,GND*
X114300000Y-92402660D03*
G04 #@! TO.P,PWR1,3*
X109601000Y-95402400D03*
G04 #@! TD*
D11*
G04 #@! TO.P,C1,1*
G04 #@! TO.N,ROW_ENABLE*
X149860000Y-97790000D03*
G04 #@! TO.P,C1,2*
G04 #@! TO.N,Net-(C1-Pad2)*
X152360000Y-97790000D03*
G04 #@! TD*
G04 #@! TO.P,C2,2*
G04 #@! TO.N,GND*
X176276000Y-99862000D03*
D24*
G04 #@! TO.P,C2,1*
G04 #@! TO.N,+24V*
X176276000Y-102362000D03*
G04 #@! TD*
D25*
G04 #@! TO.P,I2,18*
G04 #@! TO.N,COL_B1*
X185420000Y-94043500D03*
G04 #@! TO.P,I2,17*
G04 #@! TO.N,COL_B0*
X182880000Y-94043500D03*
G04 #@! TO.P,I2,16*
G04 #@! TO.N,COL_A2*
X180340000Y-94043500D03*
G04 #@! TO.P,I2,15*
G04 #@! TO.N,COL_A1*
X177800000Y-94043500D03*
G04 #@! TO.P,I2,14*
G04 #@! TO.N,COL_A0*
X175260000Y-94043500D03*
G04 #@! TO.P,I2,13*
G04 #@! TO.N,COL_DATA*
X172720000Y-94043500D03*
G04 #@! TO.P,I2,12*
G04 #@! TO.N,COL_ENABLE_oR*
X170180000Y-94043500D03*
G04 #@! TO.P,I2,11*
G04 #@! TO.N,COL_ENABLE_mR*
X167640000Y-94043500D03*
G04 #@! TO.P,I2,10*
G04 #@! TO.N,ROW_B1*
X165100000Y-94043500D03*
G04 #@! TO.P,I2,9*
G04 #@! TO.N,ROW_B0*
X162560000Y-94043500D03*
G04 #@! TO.P,I2,8*
G04 #@! TO.N,ROW_A2*
X160020000Y-94043500D03*
G04 #@! TO.P,I2,7*
G04 #@! TO.N,ROW_A1*
X157480000Y-94043500D03*
G04 #@! TO.P,I2,6*
G04 #@! TO.N,ROW_A0*
X154940000Y-94043500D03*
G04 #@! TO.P,I2,5*
G04 #@! TO.N,ROW_DATA*
X152400000Y-94043500D03*
G04 #@! TO.P,I2,4*
G04 #@! TO.N,ROW_ENABLE*
X149860000Y-94043500D03*
G04 #@! TO.P,I2,3*
G04 #@! TO.N,VIN*
X147320000Y-94043500D03*
G04 #@! TO.P,I2,2*
G04 #@! TO.N,+5V*
X144780000Y-94043500D03*
D26*
G04 #@! TO.P,I2,1*
G04 #@! TO.N,GND*
X142240000Y-94043500D03*
G04 #@! TD*
D14*
G04 #@! TO.P,R1,2*
G04 #@! TO.N,GND*
X162560000Y-97790000D03*
D11*
G04 #@! TO.P,R1,1*
G04 #@! TO.N,Net-(C1-Pad2)*
X154940000Y-97790000D03*
G04 #@! TD*
D27*
G04 #@! TO.P,U1,1*
G04 #@! TO.N,+24V*
X177800000Y-106680000D03*
D28*
G04 #@! TO.P,U1,2*
G04 #@! TO.N,GND*
X175260000Y-106680000D03*
G04 #@! TO.P,U1,3*
G04 #@! TO.N,+5V*
X172720000Y-106680000D03*
G04 #@! TD*
D25*
G04 #@! TO.P,I3,2*
G04 #@! TO.N,COL_ENABLE_zR*
X170180000Y-99060000D03*
D26*
G04 #@! TO.P,I3,1*
G04 #@! TO.N,COL_ENABLE_yR*
X167640000Y-99060000D03*
G04 #@! TD*
D29*
G04 #@! TO.N,GND*
X160020000Y-106680000D03*
X157480000Y-106680000D03*
X152400000Y-106680000D03*
X175260000Y-125730000D03*
X138430000Y-122174000D03*
X134620000Y-125730000D03*
X138430000Y-125730000D03*
X143510000Y-133286500D03*
X124460000Y-125730000D03*
X160020000Y-116840000D03*
X139700000Y-106680000D03*
X121920000Y-122174000D03*
X143510000Y-106680000D03*
X146050000Y-106680000D03*
X148590000Y-106680000D03*
X148590000Y-96012000D03*
X133350000Y-122174000D03*
X167640000Y-96774000D03*
X163830000Y-116840000D03*
X163830000Y-106680000D03*
X175260000Y-119380000D03*
X151130000Y-96012000D03*
X175260000Y-109220000D03*
X154940000Y-116840000D03*
X175260000Y-104140000D03*
X125730000Y-113030000D03*
X125730000Y-114300000D03*
X124460000Y-114300000D03*
X119380000Y-114300000D03*
X118110000Y-114300000D03*
X118110000Y-113030000D03*
X118110000Y-115570000D03*
X121920000Y-111760000D03*
X120650000Y-110490000D03*
X123190000Y-110490000D03*
X121920000Y-110490000D03*
X152400000Y-116840000D03*
X125730000Y-115570000D03*
X167640000Y-116840000D03*
X167640000Y-104140000D03*
X147320000Y-96012000D03*
X147955000Y-96774000D03*
X170180000Y-96774000D03*
X175260000Y-96774000D03*
X172720000Y-96774000D03*
X167640000Y-125730000D03*
X134620000Y-106680000D03*
X171323000Y-125730000D03*
X171323000Y-109220000D03*
X171323000Y-104140000D03*
X139700000Y-111252000D03*
D30*
G04 #@! TO.N,+5V*
X172148490Y-100901500D03*
D29*
G04 #@! TO.N,RESET_X*
X118110000Y-122555010D03*
X140461996Y-112903000D03*
X119380000Y-116649500D03*
G04 #@! TD*
D31*
G04 #@! TO.N,GND*
X157480000Y-128270000D02*
X157480000Y-130810000D01*
X175260000Y-130810000D02*
X175260000Y-128270000D01*
X175260000Y-130810000D02*
X175260000Y-132842000D01*
X175260000Y-128270000D02*
X175260000Y-126492000D01*
X157480000Y-128270000D02*
X157480000Y-126746000D01*
X157480000Y-130810000D02*
X157480000Y-132334000D01*
X129540000Y-119380000D02*
X129540000Y-117729000D01*
X129540000Y-119253000D02*
X129540000Y-120777000D01*
X152400000Y-104140000D02*
X152400000Y-105664000D01*
X175260000Y-107039000D02*
X175260000Y-109283500D01*
X175260000Y-107039000D02*
X175260000Y-104789000D01*
X152400000Y-104140000D02*
X152400000Y-102806500D01*
G04 #@! TO.N,+24V*
X177800000Y-128270000D02*
X177800000Y-130810000D01*
X127000000Y-104140000D02*
X127000000Y-103638000D01*
X127000000Y-103638000D02*
X125476000Y-102114000D01*
X125476000Y-102114000D02*
X124962000Y-101600000D01*
X177800000Y-103886000D02*
X177800000Y-107039000D01*
X176276000Y-102362000D02*
X177800000Y-103886000D01*
X124714000Y-101352000D02*
X120500000Y-97138000D01*
X124962000Y-101600000D02*
X124714000Y-101352000D01*
X163957000Y-101219000D02*
X124847000Y-101219000D01*
X165100000Y-102362000D02*
X163957000Y-101219000D01*
X124847000Y-101219000D02*
X124714000Y-101352000D01*
X176276000Y-102362000D02*
X165100000Y-102362000D01*
G04 #@! TO.N,+5V*
X172720000Y-128270000D02*
X172720000Y-130810000D01*
X144780000Y-94043500D02*
X144780000Y-96075500D01*
X146240500Y-97599500D02*
X146304000Y-97599500D01*
X144780000Y-99060000D02*
X146240500Y-97599500D01*
X144780000Y-96075500D02*
X146304000Y-97599500D01*
X170970000Y-106680000D02*
X172720000Y-106680000D01*
X167290750Y-106680000D02*
X170970000Y-106680000D01*
X154940000Y-119030750D02*
X167290750Y-106680000D01*
X154940000Y-119380000D02*
X154940000Y-119030750D01*
X146304000Y-97599500D02*
X148526500Y-99822000D01*
X171370673Y-100901500D02*
X172148490Y-100901500D01*
X148526500Y-99822000D02*
X164592000Y-99822000D01*
X164592000Y-99822000D02*
X165671500Y-100901500D01*
X165671500Y-100901500D02*
X171370673Y-100901500D01*
D32*
G04 #@! TO.N,SET_11*
X127762000Y-130810000D02*
X127000000Y-130810000D01*
X130810000Y-128697070D02*
X129967070Y-129540000D01*
X129967070Y-129540000D02*
X129032000Y-129540000D01*
X130810000Y-126873000D02*
X130810000Y-128697070D01*
X142240000Y-112255300D02*
X142237574Y-112255300D01*
X135902700Y-121780300D02*
X130810000Y-126873000D01*
X129032000Y-129540000D02*
X127762000Y-130810000D01*
X135902700Y-118590174D02*
X135902700Y-121780300D01*
X142237574Y-112255300D02*
X135902700Y-118590174D01*
X142240000Y-104140000D02*
X142240000Y-112255300D01*
G04 #@! TO.N,SET_12*
X125730000Y-129540000D02*
X124460000Y-130810000D01*
X131787930Y-121285000D02*
X125730000Y-127342930D01*
X125730000Y-127342930D02*
X125730000Y-129540000D01*
X132562170Y-120929830D02*
X132207000Y-121285000D01*
X137160000Y-104140000D02*
X137160000Y-112268000D01*
X137160000Y-112268000D02*
X133350000Y-116078000D01*
X133280580Y-120226546D02*
X132577296Y-120929830D01*
X132577296Y-120929830D02*
X132562170Y-120929830D01*
X133350000Y-120142000D02*
X133280580Y-120211420D01*
X133280580Y-120211420D02*
X133280580Y-120226546D01*
X133350000Y-116078000D02*
X133350000Y-120142000D01*
X132207000Y-121285000D02*
X131787930Y-121285000D01*
G04 #@! TO.N,RESET_12*
X132080000Y-119380000D02*
X132080000Y-119729250D01*
X124460000Y-127349250D02*
X124460000Y-128270000D01*
X132080000Y-120002968D02*
X132080000Y-119380000D01*
X124460000Y-127622968D02*
X132080000Y-120002968D01*
X124460000Y-128270000D02*
X124460000Y-127622968D01*
G04 #@! TO.N,SET_9*
X132842000Y-130810000D02*
X132080000Y-130810000D01*
X134112000Y-129540000D02*
X132842000Y-130810000D01*
X135890000Y-126619000D02*
X135890000Y-128697070D01*
X140957300Y-115836700D02*
X140957300Y-121551700D01*
X140957300Y-121551700D02*
X135890000Y-126619000D01*
X147320000Y-109474000D02*
X140957300Y-115836700D01*
X135047070Y-129540000D02*
X134112000Y-129540000D01*
X135890000Y-128697070D02*
X135047070Y-129540000D01*
X147320000Y-104140000D02*
X147320000Y-109474000D01*
G04 #@! TO.N,RESET_10*
X129540000Y-127349250D02*
X129540000Y-128270000D01*
X121920000Y-119380000D02*
X121920000Y-119729250D01*
G04 #@! TO.N,SET_10*
X144780000Y-110744000D02*
X144780000Y-104140000D01*
X139202704Y-117830170D02*
X139202704Y-116321296D01*
X139202704Y-116321296D02*
X144780000Y-110744000D01*
X138499420Y-118533454D02*
X139202704Y-117830170D01*
X129540000Y-130810000D02*
X130302000Y-130810000D01*
X133350000Y-128837050D02*
X133350000Y-125349000D01*
X138499420Y-118535880D02*
X138499420Y-118533454D01*
X138430000Y-118605300D02*
X138499420Y-118535880D01*
X133350000Y-125349000D02*
X138430000Y-120269000D01*
X132647050Y-129540000D02*
X133350000Y-128837050D01*
X131572000Y-129540000D02*
X132647050Y-129540000D01*
X138430000Y-120269000D02*
X138430000Y-118605300D01*
X130302000Y-130810000D02*
X131572000Y-129540000D01*
G04 #@! TO.N,SET_8*
X149860000Y-105739820D02*
X149860000Y-104140000D01*
X149860000Y-107950000D02*
X149860000Y-105739820D01*
X143510000Y-114300000D02*
X149860000Y-107950000D01*
X140970000Y-128697070D02*
X140970000Y-123571000D01*
X140127070Y-129540000D02*
X140970000Y-128697070D01*
X135382000Y-130810000D02*
X136652000Y-129540000D01*
X140970000Y-123571000D02*
X143510000Y-121031000D01*
X136652000Y-129540000D02*
X140127070Y-129540000D01*
X134620000Y-130810000D02*
X135382000Y-130810000D01*
X143510000Y-121031000D02*
X143510000Y-114300000D01*
G04 #@! TO.N,SET_7*
X123962940Y-132510010D02*
X135459990Y-132510010D01*
X135459990Y-132510010D02*
X137160000Y-130810000D01*
X123259420Y-131806490D02*
X123962940Y-132510010D01*
X123259420Y-112960580D02*
X123259420Y-131806490D01*
X132080000Y-104140000D02*
X123259420Y-112960580D01*
G04 #@! TO.N,RESET_6*
X142240000Y-119380000D02*
X142240000Y-121311036D01*
X142240000Y-121311036D02*
X139700000Y-123851036D01*
X139700000Y-123851036D02*
X139700000Y-128270000D01*
G04 #@! TO.N,SET_4*
X114300000Y-106680000D02*
X114300000Y-105739820D01*
X120650000Y-113030000D02*
X114300000Y-106680000D01*
X120650000Y-131737070D02*
X120650000Y-113030000D01*
X122122950Y-133210020D02*
X120650000Y-131737070D01*
X142037050Y-133210020D02*
X122122950Y-133210020D01*
X114300000Y-105739820D02*
X114300000Y-104140000D01*
X144437070Y-130810000D02*
X142037050Y-133210020D01*
X144780000Y-130810000D02*
X144437070Y-130810000D01*
G04 #@! TO.N,RESET_4*
X144780000Y-119380000D02*
X144780000Y-128270000D01*
G04 #@! TO.N,RESET_3*
X147320000Y-119380000D02*
X147320000Y-128270000D01*
G04 #@! TO.N,RESET_2*
X149860000Y-119380000D02*
X149860000Y-128270000D01*
G04 #@! TO.N,RESET_1*
X152400000Y-119380000D02*
X152400000Y-128270000D01*
D33*
G04 #@! TO.N,COL_A1*
X160020000Y-128270000D02*
X160020000Y-127508000D01*
X162506099Y-125349000D02*
X160020000Y-127835099D01*
X177800000Y-94043500D02*
X177800000Y-94107000D01*
X163195000Y-125349000D02*
X162506099Y-125349000D01*
X160020000Y-127835099D02*
X160020000Y-128270000D01*
X179682967Y-108861033D02*
X163195000Y-125349000D01*
X177800000Y-94107000D02*
X179682967Y-95989967D01*
X179682967Y-95989967D02*
X179682967Y-108861033D01*
G04 #@! TO.N,COL_A0*
X158750000Y-129540000D02*
X160020000Y-130810000D01*
X158750000Y-127413641D02*
X158750000Y-129540000D01*
X161449641Y-124714000D02*
X158750000Y-127413641D01*
X162981458Y-124714000D02*
X161449641Y-124714000D01*
X179070000Y-108625458D02*
X162981458Y-124714000D01*
X179070000Y-98298000D02*
X179070000Y-108625458D01*
X175260000Y-94488000D02*
X179070000Y-98298000D01*
X175260000Y-94043500D02*
X175260000Y-94488000D01*
G04 #@! TO.N,COL_A2*
X162560000Y-130810000D02*
X161290000Y-129540000D01*
X161290000Y-127413641D02*
X162719641Y-125984000D01*
X162719641Y-125984000D02*
X163449000Y-125984000D01*
X180282978Y-94037022D02*
X180340000Y-93980000D01*
X161290000Y-129540000D02*
X161290000Y-127413641D01*
X163449000Y-125984000D02*
X180282978Y-109150022D01*
X180282978Y-109150022D02*
X180282978Y-94037022D01*
G04 #@! TO.N,COL_B1*
X181483000Y-109728000D02*
X165100000Y-126111000D01*
X181483000Y-98298000D02*
X181483000Y-109728000D01*
X185420000Y-94361000D02*
X181483000Y-98298000D01*
X165100000Y-126111000D02*
X165100000Y-128270000D01*
X185420000Y-93980000D02*
X185420000Y-94361000D01*
G04 #@! TO.N,COL_B0*
X165100000Y-130810000D02*
X163830000Y-129540000D01*
X163830000Y-126492000D02*
X180882989Y-109439011D01*
X163830000Y-129540000D02*
X163830000Y-126492000D01*
X180882989Y-95977011D02*
X182880000Y-93980000D01*
X180882989Y-109439011D02*
X180882989Y-95977011D01*
D31*
G04 #@! TO.N,Net-(LED1-Pad2)*
X135890000Y-97790000D02*
X137160000Y-99060000D01*
X135890000Y-93980000D02*
X135890000Y-97790000D01*
G04 #@! TO.N,VIN*
X114300000Y-98402100D02*
X114698000Y-98402100D01*
X114698000Y-98402100D02*
X114952000Y-98402100D01*
X114300000Y-98402100D02*
X114698000Y-98402100D01*
X114300000Y-98402100D02*
X114300000Y-98038000D01*
X114300000Y-98038000D02*
X120500000Y-91838000D01*
X145178000Y-91838000D02*
X120500000Y-91838000D01*
X147320000Y-93980000D02*
X145178000Y-91838000D01*
D32*
G04 #@! TO.N,RESET_X*
X134620000Y-118745000D02*
X140037732Y-113327268D01*
X134620000Y-119380000D02*
X134620000Y-118745000D01*
X140037732Y-113327264D02*
X140461996Y-112903000D01*
X140037732Y-113327268D02*
X140037732Y-113327264D01*
X118110000Y-122555010D02*
X118110000Y-117919500D01*
X118110000Y-117919500D02*
X119080001Y-116949499D01*
X119080001Y-116949499D02*
X119380000Y-116649500D01*
G04 #@! TD*
D34*
G04 #@! TO.N,GND*
G36*
X188156466Y-88868209D02*
X188329238Y-88967959D01*
X188457474Y-89120785D01*
X188536173Y-89337009D01*
X188545001Y-89437914D01*
X188545000Y-127776506D01*
X188047937Y-127318633D01*
X187082503Y-126964378D01*
X186314361Y-126995901D01*
X182903555Y-127821061D01*
X182205947Y-128144140D01*
X181509204Y-128900518D01*
X181154949Y-129865952D01*
X181197116Y-130893463D01*
X181629285Y-131826624D01*
X182385663Y-132523367D01*
X183351097Y-132877622D01*
X184119238Y-132846099D01*
X187530045Y-132020939D01*
X188227653Y-131697860D01*
X188545000Y-131353351D01*
X188545000Y-134941072D01*
X188499791Y-135197466D01*
X188400041Y-135370238D01*
X188247215Y-135498474D01*
X188030992Y-135577173D01*
X187930097Y-135586000D01*
X106739927Y-135586000D01*
X106483534Y-135540791D01*
X106310762Y-135441041D01*
X106182526Y-135288215D01*
X106103827Y-135071992D01*
X106095000Y-134971097D01*
X106095000Y-131353351D01*
X106412347Y-131697860D01*
X107109955Y-132020939D01*
X110520761Y-132846099D01*
X111288903Y-132877622D01*
X112254337Y-132523367D01*
X113010715Y-131826624D01*
X113442884Y-130893463D01*
X113485051Y-129865951D01*
X113130796Y-128900518D01*
X112434053Y-128144140D01*
X111736445Y-127821061D01*
X108325638Y-126995901D01*
X107557497Y-126964378D01*
X106592063Y-127318633D01*
X106095000Y-127776506D01*
X106095000Y-95688150D01*
X107215940Y-95688150D01*
X107215940Y-97278769D01*
X107312613Y-97512158D01*
X107491241Y-97690787D01*
X107724630Y-97787460D01*
X109315250Y-97787460D01*
X109474000Y-97628710D01*
X109474000Y-95529400D01*
X109728000Y-95529400D01*
X109728000Y-97628710D01*
X109886750Y-97787460D01*
X111477370Y-97787460D01*
X111710759Y-97690787D01*
X111889387Y-97512158D01*
X111902500Y-97480500D01*
X111902500Y-100152200D01*
X111951783Y-100399965D01*
X112092131Y-100610009D01*
X112302175Y-100750357D01*
X112549940Y-100799640D01*
X116050060Y-100799640D01*
X116297825Y-100750357D01*
X116507869Y-100610009D01*
X116648217Y-100399965D01*
X116697500Y-100152200D01*
X116697500Y-97245631D01*
X120457692Y-93485440D01*
X121500000Y-93485440D01*
X121747765Y-93436157D01*
X121957809Y-93295809D01*
X122098157Y-93085765D01*
X122120587Y-92973000D01*
X134726183Y-92973000D01*
X134588690Y-93110493D01*
X134355000Y-93674670D01*
X134355000Y-94285330D01*
X134588690Y-94849507D01*
X134755000Y-95015817D01*
X134755001Y-97678212D01*
X134732765Y-97790000D01*
X134820854Y-98232854D01*
X134881103Y-98323023D01*
X135071712Y-98608289D01*
X135166480Y-98671611D01*
X135732151Y-99237282D01*
X135808260Y-99619909D01*
X136118356Y-100084000D01*
X125051132Y-100084000D01*
X122135000Y-97167869D01*
X122135000Y-96812778D01*
X121886086Y-96211847D01*
X121426153Y-95751914D01*
X120825222Y-95503000D01*
X120174778Y-95503000D01*
X119573847Y-95751914D01*
X119113914Y-96211847D01*
X118865000Y-96812778D01*
X118865000Y-97463222D01*
X119113914Y-98064153D01*
X119573847Y-98524086D01*
X120174778Y-98773000D01*
X120529869Y-98773000D01*
X123832393Y-102075525D01*
X123895712Y-102170288D01*
X123990475Y-102233607D01*
X123990476Y-102233608D01*
X123990479Y-102233610D01*
X124188842Y-102431973D01*
X123919378Y-102485572D01*
X123461060Y-102791811D01*
X123190000Y-103197481D01*
X122918939Y-102791810D01*
X122460621Y-102485572D01*
X121920000Y-102378036D01*
X121379378Y-102485572D01*
X120921060Y-102791811D01*
X120650000Y-103197481D01*
X120378939Y-102791810D01*
X119920621Y-102485572D01*
X119380000Y-102378036D01*
X118839378Y-102485572D01*
X118381060Y-102791811D01*
X118110000Y-103197481D01*
X117838939Y-102791810D01*
X117380621Y-102485572D01*
X116840000Y-102378036D01*
X116299378Y-102485572D01*
X115841060Y-102791811D01*
X115570000Y-103197481D01*
X115298939Y-102791810D01*
X114840621Y-102485572D01*
X114300000Y-102378036D01*
X113759378Y-102485572D01*
X113301060Y-102791811D01*
X112994822Y-103250129D01*
X112914430Y-103654288D01*
X112914430Y-104625713D01*
X112994822Y-105029872D01*
X113301061Y-105488190D01*
X113415000Y-105564322D01*
X113415000Y-105826984D01*
X113415001Y-105826988D01*
X113415000Y-106592839D01*
X113397663Y-106680000D01*
X113415000Y-106767161D01*
X113415000Y-106767164D01*
X113466348Y-107025309D01*
X113661951Y-107318049D01*
X113735847Y-107367425D01*
X119765001Y-113396580D01*
X119765001Y-115796936D01*
X119565983Y-115714500D01*
X119194017Y-115714500D01*
X118850365Y-115856845D01*
X118587345Y-116119865D01*
X118537344Y-116240578D01*
X118515849Y-116262073D01*
X118515846Y-116262075D01*
X117545845Y-117232077D01*
X117471952Y-117281451D01*
X117422578Y-117355344D01*
X117422576Y-117355346D01*
X117276348Y-117574191D01*
X117251352Y-117699859D01*
X116840000Y-117618036D01*
X116299378Y-117725572D01*
X115841060Y-118031811D01*
X115570000Y-118437481D01*
X115298939Y-118031810D01*
X114840621Y-117725572D01*
X114300000Y-117618036D01*
X113759378Y-117725572D01*
X113301060Y-118031811D01*
X112994822Y-118490129D01*
X112914430Y-118894288D01*
X112914430Y-119865713D01*
X112994822Y-120269872D01*
X113301061Y-120728190D01*
X113759379Y-121034428D01*
X114300000Y-121141964D01*
X114840622Y-121034428D01*
X115298940Y-120728190D01*
X115570000Y-120322520D01*
X115841061Y-120728190D01*
X116299379Y-121034428D01*
X116840000Y-121141964D01*
X117225000Y-121065383D01*
X117225000Y-122248316D01*
X117175000Y-122369027D01*
X117175000Y-122740993D01*
X117317345Y-123084645D01*
X117580365Y-123347665D01*
X117924017Y-123490010D01*
X118295983Y-123490010D01*
X118639635Y-123347665D01*
X118902655Y-123084645D01*
X119045000Y-122740993D01*
X119045000Y-122369027D01*
X118995000Y-122248316D01*
X118995000Y-121065383D01*
X119380000Y-121141964D01*
X119765001Y-121065383D01*
X119765000Y-126434448D01*
X119380000Y-126357867D01*
X118839601Y-126465359D01*
X118381472Y-126771471D01*
X118110000Y-127177757D01*
X117838529Y-126771471D01*
X117380400Y-126465359D01*
X116840000Y-126357867D01*
X116299601Y-126465359D01*
X115841472Y-126771471D01*
X115535359Y-127229600D01*
X115455000Y-127633593D01*
X115455000Y-128406406D01*
X115535359Y-128810399D01*
X115841471Y-129268528D01*
X116247757Y-129540000D01*
X115841472Y-129811471D01*
X115535359Y-130269600D01*
X115455000Y-130673593D01*
X115455000Y-131446406D01*
X115535359Y-131850399D01*
X115841471Y-132308528D01*
X116299600Y-132614641D01*
X116840000Y-132722133D01*
X117380399Y-132614641D01*
X117838528Y-132308529D01*
X118110000Y-131902243D01*
X118381471Y-132308528D01*
X118839600Y-132614641D01*
X119380000Y-132722133D01*
X119920399Y-132614641D01*
X120133562Y-132472210D01*
X121435527Y-133774176D01*
X121484901Y-133848069D01*
X121558794Y-133897443D01*
X121558795Y-133897444D01*
X121777640Y-134043672D01*
X122035785Y-134095020D01*
X122035789Y-134095020D01*
X122122950Y-134112357D01*
X122210111Y-134095020D01*
X141949889Y-134095020D01*
X142037050Y-134112357D01*
X142124211Y-134095020D01*
X142124215Y-134095020D01*
X142382360Y-134043672D01*
X142675099Y-133848069D01*
X142724475Y-133774173D01*
X144026438Y-132472210D01*
X144239600Y-132614641D01*
X144780000Y-132722133D01*
X145320399Y-132614641D01*
X145778528Y-132308529D01*
X146050000Y-131902243D01*
X146321471Y-132308528D01*
X146779600Y-132614641D01*
X147320000Y-132722133D01*
X147860399Y-132614641D01*
X148318528Y-132308529D01*
X148590000Y-131902243D01*
X148861471Y-132308528D01*
X149319600Y-132614641D01*
X149860000Y-132722133D01*
X150400399Y-132614641D01*
X150858528Y-132308529D01*
X151130000Y-131902243D01*
X151401471Y-132308528D01*
X151859600Y-132614641D01*
X152400000Y-132722133D01*
X152940399Y-132614641D01*
X153398528Y-132308529D01*
X153670000Y-131902243D01*
X153941471Y-132308528D01*
X154399600Y-132614641D01*
X154940000Y-132722133D01*
X155480399Y-132614641D01*
X155938528Y-132308529D01*
X156218553Y-131889443D01*
X156230036Y-131931721D01*
X156563106Y-132362736D01*
X157035765Y-132633481D01*
X157138815Y-132652318D01*
X157353000Y-132529656D01*
X157353000Y-131187000D01*
X157333000Y-131187000D01*
X157333000Y-130933000D01*
X157353000Y-130933000D01*
X157353000Y-129590344D01*
X157265092Y-129540000D01*
X157353000Y-129489656D01*
X157353000Y-128147000D01*
X157333000Y-128147000D01*
X157333000Y-127893000D01*
X157353000Y-127893000D01*
X157353000Y-126550344D01*
X157138815Y-126427682D01*
X157035765Y-126446519D01*
X156563106Y-126717264D01*
X156230036Y-127148279D01*
X156218553Y-127190557D01*
X155938529Y-126771471D01*
X155480400Y-126465359D01*
X154940000Y-126357867D01*
X154399601Y-126465359D01*
X153941472Y-126771471D01*
X153670000Y-127177757D01*
X153398529Y-126771471D01*
X153285000Y-126695613D01*
X153285000Y-120804322D01*
X153398940Y-120728190D01*
X153670000Y-120322520D01*
X153941061Y-120728190D01*
X154399379Y-121034428D01*
X154940000Y-121141964D01*
X155480622Y-121034428D01*
X155938940Y-120728190D01*
X156210000Y-120322520D01*
X156481061Y-120728190D01*
X156939379Y-121034428D01*
X157480000Y-121141964D01*
X158020622Y-121034428D01*
X158478940Y-120728190D01*
X158750000Y-120322520D01*
X159021061Y-120728190D01*
X159479379Y-121034428D01*
X160020000Y-121141964D01*
X160560622Y-121034428D01*
X161018940Y-120728190D01*
X161290000Y-120322520D01*
X161561061Y-120728190D01*
X162019379Y-121034428D01*
X162560000Y-121141964D01*
X163100622Y-121034428D01*
X163558940Y-120728190D01*
X163865178Y-120269872D01*
X163945570Y-119865712D01*
X163945570Y-118894287D01*
X163865178Y-118490128D01*
X163558939Y-118031810D01*
X163100621Y-117725572D01*
X162560000Y-117618036D01*
X162019378Y-117725572D01*
X161561060Y-118031811D01*
X161290000Y-118437481D01*
X161018939Y-118031810D01*
X160560621Y-117725572D01*
X160020000Y-117618036D01*
X159479378Y-117725572D01*
X159021060Y-118031811D01*
X158750000Y-118437481D01*
X158478939Y-118031810D01*
X158020621Y-117725572D01*
X157878566Y-117697315D01*
X165388136Y-110187745D01*
X166811861Y-110187745D01*
X166885995Y-110433864D01*
X167423223Y-110626965D01*
X167993454Y-110599778D01*
X168394005Y-110433864D01*
X168468139Y-110187745D01*
X167640000Y-109359605D01*
X166811861Y-110187745D01*
X165388136Y-110187745D01*
X166212131Y-109363751D01*
X166220222Y-109533454D01*
X166386136Y-109934005D01*
X166632255Y-110008139D01*
X167460395Y-109180000D01*
X167819605Y-109180000D01*
X168647745Y-110008139D01*
X168893864Y-109934005D01*
X169086965Y-109396777D01*
X169059778Y-108826546D01*
X168893864Y-108425995D01*
X168647745Y-108351861D01*
X167819605Y-109180000D01*
X167460395Y-109180000D01*
X167446252Y-109165858D01*
X167625858Y-108986252D01*
X167640000Y-109000395D01*
X168468139Y-108172255D01*
X168394005Y-107926136D01*
X168387254Y-107923710D01*
X168452862Y-107896534D01*
X168534396Y-107815000D01*
X171478569Y-107815000D01*
X171721471Y-108178528D01*
X172179600Y-108484641D01*
X172720000Y-108592133D01*
X173260399Y-108484641D01*
X173718528Y-108178529D01*
X174005742Y-107748684D01*
X174029028Y-107827349D01*
X174370460Y-108249145D01*
X174847316Y-108508173D01*
X174918815Y-108522318D01*
X175133000Y-108399656D01*
X175133000Y-106807000D01*
X175113000Y-106807000D01*
X175113000Y-106553000D01*
X175133000Y-106553000D01*
X175133000Y-104960344D01*
X174918815Y-104837682D01*
X174847316Y-104851827D01*
X174370460Y-105110855D01*
X174029028Y-105532651D01*
X174005742Y-105611316D01*
X173718529Y-105181471D01*
X173260400Y-104875359D01*
X172720000Y-104767867D01*
X172179601Y-104875359D01*
X171721472Y-105181471D01*
X171478569Y-105545000D01*
X168534396Y-105545000D01*
X168452862Y-105463466D01*
X167925439Y-105245000D01*
X167354561Y-105245000D01*
X166827138Y-105463466D01*
X166423466Y-105867138D01*
X166370423Y-105995195D01*
X154699805Y-117665813D01*
X154399378Y-117725572D01*
X153941060Y-118031811D01*
X153670000Y-118437481D01*
X153398939Y-118031810D01*
X152940621Y-117725572D01*
X152400000Y-117618036D01*
X151859378Y-117725572D01*
X151401060Y-118031811D01*
X151130000Y-118437481D01*
X150858939Y-118031810D01*
X150400621Y-117725572D01*
X149860000Y-117618036D01*
X149319378Y-117725572D01*
X148861060Y-118031811D01*
X148590000Y-118437481D01*
X148318939Y-118031810D01*
X147860621Y-117725572D01*
X147320000Y-117618036D01*
X146779378Y-117725572D01*
X146321060Y-118031811D01*
X146050000Y-118437481D01*
X145778939Y-118031810D01*
X145320621Y-117725572D01*
X144780000Y-117618036D01*
X144395000Y-117694617D01*
X144395000Y-114666578D01*
X150424156Y-108637423D01*
X150498049Y-108588049D01*
X150567145Y-108484641D01*
X150648109Y-108363470D01*
X150693652Y-108295310D01*
X150745000Y-108037165D01*
X150745000Y-108037161D01*
X150762337Y-107950001D01*
X150745000Y-107862841D01*
X150745000Y-105564322D01*
X150858940Y-105488190D01*
X151145545Y-105059255D01*
X151168501Y-105136817D01*
X151510056Y-105558798D01*
X151987097Y-105817950D01*
X152058725Y-105832133D01*
X152273000Y-105709479D01*
X152273000Y-104267000D01*
X152253000Y-104267000D01*
X152253000Y-104013000D01*
X152273000Y-104013000D01*
X152273000Y-102570521D01*
X152527000Y-102570521D01*
X152527000Y-104013000D01*
X152547000Y-104013000D01*
X152547000Y-104267000D01*
X152527000Y-104267000D01*
X152527000Y-105709479D01*
X152741275Y-105832133D01*
X152812903Y-105817950D01*
X153289944Y-105558798D01*
X153631499Y-105136817D01*
X153654455Y-105059255D01*
X153941061Y-105488190D01*
X154399379Y-105794428D01*
X154940000Y-105901964D01*
X155480622Y-105794428D01*
X155938940Y-105488190D01*
X156210000Y-105082520D01*
X156481061Y-105488190D01*
X156939379Y-105794428D01*
X157480000Y-105901964D01*
X158020622Y-105794428D01*
X158478940Y-105488190D01*
X158750000Y-105082520D01*
X159021061Y-105488190D01*
X159479379Y-105794428D01*
X160020000Y-105901964D01*
X160560622Y-105794428D01*
X161018940Y-105488190D01*
X161290000Y-105082520D01*
X161561061Y-105488190D01*
X162019379Y-105794428D01*
X162560000Y-105901964D01*
X163100622Y-105794428D01*
X163558940Y-105488190D01*
X163865178Y-105029872D01*
X163945570Y-104625712D01*
X163945570Y-103654287D01*
X163865178Y-103250128D01*
X163558939Y-102791810D01*
X163100621Y-102485572D01*
X162560000Y-102378036D01*
X162019378Y-102485572D01*
X161561060Y-102791811D01*
X161290000Y-103197481D01*
X161018939Y-102791810D01*
X160560621Y-102485572D01*
X160020000Y-102378036D01*
X159479378Y-102485572D01*
X159021060Y-102791811D01*
X158750000Y-103197481D01*
X158478939Y-102791810D01*
X158020621Y-102485572D01*
X157480000Y-102378036D01*
X156939378Y-102485572D01*
X156481060Y-102791811D01*
X156210000Y-103197481D01*
X155938939Y-102791810D01*
X155480621Y-102485572D01*
X154940000Y-102378036D01*
X154399378Y-102485572D01*
X153941060Y-102791811D01*
X153654455Y-103220746D01*
X153631499Y-103143183D01*
X153289944Y-102721202D01*
X152812903Y-102462050D01*
X152741275Y-102447867D01*
X152527000Y-102570521D01*
X152273000Y-102570521D01*
X152058725Y-102447867D01*
X151987097Y-102462050D01*
X151510056Y-102721202D01*
X151168501Y-103143183D01*
X151145545Y-103220745D01*
X150858939Y-102791810D01*
X150400621Y-102485572D01*
X149860000Y-102378036D01*
X149319378Y-102485572D01*
X148861060Y-102791811D01*
X148590000Y-103197481D01*
X148318939Y-102791810D01*
X147860621Y-102485572D01*
X147320000Y-102378036D01*
X146779378Y-102485572D01*
X146321060Y-102791811D01*
X146050000Y-103197481D01*
X145778939Y-102791810D01*
X145320621Y-102485572D01*
X144780000Y-102378036D01*
X144239378Y-102485572D01*
X143781060Y-102791811D01*
X143510000Y-103197481D01*
X143238939Y-102791810D01*
X142780621Y-102485572D01*
X142240000Y-102378036D01*
X141699378Y-102485572D01*
X141241060Y-102791811D01*
X140970000Y-103197481D01*
X140698939Y-102791810D01*
X140240621Y-102485572D01*
X139700000Y-102378036D01*
X139159378Y-102485572D01*
X138701060Y-102791811D01*
X138430000Y-103197481D01*
X138158939Y-102791810D01*
X137700621Y-102485572D01*
X137160000Y-102378036D01*
X136619378Y-102485572D01*
X136161060Y-102791811D01*
X135890000Y-103197481D01*
X135618939Y-102791810D01*
X135160621Y-102485572D01*
X134620000Y-102378036D01*
X134079378Y-102485572D01*
X133621060Y-102791811D01*
X133350000Y-103197481D01*
X133078939Y-102791810D01*
X132620621Y-102485572D01*
X132080000Y-102378036D01*
X131539378Y-102485572D01*
X131081060Y-102791811D01*
X130810000Y-103197481D01*
X130538939Y-102791810D01*
X130080621Y-102485572D01*
X129540000Y-102378036D01*
X128999378Y-102485572D01*
X128541060Y-102791811D01*
X128270000Y-103197481D01*
X127998939Y-102791810D01*
X127540621Y-102485572D01*
X127430875Y-102463742D01*
X127321132Y-102354000D01*
X163486869Y-102354000D01*
X164218389Y-103085521D01*
X164281711Y-103180289D01*
X164625146Y-103409765D01*
X164657145Y-103431146D01*
X165099999Y-103519235D01*
X165211782Y-103497000D01*
X174936132Y-103497000D01*
X175018191Y-103619809D01*
X175228235Y-103760157D01*
X175476000Y-103809440D01*
X176118308Y-103809440D01*
X176665000Y-104356133D01*
X176665000Y-104923541D01*
X176592191Y-104972191D01*
X176451843Y-105182235D01*
X176403609Y-105424725D01*
X176149540Y-105110855D01*
X175672684Y-104851827D01*
X175601185Y-104837682D01*
X175387000Y-104960344D01*
X175387000Y-106553000D01*
X175407000Y-106553000D01*
X175407000Y-106807000D01*
X175387000Y-106807000D01*
X175387000Y-108399656D01*
X175601185Y-108522318D01*
X175672684Y-108508173D01*
X176149540Y-108249145D01*
X176403609Y-107935275D01*
X176451843Y-108177765D01*
X176592191Y-108387809D01*
X176802235Y-108528157D01*
X177050000Y-108577440D01*
X177937149Y-108577440D01*
X162635591Y-123879000D01*
X161531878Y-123879000D01*
X161449641Y-123862642D01*
X161367404Y-123879000D01*
X161123840Y-123927448D01*
X160847640Y-124111999D01*
X160801056Y-124181717D01*
X158313360Y-126669414D01*
X157924235Y-126446519D01*
X157821185Y-126427682D01*
X157607000Y-126550344D01*
X157607000Y-127893000D01*
X157627000Y-127893000D01*
X157627000Y-128147000D01*
X157607000Y-128147000D01*
X157607000Y-129489656D01*
X157694908Y-129540000D01*
X157607000Y-129590344D01*
X157607000Y-130933000D01*
X157627000Y-130933000D01*
X157627000Y-131187000D01*
X157607000Y-131187000D01*
X157607000Y-132529656D01*
X157821185Y-132652318D01*
X157924235Y-132633481D01*
X158396894Y-132362736D01*
X158729964Y-131931721D01*
X158741447Y-131889443D01*
X159021471Y-132308528D01*
X159479600Y-132614641D01*
X160020000Y-132722133D01*
X160560399Y-132614641D01*
X161018528Y-132308529D01*
X161290000Y-131902243D01*
X161561471Y-132308528D01*
X162019600Y-132614641D01*
X162560000Y-132722133D01*
X163100399Y-132614641D01*
X163558528Y-132308529D01*
X163830000Y-131902243D01*
X164101471Y-132308528D01*
X164559600Y-132614641D01*
X165100000Y-132722133D01*
X165640399Y-132614641D01*
X166098528Y-132308529D01*
X166370000Y-131902243D01*
X166641471Y-132308528D01*
X167099600Y-132614641D01*
X167640000Y-132722133D01*
X168180399Y-132614641D01*
X168638528Y-132308529D01*
X168910000Y-131902243D01*
X169181471Y-132308528D01*
X169639600Y-132614641D01*
X170180000Y-132722133D01*
X170720399Y-132614641D01*
X171178528Y-132308529D01*
X171450000Y-131902243D01*
X171721471Y-132308528D01*
X172179600Y-132614641D01*
X172720000Y-132722133D01*
X173260399Y-132614641D01*
X173718528Y-132308529D01*
X173998553Y-131889443D01*
X174010036Y-131931721D01*
X174343106Y-132362736D01*
X174815765Y-132633481D01*
X174918815Y-132652318D01*
X175133000Y-132529656D01*
X175133000Y-131187000D01*
X175113000Y-131187000D01*
X175113000Y-130933000D01*
X175133000Y-130933000D01*
X175133000Y-129590344D01*
X175045092Y-129540000D01*
X175133000Y-129489656D01*
X175133000Y-128147000D01*
X175113000Y-128147000D01*
X175113000Y-127893000D01*
X175133000Y-127893000D01*
X175133000Y-126550344D01*
X175387000Y-126550344D01*
X175387000Y-127893000D01*
X175407000Y-127893000D01*
X175407000Y-128147000D01*
X175387000Y-128147000D01*
X175387000Y-129489656D01*
X175474908Y-129540000D01*
X175387000Y-129590344D01*
X175387000Y-130933000D01*
X175407000Y-130933000D01*
X175407000Y-131187000D01*
X175387000Y-131187000D01*
X175387000Y-132529656D01*
X175601185Y-132652318D01*
X175704235Y-132633481D01*
X176176894Y-132362736D01*
X176509964Y-131931721D01*
X176521447Y-131889443D01*
X176801471Y-132308528D01*
X177259600Y-132614641D01*
X177800000Y-132722133D01*
X178340399Y-132614641D01*
X178798528Y-132308529D01*
X179104641Y-131850400D01*
X179185000Y-131446407D01*
X179185000Y-130673594D01*
X179104641Y-130269601D01*
X178935000Y-130015715D01*
X178935000Y-129526459D01*
X179007809Y-129477809D01*
X179148157Y-129267765D01*
X179197440Y-129020000D01*
X179197440Y-127020000D01*
X179148157Y-126772235D01*
X179007809Y-126562191D01*
X178797765Y-126421843D01*
X178550000Y-126372560D01*
X177050000Y-126372560D01*
X176802235Y-126421843D01*
X176592191Y-126562191D01*
X176451843Y-126772235D01*
X176404254Y-127011483D01*
X176176894Y-126717264D01*
X175704235Y-126446519D01*
X175601185Y-126427682D01*
X175387000Y-126550344D01*
X175133000Y-126550344D01*
X174918815Y-126427682D01*
X174815765Y-126446519D01*
X174343106Y-126717264D01*
X174010036Y-127148279D01*
X173998553Y-127190557D01*
X173718529Y-126771471D01*
X173260400Y-126465359D01*
X172720000Y-126357867D01*
X172179601Y-126465359D01*
X171721472Y-126771471D01*
X171450000Y-127177757D01*
X171178529Y-126771471D01*
X170720400Y-126465359D01*
X170180000Y-126357867D01*
X169639601Y-126465359D01*
X169181472Y-126771471D01*
X168910000Y-127177757D01*
X168638529Y-126771471D01*
X168180400Y-126465359D01*
X167640000Y-126357867D01*
X167099601Y-126465359D01*
X166641472Y-126771471D01*
X166370000Y-127177757D01*
X166098529Y-126771471D01*
X165935000Y-126662204D01*
X165935000Y-126456867D01*
X182015283Y-110376585D01*
X182085001Y-110330001D01*
X182269552Y-110053801D01*
X182318000Y-109810237D01*
X182334358Y-109728000D01*
X182318000Y-109645763D01*
X182318000Y-108867857D01*
X183630000Y-108867857D01*
X183630000Y-114652143D01*
X187450000Y-114652143D01*
X187450000Y-108867857D01*
X183630000Y-108867857D01*
X182318000Y-108867857D01*
X182318000Y-98643867D01*
X185433368Y-95528500D01*
X185566256Y-95528500D01*
X185999418Y-95442339D01*
X186490625Y-95114125D01*
X186818839Y-94622918D01*
X186934092Y-94043500D01*
X186818839Y-93464082D01*
X186490625Y-92972875D01*
X185999418Y-92644661D01*
X185566256Y-92558500D01*
X185273744Y-92558500D01*
X184840582Y-92644661D01*
X184349375Y-92972875D01*
X184150000Y-93271261D01*
X183950625Y-92972875D01*
X183459418Y-92644661D01*
X183026256Y-92558500D01*
X182733744Y-92558500D01*
X182300582Y-92644661D01*
X181809375Y-92972875D01*
X181610000Y-93271261D01*
X181410625Y-92972875D01*
X180919418Y-92644661D01*
X180486256Y-92558500D01*
X180193744Y-92558500D01*
X179760582Y-92644661D01*
X179269375Y-92972875D01*
X179070000Y-93271261D01*
X178870625Y-92972875D01*
X178379418Y-92644661D01*
X177946256Y-92558500D01*
X177653744Y-92558500D01*
X177220582Y-92644661D01*
X176729375Y-92972875D01*
X176530000Y-93271261D01*
X176330625Y-92972875D01*
X175839418Y-92644661D01*
X175406256Y-92558500D01*
X175113744Y-92558500D01*
X174680582Y-92644661D01*
X174189375Y-92972875D01*
X173990000Y-93271261D01*
X173790625Y-92972875D01*
X173299418Y-92644661D01*
X172866256Y-92558500D01*
X172573744Y-92558500D01*
X172140582Y-92644661D01*
X171649375Y-92972875D01*
X171450000Y-93271261D01*
X171250625Y-92972875D01*
X170759418Y-92644661D01*
X170326256Y-92558500D01*
X170033744Y-92558500D01*
X169600582Y-92644661D01*
X169109375Y-92972875D01*
X168910000Y-93271261D01*
X168710625Y-92972875D01*
X168219418Y-92644661D01*
X167786256Y-92558500D01*
X167493744Y-92558500D01*
X167060582Y-92644661D01*
X166569375Y-92972875D01*
X166370000Y-93271261D01*
X166170625Y-92972875D01*
X165679418Y-92644661D01*
X165246256Y-92558500D01*
X164953744Y-92558500D01*
X164520582Y-92644661D01*
X164029375Y-92972875D01*
X163830000Y-93271261D01*
X163630625Y-92972875D01*
X163139418Y-92644661D01*
X162706256Y-92558500D01*
X162413744Y-92558500D01*
X161980582Y-92644661D01*
X161489375Y-92972875D01*
X161290000Y-93271261D01*
X161090625Y-92972875D01*
X160599418Y-92644661D01*
X160166256Y-92558500D01*
X159873744Y-92558500D01*
X159440582Y-92644661D01*
X158949375Y-92972875D01*
X158750000Y-93271261D01*
X158550625Y-92972875D01*
X158059418Y-92644661D01*
X157626256Y-92558500D01*
X157333744Y-92558500D01*
X156900582Y-92644661D01*
X156409375Y-92972875D01*
X156210000Y-93271261D01*
X156010625Y-92972875D01*
X155519418Y-92644661D01*
X155086256Y-92558500D01*
X154793744Y-92558500D01*
X154360582Y-92644661D01*
X153869375Y-92972875D01*
X153670000Y-93271261D01*
X153470625Y-92972875D01*
X152979418Y-92644661D01*
X152546256Y-92558500D01*
X152253744Y-92558500D01*
X151820582Y-92644661D01*
X151329375Y-92972875D01*
X151130000Y-93271261D01*
X150930625Y-92972875D01*
X150439418Y-92644661D01*
X150006256Y-92558500D01*
X149713744Y-92558500D01*
X149280582Y-92644661D01*
X148789375Y-92972875D01*
X148590000Y-93271261D01*
X148390625Y-92972875D01*
X147899418Y-92644661D01*
X147512912Y-92567780D01*
X146059613Y-91114482D01*
X145996289Y-91019711D01*
X145620855Y-90768854D01*
X145289783Y-90703000D01*
X145178000Y-90680765D01*
X145066217Y-90703000D01*
X122120587Y-90703000D01*
X122098157Y-90590235D01*
X121957809Y-90380191D01*
X121747765Y-90239843D01*
X121500000Y-90190560D01*
X119500000Y-90190560D01*
X119252235Y-90239843D01*
X119042191Y-90380191D01*
X118901843Y-90590235D01*
X118852560Y-90838000D01*
X118852560Y-91880308D01*
X116685060Y-94047808D01*
X116685060Y-92688410D01*
X116526310Y-92529660D01*
X114427000Y-92529660D01*
X114427000Y-94628970D01*
X114585750Y-94787720D01*
X115945149Y-94787720D01*
X114728229Y-96004640D01*
X112549940Y-96004640D01*
X112302175Y-96053923D01*
X112092131Y-96194271D01*
X111986060Y-96353016D01*
X111986060Y-95688150D01*
X111827310Y-95529400D01*
X109728000Y-95529400D01*
X109474000Y-95529400D01*
X107374690Y-95529400D01*
X107215940Y-95688150D01*
X106095000Y-95688150D01*
X106095000Y-93526031D01*
X107215940Y-93526031D01*
X107215940Y-95116650D01*
X107374690Y-95275400D01*
X109474000Y-95275400D01*
X109474000Y-93176090D01*
X109728000Y-93176090D01*
X109728000Y-95275400D01*
X111827310Y-95275400D01*
X111986060Y-95116650D01*
X111986060Y-94450728D01*
X112011613Y-94512418D01*
X112190241Y-94691047D01*
X112423630Y-94787720D01*
X114014250Y-94787720D01*
X114173000Y-94628970D01*
X114173000Y-92529660D01*
X112073690Y-92529660D01*
X111914940Y-92688410D01*
X111914940Y-93354332D01*
X111889387Y-93292642D01*
X111710759Y-93114013D01*
X111477370Y-93017340D01*
X109886750Y-93017340D01*
X109728000Y-93176090D01*
X109474000Y-93176090D01*
X109315250Y-93017340D01*
X107724630Y-93017340D01*
X107491241Y-93114013D01*
X107312613Y-93292642D01*
X107215940Y-93526031D01*
X106095000Y-93526031D01*
X106095000Y-90526291D01*
X111914940Y-90526291D01*
X111914940Y-92116910D01*
X112073690Y-92275660D01*
X114173000Y-92275660D01*
X114173000Y-90176350D01*
X114427000Y-90176350D01*
X114427000Y-92275660D01*
X116526310Y-92275660D01*
X116685060Y-92116910D01*
X116685060Y-90526291D01*
X116588387Y-90292902D01*
X116409759Y-90114273D01*
X116176370Y-90017600D01*
X114585750Y-90017600D01*
X114427000Y-90176350D01*
X114173000Y-90176350D01*
X114014250Y-90017600D01*
X112423630Y-90017600D01*
X112190241Y-90114273D01*
X112011613Y-90292902D01*
X111914940Y-90526291D01*
X106095000Y-90526291D01*
X106095000Y-89467927D01*
X106140209Y-89211534D01*
X106239959Y-89038762D01*
X106392785Y-88910526D01*
X106609009Y-88831827D01*
X106709903Y-88823000D01*
X187900073Y-88823000D01*
X188156466Y-88868209D01*
X188156466Y-88868209D01*
G37*
X188156466Y-88868209D02*
X188329238Y-88967959D01*
X188457474Y-89120785D01*
X188536173Y-89337009D01*
X188545001Y-89437914D01*
X188545000Y-127776506D01*
X188047937Y-127318633D01*
X187082503Y-126964378D01*
X186314361Y-126995901D01*
X182903555Y-127821061D01*
X182205947Y-128144140D01*
X181509204Y-128900518D01*
X181154949Y-129865952D01*
X181197116Y-130893463D01*
X181629285Y-131826624D01*
X182385663Y-132523367D01*
X183351097Y-132877622D01*
X184119238Y-132846099D01*
X187530045Y-132020939D01*
X188227653Y-131697860D01*
X188545000Y-131353351D01*
X188545000Y-134941072D01*
X188499791Y-135197466D01*
X188400041Y-135370238D01*
X188247215Y-135498474D01*
X188030992Y-135577173D01*
X187930097Y-135586000D01*
X106739927Y-135586000D01*
X106483534Y-135540791D01*
X106310762Y-135441041D01*
X106182526Y-135288215D01*
X106103827Y-135071992D01*
X106095000Y-134971097D01*
X106095000Y-131353351D01*
X106412347Y-131697860D01*
X107109955Y-132020939D01*
X110520761Y-132846099D01*
X111288903Y-132877622D01*
X112254337Y-132523367D01*
X113010715Y-131826624D01*
X113442884Y-130893463D01*
X113485051Y-129865951D01*
X113130796Y-128900518D01*
X112434053Y-128144140D01*
X111736445Y-127821061D01*
X108325638Y-126995901D01*
X107557497Y-126964378D01*
X106592063Y-127318633D01*
X106095000Y-127776506D01*
X106095000Y-95688150D01*
X107215940Y-95688150D01*
X107215940Y-97278769D01*
X107312613Y-97512158D01*
X107491241Y-97690787D01*
X107724630Y-97787460D01*
X109315250Y-97787460D01*
X109474000Y-97628710D01*
X109474000Y-95529400D01*
X109728000Y-95529400D01*
X109728000Y-97628710D01*
X109886750Y-97787460D01*
X111477370Y-97787460D01*
X111710759Y-97690787D01*
X111889387Y-97512158D01*
X111902500Y-97480500D01*
X111902500Y-100152200D01*
X111951783Y-100399965D01*
X112092131Y-100610009D01*
X112302175Y-100750357D01*
X112549940Y-100799640D01*
X116050060Y-100799640D01*
X116297825Y-100750357D01*
X116507869Y-100610009D01*
X116648217Y-100399965D01*
X116697500Y-100152200D01*
X116697500Y-97245631D01*
X120457692Y-93485440D01*
X121500000Y-93485440D01*
X121747765Y-93436157D01*
X121957809Y-93295809D01*
X122098157Y-93085765D01*
X122120587Y-92973000D01*
X134726183Y-92973000D01*
X134588690Y-93110493D01*
X134355000Y-93674670D01*
X134355000Y-94285330D01*
X134588690Y-94849507D01*
X134755000Y-95015817D01*
X134755001Y-97678212D01*
X134732765Y-97790000D01*
X134820854Y-98232854D01*
X134881103Y-98323023D01*
X135071712Y-98608289D01*
X135166480Y-98671611D01*
X135732151Y-99237282D01*
X135808260Y-99619909D01*
X136118356Y-100084000D01*
X125051132Y-100084000D01*
X122135000Y-97167869D01*
X122135000Y-96812778D01*
X121886086Y-96211847D01*
X121426153Y-95751914D01*
X120825222Y-95503000D01*
X120174778Y-95503000D01*
X119573847Y-95751914D01*
X119113914Y-96211847D01*
X118865000Y-96812778D01*
X118865000Y-97463222D01*
X119113914Y-98064153D01*
X119573847Y-98524086D01*
X120174778Y-98773000D01*
X120529869Y-98773000D01*
X123832393Y-102075525D01*
X123895712Y-102170288D01*
X123990475Y-102233607D01*
X123990476Y-102233608D01*
X123990479Y-102233610D01*
X124188842Y-102431973D01*
X123919378Y-102485572D01*
X123461060Y-102791811D01*
X123190000Y-103197481D01*
X122918939Y-102791810D01*
X122460621Y-102485572D01*
X121920000Y-102378036D01*
X121379378Y-102485572D01*
X120921060Y-102791811D01*
X120650000Y-103197481D01*
X120378939Y-102791810D01*
X119920621Y-102485572D01*
X119380000Y-102378036D01*
X118839378Y-102485572D01*
X118381060Y-102791811D01*
X118110000Y-103197481D01*
X117838939Y-102791810D01*
X117380621Y-102485572D01*
X116840000Y-102378036D01*
X116299378Y-102485572D01*
X115841060Y-102791811D01*
X115570000Y-103197481D01*
X115298939Y-102791810D01*
X114840621Y-102485572D01*
X114300000Y-102378036D01*
X113759378Y-102485572D01*
X113301060Y-102791811D01*
X112994822Y-103250129D01*
X112914430Y-103654288D01*
X112914430Y-104625713D01*
X112994822Y-105029872D01*
X113301061Y-105488190D01*
X113415000Y-105564322D01*
X113415000Y-105826984D01*
X113415001Y-105826988D01*
X113415000Y-106592839D01*
X113397663Y-106680000D01*
X113415000Y-106767161D01*
X113415000Y-106767164D01*
X113466348Y-107025309D01*
X113661951Y-107318049D01*
X113735847Y-107367425D01*
X119765001Y-113396580D01*
X119765001Y-115796936D01*
X119565983Y-115714500D01*
X119194017Y-115714500D01*
X118850365Y-115856845D01*
X118587345Y-116119865D01*
X118537344Y-116240578D01*
X118515849Y-116262073D01*
X118515846Y-116262075D01*
X117545845Y-117232077D01*
X117471952Y-117281451D01*
X117422578Y-117355344D01*
X117422576Y-117355346D01*
X117276348Y-117574191D01*
X117251352Y-117699859D01*
X116840000Y-117618036D01*
X116299378Y-117725572D01*
X115841060Y-118031811D01*
X115570000Y-118437481D01*
X115298939Y-118031810D01*
X114840621Y-117725572D01*
X114300000Y-117618036D01*
X113759378Y-117725572D01*
X113301060Y-118031811D01*
X112994822Y-118490129D01*
X112914430Y-118894288D01*
X112914430Y-119865713D01*
X112994822Y-120269872D01*
X113301061Y-120728190D01*
X113759379Y-121034428D01*
X114300000Y-121141964D01*
X114840622Y-121034428D01*
X115298940Y-120728190D01*
X115570000Y-120322520D01*
X115841061Y-120728190D01*
X116299379Y-121034428D01*
X116840000Y-121141964D01*
X117225000Y-121065383D01*
X117225000Y-122248316D01*
X117175000Y-122369027D01*
X117175000Y-122740993D01*
X117317345Y-123084645D01*
X117580365Y-123347665D01*
X117924017Y-123490010D01*
X118295983Y-123490010D01*
X118639635Y-123347665D01*
X118902655Y-123084645D01*
X119045000Y-122740993D01*
X119045000Y-122369027D01*
X118995000Y-122248316D01*
X118995000Y-121065383D01*
X119380000Y-121141964D01*
X119765001Y-121065383D01*
X119765000Y-126434448D01*
X119380000Y-126357867D01*
X118839601Y-126465359D01*
X118381472Y-126771471D01*
X118110000Y-127177757D01*
X117838529Y-126771471D01*
X117380400Y-126465359D01*
X116840000Y-126357867D01*
X116299601Y-126465359D01*
X115841472Y-126771471D01*
X115535359Y-127229600D01*
X115455000Y-127633593D01*
X115455000Y-128406406D01*
X115535359Y-128810399D01*
X115841471Y-129268528D01*
X116247757Y-129540000D01*
X115841472Y-129811471D01*
X115535359Y-130269600D01*
X115455000Y-130673593D01*
X115455000Y-131446406D01*
X115535359Y-131850399D01*
X115841471Y-132308528D01*
X116299600Y-132614641D01*
X116840000Y-132722133D01*
X117380399Y-132614641D01*
X117838528Y-132308529D01*
X118110000Y-131902243D01*
X118381471Y-132308528D01*
X118839600Y-132614641D01*
X119380000Y-132722133D01*
X119920399Y-132614641D01*
X120133562Y-132472210D01*
X121435527Y-133774176D01*
X121484901Y-133848069D01*
X121558794Y-133897443D01*
X121558795Y-133897444D01*
X121777640Y-134043672D01*
X122035785Y-134095020D01*
X122035789Y-134095020D01*
X122122950Y-134112357D01*
X122210111Y-134095020D01*
X141949889Y-134095020D01*
X142037050Y-134112357D01*
X142124211Y-134095020D01*
X142124215Y-134095020D01*
X142382360Y-134043672D01*
X142675099Y-133848069D01*
X142724475Y-133774173D01*
X144026438Y-132472210D01*
X144239600Y-132614641D01*
X144780000Y-132722133D01*
X145320399Y-132614641D01*
X145778528Y-132308529D01*
X146050000Y-131902243D01*
X146321471Y-132308528D01*
X146779600Y-132614641D01*
X147320000Y-132722133D01*
X147860399Y-132614641D01*
X148318528Y-132308529D01*
X148590000Y-131902243D01*
X148861471Y-132308528D01*
X149319600Y-132614641D01*
X149860000Y-132722133D01*
X150400399Y-132614641D01*
X150858528Y-132308529D01*
X151130000Y-131902243D01*
X151401471Y-132308528D01*
X151859600Y-132614641D01*
X152400000Y-132722133D01*
X152940399Y-132614641D01*
X153398528Y-132308529D01*
X153670000Y-131902243D01*
X153941471Y-132308528D01*
X154399600Y-132614641D01*
X154940000Y-132722133D01*
X155480399Y-132614641D01*
X155938528Y-132308529D01*
X156218553Y-131889443D01*
X156230036Y-131931721D01*
X156563106Y-132362736D01*
X157035765Y-132633481D01*
X157138815Y-132652318D01*
X157353000Y-132529656D01*
X157353000Y-131187000D01*
X157333000Y-131187000D01*
X157333000Y-130933000D01*
X157353000Y-130933000D01*
X157353000Y-129590344D01*
X157265092Y-129540000D01*
X157353000Y-129489656D01*
X157353000Y-128147000D01*
X157333000Y-128147000D01*
X157333000Y-127893000D01*
X157353000Y-127893000D01*
X157353000Y-126550344D01*
X157138815Y-126427682D01*
X157035765Y-126446519D01*
X156563106Y-126717264D01*
X156230036Y-127148279D01*
X156218553Y-127190557D01*
X155938529Y-126771471D01*
X155480400Y-126465359D01*
X154940000Y-126357867D01*
X154399601Y-126465359D01*
X153941472Y-126771471D01*
X153670000Y-127177757D01*
X153398529Y-126771471D01*
X153285000Y-126695613D01*
X153285000Y-120804322D01*
X153398940Y-120728190D01*
X153670000Y-120322520D01*
X153941061Y-120728190D01*
X154399379Y-121034428D01*
X154940000Y-121141964D01*
X155480622Y-121034428D01*
X155938940Y-120728190D01*
X156210000Y-120322520D01*
X156481061Y-120728190D01*
X156939379Y-121034428D01*
X157480000Y-121141964D01*
X158020622Y-121034428D01*
X158478940Y-120728190D01*
X158750000Y-120322520D01*
X159021061Y-120728190D01*
X159479379Y-121034428D01*
X160020000Y-121141964D01*
X160560622Y-121034428D01*
X161018940Y-120728190D01*
X161290000Y-120322520D01*
X161561061Y-120728190D01*
X162019379Y-121034428D01*
X162560000Y-121141964D01*
X163100622Y-121034428D01*
X163558940Y-120728190D01*
X163865178Y-120269872D01*
X163945570Y-119865712D01*
X163945570Y-118894287D01*
X163865178Y-118490128D01*
X163558939Y-118031810D01*
X163100621Y-117725572D01*
X162560000Y-117618036D01*
X162019378Y-117725572D01*
X161561060Y-118031811D01*
X161290000Y-118437481D01*
X161018939Y-118031810D01*
X160560621Y-117725572D01*
X160020000Y-117618036D01*
X159479378Y-117725572D01*
X159021060Y-118031811D01*
X158750000Y-118437481D01*
X158478939Y-118031810D01*
X158020621Y-117725572D01*
X157878566Y-117697315D01*
X165388136Y-110187745D01*
X166811861Y-110187745D01*
X166885995Y-110433864D01*
X167423223Y-110626965D01*
X167993454Y-110599778D01*
X168394005Y-110433864D01*
X168468139Y-110187745D01*
X167640000Y-109359605D01*
X166811861Y-110187745D01*
X165388136Y-110187745D01*
X166212131Y-109363751D01*
X166220222Y-109533454D01*
X166386136Y-109934005D01*
X166632255Y-110008139D01*
X167460395Y-109180000D01*
X167819605Y-109180000D01*
X168647745Y-110008139D01*
X168893864Y-109934005D01*
X169086965Y-109396777D01*
X169059778Y-108826546D01*
X168893864Y-108425995D01*
X168647745Y-108351861D01*
X167819605Y-109180000D01*
X167460395Y-109180000D01*
X167446252Y-109165858D01*
X167625858Y-108986252D01*
X167640000Y-109000395D01*
X168468139Y-108172255D01*
X168394005Y-107926136D01*
X168387254Y-107923710D01*
X168452862Y-107896534D01*
X168534396Y-107815000D01*
X171478569Y-107815000D01*
X171721471Y-108178528D01*
X172179600Y-108484641D01*
X172720000Y-108592133D01*
X173260399Y-108484641D01*
X173718528Y-108178529D01*
X174005742Y-107748684D01*
X174029028Y-107827349D01*
X174370460Y-108249145D01*
X174847316Y-108508173D01*
X174918815Y-108522318D01*
X175133000Y-108399656D01*
X175133000Y-106807000D01*
X175113000Y-106807000D01*
X175113000Y-106553000D01*
X175133000Y-106553000D01*
X175133000Y-104960344D01*
X174918815Y-104837682D01*
X174847316Y-104851827D01*
X174370460Y-105110855D01*
X174029028Y-105532651D01*
X174005742Y-105611316D01*
X173718529Y-105181471D01*
X173260400Y-104875359D01*
X172720000Y-104767867D01*
X172179601Y-104875359D01*
X171721472Y-105181471D01*
X171478569Y-105545000D01*
X168534396Y-105545000D01*
X168452862Y-105463466D01*
X167925439Y-105245000D01*
X167354561Y-105245000D01*
X166827138Y-105463466D01*
X166423466Y-105867138D01*
X166370423Y-105995195D01*
X154699805Y-117665813D01*
X154399378Y-117725572D01*
X153941060Y-118031811D01*
X153670000Y-118437481D01*
X153398939Y-118031810D01*
X152940621Y-117725572D01*
X152400000Y-117618036D01*
X151859378Y-117725572D01*
X151401060Y-118031811D01*
X151130000Y-118437481D01*
X150858939Y-118031810D01*
X150400621Y-117725572D01*
X149860000Y-117618036D01*
X149319378Y-117725572D01*
X148861060Y-118031811D01*
X148590000Y-118437481D01*
X148318939Y-118031810D01*
X147860621Y-117725572D01*
X147320000Y-117618036D01*
X146779378Y-117725572D01*
X146321060Y-118031811D01*
X146050000Y-118437481D01*
X145778939Y-118031810D01*
X145320621Y-117725572D01*
X144780000Y-117618036D01*
X144395000Y-117694617D01*
X144395000Y-114666578D01*
X150424156Y-108637423D01*
X150498049Y-108588049D01*
X150567145Y-108484641D01*
X150648109Y-108363470D01*
X150693652Y-108295310D01*
X150745000Y-108037165D01*
X150745000Y-108037161D01*
X150762337Y-107950001D01*
X150745000Y-107862841D01*
X150745000Y-105564322D01*
X150858940Y-105488190D01*
X151145545Y-105059255D01*
X151168501Y-105136817D01*
X151510056Y-105558798D01*
X151987097Y-105817950D01*
X152058725Y-105832133D01*
X152273000Y-105709479D01*
X152273000Y-104267000D01*
X152253000Y-104267000D01*
X152253000Y-104013000D01*
X152273000Y-104013000D01*
X152273000Y-102570521D01*
X152527000Y-102570521D01*
X152527000Y-104013000D01*
X152547000Y-104013000D01*
X152547000Y-104267000D01*
X152527000Y-104267000D01*
X152527000Y-105709479D01*
X152741275Y-105832133D01*
X152812903Y-105817950D01*
X153289944Y-105558798D01*
X153631499Y-105136817D01*
X153654455Y-105059255D01*
X153941061Y-105488190D01*
X154399379Y-105794428D01*
X154940000Y-105901964D01*
X155480622Y-105794428D01*
X155938940Y-105488190D01*
X156210000Y-105082520D01*
X156481061Y-105488190D01*
X156939379Y-105794428D01*
X157480000Y-105901964D01*
X158020622Y-105794428D01*
X158478940Y-105488190D01*
X158750000Y-105082520D01*
X159021061Y-105488190D01*
X159479379Y-105794428D01*
X160020000Y-105901964D01*
X160560622Y-105794428D01*
X161018940Y-105488190D01*
X161290000Y-105082520D01*
X161561061Y-105488190D01*
X162019379Y-105794428D01*
X162560000Y-105901964D01*
X163100622Y-105794428D01*
X163558940Y-105488190D01*
X163865178Y-105029872D01*
X163945570Y-104625712D01*
X163945570Y-103654287D01*
X163865178Y-103250128D01*
X163558939Y-102791810D01*
X163100621Y-102485572D01*
X162560000Y-102378036D01*
X162019378Y-102485572D01*
X161561060Y-102791811D01*
X161290000Y-103197481D01*
X161018939Y-102791810D01*
X160560621Y-102485572D01*
X160020000Y-102378036D01*
X159479378Y-102485572D01*
X159021060Y-102791811D01*
X158750000Y-103197481D01*
X158478939Y-102791810D01*
X158020621Y-102485572D01*
X157480000Y-102378036D01*
X156939378Y-102485572D01*
X156481060Y-102791811D01*
X156210000Y-103197481D01*
X155938939Y-102791810D01*
X155480621Y-102485572D01*
X154940000Y-102378036D01*
X154399378Y-102485572D01*
X153941060Y-102791811D01*
X153654455Y-103220746D01*
X153631499Y-103143183D01*
X153289944Y-102721202D01*
X152812903Y-102462050D01*
X152741275Y-102447867D01*
X152527000Y-102570521D01*
X152273000Y-102570521D01*
X152058725Y-102447867D01*
X151987097Y-102462050D01*
X151510056Y-102721202D01*
X151168501Y-103143183D01*
X151145545Y-103220745D01*
X150858939Y-102791810D01*
X150400621Y-102485572D01*
X149860000Y-102378036D01*
X149319378Y-102485572D01*
X148861060Y-102791811D01*
X148590000Y-103197481D01*
X148318939Y-102791810D01*
X147860621Y-102485572D01*
X147320000Y-102378036D01*
X146779378Y-102485572D01*
X146321060Y-102791811D01*
X146050000Y-103197481D01*
X145778939Y-102791810D01*
X145320621Y-102485572D01*
X144780000Y-102378036D01*
X144239378Y-102485572D01*
X143781060Y-102791811D01*
X143510000Y-103197481D01*
X143238939Y-102791810D01*
X142780621Y-102485572D01*
X142240000Y-102378036D01*
X141699378Y-102485572D01*
X141241060Y-102791811D01*
X140970000Y-103197481D01*
X140698939Y-102791810D01*
X140240621Y-102485572D01*
X139700000Y-102378036D01*
X139159378Y-102485572D01*
X138701060Y-102791811D01*
X138430000Y-103197481D01*
X138158939Y-102791810D01*
X137700621Y-102485572D01*
X137160000Y-102378036D01*
X136619378Y-102485572D01*
X136161060Y-102791811D01*
X135890000Y-103197481D01*
X135618939Y-102791810D01*
X135160621Y-102485572D01*
X134620000Y-102378036D01*
X134079378Y-102485572D01*
X133621060Y-102791811D01*
X133350000Y-103197481D01*
X133078939Y-102791810D01*
X132620621Y-102485572D01*
X132080000Y-102378036D01*
X131539378Y-102485572D01*
X131081060Y-102791811D01*
X130810000Y-103197481D01*
X130538939Y-102791810D01*
X130080621Y-102485572D01*
X129540000Y-102378036D01*
X128999378Y-102485572D01*
X128541060Y-102791811D01*
X128270000Y-103197481D01*
X127998939Y-102791810D01*
X127540621Y-102485572D01*
X127430875Y-102463742D01*
X127321132Y-102354000D01*
X163486869Y-102354000D01*
X164218389Y-103085521D01*
X164281711Y-103180289D01*
X164625146Y-103409765D01*
X164657145Y-103431146D01*
X165099999Y-103519235D01*
X165211782Y-103497000D01*
X174936132Y-103497000D01*
X175018191Y-103619809D01*
X175228235Y-103760157D01*
X175476000Y-103809440D01*
X176118308Y-103809440D01*
X176665000Y-104356133D01*
X176665000Y-104923541D01*
X176592191Y-104972191D01*
X176451843Y-105182235D01*
X176403609Y-105424725D01*
X176149540Y-105110855D01*
X175672684Y-104851827D01*
X175601185Y-104837682D01*
X175387000Y-104960344D01*
X175387000Y-106553000D01*
X175407000Y-106553000D01*
X175407000Y-106807000D01*
X175387000Y-106807000D01*
X175387000Y-108399656D01*
X175601185Y-108522318D01*
X175672684Y-108508173D01*
X176149540Y-108249145D01*
X176403609Y-107935275D01*
X176451843Y-108177765D01*
X176592191Y-108387809D01*
X176802235Y-108528157D01*
X177050000Y-108577440D01*
X177937149Y-108577440D01*
X162635591Y-123879000D01*
X161531878Y-123879000D01*
X161449641Y-123862642D01*
X161367404Y-123879000D01*
X161123840Y-123927448D01*
X160847640Y-124111999D01*
X160801056Y-124181717D01*
X158313360Y-126669414D01*
X157924235Y-126446519D01*
X157821185Y-126427682D01*
X157607000Y-126550344D01*
X157607000Y-127893000D01*
X157627000Y-127893000D01*
X157627000Y-128147000D01*
X157607000Y-128147000D01*
X157607000Y-129489656D01*
X157694908Y-129540000D01*
X157607000Y-129590344D01*
X157607000Y-130933000D01*
X157627000Y-130933000D01*
X157627000Y-131187000D01*
X157607000Y-131187000D01*
X157607000Y-132529656D01*
X157821185Y-132652318D01*
X157924235Y-132633481D01*
X158396894Y-132362736D01*
X158729964Y-131931721D01*
X158741447Y-131889443D01*
X159021471Y-132308528D01*
X159479600Y-132614641D01*
X160020000Y-132722133D01*
X160560399Y-132614641D01*
X161018528Y-132308529D01*
X161290000Y-131902243D01*
X161561471Y-132308528D01*
X162019600Y-132614641D01*
X162560000Y-132722133D01*
X163100399Y-132614641D01*
X163558528Y-132308529D01*
X163830000Y-131902243D01*
X164101471Y-132308528D01*
X164559600Y-132614641D01*
X165100000Y-132722133D01*
X165640399Y-132614641D01*
X166098528Y-132308529D01*
X166370000Y-131902243D01*
X166641471Y-132308528D01*
X167099600Y-132614641D01*
X167640000Y-132722133D01*
X168180399Y-132614641D01*
X168638528Y-132308529D01*
X168910000Y-131902243D01*
X169181471Y-132308528D01*
X169639600Y-132614641D01*
X170180000Y-132722133D01*
X170720399Y-132614641D01*
X171178528Y-132308529D01*
X171450000Y-131902243D01*
X171721471Y-132308528D01*
X172179600Y-132614641D01*
X172720000Y-132722133D01*
X173260399Y-132614641D01*
X173718528Y-132308529D01*
X173998553Y-131889443D01*
X174010036Y-131931721D01*
X174343106Y-132362736D01*
X174815765Y-132633481D01*
X174918815Y-132652318D01*
X175133000Y-132529656D01*
X175133000Y-131187000D01*
X175113000Y-131187000D01*
X175113000Y-130933000D01*
X175133000Y-130933000D01*
X175133000Y-129590344D01*
X175045092Y-129540000D01*
X175133000Y-129489656D01*
X175133000Y-128147000D01*
X175113000Y-128147000D01*
X175113000Y-127893000D01*
X175133000Y-127893000D01*
X175133000Y-126550344D01*
X175387000Y-126550344D01*
X175387000Y-127893000D01*
X175407000Y-127893000D01*
X175407000Y-128147000D01*
X175387000Y-128147000D01*
X175387000Y-129489656D01*
X175474908Y-129540000D01*
X175387000Y-129590344D01*
X175387000Y-130933000D01*
X175407000Y-130933000D01*
X175407000Y-131187000D01*
X175387000Y-131187000D01*
X175387000Y-132529656D01*
X175601185Y-132652318D01*
X175704235Y-132633481D01*
X176176894Y-132362736D01*
X176509964Y-131931721D01*
X176521447Y-131889443D01*
X176801471Y-132308528D01*
X177259600Y-132614641D01*
X177800000Y-132722133D01*
X178340399Y-132614641D01*
X178798528Y-132308529D01*
X179104641Y-131850400D01*
X179185000Y-131446407D01*
X179185000Y-130673594D01*
X179104641Y-130269601D01*
X178935000Y-130015715D01*
X178935000Y-129526459D01*
X179007809Y-129477809D01*
X179148157Y-129267765D01*
X179197440Y-129020000D01*
X179197440Y-127020000D01*
X179148157Y-126772235D01*
X179007809Y-126562191D01*
X178797765Y-126421843D01*
X178550000Y-126372560D01*
X177050000Y-126372560D01*
X176802235Y-126421843D01*
X176592191Y-126562191D01*
X176451843Y-126772235D01*
X176404254Y-127011483D01*
X176176894Y-126717264D01*
X175704235Y-126446519D01*
X175601185Y-126427682D01*
X175387000Y-126550344D01*
X175133000Y-126550344D01*
X174918815Y-126427682D01*
X174815765Y-126446519D01*
X174343106Y-126717264D01*
X174010036Y-127148279D01*
X173998553Y-127190557D01*
X173718529Y-126771471D01*
X173260400Y-126465359D01*
X172720000Y-126357867D01*
X172179601Y-126465359D01*
X171721472Y-126771471D01*
X171450000Y-127177757D01*
X171178529Y-126771471D01*
X170720400Y-126465359D01*
X170180000Y-126357867D01*
X169639601Y-126465359D01*
X169181472Y-126771471D01*
X168910000Y-127177757D01*
X168638529Y-126771471D01*
X168180400Y-126465359D01*
X167640000Y-126357867D01*
X167099601Y-126465359D01*
X166641472Y-126771471D01*
X166370000Y-127177757D01*
X166098529Y-126771471D01*
X165935000Y-126662204D01*
X165935000Y-126456867D01*
X182015283Y-110376585D01*
X182085001Y-110330001D01*
X182269552Y-110053801D01*
X182318000Y-109810237D01*
X182334358Y-109728000D01*
X182318000Y-109645763D01*
X182318000Y-108867857D01*
X183630000Y-108867857D01*
X183630000Y-114652143D01*
X187450000Y-114652143D01*
X187450000Y-108867857D01*
X183630000Y-108867857D01*
X182318000Y-108867857D01*
X182318000Y-98643867D01*
X185433368Y-95528500D01*
X185566256Y-95528500D01*
X185999418Y-95442339D01*
X186490625Y-95114125D01*
X186818839Y-94622918D01*
X186934092Y-94043500D01*
X186818839Y-93464082D01*
X186490625Y-92972875D01*
X185999418Y-92644661D01*
X185566256Y-92558500D01*
X185273744Y-92558500D01*
X184840582Y-92644661D01*
X184349375Y-92972875D01*
X184150000Y-93271261D01*
X183950625Y-92972875D01*
X183459418Y-92644661D01*
X183026256Y-92558500D01*
X182733744Y-92558500D01*
X182300582Y-92644661D01*
X181809375Y-92972875D01*
X181610000Y-93271261D01*
X181410625Y-92972875D01*
X180919418Y-92644661D01*
X180486256Y-92558500D01*
X180193744Y-92558500D01*
X179760582Y-92644661D01*
X179269375Y-92972875D01*
X179070000Y-93271261D01*
X178870625Y-92972875D01*
X178379418Y-92644661D01*
X177946256Y-92558500D01*
X177653744Y-92558500D01*
X177220582Y-92644661D01*
X176729375Y-92972875D01*
X176530000Y-93271261D01*
X176330625Y-92972875D01*
X175839418Y-92644661D01*
X175406256Y-92558500D01*
X175113744Y-92558500D01*
X174680582Y-92644661D01*
X174189375Y-92972875D01*
X173990000Y-93271261D01*
X173790625Y-92972875D01*
X173299418Y-92644661D01*
X172866256Y-92558500D01*
X172573744Y-92558500D01*
X172140582Y-92644661D01*
X171649375Y-92972875D01*
X171450000Y-93271261D01*
X171250625Y-92972875D01*
X170759418Y-92644661D01*
X170326256Y-92558500D01*
X170033744Y-92558500D01*
X169600582Y-92644661D01*
X169109375Y-92972875D01*
X168910000Y-93271261D01*
X168710625Y-92972875D01*
X168219418Y-92644661D01*
X167786256Y-92558500D01*
X167493744Y-92558500D01*
X167060582Y-92644661D01*
X166569375Y-92972875D01*
X166370000Y-93271261D01*
X166170625Y-92972875D01*
X165679418Y-92644661D01*
X165246256Y-92558500D01*
X164953744Y-92558500D01*
X164520582Y-92644661D01*
X164029375Y-92972875D01*
X163830000Y-93271261D01*
X163630625Y-92972875D01*
X163139418Y-92644661D01*
X162706256Y-92558500D01*
X162413744Y-92558500D01*
X161980582Y-92644661D01*
X161489375Y-92972875D01*
X161290000Y-93271261D01*
X161090625Y-92972875D01*
X160599418Y-92644661D01*
X160166256Y-92558500D01*
X159873744Y-92558500D01*
X159440582Y-92644661D01*
X158949375Y-92972875D01*
X158750000Y-93271261D01*
X158550625Y-92972875D01*
X158059418Y-92644661D01*
X157626256Y-92558500D01*
X157333744Y-92558500D01*
X156900582Y-92644661D01*
X156409375Y-92972875D01*
X156210000Y-93271261D01*
X156010625Y-92972875D01*
X155519418Y-92644661D01*
X155086256Y-92558500D01*
X154793744Y-92558500D01*
X154360582Y-92644661D01*
X153869375Y-92972875D01*
X153670000Y-93271261D01*
X153470625Y-92972875D01*
X152979418Y-92644661D01*
X152546256Y-92558500D01*
X152253744Y-92558500D01*
X151820582Y-92644661D01*
X151329375Y-92972875D01*
X151130000Y-93271261D01*
X150930625Y-92972875D01*
X150439418Y-92644661D01*
X150006256Y-92558500D01*
X149713744Y-92558500D01*
X149280582Y-92644661D01*
X148789375Y-92972875D01*
X148590000Y-93271261D01*
X148390625Y-92972875D01*
X147899418Y-92644661D01*
X147512912Y-92567780D01*
X146059613Y-91114482D01*
X145996289Y-91019711D01*
X145620855Y-90768854D01*
X145289783Y-90703000D01*
X145178000Y-90680765D01*
X145066217Y-90703000D01*
X122120587Y-90703000D01*
X122098157Y-90590235D01*
X121957809Y-90380191D01*
X121747765Y-90239843D01*
X121500000Y-90190560D01*
X119500000Y-90190560D01*
X119252235Y-90239843D01*
X119042191Y-90380191D01*
X118901843Y-90590235D01*
X118852560Y-90838000D01*
X118852560Y-91880308D01*
X116685060Y-94047808D01*
X116685060Y-92688410D01*
X116526310Y-92529660D01*
X114427000Y-92529660D01*
X114427000Y-94628970D01*
X114585750Y-94787720D01*
X115945149Y-94787720D01*
X114728229Y-96004640D01*
X112549940Y-96004640D01*
X112302175Y-96053923D01*
X112092131Y-96194271D01*
X111986060Y-96353016D01*
X111986060Y-95688150D01*
X111827310Y-95529400D01*
X109728000Y-95529400D01*
X109474000Y-95529400D01*
X107374690Y-95529400D01*
X107215940Y-95688150D01*
X106095000Y-95688150D01*
X106095000Y-93526031D01*
X107215940Y-93526031D01*
X107215940Y-95116650D01*
X107374690Y-95275400D01*
X109474000Y-95275400D01*
X109474000Y-93176090D01*
X109728000Y-93176090D01*
X109728000Y-95275400D01*
X111827310Y-95275400D01*
X111986060Y-95116650D01*
X111986060Y-94450728D01*
X112011613Y-94512418D01*
X112190241Y-94691047D01*
X112423630Y-94787720D01*
X114014250Y-94787720D01*
X114173000Y-94628970D01*
X114173000Y-92529660D01*
X112073690Y-92529660D01*
X111914940Y-92688410D01*
X111914940Y-93354332D01*
X111889387Y-93292642D01*
X111710759Y-93114013D01*
X111477370Y-93017340D01*
X109886750Y-93017340D01*
X109728000Y-93176090D01*
X109474000Y-93176090D01*
X109315250Y-93017340D01*
X107724630Y-93017340D01*
X107491241Y-93114013D01*
X107312613Y-93292642D01*
X107215940Y-93526031D01*
X106095000Y-93526031D01*
X106095000Y-90526291D01*
X111914940Y-90526291D01*
X111914940Y-92116910D01*
X112073690Y-92275660D01*
X114173000Y-92275660D01*
X114173000Y-90176350D01*
X114427000Y-90176350D01*
X114427000Y-92275660D01*
X116526310Y-92275660D01*
X116685060Y-92116910D01*
X116685060Y-90526291D01*
X116588387Y-90292902D01*
X116409759Y-90114273D01*
X116176370Y-90017600D01*
X114585750Y-90017600D01*
X114427000Y-90176350D01*
X114173000Y-90176350D01*
X114014250Y-90017600D01*
X112423630Y-90017600D01*
X112190241Y-90114273D01*
X112011613Y-90292902D01*
X111914940Y-90526291D01*
X106095000Y-90526291D01*
X106095000Y-89467927D01*
X106140209Y-89211534D01*
X106239959Y-89038762D01*
X106392785Y-88910526D01*
X106609009Y-88831827D01*
X106709903Y-88823000D01*
X187900073Y-88823000D01*
X188156466Y-88868209D01*
G36*
X134079379Y-121034428D02*
X134620000Y-121141964D01*
X135017701Y-121062857D01*
X135017701Y-121413720D01*
X130245847Y-126185575D01*
X130171951Y-126234951D01*
X130025318Y-126454403D01*
X129540000Y-126357867D01*
X128999601Y-126465359D01*
X128541472Y-126771471D01*
X128270000Y-127177757D01*
X127998529Y-126771471D01*
X127731476Y-126593032D01*
X132148757Y-122175752D01*
X132207000Y-122187337D01*
X132294161Y-122170000D01*
X132294165Y-122170000D01*
X132552310Y-122118652D01*
X132845049Y-121923049D01*
X132894425Y-121849153D01*
X133095864Y-121647714D01*
X133215345Y-121567879D01*
X133264721Y-121493983D01*
X133844736Y-120913969D01*
X133871918Y-120895807D01*
X134079379Y-121034428D01*
X134079379Y-121034428D01*
G37*
X134079379Y-121034428D02*
X134620000Y-121141964D01*
X135017701Y-121062857D01*
X135017701Y-121413720D01*
X130245847Y-126185575D01*
X130171951Y-126234951D01*
X130025318Y-126454403D01*
X129540000Y-126357867D01*
X128999601Y-126465359D01*
X128541472Y-126771471D01*
X128270000Y-127177757D01*
X127998529Y-126771471D01*
X127731476Y-126593032D01*
X132148757Y-122175752D01*
X132207000Y-122187337D01*
X132294161Y-122170000D01*
X132294165Y-122170000D01*
X132552310Y-122118652D01*
X132845049Y-121923049D01*
X132894425Y-121849153D01*
X133095864Y-121647714D01*
X133215345Y-121567879D01*
X133264721Y-121493983D01*
X133844736Y-120913969D01*
X133871918Y-120895807D01*
X134079379Y-121034428D01*
G36*
X138815001Y-126695614D02*
X138701472Y-126771471D01*
X138430000Y-127177757D01*
X138158529Y-126771471D01*
X137700400Y-126465359D01*
X137362443Y-126398135D01*
X138815000Y-124945578D01*
X138815001Y-126695614D01*
X138815001Y-126695614D01*
G37*
X138815001Y-126695614D02*
X138701472Y-126771471D01*
X138430000Y-127177757D01*
X138158529Y-126771471D01*
X137700400Y-126465359D01*
X137362443Y-126398135D01*
X138815000Y-124945578D01*
X138815001Y-126695614D01*
G36*
X122374421Y-126448257D02*
X121920000Y-126357867D01*
X121535000Y-126434448D01*
X121535000Y-121065383D01*
X121920000Y-121141964D01*
X122374420Y-121051574D01*
X122374421Y-126448257D01*
X122374421Y-126448257D01*
G37*
X122374421Y-126448257D02*
X121920000Y-126357867D01*
X121535000Y-126434448D01*
X121535000Y-121065383D01*
X121920000Y-121141964D01*
X122374420Y-121051574D01*
X122374421Y-126448257D01*
G36*
X139159379Y-121034428D02*
X139700000Y-121141964D01*
X140072301Y-121067909D01*
X140072301Y-121185120D01*
X135325847Y-125931575D01*
X135251951Y-125980951D01*
X135056348Y-126273691D01*
X135023634Y-126438155D01*
X134620000Y-126357867D01*
X134235000Y-126434448D01*
X134235000Y-125715578D01*
X138994156Y-120956423D01*
X139018396Y-120940226D01*
X139159379Y-121034428D01*
X139159379Y-121034428D01*
G37*
X139159379Y-121034428D02*
X139700000Y-121141964D01*
X140072301Y-121067909D01*
X140072301Y-121185120D01*
X135325847Y-125931575D01*
X135251951Y-125980951D01*
X135056348Y-126273691D01*
X135023634Y-126438155D01*
X134620000Y-126357867D01*
X134235000Y-126434448D01*
X134235000Y-125715578D01*
X138994156Y-120956423D01*
X139018396Y-120940226D01*
X139159379Y-121034428D01*
G36*
X136161061Y-105488190D02*
X136275000Y-105564322D01*
X136275001Y-111901420D01*
X132785847Y-115390575D01*
X132711951Y-115439951D01*
X132516348Y-115732691D01*
X132465000Y-115990836D01*
X132465000Y-115990839D01*
X132447663Y-116078000D01*
X132465000Y-116165161D01*
X132465000Y-117694617D01*
X132080000Y-117618036D01*
X131539378Y-117725572D01*
X131081060Y-118031811D01*
X130794455Y-118460746D01*
X130771499Y-118383183D01*
X130429944Y-117961202D01*
X129952903Y-117702050D01*
X129881275Y-117687867D01*
X129667000Y-117810521D01*
X129667000Y-119253000D01*
X129687000Y-119253000D01*
X129687000Y-119507000D01*
X129667000Y-119507000D01*
X129667000Y-120949479D01*
X129803675Y-121027714D01*
X124471279Y-126360111D01*
X124460000Y-126357867D01*
X124144420Y-126420640D01*
X124144420Y-121079191D01*
X124460000Y-121141964D01*
X125000622Y-121034428D01*
X125458940Y-120728190D01*
X125730000Y-120322520D01*
X126001061Y-120728190D01*
X126459379Y-121034428D01*
X127000000Y-121141964D01*
X127540622Y-121034428D01*
X127998940Y-120728190D01*
X128285545Y-120299255D01*
X128308501Y-120376817D01*
X128650056Y-120798798D01*
X129127097Y-121057950D01*
X129198725Y-121072133D01*
X129413000Y-120949479D01*
X129413000Y-119507000D01*
X129393000Y-119507000D01*
X129393000Y-119253000D01*
X129413000Y-119253000D01*
X129413000Y-117810521D01*
X129198725Y-117687867D01*
X129127097Y-117702050D01*
X128650056Y-117961202D01*
X128308501Y-118383183D01*
X128285545Y-118460745D01*
X127998939Y-118031810D01*
X127540621Y-117725572D01*
X127000000Y-117618036D01*
X126459378Y-117725572D01*
X126001060Y-118031811D01*
X125730000Y-118437481D01*
X125458939Y-118031810D01*
X125000621Y-117725572D01*
X124460000Y-117618036D01*
X124144420Y-117680809D01*
X124144420Y-113327158D01*
X131654293Y-105817286D01*
X132080000Y-105901964D01*
X132620622Y-105794428D01*
X133078940Y-105488190D01*
X133350000Y-105082520D01*
X133621061Y-105488190D01*
X134079379Y-105794428D01*
X134620000Y-105901964D01*
X135160622Y-105794428D01*
X135618940Y-105488190D01*
X135890000Y-105082520D01*
X136161061Y-105488190D01*
X136161061Y-105488190D01*
G37*
X136161061Y-105488190D02*
X136275000Y-105564322D01*
X136275001Y-111901420D01*
X132785847Y-115390575D01*
X132711951Y-115439951D01*
X132516348Y-115732691D01*
X132465000Y-115990836D01*
X132465000Y-115990839D01*
X132447663Y-116078000D01*
X132465000Y-116165161D01*
X132465000Y-117694617D01*
X132080000Y-117618036D01*
X131539378Y-117725572D01*
X131081060Y-118031811D01*
X130794455Y-118460746D01*
X130771499Y-118383183D01*
X130429944Y-117961202D01*
X129952903Y-117702050D01*
X129881275Y-117687867D01*
X129667000Y-117810521D01*
X129667000Y-119253000D01*
X129687000Y-119253000D01*
X129687000Y-119507000D01*
X129667000Y-119507000D01*
X129667000Y-120949479D01*
X129803675Y-121027714D01*
X124471279Y-126360111D01*
X124460000Y-126357867D01*
X124144420Y-126420640D01*
X124144420Y-121079191D01*
X124460000Y-121141964D01*
X125000622Y-121034428D01*
X125458940Y-120728190D01*
X125730000Y-120322520D01*
X126001061Y-120728190D01*
X126459379Y-121034428D01*
X127000000Y-121141964D01*
X127540622Y-121034428D01*
X127998940Y-120728190D01*
X128285545Y-120299255D01*
X128308501Y-120376817D01*
X128650056Y-120798798D01*
X129127097Y-121057950D01*
X129198725Y-121072133D01*
X129413000Y-120949479D01*
X129413000Y-119507000D01*
X129393000Y-119507000D01*
X129393000Y-119253000D01*
X129413000Y-119253000D01*
X129413000Y-117810521D01*
X129198725Y-117687867D01*
X129127097Y-117702050D01*
X128650056Y-117961202D01*
X128308501Y-118383183D01*
X128285545Y-118460745D01*
X127998939Y-118031810D01*
X127540621Y-117725572D01*
X127000000Y-117618036D01*
X126459378Y-117725572D01*
X126001060Y-118031811D01*
X125730000Y-118437481D01*
X125458939Y-118031810D01*
X125000621Y-117725572D01*
X124460000Y-117618036D01*
X124144420Y-117680809D01*
X124144420Y-113327158D01*
X131654293Y-105817286D01*
X132080000Y-105901964D01*
X132620622Y-105794428D01*
X133078940Y-105488190D01*
X133350000Y-105082520D01*
X133621061Y-105488190D01*
X134079379Y-105794428D01*
X134620000Y-105901964D01*
X135160622Y-105794428D01*
X135618940Y-105488190D01*
X135890000Y-105082520D01*
X136161061Y-105488190D01*
G36*
X128541061Y-105488190D02*
X128999379Y-105794428D01*
X129145023Y-105823398D01*
X122695267Y-112273155D01*
X122621371Y-112322531D01*
X122425768Y-112615271D01*
X122374420Y-112873416D01*
X122374420Y-112873419D01*
X122357083Y-112960580D01*
X122374420Y-113047741D01*
X122374420Y-117708426D01*
X121920000Y-117618036D01*
X121535000Y-117694617D01*
X121535000Y-113117159D01*
X121552337Y-113029999D01*
X121535000Y-112942839D01*
X121535000Y-112942835D01*
X121483652Y-112684690D01*
X121398793Y-112557690D01*
X121337424Y-112465845D01*
X121337423Y-112465844D01*
X121288049Y-112391951D01*
X121214156Y-112342577D01*
X115185000Y-106313422D01*
X115185000Y-105564322D01*
X115298940Y-105488190D01*
X115570000Y-105082520D01*
X115841061Y-105488190D01*
X116299379Y-105794428D01*
X116840000Y-105901964D01*
X117380622Y-105794428D01*
X117838940Y-105488190D01*
X118110000Y-105082520D01*
X118381061Y-105488190D01*
X118839379Y-105794428D01*
X119380000Y-105901964D01*
X119920622Y-105794428D01*
X120378940Y-105488190D01*
X120650000Y-105082520D01*
X120921061Y-105488190D01*
X121379379Y-105794428D01*
X121920000Y-105901964D01*
X122460622Y-105794428D01*
X122918940Y-105488190D01*
X123190000Y-105082520D01*
X123461061Y-105488190D01*
X123919379Y-105794428D01*
X124460000Y-105901964D01*
X125000622Y-105794428D01*
X125458940Y-105488190D01*
X125730000Y-105082520D01*
X126001061Y-105488190D01*
X126459379Y-105794428D01*
X127000000Y-105901964D01*
X127540622Y-105794428D01*
X127998940Y-105488190D01*
X128270000Y-105082520D01*
X128541061Y-105488190D01*
X128541061Y-105488190D01*
G37*
X128541061Y-105488190D02*
X128999379Y-105794428D01*
X129145023Y-105823398D01*
X122695267Y-112273155D01*
X122621371Y-112322531D01*
X122425768Y-112615271D01*
X122374420Y-112873416D01*
X122374420Y-112873419D01*
X122357083Y-112960580D01*
X122374420Y-113047741D01*
X122374420Y-117708426D01*
X121920000Y-117618036D01*
X121535000Y-117694617D01*
X121535000Y-113117159D01*
X121552337Y-113029999D01*
X121535000Y-112942839D01*
X121535000Y-112942835D01*
X121483652Y-112684690D01*
X121398793Y-112557690D01*
X121337424Y-112465845D01*
X121337423Y-112465844D01*
X121288049Y-112391951D01*
X121214156Y-112342577D01*
X115185000Y-106313422D01*
X115185000Y-105564322D01*
X115298940Y-105488190D01*
X115570000Y-105082520D01*
X115841061Y-105488190D01*
X116299379Y-105794428D01*
X116840000Y-105901964D01*
X117380622Y-105794428D01*
X117838940Y-105488190D01*
X118110000Y-105082520D01*
X118381061Y-105488190D01*
X118839379Y-105794428D01*
X119380000Y-105901964D01*
X119920622Y-105794428D01*
X120378940Y-105488190D01*
X120650000Y-105082520D01*
X120921061Y-105488190D01*
X121379379Y-105794428D01*
X121920000Y-105901964D01*
X122460622Y-105794428D01*
X122918940Y-105488190D01*
X123190000Y-105082520D01*
X123461061Y-105488190D01*
X123919379Y-105794428D01*
X124460000Y-105901964D01*
X125000622Y-105794428D01*
X125458940Y-105488190D01*
X125730000Y-105082520D01*
X126001061Y-105488190D01*
X126459379Y-105794428D01*
X127000000Y-105901964D01*
X127540622Y-105794428D01*
X127998940Y-105488190D01*
X128270000Y-105082520D01*
X128541061Y-105488190D01*
G36*
X141241061Y-105488190D02*
X141355000Y-105564322D01*
X141355001Y-111886294D01*
X141061291Y-112180005D01*
X140991631Y-112110345D01*
X140647979Y-111968000D01*
X140276013Y-111968000D01*
X139932361Y-112110345D01*
X139669341Y-112373365D01*
X139619340Y-112494078D01*
X139473578Y-112639840D01*
X139399683Y-112689215D01*
X139350301Y-112763120D01*
X134464444Y-117648978D01*
X134235000Y-117694617D01*
X134235000Y-116444578D01*
X137724156Y-112955423D01*
X137798049Y-112906049D01*
X137893559Y-112763110D01*
X137993652Y-112613310D01*
X138022984Y-112465845D01*
X138045000Y-112355165D01*
X138045000Y-112355161D01*
X138062337Y-112268000D01*
X138045000Y-112180839D01*
X138045000Y-105564322D01*
X138158940Y-105488190D01*
X138430000Y-105082520D01*
X138701061Y-105488190D01*
X139159379Y-105794428D01*
X139700000Y-105901964D01*
X140240622Y-105794428D01*
X140698940Y-105488190D01*
X140970000Y-105082520D01*
X141241061Y-105488190D01*
X141241061Y-105488190D01*
G37*
X141241061Y-105488190D02*
X141355000Y-105564322D01*
X141355001Y-111886294D01*
X141061291Y-112180005D01*
X140991631Y-112110345D01*
X140647979Y-111968000D01*
X140276013Y-111968000D01*
X139932361Y-112110345D01*
X139669341Y-112373365D01*
X139619340Y-112494078D01*
X139473578Y-112639840D01*
X139399683Y-112689215D01*
X139350301Y-112763120D01*
X134464444Y-117648978D01*
X134235000Y-117694617D01*
X134235000Y-116444578D01*
X137724156Y-112955423D01*
X137798049Y-112906049D01*
X137893559Y-112763110D01*
X137993652Y-112613310D01*
X138022984Y-112465845D01*
X138045000Y-112355165D01*
X138045000Y-112355161D01*
X138062337Y-112268000D01*
X138045000Y-112180839D01*
X138045000Y-105564322D01*
X138158940Y-105488190D01*
X138430000Y-105082520D01*
X138701061Y-105488190D01*
X139159379Y-105794428D01*
X139700000Y-105901964D01*
X140240622Y-105794428D01*
X140698940Y-105488190D01*
X140970000Y-105082520D01*
X141241061Y-105488190D01*
G36*
X143781061Y-105488190D02*
X143895001Y-105564322D01*
X143895000Y-110377421D01*
X143125000Y-111147421D01*
X143125000Y-105564322D01*
X143238940Y-105488190D01*
X143510000Y-105082520D01*
X143781061Y-105488190D01*
X143781061Y-105488190D01*
G37*
X143781061Y-105488190D02*
X143895001Y-105564322D01*
X143895000Y-110377421D01*
X143125000Y-111147421D01*
X143125000Y-105564322D01*
X143238940Y-105488190D01*
X143510000Y-105082520D01*
X143781061Y-105488190D01*
G36*
X146321061Y-105488190D02*
X146435000Y-105564322D01*
X146435001Y-109107420D01*
X145665000Y-109877421D01*
X145665000Y-105564322D01*
X145778940Y-105488190D01*
X146050000Y-105082520D01*
X146321061Y-105488190D01*
X146321061Y-105488190D01*
G37*
X146321061Y-105488190D02*
X146435000Y-105564322D01*
X146435001Y-109107420D01*
X145665000Y-109877421D01*
X145665000Y-105564322D01*
X145778940Y-105488190D01*
X146050000Y-105082520D01*
X146321061Y-105488190D01*
G36*
X148861061Y-105488190D02*
X148975000Y-105564322D01*
X148975000Y-105826984D01*
X148975001Y-105826989D01*
X148975000Y-107583421D01*
X148205000Y-108353421D01*
X148205000Y-105564322D01*
X148318940Y-105488190D01*
X148590000Y-105082520D01*
X148861061Y-105488190D01*
X148861061Y-105488190D01*
G37*
X148861061Y-105488190D02*
X148975000Y-105564322D01*
X148975000Y-105826984D01*
X148975001Y-105826989D01*
X148975000Y-107583421D01*
X148205000Y-108353421D01*
X148205000Y-105564322D01*
X148318940Y-105488190D01*
X148590000Y-105082520D01*
X148861061Y-105488190D01*
G36*
X174189375Y-95114125D02*
X174680582Y-95442339D01*
X175113744Y-95528500D01*
X175119633Y-95528500D01*
X178235000Y-98643868D01*
X178235000Y-102715868D01*
X177723440Y-102204308D01*
X177723440Y-101562000D01*
X177674157Y-101314235D01*
X177533809Y-101104191D01*
X177323765Y-100963843D01*
X177089813Y-100917307D01*
X177104139Y-100869745D01*
X176276000Y-100041605D01*
X175447861Y-100869745D01*
X175462187Y-100917307D01*
X175228235Y-100963843D01*
X175018191Y-101104191D01*
X174936132Y-101227000D01*
X173296298Y-101227000D01*
X173333490Y-101137211D01*
X173333490Y-100665789D01*
X173153085Y-100230251D01*
X172819739Y-99896905D01*
X172384201Y-99716500D01*
X171912779Y-99716500D01*
X171792068Y-99766500D01*
X171493926Y-99766500D01*
X171574960Y-99645223D01*
X174829035Y-99645223D01*
X174856222Y-100215454D01*
X175022136Y-100616005D01*
X175268255Y-100690139D01*
X176096395Y-99862000D01*
X176455605Y-99862000D01*
X177283745Y-100690139D01*
X177529864Y-100616005D01*
X177722965Y-100078777D01*
X177695778Y-99508546D01*
X177529864Y-99107995D01*
X177283745Y-99033861D01*
X176455605Y-99862000D01*
X176096395Y-99862000D01*
X175268255Y-99033861D01*
X175022136Y-99107995D01*
X174829035Y-99645223D01*
X171574960Y-99645223D01*
X171578839Y-99639418D01*
X171694092Y-99060000D01*
X171653167Y-98854255D01*
X175447861Y-98854255D01*
X176276000Y-99682395D01*
X177104139Y-98854255D01*
X177030005Y-98608136D01*
X176492777Y-98415035D01*
X175922546Y-98442222D01*
X175521995Y-98608136D01*
X175447861Y-98854255D01*
X171653167Y-98854255D01*
X171578839Y-98480582D01*
X171250625Y-97989375D01*
X170759418Y-97661161D01*
X170326256Y-97575000D01*
X170033744Y-97575000D01*
X169600582Y-97661161D01*
X169109375Y-97989375D01*
X169097184Y-98007619D01*
X169088157Y-97962235D01*
X168947809Y-97752191D01*
X168737765Y-97611843D01*
X168490000Y-97562560D01*
X166790000Y-97562560D01*
X166542235Y-97611843D01*
X166332191Y-97752191D01*
X166191843Y-97962235D01*
X166142560Y-98210000D01*
X166142560Y-99766500D01*
X166141632Y-99766500D01*
X165473612Y-99098481D01*
X165410289Y-99003711D01*
X165034855Y-98752854D01*
X164703783Y-98687000D01*
X164592000Y-98664765D01*
X164480217Y-98687000D01*
X163646484Y-98687000D01*
X163791041Y-98527423D01*
X163951904Y-98139039D01*
X163829915Y-97917000D01*
X162687000Y-97917000D01*
X162687000Y-97937000D01*
X162433000Y-97937000D01*
X162433000Y-97917000D01*
X161290085Y-97917000D01*
X161168096Y-98139039D01*
X161328959Y-98527423D01*
X161473516Y-98687000D01*
X156072396Y-98687000D01*
X156156534Y-98602862D01*
X156375000Y-98075439D01*
X156375000Y-97504561D01*
X156348656Y-97440961D01*
X161168096Y-97440961D01*
X161290085Y-97663000D01*
X162433000Y-97663000D01*
X162433000Y-96519371D01*
X162687000Y-96519371D01*
X162687000Y-97663000D01*
X163829915Y-97663000D01*
X163951904Y-97440961D01*
X163791041Y-97052577D01*
X163415134Y-96637611D01*
X162909041Y-96398086D01*
X162687000Y-96519371D01*
X162433000Y-96519371D01*
X162210959Y-96398086D01*
X161704866Y-96637611D01*
X161328959Y-97052577D01*
X161168096Y-97440961D01*
X156348656Y-97440961D01*
X156156534Y-96977138D01*
X155752862Y-96573466D01*
X155225439Y-96355000D01*
X154654561Y-96355000D01*
X154127138Y-96573466D01*
X153723466Y-96977138D01*
X153650000Y-97154500D01*
X153576534Y-96977138D01*
X153172862Y-96573466D01*
X152645439Y-96355000D01*
X152074561Y-96355000D01*
X151547138Y-96573466D01*
X151143466Y-96977138D01*
X151110000Y-97057932D01*
X151076534Y-96977138D01*
X150672862Y-96573466D01*
X150145439Y-96355000D01*
X149574561Y-96355000D01*
X149047138Y-96573466D01*
X148643466Y-96977138D01*
X148425000Y-97504561D01*
X148425000Y-98075439D01*
X148453234Y-98143603D01*
X147185613Y-96875982D01*
X147122289Y-96781211D01*
X147027524Y-96717891D01*
X145915000Y-95605369D01*
X145915000Y-95017781D01*
X146050000Y-94815739D01*
X146249375Y-95114125D01*
X146740582Y-95442339D01*
X147173744Y-95528500D01*
X147466256Y-95528500D01*
X147899418Y-95442339D01*
X148390625Y-95114125D01*
X148590000Y-94815739D01*
X148789375Y-95114125D01*
X149280582Y-95442339D01*
X149713744Y-95528500D01*
X150006256Y-95528500D01*
X150439418Y-95442339D01*
X150930625Y-95114125D01*
X151130000Y-94815739D01*
X151329375Y-95114125D01*
X151820582Y-95442339D01*
X152253744Y-95528500D01*
X152546256Y-95528500D01*
X152979418Y-95442339D01*
X153470625Y-95114125D01*
X153670000Y-94815739D01*
X153869375Y-95114125D01*
X154360582Y-95442339D01*
X154793744Y-95528500D01*
X155086256Y-95528500D01*
X155519418Y-95442339D01*
X156010625Y-95114125D01*
X156210000Y-94815739D01*
X156409375Y-95114125D01*
X156900582Y-95442339D01*
X157333744Y-95528500D01*
X157626256Y-95528500D01*
X158059418Y-95442339D01*
X158550625Y-95114125D01*
X158750000Y-94815739D01*
X158949375Y-95114125D01*
X159440582Y-95442339D01*
X159873744Y-95528500D01*
X160166256Y-95528500D01*
X160599418Y-95442339D01*
X161090625Y-95114125D01*
X161290000Y-94815739D01*
X161489375Y-95114125D01*
X161980582Y-95442339D01*
X162413744Y-95528500D01*
X162706256Y-95528500D01*
X163139418Y-95442339D01*
X163630625Y-95114125D01*
X163830000Y-94815739D01*
X164029375Y-95114125D01*
X164520582Y-95442339D01*
X164953744Y-95528500D01*
X165246256Y-95528500D01*
X165679418Y-95442339D01*
X166170625Y-95114125D01*
X166370000Y-94815739D01*
X166569375Y-95114125D01*
X167060582Y-95442339D01*
X167493744Y-95528500D01*
X167786256Y-95528500D01*
X168219418Y-95442339D01*
X168710625Y-95114125D01*
X168910000Y-94815739D01*
X169109375Y-95114125D01*
X169600582Y-95442339D01*
X170033744Y-95528500D01*
X170326256Y-95528500D01*
X170759418Y-95442339D01*
X171250625Y-95114125D01*
X171450000Y-94815739D01*
X171649375Y-95114125D01*
X172140582Y-95442339D01*
X172573744Y-95528500D01*
X172866256Y-95528500D01*
X173299418Y-95442339D01*
X173790625Y-95114125D01*
X173990000Y-94815739D01*
X174189375Y-95114125D01*
X174189375Y-95114125D01*
G37*
X174189375Y-95114125D02*
X174680582Y-95442339D01*
X175113744Y-95528500D01*
X175119633Y-95528500D01*
X178235000Y-98643868D01*
X178235000Y-102715868D01*
X177723440Y-102204308D01*
X177723440Y-101562000D01*
X177674157Y-101314235D01*
X177533809Y-101104191D01*
X177323765Y-100963843D01*
X177089813Y-100917307D01*
X177104139Y-100869745D01*
X176276000Y-100041605D01*
X175447861Y-100869745D01*
X175462187Y-100917307D01*
X175228235Y-100963843D01*
X175018191Y-101104191D01*
X174936132Y-101227000D01*
X173296298Y-101227000D01*
X173333490Y-101137211D01*
X173333490Y-100665789D01*
X173153085Y-100230251D01*
X172819739Y-99896905D01*
X172384201Y-99716500D01*
X171912779Y-99716500D01*
X171792068Y-99766500D01*
X171493926Y-99766500D01*
X171574960Y-99645223D01*
X174829035Y-99645223D01*
X174856222Y-100215454D01*
X175022136Y-100616005D01*
X175268255Y-100690139D01*
X176096395Y-99862000D01*
X176455605Y-99862000D01*
X177283745Y-100690139D01*
X177529864Y-100616005D01*
X177722965Y-100078777D01*
X177695778Y-99508546D01*
X177529864Y-99107995D01*
X177283745Y-99033861D01*
X176455605Y-99862000D01*
X176096395Y-99862000D01*
X175268255Y-99033861D01*
X175022136Y-99107995D01*
X174829035Y-99645223D01*
X171574960Y-99645223D01*
X171578839Y-99639418D01*
X171694092Y-99060000D01*
X171653167Y-98854255D01*
X175447861Y-98854255D01*
X176276000Y-99682395D01*
X177104139Y-98854255D01*
X177030005Y-98608136D01*
X176492777Y-98415035D01*
X175922546Y-98442222D01*
X175521995Y-98608136D01*
X175447861Y-98854255D01*
X171653167Y-98854255D01*
X171578839Y-98480582D01*
X171250625Y-97989375D01*
X170759418Y-97661161D01*
X170326256Y-97575000D01*
X170033744Y-97575000D01*
X169600582Y-97661161D01*
X169109375Y-97989375D01*
X169097184Y-98007619D01*
X169088157Y-97962235D01*
X168947809Y-97752191D01*
X168737765Y-97611843D01*
X168490000Y-97562560D01*
X166790000Y-97562560D01*
X166542235Y-97611843D01*
X166332191Y-97752191D01*
X166191843Y-97962235D01*
X166142560Y-98210000D01*
X166142560Y-99766500D01*
X166141632Y-99766500D01*
X165473612Y-99098481D01*
X165410289Y-99003711D01*
X165034855Y-98752854D01*
X164703783Y-98687000D01*
X164592000Y-98664765D01*
X164480217Y-98687000D01*
X163646484Y-98687000D01*
X163791041Y-98527423D01*
X163951904Y-98139039D01*
X163829915Y-97917000D01*
X162687000Y-97917000D01*
X162687000Y-97937000D01*
X162433000Y-97937000D01*
X162433000Y-97917000D01*
X161290085Y-97917000D01*
X161168096Y-98139039D01*
X161328959Y-98527423D01*
X161473516Y-98687000D01*
X156072396Y-98687000D01*
X156156534Y-98602862D01*
X156375000Y-98075439D01*
X156375000Y-97504561D01*
X156348656Y-97440961D01*
X161168096Y-97440961D01*
X161290085Y-97663000D01*
X162433000Y-97663000D01*
X162433000Y-96519371D01*
X162687000Y-96519371D01*
X162687000Y-97663000D01*
X163829915Y-97663000D01*
X163951904Y-97440961D01*
X163791041Y-97052577D01*
X163415134Y-96637611D01*
X162909041Y-96398086D01*
X162687000Y-96519371D01*
X162433000Y-96519371D01*
X162210959Y-96398086D01*
X161704866Y-96637611D01*
X161328959Y-97052577D01*
X161168096Y-97440961D01*
X156348656Y-97440961D01*
X156156534Y-96977138D01*
X155752862Y-96573466D01*
X155225439Y-96355000D01*
X154654561Y-96355000D01*
X154127138Y-96573466D01*
X153723466Y-96977138D01*
X153650000Y-97154500D01*
X153576534Y-96977138D01*
X153172862Y-96573466D01*
X152645439Y-96355000D01*
X152074561Y-96355000D01*
X151547138Y-96573466D01*
X151143466Y-96977138D01*
X151110000Y-97057932D01*
X151076534Y-96977138D01*
X150672862Y-96573466D01*
X150145439Y-96355000D01*
X149574561Y-96355000D01*
X149047138Y-96573466D01*
X148643466Y-96977138D01*
X148425000Y-97504561D01*
X148425000Y-98075439D01*
X148453234Y-98143603D01*
X147185613Y-96875982D01*
X147122289Y-96781211D01*
X147027524Y-96717891D01*
X145915000Y-95605369D01*
X145915000Y-95017781D01*
X146050000Y-94815739D01*
X146249375Y-95114125D01*
X146740582Y-95442339D01*
X147173744Y-95528500D01*
X147466256Y-95528500D01*
X147899418Y-95442339D01*
X148390625Y-95114125D01*
X148590000Y-94815739D01*
X148789375Y-95114125D01*
X149280582Y-95442339D01*
X149713744Y-95528500D01*
X150006256Y-95528500D01*
X150439418Y-95442339D01*
X150930625Y-95114125D01*
X151130000Y-94815739D01*
X151329375Y-95114125D01*
X151820582Y-95442339D01*
X152253744Y-95528500D01*
X152546256Y-95528500D01*
X152979418Y-95442339D01*
X153470625Y-95114125D01*
X153670000Y-94815739D01*
X153869375Y-95114125D01*
X154360582Y-95442339D01*
X154793744Y-95528500D01*
X155086256Y-95528500D01*
X155519418Y-95442339D01*
X156010625Y-95114125D01*
X156210000Y-94815739D01*
X156409375Y-95114125D01*
X156900582Y-95442339D01*
X157333744Y-95528500D01*
X157626256Y-95528500D01*
X158059418Y-95442339D01*
X158550625Y-95114125D01*
X158750000Y-94815739D01*
X158949375Y-95114125D01*
X159440582Y-95442339D01*
X159873744Y-95528500D01*
X160166256Y-95528500D01*
X160599418Y-95442339D01*
X161090625Y-95114125D01*
X161290000Y-94815739D01*
X161489375Y-95114125D01*
X161980582Y-95442339D01*
X162413744Y-95528500D01*
X162706256Y-95528500D01*
X163139418Y-95442339D01*
X163630625Y-95114125D01*
X163830000Y-94815739D01*
X164029375Y-95114125D01*
X164520582Y-95442339D01*
X164953744Y-95528500D01*
X165246256Y-95528500D01*
X165679418Y-95442339D01*
X166170625Y-95114125D01*
X166370000Y-94815739D01*
X166569375Y-95114125D01*
X167060582Y-95442339D01*
X167493744Y-95528500D01*
X167786256Y-95528500D01*
X168219418Y-95442339D01*
X168710625Y-95114125D01*
X168910000Y-94815739D01*
X169109375Y-95114125D01*
X169600582Y-95442339D01*
X170033744Y-95528500D01*
X170326256Y-95528500D01*
X170759418Y-95442339D01*
X171250625Y-95114125D01*
X171450000Y-94815739D01*
X171649375Y-95114125D01*
X172140582Y-95442339D01*
X172573744Y-95528500D01*
X172866256Y-95528500D01*
X173299418Y-95442339D01*
X173790625Y-95114125D01*
X173990000Y-94815739D01*
X174189375Y-95114125D01*
G36*
X140755000Y-93067191D02*
X140755000Y-93757750D01*
X140913750Y-93916500D01*
X142113000Y-93916500D01*
X142113000Y-93896500D01*
X142367000Y-93896500D01*
X142367000Y-93916500D01*
X142387000Y-93916500D01*
X142387000Y-94170500D01*
X142367000Y-94170500D01*
X142367000Y-95369750D01*
X142525750Y-95528500D01*
X143216310Y-95528500D01*
X143449699Y-95431827D01*
X143628327Y-95253198D01*
X143645001Y-95212944D01*
X143645001Y-95963712D01*
X143622765Y-96075500D01*
X143710854Y-96518354D01*
X143710855Y-96518355D01*
X143961712Y-96893789D01*
X144056479Y-96957110D01*
X144667118Y-97567750D01*
X144609869Y-97625000D01*
X144494561Y-97625000D01*
X143967138Y-97843466D01*
X143563466Y-98247138D01*
X143345000Y-98774561D01*
X143345000Y-99345439D01*
X143563466Y-99872862D01*
X143774604Y-100084000D01*
X138201644Y-100084000D01*
X138511740Y-99619909D01*
X138623113Y-99060000D01*
X138511740Y-98500091D01*
X138194577Y-98025423D01*
X137719909Y-97708260D01*
X137337282Y-97632151D01*
X137025000Y-97319869D01*
X137025000Y-95273026D01*
X137170302Y-95418327D01*
X137403691Y-95515000D01*
X138144250Y-95515000D01*
X138303000Y-95356250D01*
X138303000Y-94107000D01*
X138557000Y-94107000D01*
X138557000Y-95356250D01*
X138715750Y-95515000D01*
X139456309Y-95515000D01*
X139689698Y-95418327D01*
X139868327Y-95239699D01*
X139965000Y-95006310D01*
X139965000Y-94329250D01*
X140755000Y-94329250D01*
X140755000Y-95019809D01*
X140851673Y-95253198D01*
X141030301Y-95431827D01*
X141263690Y-95528500D01*
X141954250Y-95528500D01*
X142113000Y-95369750D01*
X142113000Y-94170500D01*
X140913750Y-94170500D01*
X140755000Y-94329250D01*
X139965000Y-94329250D01*
X139965000Y-94265750D01*
X139806250Y-94107000D01*
X138557000Y-94107000D01*
X138303000Y-94107000D01*
X138283000Y-94107000D01*
X138283000Y-93853000D01*
X138303000Y-93853000D01*
X138303000Y-93833000D01*
X138557000Y-93833000D01*
X138557000Y-93853000D01*
X139806250Y-93853000D01*
X139965000Y-93694250D01*
X139965000Y-92973000D01*
X140794015Y-92973000D01*
X140755000Y-93067191D01*
X140755000Y-93067191D01*
G37*
X140755000Y-93067191D02*
X140755000Y-93757750D01*
X140913750Y-93916500D01*
X142113000Y-93916500D01*
X142113000Y-93896500D01*
X142367000Y-93896500D01*
X142367000Y-93916500D01*
X142387000Y-93916500D01*
X142387000Y-94170500D01*
X142367000Y-94170500D01*
X142367000Y-95369750D01*
X142525750Y-95528500D01*
X143216310Y-95528500D01*
X143449699Y-95431827D01*
X143628327Y-95253198D01*
X143645001Y-95212944D01*
X143645001Y-95963712D01*
X143622765Y-96075500D01*
X143710854Y-96518354D01*
X143710855Y-96518355D01*
X143961712Y-96893789D01*
X144056479Y-96957110D01*
X144667118Y-97567750D01*
X144609869Y-97625000D01*
X144494561Y-97625000D01*
X143967138Y-97843466D01*
X143563466Y-98247138D01*
X143345000Y-98774561D01*
X143345000Y-99345439D01*
X143563466Y-99872862D01*
X143774604Y-100084000D01*
X138201644Y-100084000D01*
X138511740Y-99619909D01*
X138623113Y-99060000D01*
X138511740Y-98500091D01*
X138194577Y-98025423D01*
X137719909Y-97708260D01*
X137337282Y-97632151D01*
X137025000Y-97319869D01*
X137025000Y-95273026D01*
X137170302Y-95418327D01*
X137403691Y-95515000D01*
X138144250Y-95515000D01*
X138303000Y-95356250D01*
X138303000Y-94107000D01*
X138557000Y-94107000D01*
X138557000Y-95356250D01*
X138715750Y-95515000D01*
X139456309Y-95515000D01*
X139689698Y-95418327D01*
X139868327Y-95239699D01*
X139965000Y-95006310D01*
X139965000Y-94329250D01*
X140755000Y-94329250D01*
X140755000Y-95019809D01*
X140851673Y-95253198D01*
X141030301Y-95431827D01*
X141263690Y-95528500D01*
X141954250Y-95528500D01*
X142113000Y-95369750D01*
X142113000Y-94170500D01*
X140913750Y-94170500D01*
X140755000Y-94329250D01*
X139965000Y-94329250D01*
X139965000Y-94265750D01*
X139806250Y-94107000D01*
X138557000Y-94107000D01*
X138303000Y-94107000D01*
X138283000Y-94107000D01*
X138283000Y-93853000D01*
X138303000Y-93853000D01*
X138303000Y-93833000D01*
X138557000Y-93833000D01*
X138557000Y-93853000D01*
X139806250Y-93853000D01*
X139965000Y-93694250D01*
X139965000Y-92973000D01*
X140794015Y-92973000D01*
X140755000Y-93067191D01*
G04 #@! TD*
M02*
