G04 #@! TF.GenerationSoftware,KiCad,Pcbnew,(5.0.0-rc3-dev)*
G04 #@! TF.CreationDate,2019-01-29T23:40:13+01:00*
G04 #@! TF.ProjectId,Lawo 28x13,4C61776F2032387831332E6B69636164,0.12*
G04 #@! TF.SameCoordinates,Original*
G04 #@! TF.FileFunction,Copper,L2,Bot,Signal*
G04 #@! TF.FilePolarity,Positive*
%FSLAX46Y46*%
G04 Gerber Fmt 4.6, Leading zero omitted, Abs format (unit mm)*
G04 Created by KiCad (PCBNEW (5.0.0-rc3-dev)) date 2019 January 29, Tuesday 23:40:13*
%MOMM*%
%LPD*%
G01*
G04 APERTURE LIST*
G04 #@! TA.AperFunction,NonConductor*
%ADD10C,0.300000*%
G04 #@! TD*
G04 #@! TA.AperFunction,SMDPad,CuDef*
%ADD11C,0.300000*%
G04 #@! TD*
G04 #@! TA.AperFunction,Conductor*
%ADD12C,0.100000*%
G04 #@! TD*
G04 #@! TA.AperFunction,ComponentPad*
%ADD13C,1.600000*%
G04 #@! TD*
G04 #@! TA.AperFunction,ComponentPad*
%ADD14O,1.600000X1.600000*%
G04 #@! TD*
G04 #@! TA.AperFunction,ComponentPad*
%ADD15O,1.501140X2.199640*%
G04 #@! TD*
G04 #@! TA.AperFunction,ComponentPad*
%ADD16R,2.000000X2.000000*%
G04 #@! TD*
G04 #@! TA.AperFunction,ComponentPad*
%ADD17C,2.000000*%
G04 #@! TD*
G04 #@! TA.AperFunction,ComponentPad*
%ADD18C,3.900000*%
G04 #@! TD*
G04 #@! TA.AperFunction,Conductor*
%ADD19C,3.900000*%
G04 #@! TD*
G04 #@! TA.AperFunction,ComponentPad*
%ADD20O,1.500000X2.000000*%
G04 #@! TD*
G04 #@! TA.AperFunction,ComponentPad*
%ADD21R,1.500000X2.000000*%
G04 #@! TD*
G04 #@! TA.AperFunction,ComponentPad*
%ADD22C,5.000000*%
G04 #@! TD*
G04 #@! TA.AperFunction,ComponentPad*
%ADD23R,3.500120X3.500120*%
G04 #@! TD*
G04 #@! TA.AperFunction,ComponentPad*
%ADD24R,1.600000X1.600000*%
G04 #@! TD*
G04 #@! TA.AperFunction,ComponentPad*
%ADD25O,1.700000X1.700000*%
G04 #@! TD*
G04 #@! TA.AperFunction,ComponentPad*
%ADD26R,1.700000X1.700000*%
G04 #@! TD*
G04 #@! TA.AperFunction,ComponentPad*
%ADD27C,1.800000*%
G04 #@! TD*
G04 #@! TA.AperFunction,ComponentPad*
%ADD28R,1.800000X1.800000*%
G04 #@! TD*
G04 #@! TA.AperFunction,ComponentPad*
%ADD29O,1.500000X2.500000*%
G04 #@! TD*
G04 #@! TA.AperFunction,ComponentPad*
%ADD30R,1.500000X2.500000*%
G04 #@! TD*
G04 #@! TA.AperFunction,ViaPad*
%ADD31C,0.600000*%
G04 #@! TD*
G04 #@! TA.AperFunction,ViaPad*
%ADD32C,1.100000*%
G04 #@! TD*
G04 #@! TA.AperFunction,Conductor*
%ADD33C,1.000000*%
G04 #@! TD*
G04 #@! TA.AperFunction,Conductor*
%ADD34C,0.400000*%
G04 #@! TD*
G04 #@! TA.AperFunction,Conductor*
%ADD35C,0.500000*%
G04 #@! TD*
G04 #@! TA.AperFunction,Conductor*
%ADD36C,0.254000*%
G04 #@! TD*
G04 APERTURE END LIST*
D10*
X185312857Y-110510000D02*
X185384285Y-110724285D01*
X185455714Y-110795714D01*
X185598571Y-110867142D01*
X185812857Y-110867142D01*
X185955714Y-110795714D01*
X186027142Y-110724285D01*
X186098571Y-110581428D01*
X186098571Y-110010000D01*
X184598571Y-110010000D01*
X184598571Y-110510000D01*
X184670000Y-110652857D01*
X184741428Y-110724285D01*
X184884285Y-110795714D01*
X185027142Y-110795714D01*
X185170000Y-110724285D01*
X185241428Y-110652857D01*
X185312857Y-110510000D01*
X185312857Y-110010000D01*
X184598571Y-111795714D02*
X184598571Y-112081428D01*
X184670000Y-112224285D01*
X184812857Y-112367142D01*
X185098571Y-112438571D01*
X185598571Y-112438571D01*
X185884285Y-112367142D01*
X186027142Y-112224285D01*
X186098571Y-112081428D01*
X186098571Y-111795714D01*
X186027142Y-111652857D01*
X185884285Y-111510000D01*
X185598571Y-111438571D01*
X185098571Y-111438571D01*
X184812857Y-111510000D01*
X184670000Y-111652857D01*
X184598571Y-111795714D01*
X184598571Y-112867142D02*
X184598571Y-113724285D01*
X186098571Y-113295714D02*
X184598571Y-113295714D01*
D11*
G04 #@! TO.P,J6,1*
G04 #@! TO.N,SET_X*
X116840000Y-134355500D03*
D12*
G04 #@! TD*
G04 #@! TO.N,SET_X*
G04 #@! TO.C,J6*
G36*
X116840000Y-133355500D02*
X117590000Y-133855500D01*
X117590000Y-134855500D01*
X116090000Y-134855500D01*
X116090000Y-133855500D01*
X116840000Y-133355500D01*
X116840000Y-133355500D01*
G37*
D11*
G04 #@! TO.P,J6,2*
G04 #@! TO.N,Net-(I1-Pad50)*
X116840000Y-132905500D03*
D12*
G04 #@! TD*
G04 #@! TO.N,Net-(I1-Pad50)*
G04 #@! TO.C,J6*
G36*
X117590000Y-132405500D02*
X117590000Y-133555500D01*
X116840000Y-133055500D01*
X116090000Y-133555500D01*
X116090000Y-132405500D01*
X117590000Y-132405500D01*
X117590000Y-132405500D01*
G37*
D13*
G04 #@! TO.P,R2,1*
G04 #@! TO.N,+5V*
X144780000Y-99060000D03*
D14*
G04 #@! TO.P,R2,2*
G04 #@! TO.N,Net-(LED1-Pad2)*
X137160000Y-99060000D03*
G04 #@! TD*
D15*
G04 #@! TO.P,IC1,40*
G04 #@! TO.N,SET_4*
X114300000Y-104140000D03*
G04 #@! TO.P,IC1,39*
G04 #@! TO.N,SET_6*
X116840000Y-104140000D03*
G04 #@! TO.P,IC1,38*
G04 #@! TO.N,SET_3*
X119380000Y-104140000D03*
G04 #@! TO.P,IC1,37*
G04 #@! TO.N,SET_2*
X121920000Y-104140000D03*
G04 #@! TO.P,IC1,36*
G04 #@! TO.N,SET_1*
X124460000Y-104140000D03*
G04 #@! TO.P,IC1,35*
G04 #@! TO.N,+24V*
X127000000Y-104140000D03*
G04 #@! TO.P,IC1,34*
G04 #@! TO.N,SET_5*
X129540000Y-104140000D03*
G04 #@! TO.P,IC1,33*
G04 #@! TO.N,SET_7*
X132080000Y-104140000D03*
G04 #@! TO.P,IC1,32*
G04 #@! TO.N,SET_X*
X134620000Y-104140000D03*
G04 #@! TO.P,IC1,31*
G04 #@! TO.N,SET_12*
X137160000Y-104140000D03*
G04 #@! TO.P,IC1,30*
G04 #@! TO.N,SET_13*
X139700000Y-104140000D03*
G04 #@! TO.P,IC1,29*
G04 #@! TO.N,SET_11*
X142240000Y-104140000D03*
G04 #@! TO.P,IC1,28*
G04 #@! TO.N,SET_10*
X144780000Y-104140000D03*
G04 #@! TO.P,IC1,27*
G04 #@! TO.N,SET_9*
X147320000Y-104140000D03*
G04 #@! TO.P,IC1,26*
G04 #@! TO.N,SET_8*
X149860000Y-104140000D03*
G04 #@! TO.P,IC1,25*
G04 #@! TO.N,GND*
X152400000Y-104140000D03*
G04 #@! TO.P,IC1,24*
G04 #@! TO.N,Net-(C1-Pad2)*
X154940000Y-104140000D03*
G04 #@! TO.P,IC1,23*
G04 #@! TO.N,ROW_DATA*
X157480000Y-104140000D03*
G04 #@! TO.P,IC1,22*
G04 #@! TO.N,ROW_B1*
X160020000Y-104140000D03*
G04 #@! TO.P,IC1,21*
G04 #@! TO.N,ROW_B0*
X162560000Y-104140000D03*
G04 #@! TO.P,IC1,20*
G04 #@! TO.N,ROW_A2*
X162560000Y-119380000D03*
G04 #@! TO.P,IC1,19*
G04 #@! TO.N,ROW_A0*
X160020000Y-119380000D03*
G04 #@! TO.P,IC1,18*
G04 #@! TO.N,ROW_A1*
X157480000Y-119380000D03*
G04 #@! TO.P,IC1,17*
G04 #@! TO.N,+5V*
X154940000Y-119380000D03*
G04 #@! TO.P,IC1,16*
G04 #@! TO.N,RESET_1*
X152400000Y-119380000D03*
G04 #@! TO.P,IC1,15*
G04 #@! TO.N,RESET_2*
X149860000Y-119380000D03*
G04 #@! TO.P,IC1,14*
G04 #@! TO.N,RESET_3*
X147320000Y-119380000D03*
G04 #@! TO.P,IC1,13*
G04 #@! TO.N,RESET_4*
X144780000Y-119380000D03*
G04 #@! TO.P,IC1,12*
G04 #@! TO.N,RESET_6*
X142240000Y-119380000D03*
G04 #@! TO.P,IC1,11*
G04 #@! TO.N,RESET_5*
X139700000Y-119380000D03*
G04 #@! TO.P,IC1,10*
G04 #@! TO.N,RESET_7*
X137160000Y-119380000D03*
G04 #@! TO.P,IC1,9*
G04 #@! TO.N,RESET_X*
X134620000Y-119380000D03*
G04 #@! TO.P,IC1,8*
G04 #@! TO.N,RESET_12*
X132080000Y-119380000D03*
G04 #@! TO.P,IC1,7*
G04 #@! TO.N,GND*
X129540000Y-119380000D03*
G04 #@! TO.P,IC1,6*
G04 #@! TO.N,RESET_8*
X127000000Y-119380000D03*
G04 #@! TO.P,IC1,5*
G04 #@! TO.N,RESET_9*
X124460000Y-119380000D03*
G04 #@! TO.P,IC1,4*
G04 #@! TO.N,RESET_10*
X121920000Y-119380000D03*
G04 #@! TO.P,IC1,3*
G04 #@! TO.N,RESET_13*
X119380000Y-119380000D03*
G04 #@! TO.P,IC1,2*
G04 #@! TO.N,RESET_11*
X116840000Y-119380000D03*
G04 #@! TO.P,IC1,1*
G04 #@! TO.N,Net-(IC1-Pad1)*
X114300000Y-119380000D03*
G04 #@! TD*
D16*
G04 #@! TO.P,PWR_SW1,1*
G04 #@! TO.N,VIN*
X120500000Y-91838000D03*
D17*
G04 #@! TO.P,PWR_SW1,2*
G04 #@! TO.N,+24V*
X120500000Y-97138000D03*
G04 #@! TD*
D18*
G04 #@! TO.P,I1,*
G04 #@! TO.N,*
X185216800Y-129921000D03*
D19*
G04 #@! TD*
G04 #@! TO.N,*
G04 #@! TO.C,I1*
X183758858Y-130273713D02*
X186674742Y-129568287D01*
D18*
G04 #@! TO.P,I1,*
G04 #@! TO.N,*
X109423200Y-129921000D03*
D19*
G04 #@! TD*
G04 #@! TO.N,*
G04 #@! TO.C,I1*
X110881142Y-130273713D02*
X107965258Y-129568287D01*
D20*
G04 #@! TO.P,I1,42*
G04 #@! TO.N,SET_11*
X127000000Y-131060000D03*
G04 #@! TO.P,I1,41*
G04 #@! TO.N,RESET_11*
X127000000Y-128020000D03*
G04 #@! TO.P,I1,43*
G04 #@! TO.N,RESET_12*
X124460000Y-128020000D03*
G04 #@! TO.P,I1,44*
G04 #@! TO.N,SET_12*
X124460000Y-131060000D03*
G04 #@! TO.P,I1,46*
G04 #@! TO.N,SET_13*
X121920000Y-131060000D03*
G04 #@! TO.P,I1,45*
G04 #@! TO.N,RESET_13*
X121920000Y-128020000D03*
G04 #@! TO.P,I1,49*
G04 #@! TO.N,Net-(I1-Pad49)*
X116840000Y-128020000D03*
G04 #@! TO.P,I1,50*
G04 #@! TO.N,Net-(I1-Pad50)*
X116840000Y-131060000D03*
G04 #@! TO.P,I1,48*
G04 #@! TO.N,Net-(I1-Pad48)*
X119380000Y-131060000D03*
G04 #@! TO.P,I1,47*
G04 #@! TO.N,Net-(I1-Pad47)*
X119380000Y-128020000D03*
G04 #@! TO.P,I1,37*
G04 #@! TO.N,RESET_9*
X132080000Y-128020000D03*
G04 #@! TO.P,I1,38*
G04 #@! TO.N,SET_9*
X132080000Y-131060000D03*
G04 #@! TO.P,I1,40*
G04 #@! TO.N,SET_10*
X129540000Y-131060000D03*
G04 #@! TO.P,I1,39*
G04 #@! TO.N,RESET_10*
X129540000Y-128020000D03*
G04 #@! TO.P,I1,35*
G04 #@! TO.N,RESET_8*
X134620000Y-128020000D03*
G04 #@! TO.P,I1,36*
G04 #@! TO.N,SET_8*
X134620000Y-131060000D03*
G04 #@! TO.P,I1,34*
G04 #@! TO.N,SET_7*
X137160000Y-131060000D03*
G04 #@! TO.P,I1,33*
G04 #@! TO.N,RESET_7*
X137160000Y-128020000D03*
G04 #@! TO.P,I1,31*
G04 #@! TO.N,RESET_6*
X139700000Y-128020000D03*
G04 #@! TO.P,I1,32*
G04 #@! TO.N,SET_6*
X139700000Y-131060000D03*
G04 #@! TO.P,I1,27*
G04 #@! TO.N,RESET_4*
X144780000Y-128020000D03*
G04 #@! TO.P,I1,28*
G04 #@! TO.N,SET_4*
X144780000Y-131060000D03*
G04 #@! TO.P,I1,30*
G04 #@! TO.N,SET_5*
X142240000Y-131060000D03*
G04 #@! TO.P,I1,29*
G04 #@! TO.N,RESET_5*
X142240000Y-128020000D03*
G04 #@! TO.P,I1,25*
G04 #@! TO.N,RESET_3*
X147320000Y-128020000D03*
G04 #@! TO.P,I1,26*
G04 #@! TO.N,SET_3*
X147320000Y-131060000D03*
G04 #@! TO.P,I1,24*
G04 #@! TO.N,SET_2*
X149860000Y-131060000D03*
G04 #@! TO.P,I1,23*
G04 #@! TO.N,RESET_2*
X149860000Y-128020000D03*
G04 #@! TO.P,I1,21*
G04 #@! TO.N,RESET_1*
X152400000Y-128020000D03*
G04 #@! TO.P,I1,22*
G04 #@! TO.N,SET_1*
X152400000Y-131060000D03*
G04 #@! TO.P,I1,20*
G04 #@! TO.N,Net-(I1-Pad20)*
X154940000Y-131060000D03*
G04 #@! TO.P,I1,19*
G04 #@! TO.N,Net-(I1-Pad19)*
X154940000Y-128020000D03*
G04 #@! TO.P,I1,17*
G04 #@! TO.N,GND*
X157480000Y-128020000D03*
G04 #@! TO.P,I1,18*
X157480000Y-131060000D03*
G04 #@! TO.P,I1,16*
G04 #@! TO.N,COL_A0*
X160020000Y-131060000D03*
G04 #@! TO.P,I1,15*
G04 #@! TO.N,COL_A1*
X160020000Y-128020000D03*
G04 #@! TO.P,I1,13*
G04 #@! TO.N,COL_DATA*
X162560000Y-128020000D03*
G04 #@! TO.P,I1,14*
G04 #@! TO.N,COL_A2*
X162560000Y-131060000D03*
G04 #@! TO.P,I1,12*
G04 #@! TO.N,COL_B0*
X165100000Y-131060000D03*
G04 #@! TO.P,I1,11*
G04 #@! TO.N,COL_B1*
X165100000Y-128020000D03*
G04 #@! TO.P,I1,9*
G04 #@! TO.N,Net-(I1-Pad9)*
X167640000Y-128020000D03*
G04 #@! TO.P,I1,10*
G04 #@! TO.N,COL_ENABLE_mR*
X167640000Y-131060000D03*
G04 #@! TO.P,I1,8*
G04 #@! TO.N,Net-(I1-Pad8)*
X170180000Y-131060000D03*
G04 #@! TO.P,I1,7*
G04 #@! TO.N,COL_ENABLE_oR*
X170180000Y-128020000D03*
D21*
G04 #@! TO.P,I1,1*
G04 #@! TO.N,+24V*
X177800000Y-128020000D03*
D20*
G04 #@! TO.P,I1,2*
X177800000Y-131060000D03*
G04 #@! TO.P,I1,3*
G04 #@! TO.N,GND*
X175260000Y-128020000D03*
G04 #@! TO.P,I1,4*
X175260000Y-131060000D03*
G04 #@! TO.P,I1,5*
G04 #@! TO.N,+5V*
X172720000Y-128020000D03*
G04 #@! TO.P,I1,6*
X172720000Y-131060000D03*
G04 #@! TD*
D22*
G04 #@! TO.P,MTH4,1*
G04 #@! TO.N,GND*
X109220000Y-120650000D03*
G04 #@! TD*
G04 #@! TO.P,MTH2,1*
G04 #@! TO.N,GND*
X185420000Y-102870000D03*
G04 #@! TD*
G04 #@! TO.P,MTH3,1*
G04 #@! TO.N,GND*
X185420000Y-120650000D03*
G04 #@! TD*
G04 #@! TO.P,MTH1,1*
G04 #@! TO.N,GND*
X109220000Y-102870000D03*
G04 #@! TD*
D23*
G04 #@! TO.P,PWR1,1*
G04 #@! TO.N,VIN*
X114300000Y-98402140D03*
G04 #@! TO.P,PWR1,2*
G04 #@! TO.N,GND*
X114300000Y-92402660D03*
G04 #@! TO.P,PWR1,3*
X109601000Y-95402400D03*
G04 #@! TD*
D13*
G04 #@! TO.P,C1,1*
G04 #@! TO.N,ROW_ENABLE*
X149860000Y-97790000D03*
G04 #@! TO.P,C1,2*
G04 #@! TO.N,Net-(C1-Pad2)*
X152360000Y-97790000D03*
G04 #@! TD*
G04 #@! TO.P,C2,2*
G04 #@! TO.N,GND*
X175260000Y-99100000D03*
D24*
G04 #@! TO.P,C2,1*
G04 #@! TO.N,+24V*
X175260000Y-101600000D03*
G04 #@! TD*
D13*
G04 #@! TO.P,C3,2*
G04 #@! TO.N,GND*
X159980000Y-122936000D03*
G04 #@! TO.P,C3,1*
G04 #@! TO.N,+5V*
X157480000Y-122936000D03*
G04 #@! TD*
D25*
G04 #@! TO.P,I2,18*
G04 #@! TO.N,COL_B1*
X185420000Y-94043500D03*
G04 #@! TO.P,I2,17*
G04 #@! TO.N,COL_B0*
X182880000Y-94043500D03*
G04 #@! TO.P,I2,16*
G04 #@! TO.N,COL_A2*
X180340000Y-94043500D03*
G04 #@! TO.P,I2,15*
G04 #@! TO.N,COL_A1*
X177800000Y-94043500D03*
G04 #@! TO.P,I2,14*
G04 #@! TO.N,COL_A0*
X175260000Y-94043500D03*
G04 #@! TO.P,I2,13*
G04 #@! TO.N,COL_DATA*
X172720000Y-94043500D03*
G04 #@! TO.P,I2,12*
G04 #@! TO.N,COL_ENABLE_oR*
X170180000Y-94043500D03*
G04 #@! TO.P,I2,11*
G04 #@! TO.N,COL_ENABLE_mR*
X167640000Y-94043500D03*
G04 #@! TO.P,I2,10*
G04 #@! TO.N,ROW_B1*
X165100000Y-94043500D03*
G04 #@! TO.P,I2,9*
G04 #@! TO.N,ROW_B0*
X162560000Y-94043500D03*
G04 #@! TO.P,I2,8*
G04 #@! TO.N,ROW_A2*
X160020000Y-94043500D03*
G04 #@! TO.P,I2,7*
G04 #@! TO.N,ROW_A1*
X157480000Y-94043500D03*
G04 #@! TO.P,I2,6*
G04 #@! TO.N,ROW_A0*
X154940000Y-94043500D03*
G04 #@! TO.P,I2,5*
G04 #@! TO.N,ROW_DATA*
X152400000Y-94043500D03*
G04 #@! TO.P,I2,4*
G04 #@! TO.N,ROW_ENABLE*
X149860000Y-94043500D03*
G04 #@! TO.P,I2,3*
G04 #@! TO.N,VIN*
X147320000Y-94043500D03*
G04 #@! TO.P,I2,2*
G04 #@! TO.N,+5V*
X144780000Y-94043500D03*
D26*
G04 #@! TO.P,I2,1*
G04 #@! TO.N,GND*
X142240000Y-94043500D03*
G04 #@! TD*
D27*
G04 #@! TO.P,LED1,2*
G04 #@! TO.N,Net-(LED1-Pad2)*
X138176000Y-93980000D03*
D28*
G04 #@! TO.P,LED1,1*
G04 #@! TO.N,GND*
X135636000Y-93980000D03*
G04 #@! TD*
D14*
G04 #@! TO.P,R1,2*
G04 #@! TO.N,GND*
X162560000Y-97790000D03*
D13*
G04 #@! TO.P,R1,1*
G04 #@! TO.N,Net-(C1-Pad2)*
X154940000Y-97790000D03*
G04 #@! TD*
D11*
G04 #@! TO.P,J1,2*
G04 #@! TO.N,Net-(I1-Pad19)*
X154940000Y-126174500D03*
D12*
G04 #@! TD*
G04 #@! TO.N,Net-(I1-Pad19)*
G04 #@! TO.C,J1*
G36*
X154190000Y-126674500D02*
X154190000Y-125524500D01*
X154940000Y-126024500D01*
X155690000Y-125524500D01*
X155690000Y-126674500D01*
X154190000Y-126674500D01*
X154190000Y-126674500D01*
G37*
D11*
G04 #@! TO.P,J1,1*
G04 #@! TO.N,RESET_X*
X154940000Y-124724500D03*
D12*
G04 #@! TD*
G04 #@! TO.N,RESET_X*
G04 #@! TO.C,J1*
G36*
X154940000Y-125724500D02*
X154190000Y-125224500D01*
X154190000Y-124224500D01*
X155690000Y-124224500D01*
X155690000Y-125224500D01*
X154940000Y-125724500D01*
X154940000Y-125724500D01*
G37*
D11*
G04 #@! TO.P,J2,1*
G04 #@! TO.N,RESET_X*
X119380000Y-124724500D03*
D12*
G04 #@! TD*
G04 #@! TO.N,RESET_X*
G04 #@! TO.C,J2*
G36*
X119380000Y-125724500D02*
X118630000Y-125224500D01*
X118630000Y-124224500D01*
X120130000Y-124224500D01*
X120130000Y-125224500D01*
X119380000Y-125724500D01*
X119380000Y-125724500D01*
G37*
D11*
G04 #@! TO.P,J2,2*
G04 #@! TO.N,Net-(I1-Pad47)*
X119380000Y-126174500D03*
D12*
G04 #@! TD*
G04 #@! TO.N,Net-(I1-Pad47)*
G04 #@! TO.C,J2*
G36*
X118630000Y-126674500D02*
X118630000Y-125524500D01*
X119380000Y-126024500D01*
X120130000Y-125524500D01*
X120130000Y-126674500D01*
X118630000Y-126674500D01*
X118630000Y-126674500D01*
G37*
D11*
G04 #@! TO.P,J3,1*
G04 #@! TO.N,RESET_X*
X116840000Y-124724500D03*
D12*
G04 #@! TD*
G04 #@! TO.N,RESET_X*
G04 #@! TO.C,J3*
G36*
X116840000Y-125724500D02*
X116090000Y-125224500D01*
X116090000Y-124224500D01*
X117590000Y-124224500D01*
X117590000Y-125224500D01*
X116840000Y-125724500D01*
X116840000Y-125724500D01*
G37*
D11*
G04 #@! TO.P,J3,2*
G04 #@! TO.N,Net-(I1-Pad49)*
X116840000Y-126174500D03*
D12*
G04 #@! TD*
G04 #@! TO.N,Net-(I1-Pad49)*
G04 #@! TO.C,J3*
G36*
X116090000Y-126674500D02*
X116090000Y-125524500D01*
X116840000Y-126024500D01*
X117590000Y-125524500D01*
X117590000Y-126674500D01*
X116090000Y-126674500D01*
X116090000Y-126674500D01*
G37*
D11*
G04 #@! TO.P,J4,2*
G04 #@! TO.N,Net-(I1-Pad20)*
X154940000Y-132905500D03*
D12*
G04 #@! TD*
G04 #@! TO.N,Net-(I1-Pad20)*
G04 #@! TO.C,J4*
G36*
X155690000Y-132405500D02*
X155690000Y-133555500D01*
X154940000Y-133055500D01*
X154190000Y-133555500D01*
X154190000Y-132405500D01*
X155690000Y-132405500D01*
X155690000Y-132405500D01*
G37*
D11*
G04 #@! TO.P,J4,1*
G04 #@! TO.N,SET_X*
X154940000Y-134355500D03*
D12*
G04 #@! TD*
G04 #@! TO.N,SET_X*
G04 #@! TO.C,J4*
G36*
X154940000Y-133355500D02*
X155690000Y-133855500D01*
X155690000Y-134855500D01*
X154190000Y-134855500D01*
X154190000Y-133855500D01*
X154940000Y-133355500D01*
X154940000Y-133355500D01*
G37*
D11*
G04 #@! TO.P,J5,2*
G04 #@! TO.N,Net-(I1-Pad48)*
X119380000Y-132879000D03*
D12*
G04 #@! TD*
G04 #@! TO.N,Net-(I1-Pad48)*
G04 #@! TO.C,J5*
G36*
X120130000Y-132379000D02*
X120130000Y-133529000D01*
X119380000Y-133029000D01*
X118630000Y-133529000D01*
X118630000Y-132379000D01*
X120130000Y-132379000D01*
X120130000Y-132379000D01*
G37*
D11*
G04 #@! TO.P,J5,1*
G04 #@! TO.N,SET_X*
X119380000Y-134329000D03*
D12*
G04 #@! TD*
G04 #@! TO.N,SET_X*
G04 #@! TO.C,J5*
G36*
X119380000Y-133329000D02*
X120130000Y-133829000D01*
X120130000Y-134829000D01*
X118630000Y-134829000D01*
X118630000Y-133829000D01*
X119380000Y-133329000D01*
X119380000Y-133329000D01*
G37*
D29*
G04 #@! TO.P,U1,3*
G04 #@! TO.N,+5V*
X172720000Y-107039000D03*
G04 #@! TO.P,U1,2*
G04 #@! TO.N,GND*
X175260000Y-107039000D03*
D30*
G04 #@! TO.P,U1,1*
G04 #@! TO.N,+24V*
X177800000Y-107039000D03*
G04 #@! TD*
D31*
G04 #@! TO.N,GND*
X160020000Y-106934000D03*
X157480000Y-106934000D03*
X152400000Y-106934000D03*
X175260000Y-125222000D03*
X138430000Y-122047000D03*
X134620000Y-125984000D03*
X134620000Y-121602500D03*
X138430000Y-125984000D03*
X143383000Y-133223000D03*
X124460000Y-123952000D03*
X165100000Y-97790000D03*
X160020000Y-116586000D03*
X139700000Y-106934000D03*
X121920000Y-122047000D03*
X164719000Y-116586000D03*
X164719000Y-106934000D03*
X167640000Y-104140000D03*
X116840000Y-116332000D03*
X152400000Y-116586000D03*
X143510000Y-106934000D03*
X146050000Y-106934000D03*
X148590000Y-106934000D03*
X175260000Y-104140000D03*
X127000000Y-111760000D03*
X121920000Y-111760000D03*
X116840000Y-106934000D03*
X167640000Y-116586000D03*
X175260000Y-116586000D03*
X148590000Y-95885000D03*
X153670000Y-95885000D03*
X167640000Y-97790000D03*
D32*
G04 #@! TO.N,+5V*
X171831000Y-100249990D03*
D31*
G04 #@! TO.N,RESET_X*
X118110000Y-122555010D03*
X141224000Y-112014000D03*
X118872000Y-116586000D03*
G04 #@! TD*
D33*
G04 #@! TO.N,GND*
X175260000Y-130810000D02*
X175260000Y-128270000D01*
X157480000Y-130810000D02*
X157480000Y-128270000D01*
X175260000Y-109039000D02*
X175260000Y-128270000D01*
X175260000Y-107039000D02*
X175260000Y-109039000D01*
X157480000Y-128270000D02*
X157480000Y-125984000D01*
X157480000Y-130810000D02*
X157480000Y-133096000D01*
X175260000Y-130810000D02*
X175260000Y-133096000D01*
X152400000Y-104140000D02*
X152400000Y-102616000D01*
X152400000Y-104140000D02*
X152400000Y-105664000D01*
X129540000Y-119380000D02*
X129540000Y-120904000D01*
X129540000Y-119380000D02*
X129540000Y-117983000D01*
G04 #@! TO.N,+24V*
X177800000Y-128270000D02*
X177800000Y-130810000D01*
X177800000Y-109039000D02*
X177800000Y-128270000D01*
X177800000Y-107039000D02*
X177800000Y-109039000D01*
G04 #@! TO.N,+5V*
X172720000Y-128270000D02*
X172720000Y-130810000D01*
X172720000Y-107039000D02*
X172720000Y-128270000D01*
X172720000Y-107039000D02*
X172720000Y-101138990D01*
X172720000Y-101138990D02*
X172380999Y-100799989D01*
X172380999Y-100799989D02*
X171831000Y-100249990D01*
D34*
G04 #@! TO.N,ROW_ENABLE*
X149860000Y-97750000D02*
X149900000Y-97790000D01*
X149860000Y-94043500D02*
X149860000Y-97790000D01*
D35*
G04 #@! TO.N,RESET_11*
X116840000Y-120015000D02*
X116840000Y-119380000D01*
X120650000Y-123825000D02*
X116840000Y-120015000D01*
X121412000Y-129540000D02*
X120650000Y-128778000D01*
X124887070Y-129540000D02*
X121412000Y-129540000D01*
X120650000Y-128778000D02*
X120650000Y-123825000D01*
X126157070Y-128270000D02*
X124887070Y-129540000D01*
X127000000Y-128270000D02*
X126157070Y-128270000D01*
G04 #@! TO.N,RESET_12*
X124460000Y-127349250D02*
X124460000Y-128270000D01*
X132080000Y-119380000D02*
X132080000Y-119729250D01*
G04 #@! TO.N,RESET_13*
X121920000Y-123952000D02*
X119380000Y-121412000D01*
X119380000Y-121412000D02*
X119380000Y-119380000D01*
X121920000Y-128270000D02*
X121920000Y-123952000D01*
G04 #@! TO.N,SET_13*
X138399420Y-102490170D02*
X139700000Y-103790750D01*
X116442704Y-102490170D02*
X138399420Y-102490170D01*
X115639420Y-103293454D02*
X116442704Y-102490170D01*
X116342940Y-129470010D02*
X115639420Y-128766490D01*
X119737080Y-129470010D02*
X116342940Y-129470010D01*
X115639420Y-128766490D02*
X115639420Y-103293454D01*
X139700000Y-103790750D02*
X139700000Y-104140000D01*
X121077070Y-130810000D02*
X119737080Y-129470010D01*
X121920000Y-130810000D02*
X121077070Y-130810000D01*
G04 #@! TO.N,RESET_9*
X124460000Y-119729250D02*
X124460000Y-119380000D01*
X132080000Y-128270000D02*
X132080000Y-127349250D01*
X132080000Y-127349250D02*
X124460000Y-119729250D01*
G04 #@! TO.N,RESET_10*
X129540000Y-127254000D02*
X129540000Y-128270000D01*
X121920000Y-119634000D02*
X129540000Y-127254000D01*
X121920000Y-119380000D02*
X121920000Y-119634000D01*
G04 #@! TO.N,RESET_8*
X127000000Y-120650000D02*
X127000000Y-119380000D01*
X134620000Y-128270000D02*
X127000000Y-120650000D01*
G04 #@! TO.N,RESET_7*
X137160000Y-119380000D02*
X137160000Y-128270000D01*
G04 #@! TO.N,SET_6*
X116840000Y-104489250D02*
X121951750Y-109601000D01*
X135959420Y-128766490D02*
X136802920Y-129609990D01*
X121951750Y-109601000D02*
X126888126Y-109601000D01*
X116840000Y-104140000D02*
X116840000Y-104489250D01*
X138499990Y-129609990D02*
X139700000Y-130810000D01*
X135959420Y-118672294D02*
X135959420Y-128766490D01*
X126888126Y-109601000D02*
X135959420Y-118672294D01*
X136802920Y-129609990D02*
X138499990Y-129609990D01*
G04 #@! TO.N,RESET_5*
X142240000Y-122682000D02*
X142240000Y-128270000D01*
X139700000Y-120142000D02*
X142240000Y-122682000D01*
X139700000Y-119380000D02*
X139700000Y-120142000D01*
G04 #@! TO.N,SET_5*
X142240000Y-130810000D02*
X142494000Y-130810000D01*
X131092730Y-106041980D02*
X129540000Y-104489250D01*
X152897060Y-132510010D02*
X153600010Y-131807060D01*
X151892000Y-126492000D02*
X146119420Y-120719420D01*
X153600010Y-131807060D02*
X153600010Y-127272940D01*
X153600010Y-127272940D02*
X152819070Y-126492000D01*
X146119420Y-118672294D02*
X133489106Y-106041980D01*
X142494000Y-130810000D02*
X144194010Y-132510010D01*
X144194010Y-132510010D02*
X152897060Y-132510010D01*
X133489106Y-106041980D02*
X131092730Y-106041980D01*
X129540000Y-104489250D02*
X129540000Y-104140000D01*
X152819070Y-126492000D02*
X151892000Y-126492000D01*
X146119420Y-120719420D02*
X146119420Y-118672294D01*
G04 #@! TO.N,SET_3*
X145137080Y-129470010D02*
X141742940Y-129470010D01*
X146477070Y-130810000D02*
X145137080Y-129470010D01*
X147320000Y-130810000D02*
X146477070Y-130810000D01*
X141742940Y-129470010D02*
X140900010Y-128627080D01*
X140900010Y-128627080D02*
X140900010Y-122866010D01*
X140900010Y-122866010D02*
X138360580Y-120326580D01*
X138360580Y-118522544D02*
X128550036Y-108712000D01*
X119380000Y-104489250D02*
X119380000Y-104140000D01*
X138360580Y-120326580D02*
X138360580Y-118522544D01*
X123602750Y-108712000D02*
X119380000Y-104489250D01*
X128550036Y-108712000D02*
X123602750Y-108712000D01*
G04 #@! TO.N,SET_2*
X140900580Y-118533454D02*
X140197296Y-117830170D01*
X141039420Y-120226546D02*
X141039420Y-120211420D01*
X147677080Y-129470010D02*
X146822940Y-129470010D01*
X141039420Y-120211420D02*
X140900580Y-120072580D01*
X121920000Y-104489250D02*
X121920000Y-104140000D01*
X145980010Y-128627080D02*
X145980010Y-125152010D01*
X149017070Y-130810000D02*
X147677080Y-129470010D01*
X145980010Y-125152010D02*
X141757830Y-120929830D01*
X149860000Y-130810000D02*
X149017070Y-130810000D01*
X141757830Y-120929830D02*
X141742704Y-120929830D01*
X140197296Y-117830170D02*
X140182170Y-117830170D01*
X140182170Y-117830170D02*
X130175000Y-107823000D01*
X141742704Y-120929830D02*
X141039420Y-120226546D01*
X125253750Y-107823000D02*
X121920000Y-104489250D01*
X130175000Y-107823000D02*
X125253750Y-107823000D01*
X140900580Y-120072580D02*
X140900580Y-118533454D01*
X146822940Y-129470010D02*
X145980010Y-128627080D01*
G04 #@! TO.N,SET_1*
X124460000Y-104140000D02*
X124460000Y-104489250D01*
X149502920Y-129609990D02*
X151199990Y-129609990D01*
X124460000Y-104489250D02*
X126904750Y-106934000D01*
X151199990Y-129609990D02*
X152400000Y-130810000D01*
X126904750Y-106934000D02*
X131841126Y-106934000D01*
X143440580Y-118533454D02*
X143440580Y-120326580D01*
X148659990Y-128767060D02*
X149502920Y-129609990D01*
X131841126Y-106934000D02*
X143440580Y-118533454D01*
X143440580Y-120326580D02*
X148659990Y-125545990D01*
X148659990Y-125545990D02*
X148659990Y-128767060D01*
D34*
G04 #@! TO.N,COL_A0*
X168790010Y-130508532D02*
X168790010Y-131786349D01*
X169758542Y-129540000D02*
X168790010Y-130508532D01*
X175260000Y-94043500D02*
X170780998Y-98522502D01*
X168790010Y-131786349D02*
X168116349Y-132460010D01*
X171330010Y-128746349D02*
X170536359Y-129540000D01*
X171330010Y-102877010D02*
X171330010Y-128746349D01*
X170780998Y-102327998D02*
X171330010Y-102877010D01*
X161670010Y-132460010D02*
X160020000Y-130810000D01*
X170536359Y-129540000D02*
X169758542Y-129540000D01*
X170780998Y-98522502D02*
X170780998Y-102327998D01*
X168116349Y-132460010D02*
X161670010Y-132460010D01*
G04 #@! TO.N,COL_DATA*
X171469999Y-92793499D02*
X167039999Y-92793499D01*
X162560000Y-125476000D02*
X162560000Y-128270000D01*
X172720000Y-94043500D02*
X171469999Y-92793499D01*
X167039999Y-92793499D02*
X166350001Y-93483497D01*
X166350001Y-121685999D02*
X162560000Y-125476000D01*
X166350001Y-93483497D02*
X166350001Y-121685999D01*
G04 #@! TO.N,COL_ENABLE_oR*
X170180000Y-128270000D02*
X170180000Y-93980000D01*
G04 #@! TO.N,COL_ENABLE_mR*
X167640000Y-130048000D02*
X167640000Y-130810000D01*
X168910000Y-128778000D02*
X167640000Y-130048000D01*
X167640000Y-93980000D02*
X168910000Y-95250000D01*
X168910000Y-95250000D02*
X168910000Y-128778000D01*
G04 #@! TO.N,ROW_A0*
X158115000Y-121285000D02*
X160020000Y-119380000D01*
X156845000Y-121285000D02*
X158115000Y-121285000D01*
X156210000Y-95885000D02*
X156210000Y-120650000D01*
X156210000Y-120650000D02*
X156845000Y-121285000D01*
X154940000Y-94615000D02*
X156210000Y-95885000D01*
X154940000Y-93980000D02*
X154940000Y-94615000D01*
G04 #@! TO.N,ROW_A1*
X158750000Y-96075500D02*
X158750000Y-118110000D01*
X158750000Y-118110000D02*
X157480000Y-119380000D01*
X157480000Y-94805500D02*
X158750000Y-96075500D01*
X157480000Y-93980000D02*
X157480000Y-94805500D01*
G04 #@! TO.N,ROW_A2*
X160027989Y-93987989D02*
X160020000Y-93980000D01*
X162560000Y-119380000D02*
X162560000Y-119030750D01*
X161409430Y-117880180D02*
X161409430Y-103410327D01*
X162560000Y-119030750D02*
X161409430Y-117880180D01*
X161409430Y-103410327D02*
X160027989Y-102028886D01*
X160027989Y-102028886D02*
X160027989Y-93987989D01*
G04 #@! TO.N,ROW_B0*
X162560000Y-103712355D02*
X162560000Y-104140000D01*
X160655000Y-101807355D02*
X162560000Y-103712355D01*
X160655000Y-95885000D02*
X160655000Y-101807355D01*
X162560000Y-93980000D02*
X160655000Y-95885000D01*
G04 #@! TO.N,ROW_B1*
X160020000Y-102933500D02*
X160020000Y-104140000D01*
X158750000Y-95226958D02*
X159385000Y-95861958D01*
X159512000Y-92710000D02*
X158750000Y-93472000D01*
X158750000Y-93472000D02*
X158750000Y-95226958D01*
X159385000Y-102298500D02*
X160020000Y-102933500D01*
X163830000Y-92710000D02*
X159512000Y-92710000D01*
X159385000Y-95861958D02*
X159385000Y-102298500D01*
X165100000Y-93980000D02*
X163830000Y-92710000D01*
G04 #@! TO.N,ROW_DATA*
X157480000Y-96012000D02*
X157480000Y-104140000D01*
X156210000Y-94742000D02*
X157480000Y-96012000D01*
X156210000Y-93472000D02*
X156210000Y-94742000D01*
X155448000Y-92710000D02*
X156210000Y-93472000D01*
X153670000Y-92710000D02*
X155448000Y-92710000D01*
X152400000Y-93980000D02*
X153670000Y-92710000D01*
G04 #@! TO.N,Net-(C1-Pad2)*
X154940000Y-104140000D02*
X154940000Y-100330000D01*
X154140001Y-98589999D02*
X153670000Y-99060000D01*
X154940000Y-97790000D02*
X154140001Y-98589999D01*
X154940000Y-100330000D02*
X153670000Y-99060000D01*
X153670000Y-99060000D02*
X152400000Y-97790000D01*
D35*
G04 #@! TO.N,Net-(I1-Pad49)*
X116840000Y-128270000D02*
X116840000Y-126174500D01*
G04 #@! TO.N,Net-(I1-Pad50)*
X116840000Y-130810000D02*
X116840000Y-132554052D01*
G04 #@! TO.N,Net-(I1-Pad48)*
X119380000Y-130810000D02*
X119380000Y-132554052D01*
G04 #@! TO.N,Net-(I1-Pad47)*
X119380000Y-128270000D02*
X119380000Y-126174500D01*
G04 #@! TO.N,Net-(I1-Pad20)*
X154940000Y-130843948D02*
X154940000Y-132588000D01*
G04 #@! TO.N,Net-(I1-Pad19)*
X154940000Y-128270000D02*
X154940000Y-126174500D01*
G04 #@! TO.N,RESET_X*
X119380000Y-123825010D02*
X118110000Y-122555010D01*
X119380000Y-124724500D02*
X119380000Y-123825010D01*
X116840000Y-123825010D02*
X118110000Y-122555010D01*
X116840000Y-124724500D02*
X116840000Y-123825010D01*
X154940000Y-124724500D02*
X153018534Y-124724500D01*
X141648264Y-112014000D02*
X141224000Y-112014000D01*
X148520580Y-118533454D02*
X142001126Y-112014000D01*
X148520580Y-120226546D02*
X148520580Y-118533454D01*
X153018534Y-124724500D02*
X148520580Y-120226546D01*
X142001126Y-112014000D02*
X141648264Y-112014000D01*
X132175250Y-116586000D02*
X119296264Y-116586000D01*
X119296264Y-116586000D02*
X118872000Y-116586000D01*
X134620000Y-119030750D02*
X132175250Y-116586000D01*
X134620000Y-119380000D02*
X134620000Y-119030750D01*
G04 #@! TO.N,SET_X*
X117690000Y-134355500D02*
X116840000Y-134355500D01*
X119406500Y-134355500D02*
X119380000Y-134329000D01*
X154940000Y-134355500D02*
X119406500Y-134355500D01*
X116866500Y-134329000D02*
X116840000Y-134355500D01*
X119380000Y-134329000D02*
X116866500Y-134329000D01*
X140811250Y-110680500D02*
X134620000Y-104489250D01*
X151060580Y-118533454D02*
X143207626Y-110680500D01*
X151060580Y-120087706D02*
X151060580Y-118533454D01*
X154747364Y-123774490D02*
X151060580Y-120087706D01*
X156179990Y-133965510D02*
X156179990Y-124078078D01*
X143207626Y-110680500D02*
X140811250Y-110680500D01*
X155876402Y-123774490D02*
X154747364Y-123774490D01*
X155790000Y-134355500D02*
X156179990Y-133965510D01*
X156179990Y-124078078D02*
X155876402Y-123774490D01*
X134620000Y-104489250D02*
X134620000Y-104140000D01*
X154940000Y-134355500D02*
X155790000Y-134355500D01*
G04 #@! TD*
D36*
G04 #@! TO.N,GND*
G36*
X188156466Y-88868209D02*
X188329238Y-88967959D01*
X188457474Y-89120785D01*
X188536173Y-89337009D01*
X188545001Y-89437914D01*
X188545000Y-127776506D01*
X188047937Y-127318633D01*
X187082503Y-126964378D01*
X186314361Y-126995901D01*
X182903555Y-127821061D01*
X182205947Y-128144140D01*
X181509204Y-128900518D01*
X181154949Y-129865952D01*
X181197116Y-130893463D01*
X181629285Y-131826624D01*
X182385663Y-132523367D01*
X183351097Y-132877622D01*
X184119238Y-132846099D01*
X187530045Y-132020939D01*
X188227653Y-131697860D01*
X188545000Y-131353351D01*
X188545000Y-134941072D01*
X188499791Y-135197466D01*
X188400041Y-135370238D01*
X188247215Y-135498474D01*
X188030992Y-135577173D01*
X187930097Y-135586000D01*
X106739927Y-135586000D01*
X106483534Y-135540791D01*
X106310762Y-135441041D01*
X106182526Y-135288215D01*
X106103827Y-135071992D01*
X106095000Y-134971097D01*
X106095000Y-131353351D01*
X106412347Y-131697860D01*
X107109955Y-132020939D01*
X110520761Y-132846099D01*
X111288903Y-132877622D01*
X112254337Y-132523367D01*
X113010715Y-131826624D01*
X113442884Y-130893463D01*
X113485051Y-129865951D01*
X113130796Y-128900518D01*
X112434053Y-128144140D01*
X111736445Y-127821061D01*
X108325638Y-126995901D01*
X107557497Y-126964378D01*
X106592063Y-127318633D01*
X106095000Y-127776506D01*
X106095000Y-103654288D01*
X112914430Y-103654288D01*
X112914430Y-104625713D01*
X112994822Y-105029872D01*
X113301061Y-105488190D01*
X113759379Y-105794428D01*
X114300000Y-105901964D01*
X114754421Y-105811574D01*
X114754420Y-117708426D01*
X114300000Y-117618036D01*
X113759378Y-117725572D01*
X113301060Y-118031811D01*
X112994822Y-118490129D01*
X112914430Y-118894288D01*
X112914430Y-119865713D01*
X112994822Y-120269872D01*
X113301061Y-120728190D01*
X113759379Y-121034428D01*
X114300000Y-121141964D01*
X114754420Y-121051575D01*
X114754420Y-128679329D01*
X114737083Y-128766490D01*
X114754420Y-128853651D01*
X114754420Y-128853654D01*
X114805768Y-129111799D01*
X115001371Y-129404539D01*
X115075267Y-129453915D01*
X115655517Y-130034166D01*
X115674094Y-130061969D01*
X115535359Y-130269600D01*
X115455000Y-130673593D01*
X115455000Y-131446406D01*
X115535359Y-131850399D01*
X115616279Y-131971505D01*
X115491843Y-132157735D01*
X115442560Y-132405500D01*
X115442560Y-133555500D01*
X115478574Y-133674445D01*
X115442560Y-133855500D01*
X115442560Y-134855500D01*
X115491843Y-135103265D01*
X115632191Y-135313309D01*
X115842235Y-135453657D01*
X116090000Y-135502940D01*
X117590000Y-135502940D01*
X117837765Y-135453657D01*
X118047809Y-135313309D01*
X118114166Y-135214000D01*
X118123541Y-135214000D01*
X118172191Y-135286809D01*
X118382235Y-135427157D01*
X118630000Y-135476440D01*
X120130000Y-135476440D01*
X120377765Y-135427157D01*
X120587809Y-135286809D01*
X120618752Y-135240500D01*
X153683541Y-135240500D01*
X153732191Y-135313309D01*
X153942235Y-135453657D01*
X154190000Y-135502940D01*
X155690000Y-135502940D01*
X155937765Y-135453657D01*
X156147809Y-135313309D01*
X156288157Y-135103265D01*
X156291883Y-135084533D01*
X156428049Y-134993549D01*
X156477425Y-134919653D01*
X156744144Y-134652934D01*
X156818039Y-134603559D01*
X157013642Y-134310820D01*
X157064990Y-134052675D01*
X157064990Y-134052671D01*
X157082327Y-133965511D01*
X157064990Y-133878351D01*
X157064990Y-132638823D01*
X157138815Y-132652318D01*
X157353000Y-132529656D01*
X157353000Y-131187000D01*
X157333000Y-131187000D01*
X157333000Y-130933000D01*
X157353000Y-130933000D01*
X157353000Y-129590344D01*
X157265092Y-129540000D01*
X157353000Y-129489656D01*
X157353000Y-128147000D01*
X157333000Y-128147000D01*
X157333000Y-127893000D01*
X157353000Y-127893000D01*
X157353000Y-126550344D01*
X157138815Y-126427682D01*
X157064990Y-126441177D01*
X157064990Y-124317330D01*
X157194561Y-124371000D01*
X157765439Y-124371000D01*
X158292862Y-124152534D01*
X158501651Y-123943745D01*
X159151861Y-123943745D01*
X159225995Y-124189864D01*
X159763223Y-124382965D01*
X160333454Y-124355778D01*
X160734005Y-124189864D01*
X160808139Y-123943745D01*
X159980000Y-123115605D01*
X159151861Y-123943745D01*
X158501651Y-123943745D01*
X158696534Y-123748862D01*
X158723525Y-123683701D01*
X158726136Y-123690005D01*
X158972255Y-123764139D01*
X159800395Y-122936000D01*
X160159605Y-122936000D01*
X160987745Y-123764139D01*
X161233864Y-123690005D01*
X161426965Y-123152777D01*
X161399778Y-122582546D01*
X161233864Y-122181995D01*
X160987745Y-122107861D01*
X160159605Y-122936000D01*
X159800395Y-122936000D01*
X158972255Y-122107861D01*
X158726136Y-122181995D01*
X158723710Y-122188746D01*
X158696534Y-122123138D01*
X158563178Y-121989782D01*
X158655259Y-121928255D01*
X159151861Y-121928255D01*
X159980000Y-122756395D01*
X160808139Y-121928255D01*
X160734005Y-121682136D01*
X160196777Y-121489035D01*
X159626546Y-121516222D01*
X159225995Y-121682136D01*
X159151861Y-121928255D01*
X158655259Y-121928255D01*
X158717001Y-121887001D01*
X158763587Y-121817280D01*
X159535313Y-121045554D01*
X160020000Y-121141964D01*
X160560622Y-121034428D01*
X161018940Y-120728190D01*
X161290000Y-120322520D01*
X161561061Y-120728190D01*
X162019379Y-121034428D01*
X162560000Y-121141964D01*
X163100622Y-121034428D01*
X163558940Y-120728190D01*
X163865178Y-120269872D01*
X163945570Y-119865712D01*
X163945570Y-118894287D01*
X163865178Y-118490128D01*
X163558939Y-118031810D01*
X163100621Y-117725572D01*
X162560000Y-117618036D01*
X162366619Y-117656502D01*
X162244430Y-117534313D01*
X162244430Y-105839193D01*
X162560000Y-105901964D01*
X163100622Y-105794428D01*
X163558940Y-105488190D01*
X163865178Y-105029872D01*
X163945570Y-104625712D01*
X163945570Y-103654287D01*
X163865178Y-103250128D01*
X163558939Y-102791810D01*
X163100621Y-102485572D01*
X162560000Y-102378036D01*
X162432008Y-102403495D01*
X161490000Y-101461488D01*
X161490000Y-98705197D01*
X161704866Y-98942389D01*
X162210959Y-99181914D01*
X162433000Y-99060629D01*
X162433000Y-97917000D01*
X162687000Y-97917000D01*
X162687000Y-99060629D01*
X162909041Y-99181914D01*
X163415134Y-98942389D01*
X163791041Y-98527423D01*
X163951904Y-98139039D01*
X163829915Y-97917000D01*
X162687000Y-97917000D01*
X162433000Y-97917000D01*
X162413000Y-97917000D01*
X162413000Y-97663000D01*
X162433000Y-97663000D01*
X162433000Y-96519371D01*
X162687000Y-96519371D01*
X162687000Y-97663000D01*
X163829915Y-97663000D01*
X163951904Y-97440961D01*
X163791041Y-97052577D01*
X163415134Y-96637611D01*
X162909041Y-96398086D01*
X162687000Y-96519371D01*
X162433000Y-96519371D01*
X162210959Y-96398086D01*
X161704866Y-96637611D01*
X161490000Y-96874803D01*
X161490000Y-96230867D01*
X162229096Y-95491771D01*
X162413744Y-95528500D01*
X162706256Y-95528500D01*
X163139418Y-95442339D01*
X163630625Y-95114125D01*
X163830000Y-94815739D01*
X164029375Y-95114125D01*
X164520582Y-95442339D01*
X164953744Y-95528500D01*
X165246256Y-95528500D01*
X165515001Y-95475043D01*
X165515002Y-121340130D01*
X162027720Y-124827413D01*
X161957999Y-124873999D01*
X161773448Y-125150200D01*
X161725000Y-125393764D01*
X161725000Y-125393767D01*
X161708643Y-125476000D01*
X161725000Y-125558233D01*
X161725000Y-126662205D01*
X161561472Y-126771471D01*
X161290000Y-127177757D01*
X161018529Y-126771471D01*
X160560400Y-126465359D01*
X160020000Y-126357867D01*
X159479601Y-126465359D01*
X159021472Y-126771471D01*
X158741447Y-127190557D01*
X158729964Y-127148279D01*
X158396894Y-126717264D01*
X157924235Y-126446519D01*
X157821185Y-126427682D01*
X157607000Y-126550344D01*
X157607000Y-127893000D01*
X157627000Y-127893000D01*
X157627000Y-128147000D01*
X157607000Y-128147000D01*
X157607000Y-129489656D01*
X157694908Y-129540000D01*
X157607000Y-129590344D01*
X157607000Y-130933000D01*
X157627000Y-130933000D01*
X157627000Y-131187000D01*
X157607000Y-131187000D01*
X157607000Y-132529656D01*
X157821185Y-132652318D01*
X157924235Y-132633481D01*
X158396894Y-132362736D01*
X158729964Y-131931721D01*
X158741447Y-131889443D01*
X159021471Y-132308528D01*
X159479600Y-132614641D01*
X160020000Y-132722133D01*
X160560399Y-132614641D01*
X160610378Y-132581246D01*
X161021425Y-132992293D01*
X161068009Y-133062011D01*
X161344209Y-133246562D01*
X161587773Y-133295010D01*
X161670010Y-133311368D01*
X161752247Y-133295010D01*
X168034116Y-133295010D01*
X168116349Y-133311367D01*
X168198582Y-133295010D01*
X168198586Y-133295010D01*
X168442150Y-133246562D01*
X168718350Y-133062011D01*
X168764936Y-132992290D01*
X169322292Y-132434935D01*
X169346472Y-132418778D01*
X169639600Y-132614641D01*
X170180000Y-132722133D01*
X170720399Y-132614641D01*
X171178528Y-132308529D01*
X171450000Y-131902243D01*
X171721471Y-132308528D01*
X172179600Y-132614641D01*
X172720000Y-132722133D01*
X173260399Y-132614641D01*
X173718528Y-132308529D01*
X173998553Y-131889443D01*
X174010036Y-131931721D01*
X174343106Y-132362736D01*
X174815765Y-132633481D01*
X174918815Y-132652318D01*
X175133000Y-132529656D01*
X175133000Y-131187000D01*
X175113000Y-131187000D01*
X175113000Y-130933000D01*
X175133000Y-130933000D01*
X175133000Y-129590344D01*
X175045092Y-129540000D01*
X175133000Y-129489656D01*
X175133000Y-128147000D01*
X175113000Y-128147000D01*
X175113000Y-127893000D01*
X175133000Y-127893000D01*
X175133000Y-126550344D01*
X174918815Y-126427682D01*
X174815765Y-126446519D01*
X174343106Y-126717264D01*
X174010036Y-127148279D01*
X173998553Y-127190557D01*
X173855000Y-126975715D01*
X173855000Y-108333285D01*
X174005742Y-108107684D01*
X174029028Y-108186349D01*
X174370460Y-108608145D01*
X174847316Y-108867173D01*
X174918815Y-108881318D01*
X175133000Y-108758656D01*
X175133000Y-107166000D01*
X175113000Y-107166000D01*
X175113000Y-106912000D01*
X175133000Y-106912000D01*
X175133000Y-105319344D01*
X175387000Y-105319344D01*
X175387000Y-106912000D01*
X175407000Y-106912000D01*
X175407000Y-107166000D01*
X175387000Y-107166000D01*
X175387000Y-108758656D01*
X175601185Y-108881318D01*
X175672684Y-108867173D01*
X176149540Y-108608145D01*
X176403609Y-108294275D01*
X176451843Y-108536765D01*
X176592191Y-108746809D01*
X176665001Y-108795459D01*
X176665001Y-108927213D01*
X176665000Y-108927218D01*
X176665001Y-126513541D01*
X176592191Y-126562191D01*
X176451843Y-126772235D01*
X176404254Y-127011483D01*
X176176894Y-126717264D01*
X175704235Y-126446519D01*
X175601185Y-126427682D01*
X175387000Y-126550344D01*
X175387000Y-127893000D01*
X175407000Y-127893000D01*
X175407000Y-128147000D01*
X175387000Y-128147000D01*
X175387000Y-129489656D01*
X175474908Y-129540000D01*
X175387000Y-129590344D01*
X175387000Y-130933000D01*
X175407000Y-130933000D01*
X175407000Y-131187000D01*
X175387000Y-131187000D01*
X175387000Y-132529656D01*
X175601185Y-132652318D01*
X175704235Y-132633481D01*
X176176894Y-132362736D01*
X176509964Y-131931721D01*
X176521447Y-131889443D01*
X176801471Y-132308528D01*
X177259600Y-132614641D01*
X177800000Y-132722133D01*
X178340399Y-132614641D01*
X178798528Y-132308529D01*
X179104641Y-131850400D01*
X179185000Y-131446407D01*
X179185000Y-130673594D01*
X179104641Y-130269601D01*
X178935000Y-130015715D01*
X178935000Y-129526459D01*
X179007809Y-129477809D01*
X179148157Y-129267765D01*
X179197440Y-129020000D01*
X179197440Y-127020000D01*
X179148157Y-126772235D01*
X179007809Y-126562191D01*
X178935000Y-126513541D01*
X178935000Y-108867857D01*
X183630000Y-108867857D01*
X183630000Y-114652143D01*
X187450000Y-114652143D01*
X187450000Y-108867857D01*
X183630000Y-108867857D01*
X178935000Y-108867857D01*
X178935000Y-108795459D01*
X179007809Y-108746809D01*
X179148157Y-108536765D01*
X179197440Y-108289000D01*
X179197440Y-105789000D01*
X179148157Y-105541235D01*
X179007809Y-105331191D01*
X178797765Y-105190843D01*
X178550000Y-105141560D01*
X177050000Y-105141560D01*
X176802235Y-105190843D01*
X176592191Y-105331191D01*
X176451843Y-105541235D01*
X176403609Y-105783725D01*
X176149540Y-105469855D01*
X175672684Y-105210827D01*
X175601185Y-105196682D01*
X175387000Y-105319344D01*
X175133000Y-105319344D01*
X174918815Y-105196682D01*
X174847316Y-105210827D01*
X174370460Y-105469855D01*
X174029028Y-105891651D01*
X174005742Y-105970316D01*
X173855000Y-105744714D01*
X173855000Y-102613363D01*
X173861843Y-102647765D01*
X174002191Y-102857809D01*
X174212235Y-102998157D01*
X174460000Y-103047440D01*
X176060000Y-103047440D01*
X176307765Y-102998157D01*
X176517809Y-102857809D01*
X176658157Y-102647765D01*
X176707440Y-102400000D01*
X176707440Y-100800000D01*
X176658157Y-100552235D01*
X176517809Y-100342191D01*
X176307765Y-100201843D01*
X176073813Y-100155307D01*
X176088139Y-100107745D01*
X175260000Y-99279605D01*
X174431861Y-100107745D01*
X174446187Y-100155307D01*
X174212235Y-100201843D01*
X174002191Y-100342191D01*
X173861843Y-100552235D01*
X173812560Y-100800000D01*
X173812560Y-100813846D01*
X173809804Y-100799989D01*
X173789146Y-100696135D01*
X173538289Y-100320701D01*
X173443518Y-100257377D01*
X172885596Y-99699455D01*
X172835595Y-99578741D01*
X172502249Y-99245395D01*
X172066711Y-99064990D01*
X171615998Y-99064990D01*
X171615998Y-98883223D01*
X173813035Y-98883223D01*
X173840222Y-99453454D01*
X174006136Y-99854005D01*
X174252255Y-99928139D01*
X175080395Y-99100000D01*
X175439605Y-99100000D01*
X176267745Y-99928139D01*
X176513864Y-99854005D01*
X176706965Y-99316777D01*
X176679778Y-98746546D01*
X176513864Y-98345995D01*
X176267745Y-98271861D01*
X175439605Y-99100000D01*
X175080395Y-99100000D01*
X174252255Y-98271861D01*
X174006136Y-98345995D01*
X173813035Y-98883223D01*
X171615998Y-98883223D01*
X171615998Y-98868369D01*
X172392112Y-98092255D01*
X174431861Y-98092255D01*
X175260000Y-98920395D01*
X176088139Y-98092255D01*
X176014005Y-97846136D01*
X175476777Y-97653035D01*
X174906546Y-97680222D01*
X174505995Y-97846136D01*
X174431861Y-98092255D01*
X172392112Y-98092255D01*
X174982062Y-95502307D01*
X175113744Y-95528500D01*
X175406256Y-95528500D01*
X175839418Y-95442339D01*
X176330625Y-95114125D01*
X176530000Y-94815739D01*
X176729375Y-95114125D01*
X177220582Y-95442339D01*
X177653744Y-95528500D01*
X177946256Y-95528500D01*
X178379418Y-95442339D01*
X178870625Y-95114125D01*
X179070000Y-94815739D01*
X179269375Y-95114125D01*
X179760582Y-95442339D01*
X180193744Y-95528500D01*
X180486256Y-95528500D01*
X180919418Y-95442339D01*
X181410625Y-95114125D01*
X181610000Y-94815739D01*
X181809375Y-95114125D01*
X182300582Y-95442339D01*
X182733744Y-95528500D01*
X183026256Y-95528500D01*
X183459418Y-95442339D01*
X183950625Y-95114125D01*
X184150000Y-94815739D01*
X184349375Y-95114125D01*
X184840582Y-95442339D01*
X185273744Y-95528500D01*
X185566256Y-95528500D01*
X185999418Y-95442339D01*
X186490625Y-95114125D01*
X186818839Y-94622918D01*
X186934092Y-94043500D01*
X186818839Y-93464082D01*
X186490625Y-92972875D01*
X185999418Y-92644661D01*
X185566256Y-92558500D01*
X185273744Y-92558500D01*
X184840582Y-92644661D01*
X184349375Y-92972875D01*
X184150000Y-93271261D01*
X183950625Y-92972875D01*
X183459418Y-92644661D01*
X183026256Y-92558500D01*
X182733744Y-92558500D01*
X182300582Y-92644661D01*
X181809375Y-92972875D01*
X181610000Y-93271261D01*
X181410625Y-92972875D01*
X180919418Y-92644661D01*
X180486256Y-92558500D01*
X180193744Y-92558500D01*
X179760582Y-92644661D01*
X179269375Y-92972875D01*
X179070000Y-93271261D01*
X178870625Y-92972875D01*
X178379418Y-92644661D01*
X177946256Y-92558500D01*
X177653744Y-92558500D01*
X177220582Y-92644661D01*
X176729375Y-92972875D01*
X176530000Y-93271261D01*
X176330625Y-92972875D01*
X175839418Y-92644661D01*
X175406256Y-92558500D01*
X175113744Y-92558500D01*
X174680582Y-92644661D01*
X174189375Y-92972875D01*
X173990000Y-93271261D01*
X173790625Y-92972875D01*
X173299418Y-92644661D01*
X172866256Y-92558500D01*
X172573744Y-92558500D01*
X172442061Y-92584693D01*
X172118586Y-92261219D01*
X172072000Y-92191498D01*
X171795800Y-92006947D01*
X171552236Y-91958499D01*
X171552232Y-91958499D01*
X171469999Y-91942142D01*
X171387766Y-91958499D01*
X167122236Y-91958499D01*
X167039999Y-91942141D01*
X166957762Y-91958499D01*
X166714198Y-92006947D01*
X166437998Y-92191498D01*
X166391413Y-92261217D01*
X165876370Y-92776260D01*
X165679418Y-92644661D01*
X165246256Y-92558500D01*
X164953744Y-92558500D01*
X164875025Y-92574158D01*
X164478587Y-92177720D01*
X164432001Y-92107999D01*
X164155801Y-91923448D01*
X163912237Y-91875000D01*
X163912233Y-91875000D01*
X163830000Y-91858643D01*
X163747767Y-91875000D01*
X159594237Y-91875000D01*
X159512000Y-91858642D01*
X159429763Y-91875000D01*
X159186199Y-91923448D01*
X158909999Y-92107999D01*
X158863414Y-92177718D01*
X158261467Y-92779666D01*
X158059418Y-92644661D01*
X157626256Y-92558500D01*
X157333744Y-92558500D01*
X156900582Y-92644661D01*
X156698533Y-92779666D01*
X156096587Y-92177720D01*
X156050001Y-92107999D01*
X155773801Y-91923448D01*
X155530237Y-91875000D01*
X155530233Y-91875000D01*
X155448000Y-91858643D01*
X155365767Y-91875000D01*
X153752232Y-91875000D01*
X153669999Y-91858643D01*
X153587766Y-91875000D01*
X153587763Y-91875000D01*
X153344199Y-91923448D01*
X153067999Y-92107999D01*
X153021415Y-92177718D01*
X152624974Y-92574158D01*
X152546256Y-92558500D01*
X152253744Y-92558500D01*
X151820582Y-92644661D01*
X151329375Y-92972875D01*
X151130000Y-93271261D01*
X150930625Y-92972875D01*
X150439418Y-92644661D01*
X150006256Y-92558500D01*
X149713744Y-92558500D01*
X149280582Y-92644661D01*
X148789375Y-92972875D01*
X148590000Y-93271261D01*
X148390625Y-92972875D01*
X147899418Y-92644661D01*
X147466256Y-92558500D01*
X147173744Y-92558500D01*
X146740582Y-92644661D01*
X146249375Y-92972875D01*
X146050000Y-93271261D01*
X145850625Y-92972875D01*
X145359418Y-92644661D01*
X144926256Y-92558500D01*
X144633744Y-92558500D01*
X144200582Y-92644661D01*
X143709375Y-92972875D01*
X143694904Y-92994533D01*
X143628327Y-92833802D01*
X143449699Y-92655173D01*
X143216310Y-92558500D01*
X142525750Y-92558500D01*
X142367000Y-92717250D01*
X142367000Y-93916500D01*
X142387000Y-93916500D01*
X142387000Y-94170500D01*
X142367000Y-94170500D01*
X142367000Y-95369750D01*
X142525750Y-95528500D01*
X143216310Y-95528500D01*
X143449699Y-95431827D01*
X143628327Y-95253198D01*
X143694904Y-95092467D01*
X143709375Y-95114125D01*
X144200582Y-95442339D01*
X144633744Y-95528500D01*
X144926256Y-95528500D01*
X145359418Y-95442339D01*
X145850625Y-95114125D01*
X146050000Y-94815739D01*
X146249375Y-95114125D01*
X146740582Y-95442339D01*
X147173744Y-95528500D01*
X147466256Y-95528500D01*
X147899418Y-95442339D01*
X148390625Y-95114125D01*
X148590000Y-94815739D01*
X148789375Y-95114125D01*
X149025000Y-95271565D01*
X149025001Y-96595603D01*
X148643466Y-96977138D01*
X148425000Y-97504561D01*
X148425000Y-98075439D01*
X148643466Y-98602862D01*
X149047138Y-99006534D01*
X149574561Y-99225000D01*
X150145439Y-99225000D01*
X150672862Y-99006534D01*
X151076534Y-98602862D01*
X151110000Y-98522068D01*
X151143466Y-98602862D01*
X151547138Y-99006534D01*
X152074561Y-99225000D01*
X152645439Y-99225000D01*
X152651586Y-99222454D01*
X153021415Y-99592283D01*
X153067999Y-99662001D01*
X153137720Y-99708587D01*
X154105001Y-100675869D01*
X154105000Y-102682269D01*
X153941060Y-102791811D01*
X153654455Y-103220746D01*
X153631499Y-103143183D01*
X153289944Y-102721202D01*
X152812903Y-102462050D01*
X152741275Y-102447867D01*
X152527000Y-102570521D01*
X152527000Y-104013000D01*
X152547000Y-104013000D01*
X152547000Y-104267000D01*
X152527000Y-104267000D01*
X152527000Y-105709479D01*
X152741275Y-105832133D01*
X152812903Y-105817950D01*
X153289944Y-105558798D01*
X153631499Y-105136817D01*
X153654455Y-105059255D01*
X153941061Y-105488190D01*
X154399379Y-105794428D01*
X154940000Y-105901964D01*
X155375000Y-105815437D01*
X155375001Y-117704563D01*
X154940000Y-117618036D01*
X154399378Y-117725572D01*
X153941060Y-118031811D01*
X153670000Y-118437481D01*
X153398939Y-118031810D01*
X152940621Y-117725572D01*
X152400000Y-117618036D01*
X151859378Y-117725572D01*
X151651917Y-117864193D01*
X151624736Y-117846031D01*
X143895051Y-110116347D01*
X143845675Y-110042451D01*
X143552936Y-109846848D01*
X143294791Y-109795500D01*
X143294787Y-109795500D01*
X143207626Y-109778163D01*
X143120465Y-109795500D01*
X141177829Y-109795500D01*
X137263671Y-105881343D01*
X137700622Y-105794428D01*
X138158940Y-105488190D01*
X138430000Y-105082520D01*
X138701061Y-105488190D01*
X139159379Y-105794428D01*
X139700000Y-105901964D01*
X140240622Y-105794428D01*
X140698940Y-105488190D01*
X140970000Y-105082520D01*
X141241061Y-105488190D01*
X141699379Y-105794428D01*
X142240000Y-105901964D01*
X142780622Y-105794428D01*
X143238940Y-105488190D01*
X143510000Y-105082520D01*
X143781061Y-105488190D01*
X144239379Y-105794428D01*
X144780000Y-105901964D01*
X145320622Y-105794428D01*
X145778940Y-105488190D01*
X146050000Y-105082520D01*
X146321061Y-105488190D01*
X146779379Y-105794428D01*
X147320000Y-105901964D01*
X147860622Y-105794428D01*
X148318940Y-105488190D01*
X148590000Y-105082520D01*
X148861061Y-105488190D01*
X149319379Y-105794428D01*
X149860000Y-105901964D01*
X150400622Y-105794428D01*
X150858940Y-105488190D01*
X151145545Y-105059255D01*
X151168501Y-105136817D01*
X151510056Y-105558798D01*
X151987097Y-105817950D01*
X152058725Y-105832133D01*
X152273000Y-105709479D01*
X152273000Y-104267000D01*
X152253000Y-104267000D01*
X152253000Y-104013000D01*
X152273000Y-104013000D01*
X152273000Y-102570521D01*
X152058725Y-102447867D01*
X151987097Y-102462050D01*
X151510056Y-102721202D01*
X151168501Y-103143183D01*
X151145545Y-103220745D01*
X150858939Y-102791810D01*
X150400621Y-102485572D01*
X149860000Y-102378036D01*
X149319378Y-102485572D01*
X148861060Y-102791811D01*
X148590000Y-103197481D01*
X148318939Y-102791810D01*
X147860621Y-102485572D01*
X147320000Y-102378036D01*
X146779378Y-102485572D01*
X146321060Y-102791811D01*
X146050000Y-103197481D01*
X145778939Y-102791810D01*
X145320621Y-102485572D01*
X144780000Y-102378036D01*
X144239378Y-102485572D01*
X143781060Y-102791811D01*
X143510000Y-103197481D01*
X143238939Y-102791810D01*
X142780621Y-102485572D01*
X142240000Y-102378036D01*
X141699378Y-102485572D01*
X141241060Y-102791811D01*
X140970000Y-103197481D01*
X140698939Y-102791810D01*
X140240621Y-102485572D01*
X139700000Y-102378036D01*
X139565598Y-102404770D01*
X139086845Y-101926017D01*
X139037469Y-101852121D01*
X138744730Y-101656518D01*
X138486585Y-101605170D01*
X138486581Y-101605170D01*
X138399420Y-101587833D01*
X138312259Y-101605170D01*
X116529863Y-101605170D01*
X116442703Y-101587833D01*
X116355543Y-101605170D01*
X116355539Y-101605170D01*
X116097394Y-101656518D01*
X115993412Y-101725997D01*
X115878549Y-101802746D01*
X115878548Y-101802747D01*
X115804655Y-101852121D01*
X115755281Y-101926014D01*
X115075265Y-102606031D01*
X115048083Y-102624194D01*
X114840621Y-102485572D01*
X114300000Y-102378036D01*
X113759378Y-102485572D01*
X113301060Y-102791811D01*
X112994822Y-103250129D01*
X112914430Y-103654288D01*
X106095000Y-103654288D01*
X106095000Y-95688150D01*
X107215940Y-95688150D01*
X107215940Y-97278769D01*
X107312613Y-97512158D01*
X107491241Y-97690787D01*
X107724630Y-97787460D01*
X109315250Y-97787460D01*
X109474000Y-97628710D01*
X109474000Y-95529400D01*
X109728000Y-95529400D01*
X109728000Y-97628710D01*
X109886750Y-97787460D01*
X111477370Y-97787460D01*
X111710759Y-97690787D01*
X111889387Y-97512158D01*
X111902500Y-97480500D01*
X111902500Y-100152200D01*
X111951783Y-100399965D01*
X112092131Y-100610009D01*
X112302175Y-100750357D01*
X112549940Y-100799640D01*
X116050060Y-100799640D01*
X116297825Y-100750357D01*
X116507869Y-100610009D01*
X116648217Y-100399965D01*
X116697500Y-100152200D01*
X116697500Y-99060000D01*
X135696887Y-99060000D01*
X135808260Y-99619909D01*
X136125423Y-100094577D01*
X136600091Y-100411740D01*
X137018667Y-100495000D01*
X137301333Y-100495000D01*
X137719909Y-100411740D01*
X138194577Y-100094577D01*
X138511740Y-99619909D01*
X138623113Y-99060000D01*
X138566336Y-98774561D01*
X143345000Y-98774561D01*
X143345000Y-99345439D01*
X143563466Y-99872862D01*
X143967138Y-100276534D01*
X144494561Y-100495000D01*
X145065439Y-100495000D01*
X145592862Y-100276534D01*
X145996534Y-99872862D01*
X146215000Y-99345439D01*
X146215000Y-98774561D01*
X145996534Y-98247138D01*
X145592862Y-97843466D01*
X145065439Y-97625000D01*
X144494561Y-97625000D01*
X143967138Y-97843466D01*
X143563466Y-98247138D01*
X143345000Y-98774561D01*
X138566336Y-98774561D01*
X138511740Y-98500091D01*
X138194577Y-98025423D01*
X137719909Y-97708260D01*
X137301333Y-97625000D01*
X137018667Y-97625000D01*
X136600091Y-97708260D01*
X136125423Y-98025423D01*
X135808260Y-98500091D01*
X135696887Y-99060000D01*
X116697500Y-99060000D01*
X116697500Y-96812778D01*
X118865000Y-96812778D01*
X118865000Y-97463222D01*
X119113914Y-98064153D01*
X119573847Y-98524086D01*
X120174778Y-98773000D01*
X120825222Y-98773000D01*
X121426153Y-98524086D01*
X121886086Y-98064153D01*
X122135000Y-97463222D01*
X122135000Y-96812778D01*
X121886086Y-96211847D01*
X121426153Y-95751914D01*
X120825222Y-95503000D01*
X120174778Y-95503000D01*
X119573847Y-95751914D01*
X119113914Y-96211847D01*
X118865000Y-96812778D01*
X116697500Y-96812778D01*
X116697500Y-96652080D01*
X116648217Y-96404315D01*
X116507869Y-96194271D01*
X116297825Y-96053923D01*
X116050060Y-96004640D01*
X112549940Y-96004640D01*
X112302175Y-96053923D01*
X112092131Y-96194271D01*
X111986060Y-96353016D01*
X111986060Y-95688150D01*
X111827310Y-95529400D01*
X109728000Y-95529400D01*
X109474000Y-95529400D01*
X107374690Y-95529400D01*
X107215940Y-95688150D01*
X106095000Y-95688150D01*
X106095000Y-93526031D01*
X107215940Y-93526031D01*
X107215940Y-95116650D01*
X107374690Y-95275400D01*
X109474000Y-95275400D01*
X109474000Y-93176090D01*
X109728000Y-93176090D01*
X109728000Y-95275400D01*
X111827310Y-95275400D01*
X111986060Y-95116650D01*
X111986060Y-94450728D01*
X112011613Y-94512418D01*
X112190241Y-94691047D01*
X112423630Y-94787720D01*
X114014250Y-94787720D01*
X114173000Y-94628970D01*
X114173000Y-92529660D01*
X114427000Y-92529660D01*
X114427000Y-94628970D01*
X114585750Y-94787720D01*
X116176370Y-94787720D01*
X116409759Y-94691047D01*
X116588387Y-94512418D01*
X116685060Y-94279029D01*
X116685060Y-94265750D01*
X134101000Y-94265750D01*
X134101000Y-95006310D01*
X134197673Y-95239699D01*
X134376302Y-95418327D01*
X134609691Y-95515000D01*
X135350250Y-95515000D01*
X135509000Y-95356250D01*
X135509000Y-94107000D01*
X134259750Y-94107000D01*
X134101000Y-94265750D01*
X116685060Y-94265750D01*
X116685060Y-92688410D01*
X116526310Y-92529660D01*
X114427000Y-92529660D01*
X114173000Y-92529660D01*
X112073690Y-92529660D01*
X111914940Y-92688410D01*
X111914940Y-93354332D01*
X111889387Y-93292642D01*
X111710759Y-93114013D01*
X111477370Y-93017340D01*
X109886750Y-93017340D01*
X109728000Y-93176090D01*
X109474000Y-93176090D01*
X109315250Y-93017340D01*
X107724630Y-93017340D01*
X107491241Y-93114013D01*
X107312613Y-93292642D01*
X107215940Y-93526031D01*
X106095000Y-93526031D01*
X106095000Y-90526291D01*
X111914940Y-90526291D01*
X111914940Y-92116910D01*
X112073690Y-92275660D01*
X114173000Y-92275660D01*
X114173000Y-90176350D01*
X114427000Y-90176350D01*
X114427000Y-92275660D01*
X116526310Y-92275660D01*
X116685060Y-92116910D01*
X116685060Y-90838000D01*
X118852560Y-90838000D01*
X118852560Y-92838000D01*
X118901843Y-93085765D01*
X119042191Y-93295809D01*
X119252235Y-93436157D01*
X119500000Y-93485440D01*
X121500000Y-93485440D01*
X121747765Y-93436157D01*
X121957809Y-93295809D01*
X122098157Y-93085765D01*
X122124428Y-92953690D01*
X134101000Y-92953690D01*
X134101000Y-93694250D01*
X134259750Y-93853000D01*
X135509000Y-93853000D01*
X135509000Y-92603750D01*
X135763000Y-92603750D01*
X135763000Y-93853000D01*
X135783000Y-93853000D01*
X135783000Y-94107000D01*
X135763000Y-94107000D01*
X135763000Y-95356250D01*
X135921750Y-95515000D01*
X136662309Y-95515000D01*
X136895698Y-95418327D01*
X137074327Y-95239699D01*
X137130139Y-95104956D01*
X137306493Y-95281310D01*
X137870670Y-95515000D01*
X138481330Y-95515000D01*
X139045507Y-95281310D01*
X139477310Y-94849507D01*
X139692807Y-94329250D01*
X140755000Y-94329250D01*
X140755000Y-95019809D01*
X140851673Y-95253198D01*
X141030301Y-95431827D01*
X141263690Y-95528500D01*
X141954250Y-95528500D01*
X142113000Y-95369750D01*
X142113000Y-94170500D01*
X140913750Y-94170500D01*
X140755000Y-94329250D01*
X139692807Y-94329250D01*
X139711000Y-94285330D01*
X139711000Y-93674670D01*
X139477310Y-93110493D01*
X139434008Y-93067191D01*
X140755000Y-93067191D01*
X140755000Y-93757750D01*
X140913750Y-93916500D01*
X142113000Y-93916500D01*
X142113000Y-92717250D01*
X141954250Y-92558500D01*
X141263690Y-92558500D01*
X141030301Y-92655173D01*
X140851673Y-92833802D01*
X140755000Y-93067191D01*
X139434008Y-93067191D01*
X139045507Y-92678690D01*
X138481330Y-92445000D01*
X137870670Y-92445000D01*
X137306493Y-92678690D01*
X137130139Y-92855044D01*
X137074327Y-92720301D01*
X136895698Y-92541673D01*
X136662309Y-92445000D01*
X135921750Y-92445000D01*
X135763000Y-92603750D01*
X135509000Y-92603750D01*
X135350250Y-92445000D01*
X134609691Y-92445000D01*
X134376302Y-92541673D01*
X134197673Y-92720301D01*
X134101000Y-92953690D01*
X122124428Y-92953690D01*
X122147440Y-92838000D01*
X122147440Y-90838000D01*
X122098157Y-90590235D01*
X121957809Y-90380191D01*
X121747765Y-90239843D01*
X121500000Y-90190560D01*
X119500000Y-90190560D01*
X119252235Y-90239843D01*
X119042191Y-90380191D01*
X118901843Y-90590235D01*
X118852560Y-90838000D01*
X116685060Y-90838000D01*
X116685060Y-90526291D01*
X116588387Y-90292902D01*
X116409759Y-90114273D01*
X116176370Y-90017600D01*
X114585750Y-90017600D01*
X114427000Y-90176350D01*
X114173000Y-90176350D01*
X114014250Y-90017600D01*
X112423630Y-90017600D01*
X112190241Y-90114273D01*
X112011613Y-90292902D01*
X111914940Y-90526291D01*
X106095000Y-90526291D01*
X106095000Y-89467927D01*
X106140209Y-89211534D01*
X106239959Y-89038762D01*
X106392785Y-88910526D01*
X106609009Y-88831827D01*
X106709903Y-88823000D01*
X187900073Y-88823000D01*
X188156466Y-88868209D01*
X188156466Y-88868209D01*
G37*
X188156466Y-88868209D02*
X188329238Y-88967959D01*
X188457474Y-89120785D01*
X188536173Y-89337009D01*
X188545001Y-89437914D01*
X188545000Y-127776506D01*
X188047937Y-127318633D01*
X187082503Y-126964378D01*
X186314361Y-126995901D01*
X182903555Y-127821061D01*
X182205947Y-128144140D01*
X181509204Y-128900518D01*
X181154949Y-129865952D01*
X181197116Y-130893463D01*
X181629285Y-131826624D01*
X182385663Y-132523367D01*
X183351097Y-132877622D01*
X184119238Y-132846099D01*
X187530045Y-132020939D01*
X188227653Y-131697860D01*
X188545000Y-131353351D01*
X188545000Y-134941072D01*
X188499791Y-135197466D01*
X188400041Y-135370238D01*
X188247215Y-135498474D01*
X188030992Y-135577173D01*
X187930097Y-135586000D01*
X106739927Y-135586000D01*
X106483534Y-135540791D01*
X106310762Y-135441041D01*
X106182526Y-135288215D01*
X106103827Y-135071992D01*
X106095000Y-134971097D01*
X106095000Y-131353351D01*
X106412347Y-131697860D01*
X107109955Y-132020939D01*
X110520761Y-132846099D01*
X111288903Y-132877622D01*
X112254337Y-132523367D01*
X113010715Y-131826624D01*
X113442884Y-130893463D01*
X113485051Y-129865951D01*
X113130796Y-128900518D01*
X112434053Y-128144140D01*
X111736445Y-127821061D01*
X108325638Y-126995901D01*
X107557497Y-126964378D01*
X106592063Y-127318633D01*
X106095000Y-127776506D01*
X106095000Y-103654288D01*
X112914430Y-103654288D01*
X112914430Y-104625713D01*
X112994822Y-105029872D01*
X113301061Y-105488190D01*
X113759379Y-105794428D01*
X114300000Y-105901964D01*
X114754421Y-105811574D01*
X114754420Y-117708426D01*
X114300000Y-117618036D01*
X113759378Y-117725572D01*
X113301060Y-118031811D01*
X112994822Y-118490129D01*
X112914430Y-118894288D01*
X112914430Y-119865713D01*
X112994822Y-120269872D01*
X113301061Y-120728190D01*
X113759379Y-121034428D01*
X114300000Y-121141964D01*
X114754420Y-121051575D01*
X114754420Y-128679329D01*
X114737083Y-128766490D01*
X114754420Y-128853651D01*
X114754420Y-128853654D01*
X114805768Y-129111799D01*
X115001371Y-129404539D01*
X115075267Y-129453915D01*
X115655517Y-130034166D01*
X115674094Y-130061969D01*
X115535359Y-130269600D01*
X115455000Y-130673593D01*
X115455000Y-131446406D01*
X115535359Y-131850399D01*
X115616279Y-131971505D01*
X115491843Y-132157735D01*
X115442560Y-132405500D01*
X115442560Y-133555500D01*
X115478574Y-133674445D01*
X115442560Y-133855500D01*
X115442560Y-134855500D01*
X115491843Y-135103265D01*
X115632191Y-135313309D01*
X115842235Y-135453657D01*
X116090000Y-135502940D01*
X117590000Y-135502940D01*
X117837765Y-135453657D01*
X118047809Y-135313309D01*
X118114166Y-135214000D01*
X118123541Y-135214000D01*
X118172191Y-135286809D01*
X118382235Y-135427157D01*
X118630000Y-135476440D01*
X120130000Y-135476440D01*
X120377765Y-135427157D01*
X120587809Y-135286809D01*
X120618752Y-135240500D01*
X153683541Y-135240500D01*
X153732191Y-135313309D01*
X153942235Y-135453657D01*
X154190000Y-135502940D01*
X155690000Y-135502940D01*
X155937765Y-135453657D01*
X156147809Y-135313309D01*
X156288157Y-135103265D01*
X156291883Y-135084533D01*
X156428049Y-134993549D01*
X156477425Y-134919653D01*
X156744144Y-134652934D01*
X156818039Y-134603559D01*
X157013642Y-134310820D01*
X157064990Y-134052675D01*
X157064990Y-134052671D01*
X157082327Y-133965511D01*
X157064990Y-133878351D01*
X157064990Y-132638823D01*
X157138815Y-132652318D01*
X157353000Y-132529656D01*
X157353000Y-131187000D01*
X157333000Y-131187000D01*
X157333000Y-130933000D01*
X157353000Y-130933000D01*
X157353000Y-129590344D01*
X157265092Y-129540000D01*
X157353000Y-129489656D01*
X157353000Y-128147000D01*
X157333000Y-128147000D01*
X157333000Y-127893000D01*
X157353000Y-127893000D01*
X157353000Y-126550344D01*
X157138815Y-126427682D01*
X157064990Y-126441177D01*
X157064990Y-124317330D01*
X157194561Y-124371000D01*
X157765439Y-124371000D01*
X158292862Y-124152534D01*
X158501651Y-123943745D01*
X159151861Y-123943745D01*
X159225995Y-124189864D01*
X159763223Y-124382965D01*
X160333454Y-124355778D01*
X160734005Y-124189864D01*
X160808139Y-123943745D01*
X159980000Y-123115605D01*
X159151861Y-123943745D01*
X158501651Y-123943745D01*
X158696534Y-123748862D01*
X158723525Y-123683701D01*
X158726136Y-123690005D01*
X158972255Y-123764139D01*
X159800395Y-122936000D01*
X160159605Y-122936000D01*
X160987745Y-123764139D01*
X161233864Y-123690005D01*
X161426965Y-123152777D01*
X161399778Y-122582546D01*
X161233864Y-122181995D01*
X160987745Y-122107861D01*
X160159605Y-122936000D01*
X159800395Y-122936000D01*
X158972255Y-122107861D01*
X158726136Y-122181995D01*
X158723710Y-122188746D01*
X158696534Y-122123138D01*
X158563178Y-121989782D01*
X158655259Y-121928255D01*
X159151861Y-121928255D01*
X159980000Y-122756395D01*
X160808139Y-121928255D01*
X160734005Y-121682136D01*
X160196777Y-121489035D01*
X159626546Y-121516222D01*
X159225995Y-121682136D01*
X159151861Y-121928255D01*
X158655259Y-121928255D01*
X158717001Y-121887001D01*
X158763587Y-121817280D01*
X159535313Y-121045554D01*
X160020000Y-121141964D01*
X160560622Y-121034428D01*
X161018940Y-120728190D01*
X161290000Y-120322520D01*
X161561061Y-120728190D01*
X162019379Y-121034428D01*
X162560000Y-121141964D01*
X163100622Y-121034428D01*
X163558940Y-120728190D01*
X163865178Y-120269872D01*
X163945570Y-119865712D01*
X163945570Y-118894287D01*
X163865178Y-118490128D01*
X163558939Y-118031810D01*
X163100621Y-117725572D01*
X162560000Y-117618036D01*
X162366619Y-117656502D01*
X162244430Y-117534313D01*
X162244430Y-105839193D01*
X162560000Y-105901964D01*
X163100622Y-105794428D01*
X163558940Y-105488190D01*
X163865178Y-105029872D01*
X163945570Y-104625712D01*
X163945570Y-103654287D01*
X163865178Y-103250128D01*
X163558939Y-102791810D01*
X163100621Y-102485572D01*
X162560000Y-102378036D01*
X162432008Y-102403495D01*
X161490000Y-101461488D01*
X161490000Y-98705197D01*
X161704866Y-98942389D01*
X162210959Y-99181914D01*
X162433000Y-99060629D01*
X162433000Y-97917000D01*
X162687000Y-97917000D01*
X162687000Y-99060629D01*
X162909041Y-99181914D01*
X163415134Y-98942389D01*
X163791041Y-98527423D01*
X163951904Y-98139039D01*
X163829915Y-97917000D01*
X162687000Y-97917000D01*
X162433000Y-97917000D01*
X162413000Y-97917000D01*
X162413000Y-97663000D01*
X162433000Y-97663000D01*
X162433000Y-96519371D01*
X162687000Y-96519371D01*
X162687000Y-97663000D01*
X163829915Y-97663000D01*
X163951904Y-97440961D01*
X163791041Y-97052577D01*
X163415134Y-96637611D01*
X162909041Y-96398086D01*
X162687000Y-96519371D01*
X162433000Y-96519371D01*
X162210959Y-96398086D01*
X161704866Y-96637611D01*
X161490000Y-96874803D01*
X161490000Y-96230867D01*
X162229096Y-95491771D01*
X162413744Y-95528500D01*
X162706256Y-95528500D01*
X163139418Y-95442339D01*
X163630625Y-95114125D01*
X163830000Y-94815739D01*
X164029375Y-95114125D01*
X164520582Y-95442339D01*
X164953744Y-95528500D01*
X165246256Y-95528500D01*
X165515001Y-95475043D01*
X165515002Y-121340130D01*
X162027720Y-124827413D01*
X161957999Y-124873999D01*
X161773448Y-125150200D01*
X161725000Y-125393764D01*
X161725000Y-125393767D01*
X161708643Y-125476000D01*
X161725000Y-125558233D01*
X161725000Y-126662205D01*
X161561472Y-126771471D01*
X161290000Y-127177757D01*
X161018529Y-126771471D01*
X160560400Y-126465359D01*
X160020000Y-126357867D01*
X159479601Y-126465359D01*
X159021472Y-126771471D01*
X158741447Y-127190557D01*
X158729964Y-127148279D01*
X158396894Y-126717264D01*
X157924235Y-126446519D01*
X157821185Y-126427682D01*
X157607000Y-126550344D01*
X157607000Y-127893000D01*
X157627000Y-127893000D01*
X157627000Y-128147000D01*
X157607000Y-128147000D01*
X157607000Y-129489656D01*
X157694908Y-129540000D01*
X157607000Y-129590344D01*
X157607000Y-130933000D01*
X157627000Y-130933000D01*
X157627000Y-131187000D01*
X157607000Y-131187000D01*
X157607000Y-132529656D01*
X157821185Y-132652318D01*
X157924235Y-132633481D01*
X158396894Y-132362736D01*
X158729964Y-131931721D01*
X158741447Y-131889443D01*
X159021471Y-132308528D01*
X159479600Y-132614641D01*
X160020000Y-132722133D01*
X160560399Y-132614641D01*
X160610378Y-132581246D01*
X161021425Y-132992293D01*
X161068009Y-133062011D01*
X161344209Y-133246562D01*
X161587773Y-133295010D01*
X161670010Y-133311368D01*
X161752247Y-133295010D01*
X168034116Y-133295010D01*
X168116349Y-133311367D01*
X168198582Y-133295010D01*
X168198586Y-133295010D01*
X168442150Y-133246562D01*
X168718350Y-133062011D01*
X168764936Y-132992290D01*
X169322292Y-132434935D01*
X169346472Y-132418778D01*
X169639600Y-132614641D01*
X170180000Y-132722133D01*
X170720399Y-132614641D01*
X171178528Y-132308529D01*
X171450000Y-131902243D01*
X171721471Y-132308528D01*
X172179600Y-132614641D01*
X172720000Y-132722133D01*
X173260399Y-132614641D01*
X173718528Y-132308529D01*
X173998553Y-131889443D01*
X174010036Y-131931721D01*
X174343106Y-132362736D01*
X174815765Y-132633481D01*
X174918815Y-132652318D01*
X175133000Y-132529656D01*
X175133000Y-131187000D01*
X175113000Y-131187000D01*
X175113000Y-130933000D01*
X175133000Y-130933000D01*
X175133000Y-129590344D01*
X175045092Y-129540000D01*
X175133000Y-129489656D01*
X175133000Y-128147000D01*
X175113000Y-128147000D01*
X175113000Y-127893000D01*
X175133000Y-127893000D01*
X175133000Y-126550344D01*
X174918815Y-126427682D01*
X174815765Y-126446519D01*
X174343106Y-126717264D01*
X174010036Y-127148279D01*
X173998553Y-127190557D01*
X173855000Y-126975715D01*
X173855000Y-108333285D01*
X174005742Y-108107684D01*
X174029028Y-108186349D01*
X174370460Y-108608145D01*
X174847316Y-108867173D01*
X174918815Y-108881318D01*
X175133000Y-108758656D01*
X175133000Y-107166000D01*
X175113000Y-107166000D01*
X175113000Y-106912000D01*
X175133000Y-106912000D01*
X175133000Y-105319344D01*
X175387000Y-105319344D01*
X175387000Y-106912000D01*
X175407000Y-106912000D01*
X175407000Y-107166000D01*
X175387000Y-107166000D01*
X175387000Y-108758656D01*
X175601185Y-108881318D01*
X175672684Y-108867173D01*
X176149540Y-108608145D01*
X176403609Y-108294275D01*
X176451843Y-108536765D01*
X176592191Y-108746809D01*
X176665001Y-108795459D01*
X176665001Y-108927213D01*
X176665000Y-108927218D01*
X176665001Y-126513541D01*
X176592191Y-126562191D01*
X176451843Y-126772235D01*
X176404254Y-127011483D01*
X176176894Y-126717264D01*
X175704235Y-126446519D01*
X175601185Y-126427682D01*
X175387000Y-126550344D01*
X175387000Y-127893000D01*
X175407000Y-127893000D01*
X175407000Y-128147000D01*
X175387000Y-128147000D01*
X175387000Y-129489656D01*
X175474908Y-129540000D01*
X175387000Y-129590344D01*
X175387000Y-130933000D01*
X175407000Y-130933000D01*
X175407000Y-131187000D01*
X175387000Y-131187000D01*
X175387000Y-132529656D01*
X175601185Y-132652318D01*
X175704235Y-132633481D01*
X176176894Y-132362736D01*
X176509964Y-131931721D01*
X176521447Y-131889443D01*
X176801471Y-132308528D01*
X177259600Y-132614641D01*
X177800000Y-132722133D01*
X178340399Y-132614641D01*
X178798528Y-132308529D01*
X179104641Y-131850400D01*
X179185000Y-131446407D01*
X179185000Y-130673594D01*
X179104641Y-130269601D01*
X178935000Y-130015715D01*
X178935000Y-129526459D01*
X179007809Y-129477809D01*
X179148157Y-129267765D01*
X179197440Y-129020000D01*
X179197440Y-127020000D01*
X179148157Y-126772235D01*
X179007809Y-126562191D01*
X178935000Y-126513541D01*
X178935000Y-108867857D01*
X183630000Y-108867857D01*
X183630000Y-114652143D01*
X187450000Y-114652143D01*
X187450000Y-108867857D01*
X183630000Y-108867857D01*
X178935000Y-108867857D01*
X178935000Y-108795459D01*
X179007809Y-108746809D01*
X179148157Y-108536765D01*
X179197440Y-108289000D01*
X179197440Y-105789000D01*
X179148157Y-105541235D01*
X179007809Y-105331191D01*
X178797765Y-105190843D01*
X178550000Y-105141560D01*
X177050000Y-105141560D01*
X176802235Y-105190843D01*
X176592191Y-105331191D01*
X176451843Y-105541235D01*
X176403609Y-105783725D01*
X176149540Y-105469855D01*
X175672684Y-105210827D01*
X175601185Y-105196682D01*
X175387000Y-105319344D01*
X175133000Y-105319344D01*
X174918815Y-105196682D01*
X174847316Y-105210827D01*
X174370460Y-105469855D01*
X174029028Y-105891651D01*
X174005742Y-105970316D01*
X173855000Y-105744714D01*
X173855000Y-102613363D01*
X173861843Y-102647765D01*
X174002191Y-102857809D01*
X174212235Y-102998157D01*
X174460000Y-103047440D01*
X176060000Y-103047440D01*
X176307765Y-102998157D01*
X176517809Y-102857809D01*
X176658157Y-102647765D01*
X176707440Y-102400000D01*
X176707440Y-100800000D01*
X176658157Y-100552235D01*
X176517809Y-100342191D01*
X176307765Y-100201843D01*
X176073813Y-100155307D01*
X176088139Y-100107745D01*
X175260000Y-99279605D01*
X174431861Y-100107745D01*
X174446187Y-100155307D01*
X174212235Y-100201843D01*
X174002191Y-100342191D01*
X173861843Y-100552235D01*
X173812560Y-100800000D01*
X173812560Y-100813846D01*
X173809804Y-100799989D01*
X173789146Y-100696135D01*
X173538289Y-100320701D01*
X173443518Y-100257377D01*
X172885596Y-99699455D01*
X172835595Y-99578741D01*
X172502249Y-99245395D01*
X172066711Y-99064990D01*
X171615998Y-99064990D01*
X171615998Y-98883223D01*
X173813035Y-98883223D01*
X173840222Y-99453454D01*
X174006136Y-99854005D01*
X174252255Y-99928139D01*
X175080395Y-99100000D01*
X175439605Y-99100000D01*
X176267745Y-99928139D01*
X176513864Y-99854005D01*
X176706965Y-99316777D01*
X176679778Y-98746546D01*
X176513864Y-98345995D01*
X176267745Y-98271861D01*
X175439605Y-99100000D01*
X175080395Y-99100000D01*
X174252255Y-98271861D01*
X174006136Y-98345995D01*
X173813035Y-98883223D01*
X171615998Y-98883223D01*
X171615998Y-98868369D01*
X172392112Y-98092255D01*
X174431861Y-98092255D01*
X175260000Y-98920395D01*
X176088139Y-98092255D01*
X176014005Y-97846136D01*
X175476777Y-97653035D01*
X174906546Y-97680222D01*
X174505995Y-97846136D01*
X174431861Y-98092255D01*
X172392112Y-98092255D01*
X174982062Y-95502307D01*
X175113744Y-95528500D01*
X175406256Y-95528500D01*
X175839418Y-95442339D01*
X176330625Y-95114125D01*
X176530000Y-94815739D01*
X176729375Y-95114125D01*
X177220582Y-95442339D01*
X177653744Y-95528500D01*
X177946256Y-95528500D01*
X178379418Y-95442339D01*
X178870625Y-95114125D01*
X179070000Y-94815739D01*
X179269375Y-95114125D01*
X179760582Y-95442339D01*
X180193744Y-95528500D01*
X180486256Y-95528500D01*
X180919418Y-95442339D01*
X181410625Y-95114125D01*
X181610000Y-94815739D01*
X181809375Y-95114125D01*
X182300582Y-95442339D01*
X182733744Y-95528500D01*
X183026256Y-95528500D01*
X183459418Y-95442339D01*
X183950625Y-95114125D01*
X184150000Y-94815739D01*
X184349375Y-95114125D01*
X184840582Y-95442339D01*
X185273744Y-95528500D01*
X185566256Y-95528500D01*
X185999418Y-95442339D01*
X186490625Y-95114125D01*
X186818839Y-94622918D01*
X186934092Y-94043500D01*
X186818839Y-93464082D01*
X186490625Y-92972875D01*
X185999418Y-92644661D01*
X185566256Y-92558500D01*
X185273744Y-92558500D01*
X184840582Y-92644661D01*
X184349375Y-92972875D01*
X184150000Y-93271261D01*
X183950625Y-92972875D01*
X183459418Y-92644661D01*
X183026256Y-92558500D01*
X182733744Y-92558500D01*
X182300582Y-92644661D01*
X181809375Y-92972875D01*
X181610000Y-93271261D01*
X181410625Y-92972875D01*
X180919418Y-92644661D01*
X180486256Y-92558500D01*
X180193744Y-92558500D01*
X179760582Y-92644661D01*
X179269375Y-92972875D01*
X179070000Y-93271261D01*
X178870625Y-92972875D01*
X178379418Y-92644661D01*
X177946256Y-92558500D01*
X177653744Y-92558500D01*
X177220582Y-92644661D01*
X176729375Y-92972875D01*
X176530000Y-93271261D01*
X176330625Y-92972875D01*
X175839418Y-92644661D01*
X175406256Y-92558500D01*
X175113744Y-92558500D01*
X174680582Y-92644661D01*
X174189375Y-92972875D01*
X173990000Y-93271261D01*
X173790625Y-92972875D01*
X173299418Y-92644661D01*
X172866256Y-92558500D01*
X172573744Y-92558500D01*
X172442061Y-92584693D01*
X172118586Y-92261219D01*
X172072000Y-92191498D01*
X171795800Y-92006947D01*
X171552236Y-91958499D01*
X171552232Y-91958499D01*
X171469999Y-91942142D01*
X171387766Y-91958499D01*
X167122236Y-91958499D01*
X167039999Y-91942141D01*
X166957762Y-91958499D01*
X166714198Y-92006947D01*
X166437998Y-92191498D01*
X166391413Y-92261217D01*
X165876370Y-92776260D01*
X165679418Y-92644661D01*
X165246256Y-92558500D01*
X164953744Y-92558500D01*
X164875025Y-92574158D01*
X164478587Y-92177720D01*
X164432001Y-92107999D01*
X164155801Y-91923448D01*
X163912237Y-91875000D01*
X163912233Y-91875000D01*
X163830000Y-91858643D01*
X163747767Y-91875000D01*
X159594237Y-91875000D01*
X159512000Y-91858642D01*
X159429763Y-91875000D01*
X159186199Y-91923448D01*
X158909999Y-92107999D01*
X158863414Y-92177718D01*
X158261467Y-92779666D01*
X158059418Y-92644661D01*
X157626256Y-92558500D01*
X157333744Y-92558500D01*
X156900582Y-92644661D01*
X156698533Y-92779666D01*
X156096587Y-92177720D01*
X156050001Y-92107999D01*
X155773801Y-91923448D01*
X155530237Y-91875000D01*
X155530233Y-91875000D01*
X155448000Y-91858643D01*
X155365767Y-91875000D01*
X153752232Y-91875000D01*
X153669999Y-91858643D01*
X153587766Y-91875000D01*
X153587763Y-91875000D01*
X153344199Y-91923448D01*
X153067999Y-92107999D01*
X153021415Y-92177718D01*
X152624974Y-92574158D01*
X152546256Y-92558500D01*
X152253744Y-92558500D01*
X151820582Y-92644661D01*
X151329375Y-92972875D01*
X151130000Y-93271261D01*
X150930625Y-92972875D01*
X150439418Y-92644661D01*
X150006256Y-92558500D01*
X149713744Y-92558500D01*
X149280582Y-92644661D01*
X148789375Y-92972875D01*
X148590000Y-93271261D01*
X148390625Y-92972875D01*
X147899418Y-92644661D01*
X147466256Y-92558500D01*
X147173744Y-92558500D01*
X146740582Y-92644661D01*
X146249375Y-92972875D01*
X146050000Y-93271261D01*
X145850625Y-92972875D01*
X145359418Y-92644661D01*
X144926256Y-92558500D01*
X144633744Y-92558500D01*
X144200582Y-92644661D01*
X143709375Y-92972875D01*
X143694904Y-92994533D01*
X143628327Y-92833802D01*
X143449699Y-92655173D01*
X143216310Y-92558500D01*
X142525750Y-92558500D01*
X142367000Y-92717250D01*
X142367000Y-93916500D01*
X142387000Y-93916500D01*
X142387000Y-94170500D01*
X142367000Y-94170500D01*
X142367000Y-95369750D01*
X142525750Y-95528500D01*
X143216310Y-95528500D01*
X143449699Y-95431827D01*
X143628327Y-95253198D01*
X143694904Y-95092467D01*
X143709375Y-95114125D01*
X144200582Y-95442339D01*
X144633744Y-95528500D01*
X144926256Y-95528500D01*
X145359418Y-95442339D01*
X145850625Y-95114125D01*
X146050000Y-94815739D01*
X146249375Y-95114125D01*
X146740582Y-95442339D01*
X147173744Y-95528500D01*
X147466256Y-95528500D01*
X147899418Y-95442339D01*
X148390625Y-95114125D01*
X148590000Y-94815739D01*
X148789375Y-95114125D01*
X149025000Y-95271565D01*
X149025001Y-96595603D01*
X148643466Y-96977138D01*
X148425000Y-97504561D01*
X148425000Y-98075439D01*
X148643466Y-98602862D01*
X149047138Y-99006534D01*
X149574561Y-99225000D01*
X150145439Y-99225000D01*
X150672862Y-99006534D01*
X151076534Y-98602862D01*
X151110000Y-98522068D01*
X151143466Y-98602862D01*
X151547138Y-99006534D01*
X152074561Y-99225000D01*
X152645439Y-99225000D01*
X152651586Y-99222454D01*
X153021415Y-99592283D01*
X153067999Y-99662001D01*
X153137720Y-99708587D01*
X154105001Y-100675869D01*
X154105000Y-102682269D01*
X153941060Y-102791811D01*
X153654455Y-103220746D01*
X153631499Y-103143183D01*
X153289944Y-102721202D01*
X152812903Y-102462050D01*
X152741275Y-102447867D01*
X152527000Y-102570521D01*
X152527000Y-104013000D01*
X152547000Y-104013000D01*
X152547000Y-104267000D01*
X152527000Y-104267000D01*
X152527000Y-105709479D01*
X152741275Y-105832133D01*
X152812903Y-105817950D01*
X153289944Y-105558798D01*
X153631499Y-105136817D01*
X153654455Y-105059255D01*
X153941061Y-105488190D01*
X154399379Y-105794428D01*
X154940000Y-105901964D01*
X155375000Y-105815437D01*
X155375001Y-117704563D01*
X154940000Y-117618036D01*
X154399378Y-117725572D01*
X153941060Y-118031811D01*
X153670000Y-118437481D01*
X153398939Y-118031810D01*
X152940621Y-117725572D01*
X152400000Y-117618036D01*
X151859378Y-117725572D01*
X151651917Y-117864193D01*
X151624736Y-117846031D01*
X143895051Y-110116347D01*
X143845675Y-110042451D01*
X143552936Y-109846848D01*
X143294791Y-109795500D01*
X143294787Y-109795500D01*
X143207626Y-109778163D01*
X143120465Y-109795500D01*
X141177829Y-109795500D01*
X137263671Y-105881343D01*
X137700622Y-105794428D01*
X138158940Y-105488190D01*
X138430000Y-105082520D01*
X138701061Y-105488190D01*
X139159379Y-105794428D01*
X139700000Y-105901964D01*
X140240622Y-105794428D01*
X140698940Y-105488190D01*
X140970000Y-105082520D01*
X141241061Y-105488190D01*
X141699379Y-105794428D01*
X142240000Y-105901964D01*
X142780622Y-105794428D01*
X143238940Y-105488190D01*
X143510000Y-105082520D01*
X143781061Y-105488190D01*
X144239379Y-105794428D01*
X144780000Y-105901964D01*
X145320622Y-105794428D01*
X145778940Y-105488190D01*
X146050000Y-105082520D01*
X146321061Y-105488190D01*
X146779379Y-105794428D01*
X147320000Y-105901964D01*
X147860622Y-105794428D01*
X148318940Y-105488190D01*
X148590000Y-105082520D01*
X148861061Y-105488190D01*
X149319379Y-105794428D01*
X149860000Y-105901964D01*
X150400622Y-105794428D01*
X150858940Y-105488190D01*
X151145545Y-105059255D01*
X151168501Y-105136817D01*
X151510056Y-105558798D01*
X151987097Y-105817950D01*
X152058725Y-105832133D01*
X152273000Y-105709479D01*
X152273000Y-104267000D01*
X152253000Y-104267000D01*
X152253000Y-104013000D01*
X152273000Y-104013000D01*
X152273000Y-102570521D01*
X152058725Y-102447867D01*
X151987097Y-102462050D01*
X151510056Y-102721202D01*
X151168501Y-103143183D01*
X151145545Y-103220745D01*
X150858939Y-102791810D01*
X150400621Y-102485572D01*
X149860000Y-102378036D01*
X149319378Y-102485572D01*
X148861060Y-102791811D01*
X148590000Y-103197481D01*
X148318939Y-102791810D01*
X147860621Y-102485572D01*
X147320000Y-102378036D01*
X146779378Y-102485572D01*
X146321060Y-102791811D01*
X146050000Y-103197481D01*
X145778939Y-102791810D01*
X145320621Y-102485572D01*
X144780000Y-102378036D01*
X144239378Y-102485572D01*
X143781060Y-102791811D01*
X143510000Y-103197481D01*
X143238939Y-102791810D01*
X142780621Y-102485572D01*
X142240000Y-102378036D01*
X141699378Y-102485572D01*
X141241060Y-102791811D01*
X140970000Y-103197481D01*
X140698939Y-102791810D01*
X140240621Y-102485572D01*
X139700000Y-102378036D01*
X139565598Y-102404770D01*
X139086845Y-101926017D01*
X139037469Y-101852121D01*
X138744730Y-101656518D01*
X138486585Y-101605170D01*
X138486581Y-101605170D01*
X138399420Y-101587833D01*
X138312259Y-101605170D01*
X116529863Y-101605170D01*
X116442703Y-101587833D01*
X116355543Y-101605170D01*
X116355539Y-101605170D01*
X116097394Y-101656518D01*
X115993412Y-101725997D01*
X115878549Y-101802746D01*
X115878548Y-101802747D01*
X115804655Y-101852121D01*
X115755281Y-101926014D01*
X115075265Y-102606031D01*
X115048083Y-102624194D01*
X114840621Y-102485572D01*
X114300000Y-102378036D01*
X113759378Y-102485572D01*
X113301060Y-102791811D01*
X112994822Y-103250129D01*
X112914430Y-103654288D01*
X106095000Y-103654288D01*
X106095000Y-95688150D01*
X107215940Y-95688150D01*
X107215940Y-97278769D01*
X107312613Y-97512158D01*
X107491241Y-97690787D01*
X107724630Y-97787460D01*
X109315250Y-97787460D01*
X109474000Y-97628710D01*
X109474000Y-95529400D01*
X109728000Y-95529400D01*
X109728000Y-97628710D01*
X109886750Y-97787460D01*
X111477370Y-97787460D01*
X111710759Y-97690787D01*
X111889387Y-97512158D01*
X111902500Y-97480500D01*
X111902500Y-100152200D01*
X111951783Y-100399965D01*
X112092131Y-100610009D01*
X112302175Y-100750357D01*
X112549940Y-100799640D01*
X116050060Y-100799640D01*
X116297825Y-100750357D01*
X116507869Y-100610009D01*
X116648217Y-100399965D01*
X116697500Y-100152200D01*
X116697500Y-99060000D01*
X135696887Y-99060000D01*
X135808260Y-99619909D01*
X136125423Y-100094577D01*
X136600091Y-100411740D01*
X137018667Y-100495000D01*
X137301333Y-100495000D01*
X137719909Y-100411740D01*
X138194577Y-100094577D01*
X138511740Y-99619909D01*
X138623113Y-99060000D01*
X138566336Y-98774561D01*
X143345000Y-98774561D01*
X143345000Y-99345439D01*
X143563466Y-99872862D01*
X143967138Y-100276534D01*
X144494561Y-100495000D01*
X145065439Y-100495000D01*
X145592862Y-100276534D01*
X145996534Y-99872862D01*
X146215000Y-99345439D01*
X146215000Y-98774561D01*
X145996534Y-98247138D01*
X145592862Y-97843466D01*
X145065439Y-97625000D01*
X144494561Y-97625000D01*
X143967138Y-97843466D01*
X143563466Y-98247138D01*
X143345000Y-98774561D01*
X138566336Y-98774561D01*
X138511740Y-98500091D01*
X138194577Y-98025423D01*
X137719909Y-97708260D01*
X137301333Y-97625000D01*
X137018667Y-97625000D01*
X136600091Y-97708260D01*
X136125423Y-98025423D01*
X135808260Y-98500091D01*
X135696887Y-99060000D01*
X116697500Y-99060000D01*
X116697500Y-96812778D01*
X118865000Y-96812778D01*
X118865000Y-97463222D01*
X119113914Y-98064153D01*
X119573847Y-98524086D01*
X120174778Y-98773000D01*
X120825222Y-98773000D01*
X121426153Y-98524086D01*
X121886086Y-98064153D01*
X122135000Y-97463222D01*
X122135000Y-96812778D01*
X121886086Y-96211847D01*
X121426153Y-95751914D01*
X120825222Y-95503000D01*
X120174778Y-95503000D01*
X119573847Y-95751914D01*
X119113914Y-96211847D01*
X118865000Y-96812778D01*
X116697500Y-96812778D01*
X116697500Y-96652080D01*
X116648217Y-96404315D01*
X116507869Y-96194271D01*
X116297825Y-96053923D01*
X116050060Y-96004640D01*
X112549940Y-96004640D01*
X112302175Y-96053923D01*
X112092131Y-96194271D01*
X111986060Y-96353016D01*
X111986060Y-95688150D01*
X111827310Y-95529400D01*
X109728000Y-95529400D01*
X109474000Y-95529400D01*
X107374690Y-95529400D01*
X107215940Y-95688150D01*
X106095000Y-95688150D01*
X106095000Y-93526031D01*
X107215940Y-93526031D01*
X107215940Y-95116650D01*
X107374690Y-95275400D01*
X109474000Y-95275400D01*
X109474000Y-93176090D01*
X109728000Y-93176090D01*
X109728000Y-95275400D01*
X111827310Y-95275400D01*
X111986060Y-95116650D01*
X111986060Y-94450728D01*
X112011613Y-94512418D01*
X112190241Y-94691047D01*
X112423630Y-94787720D01*
X114014250Y-94787720D01*
X114173000Y-94628970D01*
X114173000Y-92529660D01*
X114427000Y-92529660D01*
X114427000Y-94628970D01*
X114585750Y-94787720D01*
X116176370Y-94787720D01*
X116409759Y-94691047D01*
X116588387Y-94512418D01*
X116685060Y-94279029D01*
X116685060Y-94265750D01*
X134101000Y-94265750D01*
X134101000Y-95006310D01*
X134197673Y-95239699D01*
X134376302Y-95418327D01*
X134609691Y-95515000D01*
X135350250Y-95515000D01*
X135509000Y-95356250D01*
X135509000Y-94107000D01*
X134259750Y-94107000D01*
X134101000Y-94265750D01*
X116685060Y-94265750D01*
X116685060Y-92688410D01*
X116526310Y-92529660D01*
X114427000Y-92529660D01*
X114173000Y-92529660D01*
X112073690Y-92529660D01*
X111914940Y-92688410D01*
X111914940Y-93354332D01*
X111889387Y-93292642D01*
X111710759Y-93114013D01*
X111477370Y-93017340D01*
X109886750Y-93017340D01*
X109728000Y-93176090D01*
X109474000Y-93176090D01*
X109315250Y-93017340D01*
X107724630Y-93017340D01*
X107491241Y-93114013D01*
X107312613Y-93292642D01*
X107215940Y-93526031D01*
X106095000Y-93526031D01*
X106095000Y-90526291D01*
X111914940Y-90526291D01*
X111914940Y-92116910D01*
X112073690Y-92275660D01*
X114173000Y-92275660D01*
X114173000Y-90176350D01*
X114427000Y-90176350D01*
X114427000Y-92275660D01*
X116526310Y-92275660D01*
X116685060Y-92116910D01*
X116685060Y-90838000D01*
X118852560Y-90838000D01*
X118852560Y-92838000D01*
X118901843Y-93085765D01*
X119042191Y-93295809D01*
X119252235Y-93436157D01*
X119500000Y-93485440D01*
X121500000Y-93485440D01*
X121747765Y-93436157D01*
X121957809Y-93295809D01*
X122098157Y-93085765D01*
X122124428Y-92953690D01*
X134101000Y-92953690D01*
X134101000Y-93694250D01*
X134259750Y-93853000D01*
X135509000Y-93853000D01*
X135509000Y-92603750D01*
X135763000Y-92603750D01*
X135763000Y-93853000D01*
X135783000Y-93853000D01*
X135783000Y-94107000D01*
X135763000Y-94107000D01*
X135763000Y-95356250D01*
X135921750Y-95515000D01*
X136662309Y-95515000D01*
X136895698Y-95418327D01*
X137074327Y-95239699D01*
X137130139Y-95104956D01*
X137306493Y-95281310D01*
X137870670Y-95515000D01*
X138481330Y-95515000D01*
X139045507Y-95281310D01*
X139477310Y-94849507D01*
X139692807Y-94329250D01*
X140755000Y-94329250D01*
X140755000Y-95019809D01*
X140851673Y-95253198D01*
X141030301Y-95431827D01*
X141263690Y-95528500D01*
X141954250Y-95528500D01*
X142113000Y-95369750D01*
X142113000Y-94170500D01*
X140913750Y-94170500D01*
X140755000Y-94329250D01*
X139692807Y-94329250D01*
X139711000Y-94285330D01*
X139711000Y-93674670D01*
X139477310Y-93110493D01*
X139434008Y-93067191D01*
X140755000Y-93067191D01*
X140755000Y-93757750D01*
X140913750Y-93916500D01*
X142113000Y-93916500D01*
X142113000Y-92717250D01*
X141954250Y-92558500D01*
X141263690Y-92558500D01*
X141030301Y-92655173D01*
X140851673Y-92833802D01*
X140755000Y-93067191D01*
X139434008Y-93067191D01*
X139045507Y-92678690D01*
X138481330Y-92445000D01*
X137870670Y-92445000D01*
X137306493Y-92678690D01*
X137130139Y-92855044D01*
X137074327Y-92720301D01*
X136895698Y-92541673D01*
X136662309Y-92445000D01*
X135921750Y-92445000D01*
X135763000Y-92603750D01*
X135509000Y-92603750D01*
X135350250Y-92445000D01*
X134609691Y-92445000D01*
X134376302Y-92541673D01*
X134197673Y-92720301D01*
X134101000Y-92953690D01*
X122124428Y-92953690D01*
X122147440Y-92838000D01*
X122147440Y-90838000D01*
X122098157Y-90590235D01*
X121957809Y-90380191D01*
X121747765Y-90239843D01*
X121500000Y-90190560D01*
X119500000Y-90190560D01*
X119252235Y-90239843D01*
X119042191Y-90380191D01*
X118901843Y-90590235D01*
X118852560Y-90838000D01*
X116685060Y-90838000D01*
X116685060Y-90526291D01*
X116588387Y-90292902D01*
X116409759Y-90114273D01*
X116176370Y-90017600D01*
X114585750Y-90017600D01*
X114427000Y-90176350D01*
X114173000Y-90176350D01*
X114014250Y-90017600D01*
X112423630Y-90017600D01*
X112190241Y-90114273D01*
X112011613Y-90292902D01*
X111914940Y-90526291D01*
X106095000Y-90526291D01*
X106095000Y-89467927D01*
X106140209Y-89211534D01*
X106239959Y-89038762D01*
X106392785Y-88910526D01*
X106609009Y-88831827D01*
X106709903Y-88823000D01*
X187900073Y-88823000D01*
X188156466Y-88868209D01*
G36*
X141241471Y-132308528D02*
X141699600Y-132614641D01*
X142240000Y-132722133D01*
X142780399Y-132614641D01*
X142940252Y-132507831D01*
X143506587Y-133074166D01*
X143555961Y-133148059D01*
X143629854Y-133197433D01*
X143629855Y-133197434D01*
X143703380Y-133246562D01*
X143848700Y-133343662D01*
X144106845Y-133395010D01*
X144106849Y-133395010D01*
X144194009Y-133412347D01*
X144281169Y-133395010D01*
X152809899Y-133395010D01*
X152897060Y-133412347D01*
X152984221Y-133395010D01*
X152984225Y-133395010D01*
X153242370Y-133343662D01*
X153535109Y-133148059D01*
X153542560Y-133136908D01*
X153542560Y-133470500D01*
X120777440Y-133470500D01*
X120777440Y-132379000D01*
X120728157Y-132131235D01*
X120612574Y-131958255D01*
X120650000Y-131902243D01*
X120921471Y-132308528D01*
X121379600Y-132614641D01*
X121920000Y-132722133D01*
X122460399Y-132614641D01*
X122918528Y-132308529D01*
X123190000Y-131902243D01*
X123461471Y-132308528D01*
X123919600Y-132614641D01*
X124460000Y-132722133D01*
X125000399Y-132614641D01*
X125458528Y-132308529D01*
X125730000Y-131902243D01*
X126001471Y-132308528D01*
X126459600Y-132614641D01*
X127000000Y-132722133D01*
X127540399Y-132614641D01*
X127998528Y-132308529D01*
X128270000Y-131902243D01*
X128541471Y-132308528D01*
X128999600Y-132614641D01*
X129540000Y-132722133D01*
X130080399Y-132614641D01*
X130538528Y-132308529D01*
X130810000Y-131902243D01*
X131081471Y-132308528D01*
X131539600Y-132614641D01*
X132080000Y-132722133D01*
X132620399Y-132614641D01*
X133078528Y-132308529D01*
X133350000Y-131902243D01*
X133621471Y-132308528D01*
X134079600Y-132614641D01*
X134620000Y-132722133D01*
X135160399Y-132614641D01*
X135618528Y-132308529D01*
X135890000Y-131902243D01*
X136161471Y-132308528D01*
X136619600Y-132614641D01*
X137160000Y-132722133D01*
X137700399Y-132614641D01*
X138158528Y-132308529D01*
X138430000Y-131902243D01*
X138701471Y-132308528D01*
X139159600Y-132614641D01*
X139700000Y-132722133D01*
X140240399Y-132614641D01*
X140698528Y-132308529D01*
X140970000Y-131902243D01*
X141241471Y-132308528D01*
X141241471Y-132308528D01*
G37*
X141241471Y-132308528D02*
X141699600Y-132614641D01*
X142240000Y-132722133D01*
X142780399Y-132614641D01*
X142940252Y-132507831D01*
X143506587Y-133074166D01*
X143555961Y-133148059D01*
X143629854Y-133197433D01*
X143629855Y-133197434D01*
X143703380Y-133246562D01*
X143848700Y-133343662D01*
X144106845Y-133395010D01*
X144106849Y-133395010D01*
X144194009Y-133412347D01*
X144281169Y-133395010D01*
X152809899Y-133395010D01*
X152897060Y-133412347D01*
X152984221Y-133395010D01*
X152984225Y-133395010D01*
X153242370Y-133343662D01*
X153535109Y-133148059D01*
X153542560Y-133136908D01*
X153542560Y-133470500D01*
X120777440Y-133470500D01*
X120777440Y-132379000D01*
X120728157Y-132131235D01*
X120612574Y-131958255D01*
X120650000Y-131902243D01*
X120921471Y-132308528D01*
X121379600Y-132614641D01*
X121920000Y-132722133D01*
X122460399Y-132614641D01*
X122918528Y-132308529D01*
X123190000Y-131902243D01*
X123461471Y-132308528D01*
X123919600Y-132614641D01*
X124460000Y-132722133D01*
X125000399Y-132614641D01*
X125458528Y-132308529D01*
X125730000Y-131902243D01*
X126001471Y-132308528D01*
X126459600Y-132614641D01*
X127000000Y-132722133D01*
X127540399Y-132614641D01*
X127998528Y-132308529D01*
X128270000Y-131902243D01*
X128541471Y-132308528D01*
X128999600Y-132614641D01*
X129540000Y-132722133D01*
X130080399Y-132614641D01*
X130538528Y-132308529D01*
X130810000Y-131902243D01*
X131081471Y-132308528D01*
X131539600Y-132614641D01*
X132080000Y-132722133D01*
X132620399Y-132614641D01*
X133078528Y-132308529D01*
X133350000Y-131902243D01*
X133621471Y-132308528D01*
X134079600Y-132614641D01*
X134620000Y-132722133D01*
X135160399Y-132614641D01*
X135618528Y-132308529D01*
X135890000Y-131902243D01*
X136161471Y-132308528D01*
X136619600Y-132614641D01*
X137160000Y-132722133D01*
X137700399Y-132614641D01*
X138158528Y-132308529D01*
X138430000Y-131902243D01*
X138701471Y-132308528D01*
X139159600Y-132614641D01*
X139700000Y-132722133D01*
X140240399Y-132614641D01*
X140698528Y-132308529D01*
X140970000Y-131902243D01*
X141241471Y-132308528D01*
G36*
X120921061Y-120728190D02*
X121379379Y-121034428D01*
X121920000Y-121141964D01*
X122133849Y-121099427D01*
X127489694Y-126455273D01*
X127000000Y-126357867D01*
X126459601Y-126465359D01*
X126001472Y-126771471D01*
X125730000Y-127177757D01*
X125458529Y-126771471D01*
X125000400Y-126465359D01*
X124460000Y-126357867D01*
X123919601Y-126465359D01*
X123461472Y-126771471D01*
X123190000Y-127177757D01*
X122918529Y-126771471D01*
X122805000Y-126695613D01*
X122805000Y-124039159D01*
X122822337Y-123951999D01*
X122805000Y-123864839D01*
X122805000Y-123864835D01*
X122753652Y-123606690D01*
X122681615Y-123498880D01*
X122607424Y-123387845D01*
X122607423Y-123387844D01*
X122558049Y-123313951D01*
X122484156Y-123264577D01*
X120265000Y-121045422D01*
X120265000Y-120804322D01*
X120378940Y-120728190D01*
X120650000Y-120322520D01*
X120921061Y-120728190D01*
X120921061Y-120728190D01*
G37*
X120921061Y-120728190D02*
X121379379Y-121034428D01*
X121920000Y-121141964D01*
X122133849Y-121099427D01*
X127489694Y-126455273D01*
X127000000Y-126357867D01*
X126459601Y-126465359D01*
X126001472Y-126771471D01*
X125730000Y-127177757D01*
X125458529Y-126771471D01*
X125000400Y-126465359D01*
X124460000Y-126357867D01*
X123919601Y-126465359D01*
X123461472Y-126771471D01*
X123190000Y-127177757D01*
X122918529Y-126771471D01*
X122805000Y-126695613D01*
X122805000Y-124039159D01*
X122822337Y-123951999D01*
X122805000Y-123864839D01*
X122805000Y-123864835D01*
X122753652Y-123606690D01*
X122681615Y-123498880D01*
X122607424Y-123387845D01*
X122607423Y-123387844D01*
X122558049Y-123313951D01*
X122484156Y-123264577D01*
X120265000Y-121045422D01*
X120265000Y-120804322D01*
X120378940Y-120728190D01*
X120650000Y-120322520D01*
X120921061Y-120728190D01*
G36*
X140015011Y-123232590D02*
X140015010Y-126420526D01*
X139700000Y-126357867D01*
X139159601Y-126465359D01*
X138701472Y-126771471D01*
X138430000Y-127177757D01*
X138158529Y-126771471D01*
X138045000Y-126695613D01*
X138045000Y-121262578D01*
X140015011Y-123232590D01*
X140015011Y-123232590D01*
G37*
X140015011Y-123232590D02*
X140015010Y-126420526D01*
X139700000Y-126357867D01*
X139159601Y-126465359D01*
X138701472Y-126771471D01*
X138430000Y-127177757D01*
X138158529Y-126771471D01*
X138045000Y-126695613D01*
X138045000Y-121262578D01*
X140015011Y-123232590D01*
G36*
X167493744Y-95528500D02*
X167786256Y-95528500D01*
X167970904Y-95491771D01*
X168075000Y-95595868D01*
X168075001Y-126444394D01*
X167640000Y-126357867D01*
X167099601Y-126465359D01*
X166641472Y-126771471D01*
X166370000Y-127177757D01*
X166098529Y-126771471D01*
X165640400Y-126465359D01*
X165100000Y-126357867D01*
X164559601Y-126465359D01*
X164101472Y-126771471D01*
X163830000Y-127177757D01*
X163558529Y-126771471D01*
X163395000Y-126662204D01*
X163395000Y-125821867D01*
X166882284Y-122334584D01*
X166952002Y-122288000D01*
X167136553Y-122011800D01*
X167185001Y-121768236D01*
X167201359Y-121685999D01*
X167185001Y-121603762D01*
X167185001Y-95467087D01*
X167493744Y-95528500D01*
X167493744Y-95528500D01*
G37*
X167493744Y-95528500D02*
X167786256Y-95528500D01*
X167970904Y-95491771D01*
X168075000Y-95595868D01*
X168075001Y-126444394D01*
X167640000Y-126357867D01*
X167099601Y-126465359D01*
X166641472Y-126771471D01*
X166370000Y-127177757D01*
X166098529Y-126771471D01*
X165640400Y-126465359D01*
X165100000Y-126357867D01*
X164559601Y-126465359D01*
X164101472Y-126771471D01*
X163830000Y-127177757D01*
X163558529Y-126771471D01*
X163395000Y-126662204D01*
X163395000Y-125821867D01*
X166882284Y-122334584D01*
X166952002Y-122288000D01*
X167136553Y-122011800D01*
X167185001Y-121768236D01*
X167201359Y-121685999D01*
X167185001Y-121603762D01*
X167185001Y-95467087D01*
X167493744Y-95528500D01*
G36*
X116840000Y-105901964D02*
X116974402Y-105875230D01*
X121264327Y-110165156D01*
X121313701Y-110239049D01*
X121387594Y-110288423D01*
X121387595Y-110288424D01*
X121457585Y-110335190D01*
X121606440Y-110434652D01*
X121864585Y-110486000D01*
X121864589Y-110486000D01*
X121951749Y-110503337D01*
X122038909Y-110486000D01*
X126521548Y-110486000D01*
X131736547Y-115701000D01*
X119178694Y-115701000D01*
X119057983Y-115651000D01*
X118686017Y-115651000D01*
X118342365Y-115793345D01*
X118079345Y-116056365D01*
X117937000Y-116400017D01*
X117937000Y-116771983D01*
X118079345Y-117115635D01*
X118342365Y-117378655D01*
X118686017Y-117521000D01*
X119057983Y-117521000D01*
X119178694Y-117471000D01*
X131808672Y-117471000D01*
X131976329Y-117638657D01*
X131539378Y-117725572D01*
X131081060Y-118031811D01*
X130794455Y-118460746D01*
X130771499Y-118383183D01*
X130429944Y-117961202D01*
X129952903Y-117702050D01*
X129881275Y-117687867D01*
X129667000Y-117810521D01*
X129667000Y-119253000D01*
X129687000Y-119253000D01*
X129687000Y-119507000D01*
X129667000Y-119507000D01*
X129667000Y-120949479D01*
X129881275Y-121072133D01*
X129952903Y-121057950D01*
X130429944Y-120798798D01*
X130771499Y-120376817D01*
X130794455Y-120299255D01*
X131081061Y-120728190D01*
X131539379Y-121034428D01*
X132080000Y-121141964D01*
X132620622Y-121034428D01*
X133078940Y-120728190D01*
X133350000Y-120322520D01*
X133621061Y-120728190D01*
X134079379Y-121034428D01*
X134620000Y-121141964D01*
X135074420Y-121051575D01*
X135074421Y-126448257D01*
X134620000Y-126357867D01*
X134079601Y-126465359D01*
X134072010Y-126470431D01*
X128131451Y-120529873D01*
X128285545Y-120299255D01*
X128308501Y-120376817D01*
X128650056Y-120798798D01*
X129127097Y-121057950D01*
X129198725Y-121072133D01*
X129413000Y-120949479D01*
X129413000Y-119507000D01*
X129393000Y-119507000D01*
X129393000Y-119253000D01*
X129413000Y-119253000D01*
X129413000Y-117810521D01*
X129198725Y-117687867D01*
X129127097Y-117702050D01*
X128650056Y-117961202D01*
X128308501Y-118383183D01*
X128285545Y-118460745D01*
X127998939Y-118031810D01*
X127540621Y-117725572D01*
X127000000Y-117618036D01*
X126459378Y-117725572D01*
X126001060Y-118031811D01*
X125730000Y-118437481D01*
X125458939Y-118031810D01*
X125000621Y-117725572D01*
X124460000Y-117618036D01*
X123919378Y-117725572D01*
X123461060Y-118031811D01*
X123190000Y-118437481D01*
X122918939Y-118031810D01*
X122460621Y-117725572D01*
X121920000Y-117618036D01*
X121379378Y-117725572D01*
X120921060Y-118031811D01*
X120650000Y-118437481D01*
X120378939Y-118031810D01*
X119920621Y-117725572D01*
X119380000Y-117618036D01*
X118839378Y-117725572D01*
X118381060Y-118031811D01*
X118110000Y-118437481D01*
X117838939Y-118031810D01*
X117380621Y-117725572D01*
X116840000Y-117618036D01*
X116524420Y-117680809D01*
X116524420Y-105839191D01*
X116840000Y-105901964D01*
X116840000Y-105901964D01*
G37*
X116840000Y-105901964D02*
X116974402Y-105875230D01*
X121264327Y-110165156D01*
X121313701Y-110239049D01*
X121387594Y-110288423D01*
X121387595Y-110288424D01*
X121457585Y-110335190D01*
X121606440Y-110434652D01*
X121864585Y-110486000D01*
X121864589Y-110486000D01*
X121951749Y-110503337D01*
X122038909Y-110486000D01*
X126521548Y-110486000D01*
X131736547Y-115701000D01*
X119178694Y-115701000D01*
X119057983Y-115651000D01*
X118686017Y-115651000D01*
X118342365Y-115793345D01*
X118079345Y-116056365D01*
X117937000Y-116400017D01*
X117937000Y-116771983D01*
X118079345Y-117115635D01*
X118342365Y-117378655D01*
X118686017Y-117521000D01*
X119057983Y-117521000D01*
X119178694Y-117471000D01*
X131808672Y-117471000D01*
X131976329Y-117638657D01*
X131539378Y-117725572D01*
X131081060Y-118031811D01*
X130794455Y-118460746D01*
X130771499Y-118383183D01*
X130429944Y-117961202D01*
X129952903Y-117702050D01*
X129881275Y-117687867D01*
X129667000Y-117810521D01*
X129667000Y-119253000D01*
X129687000Y-119253000D01*
X129687000Y-119507000D01*
X129667000Y-119507000D01*
X129667000Y-120949479D01*
X129881275Y-121072133D01*
X129952903Y-121057950D01*
X130429944Y-120798798D01*
X130771499Y-120376817D01*
X130794455Y-120299255D01*
X131081061Y-120728190D01*
X131539379Y-121034428D01*
X132080000Y-121141964D01*
X132620622Y-121034428D01*
X133078940Y-120728190D01*
X133350000Y-120322520D01*
X133621061Y-120728190D01*
X134079379Y-121034428D01*
X134620000Y-121141964D01*
X135074420Y-121051575D01*
X135074421Y-126448257D01*
X134620000Y-126357867D01*
X134079601Y-126465359D01*
X134072010Y-126470431D01*
X128131451Y-120529873D01*
X128285545Y-120299255D01*
X128308501Y-120376817D01*
X128650056Y-120798798D01*
X129127097Y-121057950D01*
X129198725Y-121072133D01*
X129413000Y-120949479D01*
X129413000Y-119507000D01*
X129393000Y-119507000D01*
X129393000Y-119253000D01*
X129413000Y-119253000D01*
X129413000Y-117810521D01*
X129198725Y-117687867D01*
X129127097Y-117702050D01*
X128650056Y-117961202D01*
X128308501Y-118383183D01*
X128285545Y-118460745D01*
X127998939Y-118031810D01*
X127540621Y-117725572D01*
X127000000Y-117618036D01*
X126459378Y-117725572D01*
X126001060Y-118031811D01*
X125730000Y-118437481D01*
X125458939Y-118031810D01*
X125000621Y-117725572D01*
X124460000Y-117618036D01*
X123919378Y-117725572D01*
X123461060Y-118031811D01*
X123190000Y-118437481D01*
X122918939Y-118031810D01*
X122460621Y-117725572D01*
X121920000Y-117618036D01*
X121379378Y-117725572D01*
X120921060Y-118031811D01*
X120650000Y-118437481D01*
X120378939Y-118031810D01*
X119920621Y-117725572D01*
X119380000Y-117618036D01*
X118839378Y-117725572D01*
X118381060Y-118031811D01*
X118110000Y-118437481D01*
X117838939Y-118031810D01*
X117380621Y-117725572D01*
X116840000Y-117618036D01*
X116524420Y-117680809D01*
X116524420Y-105839191D01*
X116840000Y-105901964D01*
G36*
X160574430Y-117734799D02*
X160560621Y-117725572D01*
X160020000Y-117618036D01*
X159585000Y-117704563D01*
X159585000Y-105815437D01*
X160020000Y-105901964D01*
X160560622Y-105794428D01*
X160574431Y-105785201D01*
X160574430Y-117734799D01*
X160574430Y-117734799D01*
G37*
X160574430Y-117734799D02*
X160560621Y-117725572D01*
X160020000Y-117618036D01*
X159585000Y-117704563D01*
X159585000Y-105815437D01*
X160020000Y-105901964D01*
X160560622Y-105794428D01*
X160574431Y-105785201D01*
X160574430Y-117734799D01*
G36*
X157915001Y-117704563D02*
X157480000Y-117618036D01*
X157045000Y-117704563D01*
X157045000Y-105815437D01*
X157480000Y-105901964D01*
X157915000Y-105815437D01*
X157915001Y-117704563D01*
X157915001Y-117704563D01*
G37*
X157915001Y-117704563D02*
X157480000Y-117618036D01*
X157045000Y-117704563D01*
X157045000Y-105815437D01*
X157480000Y-105901964D01*
X157915000Y-105815437D01*
X157915001Y-117704563D01*
G36*
X153869375Y-95114125D02*
X154360582Y-95442339D01*
X154642561Y-95498428D01*
X155375000Y-96230868D01*
X155375000Y-96416950D01*
X155225439Y-96355000D01*
X154654561Y-96355000D01*
X154127138Y-96573466D01*
X153723466Y-96977138D01*
X153650000Y-97154500D01*
X153576534Y-96977138D01*
X153172862Y-96573466D01*
X152645439Y-96355000D01*
X152074561Y-96355000D01*
X151547138Y-96573466D01*
X151143466Y-96977138D01*
X151110000Y-97057932D01*
X151076534Y-96977138D01*
X150695000Y-96595604D01*
X150695000Y-95271565D01*
X150930625Y-95114125D01*
X151130000Y-94815739D01*
X151329375Y-95114125D01*
X151820582Y-95442339D01*
X152253744Y-95528500D01*
X152546256Y-95528500D01*
X152979418Y-95442339D01*
X153470625Y-95114125D01*
X153670000Y-94815739D01*
X153869375Y-95114125D01*
X153869375Y-95114125D01*
G37*
X153869375Y-95114125D02*
X154360582Y-95442339D01*
X154642561Y-95498428D01*
X155375000Y-96230868D01*
X155375000Y-96416950D01*
X155225439Y-96355000D01*
X154654561Y-96355000D01*
X154127138Y-96573466D01*
X153723466Y-96977138D01*
X153650000Y-97154500D01*
X153576534Y-96977138D01*
X153172862Y-96573466D01*
X152645439Y-96355000D01*
X152074561Y-96355000D01*
X151547138Y-96573466D01*
X151143466Y-96977138D01*
X151110000Y-97057932D01*
X151076534Y-96977138D01*
X150695000Y-96595604D01*
X150695000Y-95271565D01*
X150930625Y-95114125D01*
X151130000Y-94815739D01*
X151329375Y-95114125D01*
X151820582Y-95442339D01*
X152253744Y-95528500D01*
X152546256Y-95528500D01*
X152979418Y-95442339D01*
X153470625Y-95114125D01*
X153670000Y-94815739D01*
X153869375Y-95114125D01*
G04 #@! TD*
M02*
