G04 #@! TF.GenerationSoftware,KiCad,Pcbnew,(5.0.0-rc3-dev)*
G04 #@! TF.CreationDate,2019-01-29T23:40:13+01:00*
G04 #@! TF.ProjectId,Lawo 28x13,4C61776F2032387831332E6B69636164,0.12*
G04 #@! TF.SameCoordinates,Original*
G04 #@! TF.FileFunction,Soldermask,Bot*
G04 #@! TF.FilePolarity,Negative*
%FSLAX46Y46*%
G04 Gerber Fmt 4.6, Leading zero omitted, Abs format (unit mm)*
G04 Created by KiCad (PCBNEW (5.0.0-rc3-dev)) date 2019 January 29, Tuesday 23:40:13*
%MOMM*%
%LPD*%
G01*
G04 APERTURE LIST*
%ADD10C,0.300000*%
%ADD11C,0.100000*%
%ADD12C,1.600000*%
%ADD13O,1.600000X1.600000*%
%ADD14O,1.501140X2.199640*%
%ADD15R,2.000000X2.000000*%
%ADD16C,2.000000*%
%ADD17C,3.900000*%
%ADD18C,3.900000*%
%ADD19O,1.500000X2.000000*%
%ADD20R,1.500000X2.000000*%
%ADD21C,5.000000*%
%ADD22R,3.500120X3.500120*%
%ADD23R,1.600000X1.600000*%
%ADD24O,1.700000X1.700000*%
%ADD25R,1.700000X1.700000*%
%ADD26C,1.800000*%
%ADD27R,1.800000X1.800000*%
%ADD28O,1.500000X2.500000*%
%ADD29R,1.500000X2.500000*%
G04 APERTURE END LIST*
D10*
G04 #@! TO.C,J6*
X116840000Y-134355500D03*
D11*
G36*
X116840000Y-133355500D02*
X117590000Y-133855500D01*
X117590000Y-134855500D01*
X116090000Y-134855500D01*
X116090000Y-133855500D01*
X116840000Y-133355500D01*
X116840000Y-133355500D01*
G37*
D10*
X116840000Y-132905500D03*
D11*
G36*
X117590000Y-132405500D02*
X117590000Y-133555500D01*
X116840000Y-133055500D01*
X116090000Y-133555500D01*
X116090000Y-132405500D01*
X117590000Y-132405500D01*
X117590000Y-132405500D01*
G37*
G04 #@! TD*
D12*
G04 #@! TO.C,R2*
X144780000Y-99060000D03*
D13*
X137160000Y-99060000D03*
G04 #@! TD*
D14*
G04 #@! TO.C,IC1*
X114300000Y-104140000D03*
X116840000Y-104140000D03*
X119380000Y-104140000D03*
X121920000Y-104140000D03*
X124460000Y-104140000D03*
X127000000Y-104140000D03*
X129540000Y-104140000D03*
X132080000Y-104140000D03*
X134620000Y-104140000D03*
X137160000Y-104140000D03*
X139700000Y-104140000D03*
X142240000Y-104140000D03*
X144780000Y-104140000D03*
X147320000Y-104140000D03*
X149860000Y-104140000D03*
X152400000Y-104140000D03*
X154940000Y-104140000D03*
X157480000Y-104140000D03*
X160020000Y-104140000D03*
X162560000Y-104140000D03*
X162560000Y-119380000D03*
X160020000Y-119380000D03*
X157480000Y-119380000D03*
X154940000Y-119380000D03*
X152400000Y-119380000D03*
X149860000Y-119380000D03*
X147320000Y-119380000D03*
X144780000Y-119380000D03*
X142240000Y-119380000D03*
X139700000Y-119380000D03*
X137160000Y-119380000D03*
X134620000Y-119380000D03*
X132080000Y-119380000D03*
X129540000Y-119380000D03*
X127000000Y-119380000D03*
X124460000Y-119380000D03*
X121920000Y-119380000D03*
X119380000Y-119380000D03*
X116840000Y-119380000D03*
X114300000Y-119380000D03*
G04 #@! TD*
D15*
G04 #@! TO.C,PWR_SW1*
X120500000Y-91838000D03*
D16*
X120500000Y-97138000D03*
G04 #@! TD*
D17*
G04 #@! TO.C,I1*
X185216800Y-129921000D03*
D18*
X183758858Y-130273713D02*
X186674742Y-129568287D01*
D17*
X109423200Y-129921000D03*
D18*
X110881142Y-130273713D02*
X107965258Y-129568287D01*
D19*
X127000000Y-131060000D03*
X127000000Y-128020000D03*
X124460000Y-128020000D03*
X124460000Y-131060000D03*
X121920000Y-131060000D03*
X121920000Y-128020000D03*
X116840000Y-128020000D03*
X116840000Y-131060000D03*
X119380000Y-131060000D03*
X119380000Y-128020000D03*
X132080000Y-128020000D03*
X132080000Y-131060000D03*
X129540000Y-131060000D03*
X129540000Y-128020000D03*
X134620000Y-128020000D03*
X134620000Y-131060000D03*
X137160000Y-131060000D03*
X137160000Y-128020000D03*
X139700000Y-128020000D03*
X139700000Y-131060000D03*
X144780000Y-128020000D03*
X144780000Y-131060000D03*
X142240000Y-131060000D03*
X142240000Y-128020000D03*
X147320000Y-128020000D03*
X147320000Y-131060000D03*
X149860000Y-131060000D03*
X149860000Y-128020000D03*
X152400000Y-128020000D03*
X152400000Y-131060000D03*
X154940000Y-131060000D03*
X154940000Y-128020000D03*
X157480000Y-128020000D03*
X157480000Y-131060000D03*
X160020000Y-131060000D03*
X160020000Y-128020000D03*
X162560000Y-128020000D03*
X162560000Y-131060000D03*
X165100000Y-131060000D03*
X165100000Y-128020000D03*
X167640000Y-128020000D03*
X167640000Y-131060000D03*
X170180000Y-131060000D03*
X170180000Y-128020000D03*
D20*
X177800000Y-128020000D03*
D19*
X177800000Y-131060000D03*
X175260000Y-128020000D03*
X175260000Y-131060000D03*
X172720000Y-128020000D03*
X172720000Y-131060000D03*
G04 #@! TD*
D21*
G04 #@! TO.C,MTH4*
X109220000Y-120650000D03*
G04 #@! TD*
G04 #@! TO.C,MTH2*
X185420000Y-102870000D03*
G04 #@! TD*
G04 #@! TO.C,MTH3*
X185420000Y-120650000D03*
G04 #@! TD*
G04 #@! TO.C,MTH1*
X109220000Y-102870000D03*
G04 #@! TD*
D22*
G04 #@! TO.C,PWR1*
X114300000Y-98402140D03*
X114300000Y-92402660D03*
X109601000Y-95402400D03*
G04 #@! TD*
D12*
G04 #@! TO.C,C1*
X149860000Y-97790000D03*
X152360000Y-97790000D03*
G04 #@! TD*
G04 #@! TO.C,C2*
X175260000Y-99100000D03*
D23*
X175260000Y-101600000D03*
G04 #@! TD*
D12*
G04 #@! TO.C,C3*
X159980000Y-122936000D03*
X157480000Y-122936000D03*
G04 #@! TD*
D24*
G04 #@! TO.C,I2*
X185420000Y-94043500D03*
X182880000Y-94043500D03*
X180340000Y-94043500D03*
X177800000Y-94043500D03*
X175260000Y-94043500D03*
X172720000Y-94043500D03*
X170180000Y-94043500D03*
X167640000Y-94043500D03*
X165100000Y-94043500D03*
X162560000Y-94043500D03*
X160020000Y-94043500D03*
X157480000Y-94043500D03*
X154940000Y-94043500D03*
X152400000Y-94043500D03*
X149860000Y-94043500D03*
X147320000Y-94043500D03*
X144780000Y-94043500D03*
D25*
X142240000Y-94043500D03*
G04 #@! TD*
D26*
G04 #@! TO.C,LED1*
X138176000Y-93980000D03*
D27*
X135636000Y-93980000D03*
G04 #@! TD*
D13*
G04 #@! TO.C,R1*
X162560000Y-97790000D03*
D12*
X154940000Y-97790000D03*
G04 #@! TD*
D10*
G04 #@! TO.C,J1*
X154940000Y-126174500D03*
D11*
G36*
X154190000Y-126674500D02*
X154190000Y-125524500D01*
X154940000Y-126024500D01*
X155690000Y-125524500D01*
X155690000Y-126674500D01*
X154190000Y-126674500D01*
X154190000Y-126674500D01*
G37*
D10*
X154940000Y-124724500D03*
D11*
G36*
X154940000Y-125724500D02*
X154190000Y-125224500D01*
X154190000Y-124224500D01*
X155690000Y-124224500D01*
X155690000Y-125224500D01*
X154940000Y-125724500D01*
X154940000Y-125724500D01*
G37*
G04 #@! TD*
D10*
G04 #@! TO.C,J2*
X119380000Y-124724500D03*
D11*
G36*
X119380000Y-125724500D02*
X118630000Y-125224500D01*
X118630000Y-124224500D01*
X120130000Y-124224500D01*
X120130000Y-125224500D01*
X119380000Y-125724500D01*
X119380000Y-125724500D01*
G37*
D10*
X119380000Y-126174500D03*
D11*
G36*
X118630000Y-126674500D02*
X118630000Y-125524500D01*
X119380000Y-126024500D01*
X120130000Y-125524500D01*
X120130000Y-126674500D01*
X118630000Y-126674500D01*
X118630000Y-126674500D01*
G37*
G04 #@! TD*
D10*
G04 #@! TO.C,J3*
X116840000Y-124724500D03*
D11*
G36*
X116840000Y-125724500D02*
X116090000Y-125224500D01*
X116090000Y-124224500D01*
X117590000Y-124224500D01*
X117590000Y-125224500D01*
X116840000Y-125724500D01*
X116840000Y-125724500D01*
G37*
D10*
X116840000Y-126174500D03*
D11*
G36*
X116090000Y-126674500D02*
X116090000Y-125524500D01*
X116840000Y-126024500D01*
X117590000Y-125524500D01*
X117590000Y-126674500D01*
X116090000Y-126674500D01*
X116090000Y-126674500D01*
G37*
G04 #@! TD*
D10*
G04 #@! TO.C,J4*
X154940000Y-132905500D03*
D11*
G36*
X155690000Y-132405500D02*
X155690000Y-133555500D01*
X154940000Y-133055500D01*
X154190000Y-133555500D01*
X154190000Y-132405500D01*
X155690000Y-132405500D01*
X155690000Y-132405500D01*
G37*
D10*
X154940000Y-134355500D03*
D11*
G36*
X154940000Y-133355500D02*
X155690000Y-133855500D01*
X155690000Y-134855500D01*
X154190000Y-134855500D01*
X154190000Y-133855500D01*
X154940000Y-133355500D01*
X154940000Y-133355500D01*
G37*
G04 #@! TD*
D10*
G04 #@! TO.C,J5*
X119380000Y-132879000D03*
D11*
G36*
X120130000Y-132379000D02*
X120130000Y-133529000D01*
X119380000Y-133029000D01*
X118630000Y-133529000D01*
X118630000Y-132379000D01*
X120130000Y-132379000D01*
X120130000Y-132379000D01*
G37*
D10*
X119380000Y-134329000D03*
D11*
G36*
X119380000Y-133329000D02*
X120130000Y-133829000D01*
X120130000Y-134829000D01*
X118630000Y-134829000D01*
X118630000Y-133829000D01*
X119380000Y-133329000D01*
X119380000Y-133329000D01*
G37*
G04 #@! TD*
D28*
G04 #@! TO.C,U1*
X172720000Y-107039000D03*
X175260000Y-107039000D03*
D29*
X177800000Y-107039000D03*
G04 #@! TD*
M02*
