G04 #@! TF.GenerationSoftware,KiCad,Pcbnew,(5.0.0-rc3-dev)*
G04 #@! TF.CreationDate,2019-01-29T23:40:13+01:00*
G04 #@! TF.ProjectId,Lawo 28x13,4C61776F2032387831332E6B69636164,0.12*
G04 #@! TF.SameCoordinates,Original*
G04 #@! TF.FileFunction,Copper,L1,Top,Signal*
G04 #@! TF.FilePolarity,Positive*
%FSLAX46Y46*%
G04 Gerber Fmt 4.6, Leading zero omitted, Abs format (unit mm)*
G04 Created by KiCad (PCBNEW (5.0.0-rc3-dev)) date 2019 January 29, Tuesday 23:40:13*
%MOMM*%
%LPD*%
G01*
G04 APERTURE LIST*
G04 #@! TA.AperFunction,NonConductor*
%ADD10C,0.300000*%
G04 #@! TD*
G04 #@! TA.AperFunction,ComponentPad*
%ADD11C,1.600000*%
G04 #@! TD*
G04 #@! TA.AperFunction,ComponentPad*
%ADD12O,1.600000X1.600000*%
G04 #@! TD*
G04 #@! TA.AperFunction,ComponentPad*
%ADD13O,1.501140X2.199640*%
G04 #@! TD*
G04 #@! TA.AperFunction,ComponentPad*
%ADD14R,2.000000X2.000000*%
G04 #@! TD*
G04 #@! TA.AperFunction,ComponentPad*
%ADD15C,2.000000*%
G04 #@! TD*
G04 #@! TA.AperFunction,ComponentPad*
%ADD16C,3.900000*%
G04 #@! TD*
G04 #@! TA.AperFunction,Conductor*
%ADD17C,3.900000*%
G04 #@! TD*
G04 #@! TA.AperFunction,ComponentPad*
%ADD18O,1.500000X2.000000*%
G04 #@! TD*
G04 #@! TA.AperFunction,ComponentPad*
%ADD19R,1.500000X2.000000*%
G04 #@! TD*
G04 #@! TA.AperFunction,ComponentPad*
%ADD20C,5.000000*%
G04 #@! TD*
G04 #@! TA.AperFunction,ComponentPad*
%ADD21R,3.500120X3.500120*%
G04 #@! TD*
G04 #@! TA.AperFunction,ComponentPad*
%ADD22R,1.600000X1.600000*%
G04 #@! TD*
G04 #@! TA.AperFunction,ComponentPad*
%ADD23O,1.700000X1.700000*%
G04 #@! TD*
G04 #@! TA.AperFunction,ComponentPad*
%ADD24R,1.700000X1.700000*%
G04 #@! TD*
G04 #@! TA.AperFunction,ComponentPad*
%ADD25C,1.800000*%
G04 #@! TD*
G04 #@! TA.AperFunction,ComponentPad*
%ADD26R,1.800000X1.800000*%
G04 #@! TD*
G04 #@! TA.AperFunction,ComponentPad*
%ADD27O,1.500000X2.500000*%
G04 #@! TD*
G04 #@! TA.AperFunction,ComponentPad*
%ADD28R,1.500000X2.500000*%
G04 #@! TD*
G04 #@! TA.AperFunction,ViaPad*
%ADD29C,0.600000*%
G04 #@! TD*
G04 #@! TA.AperFunction,ViaPad*
%ADD30C,1.100000*%
G04 #@! TD*
G04 #@! TA.AperFunction,Conductor*
%ADD31C,1.000000*%
G04 #@! TD*
G04 #@! TA.AperFunction,Conductor*
%ADD32C,0.500000*%
G04 #@! TD*
G04 #@! TA.AperFunction,Conductor*
%ADD33C,0.400000*%
G04 #@! TD*
G04 #@! TA.AperFunction,Conductor*
%ADD34C,0.254000*%
G04 #@! TD*
G04 APERTURE END LIST*
D10*
X184598571Y-113724285D02*
X184598571Y-112867142D01*
X186098571Y-113295714D02*
X184598571Y-113295714D01*
X184598571Y-112081428D02*
X184598571Y-111795714D01*
X184670000Y-111652857D01*
X184812857Y-111510000D01*
X185098571Y-111438571D01*
X185598571Y-111438571D01*
X185884285Y-111510000D01*
X186027142Y-111652857D01*
X186098571Y-111795714D01*
X186098571Y-112081428D01*
X186027142Y-112224285D01*
X185884285Y-112367142D01*
X185598571Y-112438571D01*
X185098571Y-112438571D01*
X184812857Y-112367142D01*
X184670000Y-112224285D01*
X184598571Y-112081428D01*
X186098571Y-110795714D02*
X184598571Y-110795714D01*
X184598571Y-110224285D01*
X184670000Y-110081428D01*
X184741428Y-110010000D01*
X184884285Y-109938571D01*
X185098571Y-109938571D01*
X185241428Y-110010000D01*
X185312857Y-110081428D01*
X185384285Y-110224285D01*
X185384285Y-110795714D01*
D11*
G04 #@! TO.P,R2,1*
G04 #@! TO.N,+5V*
X144780000Y-99060000D03*
D12*
G04 #@! TO.P,R2,2*
G04 #@! TO.N,Net-(LED1-Pad2)*
X137160000Y-99060000D03*
G04 #@! TD*
D13*
G04 #@! TO.P,IC1,40*
G04 #@! TO.N,SET_4*
X114300000Y-104140000D03*
G04 #@! TO.P,IC1,39*
G04 #@! TO.N,SET_6*
X116840000Y-104140000D03*
G04 #@! TO.P,IC1,38*
G04 #@! TO.N,SET_3*
X119380000Y-104140000D03*
G04 #@! TO.P,IC1,37*
G04 #@! TO.N,SET_2*
X121920000Y-104140000D03*
G04 #@! TO.P,IC1,36*
G04 #@! TO.N,SET_1*
X124460000Y-104140000D03*
G04 #@! TO.P,IC1,35*
G04 #@! TO.N,+24V*
X127000000Y-104140000D03*
G04 #@! TO.P,IC1,34*
G04 #@! TO.N,SET_5*
X129540000Y-104140000D03*
G04 #@! TO.P,IC1,33*
G04 #@! TO.N,SET_7*
X132080000Y-104140000D03*
G04 #@! TO.P,IC1,32*
G04 #@! TO.N,SET_X*
X134620000Y-104140000D03*
G04 #@! TO.P,IC1,31*
G04 #@! TO.N,SET_12*
X137160000Y-104140000D03*
G04 #@! TO.P,IC1,30*
G04 #@! TO.N,SET_13*
X139700000Y-104140000D03*
G04 #@! TO.P,IC1,29*
G04 #@! TO.N,SET_11*
X142240000Y-104140000D03*
G04 #@! TO.P,IC1,28*
G04 #@! TO.N,SET_10*
X144780000Y-104140000D03*
G04 #@! TO.P,IC1,27*
G04 #@! TO.N,SET_9*
X147320000Y-104140000D03*
G04 #@! TO.P,IC1,26*
G04 #@! TO.N,SET_8*
X149860000Y-104140000D03*
G04 #@! TO.P,IC1,25*
G04 #@! TO.N,GND*
X152400000Y-104140000D03*
G04 #@! TO.P,IC1,24*
G04 #@! TO.N,Net-(C1-Pad2)*
X154940000Y-104140000D03*
G04 #@! TO.P,IC1,23*
G04 #@! TO.N,ROW_DATA*
X157480000Y-104140000D03*
G04 #@! TO.P,IC1,22*
G04 #@! TO.N,ROW_B1*
X160020000Y-104140000D03*
G04 #@! TO.P,IC1,21*
G04 #@! TO.N,ROW_B0*
X162560000Y-104140000D03*
G04 #@! TO.P,IC1,20*
G04 #@! TO.N,ROW_A2*
X162560000Y-119380000D03*
G04 #@! TO.P,IC1,19*
G04 #@! TO.N,ROW_A0*
X160020000Y-119380000D03*
G04 #@! TO.P,IC1,18*
G04 #@! TO.N,ROW_A1*
X157480000Y-119380000D03*
G04 #@! TO.P,IC1,17*
G04 #@! TO.N,+5V*
X154940000Y-119380000D03*
G04 #@! TO.P,IC1,16*
G04 #@! TO.N,RESET_1*
X152400000Y-119380000D03*
G04 #@! TO.P,IC1,15*
G04 #@! TO.N,RESET_2*
X149860000Y-119380000D03*
G04 #@! TO.P,IC1,14*
G04 #@! TO.N,RESET_3*
X147320000Y-119380000D03*
G04 #@! TO.P,IC1,13*
G04 #@! TO.N,RESET_4*
X144780000Y-119380000D03*
G04 #@! TO.P,IC1,12*
G04 #@! TO.N,RESET_6*
X142240000Y-119380000D03*
G04 #@! TO.P,IC1,11*
G04 #@! TO.N,RESET_5*
X139700000Y-119380000D03*
G04 #@! TO.P,IC1,10*
G04 #@! TO.N,RESET_7*
X137160000Y-119380000D03*
G04 #@! TO.P,IC1,9*
G04 #@! TO.N,RESET_X*
X134620000Y-119380000D03*
G04 #@! TO.P,IC1,8*
G04 #@! TO.N,RESET_12*
X132080000Y-119380000D03*
G04 #@! TO.P,IC1,7*
G04 #@! TO.N,GND*
X129540000Y-119380000D03*
G04 #@! TO.P,IC1,6*
G04 #@! TO.N,RESET_8*
X127000000Y-119380000D03*
G04 #@! TO.P,IC1,5*
G04 #@! TO.N,RESET_9*
X124460000Y-119380000D03*
G04 #@! TO.P,IC1,4*
G04 #@! TO.N,RESET_10*
X121920000Y-119380000D03*
G04 #@! TO.P,IC1,3*
G04 #@! TO.N,RESET_13*
X119380000Y-119380000D03*
G04 #@! TO.P,IC1,2*
G04 #@! TO.N,RESET_11*
X116840000Y-119380000D03*
G04 #@! TO.P,IC1,1*
G04 #@! TO.N,Net-(IC1-Pad1)*
X114300000Y-119380000D03*
G04 #@! TD*
D14*
G04 #@! TO.P,PWR_SW1,1*
G04 #@! TO.N,VIN*
X120500000Y-91838000D03*
D15*
G04 #@! TO.P,PWR_SW1,2*
G04 #@! TO.N,+24V*
X120500000Y-97138000D03*
G04 #@! TD*
D16*
G04 #@! TO.P,I1,*
G04 #@! TO.N,*
X185216800Y-129921000D03*
D17*
G04 #@! TD*
G04 #@! TO.N,*
G04 #@! TO.C,I1*
X183758858Y-130273713D02*
X186674742Y-129568287D01*
D16*
G04 #@! TO.P,I1,*
G04 #@! TO.N,*
X109423200Y-129921000D03*
D17*
G04 #@! TD*
G04 #@! TO.N,*
G04 #@! TO.C,I1*
X110881142Y-130273713D02*
X107965258Y-129568287D01*
D18*
G04 #@! TO.P,I1,42*
G04 #@! TO.N,SET_11*
X127000000Y-131060000D03*
G04 #@! TO.P,I1,41*
G04 #@! TO.N,RESET_11*
X127000000Y-128020000D03*
G04 #@! TO.P,I1,43*
G04 #@! TO.N,RESET_12*
X124460000Y-128020000D03*
G04 #@! TO.P,I1,44*
G04 #@! TO.N,SET_12*
X124460000Y-131060000D03*
G04 #@! TO.P,I1,46*
G04 #@! TO.N,SET_13*
X121920000Y-131060000D03*
G04 #@! TO.P,I1,45*
G04 #@! TO.N,RESET_13*
X121920000Y-128020000D03*
G04 #@! TO.P,I1,49*
G04 #@! TO.N,Net-(I1-Pad49)*
X116840000Y-128020000D03*
G04 #@! TO.P,I1,50*
G04 #@! TO.N,Net-(I1-Pad50)*
X116840000Y-131060000D03*
G04 #@! TO.P,I1,48*
G04 #@! TO.N,Net-(I1-Pad48)*
X119380000Y-131060000D03*
G04 #@! TO.P,I1,47*
G04 #@! TO.N,Net-(I1-Pad47)*
X119380000Y-128020000D03*
G04 #@! TO.P,I1,37*
G04 #@! TO.N,RESET_9*
X132080000Y-128020000D03*
G04 #@! TO.P,I1,38*
G04 #@! TO.N,SET_9*
X132080000Y-131060000D03*
G04 #@! TO.P,I1,40*
G04 #@! TO.N,SET_10*
X129540000Y-131060000D03*
G04 #@! TO.P,I1,39*
G04 #@! TO.N,RESET_10*
X129540000Y-128020000D03*
G04 #@! TO.P,I1,35*
G04 #@! TO.N,RESET_8*
X134620000Y-128020000D03*
G04 #@! TO.P,I1,36*
G04 #@! TO.N,SET_8*
X134620000Y-131060000D03*
G04 #@! TO.P,I1,34*
G04 #@! TO.N,SET_7*
X137160000Y-131060000D03*
G04 #@! TO.P,I1,33*
G04 #@! TO.N,RESET_7*
X137160000Y-128020000D03*
G04 #@! TO.P,I1,31*
G04 #@! TO.N,RESET_6*
X139700000Y-128020000D03*
G04 #@! TO.P,I1,32*
G04 #@! TO.N,SET_6*
X139700000Y-131060000D03*
G04 #@! TO.P,I1,27*
G04 #@! TO.N,RESET_4*
X144780000Y-128020000D03*
G04 #@! TO.P,I1,28*
G04 #@! TO.N,SET_4*
X144780000Y-131060000D03*
G04 #@! TO.P,I1,30*
G04 #@! TO.N,SET_5*
X142240000Y-131060000D03*
G04 #@! TO.P,I1,29*
G04 #@! TO.N,RESET_5*
X142240000Y-128020000D03*
G04 #@! TO.P,I1,25*
G04 #@! TO.N,RESET_3*
X147320000Y-128020000D03*
G04 #@! TO.P,I1,26*
G04 #@! TO.N,SET_3*
X147320000Y-131060000D03*
G04 #@! TO.P,I1,24*
G04 #@! TO.N,SET_2*
X149860000Y-131060000D03*
G04 #@! TO.P,I1,23*
G04 #@! TO.N,RESET_2*
X149860000Y-128020000D03*
G04 #@! TO.P,I1,21*
G04 #@! TO.N,RESET_1*
X152400000Y-128020000D03*
G04 #@! TO.P,I1,22*
G04 #@! TO.N,SET_1*
X152400000Y-131060000D03*
G04 #@! TO.P,I1,20*
G04 #@! TO.N,Net-(I1-Pad20)*
X154940000Y-131060000D03*
G04 #@! TO.P,I1,19*
G04 #@! TO.N,Net-(I1-Pad19)*
X154940000Y-128020000D03*
G04 #@! TO.P,I1,17*
G04 #@! TO.N,GND*
X157480000Y-128020000D03*
G04 #@! TO.P,I1,18*
X157480000Y-131060000D03*
G04 #@! TO.P,I1,16*
G04 #@! TO.N,COL_A0*
X160020000Y-131060000D03*
G04 #@! TO.P,I1,15*
G04 #@! TO.N,COL_A1*
X160020000Y-128020000D03*
G04 #@! TO.P,I1,13*
G04 #@! TO.N,COL_DATA*
X162560000Y-128020000D03*
G04 #@! TO.P,I1,14*
G04 #@! TO.N,COL_A2*
X162560000Y-131060000D03*
G04 #@! TO.P,I1,12*
G04 #@! TO.N,COL_B0*
X165100000Y-131060000D03*
G04 #@! TO.P,I1,11*
G04 #@! TO.N,COL_B1*
X165100000Y-128020000D03*
G04 #@! TO.P,I1,9*
G04 #@! TO.N,Net-(I1-Pad9)*
X167640000Y-128020000D03*
G04 #@! TO.P,I1,10*
G04 #@! TO.N,COL_ENABLE_mR*
X167640000Y-131060000D03*
G04 #@! TO.P,I1,8*
G04 #@! TO.N,Net-(I1-Pad8)*
X170180000Y-131060000D03*
G04 #@! TO.P,I1,7*
G04 #@! TO.N,COL_ENABLE_oR*
X170180000Y-128020000D03*
D19*
G04 #@! TO.P,I1,1*
G04 #@! TO.N,+24V*
X177800000Y-128020000D03*
D18*
G04 #@! TO.P,I1,2*
X177800000Y-131060000D03*
G04 #@! TO.P,I1,3*
G04 #@! TO.N,GND*
X175260000Y-128020000D03*
G04 #@! TO.P,I1,4*
X175260000Y-131060000D03*
G04 #@! TO.P,I1,5*
G04 #@! TO.N,+5V*
X172720000Y-128020000D03*
G04 #@! TO.P,I1,6*
X172720000Y-131060000D03*
G04 #@! TD*
D20*
G04 #@! TO.P,MTH4,1*
G04 #@! TO.N,GND*
X109220000Y-120650000D03*
G04 #@! TD*
G04 #@! TO.P,MTH2,1*
G04 #@! TO.N,GND*
X185420000Y-102870000D03*
G04 #@! TD*
G04 #@! TO.P,MTH3,1*
G04 #@! TO.N,GND*
X185420000Y-120650000D03*
G04 #@! TD*
G04 #@! TO.P,MTH1,1*
G04 #@! TO.N,GND*
X109220000Y-102870000D03*
G04 #@! TD*
D21*
G04 #@! TO.P,PWR1,1*
G04 #@! TO.N,VIN*
X114300000Y-98402140D03*
G04 #@! TO.P,PWR1,2*
G04 #@! TO.N,GND*
X114300000Y-92402660D03*
G04 #@! TO.P,PWR1,3*
X109601000Y-95402400D03*
G04 #@! TD*
D11*
G04 #@! TO.P,C1,1*
G04 #@! TO.N,ROW_ENABLE*
X149860000Y-97790000D03*
G04 #@! TO.P,C1,2*
G04 #@! TO.N,Net-(C1-Pad2)*
X152360000Y-97790000D03*
G04 #@! TD*
G04 #@! TO.P,C2,2*
G04 #@! TO.N,GND*
X175260000Y-99100000D03*
D22*
G04 #@! TO.P,C2,1*
G04 #@! TO.N,+24V*
X175260000Y-101600000D03*
G04 #@! TD*
D11*
G04 #@! TO.P,C3,2*
G04 #@! TO.N,GND*
X159980000Y-122936000D03*
G04 #@! TO.P,C3,1*
G04 #@! TO.N,+5V*
X157480000Y-122936000D03*
G04 #@! TD*
D23*
G04 #@! TO.P,I2,18*
G04 #@! TO.N,COL_B1*
X185420000Y-94043500D03*
G04 #@! TO.P,I2,17*
G04 #@! TO.N,COL_B0*
X182880000Y-94043500D03*
G04 #@! TO.P,I2,16*
G04 #@! TO.N,COL_A2*
X180340000Y-94043500D03*
G04 #@! TO.P,I2,15*
G04 #@! TO.N,COL_A1*
X177800000Y-94043500D03*
G04 #@! TO.P,I2,14*
G04 #@! TO.N,COL_A0*
X175260000Y-94043500D03*
G04 #@! TO.P,I2,13*
G04 #@! TO.N,COL_DATA*
X172720000Y-94043500D03*
G04 #@! TO.P,I2,12*
G04 #@! TO.N,COL_ENABLE_oR*
X170180000Y-94043500D03*
G04 #@! TO.P,I2,11*
G04 #@! TO.N,COL_ENABLE_mR*
X167640000Y-94043500D03*
G04 #@! TO.P,I2,10*
G04 #@! TO.N,ROW_B1*
X165100000Y-94043500D03*
G04 #@! TO.P,I2,9*
G04 #@! TO.N,ROW_B0*
X162560000Y-94043500D03*
G04 #@! TO.P,I2,8*
G04 #@! TO.N,ROW_A2*
X160020000Y-94043500D03*
G04 #@! TO.P,I2,7*
G04 #@! TO.N,ROW_A1*
X157480000Y-94043500D03*
G04 #@! TO.P,I2,6*
G04 #@! TO.N,ROW_A0*
X154940000Y-94043500D03*
G04 #@! TO.P,I2,5*
G04 #@! TO.N,ROW_DATA*
X152400000Y-94043500D03*
G04 #@! TO.P,I2,4*
G04 #@! TO.N,ROW_ENABLE*
X149860000Y-94043500D03*
G04 #@! TO.P,I2,3*
G04 #@! TO.N,VIN*
X147320000Y-94043500D03*
G04 #@! TO.P,I2,2*
G04 #@! TO.N,+5V*
X144780000Y-94043500D03*
D24*
G04 #@! TO.P,I2,1*
G04 #@! TO.N,GND*
X142240000Y-94043500D03*
G04 #@! TD*
D25*
G04 #@! TO.P,LED1,2*
G04 #@! TO.N,Net-(LED1-Pad2)*
X138176000Y-93980000D03*
D26*
G04 #@! TO.P,LED1,1*
G04 #@! TO.N,GND*
X135636000Y-93980000D03*
G04 #@! TD*
D12*
G04 #@! TO.P,R1,2*
G04 #@! TO.N,GND*
X162560000Y-97790000D03*
D11*
G04 #@! TO.P,R1,1*
G04 #@! TO.N,Net-(C1-Pad2)*
X154940000Y-97790000D03*
G04 #@! TD*
D27*
G04 #@! TO.P,U1,3*
G04 #@! TO.N,+5V*
X172720000Y-107039000D03*
G04 #@! TO.P,U1,2*
G04 #@! TO.N,GND*
X175260000Y-107039000D03*
D28*
G04 #@! TO.P,U1,1*
G04 #@! TO.N,+24V*
X177800000Y-107039000D03*
G04 #@! TD*
D29*
G04 #@! TO.N,GND*
X160020000Y-106934000D03*
X157480000Y-106934000D03*
X152400000Y-106934000D03*
X175260000Y-125222000D03*
X138430000Y-122047000D03*
X134620000Y-125984000D03*
X134620000Y-121602500D03*
X138430000Y-125984000D03*
X143383000Y-133223000D03*
X124460000Y-123952000D03*
X165100000Y-97790000D03*
X160020000Y-116586000D03*
X139700000Y-106934000D03*
X121920000Y-122047000D03*
X164719000Y-116586000D03*
X164719000Y-106934000D03*
X167640000Y-104140000D03*
X116840000Y-116332000D03*
X152400000Y-116586000D03*
X143510000Y-106934000D03*
X146050000Y-106934000D03*
X148590000Y-106934000D03*
X175260000Y-104140000D03*
X127000000Y-111760000D03*
X121920000Y-111760000D03*
X116840000Y-106934000D03*
X167640000Y-116586000D03*
X175260000Y-116586000D03*
X148590000Y-95885000D03*
X153670000Y-95885000D03*
X167640000Y-97790000D03*
D30*
G04 #@! TO.N,+5V*
X171831000Y-100249990D03*
D29*
G04 #@! TO.N,RESET_X*
X118110000Y-122555010D03*
X141224000Y-112014000D03*
X118872000Y-116586000D03*
G04 #@! TD*
D31*
G04 #@! TO.N,GND*
X157480000Y-128270000D02*
X157480000Y-130810000D01*
X175260000Y-130810000D02*
X175260000Y-128270000D01*
X175260000Y-130810000D02*
X175260000Y-132842000D01*
X175260000Y-128270000D02*
X175260000Y-126492000D01*
X157480000Y-128270000D02*
X157480000Y-126746000D01*
X157480000Y-130810000D02*
X157480000Y-132334000D01*
X129540000Y-119380000D02*
X129540000Y-117729000D01*
X129540000Y-119380000D02*
X129540000Y-120904000D01*
X152400000Y-104140000D02*
X152400000Y-105664000D01*
G04 #@! TO.N,+24V*
X177800000Y-128270000D02*
X177800000Y-130810000D01*
X177800000Y-104394000D02*
X175006000Y-101600000D01*
X127000000Y-104140000D02*
X127000000Y-103638000D01*
X124962000Y-101600000D02*
X120500000Y-97138000D01*
X127000000Y-103638000D02*
X124962000Y-101600000D01*
X175260000Y-101600000D02*
X171293498Y-101600000D01*
X171293498Y-101600000D02*
X124962000Y-101600000D01*
X177800000Y-104394000D02*
X177800000Y-107039000D01*
G04 #@! TO.N,+5V*
X172720000Y-128270000D02*
X172720000Y-130810000D01*
X154940000Y-120396000D02*
X157480000Y-122936000D01*
X154940000Y-119380000D02*
X154940000Y-120396000D01*
X154940000Y-119030750D02*
X166931750Y-107039000D01*
X166931750Y-107039000D02*
X172720000Y-107039000D01*
X154940000Y-119380000D02*
X154940000Y-119030750D01*
X171053183Y-100249990D02*
X171831000Y-100249990D01*
X148954490Y-100249990D02*
X171053183Y-100249990D01*
X144780000Y-94043500D02*
X144780000Y-96075500D01*
X146240500Y-97599500D02*
X146304000Y-97599500D01*
X144780000Y-99060000D02*
X146240500Y-97599500D01*
X146304000Y-97599500D02*
X148954490Y-100249990D01*
X144780000Y-96075500D02*
X146304000Y-97599500D01*
D32*
G04 #@! TO.N,SET_11*
X130740010Y-128767060D02*
X129897080Y-129609990D01*
X130740010Y-127272940D02*
X130740010Y-128767060D01*
X142237574Y-112255300D02*
X135902700Y-118590174D01*
X135902700Y-118590174D02*
X135902700Y-122110250D01*
X128962010Y-129609990D02*
X127762000Y-130810000D01*
X142240000Y-104140000D02*
X142240000Y-112255300D01*
X135902700Y-122110250D02*
X130740010Y-127272940D01*
X127762000Y-130810000D02*
X127000000Y-130810000D01*
X142240000Y-112255300D02*
X142237574Y-112255300D01*
X129897080Y-129609990D02*
X128962010Y-129609990D01*
G04 #@! TO.N,SET_12*
X125660010Y-129609990D02*
X124460000Y-130810000D01*
X125660010Y-127412920D02*
X125660010Y-129609990D01*
X133280580Y-116147420D02*
X133280580Y-121481420D01*
X129794000Y-124968000D02*
X128104930Y-124968000D01*
X133280580Y-121481420D02*
X129794000Y-124968000D01*
X137160000Y-112268000D02*
X133280580Y-116147420D01*
X128104930Y-124968000D02*
X125660010Y-127412920D01*
X137160000Y-104140000D02*
X137160000Y-112268000D01*
G04 #@! TO.N,RESET_12*
X132080000Y-119380000D02*
X132080000Y-119729250D01*
X124460000Y-127349250D02*
X124460000Y-128270000D01*
X124460000Y-127622968D02*
X127876968Y-124206000D01*
X124460000Y-128270000D02*
X124460000Y-127622968D01*
X127876968Y-124206000D02*
X129540000Y-124206000D01*
X132080000Y-121666000D02*
X132080000Y-119380000D01*
X129540000Y-124206000D02*
X132080000Y-121666000D01*
G04 #@! TO.N,SET_9*
X132842000Y-130810000D02*
X132080000Y-130810000D01*
X134042010Y-129609990D02*
X132842000Y-130810000D01*
X135959990Y-128627080D02*
X134977080Y-129609990D01*
X135959990Y-126930010D02*
X135959990Y-128627080D01*
X147320000Y-112252874D02*
X140957300Y-118615574D01*
X140957300Y-118615574D02*
X140957300Y-121932700D01*
X140957300Y-121932700D02*
X135959990Y-126930010D01*
X134977080Y-129609990D02*
X134042010Y-129609990D01*
X147320000Y-104140000D02*
X147320000Y-112252874D01*
G04 #@! TO.N,RESET_10*
X129540000Y-127349250D02*
X129540000Y-128270000D01*
X121920000Y-119380000D02*
X121920000Y-119729250D01*
G04 #@! TO.N,SET_10*
X144780000Y-112255300D02*
X144780000Y-104140000D01*
X139202704Y-117830170D02*
X139205130Y-117830170D01*
X138499420Y-118535880D02*
X138499420Y-118533454D01*
X138430000Y-118605300D02*
X138499420Y-118535880D01*
X138430000Y-120572914D02*
X138430000Y-118605300D01*
X133419990Y-125582924D02*
X138430000Y-120572914D01*
X133419990Y-128767060D02*
X133419990Y-125582924D01*
X132717040Y-129470010D02*
X133419990Y-128767060D01*
X131641990Y-129470010D02*
X132717040Y-129470010D01*
X130302000Y-130810000D02*
X131641990Y-129470010D01*
X138499420Y-118533454D02*
X139202704Y-117830170D01*
X139205130Y-117830170D02*
X144780000Y-112255300D01*
X129540000Y-130810000D02*
X130302000Y-130810000D01*
G04 #@! TO.N,SET_8*
X143484600Y-121665362D02*
X143484600Y-118628274D01*
X141039990Y-128627080D02*
X141039990Y-124109972D01*
X140197060Y-129470010D02*
X141039990Y-128627080D01*
X149860000Y-105739820D02*
X149860000Y-104140000D01*
X141039990Y-124109972D02*
X143484600Y-121665362D01*
X136721990Y-129470010D02*
X140197060Y-129470010D01*
X135382000Y-130810000D02*
X136721990Y-129470010D01*
X149860000Y-112252874D02*
X149860000Y-105739820D01*
X143484600Y-118628274D02*
X149860000Y-112252874D01*
X134620000Y-130810000D02*
X135382000Y-130810000D01*
G04 #@! TO.N,SET_7*
X123962940Y-132510010D02*
X135459990Y-132510010D01*
X135459990Y-132510010D02*
X137160000Y-130810000D01*
X123259420Y-131806490D02*
X123962940Y-132510010D01*
X123259420Y-112960580D02*
X123259420Y-131806490D01*
X132080000Y-104140000D02*
X123259420Y-112960580D01*
G04 #@! TO.N,RESET_6*
X139700000Y-124460000D02*
X139700000Y-128270000D01*
X142240000Y-121920000D02*
X139700000Y-124460000D01*
X142240000Y-119380000D02*
X142240000Y-121920000D01*
G04 #@! TO.N,SET_4*
X114300000Y-106680000D02*
X114300000Y-105739820D01*
X120580580Y-112960580D02*
X114300000Y-106680000D01*
X114300000Y-105739820D02*
X114300000Y-104140000D01*
X144437070Y-130810000D02*
X142037050Y-133210020D01*
X120580580Y-131667650D02*
X120580580Y-112960580D01*
X122122950Y-133210020D02*
X120580580Y-131667650D01*
X142037050Y-133210020D02*
X122122950Y-133210020D01*
X144780000Y-130810000D02*
X144437070Y-130810000D01*
G04 #@! TO.N,RESET_4*
X144780000Y-119380000D02*
X144780000Y-128270000D01*
G04 #@! TO.N,RESET_3*
X147320000Y-119380000D02*
X147320000Y-128270000D01*
G04 #@! TO.N,RESET_2*
X149860000Y-119380000D02*
X149860000Y-128270000D01*
G04 #@! TO.N,RESET_1*
X152400000Y-119380000D02*
X152400000Y-128270000D01*
D33*
G04 #@! TO.N,COL_A1*
X179809967Y-107972033D02*
X160020000Y-127762000D01*
X179809967Y-95989967D02*
X179809967Y-107972033D01*
X177863500Y-94043500D02*
X179809967Y-95989967D01*
X160020000Y-127762000D02*
X160020000Y-128270000D01*
X177800000Y-94043500D02*
X177863500Y-94043500D01*
G04 #@! TO.N,COL_A2*
X162560000Y-130810000D02*
X161290000Y-129540000D01*
X161290000Y-129540000D02*
X161290000Y-127340542D01*
X161290000Y-127340542D02*
X180409978Y-108220564D01*
X180409978Y-108220564D02*
X180409978Y-94049978D01*
X180409978Y-94049978D02*
X180340000Y-93980000D01*
G04 #@! TO.N,COL_B1*
X165100000Y-125227626D02*
X165100000Y-128270000D01*
X181610000Y-97790000D02*
X181610000Y-108717627D01*
X181610000Y-108717627D02*
X165100000Y-125227626D01*
X185420000Y-93980000D02*
X181610000Y-97790000D01*
G04 #@! TO.N,COL_B0*
X182880000Y-94234000D02*
X182880000Y-93980000D01*
X181009989Y-96104011D02*
X182880000Y-94234000D01*
X181009989Y-108469095D02*
X181009989Y-96104011D01*
X163830000Y-129540000D02*
X163830000Y-125649084D01*
X163830000Y-125649084D02*
X181009989Y-108469095D01*
X165100000Y-130810000D02*
X163830000Y-129540000D01*
D31*
G04 #@! TO.N,Net-(LED1-Pad2)*
X138176000Y-98044000D02*
X138176000Y-93980000D01*
X137160000Y-99060000D02*
X138176000Y-98044000D01*
G04 #@! TO.N,VIN*
X114300000Y-98402100D02*
X114698000Y-98402100D01*
X114698000Y-98402100D02*
X114952000Y-98402100D01*
X114300000Y-98402100D02*
X114698000Y-98402100D01*
X114300000Y-98402100D02*
X114300000Y-98038000D01*
X114300000Y-98038000D02*
X120500000Y-91838000D01*
X147320000Y-93980000D02*
X147320000Y-92964000D01*
X147320000Y-92964000D02*
X146194000Y-91838000D01*
X146194000Y-91838000D02*
X120500000Y-91838000D01*
D32*
G04 #@! TO.N,RESET_X*
X134620000Y-118630700D02*
X134620000Y-119380000D01*
X141224000Y-112026700D02*
X134620000Y-118630700D01*
X141224000Y-112014000D02*
X141224000Y-112026700D01*
X118572001Y-116885999D02*
X118872000Y-116586000D01*
X118110000Y-117348000D02*
X118572001Y-116885999D01*
X118110000Y-122555010D02*
X118110000Y-117348000D01*
G04 #@! TD*
D34*
G04 #@! TO.N,GND*
G36*
X188156466Y-88868209D02*
X188329238Y-88967959D01*
X188457474Y-89120785D01*
X188536173Y-89337009D01*
X188545001Y-89437914D01*
X188545000Y-127776506D01*
X188047937Y-127318633D01*
X187082503Y-126964378D01*
X186314361Y-126995901D01*
X182903555Y-127821061D01*
X182205947Y-128144140D01*
X181509204Y-128900518D01*
X181154949Y-129865952D01*
X181197116Y-130893463D01*
X181629285Y-131826624D01*
X182385663Y-132523367D01*
X183351097Y-132877622D01*
X184119238Y-132846099D01*
X187530045Y-132020939D01*
X188227653Y-131697860D01*
X188545000Y-131353351D01*
X188545000Y-134941072D01*
X188499791Y-135197466D01*
X188400041Y-135370238D01*
X188247215Y-135498474D01*
X188030992Y-135577173D01*
X187930097Y-135586000D01*
X106739927Y-135586000D01*
X106483534Y-135540791D01*
X106310762Y-135441041D01*
X106182526Y-135288215D01*
X106103827Y-135071992D01*
X106095000Y-134971097D01*
X106095000Y-131353351D01*
X106412347Y-131697860D01*
X107109955Y-132020939D01*
X110520761Y-132846099D01*
X111288903Y-132877622D01*
X112254337Y-132523367D01*
X113010715Y-131826624D01*
X113442884Y-130893463D01*
X113485051Y-129865951D01*
X113130796Y-128900518D01*
X112434053Y-128144140D01*
X111736445Y-127821061D01*
X108325638Y-126995901D01*
X107557497Y-126964378D01*
X106592063Y-127318633D01*
X106095000Y-127776506D01*
X106095000Y-95688150D01*
X107215940Y-95688150D01*
X107215940Y-97278769D01*
X107312613Y-97512158D01*
X107491241Y-97690787D01*
X107724630Y-97787460D01*
X109315250Y-97787460D01*
X109474000Y-97628710D01*
X109474000Y-95529400D01*
X109728000Y-95529400D01*
X109728000Y-97628710D01*
X109886750Y-97787460D01*
X111477370Y-97787460D01*
X111710759Y-97690787D01*
X111889387Y-97512158D01*
X111902500Y-97480500D01*
X111902500Y-100152200D01*
X111951783Y-100399965D01*
X112092131Y-100610009D01*
X112302175Y-100750357D01*
X112549940Y-100799640D01*
X116050060Y-100799640D01*
X116297825Y-100750357D01*
X116507869Y-100610009D01*
X116648217Y-100399965D01*
X116697500Y-100152200D01*
X116697500Y-97245631D01*
X119677381Y-94265750D01*
X134101000Y-94265750D01*
X134101000Y-95006310D01*
X134197673Y-95239699D01*
X134376302Y-95418327D01*
X134609691Y-95515000D01*
X135350250Y-95515000D01*
X135509000Y-95356250D01*
X135509000Y-94107000D01*
X134259750Y-94107000D01*
X134101000Y-94265750D01*
X119677381Y-94265750D01*
X120457692Y-93485440D01*
X121500000Y-93485440D01*
X121747765Y-93436157D01*
X121957809Y-93295809D01*
X122098157Y-93085765D01*
X122120587Y-92973000D01*
X134101000Y-92973000D01*
X134101000Y-93694250D01*
X134259750Y-93853000D01*
X135509000Y-93853000D01*
X135509000Y-93833000D01*
X135763000Y-93833000D01*
X135763000Y-93853000D01*
X135783000Y-93853000D01*
X135783000Y-94107000D01*
X135763000Y-94107000D01*
X135763000Y-95356250D01*
X135921750Y-95515000D01*
X136662309Y-95515000D01*
X136895698Y-95418327D01*
X137041001Y-95273025D01*
X137041000Y-97573868D01*
X136982718Y-97632151D01*
X136600091Y-97708260D01*
X136125423Y-98025423D01*
X135808260Y-98500091D01*
X135696887Y-99060000D01*
X135808260Y-99619909D01*
X136125423Y-100094577D01*
X136600091Y-100411740D01*
X136867847Y-100465000D01*
X125432132Y-100465000D01*
X122135000Y-97167869D01*
X122135000Y-96812778D01*
X121886086Y-96211847D01*
X121426153Y-95751914D01*
X120825222Y-95503000D01*
X120174778Y-95503000D01*
X119573847Y-95751914D01*
X119113914Y-96211847D01*
X118865000Y-96812778D01*
X118865000Y-97463222D01*
X119113914Y-98064153D01*
X119573847Y-98524086D01*
X120174778Y-98773000D01*
X120529869Y-98773000D01*
X124080389Y-102323521D01*
X124143711Y-102418289D01*
X124169845Y-102435751D01*
X123919378Y-102485572D01*
X123461060Y-102791811D01*
X123190000Y-103197481D01*
X122918939Y-102791810D01*
X122460621Y-102485572D01*
X121920000Y-102378036D01*
X121379378Y-102485572D01*
X120921060Y-102791811D01*
X120650000Y-103197481D01*
X120378939Y-102791810D01*
X119920621Y-102485572D01*
X119380000Y-102378036D01*
X118839378Y-102485572D01*
X118381060Y-102791811D01*
X118110000Y-103197481D01*
X117838939Y-102791810D01*
X117380621Y-102485572D01*
X116840000Y-102378036D01*
X116299378Y-102485572D01*
X115841060Y-102791811D01*
X115570000Y-103197481D01*
X115298939Y-102791810D01*
X114840621Y-102485572D01*
X114300000Y-102378036D01*
X113759378Y-102485572D01*
X113301060Y-102791811D01*
X112994822Y-103250129D01*
X112914430Y-103654288D01*
X112914430Y-104625713D01*
X112994822Y-105029872D01*
X113301061Y-105488190D01*
X113415000Y-105564322D01*
X113415000Y-105826984D01*
X113415001Y-105826988D01*
X113415000Y-106592839D01*
X113397663Y-106680000D01*
X113415000Y-106767161D01*
X113415000Y-106767164D01*
X113466348Y-107025309D01*
X113661951Y-107318049D01*
X113735847Y-107367425D01*
X119695581Y-113327160D01*
X119695581Y-116131027D01*
X119664655Y-116056365D01*
X119401635Y-115793345D01*
X119057983Y-115651000D01*
X118686017Y-115651000D01*
X118342365Y-115793345D01*
X118079345Y-116056365D01*
X118029344Y-116177078D01*
X117545845Y-116660577D01*
X117471952Y-116709951D01*
X117422578Y-116783844D01*
X117422576Y-116783846D01*
X117276348Y-117002691D01*
X117207663Y-117348000D01*
X117225001Y-117435165D01*
X117225001Y-117694617D01*
X116840000Y-117618036D01*
X116299378Y-117725572D01*
X115841060Y-118031811D01*
X115570000Y-118437481D01*
X115298939Y-118031810D01*
X114840621Y-117725572D01*
X114300000Y-117618036D01*
X113759378Y-117725572D01*
X113301060Y-118031811D01*
X112994822Y-118490129D01*
X112914430Y-118894288D01*
X112914430Y-119865713D01*
X112994822Y-120269872D01*
X113301061Y-120728190D01*
X113759379Y-121034428D01*
X114300000Y-121141964D01*
X114840622Y-121034428D01*
X115298940Y-120728190D01*
X115570000Y-120322520D01*
X115841061Y-120728190D01*
X116299379Y-121034428D01*
X116840000Y-121141964D01*
X117225000Y-121065383D01*
X117225000Y-122248316D01*
X117175000Y-122369027D01*
X117175000Y-122740993D01*
X117317345Y-123084645D01*
X117580365Y-123347665D01*
X117924017Y-123490010D01*
X118295983Y-123490010D01*
X118639635Y-123347665D01*
X118902655Y-123084645D01*
X119045000Y-122740993D01*
X119045000Y-122369027D01*
X118995000Y-122248316D01*
X118995000Y-121065383D01*
X119380000Y-121141964D01*
X119695581Y-121079191D01*
X119695580Y-126420640D01*
X119380000Y-126357867D01*
X118839601Y-126465359D01*
X118381472Y-126771471D01*
X118110000Y-127177757D01*
X117838529Y-126771471D01*
X117380400Y-126465359D01*
X116840000Y-126357867D01*
X116299601Y-126465359D01*
X115841472Y-126771471D01*
X115535359Y-127229600D01*
X115455000Y-127633593D01*
X115455000Y-128406406D01*
X115535359Y-128810399D01*
X115841471Y-129268528D01*
X116247757Y-129540000D01*
X115841472Y-129811471D01*
X115535359Y-130269600D01*
X115455000Y-130673593D01*
X115455000Y-131446406D01*
X115535359Y-131850399D01*
X115841471Y-132308528D01*
X116299600Y-132614641D01*
X116840000Y-132722133D01*
X117380399Y-132614641D01*
X117838528Y-132308529D01*
X118110000Y-131902243D01*
X118381471Y-132308528D01*
X118839600Y-132614641D01*
X119380000Y-132722133D01*
X119920399Y-132614641D01*
X120133562Y-132472210D01*
X121435527Y-133774176D01*
X121484901Y-133848069D01*
X121558794Y-133897443D01*
X121558795Y-133897444D01*
X121777640Y-134043672D01*
X122035785Y-134095020D01*
X122035789Y-134095020D01*
X122122950Y-134112357D01*
X122210111Y-134095020D01*
X141949889Y-134095020D01*
X142037050Y-134112357D01*
X142124211Y-134095020D01*
X142124215Y-134095020D01*
X142382360Y-134043672D01*
X142675099Y-133848069D01*
X142724475Y-133774173D01*
X144026438Y-132472210D01*
X144239600Y-132614641D01*
X144780000Y-132722133D01*
X145320399Y-132614641D01*
X145778528Y-132308529D01*
X146050000Y-131902243D01*
X146321471Y-132308528D01*
X146779600Y-132614641D01*
X147320000Y-132722133D01*
X147860399Y-132614641D01*
X148318528Y-132308529D01*
X148590000Y-131902243D01*
X148861471Y-132308528D01*
X149319600Y-132614641D01*
X149860000Y-132722133D01*
X150400399Y-132614641D01*
X150858528Y-132308529D01*
X151130000Y-131902243D01*
X151401471Y-132308528D01*
X151859600Y-132614641D01*
X152400000Y-132722133D01*
X152940399Y-132614641D01*
X153398528Y-132308529D01*
X153670000Y-131902243D01*
X153941471Y-132308528D01*
X154399600Y-132614641D01*
X154940000Y-132722133D01*
X155480399Y-132614641D01*
X155938528Y-132308529D01*
X156218553Y-131889443D01*
X156230036Y-131931721D01*
X156563106Y-132362736D01*
X157035765Y-132633481D01*
X157138815Y-132652318D01*
X157353000Y-132529656D01*
X157353000Y-131187000D01*
X157333000Y-131187000D01*
X157333000Y-130933000D01*
X157353000Y-130933000D01*
X157353000Y-129590344D01*
X157265092Y-129540000D01*
X157353000Y-129489656D01*
X157353000Y-128147000D01*
X157333000Y-128147000D01*
X157333000Y-127893000D01*
X157353000Y-127893000D01*
X157353000Y-126550344D01*
X157138815Y-126427682D01*
X157035765Y-126446519D01*
X156563106Y-126717264D01*
X156230036Y-127148279D01*
X156218553Y-127190557D01*
X155938529Y-126771471D01*
X155480400Y-126465359D01*
X154940000Y-126357867D01*
X154399601Y-126465359D01*
X153941472Y-126771471D01*
X153670000Y-127177757D01*
X153398529Y-126771471D01*
X153285000Y-126695613D01*
X153285000Y-120804322D01*
X153398940Y-120728190D01*
X153670000Y-120322520D01*
X153809752Y-120531672D01*
X153870854Y-120838855D01*
X154121712Y-121214289D01*
X154216480Y-121277611D01*
X156045000Y-123106132D01*
X156045000Y-123221439D01*
X156263466Y-123748862D01*
X156667138Y-124152534D01*
X157194561Y-124371000D01*
X157765439Y-124371000D01*
X158292862Y-124152534D01*
X158501651Y-123943745D01*
X159151861Y-123943745D01*
X159225995Y-124189864D01*
X159763223Y-124382965D01*
X160333454Y-124355778D01*
X160734005Y-124189864D01*
X160808139Y-123943745D01*
X159980000Y-123115605D01*
X159151861Y-123943745D01*
X158501651Y-123943745D01*
X158696534Y-123748862D01*
X158723525Y-123683701D01*
X158726136Y-123690005D01*
X158972255Y-123764139D01*
X159800395Y-122936000D01*
X160159605Y-122936000D01*
X160987745Y-123764139D01*
X161233864Y-123690005D01*
X161426965Y-123152777D01*
X161399778Y-122582546D01*
X161233864Y-122181995D01*
X160987745Y-122107861D01*
X160159605Y-122936000D01*
X159800395Y-122936000D01*
X158972255Y-122107861D01*
X158726136Y-122181995D01*
X158723710Y-122188746D01*
X158696534Y-122123138D01*
X158501651Y-121928255D01*
X159151861Y-121928255D01*
X159980000Y-122756395D01*
X160808139Y-121928255D01*
X160734005Y-121682136D01*
X160196777Y-121489035D01*
X159626546Y-121516222D01*
X159225995Y-121682136D01*
X159151861Y-121928255D01*
X158501651Y-121928255D01*
X158292862Y-121719466D01*
X157765439Y-121501000D01*
X157650132Y-121501000D01*
X157244190Y-121095059D01*
X157480000Y-121141964D01*
X158020622Y-121034428D01*
X158478940Y-120728190D01*
X158750000Y-120322520D01*
X159021061Y-120728190D01*
X159479379Y-121034428D01*
X160020000Y-121141964D01*
X160560622Y-121034428D01*
X161018940Y-120728190D01*
X161290000Y-120322520D01*
X161561061Y-120728190D01*
X162019379Y-121034428D01*
X162560000Y-121141964D01*
X163100622Y-121034428D01*
X163558940Y-120728190D01*
X163865178Y-120269872D01*
X163945570Y-119865712D01*
X163945570Y-118894287D01*
X163865178Y-118490128D01*
X163558939Y-118031810D01*
X163100621Y-117725572D01*
X162560000Y-117618036D01*
X162019378Y-117725572D01*
X161561060Y-118031811D01*
X161290000Y-118437481D01*
X161018939Y-118031810D01*
X160560621Y-117725572D01*
X160020000Y-117618036D01*
X159479378Y-117725572D01*
X159021060Y-118031811D01*
X158750000Y-118437481D01*
X158478939Y-118031810D01*
X158020621Y-117725572D01*
X157878566Y-117697316D01*
X167401883Y-108174000D01*
X171478569Y-108174000D01*
X171721471Y-108537528D01*
X172179600Y-108843641D01*
X172720000Y-108951133D01*
X173260399Y-108843641D01*
X173718528Y-108537529D01*
X174005742Y-108107684D01*
X174029028Y-108186349D01*
X174370460Y-108608145D01*
X174847316Y-108867173D01*
X174918815Y-108881318D01*
X175133000Y-108758656D01*
X175133000Y-107166000D01*
X175113000Y-107166000D01*
X175113000Y-106912000D01*
X175133000Y-106912000D01*
X175133000Y-105319344D01*
X174918815Y-105196682D01*
X174847316Y-105210827D01*
X174370460Y-105469855D01*
X174029028Y-105891651D01*
X174005742Y-105970316D01*
X173718529Y-105540471D01*
X173260400Y-105234359D01*
X172720000Y-105126867D01*
X172179601Y-105234359D01*
X171721472Y-105540471D01*
X171478569Y-105904000D01*
X167043531Y-105904000D01*
X166931749Y-105881765D01*
X166819967Y-105904000D01*
X166488895Y-105969854D01*
X166113461Y-106220711D01*
X166050141Y-106315476D01*
X154699805Y-117665813D01*
X154399378Y-117725572D01*
X153941060Y-118031811D01*
X153670000Y-118437481D01*
X153398939Y-118031810D01*
X152940621Y-117725572D01*
X152400000Y-117618036D01*
X151859378Y-117725572D01*
X151401060Y-118031811D01*
X151130000Y-118437481D01*
X150858939Y-118031810D01*
X150400621Y-117725572D01*
X149860000Y-117618036D01*
X149319378Y-117725572D01*
X148861060Y-118031811D01*
X148590000Y-118437481D01*
X148318939Y-118031810D01*
X147860621Y-117725572D01*
X147320000Y-117618036D01*
X146779378Y-117725572D01*
X146321060Y-118031811D01*
X146050000Y-118437481D01*
X145778939Y-118031810D01*
X145511404Y-117853049D01*
X150424156Y-112940296D01*
X150498049Y-112890923D01*
X150554356Y-112806655D01*
X150649174Y-112664749D01*
X150693652Y-112598184D01*
X150745000Y-112340039D01*
X150745000Y-112340035D01*
X150762337Y-112252875D01*
X150745000Y-112165715D01*
X150745000Y-105564322D01*
X150858940Y-105488190D01*
X151145545Y-105059255D01*
X151168501Y-105136817D01*
X151510056Y-105558798D01*
X151987097Y-105817950D01*
X152058725Y-105832133D01*
X152273000Y-105709479D01*
X152273000Y-104267000D01*
X152253000Y-104267000D01*
X152253000Y-104013000D01*
X152273000Y-104013000D01*
X152273000Y-103993000D01*
X152527000Y-103993000D01*
X152527000Y-104013000D01*
X152547000Y-104013000D01*
X152547000Y-104267000D01*
X152527000Y-104267000D01*
X152527000Y-105709479D01*
X152741275Y-105832133D01*
X152812903Y-105817950D01*
X153289944Y-105558798D01*
X153631499Y-105136817D01*
X153654455Y-105059255D01*
X153941061Y-105488190D01*
X154399379Y-105794428D01*
X154940000Y-105901964D01*
X155480622Y-105794428D01*
X155938940Y-105488190D01*
X156210000Y-105082520D01*
X156481061Y-105488190D01*
X156939379Y-105794428D01*
X157480000Y-105901964D01*
X158020622Y-105794428D01*
X158478940Y-105488190D01*
X158750000Y-105082520D01*
X159021061Y-105488190D01*
X159479379Y-105794428D01*
X160020000Y-105901964D01*
X160560622Y-105794428D01*
X161018940Y-105488190D01*
X161290000Y-105082520D01*
X161561061Y-105488190D01*
X162019379Y-105794428D01*
X162560000Y-105901964D01*
X163100622Y-105794428D01*
X163558940Y-105488190D01*
X163865178Y-105029872D01*
X163945570Y-104625712D01*
X163945570Y-103654287D01*
X163865178Y-103250128D01*
X163558939Y-102791810D01*
X163473917Y-102735000D01*
X173920132Y-102735000D01*
X174002191Y-102857809D01*
X174212235Y-102998157D01*
X174460000Y-103047440D01*
X174848309Y-103047440D01*
X176665000Y-104864132D01*
X176665000Y-105282541D01*
X176592191Y-105331191D01*
X176451843Y-105541235D01*
X176403609Y-105783725D01*
X176149540Y-105469855D01*
X175672684Y-105210827D01*
X175601185Y-105196682D01*
X175387000Y-105319344D01*
X175387000Y-106912000D01*
X175407000Y-106912000D01*
X175407000Y-107166000D01*
X175387000Y-107166000D01*
X175387000Y-108758656D01*
X175601185Y-108881318D01*
X175672684Y-108867173D01*
X176149540Y-108608145D01*
X176403609Y-108294275D01*
X176451843Y-108536765D01*
X176592191Y-108746809D01*
X176802235Y-108887157D01*
X177050000Y-108936440D01*
X177664692Y-108936440D01*
X160206224Y-126394909D01*
X160020000Y-126357867D01*
X159479601Y-126465359D01*
X159021472Y-126771471D01*
X158741447Y-127190557D01*
X158729964Y-127148279D01*
X158396894Y-126717264D01*
X157924235Y-126446519D01*
X157821185Y-126427682D01*
X157607000Y-126550344D01*
X157607000Y-127893000D01*
X157627000Y-127893000D01*
X157627000Y-128147000D01*
X157607000Y-128147000D01*
X157607000Y-129489656D01*
X157694908Y-129540000D01*
X157607000Y-129590344D01*
X157607000Y-130933000D01*
X157627000Y-130933000D01*
X157627000Y-131187000D01*
X157607000Y-131187000D01*
X157607000Y-132529656D01*
X157821185Y-132652318D01*
X157924235Y-132633481D01*
X158396894Y-132362736D01*
X158729964Y-131931721D01*
X158741447Y-131889443D01*
X159021471Y-132308528D01*
X159479600Y-132614641D01*
X160020000Y-132722133D01*
X160560399Y-132614641D01*
X161018528Y-132308529D01*
X161290000Y-131902243D01*
X161561471Y-132308528D01*
X162019600Y-132614641D01*
X162560000Y-132722133D01*
X163100399Y-132614641D01*
X163558528Y-132308529D01*
X163830000Y-131902243D01*
X164101471Y-132308528D01*
X164559600Y-132614641D01*
X165100000Y-132722133D01*
X165640399Y-132614641D01*
X166098528Y-132308529D01*
X166370000Y-131902243D01*
X166641471Y-132308528D01*
X167099600Y-132614641D01*
X167640000Y-132722133D01*
X168180399Y-132614641D01*
X168638528Y-132308529D01*
X168910000Y-131902243D01*
X169181471Y-132308528D01*
X169639600Y-132614641D01*
X170180000Y-132722133D01*
X170720399Y-132614641D01*
X171178528Y-132308529D01*
X171450000Y-131902243D01*
X171721471Y-132308528D01*
X172179600Y-132614641D01*
X172720000Y-132722133D01*
X173260399Y-132614641D01*
X173718528Y-132308529D01*
X173998553Y-131889443D01*
X174010036Y-131931721D01*
X174343106Y-132362736D01*
X174815765Y-132633481D01*
X174918815Y-132652318D01*
X175133000Y-132529656D01*
X175133000Y-131187000D01*
X175113000Y-131187000D01*
X175113000Y-130933000D01*
X175133000Y-130933000D01*
X175133000Y-129590344D01*
X175045092Y-129540000D01*
X175133000Y-129489656D01*
X175133000Y-128147000D01*
X175113000Y-128147000D01*
X175113000Y-127893000D01*
X175133000Y-127893000D01*
X175133000Y-126550344D01*
X175387000Y-126550344D01*
X175387000Y-127893000D01*
X175407000Y-127893000D01*
X175407000Y-128147000D01*
X175387000Y-128147000D01*
X175387000Y-129489656D01*
X175474908Y-129540000D01*
X175387000Y-129590344D01*
X175387000Y-130933000D01*
X175407000Y-130933000D01*
X175407000Y-131187000D01*
X175387000Y-131187000D01*
X175387000Y-132529656D01*
X175601185Y-132652318D01*
X175704235Y-132633481D01*
X176176894Y-132362736D01*
X176509964Y-131931721D01*
X176521447Y-131889443D01*
X176801471Y-132308528D01*
X177259600Y-132614641D01*
X177800000Y-132722133D01*
X178340399Y-132614641D01*
X178798528Y-132308529D01*
X179104641Y-131850400D01*
X179185000Y-131446407D01*
X179185000Y-130673594D01*
X179104641Y-130269601D01*
X178935000Y-130015715D01*
X178935000Y-129526459D01*
X179007809Y-129477809D01*
X179148157Y-129267765D01*
X179197440Y-129020000D01*
X179197440Y-127020000D01*
X179148157Y-126772235D01*
X179007809Y-126562191D01*
X178797765Y-126421843D01*
X178550000Y-126372560D01*
X177050000Y-126372560D01*
X176802235Y-126421843D01*
X176592191Y-126562191D01*
X176451843Y-126772235D01*
X176404254Y-127011483D01*
X176176894Y-126717264D01*
X175704235Y-126446519D01*
X175601185Y-126427682D01*
X175387000Y-126550344D01*
X175133000Y-126550344D01*
X174918815Y-126427682D01*
X174815765Y-126446519D01*
X174343106Y-126717264D01*
X174010036Y-127148279D01*
X173998553Y-127190557D01*
X173718529Y-126771471D01*
X173260400Y-126465359D01*
X172720000Y-126357867D01*
X172179601Y-126465359D01*
X171721472Y-126771471D01*
X171450000Y-127177757D01*
X171178529Y-126771471D01*
X170720400Y-126465359D01*
X170180000Y-126357867D01*
X169639601Y-126465359D01*
X169181472Y-126771471D01*
X168910000Y-127177757D01*
X168638529Y-126771471D01*
X168180400Y-126465359D01*
X167640000Y-126357867D01*
X167099601Y-126465359D01*
X166641472Y-126771471D01*
X166370000Y-127177757D01*
X166098529Y-126771471D01*
X165935000Y-126662204D01*
X165935000Y-125573493D01*
X182142283Y-109366212D01*
X182212001Y-109319628D01*
X182396552Y-109043428D01*
X182431475Y-108867857D01*
X183630000Y-108867857D01*
X183630000Y-114652143D01*
X187450000Y-114652143D01*
X187450000Y-108867857D01*
X183630000Y-108867857D01*
X182431475Y-108867857D01*
X182445000Y-108799864D01*
X182445000Y-108799861D01*
X182461357Y-108717628D01*
X182445000Y-108635395D01*
X182445000Y-98135867D01*
X185089096Y-95491771D01*
X185273744Y-95528500D01*
X185566256Y-95528500D01*
X185999418Y-95442339D01*
X186490625Y-95114125D01*
X186818839Y-94622918D01*
X186934092Y-94043500D01*
X186818839Y-93464082D01*
X186490625Y-92972875D01*
X185999418Y-92644661D01*
X185566256Y-92558500D01*
X185273744Y-92558500D01*
X184840582Y-92644661D01*
X184349375Y-92972875D01*
X184150000Y-93271261D01*
X183950625Y-92972875D01*
X183459418Y-92644661D01*
X183026256Y-92558500D01*
X182733744Y-92558500D01*
X182300582Y-92644661D01*
X181809375Y-92972875D01*
X181610000Y-93271261D01*
X181410625Y-92972875D01*
X180919418Y-92644661D01*
X180486256Y-92558500D01*
X180193744Y-92558500D01*
X179760582Y-92644661D01*
X179269375Y-92972875D01*
X179070000Y-93271261D01*
X178870625Y-92972875D01*
X178379418Y-92644661D01*
X177946256Y-92558500D01*
X177653744Y-92558500D01*
X177220582Y-92644661D01*
X176729375Y-92972875D01*
X176530000Y-93271261D01*
X176330625Y-92972875D01*
X175839418Y-92644661D01*
X175406256Y-92558500D01*
X175113744Y-92558500D01*
X174680582Y-92644661D01*
X174189375Y-92972875D01*
X173990000Y-93271261D01*
X173790625Y-92972875D01*
X173299418Y-92644661D01*
X172866256Y-92558500D01*
X172573744Y-92558500D01*
X172140582Y-92644661D01*
X171649375Y-92972875D01*
X171450000Y-93271261D01*
X171250625Y-92972875D01*
X170759418Y-92644661D01*
X170326256Y-92558500D01*
X170033744Y-92558500D01*
X169600582Y-92644661D01*
X169109375Y-92972875D01*
X168910000Y-93271261D01*
X168710625Y-92972875D01*
X168219418Y-92644661D01*
X167786256Y-92558500D01*
X167493744Y-92558500D01*
X167060582Y-92644661D01*
X166569375Y-92972875D01*
X166370000Y-93271261D01*
X166170625Y-92972875D01*
X165679418Y-92644661D01*
X165246256Y-92558500D01*
X164953744Y-92558500D01*
X164520582Y-92644661D01*
X164029375Y-92972875D01*
X163830000Y-93271261D01*
X163630625Y-92972875D01*
X163139418Y-92644661D01*
X162706256Y-92558500D01*
X162413744Y-92558500D01*
X161980582Y-92644661D01*
X161489375Y-92972875D01*
X161290000Y-93271261D01*
X161090625Y-92972875D01*
X160599418Y-92644661D01*
X160166256Y-92558500D01*
X159873744Y-92558500D01*
X159440582Y-92644661D01*
X158949375Y-92972875D01*
X158750000Y-93271261D01*
X158550625Y-92972875D01*
X158059418Y-92644661D01*
X157626256Y-92558500D01*
X157333744Y-92558500D01*
X156900582Y-92644661D01*
X156409375Y-92972875D01*
X156210000Y-93271261D01*
X156010625Y-92972875D01*
X155519418Y-92644661D01*
X155086256Y-92558500D01*
X154793744Y-92558500D01*
X154360582Y-92644661D01*
X153869375Y-92972875D01*
X153670000Y-93271261D01*
X153470625Y-92972875D01*
X152979418Y-92644661D01*
X152546256Y-92558500D01*
X152253744Y-92558500D01*
X151820582Y-92644661D01*
X151329375Y-92972875D01*
X151130000Y-93271261D01*
X150930625Y-92972875D01*
X150439418Y-92644661D01*
X150006256Y-92558500D01*
X149713744Y-92558500D01*
X149280582Y-92644661D01*
X148789375Y-92972875D01*
X148590000Y-93271261D01*
X148456006Y-93070724D01*
X148477235Y-92963999D01*
X148428760Y-92720301D01*
X148389146Y-92521145D01*
X148138289Y-92145711D01*
X148043523Y-92082391D01*
X147075612Y-91114481D01*
X147012289Y-91019711D01*
X146636855Y-90768854D01*
X146305783Y-90703000D01*
X146194000Y-90680765D01*
X146082217Y-90703000D01*
X122120587Y-90703000D01*
X122098157Y-90590235D01*
X121957809Y-90380191D01*
X121747765Y-90239843D01*
X121500000Y-90190560D01*
X119500000Y-90190560D01*
X119252235Y-90239843D01*
X119042191Y-90380191D01*
X118901843Y-90590235D01*
X118852560Y-90838000D01*
X118852560Y-91880308D01*
X116685060Y-94047808D01*
X116685060Y-92688410D01*
X116526310Y-92529660D01*
X114427000Y-92529660D01*
X114427000Y-94628970D01*
X114585750Y-94787720D01*
X115945149Y-94787720D01*
X114728229Y-96004640D01*
X112549940Y-96004640D01*
X112302175Y-96053923D01*
X112092131Y-96194271D01*
X111986060Y-96353016D01*
X111986060Y-95688150D01*
X111827310Y-95529400D01*
X109728000Y-95529400D01*
X109474000Y-95529400D01*
X107374690Y-95529400D01*
X107215940Y-95688150D01*
X106095000Y-95688150D01*
X106095000Y-93526031D01*
X107215940Y-93526031D01*
X107215940Y-95116650D01*
X107374690Y-95275400D01*
X109474000Y-95275400D01*
X109474000Y-93176090D01*
X109728000Y-93176090D01*
X109728000Y-95275400D01*
X111827310Y-95275400D01*
X111986060Y-95116650D01*
X111986060Y-94450728D01*
X112011613Y-94512418D01*
X112190241Y-94691047D01*
X112423630Y-94787720D01*
X114014250Y-94787720D01*
X114173000Y-94628970D01*
X114173000Y-92529660D01*
X112073690Y-92529660D01*
X111914940Y-92688410D01*
X111914940Y-93354332D01*
X111889387Y-93292642D01*
X111710759Y-93114013D01*
X111477370Y-93017340D01*
X109886750Y-93017340D01*
X109728000Y-93176090D01*
X109474000Y-93176090D01*
X109315250Y-93017340D01*
X107724630Y-93017340D01*
X107491241Y-93114013D01*
X107312613Y-93292642D01*
X107215940Y-93526031D01*
X106095000Y-93526031D01*
X106095000Y-90526291D01*
X111914940Y-90526291D01*
X111914940Y-92116910D01*
X112073690Y-92275660D01*
X114173000Y-92275660D01*
X114173000Y-90176350D01*
X114427000Y-90176350D01*
X114427000Y-92275660D01*
X116526310Y-92275660D01*
X116685060Y-92116910D01*
X116685060Y-90526291D01*
X116588387Y-90292902D01*
X116409759Y-90114273D01*
X116176370Y-90017600D01*
X114585750Y-90017600D01*
X114427000Y-90176350D01*
X114173000Y-90176350D01*
X114014250Y-90017600D01*
X112423630Y-90017600D01*
X112190241Y-90114273D01*
X112011613Y-90292902D01*
X111914940Y-90526291D01*
X106095000Y-90526291D01*
X106095000Y-89467927D01*
X106140209Y-89211534D01*
X106239959Y-89038762D01*
X106392785Y-88910526D01*
X106609009Y-88831827D01*
X106709903Y-88823000D01*
X187900073Y-88823000D01*
X188156466Y-88868209D01*
X188156466Y-88868209D01*
G37*
X188156466Y-88868209D02*
X188329238Y-88967959D01*
X188457474Y-89120785D01*
X188536173Y-89337009D01*
X188545001Y-89437914D01*
X188545000Y-127776506D01*
X188047937Y-127318633D01*
X187082503Y-126964378D01*
X186314361Y-126995901D01*
X182903555Y-127821061D01*
X182205947Y-128144140D01*
X181509204Y-128900518D01*
X181154949Y-129865952D01*
X181197116Y-130893463D01*
X181629285Y-131826624D01*
X182385663Y-132523367D01*
X183351097Y-132877622D01*
X184119238Y-132846099D01*
X187530045Y-132020939D01*
X188227653Y-131697860D01*
X188545000Y-131353351D01*
X188545000Y-134941072D01*
X188499791Y-135197466D01*
X188400041Y-135370238D01*
X188247215Y-135498474D01*
X188030992Y-135577173D01*
X187930097Y-135586000D01*
X106739927Y-135586000D01*
X106483534Y-135540791D01*
X106310762Y-135441041D01*
X106182526Y-135288215D01*
X106103827Y-135071992D01*
X106095000Y-134971097D01*
X106095000Y-131353351D01*
X106412347Y-131697860D01*
X107109955Y-132020939D01*
X110520761Y-132846099D01*
X111288903Y-132877622D01*
X112254337Y-132523367D01*
X113010715Y-131826624D01*
X113442884Y-130893463D01*
X113485051Y-129865951D01*
X113130796Y-128900518D01*
X112434053Y-128144140D01*
X111736445Y-127821061D01*
X108325638Y-126995901D01*
X107557497Y-126964378D01*
X106592063Y-127318633D01*
X106095000Y-127776506D01*
X106095000Y-95688150D01*
X107215940Y-95688150D01*
X107215940Y-97278769D01*
X107312613Y-97512158D01*
X107491241Y-97690787D01*
X107724630Y-97787460D01*
X109315250Y-97787460D01*
X109474000Y-97628710D01*
X109474000Y-95529400D01*
X109728000Y-95529400D01*
X109728000Y-97628710D01*
X109886750Y-97787460D01*
X111477370Y-97787460D01*
X111710759Y-97690787D01*
X111889387Y-97512158D01*
X111902500Y-97480500D01*
X111902500Y-100152200D01*
X111951783Y-100399965D01*
X112092131Y-100610009D01*
X112302175Y-100750357D01*
X112549940Y-100799640D01*
X116050060Y-100799640D01*
X116297825Y-100750357D01*
X116507869Y-100610009D01*
X116648217Y-100399965D01*
X116697500Y-100152200D01*
X116697500Y-97245631D01*
X119677381Y-94265750D01*
X134101000Y-94265750D01*
X134101000Y-95006310D01*
X134197673Y-95239699D01*
X134376302Y-95418327D01*
X134609691Y-95515000D01*
X135350250Y-95515000D01*
X135509000Y-95356250D01*
X135509000Y-94107000D01*
X134259750Y-94107000D01*
X134101000Y-94265750D01*
X119677381Y-94265750D01*
X120457692Y-93485440D01*
X121500000Y-93485440D01*
X121747765Y-93436157D01*
X121957809Y-93295809D01*
X122098157Y-93085765D01*
X122120587Y-92973000D01*
X134101000Y-92973000D01*
X134101000Y-93694250D01*
X134259750Y-93853000D01*
X135509000Y-93853000D01*
X135509000Y-93833000D01*
X135763000Y-93833000D01*
X135763000Y-93853000D01*
X135783000Y-93853000D01*
X135783000Y-94107000D01*
X135763000Y-94107000D01*
X135763000Y-95356250D01*
X135921750Y-95515000D01*
X136662309Y-95515000D01*
X136895698Y-95418327D01*
X137041001Y-95273025D01*
X137041000Y-97573868D01*
X136982718Y-97632151D01*
X136600091Y-97708260D01*
X136125423Y-98025423D01*
X135808260Y-98500091D01*
X135696887Y-99060000D01*
X135808260Y-99619909D01*
X136125423Y-100094577D01*
X136600091Y-100411740D01*
X136867847Y-100465000D01*
X125432132Y-100465000D01*
X122135000Y-97167869D01*
X122135000Y-96812778D01*
X121886086Y-96211847D01*
X121426153Y-95751914D01*
X120825222Y-95503000D01*
X120174778Y-95503000D01*
X119573847Y-95751914D01*
X119113914Y-96211847D01*
X118865000Y-96812778D01*
X118865000Y-97463222D01*
X119113914Y-98064153D01*
X119573847Y-98524086D01*
X120174778Y-98773000D01*
X120529869Y-98773000D01*
X124080389Y-102323521D01*
X124143711Y-102418289D01*
X124169845Y-102435751D01*
X123919378Y-102485572D01*
X123461060Y-102791811D01*
X123190000Y-103197481D01*
X122918939Y-102791810D01*
X122460621Y-102485572D01*
X121920000Y-102378036D01*
X121379378Y-102485572D01*
X120921060Y-102791811D01*
X120650000Y-103197481D01*
X120378939Y-102791810D01*
X119920621Y-102485572D01*
X119380000Y-102378036D01*
X118839378Y-102485572D01*
X118381060Y-102791811D01*
X118110000Y-103197481D01*
X117838939Y-102791810D01*
X117380621Y-102485572D01*
X116840000Y-102378036D01*
X116299378Y-102485572D01*
X115841060Y-102791811D01*
X115570000Y-103197481D01*
X115298939Y-102791810D01*
X114840621Y-102485572D01*
X114300000Y-102378036D01*
X113759378Y-102485572D01*
X113301060Y-102791811D01*
X112994822Y-103250129D01*
X112914430Y-103654288D01*
X112914430Y-104625713D01*
X112994822Y-105029872D01*
X113301061Y-105488190D01*
X113415000Y-105564322D01*
X113415000Y-105826984D01*
X113415001Y-105826988D01*
X113415000Y-106592839D01*
X113397663Y-106680000D01*
X113415000Y-106767161D01*
X113415000Y-106767164D01*
X113466348Y-107025309D01*
X113661951Y-107318049D01*
X113735847Y-107367425D01*
X119695581Y-113327160D01*
X119695581Y-116131027D01*
X119664655Y-116056365D01*
X119401635Y-115793345D01*
X119057983Y-115651000D01*
X118686017Y-115651000D01*
X118342365Y-115793345D01*
X118079345Y-116056365D01*
X118029344Y-116177078D01*
X117545845Y-116660577D01*
X117471952Y-116709951D01*
X117422578Y-116783844D01*
X117422576Y-116783846D01*
X117276348Y-117002691D01*
X117207663Y-117348000D01*
X117225001Y-117435165D01*
X117225001Y-117694617D01*
X116840000Y-117618036D01*
X116299378Y-117725572D01*
X115841060Y-118031811D01*
X115570000Y-118437481D01*
X115298939Y-118031810D01*
X114840621Y-117725572D01*
X114300000Y-117618036D01*
X113759378Y-117725572D01*
X113301060Y-118031811D01*
X112994822Y-118490129D01*
X112914430Y-118894288D01*
X112914430Y-119865713D01*
X112994822Y-120269872D01*
X113301061Y-120728190D01*
X113759379Y-121034428D01*
X114300000Y-121141964D01*
X114840622Y-121034428D01*
X115298940Y-120728190D01*
X115570000Y-120322520D01*
X115841061Y-120728190D01*
X116299379Y-121034428D01*
X116840000Y-121141964D01*
X117225000Y-121065383D01*
X117225000Y-122248316D01*
X117175000Y-122369027D01*
X117175000Y-122740993D01*
X117317345Y-123084645D01*
X117580365Y-123347665D01*
X117924017Y-123490010D01*
X118295983Y-123490010D01*
X118639635Y-123347665D01*
X118902655Y-123084645D01*
X119045000Y-122740993D01*
X119045000Y-122369027D01*
X118995000Y-122248316D01*
X118995000Y-121065383D01*
X119380000Y-121141964D01*
X119695581Y-121079191D01*
X119695580Y-126420640D01*
X119380000Y-126357867D01*
X118839601Y-126465359D01*
X118381472Y-126771471D01*
X118110000Y-127177757D01*
X117838529Y-126771471D01*
X117380400Y-126465359D01*
X116840000Y-126357867D01*
X116299601Y-126465359D01*
X115841472Y-126771471D01*
X115535359Y-127229600D01*
X115455000Y-127633593D01*
X115455000Y-128406406D01*
X115535359Y-128810399D01*
X115841471Y-129268528D01*
X116247757Y-129540000D01*
X115841472Y-129811471D01*
X115535359Y-130269600D01*
X115455000Y-130673593D01*
X115455000Y-131446406D01*
X115535359Y-131850399D01*
X115841471Y-132308528D01*
X116299600Y-132614641D01*
X116840000Y-132722133D01*
X117380399Y-132614641D01*
X117838528Y-132308529D01*
X118110000Y-131902243D01*
X118381471Y-132308528D01*
X118839600Y-132614641D01*
X119380000Y-132722133D01*
X119920399Y-132614641D01*
X120133562Y-132472210D01*
X121435527Y-133774176D01*
X121484901Y-133848069D01*
X121558794Y-133897443D01*
X121558795Y-133897444D01*
X121777640Y-134043672D01*
X122035785Y-134095020D01*
X122035789Y-134095020D01*
X122122950Y-134112357D01*
X122210111Y-134095020D01*
X141949889Y-134095020D01*
X142037050Y-134112357D01*
X142124211Y-134095020D01*
X142124215Y-134095020D01*
X142382360Y-134043672D01*
X142675099Y-133848069D01*
X142724475Y-133774173D01*
X144026438Y-132472210D01*
X144239600Y-132614641D01*
X144780000Y-132722133D01*
X145320399Y-132614641D01*
X145778528Y-132308529D01*
X146050000Y-131902243D01*
X146321471Y-132308528D01*
X146779600Y-132614641D01*
X147320000Y-132722133D01*
X147860399Y-132614641D01*
X148318528Y-132308529D01*
X148590000Y-131902243D01*
X148861471Y-132308528D01*
X149319600Y-132614641D01*
X149860000Y-132722133D01*
X150400399Y-132614641D01*
X150858528Y-132308529D01*
X151130000Y-131902243D01*
X151401471Y-132308528D01*
X151859600Y-132614641D01*
X152400000Y-132722133D01*
X152940399Y-132614641D01*
X153398528Y-132308529D01*
X153670000Y-131902243D01*
X153941471Y-132308528D01*
X154399600Y-132614641D01*
X154940000Y-132722133D01*
X155480399Y-132614641D01*
X155938528Y-132308529D01*
X156218553Y-131889443D01*
X156230036Y-131931721D01*
X156563106Y-132362736D01*
X157035765Y-132633481D01*
X157138815Y-132652318D01*
X157353000Y-132529656D01*
X157353000Y-131187000D01*
X157333000Y-131187000D01*
X157333000Y-130933000D01*
X157353000Y-130933000D01*
X157353000Y-129590344D01*
X157265092Y-129540000D01*
X157353000Y-129489656D01*
X157353000Y-128147000D01*
X157333000Y-128147000D01*
X157333000Y-127893000D01*
X157353000Y-127893000D01*
X157353000Y-126550344D01*
X157138815Y-126427682D01*
X157035765Y-126446519D01*
X156563106Y-126717264D01*
X156230036Y-127148279D01*
X156218553Y-127190557D01*
X155938529Y-126771471D01*
X155480400Y-126465359D01*
X154940000Y-126357867D01*
X154399601Y-126465359D01*
X153941472Y-126771471D01*
X153670000Y-127177757D01*
X153398529Y-126771471D01*
X153285000Y-126695613D01*
X153285000Y-120804322D01*
X153398940Y-120728190D01*
X153670000Y-120322520D01*
X153809752Y-120531672D01*
X153870854Y-120838855D01*
X154121712Y-121214289D01*
X154216480Y-121277611D01*
X156045000Y-123106132D01*
X156045000Y-123221439D01*
X156263466Y-123748862D01*
X156667138Y-124152534D01*
X157194561Y-124371000D01*
X157765439Y-124371000D01*
X158292862Y-124152534D01*
X158501651Y-123943745D01*
X159151861Y-123943745D01*
X159225995Y-124189864D01*
X159763223Y-124382965D01*
X160333454Y-124355778D01*
X160734005Y-124189864D01*
X160808139Y-123943745D01*
X159980000Y-123115605D01*
X159151861Y-123943745D01*
X158501651Y-123943745D01*
X158696534Y-123748862D01*
X158723525Y-123683701D01*
X158726136Y-123690005D01*
X158972255Y-123764139D01*
X159800395Y-122936000D01*
X160159605Y-122936000D01*
X160987745Y-123764139D01*
X161233864Y-123690005D01*
X161426965Y-123152777D01*
X161399778Y-122582546D01*
X161233864Y-122181995D01*
X160987745Y-122107861D01*
X160159605Y-122936000D01*
X159800395Y-122936000D01*
X158972255Y-122107861D01*
X158726136Y-122181995D01*
X158723710Y-122188746D01*
X158696534Y-122123138D01*
X158501651Y-121928255D01*
X159151861Y-121928255D01*
X159980000Y-122756395D01*
X160808139Y-121928255D01*
X160734005Y-121682136D01*
X160196777Y-121489035D01*
X159626546Y-121516222D01*
X159225995Y-121682136D01*
X159151861Y-121928255D01*
X158501651Y-121928255D01*
X158292862Y-121719466D01*
X157765439Y-121501000D01*
X157650132Y-121501000D01*
X157244190Y-121095059D01*
X157480000Y-121141964D01*
X158020622Y-121034428D01*
X158478940Y-120728190D01*
X158750000Y-120322520D01*
X159021061Y-120728190D01*
X159479379Y-121034428D01*
X160020000Y-121141964D01*
X160560622Y-121034428D01*
X161018940Y-120728190D01*
X161290000Y-120322520D01*
X161561061Y-120728190D01*
X162019379Y-121034428D01*
X162560000Y-121141964D01*
X163100622Y-121034428D01*
X163558940Y-120728190D01*
X163865178Y-120269872D01*
X163945570Y-119865712D01*
X163945570Y-118894287D01*
X163865178Y-118490128D01*
X163558939Y-118031810D01*
X163100621Y-117725572D01*
X162560000Y-117618036D01*
X162019378Y-117725572D01*
X161561060Y-118031811D01*
X161290000Y-118437481D01*
X161018939Y-118031810D01*
X160560621Y-117725572D01*
X160020000Y-117618036D01*
X159479378Y-117725572D01*
X159021060Y-118031811D01*
X158750000Y-118437481D01*
X158478939Y-118031810D01*
X158020621Y-117725572D01*
X157878566Y-117697316D01*
X167401883Y-108174000D01*
X171478569Y-108174000D01*
X171721471Y-108537528D01*
X172179600Y-108843641D01*
X172720000Y-108951133D01*
X173260399Y-108843641D01*
X173718528Y-108537529D01*
X174005742Y-108107684D01*
X174029028Y-108186349D01*
X174370460Y-108608145D01*
X174847316Y-108867173D01*
X174918815Y-108881318D01*
X175133000Y-108758656D01*
X175133000Y-107166000D01*
X175113000Y-107166000D01*
X175113000Y-106912000D01*
X175133000Y-106912000D01*
X175133000Y-105319344D01*
X174918815Y-105196682D01*
X174847316Y-105210827D01*
X174370460Y-105469855D01*
X174029028Y-105891651D01*
X174005742Y-105970316D01*
X173718529Y-105540471D01*
X173260400Y-105234359D01*
X172720000Y-105126867D01*
X172179601Y-105234359D01*
X171721472Y-105540471D01*
X171478569Y-105904000D01*
X167043531Y-105904000D01*
X166931749Y-105881765D01*
X166819967Y-105904000D01*
X166488895Y-105969854D01*
X166113461Y-106220711D01*
X166050141Y-106315476D01*
X154699805Y-117665813D01*
X154399378Y-117725572D01*
X153941060Y-118031811D01*
X153670000Y-118437481D01*
X153398939Y-118031810D01*
X152940621Y-117725572D01*
X152400000Y-117618036D01*
X151859378Y-117725572D01*
X151401060Y-118031811D01*
X151130000Y-118437481D01*
X150858939Y-118031810D01*
X150400621Y-117725572D01*
X149860000Y-117618036D01*
X149319378Y-117725572D01*
X148861060Y-118031811D01*
X148590000Y-118437481D01*
X148318939Y-118031810D01*
X147860621Y-117725572D01*
X147320000Y-117618036D01*
X146779378Y-117725572D01*
X146321060Y-118031811D01*
X146050000Y-118437481D01*
X145778939Y-118031810D01*
X145511404Y-117853049D01*
X150424156Y-112940296D01*
X150498049Y-112890923D01*
X150554356Y-112806655D01*
X150649174Y-112664749D01*
X150693652Y-112598184D01*
X150745000Y-112340039D01*
X150745000Y-112340035D01*
X150762337Y-112252875D01*
X150745000Y-112165715D01*
X150745000Y-105564322D01*
X150858940Y-105488190D01*
X151145545Y-105059255D01*
X151168501Y-105136817D01*
X151510056Y-105558798D01*
X151987097Y-105817950D01*
X152058725Y-105832133D01*
X152273000Y-105709479D01*
X152273000Y-104267000D01*
X152253000Y-104267000D01*
X152253000Y-104013000D01*
X152273000Y-104013000D01*
X152273000Y-103993000D01*
X152527000Y-103993000D01*
X152527000Y-104013000D01*
X152547000Y-104013000D01*
X152547000Y-104267000D01*
X152527000Y-104267000D01*
X152527000Y-105709479D01*
X152741275Y-105832133D01*
X152812903Y-105817950D01*
X153289944Y-105558798D01*
X153631499Y-105136817D01*
X153654455Y-105059255D01*
X153941061Y-105488190D01*
X154399379Y-105794428D01*
X154940000Y-105901964D01*
X155480622Y-105794428D01*
X155938940Y-105488190D01*
X156210000Y-105082520D01*
X156481061Y-105488190D01*
X156939379Y-105794428D01*
X157480000Y-105901964D01*
X158020622Y-105794428D01*
X158478940Y-105488190D01*
X158750000Y-105082520D01*
X159021061Y-105488190D01*
X159479379Y-105794428D01*
X160020000Y-105901964D01*
X160560622Y-105794428D01*
X161018940Y-105488190D01*
X161290000Y-105082520D01*
X161561061Y-105488190D01*
X162019379Y-105794428D01*
X162560000Y-105901964D01*
X163100622Y-105794428D01*
X163558940Y-105488190D01*
X163865178Y-105029872D01*
X163945570Y-104625712D01*
X163945570Y-103654287D01*
X163865178Y-103250128D01*
X163558939Y-102791810D01*
X163473917Y-102735000D01*
X173920132Y-102735000D01*
X174002191Y-102857809D01*
X174212235Y-102998157D01*
X174460000Y-103047440D01*
X174848309Y-103047440D01*
X176665000Y-104864132D01*
X176665000Y-105282541D01*
X176592191Y-105331191D01*
X176451843Y-105541235D01*
X176403609Y-105783725D01*
X176149540Y-105469855D01*
X175672684Y-105210827D01*
X175601185Y-105196682D01*
X175387000Y-105319344D01*
X175387000Y-106912000D01*
X175407000Y-106912000D01*
X175407000Y-107166000D01*
X175387000Y-107166000D01*
X175387000Y-108758656D01*
X175601185Y-108881318D01*
X175672684Y-108867173D01*
X176149540Y-108608145D01*
X176403609Y-108294275D01*
X176451843Y-108536765D01*
X176592191Y-108746809D01*
X176802235Y-108887157D01*
X177050000Y-108936440D01*
X177664692Y-108936440D01*
X160206224Y-126394909D01*
X160020000Y-126357867D01*
X159479601Y-126465359D01*
X159021472Y-126771471D01*
X158741447Y-127190557D01*
X158729964Y-127148279D01*
X158396894Y-126717264D01*
X157924235Y-126446519D01*
X157821185Y-126427682D01*
X157607000Y-126550344D01*
X157607000Y-127893000D01*
X157627000Y-127893000D01*
X157627000Y-128147000D01*
X157607000Y-128147000D01*
X157607000Y-129489656D01*
X157694908Y-129540000D01*
X157607000Y-129590344D01*
X157607000Y-130933000D01*
X157627000Y-130933000D01*
X157627000Y-131187000D01*
X157607000Y-131187000D01*
X157607000Y-132529656D01*
X157821185Y-132652318D01*
X157924235Y-132633481D01*
X158396894Y-132362736D01*
X158729964Y-131931721D01*
X158741447Y-131889443D01*
X159021471Y-132308528D01*
X159479600Y-132614641D01*
X160020000Y-132722133D01*
X160560399Y-132614641D01*
X161018528Y-132308529D01*
X161290000Y-131902243D01*
X161561471Y-132308528D01*
X162019600Y-132614641D01*
X162560000Y-132722133D01*
X163100399Y-132614641D01*
X163558528Y-132308529D01*
X163830000Y-131902243D01*
X164101471Y-132308528D01*
X164559600Y-132614641D01*
X165100000Y-132722133D01*
X165640399Y-132614641D01*
X166098528Y-132308529D01*
X166370000Y-131902243D01*
X166641471Y-132308528D01*
X167099600Y-132614641D01*
X167640000Y-132722133D01*
X168180399Y-132614641D01*
X168638528Y-132308529D01*
X168910000Y-131902243D01*
X169181471Y-132308528D01*
X169639600Y-132614641D01*
X170180000Y-132722133D01*
X170720399Y-132614641D01*
X171178528Y-132308529D01*
X171450000Y-131902243D01*
X171721471Y-132308528D01*
X172179600Y-132614641D01*
X172720000Y-132722133D01*
X173260399Y-132614641D01*
X173718528Y-132308529D01*
X173998553Y-131889443D01*
X174010036Y-131931721D01*
X174343106Y-132362736D01*
X174815765Y-132633481D01*
X174918815Y-132652318D01*
X175133000Y-132529656D01*
X175133000Y-131187000D01*
X175113000Y-131187000D01*
X175113000Y-130933000D01*
X175133000Y-130933000D01*
X175133000Y-129590344D01*
X175045092Y-129540000D01*
X175133000Y-129489656D01*
X175133000Y-128147000D01*
X175113000Y-128147000D01*
X175113000Y-127893000D01*
X175133000Y-127893000D01*
X175133000Y-126550344D01*
X175387000Y-126550344D01*
X175387000Y-127893000D01*
X175407000Y-127893000D01*
X175407000Y-128147000D01*
X175387000Y-128147000D01*
X175387000Y-129489656D01*
X175474908Y-129540000D01*
X175387000Y-129590344D01*
X175387000Y-130933000D01*
X175407000Y-130933000D01*
X175407000Y-131187000D01*
X175387000Y-131187000D01*
X175387000Y-132529656D01*
X175601185Y-132652318D01*
X175704235Y-132633481D01*
X176176894Y-132362736D01*
X176509964Y-131931721D01*
X176521447Y-131889443D01*
X176801471Y-132308528D01*
X177259600Y-132614641D01*
X177800000Y-132722133D01*
X178340399Y-132614641D01*
X178798528Y-132308529D01*
X179104641Y-131850400D01*
X179185000Y-131446407D01*
X179185000Y-130673594D01*
X179104641Y-130269601D01*
X178935000Y-130015715D01*
X178935000Y-129526459D01*
X179007809Y-129477809D01*
X179148157Y-129267765D01*
X179197440Y-129020000D01*
X179197440Y-127020000D01*
X179148157Y-126772235D01*
X179007809Y-126562191D01*
X178797765Y-126421843D01*
X178550000Y-126372560D01*
X177050000Y-126372560D01*
X176802235Y-126421843D01*
X176592191Y-126562191D01*
X176451843Y-126772235D01*
X176404254Y-127011483D01*
X176176894Y-126717264D01*
X175704235Y-126446519D01*
X175601185Y-126427682D01*
X175387000Y-126550344D01*
X175133000Y-126550344D01*
X174918815Y-126427682D01*
X174815765Y-126446519D01*
X174343106Y-126717264D01*
X174010036Y-127148279D01*
X173998553Y-127190557D01*
X173718529Y-126771471D01*
X173260400Y-126465359D01*
X172720000Y-126357867D01*
X172179601Y-126465359D01*
X171721472Y-126771471D01*
X171450000Y-127177757D01*
X171178529Y-126771471D01*
X170720400Y-126465359D01*
X170180000Y-126357867D01*
X169639601Y-126465359D01*
X169181472Y-126771471D01*
X168910000Y-127177757D01*
X168638529Y-126771471D01*
X168180400Y-126465359D01*
X167640000Y-126357867D01*
X167099601Y-126465359D01*
X166641472Y-126771471D01*
X166370000Y-127177757D01*
X166098529Y-126771471D01*
X165935000Y-126662204D01*
X165935000Y-125573493D01*
X182142283Y-109366212D01*
X182212001Y-109319628D01*
X182396552Y-109043428D01*
X182431475Y-108867857D01*
X183630000Y-108867857D01*
X183630000Y-114652143D01*
X187450000Y-114652143D01*
X187450000Y-108867857D01*
X183630000Y-108867857D01*
X182431475Y-108867857D01*
X182445000Y-108799864D01*
X182445000Y-108799861D01*
X182461357Y-108717628D01*
X182445000Y-108635395D01*
X182445000Y-98135867D01*
X185089096Y-95491771D01*
X185273744Y-95528500D01*
X185566256Y-95528500D01*
X185999418Y-95442339D01*
X186490625Y-95114125D01*
X186818839Y-94622918D01*
X186934092Y-94043500D01*
X186818839Y-93464082D01*
X186490625Y-92972875D01*
X185999418Y-92644661D01*
X185566256Y-92558500D01*
X185273744Y-92558500D01*
X184840582Y-92644661D01*
X184349375Y-92972875D01*
X184150000Y-93271261D01*
X183950625Y-92972875D01*
X183459418Y-92644661D01*
X183026256Y-92558500D01*
X182733744Y-92558500D01*
X182300582Y-92644661D01*
X181809375Y-92972875D01*
X181610000Y-93271261D01*
X181410625Y-92972875D01*
X180919418Y-92644661D01*
X180486256Y-92558500D01*
X180193744Y-92558500D01*
X179760582Y-92644661D01*
X179269375Y-92972875D01*
X179070000Y-93271261D01*
X178870625Y-92972875D01*
X178379418Y-92644661D01*
X177946256Y-92558500D01*
X177653744Y-92558500D01*
X177220582Y-92644661D01*
X176729375Y-92972875D01*
X176530000Y-93271261D01*
X176330625Y-92972875D01*
X175839418Y-92644661D01*
X175406256Y-92558500D01*
X175113744Y-92558500D01*
X174680582Y-92644661D01*
X174189375Y-92972875D01*
X173990000Y-93271261D01*
X173790625Y-92972875D01*
X173299418Y-92644661D01*
X172866256Y-92558500D01*
X172573744Y-92558500D01*
X172140582Y-92644661D01*
X171649375Y-92972875D01*
X171450000Y-93271261D01*
X171250625Y-92972875D01*
X170759418Y-92644661D01*
X170326256Y-92558500D01*
X170033744Y-92558500D01*
X169600582Y-92644661D01*
X169109375Y-92972875D01*
X168910000Y-93271261D01*
X168710625Y-92972875D01*
X168219418Y-92644661D01*
X167786256Y-92558500D01*
X167493744Y-92558500D01*
X167060582Y-92644661D01*
X166569375Y-92972875D01*
X166370000Y-93271261D01*
X166170625Y-92972875D01*
X165679418Y-92644661D01*
X165246256Y-92558500D01*
X164953744Y-92558500D01*
X164520582Y-92644661D01*
X164029375Y-92972875D01*
X163830000Y-93271261D01*
X163630625Y-92972875D01*
X163139418Y-92644661D01*
X162706256Y-92558500D01*
X162413744Y-92558500D01*
X161980582Y-92644661D01*
X161489375Y-92972875D01*
X161290000Y-93271261D01*
X161090625Y-92972875D01*
X160599418Y-92644661D01*
X160166256Y-92558500D01*
X159873744Y-92558500D01*
X159440582Y-92644661D01*
X158949375Y-92972875D01*
X158750000Y-93271261D01*
X158550625Y-92972875D01*
X158059418Y-92644661D01*
X157626256Y-92558500D01*
X157333744Y-92558500D01*
X156900582Y-92644661D01*
X156409375Y-92972875D01*
X156210000Y-93271261D01*
X156010625Y-92972875D01*
X155519418Y-92644661D01*
X155086256Y-92558500D01*
X154793744Y-92558500D01*
X154360582Y-92644661D01*
X153869375Y-92972875D01*
X153670000Y-93271261D01*
X153470625Y-92972875D01*
X152979418Y-92644661D01*
X152546256Y-92558500D01*
X152253744Y-92558500D01*
X151820582Y-92644661D01*
X151329375Y-92972875D01*
X151130000Y-93271261D01*
X150930625Y-92972875D01*
X150439418Y-92644661D01*
X150006256Y-92558500D01*
X149713744Y-92558500D01*
X149280582Y-92644661D01*
X148789375Y-92972875D01*
X148590000Y-93271261D01*
X148456006Y-93070724D01*
X148477235Y-92963999D01*
X148428760Y-92720301D01*
X148389146Y-92521145D01*
X148138289Y-92145711D01*
X148043523Y-92082391D01*
X147075612Y-91114481D01*
X147012289Y-91019711D01*
X146636855Y-90768854D01*
X146305783Y-90703000D01*
X146194000Y-90680765D01*
X146082217Y-90703000D01*
X122120587Y-90703000D01*
X122098157Y-90590235D01*
X121957809Y-90380191D01*
X121747765Y-90239843D01*
X121500000Y-90190560D01*
X119500000Y-90190560D01*
X119252235Y-90239843D01*
X119042191Y-90380191D01*
X118901843Y-90590235D01*
X118852560Y-90838000D01*
X118852560Y-91880308D01*
X116685060Y-94047808D01*
X116685060Y-92688410D01*
X116526310Y-92529660D01*
X114427000Y-92529660D01*
X114427000Y-94628970D01*
X114585750Y-94787720D01*
X115945149Y-94787720D01*
X114728229Y-96004640D01*
X112549940Y-96004640D01*
X112302175Y-96053923D01*
X112092131Y-96194271D01*
X111986060Y-96353016D01*
X111986060Y-95688150D01*
X111827310Y-95529400D01*
X109728000Y-95529400D01*
X109474000Y-95529400D01*
X107374690Y-95529400D01*
X107215940Y-95688150D01*
X106095000Y-95688150D01*
X106095000Y-93526031D01*
X107215940Y-93526031D01*
X107215940Y-95116650D01*
X107374690Y-95275400D01*
X109474000Y-95275400D01*
X109474000Y-93176090D01*
X109728000Y-93176090D01*
X109728000Y-95275400D01*
X111827310Y-95275400D01*
X111986060Y-95116650D01*
X111986060Y-94450728D01*
X112011613Y-94512418D01*
X112190241Y-94691047D01*
X112423630Y-94787720D01*
X114014250Y-94787720D01*
X114173000Y-94628970D01*
X114173000Y-92529660D01*
X112073690Y-92529660D01*
X111914940Y-92688410D01*
X111914940Y-93354332D01*
X111889387Y-93292642D01*
X111710759Y-93114013D01*
X111477370Y-93017340D01*
X109886750Y-93017340D01*
X109728000Y-93176090D01*
X109474000Y-93176090D01*
X109315250Y-93017340D01*
X107724630Y-93017340D01*
X107491241Y-93114013D01*
X107312613Y-93292642D01*
X107215940Y-93526031D01*
X106095000Y-93526031D01*
X106095000Y-90526291D01*
X111914940Y-90526291D01*
X111914940Y-92116910D01*
X112073690Y-92275660D01*
X114173000Y-92275660D01*
X114173000Y-90176350D01*
X114427000Y-90176350D01*
X114427000Y-92275660D01*
X116526310Y-92275660D01*
X116685060Y-92116910D01*
X116685060Y-90526291D01*
X116588387Y-90292902D01*
X116409759Y-90114273D01*
X116176370Y-90017600D01*
X114585750Y-90017600D01*
X114427000Y-90176350D01*
X114173000Y-90176350D01*
X114014250Y-90017600D01*
X112423630Y-90017600D01*
X112190241Y-90114273D01*
X112011613Y-90292902D01*
X111914940Y-90526291D01*
X106095000Y-90526291D01*
X106095000Y-89467927D01*
X106140209Y-89211534D01*
X106239959Y-89038762D01*
X106392785Y-88910526D01*
X106609009Y-88831827D01*
X106709903Y-88823000D01*
X187900073Y-88823000D01*
X188156466Y-88868209D01*
G36*
X138815001Y-126695614D02*
X138701472Y-126771471D01*
X138430000Y-127177757D01*
X138158529Y-126771471D01*
X137700400Y-126465359D01*
X137680231Y-126461347D01*
X138815000Y-125326578D01*
X138815001Y-126695614D01*
X138815001Y-126695614D01*
G37*
X138815001Y-126695614D02*
X138701472Y-126771471D01*
X138430000Y-127177757D01*
X138158529Y-126771471D01*
X137700400Y-126465359D01*
X137680231Y-126461347D01*
X138815000Y-125326578D01*
X138815001Y-126695614D01*
G36*
X134620000Y-121141964D02*
X135017701Y-121062857D01*
X135017701Y-121743670D01*
X130209651Y-126551721D01*
X130080400Y-126465359D01*
X129540000Y-126357867D01*
X128999601Y-126465359D01*
X128541472Y-126771471D01*
X128270000Y-127177757D01*
X127998529Y-126771471D01*
X127731476Y-126593032D01*
X128471509Y-125853000D01*
X129706839Y-125853000D01*
X129794000Y-125870337D01*
X129881161Y-125853000D01*
X129881165Y-125853000D01*
X130139310Y-125801652D01*
X130432049Y-125606049D01*
X130481425Y-125532153D01*
X133844736Y-122168843D01*
X133918629Y-122119469D01*
X133990899Y-122011311D01*
X134114232Y-121826730D01*
X134165580Y-121568585D01*
X134165580Y-121568581D01*
X134182917Y-121481420D01*
X134165580Y-121394259D01*
X134165580Y-121051574D01*
X134620000Y-121141964D01*
X134620000Y-121141964D01*
G37*
X134620000Y-121141964D02*
X135017701Y-121062857D01*
X135017701Y-121743670D01*
X130209651Y-126551721D01*
X130080400Y-126465359D01*
X129540000Y-126357867D01*
X128999601Y-126465359D01*
X128541472Y-126771471D01*
X128270000Y-127177757D01*
X127998529Y-126771471D01*
X127731476Y-126593032D01*
X128471509Y-125853000D01*
X129706839Y-125853000D01*
X129794000Y-125870337D01*
X129881161Y-125853000D01*
X129881165Y-125853000D01*
X130139310Y-125801652D01*
X130432049Y-125606049D01*
X130481425Y-125532153D01*
X133844736Y-122168843D01*
X133918629Y-122119469D01*
X133990899Y-122011311D01*
X134114232Y-121826730D01*
X134165580Y-121568585D01*
X134165580Y-121568581D01*
X134182917Y-121481420D01*
X134165580Y-121394259D01*
X134165580Y-121051574D01*
X134620000Y-121141964D01*
G36*
X139700000Y-121141964D02*
X140072301Y-121067909D01*
X140072301Y-121566120D01*
X135395837Y-126242585D01*
X135321941Y-126291961D01*
X135191980Y-126486460D01*
X135160400Y-126465359D01*
X134620000Y-126357867D01*
X134304990Y-126420526D01*
X134304990Y-125949502D01*
X138994156Y-121260337D01*
X139068049Y-121210963D01*
X139118065Y-121136110D01*
X139182883Y-121039103D01*
X139700000Y-121141964D01*
X139700000Y-121141964D01*
G37*
X139700000Y-121141964D02*
X140072301Y-121067909D01*
X140072301Y-121566120D01*
X135395837Y-126242585D01*
X135321941Y-126291961D01*
X135191980Y-126486460D01*
X135160400Y-126465359D01*
X134620000Y-126357867D01*
X134304990Y-126420526D01*
X134304990Y-125949502D01*
X138994156Y-121260337D01*
X139068049Y-121210963D01*
X139118065Y-121136110D01*
X139182883Y-121039103D01*
X139700000Y-121141964D01*
G36*
X122374421Y-126448257D02*
X121920000Y-126357867D01*
X121465580Y-126448257D01*
X121465580Y-121051574D01*
X121920000Y-121141964D01*
X122374420Y-121051574D01*
X122374421Y-126448257D01*
X122374421Y-126448257D01*
G37*
X122374421Y-126448257D02*
X121920000Y-126357867D01*
X121465580Y-126448257D01*
X121465580Y-121051574D01*
X121920000Y-121141964D01*
X122374420Y-121051574D01*
X122374421Y-126448257D01*
G36*
X136161061Y-105488190D02*
X136275000Y-105564322D01*
X136275001Y-111901420D01*
X132716427Y-115459995D01*
X132642531Y-115509371D01*
X132446928Y-115802111D01*
X132395580Y-116060256D01*
X132395580Y-116060259D01*
X132378243Y-116147420D01*
X132395580Y-116234581D01*
X132395580Y-117680809D01*
X132080000Y-117618036D01*
X131539378Y-117725572D01*
X131081060Y-118031811D01*
X130794455Y-118460746D01*
X130771499Y-118383183D01*
X130429944Y-117961202D01*
X129952903Y-117702050D01*
X129881275Y-117687867D01*
X129667000Y-117810521D01*
X129667000Y-119253000D01*
X129687000Y-119253000D01*
X129687000Y-119507000D01*
X129667000Y-119507000D01*
X129667000Y-120949479D01*
X129881275Y-121072133D01*
X129952903Y-121057950D01*
X130429944Y-120798798D01*
X130771499Y-120376817D01*
X130794455Y-120299255D01*
X131081061Y-120728190D01*
X131195000Y-120804322D01*
X131195000Y-121299421D01*
X129173422Y-123321000D01*
X127964127Y-123321000D01*
X127876967Y-123303663D01*
X127789807Y-123321000D01*
X127789803Y-123321000D01*
X127531658Y-123372348D01*
X127507243Y-123388662D01*
X127312813Y-123518576D01*
X127312812Y-123518577D01*
X127238919Y-123567951D01*
X127189545Y-123641844D01*
X124471279Y-126360111D01*
X124460000Y-126357867D01*
X124144420Y-126420640D01*
X124144420Y-121079191D01*
X124460000Y-121141964D01*
X125000622Y-121034428D01*
X125458940Y-120728190D01*
X125730000Y-120322520D01*
X126001061Y-120728190D01*
X126459379Y-121034428D01*
X127000000Y-121141964D01*
X127540622Y-121034428D01*
X127998940Y-120728190D01*
X128285545Y-120299255D01*
X128308501Y-120376817D01*
X128650056Y-120798798D01*
X129127097Y-121057950D01*
X129198725Y-121072133D01*
X129413000Y-120949479D01*
X129413000Y-119507000D01*
X129393000Y-119507000D01*
X129393000Y-119253000D01*
X129413000Y-119253000D01*
X129413000Y-117810521D01*
X129198725Y-117687867D01*
X129127097Y-117702050D01*
X128650056Y-117961202D01*
X128308501Y-118383183D01*
X128285545Y-118460745D01*
X127998939Y-118031810D01*
X127540621Y-117725572D01*
X127000000Y-117618036D01*
X126459378Y-117725572D01*
X126001060Y-118031811D01*
X125730000Y-118437481D01*
X125458939Y-118031810D01*
X125000621Y-117725572D01*
X124460000Y-117618036D01*
X124144420Y-117680809D01*
X124144420Y-113327158D01*
X131654293Y-105817286D01*
X132080000Y-105901964D01*
X132620622Y-105794428D01*
X133078940Y-105488190D01*
X133350000Y-105082520D01*
X133621061Y-105488190D01*
X134079379Y-105794428D01*
X134620000Y-105901964D01*
X135160622Y-105794428D01*
X135618940Y-105488190D01*
X135890000Y-105082520D01*
X136161061Y-105488190D01*
X136161061Y-105488190D01*
G37*
X136161061Y-105488190D02*
X136275000Y-105564322D01*
X136275001Y-111901420D01*
X132716427Y-115459995D01*
X132642531Y-115509371D01*
X132446928Y-115802111D01*
X132395580Y-116060256D01*
X132395580Y-116060259D01*
X132378243Y-116147420D01*
X132395580Y-116234581D01*
X132395580Y-117680809D01*
X132080000Y-117618036D01*
X131539378Y-117725572D01*
X131081060Y-118031811D01*
X130794455Y-118460746D01*
X130771499Y-118383183D01*
X130429944Y-117961202D01*
X129952903Y-117702050D01*
X129881275Y-117687867D01*
X129667000Y-117810521D01*
X129667000Y-119253000D01*
X129687000Y-119253000D01*
X129687000Y-119507000D01*
X129667000Y-119507000D01*
X129667000Y-120949479D01*
X129881275Y-121072133D01*
X129952903Y-121057950D01*
X130429944Y-120798798D01*
X130771499Y-120376817D01*
X130794455Y-120299255D01*
X131081061Y-120728190D01*
X131195000Y-120804322D01*
X131195000Y-121299421D01*
X129173422Y-123321000D01*
X127964127Y-123321000D01*
X127876967Y-123303663D01*
X127789807Y-123321000D01*
X127789803Y-123321000D01*
X127531658Y-123372348D01*
X127507243Y-123388662D01*
X127312813Y-123518576D01*
X127312812Y-123518577D01*
X127238919Y-123567951D01*
X127189545Y-123641844D01*
X124471279Y-126360111D01*
X124460000Y-126357867D01*
X124144420Y-126420640D01*
X124144420Y-121079191D01*
X124460000Y-121141964D01*
X125000622Y-121034428D01*
X125458940Y-120728190D01*
X125730000Y-120322520D01*
X126001061Y-120728190D01*
X126459379Y-121034428D01*
X127000000Y-121141964D01*
X127540622Y-121034428D01*
X127998940Y-120728190D01*
X128285545Y-120299255D01*
X128308501Y-120376817D01*
X128650056Y-120798798D01*
X129127097Y-121057950D01*
X129198725Y-121072133D01*
X129413000Y-120949479D01*
X129413000Y-119507000D01*
X129393000Y-119507000D01*
X129393000Y-119253000D01*
X129413000Y-119253000D01*
X129413000Y-117810521D01*
X129198725Y-117687867D01*
X129127097Y-117702050D01*
X128650056Y-117961202D01*
X128308501Y-118383183D01*
X128285545Y-118460745D01*
X127998939Y-118031810D01*
X127540621Y-117725572D01*
X127000000Y-117618036D01*
X126459378Y-117725572D01*
X126001060Y-118031811D01*
X125730000Y-118437481D01*
X125458939Y-118031810D01*
X125000621Y-117725572D01*
X124460000Y-117618036D01*
X124144420Y-117680809D01*
X124144420Y-113327158D01*
X131654293Y-105817286D01*
X132080000Y-105901964D01*
X132620622Y-105794428D01*
X133078940Y-105488190D01*
X133350000Y-105082520D01*
X133621061Y-105488190D01*
X134079379Y-105794428D01*
X134620000Y-105901964D01*
X135160622Y-105794428D01*
X135618940Y-105488190D01*
X135890000Y-105082520D01*
X136161061Y-105488190D01*
G36*
X148861061Y-105488190D02*
X148975000Y-105564322D01*
X148975000Y-105826984D01*
X148975001Y-105826989D01*
X148975000Y-111886295D01*
X142993490Y-117867806D01*
X142971404Y-117853049D01*
X147884156Y-112940297D01*
X147958049Y-112890923D01*
X148014356Y-112806655D01*
X148153652Y-112598184D01*
X148164502Y-112543635D01*
X148205000Y-112340039D01*
X148205000Y-112340035D01*
X148222337Y-112252874D01*
X148205000Y-112165713D01*
X148205000Y-105564322D01*
X148318940Y-105488190D01*
X148590000Y-105082520D01*
X148861061Y-105488190D01*
X148861061Y-105488190D01*
G37*
X148861061Y-105488190D02*
X148975000Y-105564322D01*
X148975000Y-105826984D01*
X148975001Y-105826989D01*
X148975000Y-111886295D01*
X142993490Y-117867806D01*
X142971404Y-117853049D01*
X147884156Y-112940297D01*
X147958049Y-112890923D01*
X148014356Y-112806655D01*
X148153652Y-112598184D01*
X148164502Y-112543635D01*
X148205000Y-112340039D01*
X148205000Y-112340035D01*
X148222337Y-112252874D01*
X148205000Y-112165713D01*
X148205000Y-105564322D01*
X148318940Y-105488190D01*
X148590000Y-105082520D01*
X148861061Y-105488190D01*
G36*
X146321061Y-105488190D02*
X146435000Y-105564322D01*
X146435001Y-111886294D01*
X140453490Y-117867806D01*
X140432858Y-117854020D01*
X145344156Y-112942723D01*
X145418049Y-112893349D01*
X145475977Y-112806655D01*
X145613652Y-112600610D01*
X145624985Y-112543635D01*
X145665000Y-112342465D01*
X145665000Y-112342461D01*
X145682337Y-112255300D01*
X145665000Y-112168139D01*
X145665000Y-105564322D01*
X145778940Y-105488190D01*
X146050000Y-105082520D01*
X146321061Y-105488190D01*
X146321061Y-105488190D01*
G37*
X146321061Y-105488190D02*
X146435000Y-105564322D01*
X146435001Y-111886294D01*
X140453490Y-117867806D01*
X140432858Y-117854020D01*
X145344156Y-112942723D01*
X145418049Y-112893349D01*
X145475977Y-112806655D01*
X145613652Y-112600610D01*
X145624985Y-112543635D01*
X145665000Y-112342465D01*
X145665000Y-112342461D01*
X145682337Y-112255300D01*
X145665000Y-112168139D01*
X145665000Y-105564322D01*
X145778940Y-105488190D01*
X146050000Y-105082520D01*
X146321061Y-105488190D01*
G36*
X143781061Y-105488190D02*
X143895001Y-105564322D01*
X143895000Y-111888721D01*
X138645863Y-117137859D01*
X138638549Y-117142746D01*
X138638548Y-117142747D01*
X138564655Y-117192121D01*
X138515281Y-117266014D01*
X137935266Y-117846030D01*
X137908083Y-117864193D01*
X137891404Y-117853049D01*
X142796845Y-112947608D01*
X142878049Y-112893349D01*
X143073652Y-112600610D01*
X143125000Y-112342465D01*
X143125000Y-112342464D01*
X143142338Y-112255300D01*
X143125000Y-112168135D01*
X143125000Y-105564322D01*
X143238940Y-105488190D01*
X143510000Y-105082520D01*
X143781061Y-105488190D01*
X143781061Y-105488190D01*
G37*
X143781061Y-105488190D02*
X143895001Y-105564322D01*
X143895000Y-111888721D01*
X138645863Y-117137859D01*
X138638549Y-117142746D01*
X138638548Y-117142747D01*
X138564655Y-117192121D01*
X138515281Y-117266014D01*
X137935266Y-117846030D01*
X137908083Y-117864193D01*
X137891404Y-117853049D01*
X142796845Y-112947608D01*
X142878049Y-112893349D01*
X143073652Y-112600610D01*
X143125000Y-112342465D01*
X143125000Y-112342464D01*
X143142338Y-112255300D01*
X143125000Y-112168135D01*
X143125000Y-105564322D01*
X143238940Y-105488190D01*
X143510000Y-105082520D01*
X143781061Y-105488190D01*
G36*
X128541061Y-105488190D02*
X128999379Y-105794428D01*
X129145023Y-105823398D01*
X122695267Y-112273155D01*
X122621371Y-112322531D01*
X122425768Y-112615271D01*
X122374420Y-112873416D01*
X122374420Y-112873419D01*
X122357083Y-112960580D01*
X122374420Y-113047741D01*
X122374420Y-117708426D01*
X121920000Y-117618036D01*
X121465580Y-117708425D01*
X121465580Y-113047739D01*
X121482917Y-112960579D01*
X121465580Y-112873419D01*
X121465580Y-112873415D01*
X121414232Y-112615270D01*
X121342195Y-112507460D01*
X121268004Y-112396425D01*
X121268003Y-112396424D01*
X121218629Y-112322531D01*
X121144736Y-112273157D01*
X115185000Y-106313422D01*
X115185000Y-105564322D01*
X115298940Y-105488190D01*
X115570000Y-105082520D01*
X115841061Y-105488190D01*
X116299379Y-105794428D01*
X116840000Y-105901964D01*
X117380622Y-105794428D01*
X117838940Y-105488190D01*
X118110000Y-105082520D01*
X118381061Y-105488190D01*
X118839379Y-105794428D01*
X119380000Y-105901964D01*
X119920622Y-105794428D01*
X120378940Y-105488190D01*
X120650000Y-105082520D01*
X120921061Y-105488190D01*
X121379379Y-105794428D01*
X121920000Y-105901964D01*
X122460622Y-105794428D01*
X122918940Y-105488190D01*
X123190000Y-105082520D01*
X123461061Y-105488190D01*
X123919379Y-105794428D01*
X124460000Y-105901964D01*
X125000622Y-105794428D01*
X125458940Y-105488190D01*
X125730000Y-105082520D01*
X126001061Y-105488190D01*
X126459379Y-105794428D01*
X127000000Y-105901964D01*
X127540622Y-105794428D01*
X127998940Y-105488190D01*
X128270000Y-105082520D01*
X128541061Y-105488190D01*
X128541061Y-105488190D01*
G37*
X128541061Y-105488190D02*
X128999379Y-105794428D01*
X129145023Y-105823398D01*
X122695267Y-112273155D01*
X122621371Y-112322531D01*
X122425768Y-112615271D01*
X122374420Y-112873416D01*
X122374420Y-112873419D01*
X122357083Y-112960580D01*
X122374420Y-113047741D01*
X122374420Y-117708426D01*
X121920000Y-117618036D01*
X121465580Y-117708425D01*
X121465580Y-113047739D01*
X121482917Y-112960579D01*
X121465580Y-112873419D01*
X121465580Y-112873415D01*
X121414232Y-112615270D01*
X121342195Y-112507460D01*
X121268004Y-112396425D01*
X121268003Y-112396424D01*
X121218629Y-112322531D01*
X121144736Y-112273157D01*
X115185000Y-106313422D01*
X115185000Y-105564322D01*
X115298940Y-105488190D01*
X115570000Y-105082520D01*
X115841061Y-105488190D01*
X116299379Y-105794428D01*
X116840000Y-105901964D01*
X117380622Y-105794428D01*
X117838940Y-105488190D01*
X118110000Y-105082520D01*
X118381061Y-105488190D01*
X118839379Y-105794428D01*
X119380000Y-105901964D01*
X119920622Y-105794428D01*
X120378940Y-105488190D01*
X120650000Y-105082520D01*
X120921061Y-105488190D01*
X121379379Y-105794428D01*
X121920000Y-105901964D01*
X122460622Y-105794428D01*
X122918940Y-105488190D01*
X123190000Y-105082520D01*
X123461061Y-105488190D01*
X123919379Y-105794428D01*
X124460000Y-105901964D01*
X125000622Y-105794428D01*
X125458940Y-105488190D01*
X125730000Y-105082520D01*
X126001061Y-105488190D01*
X126459379Y-105794428D01*
X127000000Y-105901964D01*
X127540622Y-105794428D01*
X127998940Y-105488190D01*
X128270000Y-105082520D01*
X128541061Y-105488190D01*
G36*
X141241061Y-105488190D02*
X141355000Y-105564322D01*
X141355001Y-111079000D01*
X141038017Y-111079000D01*
X140694365Y-111221345D01*
X140431345Y-111484365D01*
X140372365Y-111626756D01*
X134321763Y-117677359D01*
X134165580Y-117708425D01*
X134165580Y-116513998D01*
X137724156Y-112955423D01*
X137798049Y-112906049D01*
X137864463Y-112806655D01*
X137959281Y-112664749D01*
X137993652Y-112613310D01*
X138045000Y-112355165D01*
X138045000Y-112355161D01*
X138062337Y-112268001D01*
X138045000Y-112180841D01*
X138045000Y-105564322D01*
X138158940Y-105488190D01*
X138430000Y-105082520D01*
X138701061Y-105488190D01*
X139159379Y-105794428D01*
X139700000Y-105901964D01*
X140240622Y-105794428D01*
X140698940Y-105488190D01*
X140970000Y-105082520D01*
X141241061Y-105488190D01*
X141241061Y-105488190D01*
G37*
X141241061Y-105488190D02*
X141355000Y-105564322D01*
X141355001Y-111079000D01*
X141038017Y-111079000D01*
X140694365Y-111221345D01*
X140431345Y-111484365D01*
X140372365Y-111626756D01*
X134321763Y-117677359D01*
X134165580Y-117708425D01*
X134165580Y-116513998D01*
X137724156Y-112955423D01*
X137798049Y-112906049D01*
X137864463Y-112806655D01*
X137959281Y-112664749D01*
X137993652Y-112613310D01*
X138045000Y-112355165D01*
X138045000Y-112355161D01*
X138062337Y-112268001D01*
X138045000Y-112180841D01*
X138045000Y-105564322D01*
X138158940Y-105488190D01*
X138430000Y-105082520D01*
X138701061Y-105488190D01*
X139159379Y-105794428D01*
X139700000Y-105901964D01*
X140240622Y-105794428D01*
X140698940Y-105488190D01*
X140970000Y-105082520D01*
X141241061Y-105488190D01*
G36*
X176729375Y-95114125D02*
X177220582Y-95442339D01*
X177653744Y-95528500D01*
X177946256Y-95528500D01*
X178130904Y-95491771D01*
X178974967Y-96335835D01*
X178974968Y-105309247D01*
X178935000Y-105282541D01*
X178935000Y-104505783D01*
X178957235Y-104394000D01*
X178869146Y-103951145D01*
X178618289Y-103575711D01*
X178523521Y-103512390D01*
X176707440Y-101696309D01*
X176707440Y-100800000D01*
X176658157Y-100552235D01*
X176517809Y-100342191D01*
X176307765Y-100201843D01*
X176073813Y-100155307D01*
X176088139Y-100107745D01*
X175260000Y-99279605D01*
X174431861Y-100107745D01*
X174446187Y-100155307D01*
X174212235Y-100201843D01*
X174002191Y-100342191D01*
X173920132Y-100465000D01*
X173016000Y-100465000D01*
X173016000Y-100014279D01*
X172835595Y-99578741D01*
X172502249Y-99245395D01*
X172066711Y-99064990D01*
X171595289Y-99064990D01*
X171474578Y-99114990D01*
X163050445Y-99114990D01*
X163415134Y-98942389D01*
X163468730Y-98883223D01*
X173813035Y-98883223D01*
X173840222Y-99453454D01*
X174006136Y-99854005D01*
X174252255Y-99928139D01*
X175080395Y-99100000D01*
X175439605Y-99100000D01*
X176267745Y-99928139D01*
X176513864Y-99854005D01*
X176706965Y-99316777D01*
X176679778Y-98746546D01*
X176513864Y-98345995D01*
X176267745Y-98271861D01*
X175439605Y-99100000D01*
X175080395Y-99100000D01*
X174252255Y-98271861D01*
X174006136Y-98345995D01*
X173813035Y-98883223D01*
X163468730Y-98883223D01*
X163791041Y-98527423D01*
X163951904Y-98139039D01*
X163926201Y-98092255D01*
X174431861Y-98092255D01*
X175260000Y-98920395D01*
X176088139Y-98092255D01*
X176014005Y-97846136D01*
X175476777Y-97653035D01*
X174906546Y-97680222D01*
X174505995Y-97846136D01*
X174431861Y-98092255D01*
X163926201Y-98092255D01*
X163829915Y-97917000D01*
X162687000Y-97917000D01*
X162687000Y-97937000D01*
X162433000Y-97937000D01*
X162433000Y-97917000D01*
X161290085Y-97917000D01*
X161168096Y-98139039D01*
X161328959Y-98527423D01*
X161704866Y-98942389D01*
X162069555Y-99114990D01*
X155491026Y-99114990D01*
X155752862Y-99006534D01*
X156156534Y-98602862D01*
X156375000Y-98075439D01*
X156375000Y-97504561D01*
X156348656Y-97440961D01*
X161168096Y-97440961D01*
X161290085Y-97663000D01*
X162433000Y-97663000D01*
X162433000Y-96519371D01*
X162687000Y-96519371D01*
X162687000Y-97663000D01*
X163829915Y-97663000D01*
X163951904Y-97440961D01*
X163791041Y-97052577D01*
X163415134Y-96637611D01*
X162909041Y-96398086D01*
X162687000Y-96519371D01*
X162433000Y-96519371D01*
X162210959Y-96398086D01*
X161704866Y-96637611D01*
X161328959Y-97052577D01*
X161168096Y-97440961D01*
X156348656Y-97440961D01*
X156156534Y-96977138D01*
X155752862Y-96573466D01*
X155225439Y-96355000D01*
X154654561Y-96355000D01*
X154127138Y-96573466D01*
X153723466Y-96977138D01*
X153650000Y-97154500D01*
X153576534Y-96977138D01*
X153172862Y-96573466D01*
X152645439Y-96355000D01*
X152074561Y-96355000D01*
X151547138Y-96573466D01*
X151143466Y-96977138D01*
X151110000Y-97057932D01*
X151076534Y-96977138D01*
X150672862Y-96573466D01*
X150145439Y-96355000D01*
X149574561Y-96355000D01*
X149047138Y-96573466D01*
X148643466Y-96977138D01*
X148425000Y-97504561D01*
X148425000Y-98075439D01*
X148453234Y-98143603D01*
X147185613Y-96875982D01*
X147122289Y-96781211D01*
X147027524Y-96717891D01*
X145915000Y-95605369D01*
X145915000Y-95017781D01*
X146050000Y-94815739D01*
X146249375Y-95114125D01*
X146740582Y-95442339D01*
X147173744Y-95528500D01*
X147466256Y-95528500D01*
X147899418Y-95442339D01*
X148390625Y-95114125D01*
X148590000Y-94815739D01*
X148789375Y-95114125D01*
X149280582Y-95442339D01*
X149713744Y-95528500D01*
X150006256Y-95528500D01*
X150439418Y-95442339D01*
X150930625Y-95114125D01*
X151130000Y-94815739D01*
X151329375Y-95114125D01*
X151820582Y-95442339D01*
X152253744Y-95528500D01*
X152546256Y-95528500D01*
X152979418Y-95442339D01*
X153470625Y-95114125D01*
X153670000Y-94815739D01*
X153869375Y-95114125D01*
X154360582Y-95442339D01*
X154793744Y-95528500D01*
X155086256Y-95528500D01*
X155519418Y-95442339D01*
X156010625Y-95114125D01*
X156210000Y-94815739D01*
X156409375Y-95114125D01*
X156900582Y-95442339D01*
X157333744Y-95528500D01*
X157626256Y-95528500D01*
X158059418Y-95442339D01*
X158550625Y-95114125D01*
X158750000Y-94815739D01*
X158949375Y-95114125D01*
X159440582Y-95442339D01*
X159873744Y-95528500D01*
X160166256Y-95528500D01*
X160599418Y-95442339D01*
X161090625Y-95114125D01*
X161290000Y-94815739D01*
X161489375Y-95114125D01*
X161980582Y-95442339D01*
X162413744Y-95528500D01*
X162706256Y-95528500D01*
X163139418Y-95442339D01*
X163630625Y-95114125D01*
X163830000Y-94815739D01*
X164029375Y-95114125D01*
X164520582Y-95442339D01*
X164953744Y-95528500D01*
X165246256Y-95528500D01*
X165679418Y-95442339D01*
X166170625Y-95114125D01*
X166370000Y-94815739D01*
X166569375Y-95114125D01*
X167060582Y-95442339D01*
X167493744Y-95528500D01*
X167786256Y-95528500D01*
X168219418Y-95442339D01*
X168710625Y-95114125D01*
X168910000Y-94815739D01*
X169109375Y-95114125D01*
X169600582Y-95442339D01*
X170033744Y-95528500D01*
X170326256Y-95528500D01*
X170759418Y-95442339D01*
X171250625Y-95114125D01*
X171450000Y-94815739D01*
X171649375Y-95114125D01*
X172140582Y-95442339D01*
X172573744Y-95528500D01*
X172866256Y-95528500D01*
X173299418Y-95442339D01*
X173790625Y-95114125D01*
X173990000Y-94815739D01*
X174189375Y-95114125D01*
X174680582Y-95442339D01*
X175113744Y-95528500D01*
X175406256Y-95528500D01*
X175839418Y-95442339D01*
X176330625Y-95114125D01*
X176530000Y-94815739D01*
X176729375Y-95114125D01*
X176729375Y-95114125D01*
G37*
X176729375Y-95114125D02*
X177220582Y-95442339D01*
X177653744Y-95528500D01*
X177946256Y-95528500D01*
X178130904Y-95491771D01*
X178974967Y-96335835D01*
X178974968Y-105309247D01*
X178935000Y-105282541D01*
X178935000Y-104505783D01*
X178957235Y-104394000D01*
X178869146Y-103951145D01*
X178618289Y-103575711D01*
X178523521Y-103512390D01*
X176707440Y-101696309D01*
X176707440Y-100800000D01*
X176658157Y-100552235D01*
X176517809Y-100342191D01*
X176307765Y-100201843D01*
X176073813Y-100155307D01*
X176088139Y-100107745D01*
X175260000Y-99279605D01*
X174431861Y-100107745D01*
X174446187Y-100155307D01*
X174212235Y-100201843D01*
X174002191Y-100342191D01*
X173920132Y-100465000D01*
X173016000Y-100465000D01*
X173016000Y-100014279D01*
X172835595Y-99578741D01*
X172502249Y-99245395D01*
X172066711Y-99064990D01*
X171595289Y-99064990D01*
X171474578Y-99114990D01*
X163050445Y-99114990D01*
X163415134Y-98942389D01*
X163468730Y-98883223D01*
X173813035Y-98883223D01*
X173840222Y-99453454D01*
X174006136Y-99854005D01*
X174252255Y-99928139D01*
X175080395Y-99100000D01*
X175439605Y-99100000D01*
X176267745Y-99928139D01*
X176513864Y-99854005D01*
X176706965Y-99316777D01*
X176679778Y-98746546D01*
X176513864Y-98345995D01*
X176267745Y-98271861D01*
X175439605Y-99100000D01*
X175080395Y-99100000D01*
X174252255Y-98271861D01*
X174006136Y-98345995D01*
X173813035Y-98883223D01*
X163468730Y-98883223D01*
X163791041Y-98527423D01*
X163951904Y-98139039D01*
X163926201Y-98092255D01*
X174431861Y-98092255D01*
X175260000Y-98920395D01*
X176088139Y-98092255D01*
X176014005Y-97846136D01*
X175476777Y-97653035D01*
X174906546Y-97680222D01*
X174505995Y-97846136D01*
X174431861Y-98092255D01*
X163926201Y-98092255D01*
X163829915Y-97917000D01*
X162687000Y-97917000D01*
X162687000Y-97937000D01*
X162433000Y-97937000D01*
X162433000Y-97917000D01*
X161290085Y-97917000D01*
X161168096Y-98139039D01*
X161328959Y-98527423D01*
X161704866Y-98942389D01*
X162069555Y-99114990D01*
X155491026Y-99114990D01*
X155752862Y-99006534D01*
X156156534Y-98602862D01*
X156375000Y-98075439D01*
X156375000Y-97504561D01*
X156348656Y-97440961D01*
X161168096Y-97440961D01*
X161290085Y-97663000D01*
X162433000Y-97663000D01*
X162433000Y-96519371D01*
X162687000Y-96519371D01*
X162687000Y-97663000D01*
X163829915Y-97663000D01*
X163951904Y-97440961D01*
X163791041Y-97052577D01*
X163415134Y-96637611D01*
X162909041Y-96398086D01*
X162687000Y-96519371D01*
X162433000Y-96519371D01*
X162210959Y-96398086D01*
X161704866Y-96637611D01*
X161328959Y-97052577D01*
X161168096Y-97440961D01*
X156348656Y-97440961D01*
X156156534Y-96977138D01*
X155752862Y-96573466D01*
X155225439Y-96355000D01*
X154654561Y-96355000D01*
X154127138Y-96573466D01*
X153723466Y-96977138D01*
X153650000Y-97154500D01*
X153576534Y-96977138D01*
X153172862Y-96573466D01*
X152645439Y-96355000D01*
X152074561Y-96355000D01*
X151547138Y-96573466D01*
X151143466Y-96977138D01*
X151110000Y-97057932D01*
X151076534Y-96977138D01*
X150672862Y-96573466D01*
X150145439Y-96355000D01*
X149574561Y-96355000D01*
X149047138Y-96573466D01*
X148643466Y-96977138D01*
X148425000Y-97504561D01*
X148425000Y-98075439D01*
X148453234Y-98143603D01*
X147185613Y-96875982D01*
X147122289Y-96781211D01*
X147027524Y-96717891D01*
X145915000Y-95605369D01*
X145915000Y-95017781D01*
X146050000Y-94815739D01*
X146249375Y-95114125D01*
X146740582Y-95442339D01*
X147173744Y-95528500D01*
X147466256Y-95528500D01*
X147899418Y-95442339D01*
X148390625Y-95114125D01*
X148590000Y-94815739D01*
X148789375Y-95114125D01*
X149280582Y-95442339D01*
X149713744Y-95528500D01*
X150006256Y-95528500D01*
X150439418Y-95442339D01*
X150930625Y-95114125D01*
X151130000Y-94815739D01*
X151329375Y-95114125D01*
X151820582Y-95442339D01*
X152253744Y-95528500D01*
X152546256Y-95528500D01*
X152979418Y-95442339D01*
X153470625Y-95114125D01*
X153670000Y-94815739D01*
X153869375Y-95114125D01*
X154360582Y-95442339D01*
X154793744Y-95528500D01*
X155086256Y-95528500D01*
X155519418Y-95442339D01*
X156010625Y-95114125D01*
X156210000Y-94815739D01*
X156409375Y-95114125D01*
X156900582Y-95442339D01*
X157333744Y-95528500D01*
X157626256Y-95528500D01*
X158059418Y-95442339D01*
X158550625Y-95114125D01*
X158750000Y-94815739D01*
X158949375Y-95114125D01*
X159440582Y-95442339D01*
X159873744Y-95528500D01*
X160166256Y-95528500D01*
X160599418Y-95442339D01*
X161090625Y-95114125D01*
X161290000Y-94815739D01*
X161489375Y-95114125D01*
X161980582Y-95442339D01*
X162413744Y-95528500D01*
X162706256Y-95528500D01*
X163139418Y-95442339D01*
X163630625Y-95114125D01*
X163830000Y-94815739D01*
X164029375Y-95114125D01*
X164520582Y-95442339D01*
X164953744Y-95528500D01*
X165246256Y-95528500D01*
X165679418Y-95442339D01*
X166170625Y-95114125D01*
X166370000Y-94815739D01*
X166569375Y-95114125D01*
X167060582Y-95442339D01*
X167493744Y-95528500D01*
X167786256Y-95528500D01*
X168219418Y-95442339D01*
X168710625Y-95114125D01*
X168910000Y-94815739D01*
X169109375Y-95114125D01*
X169600582Y-95442339D01*
X170033744Y-95528500D01*
X170326256Y-95528500D01*
X170759418Y-95442339D01*
X171250625Y-95114125D01*
X171450000Y-94815739D01*
X171649375Y-95114125D01*
X172140582Y-95442339D01*
X172573744Y-95528500D01*
X172866256Y-95528500D01*
X173299418Y-95442339D01*
X173790625Y-95114125D01*
X173990000Y-94815739D01*
X174189375Y-95114125D01*
X174680582Y-95442339D01*
X175113744Y-95528500D01*
X175406256Y-95528500D01*
X175839418Y-95442339D01*
X176330625Y-95114125D01*
X176530000Y-94815739D01*
X176729375Y-95114125D01*
G36*
X140755000Y-93067191D02*
X140755000Y-93757750D01*
X140913750Y-93916500D01*
X142113000Y-93916500D01*
X142113000Y-93896500D01*
X142367000Y-93896500D01*
X142367000Y-93916500D01*
X142387000Y-93916500D01*
X142387000Y-94170500D01*
X142367000Y-94170500D01*
X142367000Y-95369750D01*
X142525750Y-95528500D01*
X143216310Y-95528500D01*
X143449699Y-95431827D01*
X143628327Y-95253198D01*
X143645001Y-95212944D01*
X143645001Y-95963712D01*
X143622765Y-96075500D01*
X143710854Y-96518354D01*
X143710855Y-96518355D01*
X143961712Y-96893789D01*
X144056479Y-96957110D01*
X144667118Y-97567750D01*
X144609869Y-97625000D01*
X144494561Y-97625000D01*
X143967138Y-97843466D01*
X143563466Y-98247138D01*
X143345000Y-98774561D01*
X143345000Y-99345439D01*
X143563466Y-99872862D01*
X143967138Y-100276534D01*
X144422135Y-100465000D01*
X137452153Y-100465000D01*
X137719909Y-100411740D01*
X138194577Y-100094577D01*
X138511740Y-99619909D01*
X138587849Y-99237282D01*
X138899521Y-98925611D01*
X138994289Y-98862289D01*
X139245146Y-98486855D01*
X139311000Y-98155783D01*
X139311000Y-98155782D01*
X139333235Y-98044000D01*
X139311000Y-97932217D01*
X139311000Y-95015817D01*
X139477310Y-94849507D01*
X139692807Y-94329250D01*
X140755000Y-94329250D01*
X140755000Y-95019809D01*
X140851673Y-95253198D01*
X141030301Y-95431827D01*
X141263690Y-95528500D01*
X141954250Y-95528500D01*
X142113000Y-95369750D01*
X142113000Y-94170500D01*
X140913750Y-94170500D01*
X140755000Y-94329250D01*
X139692807Y-94329250D01*
X139711000Y-94285330D01*
X139711000Y-93674670D01*
X139477310Y-93110493D01*
X139339817Y-92973000D01*
X140794015Y-92973000D01*
X140755000Y-93067191D01*
X140755000Y-93067191D01*
G37*
X140755000Y-93067191D02*
X140755000Y-93757750D01*
X140913750Y-93916500D01*
X142113000Y-93916500D01*
X142113000Y-93896500D01*
X142367000Y-93896500D01*
X142367000Y-93916500D01*
X142387000Y-93916500D01*
X142387000Y-94170500D01*
X142367000Y-94170500D01*
X142367000Y-95369750D01*
X142525750Y-95528500D01*
X143216310Y-95528500D01*
X143449699Y-95431827D01*
X143628327Y-95253198D01*
X143645001Y-95212944D01*
X143645001Y-95963712D01*
X143622765Y-96075500D01*
X143710854Y-96518354D01*
X143710855Y-96518355D01*
X143961712Y-96893789D01*
X144056479Y-96957110D01*
X144667118Y-97567750D01*
X144609869Y-97625000D01*
X144494561Y-97625000D01*
X143967138Y-97843466D01*
X143563466Y-98247138D01*
X143345000Y-98774561D01*
X143345000Y-99345439D01*
X143563466Y-99872862D01*
X143967138Y-100276534D01*
X144422135Y-100465000D01*
X137452153Y-100465000D01*
X137719909Y-100411740D01*
X138194577Y-100094577D01*
X138511740Y-99619909D01*
X138587849Y-99237282D01*
X138899521Y-98925611D01*
X138994289Y-98862289D01*
X139245146Y-98486855D01*
X139311000Y-98155783D01*
X139311000Y-98155782D01*
X139333235Y-98044000D01*
X139311000Y-97932217D01*
X139311000Y-95015817D01*
X139477310Y-94849507D01*
X139692807Y-94329250D01*
X140755000Y-94329250D01*
X140755000Y-95019809D01*
X140851673Y-95253198D01*
X141030301Y-95431827D01*
X141263690Y-95528500D01*
X141954250Y-95528500D01*
X142113000Y-95369750D01*
X142113000Y-94170500D01*
X140913750Y-94170500D01*
X140755000Y-94329250D01*
X139692807Y-94329250D01*
X139711000Y-94285330D01*
X139711000Y-93674670D01*
X139477310Y-93110493D01*
X139339817Y-92973000D01*
X140794015Y-92973000D01*
X140755000Y-93067191D01*
G04 #@! TD*
M02*
