<?xml version="1.0" standalone="no"?>
 <!DOCTYPE svg PUBLIC "-//W3C//DTD SVG 1.1//EN" 
 "http://www.w3.org/Graphics/SVG/1.1/DTD/svg11.dtd"> 
<svg xmlns="http://www.w3.org/2000/svg" version="1.1" 
    width="29.7002cm" height="21.0007cm" viewBox="0 0 116930 82680 ">
<title>SVG Picture created as Lawo 28x13 Interface-NPTH-drl_map.svg date 2019/06/23 04:24:55 </title>
  <desc>Picture generated by PCBNEW </desc>
<g style="fill:#000000; fill-opacity:1;stroke:#000000; stroke-opacity:1;
stroke-linecap:round; stroke-linejoin:round; "
 transform="translate(0 0) scale(1 1)">
</g>
<g style="fill:#000000; fill-opacity:0.0; 
stroke:#000000; stroke-width:-0.000393701; stroke-opacity:1; 
stroke-linecap:round; stroke-linejoin:round;">
</g>
<g style="fill:#000000; fill-opacity:0.0; 
stroke:#000000; stroke-width:39.3701; stroke-opacity:1; 
stroke-linecap:round; stroke-linejoin:round;">
<path d="M41500 53150
L41500 35200
" />
<path d="M74500 53150
L74500 35200
" />
<path d="M74000 53650
L42000 53650
" />
<path d="M42000 34700
L74000 34700
" />
<path d="M42000 34700 A500 500 0.0 0 0 41500 35200 " />
<path d="M41500 53150 A500 500 0.0 0 0 42000 53650 " />
<path d="M74500 35200 A500 500 0.0 0 0 74000 34700 " />
<path d="M74000 53650 A500 500 0.0 0 0 74500 53150 " />
</g>
<g style="fill:#000000; fill-opacity:0.0; 
stroke:#000000; stroke-width:78.7402; stroke-opacity:1; 
stroke-linecap:round; stroke-linejoin:round;">
</g>
<g style="fill:#000000; fill-opacity:0.0; 
stroke:#000000; stroke-width:118.11; stroke-opacity:1; 
stroke-linecap:round; stroke-linejoin:round;">
<path d="M42607 55503
L42607 54322
L42889 54322
L43057 54378
L43170 54490
L43226 54603
L43282 54828
L43282 54997
L43226 55221
L43170 55334
L43057 55446
L42889 55503
L42607 55503
" />
<path d="M43789 55503
L43789 54715
" />
<path d="M43789 54940
L43845 54828
L43901 54772
L44014 54715
L44126 54715
" />
<path d="M44520 55503
L44520 54715
" />
<path d="M44520 54322
L44464 54378
L44520 54434
L44576 54378
L44520 54322
L44520 54434
" />
<path d="M45251 55503
L45138 55446
L45082 55334
L45082 54322
" />
<path d="M45870 55503
L45757 55446
L45701 55334
L45701 54322
" />
<path d="M47219 55503
L47219 54322
L47613 55165
L48007 54322
L48007 55503
" />
<path d="M49075 55503
L49075 54884
L49019 54772
L48907 54715
L48682 54715
L48569 54772
" />
<path d="M49075 55446
L48963 55503
L48682 55503
L48569 55446
L48513 55334
L48513 55221
L48569 55109
L48682 55053
L48963 55053
L49075 54997
" />
<path d="M49638 54715
L49638 55896
" />
<path d="M49638 54772
L49750 54715
L49975 54715
L50088 54772
L50144 54828
L50200 54940
L50200 55278
L50144 55390
L50088 55446
L49975 55503
L49750 55503
L49638 55446
" />
<path d="M50706 55390
L50763 55446
L50706 55503
L50650 55446
L50706 55390
L50706 55503
" />
<path d="M50706 54772
L50763 54828
L50706 54884
L50650 54828
L50706 54772
L50706 54884
" />
</g> 
</svg>
