<?xml version="1.0" standalone="no"?>
 <!DOCTYPE svg PUBLIC "-//W3C//DTD SVG 1.1//EN" 
 "http://www.w3.org/Graphics/SVG/1.1/DTD/svg11.dtd"> 
<svg xmlns="http://www.w3.org/2000/svg" version="1.1" 
    width="29.7002cm" height="21.0007cm" viewBox="0 0 116930 82680 ">
<title>SVG Picture created as Lawo 28x13-F.Cu.svg date 2019/02/11 22:12:15 </title>
  <desc>Picture generated by PCBNEW </desc>
<g style="fill:#000000; fill-opacity:1;stroke:#000000; stroke-opacity:1;
stroke-linecap:round; stroke-linejoin:round; "
 transform="translate(0 0) scale(1 1)">
</g>
<g style="fill:#000000; fill-opacity:0.0; 
stroke:#000000; stroke-width:-0.000393701; stroke-opacity:1; 
stroke-linecap:round; stroke-linejoin:round;">
</g>
<g style="fill:#000000; fill-opacity:0.0; 
stroke:#000000; stroke-width:118.11; stroke-opacity:1; 
stroke-linecap:round; stroke-linejoin:round;">
<path d="M72676 44773
L72676 44435
" />
<path d="M73267 44604
L72676 44604
" />
<path d="M72676 44126
L72676 44014
L72704 43957
L72760 43901
L72873 43873
L73070 43873
L73182 43901
L73239 43957
L73267 44014
L73267 44126
L73239 44182
L73182 44239
L73070 44267
L72873 44267
L72760 44239
L72704 44182
L72676 44126
" />
<path d="M73267 43620
L72676 43620
L72676 43395
L72704 43339
L72732 43311
L72789 43282
L72873 43282
L72929 43311
L72957 43339
L72985 43395
L72985 43620
" />
</g>
<g style="fill:#000000; fill-opacity:1.0; 
stroke:#000000; stroke-width:0; stroke-opacity:1; 
stroke-linecap:round; stroke-linejoin:round;">
<circle cx="66000" cy="42000" r="314.961" /> 
</g>
<g style="fill:#000000; fill-opacity:1.0; 
stroke:#000000; stroke-width:39.3701; stroke-opacity:1; 
stroke-linecap:round; stroke-linejoin:round;">
</g>
<g style="fill:#000000; fill-opacity:1.0; 
stroke:#000000; stroke-width:0; stroke-opacity:1; 
stroke-linecap:round; stroke-linejoin:round;">
<circle cx="66000" cy="42984.3" r="314.961" /> 
</g>
<g style="fill:#000000; fill-opacity:1.0; 
stroke:#000000; stroke-width:39.3701; stroke-opacity:1; 
stroke-linecap:round; stroke-linejoin:round;">
</g>
<g style="fill:#000000; fill-opacity:1.0; 
stroke:#000000; stroke-width:0; stroke-opacity:1; 
stroke-linecap:round; stroke-linejoin:round;">
<circle cx="53500" cy="37000" r="354.331" /> 
</g>
<g style="fill:#000000; fill-opacity:1.0; 
stroke:#000000; stroke-width:39.3701; stroke-opacity:1; 
stroke-linecap:round; stroke-linejoin:round;">
</g>
<g style="fill:#000000; fill-opacity:1.0; 
stroke:#000000; stroke-width:0; stroke-opacity:1; 
stroke-linecap:round; stroke-linejoin:round;">
<polyline style="fill-rule:evenodd;"
points="54854,36645
54854,37354
54145,37354
54145,36645
54854,36645
" /> 
<circle cx="57000" cy="39000" r="314.961" /> 
</g>
<g style="fill:#000000; fill-opacity:1.0; 
stroke:#000000; stroke-width:39.3701; stroke-opacity:1; 
stroke-linecap:round; stroke-linejoin:round;">
</g>
<g style="fill:#000000; fill-opacity:1.0; 
stroke:#000000; stroke-width:629.921; stroke-opacity:1; 
stroke-linecap:round; stroke-linejoin:round;">
</g>
<g style="fill:#000000; fill-opacity:0.0; 
stroke:#000000; stroke-width:629.921; stroke-opacity:1; 
stroke-linecap:round; stroke-linejoin:round;">
<path d="M54000 39000
L54000 39000
" />
</g>
<g style="fill:#000000; fill-opacity:0.0; 
stroke:#000000; stroke-width:591; stroke-opacity:1; 
stroke-linecap:round; stroke-linejoin:round;">
<path d="M45000 40862
L45000 41137
" />
<path d="M46000 40862
L46000 41137
" />
<path d="M47000 40862
L47000 41137
" />
<path d="M48000 40862
L48000 41137
" />
<path d="M49000 40862
L49000 41137
" />
<path d="M50000 40862
L50000 41137
" />
<path d="M51000 40862
L51000 41137
" />
<path d="M52000 40862
L52000 41137
" />
<path d="M53000 40862
L53000 41137
" />
<path d="M54000 40862
L54000 41137
" />
<path d="M55000 40862
L55000 41137
" />
<path d="M56000 40862
L56000 41137
" />
<path d="M57000 40862
L57000 41137
" />
<path d="M58000 40862
L58000 41137
" />
<path d="M59000 40862
L59000 41137
" />
<path d="M60000 40862
L60000 41137
" />
<path d="M61000 40862
L61000 41137
" />
<path d="M62000 40862
L62000 41137
" />
<path d="M63000 40862
L63000 41137
" />
<path d="M64000 40862
L64000 41137
" />
<path d="M64000 46862
L64000 47137
" />
<path d="M63000 46862
L63000 47137
" />
<path d="M62000 46862
L62000 47137
" />
<path d="M61000 46862
L61000 47137
" />
<path d="M60000 46862
L60000 47137
" />
<path d="M59000 46862
L59000 47137
" />
<path d="M58000 46862
L58000 47137
" />
<path d="M57000 46862
L57000 47137
" />
<path d="M56000 46862
L56000 47137
" />
<path d="M55000 46862
L55000 47137
" />
<path d="M54000 46862
L54000 47137
" />
<path d="M53000 46862
L53000 47137
" />
<path d="M52000 46862
L52000 47137
" />
<path d="M51000 46862
L51000 47137
" />
<path d="M50000 46862
L50000 47137
" />
<path d="M49000 46862
L49000 47137
" />
<path d="M48000 46862
L48000 47137
" />
<path d="M47000 46862
L47000 47137
" />
<path d="M46000 46862
L46000 47137
" />
<path d="M45000 46862
L45000 47137
" />
</g>
<g style="fill:#000000; fill-opacity:0.0; 
stroke:#000000; stroke-width:0; stroke-opacity:1; 
stroke-linecap:round; stroke-linejoin:round;">
</g>
<g style="fill:#000000; fill-opacity:1.0; 
stroke:#000000; stroke-width:0; stroke-opacity:1; 
stroke-linecap:round; stroke-linejoin:round;">
<polyline style="fill-rule:evenodd;"
points="47047,35762
47834,35762
47834,36550
47047,36550
47047,35762
" /> 
<circle cx="47440.9" cy="38243.3" r="393.701" /> 
</g>
<g style="fill:#000000; fill-opacity:1.0; 
stroke:#000000; stroke-width:39.3701; stroke-opacity:1; 
stroke-linecap:round; stroke-linejoin:round;">
</g>
<g style="fill:#000000; fill-opacity:1.0; 
stroke:#000000; stroke-width:1535.43; stroke-opacity:1; 
stroke-linecap:round; stroke-linejoin:round;">
</g>
<g style="fill:#000000; fill-opacity:0.0; 
stroke:#000000; stroke-width:1535.43; stroke-opacity:1; 
stroke-linecap:round; stroke-linejoin:round;">
<path d="M72346 51288
L73493 51011
" />
<path d="M43653 51288
L42506 51011
" />
</g>
<g style="fill:#000000; fill-opacity:0.0; 
stroke:#000000; stroke-width:590.551; stroke-opacity:1; 
stroke-linecap:round; stroke-linejoin:round;">
<path d="M50000 51696
L50000 51500
" />
<path d="M50000 50500
L50000 50303
" />
<path d="M49000 50500
L49000 50303
" />
<path d="M49000 51696
L49000 51500
" />
<path d="M48000 51696
L48000 51500
" />
<path d="M48000 50500
L48000 50303
" />
<path d="M46000 50500
L46000 50303
" />
<path d="M46000 51696
L46000 51500
" />
<path d="M47000 51696
L47000 51500
" />
<path d="M47000 50500
L47000 50303
" />
<path d="M52000 50500
L52000 50303
" />
<path d="M52000 51696
L52000 51500
" />
<path d="M51000 51696
L51000 51500
" />
<path d="M51000 50500
L51000 50303
" />
<path d="M53000 50500
L53000 50303
" />
<path d="M53000 51696
L53000 51500
" />
<path d="M54000 51696
L54000 51500
" />
<path d="M54000 50500
L54000 50303
" />
<path d="M55000 50500
L55000 50303
" />
<path d="M55000 51696
L55000 51500
" />
<path d="M57000 50500
L57000 50303
" />
<path d="M57000 51696
L57000 51500
" />
<path d="M56000 51696
L56000 51500
" />
<path d="M56000 50500
L56000 50303
" />
<path d="M58000 50500
L58000 50303
" />
<path d="M58000 51696
L58000 51500
" />
<path d="M59000 51696
L59000 51500
" />
<path d="M59000 50500
L59000 50303
" />
<path d="M60000 50500
L60000 50303
" />
<path d="M60000 51696
L60000 51500
" />
<path d="M61000 51696
L61000 51500
" />
<path d="M61000 50500
L61000 50303
" />
<path d="M62000 50500
L62000 50303
" />
<path d="M62000 51696
L62000 51500
" />
<path d="M63000 51696
L63000 51500
" />
<path d="M63000 50500
L63000 50303
" />
<path d="M64000 50500
L64000 50303
" />
<path d="M64000 51696
L64000 51500
" />
<path d="M65000 51696
L65000 51500
" />
<path d="M65000 50500
L65000 50303
" />
<path d="M66000 50500
L66000 50303
" />
<path d="M66000 51696
L66000 51500
" />
<path d="M67000 51696
L67000 51500
" />
<path d="M67000 50500
L67000 50303
" />
</g>
<g style="fill:#000000; fill-opacity:0.0; 
stroke:#000000; stroke-width:0; stroke-opacity:1; 
stroke-linecap:round; stroke-linejoin:round;">
</g>
<g style="fill:#000000; fill-opacity:1.0; 
stroke:#000000; stroke-width:0; stroke-opacity:1; 
stroke-linecap:round; stroke-linejoin:round;">
<polyline style="fill-rule:evenodd;"
points="70295,50007
70295,50795
69704,50795
69704,50007
70295,50007
" /> 
</g>
<g style="fill:#000000; fill-opacity:1.0; 
stroke:#000000; stroke-width:590.551; stroke-opacity:1; 
stroke-linecap:round; stroke-linejoin:round;">
</g>
<g style="fill:#000000; fill-opacity:0.0; 
stroke:#000000; stroke-width:590.551; stroke-opacity:1; 
stroke-linecap:round; stroke-linejoin:round;">
<path d="M70000 51696
L70000 51500
" />
<path d="M69000 50500
L69000 50303
" />
<path d="M69000 51696
L69000 51500
" />
<path d="M68000 50500
L68000 50303
" />
<path d="M68000 51696
L68000 51500
" />
</g>
<g style="fill:#000000; fill-opacity:1.0; 
stroke:#000000; stroke-width:0; stroke-opacity:1; 
stroke-linecap:round; stroke-linejoin:round;">
<circle cx="43000" cy="47500" r="984.252" /> 
</g>
<g style="fill:#000000; fill-opacity:1.0; 
stroke:#000000; stroke-width:39.3701; stroke-opacity:1; 
stroke-linecap:round; stroke-linejoin:round;">
</g>
<g style="fill:#000000; fill-opacity:1.0; 
stroke:#000000; stroke-width:0; stroke-opacity:1; 
stroke-linecap:round; stroke-linejoin:round;">
<circle cx="73000" cy="40500" r="984.252" /> 
</g>
<g style="fill:#000000; fill-opacity:1.0; 
stroke:#000000; stroke-width:39.3701; stroke-opacity:1; 
stroke-linecap:round; stroke-linejoin:round;">
</g>
<g style="fill:#000000; fill-opacity:1.0; 
stroke:#000000; stroke-width:0; stroke-opacity:1; 
stroke-linecap:round; stroke-linejoin:round;">
<circle cx="73000" cy="47500" r="984.252" /> 
</g>
<g style="fill:#000000; fill-opacity:1.0; 
stroke:#000000; stroke-width:39.3701; stroke-opacity:1; 
stroke-linecap:round; stroke-linejoin:round;">
</g>
<g style="fill:#000000; fill-opacity:1.0; 
stroke:#000000; stroke-width:0; stroke-opacity:1; 
stroke-linecap:round; stroke-linejoin:round;">
<circle cx="43000" cy="40500" r="984.252" /> 
</g>
<g style="fill:#000000; fill-opacity:1.0; 
stroke:#000000; stroke-width:39.3701; stroke-opacity:1; 
stroke-linecap:round; stroke-linejoin:round;">
</g>
<g style="fill:#000000; fill-opacity:1.0; 
stroke:#000000; stroke-width:0; stroke-opacity:1; 
stroke-linecap:round; stroke-linejoin:round;">
<polyline style="fill-rule:evenodd;"
points="44311,38052
45689,38052
45689,39430
44311,39430
44311,38052
" /> 
<polyline style="fill-rule:evenodd;"
points="44311,35690
45689,35690
45689,37068
44311,37068
44311,35690
" /> 
<polyline style="fill-rule:evenodd;"
points="42461,36871
43839,36871
43839,38249
42461,38249
42461,36871
" /> 
<circle cx="59000" cy="38500" r="314.961" /> 
</g>
<g style="fill:#000000; fill-opacity:1.0; 
stroke:#000000; stroke-width:39.3701; stroke-opacity:1; 
stroke-linecap:round; stroke-linejoin:round;">
</g>
<g style="fill:#000000; fill-opacity:1.0; 
stroke:#000000; stroke-width:0; stroke-opacity:1; 
stroke-linecap:round; stroke-linejoin:round;">
<circle cx="59984.3" cy="38500" r="314.961" /> 
</g>
<g style="fill:#000000; fill-opacity:1.0; 
stroke:#000000; stroke-width:39.3701; stroke-opacity:1; 
stroke-linecap:round; stroke-linejoin:round;">
</g>
<g style="fill:#000000; fill-opacity:1.0; 
stroke:#000000; stroke-width:0; stroke-opacity:1; 
stroke-linecap:round; stroke-linejoin:round;">
<circle cx="69400" cy="39315.7" r="314.961" /> 
</g>
<g style="fill:#000000; fill-opacity:1.0; 
stroke:#000000; stroke-width:39.3701; stroke-opacity:1; 
stroke-linecap:round; stroke-linejoin:round;">
</g>
<g style="fill:#000000; fill-opacity:1.0; 
stroke:#000000; stroke-width:0; stroke-opacity:1; 
stroke-linecap:round; stroke-linejoin:round;">
<polyline style="fill-rule:evenodd;"
points="69714,40614
69085,40614
69085,39985
69714,39985
69714,40614
" /> 
</g>
<g style="fill:#000000; fill-opacity:1.0; 
stroke:#000000; stroke-width:669.291; stroke-opacity:1; 
stroke-linecap:round; stroke-linejoin:round;">
</g>
<g style="fill:#000000; fill-opacity:0.0; 
stroke:#000000; stroke-width:669.291; stroke-opacity:1; 
stroke-linecap:round; stroke-linejoin:round;">
<path d="M73000 37025
L73000 37025
" />
<path d="M72000 37025
L72000 37025
" />
<path d="M71000 37025
L71000 37025
" />
<path d="M70000 37025
L70000 37025
" />
<path d="M69000 37025
L69000 37025
" />
<path d="M68000 37025
L68000 37025
" />
<path d="M67000 37025
L67000 37025
" />
<path d="M66000 37025
L66000 37025
" />
<path d="M65000 37025
L65000 37025
" />
<path d="M64000 37025
L64000 37025
" />
<path d="M63000 37025
L63000 37025
" />
<path d="M62000 37025
L62000 37025
" />
<path d="M61000 37025
L61000 37025
" />
<path d="M60000 37025
L60000 37025
" />
<path d="M59000 37025
L59000 37025
" />
<path d="M58000 37025
L58000 37025
" />
<path d="M57000 37025
L57000 37025
" />
</g>
<g style="fill:#000000; fill-opacity:0.0; 
stroke:#000000; stroke-width:0; stroke-opacity:1; 
stroke-linecap:round; stroke-linejoin:round;">
</g>
<g style="fill:#000000; fill-opacity:1.0; 
stroke:#000000; stroke-width:0; stroke-opacity:1; 
stroke-linecap:round; stroke-linejoin:round;">
<polyline style="fill-rule:evenodd;"
points="56334,37359
55665,37359
55665,36690
56334,36690
56334,37359
" /> 
</g>
<g style="fill:#000000; fill-opacity:1.0; 
stroke:#000000; stroke-width:629.921; stroke-opacity:1; 
stroke-linecap:round; stroke-linejoin:round;">
</g>
<g style="fill:#000000; fill-opacity:0.0; 
stroke:#000000; stroke-width:629.921; stroke-opacity:1; 
stroke-linecap:round; stroke-linejoin:round;">
<path d="M64000 38500
L64000 38500
" />
</g>
<g style="fill:#000000; fill-opacity:1.0; 
stroke:#000000; stroke-width:0; stroke-opacity:1; 
stroke-linecap:round; stroke-linejoin:round;">
<circle cx="61000" cy="38500" r="314.961" /> 
</g>
<g style="fill:#000000; fill-opacity:1.0; 
stroke:#000000; stroke-width:39.3701; stroke-opacity:1; 
stroke-linecap:round; stroke-linejoin:round;">
</g>
<g style="fill:#000000; fill-opacity:1.0; 
stroke:#000000; stroke-width:0; stroke-opacity:1; 
stroke-linecap:round; stroke-linejoin:round;">
<polyline style="fill-rule:evenodd;"
points="70295,41507
70295,42492
69704,42492
69704,41507
70295,41507
" /> 
</g>
<g style="fill:#000000; fill-opacity:1.0; 
stroke:#000000; stroke-width:590.551; stroke-opacity:1; 
stroke-linecap:round; stroke-linejoin:round;">
</g>
<g style="fill:#000000; fill-opacity:0.0; 
stroke:#000000; stroke-width:590.551; stroke-opacity:1; 
stroke-linecap:round; stroke-linejoin:round;">
<path d="M69000 42196
L69000 41803
" />
<path d="M68000 42196
L68000 41803
" />
</g>
<g style="fill:#000000; fill-opacity:0.0; 
stroke:#000000; stroke-width:669.291; stroke-opacity:1; 
stroke-linecap:round; stroke-linejoin:round;">
<path d="M67000 39000
L67000 39000
" />
</g>
<g style="fill:#000000; fill-opacity:0.0; 
stroke:#000000; stroke-width:0; stroke-opacity:1; 
stroke-linecap:round; stroke-linejoin:round;">
</g>
<g style="fill:#000000; fill-opacity:1.0; 
stroke:#000000; stroke-width:0; stroke-opacity:1; 
stroke-linecap:round; stroke-linejoin:round;">
<polyline style="fill-rule:evenodd;"
points="66334,39334
65665,39334
65665,38665
66334,38665
66334,39334
" /> 
<circle cx="63000" cy="42000" r="118.11" /> 
</g>
<g style="fill:#000000; fill-opacity:1.0; 
stroke:#000000; stroke-width:39.3701; stroke-opacity:1; 
stroke-linecap:round; stroke-linejoin:round;">
</g>
<g style="fill:#000000; fill-opacity:1.0; 
stroke:#000000; stroke-width:0; stroke-opacity:1; 
stroke-linecap:round; stroke-linejoin:round;">
<circle cx="62000" cy="42000" r="118.11" /> 
</g>
<g style="fill:#000000; fill-opacity:1.0; 
stroke:#000000; stroke-width:39.3701; stroke-opacity:1; 
stroke-linecap:round; stroke-linejoin:round;">
</g>
<g style="fill:#000000; fill-opacity:1.0; 
stroke:#000000; stroke-width:0; stroke-opacity:1; 
stroke-linecap:round; stroke-linejoin:round;">
<circle cx="60000" cy="42000" r="118.11" /> 
</g>
<g style="fill:#000000; fill-opacity:1.0; 
stroke:#000000; stroke-width:39.3701; stroke-opacity:1; 
stroke-linecap:round; stroke-linejoin:round;">
</g>
<g style="fill:#000000; fill-opacity:1.0; 
stroke:#000000; stroke-width:0; stroke-opacity:1; 
stroke-linecap:round; stroke-linejoin:round;">
<circle cx="69000" cy="49500" r="118.11" /> 
</g>
<g style="fill:#000000; fill-opacity:1.0; 
stroke:#000000; stroke-width:39.3701; stroke-opacity:1; 
stroke-linecap:round; stroke-linejoin:round;">
</g>
<g style="fill:#000000; fill-opacity:1.0; 
stroke:#000000; stroke-width:0; stroke-opacity:1; 
stroke-linecap:round; stroke-linejoin:round;">
<circle cx="54500" cy="48100" r="118.11" /> 
</g>
<g style="fill:#000000; fill-opacity:1.0; 
stroke:#000000; stroke-width:39.3701; stroke-opacity:1; 
stroke-linecap:round; stroke-linejoin:round;">
</g>
<g style="fill:#000000; fill-opacity:1.0; 
stroke:#000000; stroke-width:0; stroke-opacity:1; 
stroke-linecap:round; stroke-linejoin:round;">
<circle cx="53000" cy="49500" r="118.11" /> 
</g>
<g style="fill:#000000; fill-opacity:1.0; 
stroke:#000000; stroke-width:39.3701; stroke-opacity:1; 
stroke-linecap:round; stroke-linejoin:round;">
</g>
<g style="fill:#000000; fill-opacity:1.0; 
stroke:#000000; stroke-width:0; stroke-opacity:1; 
stroke-linecap:round; stroke-linejoin:round;">
<circle cx="54500" cy="49500" r="118.11" /> 
</g>
<g style="fill:#000000; fill-opacity:1.0; 
stroke:#000000; stroke-width:39.3701; stroke-opacity:1; 
stroke-linecap:round; stroke-linejoin:round;">
</g>
<g style="fill:#000000; fill-opacity:1.0; 
stroke:#000000; stroke-width:0; stroke-opacity:1; 
stroke-linecap:round; stroke-linejoin:round;">
<circle cx="56500" cy="52475" r="118.11" /> 
</g>
<g style="fill:#000000; fill-opacity:1.0; 
stroke:#000000; stroke-width:39.3701; stroke-opacity:1; 
stroke-linecap:round; stroke-linejoin:round;">
</g>
<g style="fill:#000000; fill-opacity:1.0; 
stroke:#000000; stroke-width:0; stroke-opacity:1; 
stroke-linecap:round; stroke-linejoin:round;">
<circle cx="49000" cy="49500" r="118.11" /> 
</g>
<g style="fill:#000000; fill-opacity:1.0; 
stroke:#000000; stroke-width:39.3701; stroke-opacity:1; 
stroke-linecap:round; stroke-linejoin:round;">
</g>
<g style="fill:#000000; fill-opacity:1.0; 
stroke:#000000; stroke-width:0; stroke-opacity:1; 
stroke-linecap:round; stroke-linejoin:round;">
<circle cx="63000" cy="46000" r="118.11" /> 
</g>
<g style="fill:#000000; fill-opacity:1.0; 
stroke:#000000; stroke-width:39.3701; stroke-opacity:1; 
stroke-linecap:round; stroke-linejoin:round;">
</g>
<g style="fill:#000000; fill-opacity:1.0; 
stroke:#000000; stroke-width:0; stroke-opacity:1; 
stroke-linecap:round; stroke-linejoin:round;">
<circle cx="55000" cy="42000" r="118.11" /> 
</g>
<g style="fill:#000000; fill-opacity:1.0; 
stroke:#000000; stroke-width:39.3701; stroke-opacity:1; 
stroke-linecap:round; stroke-linejoin:round;">
</g>
<g style="fill:#000000; fill-opacity:1.0; 
stroke:#000000; stroke-width:0; stroke-opacity:1; 
stroke-linecap:round; stroke-linejoin:round;">
<circle cx="48000" cy="48100" r="118.11" /> 
</g>
<g style="fill:#000000; fill-opacity:1.0; 
stroke:#000000; stroke-width:39.3701; stroke-opacity:1; 
stroke-linecap:round; stroke-linejoin:round;">
</g>
<g style="fill:#000000; fill-opacity:1.0; 
stroke:#000000; stroke-width:0; stroke-opacity:1; 
stroke-linecap:round; stroke-linejoin:round;">
<circle cx="56500" cy="42000" r="118.11" /> 
</g>
<g style="fill:#000000; fill-opacity:1.0; 
stroke:#000000; stroke-width:39.3701; stroke-opacity:1; 
stroke-linecap:round; stroke-linejoin:round;">
</g>
<g style="fill:#000000; fill-opacity:1.0; 
stroke:#000000; stroke-width:0; stroke-opacity:1; 
stroke-linecap:round; stroke-linejoin:round;">
<circle cx="57500" cy="42000" r="118.11" /> 
</g>
<g style="fill:#000000; fill-opacity:1.0; 
stroke:#000000; stroke-width:39.3701; stroke-opacity:1; 
stroke-linecap:round; stroke-linejoin:round;">
</g>
<g style="fill:#000000; fill-opacity:1.0; 
stroke:#000000; stroke-width:0; stroke-opacity:1; 
stroke-linecap:round; stroke-linejoin:round;">
<circle cx="58500" cy="42000" r="118.11" /> 
</g>
<g style="fill:#000000; fill-opacity:1.0; 
stroke:#000000; stroke-width:39.3701; stroke-opacity:1; 
stroke-linecap:round; stroke-linejoin:round;">
</g>
<g style="fill:#000000; fill-opacity:1.0; 
stroke:#000000; stroke-width:0; stroke-opacity:1; 
stroke-linecap:round; stroke-linejoin:round;">
<circle cx="58500" cy="37800" r="118.11" /> 
</g>
<g style="fill:#000000; fill-opacity:1.0; 
stroke:#000000; stroke-width:39.3701; stroke-opacity:1; 
stroke-linecap:round; stroke-linejoin:round;">
</g>
<g style="fill:#000000; fill-opacity:1.0; 
stroke:#000000; stroke-width:0; stroke-opacity:1; 
stroke-linecap:round; stroke-linejoin:round;">
<circle cx="52500" cy="48100" r="118.11" /> 
</g>
<g style="fill:#000000; fill-opacity:1.0; 
stroke:#000000; stroke-width:39.3701; stroke-opacity:1; 
stroke-linecap:round; stroke-linejoin:round;">
</g>
<g style="fill:#000000; fill-opacity:1.0; 
stroke:#000000; stroke-width:0; stroke-opacity:1; 
stroke-linecap:round; stroke-linejoin:round;">
<circle cx="66000" cy="38100" r="118.11" /> 
</g>
<g style="fill:#000000; fill-opacity:1.0; 
stroke:#000000; stroke-width:39.3701; stroke-opacity:1; 
stroke-linecap:round; stroke-linejoin:round;">
</g>
<g style="fill:#000000; fill-opacity:1.0; 
stroke:#000000; stroke-width:0; stroke-opacity:1; 
stroke-linecap:round; stroke-linejoin:round;">
<circle cx="64500" cy="46000" r="118.11" /> 
</g>
<g style="fill:#000000; fill-opacity:1.0; 
stroke:#000000; stroke-width:39.3701; stroke-opacity:1; 
stroke-linecap:round; stroke-linejoin:round;">
</g>
<g style="fill:#000000; fill-opacity:1.0; 
stroke:#000000; stroke-width:0; stroke-opacity:1; 
stroke-linecap:round; stroke-linejoin:round;">
<circle cx="64500" cy="42000" r="118.11" /> 
</g>
<g style="fill:#000000; fill-opacity:1.0; 
stroke:#000000; stroke-width:39.3701; stroke-opacity:1; 
stroke-linecap:round; stroke-linejoin:round;">
</g>
<g style="fill:#000000; fill-opacity:1.0; 
stroke:#000000; stroke-width:0; stroke-opacity:1; 
stroke-linecap:round; stroke-linejoin:round;">
<circle cx="69000" cy="47000" r="118.11" /> 
</g>
<g style="fill:#000000; fill-opacity:1.0; 
stroke:#000000; stroke-width:39.3701; stroke-opacity:1; 
stroke-linecap:round; stroke-linejoin:round;">
</g>
<g style="fill:#000000; fill-opacity:1.0; 
stroke:#000000; stroke-width:0; stroke-opacity:1; 
stroke-linecap:round; stroke-linejoin:round;">
<circle cx="59500" cy="37800" r="118.11" /> 
</g>
<g style="fill:#000000; fill-opacity:1.0; 
stroke:#000000; stroke-width:39.3701; stroke-opacity:1; 
stroke-linecap:round; stroke-linejoin:round;">
</g>
<g style="fill:#000000; fill-opacity:1.0; 
stroke:#000000; stroke-width:0; stroke-opacity:1; 
stroke-linecap:round; stroke-linejoin:round;">
<circle cx="69000" cy="43000" r="118.11" /> 
</g>
<g style="fill:#000000; fill-opacity:1.0; 
stroke:#000000; stroke-width:39.3701; stroke-opacity:1; 
stroke-linecap:round; stroke-linejoin:round;">
</g>
<g style="fill:#000000; fill-opacity:1.0; 
stroke:#000000; stroke-width:0; stroke-opacity:1; 
stroke-linecap:round; stroke-linejoin:round;">
<circle cx="61000" cy="46000" r="118.11" /> 
</g>
<g style="fill:#000000; fill-opacity:1.0; 
stroke:#000000; stroke-width:39.3701; stroke-opacity:1; 
stroke-linecap:round; stroke-linejoin:round;">
</g>
<g style="fill:#000000; fill-opacity:1.0; 
stroke:#000000; stroke-width:0; stroke-opacity:1; 
stroke-linecap:round; stroke-linejoin:round;">
<circle cx="69000" cy="41000" r="118.11" /> 
</g>
<g style="fill:#000000; fill-opacity:1.0; 
stroke:#000000; stroke-width:39.3701; stroke-opacity:1; 
stroke-linecap:round; stroke-linejoin:round;">
</g>
<g style="fill:#000000; fill-opacity:1.0; 
stroke:#000000; stroke-width:0; stroke-opacity:1; 
stroke-linecap:round; stroke-linejoin:round;">
<circle cx="49500" cy="44500" r="118.11" /> 
</g>
<g style="fill:#000000; fill-opacity:1.0; 
stroke:#000000; stroke-width:39.3701; stroke-opacity:1; 
stroke-linecap:round; stroke-linejoin:round;">
</g>
<g style="fill:#000000; fill-opacity:1.0; 
stroke:#000000; stroke-width:0; stroke-opacity:1; 
stroke-linecap:round; stroke-linejoin:round;">
<circle cx="49500" cy="45000" r="118.11" /> 
</g>
<g style="fill:#000000; fill-opacity:1.0; 
stroke:#000000; stroke-width:39.3701; stroke-opacity:1; 
stroke-linecap:round; stroke-linejoin:round;">
</g>
<g style="fill:#000000; fill-opacity:1.0; 
stroke:#000000; stroke-width:0; stroke-opacity:1; 
stroke-linecap:round; stroke-linejoin:round;">
<circle cx="49000" cy="45000" r="118.11" /> 
</g>
<g style="fill:#000000; fill-opacity:1.0; 
stroke:#000000; stroke-width:39.3701; stroke-opacity:1; 
stroke-linecap:round; stroke-linejoin:round;">
</g>
<g style="fill:#000000; fill-opacity:1.0; 
stroke:#000000; stroke-width:0; stroke-opacity:1; 
stroke-linecap:round; stroke-linejoin:round;">
<circle cx="47000" cy="45000" r="118.11" /> 
</g>
<g style="fill:#000000; fill-opacity:1.0; 
stroke:#000000; stroke-width:39.3701; stroke-opacity:1; 
stroke-linecap:round; stroke-linejoin:round;">
</g>
<g style="fill:#000000; fill-opacity:1.0; 
stroke:#000000; stroke-width:0; stroke-opacity:1; 
stroke-linecap:round; stroke-linejoin:round;">
<circle cx="46500" cy="45000" r="118.11" /> 
</g>
<g style="fill:#000000; fill-opacity:1.0; 
stroke:#000000; stroke-width:39.3701; stroke-opacity:1; 
stroke-linecap:round; stroke-linejoin:round;">
</g>
<g style="fill:#000000; fill-opacity:1.0; 
stroke:#000000; stroke-width:0; stroke-opacity:1; 
stroke-linecap:round; stroke-linejoin:round;">
<circle cx="46500" cy="44500" r="118.11" /> 
</g>
<g style="fill:#000000; fill-opacity:1.0; 
stroke:#000000; stroke-width:39.3701; stroke-opacity:1; 
stroke-linecap:round; stroke-linejoin:round;">
</g>
<g style="fill:#000000; fill-opacity:1.0; 
stroke:#000000; stroke-width:0; stroke-opacity:1; 
stroke-linecap:round; stroke-linejoin:round;">
<circle cx="46500" cy="45500" r="118.11" /> 
</g>
<g style="fill:#000000; fill-opacity:1.0; 
stroke:#000000; stroke-width:39.3701; stroke-opacity:1; 
stroke-linecap:round; stroke-linejoin:round;">
</g>
<g style="fill:#000000; fill-opacity:1.0; 
stroke:#000000; stroke-width:0; stroke-opacity:1; 
stroke-linecap:round; stroke-linejoin:round;">
<circle cx="48000" cy="44000" r="118.11" /> 
</g>
<g style="fill:#000000; fill-opacity:1.0; 
stroke:#000000; stroke-width:39.3701; stroke-opacity:1; 
stroke-linecap:round; stroke-linejoin:round;">
</g>
<g style="fill:#000000; fill-opacity:1.0; 
stroke:#000000; stroke-width:0; stroke-opacity:1; 
stroke-linecap:round; stroke-linejoin:round;">
<circle cx="47500" cy="43500" r="118.11" /> 
</g>
<g style="fill:#000000; fill-opacity:1.0; 
stroke:#000000; stroke-width:39.3701; stroke-opacity:1; 
stroke-linecap:round; stroke-linejoin:round;">
</g>
<g style="fill:#000000; fill-opacity:1.0; 
stroke:#000000; stroke-width:0; stroke-opacity:1; 
stroke-linecap:round; stroke-linejoin:round;">
<circle cx="48500" cy="43500" r="118.11" /> 
</g>
<g style="fill:#000000; fill-opacity:1.0; 
stroke:#000000; stroke-width:39.3701; stroke-opacity:1; 
stroke-linecap:round; stroke-linejoin:round;">
</g>
<g style="fill:#000000; fill-opacity:1.0; 
stroke:#000000; stroke-width:0; stroke-opacity:1; 
stroke-linecap:round; stroke-linejoin:round;">
<circle cx="48000" cy="43500" r="118.11" /> 
</g>
<g style="fill:#000000; fill-opacity:1.0; 
stroke:#000000; stroke-width:39.3701; stroke-opacity:1; 
stroke-linecap:round; stroke-linejoin:round;">
</g>
<g style="fill:#000000; fill-opacity:1.0; 
stroke:#000000; stroke-width:0; stroke-opacity:1; 
stroke-linecap:round; stroke-linejoin:round;">
<circle cx="60000" cy="46000" r="118.11" /> 
</g>
<g style="fill:#000000; fill-opacity:1.0; 
stroke:#000000; stroke-width:39.3701; stroke-opacity:1; 
stroke-linecap:round; stroke-linejoin:round;">
</g>
<g style="fill:#000000; fill-opacity:1.0; 
stroke:#000000; stroke-width:0; stroke-opacity:1; 
stroke-linecap:round; stroke-linejoin:round;">
<circle cx="49500" cy="45500" r="118.11" /> 
</g>
<g style="fill:#000000; fill-opacity:1.0; 
stroke:#000000; stroke-width:39.3701; stroke-opacity:1; 
stroke-linecap:round; stroke-linejoin:round;">
</g>
<g style="fill:#000000; fill-opacity:1.0; 
stroke:#000000; stroke-width:0; stroke-opacity:1; 
stroke-linecap:round; stroke-linejoin:round;">
<circle cx="66000" cy="46000" r="118.11" /> 
</g>
<g style="fill:#000000; fill-opacity:1.0; 
stroke:#000000; stroke-width:39.3701; stroke-opacity:1; 
stroke-linecap:round; stroke-linejoin:round;">
</g>
<g style="fill:#000000; fill-opacity:1.0; 
stroke:#000000; stroke-width:0; stroke-opacity:1; 
stroke-linecap:round; stroke-linejoin:round;">
<circle cx="66000" cy="41000" r="118.11" /> 
</g>
<g style="fill:#000000; fill-opacity:1.0; 
stroke:#000000; stroke-width:39.3701; stroke-opacity:1; 
stroke-linecap:round; stroke-linejoin:round;">
</g>
<g style="fill:#000000; fill-opacity:1.0; 
stroke:#000000; stroke-width:0; stroke-opacity:1; 
stroke-linecap:round; stroke-linejoin:round;">
<circle cx="58000" cy="37800" r="118.11" /> 
</g>
<g style="fill:#000000; fill-opacity:1.0; 
stroke:#000000; stroke-width:39.3701; stroke-opacity:1; 
stroke-linecap:round; stroke-linejoin:round;">
</g>
<g style="fill:#000000; fill-opacity:1.0; 
stroke:#000000; stroke-width:0; stroke-opacity:1; 
stroke-linecap:round; stroke-linejoin:round;">
<circle cx="58250" cy="38100" r="118.11" /> 
</g>
<g style="fill:#000000; fill-opacity:1.0; 
stroke:#000000; stroke-width:39.3701; stroke-opacity:1; 
stroke-linecap:round; stroke-linejoin:round;">
</g>
<g style="fill:#000000; fill-opacity:1.0; 
stroke:#000000; stroke-width:0; stroke-opacity:1; 
stroke-linecap:round; stroke-linejoin:round;">
<circle cx="67000" cy="38100" r="118.11" /> 
</g>
<g style="fill:#000000; fill-opacity:1.0; 
stroke:#000000; stroke-width:39.3701; stroke-opacity:1; 
stroke-linecap:round; stroke-linejoin:round;">
</g>
<g style="fill:#000000; fill-opacity:1.0; 
stroke:#000000; stroke-width:0; stroke-opacity:1; 
stroke-linecap:round; stroke-linejoin:round;">
<circle cx="69000" cy="38100" r="118.11" /> 
</g>
<g style="fill:#000000; fill-opacity:1.0; 
stroke:#000000; stroke-width:39.3701; stroke-opacity:1; 
stroke-linecap:round; stroke-linejoin:round;">
</g>
<g style="fill:#000000; fill-opacity:1.0; 
stroke:#000000; stroke-width:0; stroke-opacity:1; 
stroke-linecap:round; stroke-linejoin:round;">
<circle cx="68000" cy="38100" r="118.11" /> 
</g>
<g style="fill:#000000; fill-opacity:1.0; 
stroke:#000000; stroke-width:39.3701; stroke-opacity:1; 
stroke-linecap:round; stroke-linejoin:round;">
</g>
<g style="fill:#000000; fill-opacity:1.0; 
stroke:#000000; stroke-width:0; stroke-opacity:1; 
stroke-linecap:round; stroke-linejoin:round;">
<circle cx="66000" cy="49500" r="118.11" /> 
</g>
<g style="fill:#000000; fill-opacity:1.0; 
stroke:#000000; stroke-width:39.3701; stroke-opacity:1; 
stroke-linecap:round; stroke-linejoin:round;">
</g>
<g style="fill:#000000; fill-opacity:1.0; 
stroke:#000000; stroke-width:0; stroke-opacity:1; 
stroke-linecap:round; stroke-linejoin:round;">
<circle cx="53000" cy="42000" r="118.11" /> 
</g>
<g style="fill:#000000; fill-opacity:1.0; 
stroke:#000000; stroke-width:39.3701; stroke-opacity:1; 
stroke-linecap:round; stroke-linejoin:round;">
</g>
<g style="fill:#000000; fill-opacity:1.0; 
stroke:#000000; stroke-width:0; stroke-opacity:1; 
stroke-linecap:round; stroke-linejoin:round;">
<circle cx="67450" cy="49500" r="118.11" /> 
</g>
<g style="fill:#000000; fill-opacity:1.0; 
stroke:#000000; stroke-width:39.3701; stroke-opacity:1; 
stroke-linecap:round; stroke-linejoin:round;">
</g>
<g style="fill:#000000; fill-opacity:1.0; 
stroke:#000000; stroke-width:0; stroke-opacity:1; 
stroke-linecap:round; stroke-linejoin:round;">
<circle cx="67450" cy="43000" r="118.11" /> 
</g>
<g style="fill:#000000; fill-opacity:1.0; 
stroke:#000000; stroke-width:39.3701; stroke-opacity:1; 
stroke-linecap:round; stroke-linejoin:round;">
</g>
<g style="fill:#000000; fill-opacity:1.0; 
stroke:#000000; stroke-width:0; stroke-opacity:1; 
stroke-linecap:round; stroke-linejoin:round;">
<circle cx="67450" cy="41000" r="118.11" /> 
</g>
<g style="fill:#000000; fill-opacity:1.0; 
stroke:#000000; stroke-width:39.3701; stroke-opacity:1; 
stroke-linecap:round; stroke-linejoin:round;">
</g>
<g style="fill:#000000; fill-opacity:1.0; 
stroke:#000000; stroke-width:0; stroke-opacity:1; 
stroke-linecap:round; stroke-linejoin:round;">
<circle cx="55000" cy="43800" r="118.11" /> 
</g>
<g style="fill:#000000; fill-opacity:1.0; 
stroke:#000000; stroke-width:39.3701; stroke-opacity:1; 
stroke-linecap:round; stroke-linejoin:round;">
</g>
<g style="fill:#000000; fill-opacity:1.0; 
stroke:#000000; stroke-width:0; stroke-opacity:1; 
stroke-linecap:round; stroke-linejoin:round;">
<circle cx="67775" cy="39725" r="216.535" /> 
</g>
<g style="fill:#000000; fill-opacity:1.0; 
stroke:#000000; stroke-width:39.3701; stroke-opacity:1; 
stroke-linecap:round; stroke-linejoin:round;">
</g>
<g style="fill:#000000; fill-opacity:1.0; 
stroke:#000000; stroke-width:0; stroke-opacity:1; 
stroke-linecap:round; stroke-linejoin:round;">
<circle cx="46500" cy="48250" r="118.11" /> 
</g>
<g style="fill:#000000; fill-opacity:1.0; 
stroke:#000000; stroke-width:39.3701; stroke-opacity:1; 
stroke-linecap:round; stroke-linejoin:round;">
</g>
<g style="fill:#000000; fill-opacity:1.0; 
stroke:#000000; stroke-width:0; stroke-opacity:1; 
stroke-linecap:round; stroke-linejoin:round;">
<circle cx="55300" cy="44450" r="118.11" /> 
</g>
<g style="fill:#000000; fill-opacity:1.0; 
stroke:#000000; stroke-width:39.3701; stroke-opacity:1; 
stroke-linecap:round; stroke-linejoin:round;">
</g>
<g style="fill:#000000; fill-opacity:1.0; 
stroke:#000000; stroke-width:0; stroke-opacity:1; 
stroke-linecap:round; stroke-linejoin:round;">
<circle cx="47000" cy="45925" r="118.11" /> 
</g>
<g style="fill:#000000; fill-opacity:1.0; 
stroke:#000000; stroke-width:39.3701; stroke-opacity:1; 
stroke-linecap:round; stroke-linejoin:round;">
</g>
<g style="fill:#000000; fill-opacity:1.0; 
stroke:#000000; stroke-width:393.701; stroke-opacity:1; 
stroke-linecap:round; stroke-linejoin:round;">
</g>
<g style="fill:#000000; fill-opacity:0.0; 
stroke:#000000; stroke-width:393.701; stroke-opacity:1; 
stroke-linecap:round; stroke-linejoin:round;">
<path d="M62000 50500
L62000 51500
" />
<path d="M69000 51500
L69000 50500
" />
<path d="M69000 51500
L69000 52300
" />
<path d="M69000 50500
L69000 49800
" />
<path d="M62000 50500
L62000 49900
" />
<path d="M62000 51500
L62000 52100
" />
<path d="M51000 47000
L51000 46350
" />
<path d="M51000 46950
L51000 47550
" />
<path d="M60000 41000
L60000 41600
" />
<path d="M69000 42141
L69000 43025
" />
<path d="M69000 42141
L69000 41255
" />
<path d="M60000 41000
L60000 40475
" />
<path d="M70000 50500
L70000 51500
" />
<path d="M50000 41000
L50000 40802
" />
<path d="M50000 40802
L49400 40202
" />
<path d="M49400 40202
L49197 40000
" />
<path d="M70000 40900
L70000 42141
" />
<path d="M69400 40300
L70000 40900
" />
<path d="M49100 39902
L47440 38243
" />
<path d="M49197 40000
L49100 39902
" />
<path d="M64550 39850
L49152 39850
" />
<path d="M65000 40300
L64550 39850
" />
<path d="M49152 39850
L49100 39902
" />
<path d="M69400 40300
L65000 40300
" />
<path d="M68000 50500
L68000 51500
" />
<path d="M57000 37025
L57000 37825
" />
<path d="M57575 38425
L57600 38425
" />
<path d="M57000 39000
L57575 38425
" />
<path d="M57000 37825
L57600 38425
" />
<path d="M67311 42000
L68000 42000
" />
<path d="M65862 42000
L67311 42000
" />
<path d="M61000 46862
L65862 42000
" />
<path d="M61000 47000
L61000 46862
" />
<path d="M57600 38425
L58475 39300
" />
<path d="M67468 39725
L67774 39725
" />
<path d="M58475 39300
L64800 39300
" />
<path d="M64800 39300
L65225 39725
" />
<path d="M65225 39725
L67468 39725
" />
</g>
<g style="fill:#000000; fill-opacity:0.0; 
stroke:#000000; stroke-width:196.85; stroke-opacity:1; 
stroke-linecap:round; stroke-linejoin:round;">
<path d="M50300 51500
L50000 51500
" />
<path d="M51500 50668
L51168 51000
" />
<path d="M51168 51000
L50800 51000
" />
<path d="M51500 49950
L51500 50668
" />
<path d="M56000 44195
L55999 44195
" />
<path d="M53505 47945
L51500 49950
" />
<path d="M50800 51000
L50300 51500
" />
<path d="M53505 46689
L53505 47945
" />
<path d="M55999 44195
L53505 46689
" />
<path d="M56000 41000
L56000 44195
" />
<path d="M49500 51000
L49000 51500
" />
<path d="M51885 47750
L49500 50135
" />
<path d="M49500 50135
L49500 51000
" />
<path d="M52189 47610
L52050 47750
" />
<path d="M54000 41000
L54000 44200
" />
<path d="M54000 44200
L52500 45700
" />
<path d="M52472 47333
L52195 47610
" />
<path d="M52195 47610
L52189 47610
" />
<path d="M52500 47300
L52472 47327
" />
<path d="M52472 47327
L52472 47333
" />
<path d="M52500 45700
L52500 47300
" />
<path d="M52050 47750
L51885 47750
" />
<path d="M52000 47000
L52000 47137
" />
<path d="M49000 50137
L49000 50500
" />
<path d="M52000 47245
L52000 47000
" />
<path d="M49000 50245
L52000 47245
" />
<path d="M49000 50500
L49000 50245
" />
<path d="M52300 51500
L52000 51500
" />
<path d="M52800 51000
L52300 51500
" />
<path d="M53500 49850
L53500 50668
" />
<path d="M55495 45605
L55495 47855
" />
<path d="M55495 47855
L53500 49850
" />
<path d="M58000 43100
L55495 45605
" />
<path d="M53168 51000
L52800 51000
" />
<path d="M53500 50668
L53168 51000
" />
<path d="M58000 41000
L58000 43100
" />
<path d="M51000 50137
L51000 50500
" />
<path d="M48000 47000
L48000 47137
" />
<path d="M57000 43600
L57000 41000
" />
<path d="M54804 46389
L54804 45795
" />
<path d="M54804 45795
L57000 43600
" />
<path d="M54527 46666
L54804 46389
" />
<path d="M51000 51500
L51300 51500
" />
<path d="M52500 50723
L52500 49350
" />
<path d="M54527 46667
L54527 46666
" />
<path d="M54500 46695
L54527 46667
" />
<path d="M52500 49350
L54500 47350
" />
<path d="M52223 51000
L52500 50723
" />
<path d="M51800 51000
L52223 51000
" />
<path d="M54500 47350
L54500 46695
" />
<path d="M51300 51500
L51800 51000
" />
<path d="M59000 41629
L59000 41000
" />
<path d="M59000 42500
L59000 41629
" />
<path d="M56500 45000
L59000 42500
" />
<path d="M55500 50668
L55500 48650
" />
<path d="M55168 51000
L55500 50668
" />
<path d="M53300 51500
L53800 51000
" />
<path d="M55500 48650
L56500 47650
" />
<path d="M53800 51000
L55168 51000
" />
<path d="M53000 51500
L53300 51500
" />
<path d="M56500 47650
L56500 45000
" />
<path d="M48804 52169
L53330 52169
" />
<path d="M53330 52169
L54000 51500
" />
<path d="M48527 51892
L48804 52169
" />
<path d="M48527 44472
L48527 51892
" />
<path d="M52000 41000
L48527 44472
" />
<path d="M56000 47000
L56000 47760
" />
<path d="M56000 47760
L55000 48760
" />
<path d="M55000 48760
L55000 50500
" />
<path d="M45000 42000
L45000 41629
" />
<path d="M47500 44500
L45000 42000
" />
<path d="M47500 51864
L47500 44500
" />
<path d="M48079 52444
L47500 51864
" />
<path d="M55920 52444
L48079 52444
" />
<path d="M45000 41629
L45000 41000
" />
<path d="M56864 51500
L55920 52444
" />
<path d="M57000 51500
L56864 51500
" />
<path d="M57000 47000
L57000 50500
" />
<path d="M58000 47000
L58000 50500
" />
<path d="M59000 47000
L59000 50500
" />
<path d="M60000 47000
L60000 50500
" />
</g>
<g style="fill:#000000; fill-opacity:0.0; 
stroke:#000000; stroke-width:157.48; stroke-opacity:1; 
stroke-linecap:round; stroke-linejoin:round;">
<path d="M63000 50500
L63000 50200
" />
<path d="M63978 49350
L63000 50328
" />
<path d="M70000 37025
L70000 37050
" />
<path d="M64250 49350
L63978 49350
" />
<path d="M63000 50328
L63000 50500
" />
<path d="M70741 42858
L64250 49350
" />
<path d="M70000 37050
L70741 37791
" />
<path d="M70741 37791
L70741 42858
" />
<path d="M62500 51000
L63000 51500
" />
<path d="M62500 50162
L62500 51000
" />
<path d="M63562 49100
L62500 50162
" />
<path d="M64165 49100
L63562 49100
" />
<path d="M70500 42765
L64165 49100
" />
<path d="M70500 38700
L70500 42765
" />
<path d="M69000 37200
L70500 38700
" />
<path d="M69000 37025
L69000 37200
" />
<path d="M64000 51500
L63500 51000
" />
<path d="M63500 50162
L64062 49600
" />
<path d="M64062 49600
L64350 49600
" />
<path d="M70977 37022
L71000 37000
" />
<path d="M63500 51000
L63500 50162
" />
<path d="M64350 49600
L70977 42972
" />
<path d="M70977 42972
L70977 37022
" />
<path d="M71450 43200
L65000 49650
" />
<path d="M71450 38700
L71450 43200
" />
<path d="M73000 37150
L71450 38700
" />
<path d="M65000 49650
L65000 50500
" />
<path d="M73000 37000
L73000 37150
" />
<path d="M65000 51500
L64500 51000
" />
<path d="M64500 49800
L71213 43086
" />
<path d="M64500 51000
L64500 49800
" />
<path d="M71213 37786
L72000 37000
" />
<path d="M71213 43086
L71213 37786
" />
</g>
<g style="fill:#000000; fill-opacity:0.0; 
stroke:#000000; stroke-width:393.701; stroke-opacity:1; 
stroke-linecap:round; stroke-linejoin:round;">
<path d="M53500 38500
L54000 39000
" />
<path d="M53500 37000
L53500 38500
" />
<path d="M45000 38740
L45156 38740
" />
<path d="M45156 38740
L45256 38740
" />
<path d="M45000 38740
L45156 38740
" />
<path d="M45000 38740
L45000 38597
" />
<path d="M45000 38597
L47440 36156
" />
<path d="M57156 36156
L47440 36156
" />
<path d="M58000 37000
L57156 36156
" />
</g>
<g style="fill:#000000; fill-opacity:0.0; 
stroke:#000000; stroke-width:196.85; stroke-opacity:1; 
stroke-linecap:round; stroke-linejoin:round;">
<path d="M53000 46750
L55132 44617
" />
<path d="M53000 47000
L53000 46750
" />
<path d="M55132 44617
L55299 44450
" />
<path d="M55132 44617
L55132 44617
" />
<path d="M46500 48250
L46500 46425
" />
<path d="M46500 46425
L46881 46043
" />
<path d="M46881 46043
L47000 45925
" />
</g>
<g style="fill:#000000; fill-opacity:1.0; 
stroke:#000000; stroke-width:100; stroke-opacity:1; 
stroke-linecap:round; stroke-linejoin:round;">
<polyline style="fill-rule:evenodd;"
points="74077,34987
74145,35026
74195,35086
74226,35172
74230,35211
74230,50305
74034,50125
73654,49985
73352,49998
72009,50323
71734,50450
71460,50748
71320,51128
71337,51532
71507,51900
71805,52174
72185,52314
72487,52301
73830,51976
74105,51849
74230,51713
74230,53126
74212,53227
74173,53295
74113,53345
74027,53376
73988,53380
42023,53380
41922,53362
41854,53323
41804,53263
41773,53177
41769,53138
41769,51713
41894,51849
42169,51976
43512,52301
43814,52314
44194,52174
44492,51900
44662,51532
44679,51128
44539,50748
44265,50450
43990,50323
42647,49998
42345,49985
41965,50125
41769,50305
41769,37672
42211,37672
42211,38298
42249,38390
42319,38460
42411,38499
43037,38499
43100,38436
43100,37610
43200,37610
43200,38436
43262,38499
43888,38499
43980,38460
44050,38390
44056,38378
44056,39430
44075,39527
44130,39610
44213,39665
44311,39684
45689,39684
45786,39665
45869,39610
45924,39527
45943,39430
45943,38285
47424,36805
47834,36805
47932,36785
48014,36730
48070,36647
48078,36603
53041,36603
52987,36657
52895,36879
52895,37120
52987,37342
53053,37407
53053,38455
53044,38500
53079,38674
53102,38709
53177,38822
53215,38847
53437,39069
53467,39220
53589,39403
49232,39403
48084,38255
48084,38115
47986,37878
47805,37697
47568,37599
47312,37599
47076,37697
46895,37878
46797,38115
46797,38371
46895,38607
47076,38789
47312,38887
47452,38887
48752,40187
48777,40224
48815,40249
48815,40249
48815,40249
48893,40327
48787,40348
48606,40469
48500,40628
48393,40469
48212,40348
48000,40306
47787,40348
47606,40469
47500,40628
47393,40469
47212,40348
47000,40306
46787,40348
46606,40469
46500,40628
46393,40469
46212,40348
46000,40306
45787,40348
45606,40469
45500,40628
45393,40469
45212,40348
45000,40306
44787,40348
44606,40469
44486,40649
44454,40808
44454,41191
44486,41350
44606,41530
44651,41560
44651,41664
44651,41664
44651,41965
44644,42000
44651,42034
44651,42034
44671,42135
44748,42251
44777,42270
47151,44644
47151,45589
47073,45556
46926,45556
46791,45612
46687,45716
46668,45764
46659,45772
46659,45772
46277,46154
46248,46173
46229,46202
46229,46202
46171,46289
46161,46338
46000,46306
45787,46348
45606,46469
45500,46628
45393,46469
45212,46348
45000,46306
44787,46348
44606,46469
44486,46649
44454,46808
44454,47191
44486,47350
44606,47530
44787,47651
45000,47693
45212,47651
45393,47530
45500,47371
45606,47530
45787,47651
46000,47693
46151,47663
46151,48129
46131,48176
46131,48323
46187,48458
46291,48562
46426,48618
46573,48618
46708,48562
46812,48458
46868,48323
46868,48176
46848,48129
46848,47663
47000,47693
47151,47663
47151,49777
47000,49747
46787,49789
46606,49910
46500,50069
46393,49910
46212,49789
46000,49747
45787,49789
45606,49910
45486,50090
45454,50249
45454,50553
45486,50712
45606,50893
45766,51000
45606,51106
45486,51287
45454,51446
45454,51750
45486,51909
45606,52089
45787,52210
46000,52252
46212,52210
46393,52089
46500,51930
46606,52089
46787,52210
47000,52252
47212,52210
47296,52154
47809,52666
47828,52696
47857,52715
47857,52715
47943,52773
48045,52793
48045,52793
48079,52800
48114,52793
55885,52793
55920,52800
55954,52793
55954,52793
56056,52773
56171,52696
56190,52666
56703,52154
56787,52210
57000,52252
57212,52210
57393,52089
57500,51930
57606,52089
57787,52210
58000,52252
58212,52210
58393,52089
58500,51930
58606,52089
58787,52210
59000,52252
59212,52210
59393,52089
59500,51930
59606,52089
59787,52210
60000,52252
60212,52210
60393,52089
60500,51930
60606,52089
60787,52210
61000,52252
61212,52210
61393,52089
61503,51924
61507,51941
61639,52111
61825,52217
61865,52225
61950,52177
61950,51648
61942,51648
61942,51548
61950,51548
61950,51019
61915,51000
61950,50980
61950,50451
61942,50451
61942,50351
61950,50351
61950,49822
61865,49774
61825,49782
61639,49888
61507,50058
61503,50075
61393,49910
61212,49789
61000,49747
60787,49789
60606,49910
60500,50069
60393,49910
60348,49880
60348,47560
60393,47530
60500,47371
60606,47530
60787,47651
61000,47693
61212,47651
61393,47530
61500,47371
61606,47530
61787,47651
62000,47693
62212,47651
62393,47530
62500,47371
62606,47530
62787,47651
63000,47693
63212,47651
63393,47530
63500,47371
63606,47530
63787,47651
64000,47693
64212,47651
64393,47530
64513,47350
64545,47191
64545,46808
64513,46649
64393,46469
64212,46348
64000,46306
63787,46348
63606,46469
63500,46628
63393,46469
63212,46348
63000,46306
62787,46348
62606,46469
62500,46628
62393,46469
62212,46348
62156,46337
65113,43381
65673,43381
65703,43477
65914,43553
66139,43543
66296,43477
66326,43381
66000,43054
65673,43381
65113,43381
65437,43056
65441,43123
65506,43281
65603,43310
65929,42984
66070,42984
66396,43310
66493,43281
66569,43069
66558,42845
66493,42687
66396,42658
66070,42984
65929,42984
65923,42978
65994,42907
66000,42913
66326,42587
66296,42490
66294,42489
66320,42478
66352,42446
67511,42446
67606,42589
67787,42710
68000,42752
68212,42710
68393,42589
68506,42420
68515,42451
68649,42617
68837,42719
68865,42725
68950,42677
68950,42050
68942,42050
68942,41950
68950,41950
68950,41322
68865,41274
68837,41280
68649,41382
68515,41548
68506,41579
68393,41410
68212,41289
68000,41247
67787,41289
67606,41410
67511,41553
66352,41553
66320,41521
66112,41435
65887,41435
65679,41521
65521,41679
65500,41730
60905,46325
60787,46348
60606,46469
60500,46628
60393,46469
60212,46348
60000,46306
59787,46348
59606,46469
59500,46628
59393,46469
59212,46348
59000,46306
58787,46348
58606,46469
58500,46628
58393,46469
58212,46348
58000,46306
57787,46348
57606,46469
57500,46628
57393,46469
57212,46348
57000,46306
56848,46336
56848,45144
59222,42770
59251,42751
59278,42710
59310,42662
59328,42635
59348,42534
59348,42534
59355,42500
59348,42465
59348,41560
59393,41530
59506,41361
59515,41392
59649,41558
59837,41660
59865,41666
59950,41617
59950,41050
59942,41050
59942,40950
59950,40950
59950,40382
60050,40382
60050,40950
60057,40950
60057,41050
60050,41050
60050,41617
60134,41666
60162,41660
60350,41558
60484,41392
60493,41361
60606,41530
60787,41651
61000,41693
61212,41651
61393,41530
61500,41371
61606,41530
61787,41651
62000,41693
62212,41651
62393,41530
62500,41371
62606,41530
62787,41651
63000,41693
63212,41651
63393,41530
63500,41371
63606,41530
63787,41651
64000,41693
64212,41651
64393,41530
64513,41350
64545,41191
64545,40808
64513,40649
64393,40469
64212,40348
64000,40306
63787,40348
63606,40469
63500,40628
63393,40469
63212,40348
63000,40306
62787,40348
62606,40469
62500,40628
62393,40469
62212,40348
62000,40306
61787,40348
61606,40469
61500,40628
61393,40469
61212,40348
61000,40306
60787,40348
60606,40469
60493,40638
60484,40607
60350,40441
60162,40339
60134,40333
60050,40382
59950,40382
59865,40333
59837,40339
59649,40441
59515,40607
59506,40638
59393,40469
59212,40348
59000,40306
58787,40348
58606,40469
58500,40628
58393,40469
58212,40348
58000,40306
57787,40348
57606,40469
57500,40628
57393,40469
57212,40348
57000,40306
56787,40348
56606,40469
56500,40628
56393,40469
56212,40348
56000,40306
55787,40348
55606,40469
55500,40628
55393,40469
55212,40348
55000,40306
54787,40348
54606,40469
54500,40628
54393,40469
54212,40348
54000,40306
53787,40348
53606,40469
53500,40628
53393,40469
53212,40348
53000,40306
52787,40348
52606,40469
52500,40628
52393,40469
52212,40348
52000,40306
51787,40348
51606,40469
51500,40628
51393,40469
51212,40348
51000,40306
50787,40348
50606,40469
50500,40628
50393,40469
50212,40348
50169,40340
50126,40296
64364,40296
64652,40584
64677,40622
64813,40712
64825,40720
64999,40755
65044,40746
68872,40746
68904,40795
68987,40850
69085,40869
69337,40869
69553,41085
69553,41308
69524,41327
69469,41410
69450,41505
69350,41382
69162,41280
69134,41274
69050,41322
69050,41950
69057,41950
69057,42050
69050,42050
69050,42677
69134,42725
69162,42719
69350,42617
69450,42494
69469,42589
69524,42672
69607,42727
69704,42747
70053,42747
64029,48771
63595,48771
63562,48764
63530,48771
63434,48790
63325,48862
63307,48890
62328,49869
62174,49782
62134,49774
62050,49822
62050,50351
62057,50351
62057,50451
62050,50451
62050,50980
62084,51000
62050,51019
62050,51548
62057,51548
62057,51648
62050,51648
62050,52177
62134,52225
62174,52217
62360,52111
62492,51941
62496,51924
62606,52089
62787,52210
63000,52252
63212,52210
63393,52089
63500,51930
63606,52089
63787,52210
64000,52252
64212,52210
64393,52089
64500,51930
64606,52089
64787,52210
65000,52252
65212,52210
65393,52089
65500,51930
65606,52089
65787,52210
66000,52252
66212,52210
66393,52089
66500,51930
66606,52089
66787,52210
67000,52252
67212,52210
67393,52089
67500,51930
67606,52089
67787,52210
68000,52252
68212,52210
68393,52089
68503,51924
68507,51941
68639,52111
68825,52217
68865,52225
68950,52177
68950,51648
68942,51648
68942,51548
68950,51548
68950,51019
68915,51000
68950,50980
68950,50451
68942,50451
68942,50351
68950,50351
68950,49822
69050,49822
69050,50351
69057,50351
69057,50451
69050,50451
69050,50980
69084,51000
69050,51019
69050,51548
69057,51548
69057,51648
69050,51648
69050,52177
69134,52225
69174,52217
69360,52111
69492,51941
69496,51924
69606,52089
69787,52210
70000,52252
70212,52210
70393,52089
70513,51909
70545,51750
70545,51446
70513,51287
70446,51187
70446,50994
70475,50975
70530,50892
70550,50795
70550,50007
70530,49910
70475,49827
70392,49772
70295,49752
69704,49752
69607,49772
69524,49827
69469,49910
69450,50004
69360,49888
69174,49782
69134,49774
69050,49822
68950,49822
68865,49774
68825,49782
68639,49888
68507,50058
68503,50075
68393,49910
68212,49789
68000,49747
67787,49789
67606,49910
67500,50069
67393,49910
67212,49789
67000,49747
66787,49789
66606,49910
66500,50069
66393,49910
66212,49789
66000,49747
65787,49789
65606,49910
65500,50069
65393,49910
65328,49867
65328,49786
71659,43455
71687,43437
71759,43328
71778,43232
71785,43200
71778,43167
71778,42861
72295,42861
72295,45138
73799,45138
73799,42861
72295,42861
71778,42861
71778,38836
73005,37609
73057,37609
73228,37575
73421,37446
73550,37253
73596,37025
73550,36796
73421,36603
73228,36474
73057,36440
72942,36440
72771,36474
72578,36603
72500,36720
72421,36603
72228,36474
72057,36440
71942,36440
71771,36474
71578,36603
71500,36720
71421,36603
71228,36474
71057,36440
70942,36440
70771,36474
70578,36603
70500,36720
70421,36603
70228,36474
70057,36440
69942,36440
69771,36474
69578,36603
69500,36720
69421,36603
69228,36474
69057,36440
68942,36440
68771,36474
68578,36603
68500,36720
68421,36603
68228,36474
68057,36440
67942,36440
67771,36474
67578,36603
67500,36720
67421,36603
67228,36474
67057,36440
66942,36440
66771,36474
66578,36603
66500,36720
66421,36603
66228,36474
66057,36440
65942,36440
65771,36474
65578,36603
65500,36720
65421,36603
65228,36474
65057,36440
64942,36440
64771,36474
64578,36603
64500,36720
64421,36603
64228,36474
64057,36440
63942,36440
63771,36474
63578,36603
63500,36720
63421,36603
63228,36474
63057,36440
62942,36440
62771,36474
62578,36603
62500,36720
62421,36603
62228,36474
62057,36440
61942,36440
61771,36474
61578,36603
61500,36720
61421,36603
61228,36474
61057,36440
60942,36440
60771,36474
60578,36603
60500,36720
60421,36603
60228,36474
60057,36440
59942,36440
59771,36474
59578,36603
59500,36720
59421,36603
59228,36474
59057,36440
58942,36440
58771,36474
58578,36603
58500,36720
58421,36603
58228,36474
58075,36444
57503,35871
57478,35834
57331,35735
57200,35709
57156,35701
57112,35709
48078,35709
48070,35665
48014,35582
47932,35527
47834,35508
47047,35508
46949,35527
46867,35582
46811,35665
46792,35762
46792,36173
45939,37026
45939,36491
45876,36429
45050,36429
45050,37255
45112,37318
45647,37318
45168,37797
44311,37797
44213,37816
44130,37871
44089,37934
44089,37672
44026,37610
43200,37610
43100,37610
42273,37610
42211,37672
41769,37672
41769,36821
42211,36821
42211,37447
42273,37510
43100,37510
43100,36683
43200,36683
43200,37510
44026,37510
44089,37447
44089,37185
44099,37209
44169,37279
44261,37318
44887,37318
44950,37255
44950,36429
44123,36429
44061,36491
44061,36753
44050,36729
43980,36659
43888,36621
43262,36621
43200,36683
43100,36683
43037,36621
42411,36621
42319,36659
42249,36729
42211,36821
41769,36821
41769,35640
44061,35640
44061,36266
44123,36329
44950,36329
44950,35502
45050,35502
45050,36329
45876,36329
45939,36266
45939,35640
45900,35548
45830,35478
45738,35440
45112,35440
45050,35502
44950,35502
44887,35440
44261,35440
44169,35478
44099,35548
44061,35640
41769,35640
41769,35223
41787,35122
41826,35054
41886,35004
41972,34973
42011,34969
73976,34969
74077,34987
" /> 
<polyline style="fill-rule:evenodd;"
points="52787,47651
53000,47693
53156,47662
53156,47800
51277,49679
51248,49698
51191,49785
51000,49747
50787,49789
50606,49910
50500,50069
50393,49910
50287,49839
52027,48100
52050,48105
52084,48098
52084,48098
52185,48078
52301,48001
52320,47972
52399,47892
52446,47861
52466,47832
52694,47603
52705,47596
52787,47651
" /> 
<polyline style="fill-rule:evenodd;"
points="54651,49880
54606,49910
54500,50069
54393,49910
54212,49789
54079,49763
54651,49191
54651,49880
" /> 
<polyline style="fill-rule:evenodd;"
points="48178,49782
48000,49747
47848,49777
47848,47663
48000,47693
48178,47658
48178,49782
" /> 
<polyline style="fill-rule:evenodd;"
points="54787,47651
55000,47693
55146,47664
55146,47710
53277,49579
53248,49598
53171,49714
53158,49778
53000,49747
52848,49777
52848,49494
54722,47620
54731,47614
54787,47651
" /> 
<polyline style="fill-rule:evenodd;"
points="53606,41530
53651,41560
53651,44055
52277,45429
52248,45448
52171,45564
52151,45665
52151,45665
52144,45700
52151,45734
52151,46336
52000,46306
51787,46348
51606,46469
51493,46638
51484,46607
51350,46441
51162,46339
51134,46333
51050,46382
51050,46950
51057,46950
51057,47050
51050,47050
51050,47617
51103,47648
49004,49748
49000,49747
48875,49771
48875,47668
49000,47693
49212,47651
49393,47530
49500,47371
49606,47530
49787,47651
50000,47693
50212,47651
50393,47530
50506,47361
50515,47392
50649,47558
50837,47660
50865,47666
50950,47617
50950,47050
50942,47050
50942,46950
50950,46950
50950,46382
50865,46333
50837,46339
50649,46441
50515,46607
50506,46638
50393,46469
50212,46348
50000,46306
49787,46348
49606,46469
49500,46628
49393,46469
49212,46348
49000,46306
48875,46331
48875,44616
51832,41660
52000,41693
52212,41651
52393,41530
52500,41371
52606,41530
52787,41651
53000,41693
53212,41651
53393,41530
53500,41371
53606,41530
" /> 
<polyline style="fill-rule:evenodd;"
points="50606,41530
50787,41651
50844,41662
48305,44202
48276,44221
48199,44336
48178,44438
48178,44438
48172,44472
48178,44506
48178,46341
48000,46306
47848,46336
47848,44534
47855,44499
47848,44465
47848,44465
47828,44364
47794,44314
47770,44277
47770,44277
47751,44248
47722,44229
45348,41855
45348,41560
45393,41530
45500,41371
45606,41530
45787,41651
46000,41693
46212,41651
46393,41530
46500,41371
46606,41530
46787,41651
47000,41693
47212,41651
47393,41530
47500,41371
47606,41530
47787,41651
48000,41693
48212,41651
48393,41530
48500,41371
48606,41530
48787,41651
49000,41693
49212,41651
49393,41530
49500,41371
49606,41530
49787,41651
50000,41693
50212,41651
50393,41530
50500,41371
50606,41530
" /> 
<polyline style="fill-rule:evenodd;"
points="55606,41530
55651,41560
55651,44049
55535,44165
55508,44137
55373,44081
55226,44081
55091,44137
54987,44241
54968,44289
54910,44346
54881,44365
54862,44394
52938,46318
52848,46336
52848,45844
54222,44470
54251,44451
54288,44394
54328,44335
54339,44277
54348,44234
54348,44234
54355,44200
54348,44165
54348,41560
54393,41530
54500,41371
54606,41530
54787,41651
55000,41693
55212,41651
55393,41530
55500,41371
55606,41530
" /> 
<polyline style="fill-rule:evenodd;"
points="56606,41530
56651,41560
56651,43455
56348,43758
56348,41560
56393,41530
56500,41371
56606,41530
" /> 
<polyline style="fill-rule:evenodd;"
points="57606,41530
57651,41560
57651,42955
57348,43258
57348,41560
57393,41530
57500,41371
57606,41530
" /> 
<polyline style="fill-rule:evenodd;"
points="58606,41530
58651,41560
58651,41664
58651,41664
58651,42355
58348,42658
58348,41560
58393,41530
58500,41371
58606,41530
" /> 
<polyline style="fill-rule:evenodd;"
points="68578,37446
68771,37575
68942,37609
68944,37609
70171,38836
70171,40439
69969,40237
69969,39985
69950,39887
69895,39804
69812,39749
69720,39731
69726,39712
69400,39386
69073,39712
69079,39731
68987,39749
68904,39804
68872,39853
68226,39853
68241,39817
68241,39632
68170,39460
68039,39329
67867,39258
67682,39258
67634,39278
67517,39278
67549,39230
68830,39230
68841,39454
68906,39612
69003,39641
69329,39315
69470,39315
69796,39641
69893,39612
69969,39401
69958,39176
69893,39018
69796,38989
69470,39315
69329,39315
69003,38989
68906,39018
68830,39230
67549,39230
67550,39228
67596,39000
67579,38918
69073,38918
69400,39245
69726,38918
69696,38822
69485,38746
69260,38756
69103,38822
69073,38918
67579,38918
67550,38771
67421,38578
67228,38449
67057,38415
66942,38415
66771,38449
66578,38578
66573,38585
66570,38567
66514,38485
66432,38429
66334,38410
65665,38410
65567,38429
65485,38485
65429,38567
65410,38665
65410,39278
65410,39278
65147,39015
65122,38977
64974,38879
64844,38853
64800,38844
64755,38853
64427,38853
64484,38790
64547,38637
64499,38550
64050,38550
64050,38557
63950,38557
63950,38550
63500,38550
63452,38637
63515,38790
63572,38853
61445,38853
61478,38820
61564,38612
61564,38387
61554,38362
63452,38362
63500,38450
63950,38450
63950,37999
64050,37999
64050,38450
64499,38450
64547,38362
64484,38209
64336,38046
64137,37952
64050,37999
63950,37999
63862,37952
63663,38046
63515,38209
63452,38362
61554,38362
61478,38179
61320,38021
61112,37935
60887,37935
60679,38021
60521,38179
60492,38249
60463,38179
60304,38021
60096,37935
59871,37935
59664,38021
59505,38179
59492,38211
59478,38179
59320,38021
59112,37935
58887,37935
58679,38021
58521,38179
58435,38387
58435,38612
58446,38639
57947,38140
57922,38102
57884,38077
57446,37639
57446,37408
57500,37329
57578,37446
57771,37575
57942,37609
58057,37609
58228,37575
58421,37446
58500,37329
58578,37446
58771,37575
58942,37609
59057,37609
59228,37575
59421,37446
59500,37329
59578,37446
59771,37575
59942,37609
60057,37609
60228,37575
60421,37446
60500,37329
60578,37446
60771,37575
60942,37609
61057,37609
61228,37575
61421,37446
61500,37329
61578,37446
61771,37575
61942,37609
62057,37609
62228,37575
62421,37446
62500,37329
62578,37446
62771,37575
62942,37609
63057,37609
63228,37575
63421,37446
63500,37329
63578,37446
63771,37575
63942,37609
64057,37609
64228,37575
64421,37446
64500,37329
64578,37446
64771,37575
64942,37609
65057,37609
65228,37575
65421,37446
65500,37329
65578,37446
65771,37575
65942,37609
66057,37609
66228,37575
66421,37446
66500,37329
66578,37446
66771,37575
66942,37609
67057,37609
67228,37575
67421,37446
67500,37329
67578,37446
67771,37575
67942,37609
68057,37609
68228,37575
68421,37446
68500,37329
68578,37446
" /> 
<polyline style="fill-rule:evenodd;"
points="55415,36640
55415,36912
55477,36975
55950,36975
55950,36967
56050,36967
56050,36975
56057,36975
56057,37075
56050,37075
56050,37547
56112,37609
56384,37609
56476,37571
56546,37501
56553,37485
56553,37780
56544,37825
56579,37999
56579,37999
56677,38147
56715,38172
56955,38412
56933,38435
56887,38435
56679,38521
56521,38679
56435,38887
56435,39112
56521,39320
56604,39403
54410,39403
54532,39220
54576,39000
54532,38779
54407,38592
54220,38467
54069,38437
53946,38314
53946,37509
54004,37566
54095,37604
54387,37604
54450,37541
54450,37050
54550,37050
54550,37541
54612,37604
54904,37604
54995,37566
55066,37495
55104,37404
55104,37137
55415,37137
55415,37409
55453,37501
55523,37571
55615,37609
55887,37609
55950,37547
55950,37075
55477,37075
55415,37137
55104,37137
55104,37112
55041,37050
54550,37050
54450,37050
54442,37050
54442,36950
54450,36950
54450,36942
54550,36942
54550,36950
55041,36950
55104,36887
55104,36603
55430,36603
55415,36640
" /> 
</g> 
</svg>
