<?xml version="1.0" standalone="no"?>
 <!DOCTYPE svg PUBLIC "-//W3C//DTD SVG 1.1//EN" 
 "http://www.w3.org/Graphics/SVG/1.1/DTD/svg11.dtd"> 
<svg xmlns="http://www.w3.org/2000/svg" version="1.1" 
    width="29.7002cm" height="21.0007cm" viewBox="0 0 116930 82680 ">
<title>SVG Picture created as Lawo 28x13 Interface-F.Mask.svg date 2019/02/11 22:12:15 </title>
  <desc>Picture generated by PCBNEW </desc>
<g style="fill:#000000; fill-opacity:1;stroke:#000000; stroke-opacity:1;
stroke-linecap:round; stroke-linejoin:round; "
 transform="translate(0 0) scale(1 1)">
</g>
<g style="fill:#000000; fill-opacity:0.0; 
stroke:#000000; stroke-width:-0.000393701; stroke-opacity:1; 
stroke-linecap:round; stroke-linejoin:round;">
</g>
<g style="fill:#000000; fill-opacity:1.0; 
stroke:#000000; stroke-width:0; stroke-opacity:1; 
stroke-linecap:round; stroke-linejoin:round;">
<circle cx="66000" cy="42000" r="314.961" /> 
</g>
<g style="fill:#000000; fill-opacity:1.0; 
stroke:#000000; stroke-width:39.3701; stroke-opacity:1; 
stroke-linecap:round; stroke-linejoin:round;">
</g>
<g style="fill:#000000; fill-opacity:1.0; 
stroke:#000000; stroke-width:0; stroke-opacity:1; 
stroke-linecap:round; stroke-linejoin:round;">
<circle cx="66000" cy="42984.3" r="314.961" /> 
</g>
<g style="fill:#000000; fill-opacity:1.0; 
stroke:#000000; stroke-width:39.3701; stroke-opacity:1; 
stroke-linecap:round; stroke-linejoin:round;">
</g>
<g style="fill:#000000; fill-opacity:1.0; 
stroke:#000000; stroke-width:0; stroke-opacity:1; 
stroke-linecap:round; stroke-linejoin:round;">
<circle cx="53500" cy="37000" r="354.331" /> 
</g>
<g style="fill:#000000; fill-opacity:1.0; 
stroke:#000000; stroke-width:39.3701; stroke-opacity:1; 
stroke-linecap:round; stroke-linejoin:round;">
</g>
<g style="fill:#000000; fill-opacity:1.0; 
stroke:#000000; stroke-width:0; stroke-opacity:1; 
stroke-linecap:round; stroke-linejoin:round;">
<polyline style="fill-rule:evenodd;"
points="54854,36645
54854,37354
54145,37354
54145,36645
54854,36645
" /> 
<circle cx="57000" cy="39000" r="314.961" /> 
</g>
<g style="fill:#000000; fill-opacity:1.0; 
stroke:#000000; stroke-width:39.3701; stroke-opacity:1; 
stroke-linecap:round; stroke-linejoin:round;">
</g>
<g style="fill:#000000; fill-opacity:1.0; 
stroke:#000000; stroke-width:629.921; stroke-opacity:1; 
stroke-linecap:round; stroke-linejoin:round;">
</g>
<g style="fill:#000000; fill-opacity:0.0; 
stroke:#000000; stroke-width:629.921; stroke-opacity:1; 
stroke-linecap:round; stroke-linejoin:round;">
<path d="M54000 39000
L54000 39000
" />
</g>
<g style="fill:#000000; fill-opacity:0.0; 
stroke:#000000; stroke-width:591; stroke-opacity:1; 
stroke-linecap:round; stroke-linejoin:round;">
<path d="M45000 40862
L45000 41137
" />
<path d="M46000 40862
L46000 41137
" />
<path d="M47000 40862
L47000 41137
" />
<path d="M48000 40862
L48000 41137
" />
<path d="M49000 40862
L49000 41137
" />
<path d="M50000 40862
L50000 41137
" />
<path d="M51000 40862
L51000 41137
" />
<path d="M52000 40862
L52000 41137
" />
<path d="M53000 40862
L53000 41137
" />
<path d="M54000 40862
L54000 41137
" />
<path d="M55000 40862
L55000 41137
" />
<path d="M56000 40862
L56000 41137
" />
<path d="M57000 40862
L57000 41137
" />
<path d="M58000 40862
L58000 41137
" />
<path d="M59000 40862
L59000 41137
" />
<path d="M60000 40862
L60000 41137
" />
<path d="M61000 40862
L61000 41137
" />
<path d="M62000 40862
L62000 41137
" />
<path d="M63000 40862
L63000 41137
" />
<path d="M64000 40862
L64000 41137
" />
<path d="M64000 46862
L64000 47137
" />
<path d="M63000 46862
L63000 47137
" />
<path d="M62000 46862
L62000 47137
" />
<path d="M61000 46862
L61000 47137
" />
<path d="M60000 46862
L60000 47137
" />
<path d="M59000 46862
L59000 47137
" />
<path d="M58000 46862
L58000 47137
" />
<path d="M57000 46862
L57000 47137
" />
<path d="M56000 46862
L56000 47137
" />
<path d="M55000 46862
L55000 47137
" />
<path d="M54000 46862
L54000 47137
" />
<path d="M53000 46862
L53000 47137
" />
<path d="M52000 46862
L52000 47137
" />
<path d="M51000 46862
L51000 47137
" />
<path d="M50000 46862
L50000 47137
" />
<path d="M49000 46862
L49000 47137
" />
<path d="M48000 46862
L48000 47137
" />
<path d="M47000 46862
L47000 47137
" />
<path d="M46000 46862
L46000 47137
" />
<path d="M45000 46862
L45000 47137
" />
</g>
<g style="fill:#000000; fill-opacity:0.0; 
stroke:#000000; stroke-width:0; stroke-opacity:1; 
stroke-linecap:round; stroke-linejoin:round;">
</g>
<g style="fill:#000000; fill-opacity:1.0; 
stroke:#000000; stroke-width:0; stroke-opacity:1; 
stroke-linecap:round; stroke-linejoin:round;">
<polyline style="fill-rule:evenodd;"
points="47047,35762
47834,35762
47834,36550
47047,36550
47047,35762
" /> 
<circle cx="47440.9" cy="38243.3" r="393.701" /> 
</g>
<g style="fill:#000000; fill-opacity:1.0; 
stroke:#000000; stroke-width:39.3701; stroke-opacity:1; 
stroke-linecap:round; stroke-linejoin:round;">
</g>
<g style="fill:#000000; fill-opacity:1.0; 
stroke:#000000; stroke-width:1535.43; stroke-opacity:1; 
stroke-linecap:round; stroke-linejoin:round;">
</g>
<g style="fill:#000000; fill-opacity:0.0; 
stroke:#000000; stroke-width:1535.43; stroke-opacity:1; 
stroke-linecap:round; stroke-linejoin:round;">
<path d="M72346 51288
L73493 51011
" />
<path d="M43653 51288
L42506 51011
" />
</g>
<g style="fill:#000000; fill-opacity:0.0; 
stroke:#000000; stroke-width:590.551; stroke-opacity:1; 
stroke-linecap:round; stroke-linejoin:round;">
<path d="M50000 51696
L50000 51500
" />
<path d="M50000 50500
L50000 50303
" />
<path d="M49000 50500
L49000 50303
" />
<path d="M49000 51696
L49000 51500
" />
<path d="M48000 51696
L48000 51500
" />
<path d="M48000 50500
L48000 50303
" />
<path d="M46000 50500
L46000 50303
" />
<path d="M46000 51696
L46000 51500
" />
<path d="M47000 51696
L47000 51500
" />
<path d="M47000 50500
L47000 50303
" />
<path d="M52000 50500
L52000 50303
" />
<path d="M52000 51696
L52000 51500
" />
<path d="M51000 51696
L51000 51500
" />
<path d="M51000 50500
L51000 50303
" />
<path d="M53000 50500
L53000 50303
" />
<path d="M53000 51696
L53000 51500
" />
<path d="M54000 51696
L54000 51500
" />
<path d="M54000 50500
L54000 50303
" />
<path d="M55000 50500
L55000 50303
" />
<path d="M55000 51696
L55000 51500
" />
<path d="M57000 50500
L57000 50303
" />
<path d="M57000 51696
L57000 51500
" />
<path d="M56000 51696
L56000 51500
" />
<path d="M56000 50500
L56000 50303
" />
<path d="M58000 50500
L58000 50303
" />
<path d="M58000 51696
L58000 51500
" />
<path d="M59000 51696
L59000 51500
" />
<path d="M59000 50500
L59000 50303
" />
<path d="M60000 50500
L60000 50303
" />
<path d="M60000 51696
L60000 51500
" />
<path d="M61000 51696
L61000 51500
" />
<path d="M61000 50500
L61000 50303
" />
<path d="M62000 50500
L62000 50303
" />
<path d="M62000 51696
L62000 51500
" />
<path d="M63000 51696
L63000 51500
" />
<path d="M63000 50500
L63000 50303
" />
<path d="M64000 50500
L64000 50303
" />
<path d="M64000 51696
L64000 51500
" />
<path d="M65000 51696
L65000 51500
" />
<path d="M65000 50500
L65000 50303
" />
<path d="M66000 50500
L66000 50303
" />
<path d="M66000 51696
L66000 51500
" />
<path d="M67000 51696
L67000 51500
" />
<path d="M67000 50500
L67000 50303
" />
</g>
<g style="fill:#000000; fill-opacity:0.0; 
stroke:#000000; stroke-width:0; stroke-opacity:1; 
stroke-linecap:round; stroke-linejoin:round;">
</g>
<g style="fill:#000000; fill-opacity:1.0; 
stroke:#000000; stroke-width:0; stroke-opacity:1; 
stroke-linecap:round; stroke-linejoin:round;">
<polyline style="fill-rule:evenodd;"
points="70295,50007
70295,50795
69704,50795
69704,50007
70295,50007
" /> 
</g>
<g style="fill:#000000; fill-opacity:1.0; 
stroke:#000000; stroke-width:590.551; stroke-opacity:1; 
stroke-linecap:round; stroke-linejoin:round;">
</g>
<g style="fill:#000000; fill-opacity:0.0; 
stroke:#000000; stroke-width:590.551; stroke-opacity:1; 
stroke-linecap:round; stroke-linejoin:round;">
<path d="M70000 51696
L70000 51500
" />
<path d="M69000 50500
L69000 50303
" />
<path d="M69000 51696
L69000 51500
" />
<path d="M68000 50500
L68000 50303
" />
<path d="M68000 51696
L68000 51500
" />
</g>
<g style="fill:#000000; fill-opacity:1.0; 
stroke:#000000; stroke-width:0; stroke-opacity:1; 
stroke-linecap:round; stroke-linejoin:round;">
<circle cx="43000" cy="47500" r="984.252" /> 
</g>
<g style="fill:#000000; fill-opacity:1.0; 
stroke:#000000; stroke-width:39.3701; stroke-opacity:1; 
stroke-linecap:round; stroke-linejoin:round;">
</g>
<g style="fill:#000000; fill-opacity:1.0; 
stroke:#000000; stroke-width:0; stroke-opacity:1; 
stroke-linecap:round; stroke-linejoin:round;">
<circle cx="73000" cy="40500" r="984.252" /> 
</g>
<g style="fill:#000000; fill-opacity:1.0; 
stroke:#000000; stroke-width:39.3701; stroke-opacity:1; 
stroke-linecap:round; stroke-linejoin:round;">
</g>
<g style="fill:#000000; fill-opacity:1.0; 
stroke:#000000; stroke-width:0; stroke-opacity:1; 
stroke-linecap:round; stroke-linejoin:round;">
<circle cx="73000" cy="47500" r="984.252" /> 
</g>
<g style="fill:#000000; fill-opacity:1.0; 
stroke:#000000; stroke-width:39.3701; stroke-opacity:1; 
stroke-linecap:round; stroke-linejoin:round;">
</g>
<g style="fill:#000000; fill-opacity:1.0; 
stroke:#000000; stroke-width:0; stroke-opacity:1; 
stroke-linecap:round; stroke-linejoin:round;">
<circle cx="43000" cy="40500" r="984.252" /> 
</g>
<g style="fill:#000000; fill-opacity:1.0; 
stroke:#000000; stroke-width:39.3701; stroke-opacity:1; 
stroke-linecap:round; stroke-linejoin:round;">
</g>
<g style="fill:#000000; fill-opacity:1.0; 
stroke:#000000; stroke-width:0; stroke-opacity:1; 
stroke-linecap:round; stroke-linejoin:round;">
<polyline style="fill-rule:evenodd;"
points="44311,38052
45689,38052
45689,39430
44311,39430
44311,38052
" /> 
<polyline style="fill-rule:evenodd;"
points="44311,35690
45689,35690
45689,37068
44311,37068
44311,35690
" /> 
<polyline style="fill-rule:evenodd;"
points="42461,36871
43839,36871
43839,38249
42461,38249
42461,36871
" /> 
<circle cx="59000" cy="38500" r="314.961" /> 
</g>
<g style="fill:#000000; fill-opacity:1.0; 
stroke:#000000; stroke-width:39.3701; stroke-opacity:1; 
stroke-linecap:round; stroke-linejoin:round;">
</g>
<g style="fill:#000000; fill-opacity:1.0; 
stroke:#000000; stroke-width:0; stroke-opacity:1; 
stroke-linecap:round; stroke-linejoin:round;">
<circle cx="59984.3" cy="38500" r="314.961" /> 
</g>
<g style="fill:#000000; fill-opacity:1.0; 
stroke:#000000; stroke-width:39.3701; stroke-opacity:1; 
stroke-linecap:round; stroke-linejoin:round;">
</g>
<g style="fill:#000000; fill-opacity:1.0; 
stroke:#000000; stroke-width:0; stroke-opacity:1; 
stroke-linecap:round; stroke-linejoin:round;">
<circle cx="69400" cy="39315.7" r="314.961" /> 
</g>
<g style="fill:#000000; fill-opacity:1.0; 
stroke:#000000; stroke-width:39.3701; stroke-opacity:1; 
stroke-linecap:round; stroke-linejoin:round;">
</g>
<g style="fill:#000000; fill-opacity:1.0; 
stroke:#000000; stroke-width:0; stroke-opacity:1; 
stroke-linecap:round; stroke-linejoin:round;">
<polyline style="fill-rule:evenodd;"
points="69714,40614
69085,40614
69085,39985
69714,39985
69714,40614
" /> 
</g>
<g style="fill:#000000; fill-opacity:1.0; 
stroke:#000000; stroke-width:669.291; stroke-opacity:1; 
stroke-linecap:round; stroke-linejoin:round;">
</g>
<g style="fill:#000000; fill-opacity:0.0; 
stroke:#000000; stroke-width:669.291; stroke-opacity:1; 
stroke-linecap:round; stroke-linejoin:round;">
<path d="M73000 37025
L73000 37025
" />
<path d="M72000 37025
L72000 37025
" />
<path d="M71000 37025
L71000 37025
" />
<path d="M70000 37025
L70000 37025
" />
<path d="M69000 37025
L69000 37025
" />
<path d="M68000 37025
L68000 37025
" />
<path d="M67000 37025
L67000 37025
" />
<path d="M66000 37025
L66000 37025
" />
<path d="M65000 37025
L65000 37025
" />
<path d="M64000 37025
L64000 37025
" />
<path d="M63000 37025
L63000 37025
" />
<path d="M62000 37025
L62000 37025
" />
<path d="M61000 37025
L61000 37025
" />
<path d="M60000 37025
L60000 37025
" />
<path d="M59000 37025
L59000 37025
" />
<path d="M58000 37025
L58000 37025
" />
<path d="M57000 37025
L57000 37025
" />
</g>
<g style="fill:#000000; fill-opacity:0.0; 
stroke:#000000; stroke-width:0; stroke-opacity:1; 
stroke-linecap:round; stroke-linejoin:round;">
</g>
<g style="fill:#000000; fill-opacity:1.0; 
stroke:#000000; stroke-width:0; stroke-opacity:1; 
stroke-linecap:round; stroke-linejoin:round;">
<polyline style="fill-rule:evenodd;"
points="56334,37359
55665,37359
55665,36690
56334,36690
56334,37359
" /> 
</g>
<g style="fill:#000000; fill-opacity:1.0; 
stroke:#000000; stroke-width:629.921; stroke-opacity:1; 
stroke-linecap:round; stroke-linejoin:round;">
</g>
<g style="fill:#000000; fill-opacity:0.0; 
stroke:#000000; stroke-width:629.921; stroke-opacity:1; 
stroke-linecap:round; stroke-linejoin:round;">
<path d="M64000 38500
L64000 38500
" />
</g>
<g style="fill:#000000; fill-opacity:1.0; 
stroke:#000000; stroke-width:0; stroke-opacity:1; 
stroke-linecap:round; stroke-linejoin:round;">
<circle cx="61000" cy="38500" r="314.961" /> 
</g>
<g style="fill:#000000; fill-opacity:1.0; 
stroke:#000000; stroke-width:39.3701; stroke-opacity:1; 
stroke-linecap:round; stroke-linejoin:round;">
</g>
<g style="fill:#000000; fill-opacity:1.0; 
stroke:#000000; stroke-width:0; stroke-opacity:1; 
stroke-linecap:round; stroke-linejoin:round;">
<polyline style="fill-rule:evenodd;"
points="70295,41507
70295,42492
69704,42492
69704,41507
70295,41507
" /> 
</g>
<g style="fill:#000000; fill-opacity:1.0; 
stroke:#000000; stroke-width:590.551; stroke-opacity:1; 
stroke-linecap:round; stroke-linejoin:round;">
</g>
<g style="fill:#000000; fill-opacity:0.0; 
stroke:#000000; stroke-width:590.551; stroke-opacity:1; 
stroke-linecap:round; stroke-linejoin:round;">
<path d="M69000 42196
L69000 41803
" />
<path d="M68000 42196
L68000 41803
" />
</g>
<g style="fill:#000000; fill-opacity:0.0; 
stroke:#000000; stroke-width:669.291; stroke-opacity:1; 
stroke-linecap:round; stroke-linejoin:round;">
<path d="M67000 39000
L67000 39000
" />
</g>
<g style="fill:#000000; fill-opacity:0.0; 
stroke:#000000; stroke-width:0; stroke-opacity:1; 
stroke-linecap:round; stroke-linejoin:round;">
</g>
<g style="fill:#000000; fill-opacity:1.0; 
stroke:#000000; stroke-width:0; stroke-opacity:1; 
stroke-linecap:round; stroke-linejoin:round;">
<polyline style="fill-rule:evenodd;"
points="66334,39334
65665,39334
65665,38665
66334,38665
66334,39334
" /> 
</g> 
</svg>
