<?xml version="1.0" standalone="no"?>
 <!DOCTYPE svg PUBLIC "-//W3C//DTD SVG 1.1//EN" 
 "http://www.w3.org/Graphics/SVG/1.1/DTD/svg11.dtd"> 
<svg xmlns="http://www.w3.org/2000/svg" version="1.1" 
    width="29.7002cm" height="21.0007cm" viewBox="0 0 116930 82680 ">
<title>SVG Picture created as Lawo 28x13 Interface-B.Cu.svg date 2019/06/23 04:24:49 </title>
  <desc>Picture generated by PCBNEW </desc>
<g style="fill:#000000; fill-opacity:1;stroke:#000000; stroke-opacity:1;
stroke-linecap:round; stroke-linejoin:round; "
 transform="translate(0 0) scale(1 1)">
</g>
<g style="fill:#000000; fill-opacity:0.0; 
stroke:#000000; stroke-width:-0.000393701; stroke-opacity:1; 
stroke-linecap:round; stroke-linejoin:round;">
</g>
<g style="fill:#000000; fill-opacity:0.0; 
stroke:#000000; stroke-width:118.11; stroke-opacity:1; 
stroke-linecap:round; stroke-linejoin:round;">
<path d="M72957 43507
L72985 43592
L73014 43620
L73070 43648
L73154 43648
L73210 43620
L73239 43592
L73267 43535
L73267 43311
L72676 43311
L72676 43507
L72704 43564
L72732 43592
L72789 43620
L72845 43620
L72901 43592
L72929 43564
L72957 43507
L72957 43311
" />
<path d="M72676 44014
L72676 44126
L72704 44182
L72760 44239
L72873 44267
L73070 44267
L73182 44239
L73239 44182
L73267 44126
L73267 44014
L73239 43957
L73182 43901
L73070 43873
L72873 43873
L72760 43901
L72704 43957
L72676 44014
" />
<path d="M72676 44435
L72676 44773
" />
<path d="M73267 44604
L72676 44604
" />
</g>
<g style="fill:#000000; fill-opacity:0.0; 
stroke:#000000; stroke-width:0; stroke-opacity:1; 
stroke-linecap:round; stroke-linejoin:round;">
</g>
<g style="fill:#000000; fill-opacity:1.0; 
stroke:#000000; stroke-width:0; stroke-opacity:1; 
stroke-linecap:round; stroke-linejoin:round;">
<polyline style="fill-rule:evenodd;"
points="47295,52117
47295,52570
47000,52373
46704,52570
46704,52117
47295,52117
" /> 
<polyline style="fill-rule:evenodd;"
points="47000,52491
47295,52688
47295,53082
46704,53082
46704,52688
47000,52491
" /> 
<polyline style="fill-rule:evenodd;"
points="60704,49871
60704,49419
61000,49615
61295,49419
61295,49871
60704,49871
" /> 
<polyline style="fill-rule:evenodd;"
points="61000,49497
60704,49300
60704,48907
61295,48907
61295,49300
61000,49497
" /> 
<polyline style="fill-rule:evenodd;"
points="61295,52128
61295,52580
61000,52384
60704,52580
60704,52128
61295,52128
" /> 
<polyline style="fill-rule:evenodd;"
points="61000,52502
61295,52699
61295,53092
60704,53092
60704,52699
61000,52502
" /> 
<polyline style="fill-rule:evenodd;"
points="46000,49497
45704,49300
45704,48907
46295,48907
46295,49300
46000,49497
" /> 
<polyline style="fill-rule:evenodd;"
points="45704,49871
45704,49419
46000,49615
46295,49419
46295,49871
45704,49871
" /> 
<polyline style="fill-rule:evenodd;"
points="47000,49497
46704,49300
46704,48907
47295,48907
47295,49300
47000,49497
" /> 
<polyline style="fill-rule:evenodd;"
points="46704,49871
46704,49419
47000,49615
47295,49419
47295,49871
46704,49871
" /> 
<polyline style="fill-rule:evenodd;"
points="46000,52502
46295,52699
46295,53092
45704,53092
45704,52699
46000,52502
" /> 
<polyline style="fill-rule:evenodd;"
points="46295,52128
46295,52580
46000,52384
45704,52580
45704,52128
46295,52128
" /> 
<circle cx="66000" cy="42000" r="314.961" /> 
</g>
<g style="fill:#000000; fill-opacity:1.0; 
stroke:#000000; stroke-width:39.3701; stroke-opacity:1; 
stroke-linecap:round; stroke-linejoin:round;">
</g>
<g style="fill:#000000; fill-opacity:1.0; 
stroke:#000000; stroke-width:0; stroke-opacity:1; 
stroke-linecap:round; stroke-linejoin:round;">
<circle cx="66000" cy="42984.3" r="314.961" /> 
</g>
<g style="fill:#000000; fill-opacity:1.0; 
stroke:#000000; stroke-width:39.3701; stroke-opacity:1; 
stroke-linecap:round; stroke-linejoin:round;">
</g>
<g style="fill:#000000; fill-opacity:1.0; 
stroke:#000000; stroke-width:0; stroke-opacity:1; 
stroke-linecap:round; stroke-linejoin:round;">
<circle cx="53500" cy="37000" r="354.331" /> 
</g>
<g style="fill:#000000; fill-opacity:1.0; 
stroke:#000000; stroke-width:39.3701; stroke-opacity:1; 
stroke-linecap:round; stroke-linejoin:round;">
</g>
<g style="fill:#000000; fill-opacity:1.0; 
stroke:#000000; stroke-width:0; stroke-opacity:1; 
stroke-linecap:round; stroke-linejoin:round;">
<polyline style="fill-rule:evenodd;"
points="54854,36645
54854,37354
54145,37354
54145,36645
54854,36645
" /> 
<circle cx="57000" cy="39000" r="314.961" /> 
</g>
<g style="fill:#000000; fill-opacity:1.0; 
stroke:#000000; stroke-width:39.3701; stroke-opacity:1; 
stroke-linecap:round; stroke-linejoin:round;">
</g>
<g style="fill:#000000; fill-opacity:1.0; 
stroke:#000000; stroke-width:629.921; stroke-opacity:1; 
stroke-linecap:round; stroke-linejoin:round;">
</g>
<g style="fill:#000000; fill-opacity:0.0; 
stroke:#000000; stroke-width:629.921; stroke-opacity:1; 
stroke-linecap:round; stroke-linejoin:round;">
<path d="M54000 39000
L54000 39000
" />
</g>
<g style="fill:#000000; fill-opacity:0.0; 
stroke:#000000; stroke-width:591; stroke-opacity:1; 
stroke-linecap:round; stroke-linejoin:round;">
<path d="M45000 40862
L45000 41137
" />
<path d="M46000 40862
L46000 41137
" />
<path d="M47000 40862
L47000 41137
" />
<path d="M48000 40862
L48000 41137
" />
<path d="M49000 40862
L49000 41137
" />
<path d="M50000 40862
L50000 41137
" />
<path d="M51000 40862
L51000 41137
" />
<path d="M52000 40862
L52000 41137
" />
<path d="M53000 40862
L53000 41137
" />
<path d="M54000 40862
L54000 41137
" />
<path d="M55000 40862
L55000 41137
" />
<path d="M56000 40862
L56000 41137
" />
<path d="M57000 40862
L57000 41137
" />
<path d="M58000 40862
L58000 41137
" />
<path d="M59000 40862
L59000 41137
" />
<path d="M60000 40862
L60000 41137
" />
<path d="M61000 40862
L61000 41137
" />
<path d="M62000 40862
L62000 41137
" />
<path d="M63000 40862
L63000 41137
" />
<path d="M64000 40862
L64000 41137
" />
<path d="M64000 46862
L64000 47137
" />
<path d="M63000 46862
L63000 47137
" />
<path d="M62000 46862
L62000 47137
" />
<path d="M61000 46862
L61000 47137
" />
<path d="M60000 46862
L60000 47137
" />
<path d="M59000 46862
L59000 47137
" />
<path d="M58000 46862
L58000 47137
" />
<path d="M57000 46862
L57000 47137
" />
<path d="M56000 46862
L56000 47137
" />
<path d="M55000 46862
L55000 47137
" />
<path d="M54000 46862
L54000 47137
" />
<path d="M53000 46862
L53000 47137
" />
<path d="M52000 46862
L52000 47137
" />
<path d="M51000 46862
L51000 47137
" />
<path d="M50000 46862
L50000 47137
" />
<path d="M49000 46862
L49000 47137
" />
<path d="M48000 46862
L48000 47137
" />
<path d="M47000 46862
L47000 47137
" />
<path d="M46000 46862
L46000 47137
" />
<path d="M45000 46862
L45000 47137
" />
</g>
<g style="fill:#000000; fill-opacity:0.0; 
stroke:#000000; stroke-width:0; stroke-opacity:1; 
stroke-linecap:round; stroke-linejoin:round;">
</g>
<g style="fill:#000000; fill-opacity:1.0; 
stroke:#000000; stroke-width:0; stroke-opacity:1; 
stroke-linecap:round; stroke-linejoin:round;">
<polyline style="fill-rule:evenodd;"
points="47047,35762
47834,35762
47834,36550
47047,36550
47047,35762
" /> 
<circle cx="47440.9" cy="38243.3" r="393.701" /> 
</g>
<g style="fill:#000000; fill-opacity:1.0; 
stroke:#000000; stroke-width:39.3701; stroke-opacity:1; 
stroke-linecap:round; stroke-linejoin:round;">
</g>
<g style="fill:#000000; fill-opacity:1.0; 
stroke:#000000; stroke-width:1535.43; stroke-opacity:1; 
stroke-linecap:round; stroke-linejoin:round;">
</g>
<g style="fill:#000000; fill-opacity:0.0; 
stroke:#000000; stroke-width:1535.43; stroke-opacity:1; 
stroke-linecap:round; stroke-linejoin:round;">
<path d="M72346 51288
L73493 51011
" />
<path d="M43653 51288
L42506 51011
" />
</g>
<g style="fill:#000000; fill-opacity:0.0; 
stroke:#000000; stroke-width:590.551; stroke-opacity:1; 
stroke-linecap:round; stroke-linejoin:round;">
<path d="M50000 51696
L50000 51500
" />
<path d="M50000 50500
L50000 50303
" />
<path d="M49000 50500
L49000 50303
" />
<path d="M49000 51696
L49000 51500
" />
<path d="M48000 51696
L48000 51500
" />
<path d="M48000 50500
L48000 50303
" />
<path d="M46000 50500
L46000 50303
" />
<path d="M46000 51696
L46000 51500
" />
<path d="M47000 51696
L47000 51500
" />
<path d="M47000 50500
L47000 50303
" />
<path d="M52000 50500
L52000 50303
" />
<path d="M52000 51696
L52000 51500
" />
<path d="M51000 51696
L51000 51500
" />
<path d="M51000 50500
L51000 50303
" />
<path d="M53000 50500
L53000 50303
" />
<path d="M53000 51696
L53000 51500
" />
<path d="M54000 51696
L54000 51500
" />
<path d="M54000 50500
L54000 50303
" />
<path d="M55000 50500
L55000 50303
" />
<path d="M55000 51696
L55000 51500
" />
<path d="M57000 50500
L57000 50303
" />
<path d="M57000 51696
L57000 51500
" />
<path d="M56000 51696
L56000 51500
" />
<path d="M56000 50500
L56000 50303
" />
<path d="M58000 50500
L58000 50303
" />
<path d="M58000 51696
L58000 51500
" />
<path d="M59000 51696
L59000 51500
" />
<path d="M59000 50500
L59000 50303
" />
<path d="M60000 50500
L60000 50303
" />
<path d="M60000 51696
L60000 51500
" />
<path d="M61000 51696
L61000 51500
" />
<path d="M61000 50500
L61000 50303
" />
<path d="M62000 50500
L62000 50303
" />
<path d="M62000 51696
L62000 51500
" />
<path d="M63000 51696
L63000 51500
" />
<path d="M63000 50500
L63000 50303
" />
<path d="M64000 50500
L64000 50303
" />
<path d="M64000 51696
L64000 51500
" />
<path d="M65000 51696
L65000 51500
" />
<path d="M65000 50500
L65000 50303
" />
<path d="M66000 50500
L66000 50303
" />
<path d="M66000 51696
L66000 51500
" />
<path d="M67000 51696
L67000 51500
" />
<path d="M67000 50500
L67000 50303
" />
</g>
<g style="fill:#000000; fill-opacity:0.0; 
stroke:#000000; stroke-width:0; stroke-opacity:1; 
stroke-linecap:round; stroke-linejoin:round;">
</g>
<g style="fill:#000000; fill-opacity:1.0; 
stroke:#000000; stroke-width:0; stroke-opacity:1; 
stroke-linecap:round; stroke-linejoin:round;">
<polyline style="fill-rule:evenodd;"
points="70295,50007
70295,50795
69704,50795
69704,50007
70295,50007
" /> 
</g>
<g style="fill:#000000; fill-opacity:1.0; 
stroke:#000000; stroke-width:590.551; stroke-opacity:1; 
stroke-linecap:round; stroke-linejoin:round;">
</g>
<g style="fill:#000000; fill-opacity:0.0; 
stroke:#000000; stroke-width:590.551; stroke-opacity:1; 
stroke-linecap:round; stroke-linejoin:round;">
<path d="M70000 51696
L70000 51500
" />
<path d="M69000 50500
L69000 50303
" />
<path d="M69000 51696
L69000 51500
" />
<path d="M68000 50500
L68000 50303
" />
<path d="M68000 51696
L68000 51500
" />
</g>
<g style="fill:#000000; fill-opacity:1.0; 
stroke:#000000; stroke-width:0; stroke-opacity:1; 
stroke-linecap:round; stroke-linejoin:round;">
<circle cx="43000" cy="47500" r="984.252" /> 
</g>
<g style="fill:#000000; fill-opacity:1.0; 
stroke:#000000; stroke-width:39.3701; stroke-opacity:1; 
stroke-linecap:round; stroke-linejoin:round;">
</g>
<g style="fill:#000000; fill-opacity:1.0; 
stroke:#000000; stroke-width:0; stroke-opacity:1; 
stroke-linecap:round; stroke-linejoin:round;">
<circle cx="73000" cy="40500" r="984.252" /> 
</g>
<g style="fill:#000000; fill-opacity:1.0; 
stroke:#000000; stroke-width:39.3701; stroke-opacity:1; 
stroke-linecap:round; stroke-linejoin:round;">
</g>
<g style="fill:#000000; fill-opacity:1.0; 
stroke:#000000; stroke-width:0; stroke-opacity:1; 
stroke-linecap:round; stroke-linejoin:round;">
<circle cx="73000" cy="47500" r="984.252" /> 
</g>
<g style="fill:#000000; fill-opacity:1.0; 
stroke:#000000; stroke-width:39.3701; stroke-opacity:1; 
stroke-linecap:round; stroke-linejoin:round;">
</g>
<g style="fill:#000000; fill-opacity:1.0; 
stroke:#000000; stroke-width:0; stroke-opacity:1; 
stroke-linecap:round; stroke-linejoin:round;">
<circle cx="43000" cy="40500" r="984.252" /> 
</g>
<g style="fill:#000000; fill-opacity:1.0; 
stroke:#000000; stroke-width:39.3701; stroke-opacity:1; 
stroke-linecap:round; stroke-linejoin:round;">
</g>
<g style="fill:#000000; fill-opacity:1.0; 
stroke:#000000; stroke-width:0; stroke-opacity:1; 
stroke-linecap:round; stroke-linejoin:round;">
<polyline style="fill-rule:evenodd;"
points="44311,38052
45689,38052
45689,39430
44311,39430
44311,38052
" /> 
<polyline style="fill-rule:evenodd;"
points="44311,35690
45689,35690
45689,37068
44311,37068
44311,35690
" /> 
<polyline style="fill-rule:evenodd;"
points="42461,36871
43839,36871
43839,38249
42461,38249
42461,36871
" /> 
<circle cx="59000" cy="38500" r="314.961" /> 
</g>
<g style="fill:#000000; fill-opacity:1.0; 
stroke:#000000; stroke-width:39.3701; stroke-opacity:1; 
stroke-linecap:round; stroke-linejoin:round;">
</g>
<g style="fill:#000000; fill-opacity:1.0; 
stroke:#000000; stroke-width:0; stroke-opacity:1; 
stroke-linecap:round; stroke-linejoin:round;">
<circle cx="59984.3" cy="38500" r="314.961" /> 
</g>
<g style="fill:#000000; fill-opacity:1.0; 
stroke:#000000; stroke-width:39.3701; stroke-opacity:1; 
stroke-linecap:round; stroke-linejoin:round;">
</g>
<g style="fill:#000000; fill-opacity:1.0; 
stroke:#000000; stroke-width:0; stroke-opacity:1; 
stroke-linecap:round; stroke-linejoin:round;">
<circle cx="69400" cy="39315.7" r="314.961" /> 
</g>
<g style="fill:#000000; fill-opacity:1.0; 
stroke:#000000; stroke-width:39.3701; stroke-opacity:1; 
stroke-linecap:round; stroke-linejoin:round;">
</g>
<g style="fill:#000000; fill-opacity:1.0; 
stroke:#000000; stroke-width:0; stroke-opacity:1; 
stroke-linecap:round; stroke-linejoin:round;">
<polyline style="fill-rule:evenodd;"
points="69714,40614
69085,40614
69085,39985
69714,39985
69714,40614
" /> 
</g>
<g style="fill:#000000; fill-opacity:1.0; 
stroke:#000000; stroke-width:669.291; stroke-opacity:1; 
stroke-linecap:round; stroke-linejoin:round;">
</g>
<g style="fill:#000000; fill-opacity:0.0; 
stroke:#000000; stroke-width:669.291; stroke-opacity:1; 
stroke-linecap:round; stroke-linejoin:round;">
<path d="M73000 37025
L73000 37025
" />
<path d="M72000 37025
L72000 37025
" />
<path d="M71000 37025
L71000 37025
" />
<path d="M70000 37025
L70000 37025
" />
<path d="M69000 37025
L69000 37025
" />
<path d="M68000 37025
L68000 37025
" />
<path d="M67000 37025
L67000 37025
" />
<path d="M66000 37025
L66000 37025
" />
<path d="M65000 37025
L65000 37025
" />
<path d="M64000 37025
L64000 37025
" />
<path d="M63000 37025
L63000 37025
" />
<path d="M62000 37025
L62000 37025
" />
<path d="M61000 37025
L61000 37025
" />
<path d="M60000 37025
L60000 37025
" />
<path d="M59000 37025
L59000 37025
" />
<path d="M58000 37025
L58000 37025
" />
<path d="M57000 37025
L57000 37025
" />
</g>
<g style="fill:#000000; fill-opacity:0.0; 
stroke:#000000; stroke-width:0; stroke-opacity:1; 
stroke-linecap:round; stroke-linejoin:round;">
</g>
<g style="fill:#000000; fill-opacity:1.0; 
stroke:#000000; stroke-width:0; stroke-opacity:1; 
stroke-linecap:round; stroke-linejoin:round;">
<polyline style="fill-rule:evenodd;"
points="56334,37359
55665,37359
55665,36690
56334,36690
56334,37359
" /> 
</g>
<g style="fill:#000000; fill-opacity:1.0; 
stroke:#000000; stroke-width:629.921; stroke-opacity:1; 
stroke-linecap:round; stroke-linejoin:round;">
</g>
<g style="fill:#000000; fill-opacity:0.0; 
stroke:#000000; stroke-width:629.921; stroke-opacity:1; 
stroke-linecap:round; stroke-linejoin:round;">
<path d="M64000 38500
L64000 38500
" />
</g>
<g style="fill:#000000; fill-opacity:1.0; 
stroke:#000000; stroke-width:0; stroke-opacity:1; 
stroke-linecap:round; stroke-linejoin:round;">
<circle cx="61000" cy="38500" r="314.961" /> 
</g>
<g style="fill:#000000; fill-opacity:1.0; 
stroke:#000000; stroke-width:39.3701; stroke-opacity:1; 
stroke-linecap:round; stroke-linejoin:round;">
</g>
<g style="fill:#000000; fill-opacity:1.0; 
stroke:#000000; stroke-width:0; stroke-opacity:1; 
stroke-linecap:round; stroke-linejoin:round;">
<polyline style="fill-rule:evenodd;"
points="70295,41507
70295,42492
69704,42492
69704,41507
70295,41507
" /> 
</g>
<g style="fill:#000000; fill-opacity:1.0; 
stroke:#000000; stroke-width:590.551; stroke-opacity:1; 
stroke-linecap:round; stroke-linejoin:round;">
</g>
<g style="fill:#000000; fill-opacity:0.0; 
stroke:#000000; stroke-width:590.551; stroke-opacity:1; 
stroke-linecap:round; stroke-linejoin:round;">
<path d="M69000 42196
L69000 41803
" />
<path d="M68000 42196
L68000 41803
" />
</g>
<g style="fill:#000000; fill-opacity:0.0; 
stroke:#000000; stroke-width:0; stroke-opacity:1; 
stroke-linecap:round; stroke-linejoin:round;">
</g>
<g style="fill:#000000; fill-opacity:1.0; 
stroke:#000000; stroke-width:0; stroke-opacity:1; 
stroke-linecap:round; stroke-linejoin:round;">
<polyline style="fill-rule:evenodd;"
points="66334,39334
65665,39334
65665,38665
66334,38665
66334,39334
" /> 
</g>
<g style="fill:#000000; fill-opacity:1.0; 
stroke:#000000; stroke-width:669.291; stroke-opacity:1; 
stroke-linecap:round; stroke-linejoin:round;">
</g>
<g style="fill:#000000; fill-opacity:0.0; 
stroke:#000000; stroke-width:669.291; stroke-opacity:1; 
stroke-linecap:round; stroke-linejoin:round;">
<path d="M67000 39000
L67000 39000
" />
</g>
<g style="fill:#000000; fill-opacity:1.0; 
stroke:#000000; stroke-width:0; stroke-opacity:1; 
stroke-linecap:round; stroke-linejoin:round;">
<circle cx="63000" cy="42000" r="118.11" /> 
</g>
<g style="fill:#000000; fill-opacity:1.0; 
stroke:#000000; stroke-width:39.3701; stroke-opacity:1; 
stroke-linecap:round; stroke-linejoin:round;">
</g>
<g style="fill:#000000; fill-opacity:1.0; 
stroke:#000000; stroke-width:0; stroke-opacity:1; 
stroke-linecap:round; stroke-linejoin:round;">
<circle cx="62000" cy="42000" r="118.11" /> 
</g>
<g style="fill:#000000; fill-opacity:1.0; 
stroke:#000000; stroke-width:39.3701; stroke-opacity:1; 
stroke-linecap:round; stroke-linejoin:round;">
</g>
<g style="fill:#000000; fill-opacity:1.0; 
stroke:#000000; stroke-width:0; stroke-opacity:1; 
stroke-linecap:round; stroke-linejoin:round;">
<circle cx="60000" cy="42000" r="118.11" /> 
</g>
<g style="fill:#000000; fill-opacity:1.0; 
stroke:#000000; stroke-width:39.3701; stroke-opacity:1; 
stroke-linecap:round; stroke-linejoin:round;">
</g>
<g style="fill:#000000; fill-opacity:1.0; 
stroke:#000000; stroke-width:0; stroke-opacity:1; 
stroke-linecap:round; stroke-linejoin:round;">
<circle cx="69000" cy="49500" r="118.11" /> 
</g>
<g style="fill:#000000; fill-opacity:1.0; 
stroke:#000000; stroke-width:39.3701; stroke-opacity:1; 
stroke-linecap:round; stroke-linejoin:round;">
</g>
<g style="fill:#000000; fill-opacity:1.0; 
stroke:#000000; stroke-width:0; stroke-opacity:1; 
stroke-linecap:round; stroke-linejoin:round;">
<circle cx="54500" cy="48100" r="118.11" /> 
</g>
<g style="fill:#000000; fill-opacity:1.0; 
stroke:#000000; stroke-width:39.3701; stroke-opacity:1; 
stroke-linecap:round; stroke-linejoin:round;">
</g>
<g style="fill:#000000; fill-opacity:1.0; 
stroke:#000000; stroke-width:0; stroke-opacity:1; 
stroke-linecap:round; stroke-linejoin:round;">
<circle cx="53000" cy="49500" r="118.11" /> 
</g>
<g style="fill:#000000; fill-opacity:1.0; 
stroke:#000000; stroke-width:39.3701; stroke-opacity:1; 
stroke-linecap:round; stroke-linejoin:round;">
</g>
<g style="fill:#000000; fill-opacity:1.0; 
stroke:#000000; stroke-width:0; stroke-opacity:1; 
stroke-linecap:round; stroke-linejoin:round;">
<circle cx="54500" cy="49500" r="118.11" /> 
</g>
<g style="fill:#000000; fill-opacity:1.0; 
stroke:#000000; stroke-width:39.3701; stroke-opacity:1; 
stroke-linecap:round; stroke-linejoin:round;">
</g>
<g style="fill:#000000; fill-opacity:1.0; 
stroke:#000000; stroke-width:0; stroke-opacity:1; 
stroke-linecap:round; stroke-linejoin:round;">
<circle cx="56500" cy="52475" r="118.11" /> 
</g>
<g style="fill:#000000; fill-opacity:1.0; 
stroke:#000000; stroke-width:39.3701; stroke-opacity:1; 
stroke-linecap:round; stroke-linejoin:round;">
</g>
<g style="fill:#000000; fill-opacity:1.0; 
stroke:#000000; stroke-width:0; stroke-opacity:1; 
stroke-linecap:round; stroke-linejoin:round;">
<circle cx="49000" cy="49500" r="118.11" /> 
</g>
<g style="fill:#000000; fill-opacity:1.0; 
stroke:#000000; stroke-width:39.3701; stroke-opacity:1; 
stroke-linecap:round; stroke-linejoin:round;">
</g>
<g style="fill:#000000; fill-opacity:1.0; 
stroke:#000000; stroke-width:0; stroke-opacity:1; 
stroke-linecap:round; stroke-linejoin:round;">
<circle cx="63000" cy="46000" r="118.11" /> 
</g>
<g style="fill:#000000; fill-opacity:1.0; 
stroke:#000000; stroke-width:39.3701; stroke-opacity:1; 
stroke-linecap:round; stroke-linejoin:round;">
</g>
<g style="fill:#000000; fill-opacity:1.0; 
stroke:#000000; stroke-width:0; stroke-opacity:1; 
stroke-linecap:round; stroke-linejoin:round;">
<circle cx="55000" cy="42000" r="118.11" /> 
</g>
<g style="fill:#000000; fill-opacity:1.0; 
stroke:#000000; stroke-width:39.3701; stroke-opacity:1; 
stroke-linecap:round; stroke-linejoin:round;">
</g>
<g style="fill:#000000; fill-opacity:1.0; 
stroke:#000000; stroke-width:0; stroke-opacity:1; 
stroke-linecap:round; stroke-linejoin:round;">
<circle cx="48000" cy="48100" r="118.11" /> 
</g>
<g style="fill:#000000; fill-opacity:1.0; 
stroke:#000000; stroke-width:39.3701; stroke-opacity:1; 
stroke-linecap:round; stroke-linejoin:round;">
</g>
<g style="fill:#000000; fill-opacity:1.0; 
stroke:#000000; stroke-width:0; stroke-opacity:1; 
stroke-linecap:round; stroke-linejoin:round;">
<circle cx="56500" cy="42000" r="118.11" /> 
</g>
<g style="fill:#000000; fill-opacity:1.0; 
stroke:#000000; stroke-width:39.3701; stroke-opacity:1; 
stroke-linecap:round; stroke-linejoin:round;">
</g>
<g style="fill:#000000; fill-opacity:1.0; 
stroke:#000000; stroke-width:0; stroke-opacity:1; 
stroke-linecap:round; stroke-linejoin:round;">
<circle cx="57500" cy="42000" r="118.11" /> 
</g>
<g style="fill:#000000; fill-opacity:1.0; 
stroke:#000000; stroke-width:39.3701; stroke-opacity:1; 
stroke-linecap:round; stroke-linejoin:round;">
</g>
<g style="fill:#000000; fill-opacity:1.0; 
stroke:#000000; stroke-width:0; stroke-opacity:1; 
stroke-linecap:round; stroke-linejoin:round;">
<circle cx="58500" cy="42000" r="118.11" /> 
</g>
<g style="fill:#000000; fill-opacity:1.0; 
stroke:#000000; stroke-width:39.3701; stroke-opacity:1; 
stroke-linecap:round; stroke-linejoin:round;">
</g>
<g style="fill:#000000; fill-opacity:1.0; 
stroke:#000000; stroke-width:0; stroke-opacity:1; 
stroke-linecap:round; stroke-linejoin:round;">
<circle cx="58500" cy="37800" r="118.11" /> 
</g>
<g style="fill:#000000; fill-opacity:1.0; 
stroke:#000000; stroke-width:39.3701; stroke-opacity:1; 
stroke-linecap:round; stroke-linejoin:round;">
</g>
<g style="fill:#000000; fill-opacity:1.0; 
stroke:#000000; stroke-width:0; stroke-opacity:1; 
stroke-linecap:round; stroke-linejoin:round;">
<circle cx="52500" cy="48100" r="118.11" /> 
</g>
<g style="fill:#000000; fill-opacity:1.0; 
stroke:#000000; stroke-width:39.3701; stroke-opacity:1; 
stroke-linecap:round; stroke-linejoin:round;">
</g>
<g style="fill:#000000; fill-opacity:1.0; 
stroke:#000000; stroke-width:0; stroke-opacity:1; 
stroke-linecap:round; stroke-linejoin:round;">
<circle cx="64500" cy="46000" r="118.11" /> 
</g>
<g style="fill:#000000; fill-opacity:1.0; 
stroke:#000000; stroke-width:39.3701; stroke-opacity:1; 
stroke-linecap:round; stroke-linejoin:round;">
</g>
<g style="fill:#000000; fill-opacity:1.0; 
stroke:#000000; stroke-width:0; stroke-opacity:1; 
stroke-linecap:round; stroke-linejoin:round;">
<circle cx="64500" cy="42000" r="118.11" /> 
</g>
<g style="fill:#000000; fill-opacity:1.0; 
stroke:#000000; stroke-width:39.3701; stroke-opacity:1; 
stroke-linecap:round; stroke-linejoin:round;">
</g>
<g style="fill:#000000; fill-opacity:1.0; 
stroke:#000000; stroke-width:0; stroke-opacity:1; 
stroke-linecap:round; stroke-linejoin:round;">
<circle cx="69000" cy="47000" r="118.11" /> 
</g>
<g style="fill:#000000; fill-opacity:1.0; 
stroke:#000000; stroke-width:39.3701; stroke-opacity:1; 
stroke-linecap:round; stroke-linejoin:round;">
</g>
<g style="fill:#000000; fill-opacity:1.0; 
stroke:#000000; stroke-width:0; stroke-opacity:1; 
stroke-linecap:round; stroke-linejoin:round;">
<circle cx="59500" cy="37800" r="118.11" /> 
</g>
<g style="fill:#000000; fill-opacity:1.0; 
stroke:#000000; stroke-width:39.3701; stroke-opacity:1; 
stroke-linecap:round; stroke-linejoin:round;">
</g>
<g style="fill:#000000; fill-opacity:1.0; 
stroke:#000000; stroke-width:0; stroke-opacity:1; 
stroke-linecap:round; stroke-linejoin:round;">
<circle cx="69000" cy="43000" r="118.11" /> 
</g>
<g style="fill:#000000; fill-opacity:1.0; 
stroke:#000000; stroke-width:39.3701; stroke-opacity:1; 
stroke-linecap:round; stroke-linejoin:round;">
</g>
<g style="fill:#000000; fill-opacity:1.0; 
stroke:#000000; stroke-width:0; stroke-opacity:1; 
stroke-linecap:round; stroke-linejoin:round;">
<circle cx="61000" cy="46000" r="118.11" /> 
</g>
<g style="fill:#000000; fill-opacity:1.0; 
stroke:#000000; stroke-width:39.3701; stroke-opacity:1; 
stroke-linecap:round; stroke-linejoin:round;">
</g>
<g style="fill:#000000; fill-opacity:1.0; 
stroke:#000000; stroke-width:0; stroke-opacity:1; 
stroke-linecap:round; stroke-linejoin:round;">
<circle cx="69000" cy="41000" r="118.11" /> 
</g>
<g style="fill:#000000; fill-opacity:1.0; 
stroke:#000000; stroke-width:39.3701; stroke-opacity:1; 
stroke-linecap:round; stroke-linejoin:round;">
</g>
<g style="fill:#000000; fill-opacity:1.0; 
stroke:#000000; stroke-width:0; stroke-opacity:1; 
stroke-linecap:round; stroke-linejoin:round;">
<circle cx="49500" cy="44500" r="118.11" /> 
</g>
<g style="fill:#000000; fill-opacity:1.0; 
stroke:#000000; stroke-width:39.3701; stroke-opacity:1; 
stroke-linecap:round; stroke-linejoin:round;">
</g>
<g style="fill:#000000; fill-opacity:1.0; 
stroke:#000000; stroke-width:0; stroke-opacity:1; 
stroke-linecap:round; stroke-linejoin:round;">
<circle cx="49500" cy="45000" r="118.11" /> 
</g>
<g style="fill:#000000; fill-opacity:1.0; 
stroke:#000000; stroke-width:39.3701; stroke-opacity:1; 
stroke-linecap:round; stroke-linejoin:round;">
</g>
<g style="fill:#000000; fill-opacity:1.0; 
stroke:#000000; stroke-width:0; stroke-opacity:1; 
stroke-linecap:round; stroke-linejoin:round;">
<circle cx="49000" cy="45000" r="118.11" /> 
</g>
<g style="fill:#000000; fill-opacity:1.0; 
stroke:#000000; stroke-width:39.3701; stroke-opacity:1; 
stroke-linecap:round; stroke-linejoin:round;">
</g>
<g style="fill:#000000; fill-opacity:1.0; 
stroke:#000000; stroke-width:0; stroke-opacity:1; 
stroke-linecap:round; stroke-linejoin:round;">
<circle cx="47000" cy="45000" r="118.11" /> 
</g>
<g style="fill:#000000; fill-opacity:1.0; 
stroke:#000000; stroke-width:39.3701; stroke-opacity:1; 
stroke-linecap:round; stroke-linejoin:round;">
</g>
<g style="fill:#000000; fill-opacity:1.0; 
stroke:#000000; stroke-width:0; stroke-opacity:1; 
stroke-linecap:round; stroke-linejoin:round;">
<circle cx="46500" cy="45000" r="118.11" /> 
</g>
<g style="fill:#000000; fill-opacity:1.0; 
stroke:#000000; stroke-width:39.3701; stroke-opacity:1; 
stroke-linecap:round; stroke-linejoin:round;">
</g>
<g style="fill:#000000; fill-opacity:1.0; 
stroke:#000000; stroke-width:0; stroke-opacity:1; 
stroke-linecap:round; stroke-linejoin:round;">
<circle cx="46500" cy="44500" r="118.11" /> 
</g>
<g style="fill:#000000; fill-opacity:1.0; 
stroke:#000000; stroke-width:39.3701; stroke-opacity:1; 
stroke-linecap:round; stroke-linejoin:round;">
</g>
<g style="fill:#000000; fill-opacity:1.0; 
stroke:#000000; stroke-width:0; stroke-opacity:1; 
stroke-linecap:round; stroke-linejoin:round;">
<circle cx="46500" cy="45500" r="118.11" /> 
</g>
<g style="fill:#000000; fill-opacity:1.0; 
stroke:#000000; stroke-width:39.3701; stroke-opacity:1; 
stroke-linecap:round; stroke-linejoin:round;">
</g>
<g style="fill:#000000; fill-opacity:1.0; 
stroke:#000000; stroke-width:0; stroke-opacity:1; 
stroke-linecap:round; stroke-linejoin:round;">
<circle cx="48000" cy="44000" r="118.11" /> 
</g>
<g style="fill:#000000; fill-opacity:1.0; 
stroke:#000000; stroke-width:39.3701; stroke-opacity:1; 
stroke-linecap:round; stroke-linejoin:round;">
</g>
<g style="fill:#000000; fill-opacity:1.0; 
stroke:#000000; stroke-width:0; stroke-opacity:1; 
stroke-linecap:round; stroke-linejoin:round;">
<circle cx="47500" cy="43500" r="118.11" /> 
</g>
<g style="fill:#000000; fill-opacity:1.0; 
stroke:#000000; stroke-width:39.3701; stroke-opacity:1; 
stroke-linecap:round; stroke-linejoin:round;">
</g>
<g style="fill:#000000; fill-opacity:1.0; 
stroke:#000000; stroke-width:0; stroke-opacity:1; 
stroke-linecap:round; stroke-linejoin:round;">
<circle cx="48500" cy="43500" r="118.11" /> 
</g>
<g style="fill:#000000; fill-opacity:1.0; 
stroke:#000000; stroke-width:39.3701; stroke-opacity:1; 
stroke-linecap:round; stroke-linejoin:round;">
</g>
<g style="fill:#000000; fill-opacity:1.0; 
stroke:#000000; stroke-width:0; stroke-opacity:1; 
stroke-linecap:round; stroke-linejoin:round;">
<circle cx="48000" cy="43500" r="118.11" /> 
</g>
<g style="fill:#000000; fill-opacity:1.0; 
stroke:#000000; stroke-width:39.3701; stroke-opacity:1; 
stroke-linecap:round; stroke-linejoin:round;">
</g>
<g style="fill:#000000; fill-opacity:1.0; 
stroke:#000000; stroke-width:0; stroke-opacity:1; 
stroke-linecap:round; stroke-linejoin:round;">
<circle cx="60000" cy="46000" r="118.11" /> 
</g>
<g style="fill:#000000; fill-opacity:1.0; 
stroke:#000000; stroke-width:39.3701; stroke-opacity:1; 
stroke-linecap:round; stroke-linejoin:round;">
</g>
<g style="fill:#000000; fill-opacity:1.0; 
stroke:#000000; stroke-width:0; stroke-opacity:1; 
stroke-linecap:round; stroke-linejoin:round;">
<circle cx="49500" cy="45500" r="118.11" /> 
</g>
<g style="fill:#000000; fill-opacity:1.0; 
stroke:#000000; stroke-width:39.3701; stroke-opacity:1; 
stroke-linecap:round; stroke-linejoin:round;">
</g>
<g style="fill:#000000; fill-opacity:1.0; 
stroke:#000000; stroke-width:0; stroke-opacity:1; 
stroke-linecap:round; stroke-linejoin:round;">
<circle cx="66000" cy="46000" r="118.11" /> 
</g>
<g style="fill:#000000; fill-opacity:1.0; 
stroke:#000000; stroke-width:39.3701; stroke-opacity:1; 
stroke-linecap:round; stroke-linejoin:round;">
</g>
<g style="fill:#000000; fill-opacity:1.0; 
stroke:#000000; stroke-width:0; stroke-opacity:1; 
stroke-linecap:round; stroke-linejoin:round;">
<circle cx="66000" cy="41000" r="118.11" /> 
</g>
<g style="fill:#000000; fill-opacity:1.0; 
stroke:#000000; stroke-width:39.3701; stroke-opacity:1; 
stroke-linecap:round; stroke-linejoin:round;">
</g>
<g style="fill:#000000; fill-opacity:1.0; 
stroke:#000000; stroke-width:0; stroke-opacity:1; 
stroke-linecap:round; stroke-linejoin:round;">
<circle cx="58000" cy="37800" r="118.11" /> 
</g>
<g style="fill:#000000; fill-opacity:1.0; 
stroke:#000000; stroke-width:39.3701; stroke-opacity:1; 
stroke-linecap:round; stroke-linejoin:round;">
</g>
<g style="fill:#000000; fill-opacity:1.0; 
stroke:#000000; stroke-width:0; stroke-opacity:1; 
stroke-linecap:round; stroke-linejoin:round;">
<circle cx="58250" cy="38100" r="118.11" /> 
</g>
<g style="fill:#000000; fill-opacity:1.0; 
stroke:#000000; stroke-width:39.3701; stroke-opacity:1; 
stroke-linecap:round; stroke-linejoin:round;">
</g>
<g style="fill:#000000; fill-opacity:1.0; 
stroke:#000000; stroke-width:0; stroke-opacity:1; 
stroke-linecap:round; stroke-linejoin:round;">
<circle cx="69000" cy="37850" r="118.11" /> 
</g>
<g style="fill:#000000; fill-opacity:1.0; 
stroke:#000000; stroke-width:39.3701; stroke-opacity:1; 
stroke-linecap:round; stroke-linejoin:round;">
</g>
<g style="fill:#000000; fill-opacity:1.0; 
stroke:#000000; stroke-width:0; stroke-opacity:1; 
stroke-linecap:round; stroke-linejoin:round;">
<circle cx="53000" cy="42000" r="118.11" /> 
</g>
<g style="fill:#000000; fill-opacity:1.0; 
stroke:#000000; stroke-width:39.3701; stroke-opacity:1; 
stroke-linecap:round; stroke-linejoin:round;">
</g>
<g style="fill:#000000; fill-opacity:1.0; 
stroke:#000000; stroke-width:0; stroke-opacity:1; 
stroke-linecap:round; stroke-linejoin:round;">
<circle cx="55000" cy="43800" r="118.11" /> 
</g>
<g style="fill:#000000; fill-opacity:1.0; 
stroke:#000000; stroke-width:39.3701; stroke-opacity:1; 
stroke-linecap:round; stroke-linejoin:round;">
</g>
<g style="fill:#000000; fill-opacity:1.0; 
stroke:#000000; stroke-width:0; stroke-opacity:1; 
stroke-linecap:round; stroke-linejoin:round;">
<circle cx="67450" cy="49500" r="118.11" /> 
</g>
<g style="fill:#000000; fill-opacity:1.0; 
stroke:#000000; stroke-width:39.3701; stroke-opacity:1; 
stroke-linecap:round; stroke-linejoin:round;">
</g>
<g style="fill:#000000; fill-opacity:1.0; 
stroke:#000000; stroke-width:0; stroke-opacity:1; 
stroke-linecap:round; stroke-linejoin:round;">
<circle cx="67000" cy="37850" r="118.11" /> 
</g>
<g style="fill:#000000; fill-opacity:1.0; 
stroke:#000000; stroke-width:39.3701; stroke-opacity:1; 
stroke-linecap:round; stroke-linejoin:round;">
</g>
<g style="fill:#000000; fill-opacity:1.0; 
stroke:#000000; stroke-width:0; stroke-opacity:1; 
stroke-linecap:round; stroke-linejoin:round;">
<circle cx="67450" cy="41000" r="118.11" /> 
</g>
<g style="fill:#000000; fill-opacity:1.0; 
stroke:#000000; stroke-width:39.3701; stroke-opacity:1; 
stroke-linecap:round; stroke-linejoin:round;">
</g>
<g style="fill:#000000; fill-opacity:1.0; 
stroke:#000000; stroke-width:0; stroke-opacity:1; 
stroke-linecap:round; stroke-linejoin:round;">
<circle cx="67905" cy="39768.5" r="216.535" /> 
</g>
<g style="fill:#000000; fill-opacity:1.0; 
stroke:#000000; stroke-width:39.3701; stroke-opacity:1; 
stroke-linecap:round; stroke-linejoin:round;">
</g>
<g style="fill:#000000; fill-opacity:1.0; 
stroke:#000000; stroke-width:0; stroke-opacity:1; 
stroke-linecap:round; stroke-linejoin:round;">
<circle cx="46500" cy="48250" r="118.11" /> 
</g>
<g style="fill:#000000; fill-opacity:1.0; 
stroke:#000000; stroke-width:39.3701; stroke-opacity:1; 
stroke-linecap:round; stroke-linejoin:round;">
</g>
<g style="fill:#000000; fill-opacity:1.0; 
stroke:#000000; stroke-width:0; stroke-opacity:1; 
stroke-linecap:round; stroke-linejoin:round;">
<circle cx="55300" cy="44450" r="118.11" /> 
</g>
<g style="fill:#000000; fill-opacity:1.0; 
stroke:#000000; stroke-width:39.3701; stroke-opacity:1; 
stroke-linecap:round; stroke-linejoin:round;">
</g>
<g style="fill:#000000; fill-opacity:1.0; 
stroke:#000000; stroke-width:0; stroke-opacity:1; 
stroke-linecap:round; stroke-linejoin:round;">
<circle cx="47000" cy="45925" r="118.11" /> 
</g>
<g style="fill:#000000; fill-opacity:1.0; 
stroke:#000000; stroke-width:39.3701; stroke-opacity:1; 
stroke-linecap:round; stroke-linejoin:round;">
</g>
<g style="fill:#000000; fill-opacity:1.0; 
stroke:#000000; stroke-width:393.701; stroke-opacity:1; 
stroke-linecap:round; stroke-linejoin:round;">
</g>
<g style="fill:#000000; fill-opacity:0.0; 
stroke:#000000; stroke-width:393.701; stroke-opacity:1; 
stroke-linecap:round; stroke-linejoin:round;">
<path d="M69000 51500
L69000 50500
" />
<path d="M62000 51500
L62000 50500
" />
<path d="M69000 42928
L69000 50500
" />
<path d="M69000 42141
L69000 42928
" />
<path d="M62000 50500
L62000 49600
" />
<path d="M62000 51500
L62000 52400
" />
<path d="M69000 51500
L69000 52400
" />
<path d="M60000 41000
L60000 40400
" />
<path d="M60000 41000
L60000 41600
" />
<path d="M51000 47000
L51000 46450
" />
<path d="M69000 42141
L69000 41375
" />
<path d="M51000 47050
L51000 47550
" />
<path d="M66000 42984
L66000 43429
" />
<path d="M70000 50500
L70000 51500
" />
<path d="M70000 42928
L70000 50500
" />
<path d="M70000 42141
L70000 42928
" />
<path d="M68000 50500
L68000 51500
" />
<path d="M67936 39800
L67904 39768
" />
<path d="M67950 39800
L67936 39800
" />
<path d="M68000 39850
L67950 39800
" />
<path d="M68000 50500
L68000 39850
" />
</g>
<g style="fill:#000000; fill-opacity:0.0; 
stroke:#000000; stroke-width:157.48; stroke-opacity:1; 
stroke-linecap:round; stroke-linejoin:round;">
<path d="M59000 38484
L59015 38500
" />
<path d="M59000 37025
L59000 38500
" />
</g>
<g style="fill:#000000; fill-opacity:0.0; 
stroke:#000000; stroke-width:196.85; stroke-opacity:1; 
stroke-linecap:round; stroke-linejoin:round;">
<path d="M46000 47250
L46000 47000
" />
<path d="M47500 48750
L46000 47250
" />
<path d="M47800 51000
L47500 50700
" />
<path d="M47500 50700
L47500 48750
" />
<path d="M49168 51000
L47800 51000
" />
<path d="M49668 50500
L49168 51000
" />
<path d="M50000 50500
L49668 50500
" />
<path d="M49000 50137
L49000 50500
" />
<path d="M52000 47000
L52000 47137
" />
<path d="M48000 48800
L47000 47800
" />
<path d="M47000 47800
L47000 47000
" />
<path d="M48000 50500
L48000 48800
" />
<path d="M55000 40862
L55000 41000
" />
<path d="M54487 40350
L55000 40862
" />
<path d="M45843 40350
L54487 40350
" />
<path d="M45527 50695
L45527 40666
" />
<path d="M45527 40666
L45843 40350
" />
<path d="M45831 51000
L45527 50695
" />
<path d="M47168 51000
L45831 51000
" />
<path d="M47668 51500
L47168 51000
" />
<path d="M48000 51500
L47668 51500
" />
<path d="M49000 47137
L49000 47000
" />
<path d="M52000 50500
L52000 50137
" />
<path d="M52000 50137
L49000 47137
" />
<path d="M51000 50100
L51000 50500
" />
<path d="M48000 47100
L51000 50100
" />
<path d="M48000 47000
L48000 47100
" />
<path d="M50000 47250
L50000 47000
" />
<path d="M53000 50250
L50000 47250
" />
<path d="M53000 50500
L53000 50250
" />
<path d="M54000 47000
L54000 50500
" />
<path d="M54500 51000
L55000 51500
" />
<path d="M53831 51000
L54500 51000
" />
<path d="M49705 42900
L53500 46694
" />
<path d="M46000 41000
L46000 41137
" />
<path d="M53500 46694
L53500 50668
" />
<path d="M53500 50668
L53831 51000
" />
<path d="M47762 42900
L49705 42900
" />
<path d="M46000 41137
L47762 42900
" />
<path d="M55000 47000
L55000 47414
" />
<path d="M55000 47414
L56000 48414
" />
<path d="M56000 48414
L56000 50500
" />
<path d="M56125 51500
L56000 51500
" />
<path d="M60500 51864
L60195 52169
" />
<path d="M60500 50135
L60500 51864
" />
<path d="M60164 49800
L60500 50135
" />
<path d="M57527 47333
L59994 49800
" />
<path d="M59994 49800
L60164 49800
" />
<path d="M57527 47327
L57527 47333
" />
<path d="M56794 52169
L56125 51500
" />
<path d="M57500 47300
L57527 47327
" />
<path d="M56650 46350
L57155 46350
" />
<path d="M57500 46694
L57500 47300
" />
<path d="M51562 41700
L52000 41700
" />
<path d="M57155 46350
L57500 46694
" />
<path d="M51000 41137
L51562 41700
" />
<path d="M52000 41700
L56650 46350
" />
<path d="M60195 52169
L56794 52169
" />
<path d="M51000 41000
L51000 41137
" />
<path d="M47000 41137
L47000 41000
" />
<path d="M48462 42600
L47000 41137
" />
<path d="M54500 46689
L50410 42600
" />
<path d="M55500 48305
L54527 47333
" />
<path d="M50410 42600
L48462 42600
" />
<path d="M54527 47333
L54527 47327
" />
<path d="M54500 47300
L54500 46689
" />
<path d="M55500 50668
L55500 48305
" />
<path d="M57300 51000
L55831 51000
" />
<path d="M54527 47327
L54500 47300
" />
<path d="M55831 51000
L55500 50668
" />
<path d="M57800 51500
L57300 51000
" />
<path d="M58000 51500
L57800 51500
" />
<path d="M55500 47525
L55500 46694
" />
<path d="M57500 49525
L55500 47525
" />
<path d="M49162 42300
L48000 41137
" />
<path d="M51105 42300
L49162 42300
" />
<path d="M57831 51000
L57500 50668
" />
<path d="M55500 46694
L51105 42300
" />
<path d="M58300 51000
L57831 51000
" />
<path d="M59000 51500
L58800 51500
" />
<path d="M57500 50668
L57500 49525
" />
<path d="M48000 41137
L48000 41000
" />
<path d="M58800 51500
L58300 51000
" />
<path d="M58831 51000
L59500 51000
" />
<path d="M58500 50668
L58831 51000
" />
<path d="M58500 49400
L58500 50668
" />
<path d="M56500 47400
L58500 49400
" />
<path d="M49862 42000
L51805 42000
" />
<path d="M56500 46694
L56500 47400
" />
<path d="M59500 51000
L60000 51500
" />
<path d="M51805 42000
L56500 46694
" />
<path d="M49000 41137
L49862 42000
" />
<path d="M49000 41000
L49000 41137
" />
</g>
<g style="fill:#000000; fill-opacity:0.0; 
stroke:#000000; stroke-width:157.48; stroke-opacity:1; 
stroke-linecap:round; stroke-linejoin:round;">
<path d="M63200 50500
L63000 50500
" />
<path d="M65250 38400
L65250 49250
" />
<path d="M65492 38157
L65250 38400
" />
<path d="M65250 49250
L64000 50500
" />
<path d="M68000 36700
L67550 36250
" />
<path d="M67550 36250
L66046 36250
" />
<path d="M65492 36804
L65492 38157
" />
<path d="M66046 36250
L65492 36804
" />
<path d="M68000 37025
L68000 36700
" />
<path d="M62300 47600
L62900 47000
" />
<path d="M61800 47600
L62300 47600
" />
<path d="M62900 47000
L63000 47000
" />
<path d="M61500 47300
L61800 47600
" />
<path d="M61000 37325
L61500 37825
" />
<path d="M61500 37825
L61500 47300
" />
<path d="M61000 37000
L61000 37325
" />
<path d="M62452 37787
L62452 46409
" />
<path d="M62000 37000
L62000 37334
" />
<path d="M62452 46409
L62000 46862
" />
<path d="M62000 37334
L62452 37787
" />
<path d="M62000 46862
L62000 47000
" />
<path d="M63003 37003
L63000 37000
" />
<path d="M63003 40168
L63003 37003
" />
<path d="M63500 40665
L63003 40168
" />
<path d="M63500 46362
L63500 40665
" />
<path d="M64000 46862
L63500 46362
" />
<path d="M64000 47000
L64000 46862
" />
<path d="M64000 40831
L64000 41000
" />
<path d="M63250 40081
L64000 40831
" />
<path d="M63250 37750
L63250 40081
" />
<path d="M64000 37000
L63250 37750
" />
<path d="M63000 40525
L63000 41000
" />
<path d="M62750 40275
L63000 40525
" />
<path d="M62750 37750
L62750 40275
" />
<path d="M62800 36500
L62500 36800
" />
<path d="M64500 36500
L62800 36500
" />
<path d="M65000 37000
L64500 36500
" />
<path d="M62500 37500
L62750 37750
" />
<path d="M62500 36800
L62500 37500
" />
<path d="M62000 37825
L62000 41000
" />
<path d="M60500 36500
L61200 36500
" />
<path d="M61500 37325
L62000 37825
" />
<path d="M61500 36800
L61500 37325
" />
<path d="M61200 36500
L61500 36800
" />
<path d="M60000 37000
L60500 36500
" />
<path d="M61000 41000
L61000 39500
" />
<path d="M60685 38814
L60500 39000
" />
<path d="M61000 38500
L60685 38814
" />
<path d="M61000 39500
L60500 39000
" />
<path d="M60500 39000
L60000 38500
" />
</g>
<g style="fill:#000000; fill-opacity:0.0; 
stroke:#000000; stroke-width:196.85; stroke-opacity:1; 
stroke-linecap:round; stroke-linejoin:round;">
<path d="M46000 50500
L46000 49850
" />
<path d="M46000 51500
L46000 52186
" />
<path d="M47000 51500
L47000 52186
" />
<path d="M47000 50500
L47000 49850
" />
<path d="M61000 51513
L61000 52200
" />
<path d="M61000 50500
L61000 49850
" />
<path d="M47000 48750
L46500 48250
" />
<path d="M47000 49104
L47000 48750
" />
<path d="M46000 48750
L46500 48250
" />
<path d="M46000 49104
L46000 48750
" />
<path d="M52062 45925
L47167 45925
" />
<path d="M47167 45925
L47000 45925
" />
<path d="M53000 47000
L53000 46862
" />
<path d="M53000 46862
L52062 45925
" />
<path d="M55650 44450
L55299 44450
" />
<path d="M57250 46050
L55650 44450
" />
<path d="M57855 46050
L57250 46050
" />
<path d="M58500 46694
L57855 46050
" />
<path d="M58500 47350
L58500 46694
" />
<path d="M60254 49104
L58500 47350
" />
<path d="M61000 49104
L60254 49104
" />
<path d="M46334 52895
L46000 52895
" />
<path d="M47010 52895
L47000 52885
" />
<path d="M61000 52895
L47010 52895
" />
<path d="M46010 52885
L46000 52895
" />
<path d="M47000 52885
L46010 52885
" />
<path d="M61334 52895
L61000 52895
" />
<path d="M61488 48849
L61488 52742
" />
<path d="M61238 48600
L61488 48849
" />
<path d="M59804 47610
L59810 47610
" />
<path d="M61488 52742
L61334 52895
" />
<path d="M53000 41137
L55037 43175
" />
<path d="M59527 47333
L59804 47610
" />
<path d="M59527 47327
L59527 47333
" />
<path d="M59500 47300
L59527 47327
" />
<path d="M60800 48600
L61238 48600
" />
<path d="M59810 47610
L60800 48600
" />
<path d="M59500 46694
L59500 47300
" />
<path d="M55037 43175
L55980 43175
" />
<path d="M55980 43175
L59500 46694
" />
<path d="M53000 41000
L53000 41137
" />
</g>
<g style="fill:#000000; fill-opacity:0.0; 
stroke:#000000; stroke-width:157.48; stroke-opacity:1; 
stroke-linecap:round; stroke-linejoin:round;">
<path d="M66492 38507
L66000 39000
" />
<path d="M67492 38763
L67236 38507
" />
<path d="M67492 39223
L67492 38763
" />
<path d="M66763 39952
L67492 39223
" />
<path d="M66500 49984
L66763 49720
" />
<path d="M67000 51500
L66500 51000
" />
<path d="M66500 51000
L66500 49984
" />
<path d="M67236 38507
L66492 38507
" />
<path d="M66763 49720
L66763 39952
" />
<path d="M67728 39321
L67000 40050
" />
<path d="M67507 36804
L67507 37261
" />
<path d="M66525 36500
L67203 36500
" />
<path d="M67203 36500
L67507 36804
" />
<path d="M67000 49400
L67000 50500
" />
<path d="M67507 37261
L67728 37481
" />
<path d="M67000 40050
L67000 49400
" />
<path d="M66000 37025
L66525 36500
" />
<path d="M67728 37481
L67728 39321
" />
<path d="M67000 37025
L67000 37087
" />
<path d="M65488 38536
L67000 37025
" />
<path d="M65488 50988
L65488 38536
" />
<path d="M66000 51500
L65488 50988
" />
<path d="M66000 50150
L66000 50500
" />
<path d="M66511 49638
L66000 50150
" />
<path d="M67000 39000
L66511 39488
" />
<path d="M66511 39488
L66511 49638
" />
</g>
<g style="fill:#000000; fill-opacity:1.0; 
stroke:#000000; stroke-width:100; stroke-opacity:1; 
stroke-linecap:round; stroke-linejoin:round;">
<polyline style="fill-rule:evenodd;"
points="74077,34987
74145,35026
74195,35086
74226,35172
74230,35211
74230,40244
74046,39800
73699,39453
73245,39265
72754,39265
72300,39453
71953,39800
71765,40254
71765,40745
71953,41199
72300,41546
72754,41734
73245,41734
73699,41546
74046,41199
74230,40755
74230,47244
74046,46800
73699,46453
73245,46265
72754,46265
72300,46453
71953,46800
71765,47254
71765,47745
71953,48199
72300,48546
72754,48734
73245,48734
73699,48546
74046,48199
74230,47755
74230,50305
74034,50125
73654,49985
73352,49998
72009,50323
71734,50450
71460,50748
71320,51128
71337,51532
71507,51900
71805,52174
72185,52314
72487,52301
73830,51976
74105,51849
74230,51713
74230,53126
74212,53227
74173,53295
74113,53345
74027,53376
73988,53380
42023,53380
41922,53362
41854,53323
41804,53263
41773,53177
41769,53138
41769,51713
41894,51849
42169,51976
43512,52301
43814,52314
44194,52174
44492,51900
44662,51532
44679,51128
44539,50748
44265,50450
43990,50323
42647,49998
42345,49985
41965,50125
41769,50305
41769,47755
41953,48199
42300,48546
42754,48734
43245,48734
43699,48546
44046,48199
44234,47745
44234,47254
44046,46800
43699,46453
43245,46265
42754,46265
42300,46453
41953,46800
41769,47244
41769,40755
41953,41199
42300,41546
42754,41734
43245,41734
43699,41546
44046,41199
44208,40808
44454,40808
44454,41191
44486,41350
44606,41530
44787,41651
45000,41693
45178,41658
45178,46341
45000,46306
44787,46348
44606,46469
44486,46649
44454,46808
44454,47191
44486,47350
44606,47530
44787,47651
45000,47693
45178,47658
45178,50661
45172,50695
45178,50729
45178,50729
45199,50831
45276,50946
45305,50966
45542,51203
45486,51287
45454,51446
45454,51750
45486,51909
45518,51957
45469,52030
45449,52128
45449,52580
45464,52627
45449,52699
45449,53092
45469,53190
45524,53272
45607,53328
45704,53347
46295,53347
46392,53328
46475,53272
46501,53233
46505,53233
46524,53262
46607,53317
46704,53337
47295,53337
47392,53317
47475,53262
47487,53244
60505,53244
60524,53272
60607,53328
60704,53347
61295,53347
61392,53328
61475,53272
61530,53190
61532,53182
61585,53147
61605,53117
61710,53012
61739,52993
61816,52878
61836,52776
61836,52776
61843,52742
61836,52708
61836,52220
61865,52225
61950,52177
61950,51648
61942,51648
61942,51548
61950,51548
61950,51019
61915,51000
61950,50980
61950,50451
61942,50451
61942,50351
61950,50351
61950,49822
61865,49774
61836,49779
61836,48883
61843,48849
61836,48815
61836,48815
61816,48713
61739,48598
61710,48578
61509,48377
61489,48348
61374,48271
61272,48251
61272,48251
61238,48244
61204,48251
60944,48251
60291,47598
60393,47530
60500,47371
60606,47530
60787,47651
61000,47693
61212,47651
61316,47581
61544,47809
61562,47837
61671,47909
61767,47928
61800,47935
61832,47928
62267,47928
62300,47935
62332,47928
62332,47928
62428,47909
62537,47837
62555,47809
62743,47621
62787,47651
63000,47693
63212,47651
63393,47530
63500,47371
63606,47530
63787,47651
64000,47693
64212,47651
64393,47530
64513,47350
64545,47191
64545,46808
64513,46649
64393,46469
64212,46348
64000,46306
63923,46321
63828,46226
63828,41659
64000,41693
64212,41651
64393,41530
64513,41350
64545,41191
64545,40808
64513,40649
64393,40469
64212,40348
64000,40306
63949,40316
63578,39945
63578,38860
63663,38953
63862,39047
63950,39000
63950,38550
64050,38550
64050,39000
64137,39047
64336,38953
64484,38790
64547,38637
64499,38550
64050,38550
63950,38550
63942,38550
63942,38450
63950,38450
63950,37999
64050,37999
64050,38450
64499,38450
64547,38362
64484,38209
64336,38046
64137,37952
64050,37999
63950,37999
63862,37952
63663,38046
63578,38139
63578,37886
63869,37595
63942,37609
64057,37609
64228,37575
64421,37446
64500,37329
64578,37446
64771,37575
64942,37609
65057,37609
65163,37588
65163,38021
65040,38144
65012,38162
64940,38271
64921,38367
64921,38367
64914,38400
64921,38432
64921,49113
64232,49802
64212,49789
64000,49747
63787,49789
63606,49910
63500,50069
63393,49910
63212,49789
63000,49747
62787,49789
62606,49910
62496,50075
62492,50058
62360,49888
62174,49782
62134,49774
62050,49822
62050,50351
62057,50351
62057,50451
62050,50451
62050,50980
62084,51000
62050,51019
62050,51548
62057,51548
62057,51648
62050,51648
62050,52177
62134,52225
62174,52217
62360,52111
62492,51941
62496,51924
62606,52089
62787,52210
63000,52252
63212,52210
63393,52089
63500,51930
63606,52089
63787,52210
64000,52252
64212,52210
64393,52089
64500,51930
64606,52089
64787,52210
65000,52252
65212,52210
65393,52089
65500,51930
65606,52089
65787,52210
66000,52252
66212,52210
66393,52089
66500,51930
66606,52089
66787,52210
67000,52252
67212,52210
67393,52089
67500,51930
67606,52089
67787,52210
68000,52252
68212,52210
68393,52089
68503,51924
68507,51941
68639,52111
68825,52217
68865,52225
68950,52177
68950,51648
68942,51648
68942,51548
68950,51548
68950,51019
68915,51000
68950,50980
68950,50451
68942,50451
68942,50351
68950,50351
68950,49822
68865,49774
68825,49782
68639,49888
68507,50058
68503,50075
68446,49990
68446,42509
68506,42420
68515,42451
68649,42617
68837,42719
68865,42725
68950,42677
68950,42050
68942,42050
68942,41950
68950,41950
68950,41322
69050,41322
69050,41950
69057,41950
69057,42050
69050,42050
69050,42677
69134,42725
69162,42719
69350,42617
69450,42494
69469,42589
69524,42672
69553,42691
69553,42884
69553,42884
69553,49808
69524,49827
69469,49910
69450,50004
69360,49888
69174,49782
69134,49774
69050,49822
69050,50351
69057,50351
69057,50451
69050,50451
69050,50980
69084,51000
69050,51019
69050,51548
69057,51548
69057,51648
69050,51648
69050,52177
69134,52225
69174,52217
69360,52111
69492,51941
69496,51924
69606,52089
69787,52210
70000,52252
70212,52210
70393,52089
70513,51909
70545,51750
70545,51446
70513,51287
70446,51187
70446,50994
70475,50975
70530,50892
70550,50795
70550,50007
70530,49910
70475,49827
70446,49808
70446,42861
72295,42861
72295,45138
73799,45138
73799,42861
72295,42861
70446,42861
70446,42691
70475,42672
70530,42589
70550,42492
70550,41507
70530,41410
70475,41327
70392,41272
70295,41252
69704,41252
69607,41272
69524,41327
69469,41410
69450,41505
69350,41382
69162,41280
69134,41274
69050,41322
68950,41322
68865,41274
68837,41280
68649,41382
68515,41548
68506,41579
68446,41490
68446,39985
68830,39985
68830,40614
68849,40712
68904,40795
68987,40850
69085,40869
69714,40869
69812,40850
69895,40795
69950,40712
69969,40614
69969,39985
69950,39887
69895,39804
69812,39749
69720,39731
69726,39712
69400,39386
69073,39712
69079,39731
68987,39749
68904,39804
68849,39887
68830,39985
68446,39985
68446,39894
68455,39849
68422,39684
68420,39675
68322,39527
68305,39516
68300,39504
68169,39372
68062,39328
68063,39321
68057,39289
68057,39230
68830,39230
68841,39454
68906,39612
69003,39641
69329,39315
69470,39315
69796,39641
69893,39612
69969,39401
69958,39176
69893,39018
69796,38989
69470,39315
69329,39315
69003,38989
68906,39018
68830,39230
68057,39230
68057,38918
69073,38918
69400,39245
69726,38918
69696,38822
69485,38746
69260,38756
69103,38822
69073,38918
68057,38918
68057,37609
68057,37609
68228,37575
68421,37446
68500,37329
68578,37446
68771,37575
68942,37609
69057,37609
69228,37575
69421,37446
69500,37329
69578,37446
69771,37575
69942,37609
70057,37609
70228,37575
70421,37446
70500,37329
70578,37446
70771,37575
70942,37609
71057,37609
71228,37575
71421,37446
71500,37329
71578,37446
71771,37575
71942,37609
72057,37609
72228,37575
72421,37446
72500,37329
72578,37446
72771,37575
72942,37609
73057,37609
73228,37575
73421,37446
73550,37253
73596,37025
73550,36796
73421,36603
73228,36474
73057,36440
72942,36440
72771,36474
72578,36603
72500,36720
72421,36603
72228,36474
72057,36440
71942,36440
71771,36474
71578,36603
71500,36720
71421,36603
71228,36474
71057,36440
70942,36440
70771,36474
70578,36603
70500,36720
70421,36603
70228,36474
70057,36440
69942,36440
69771,36474
69578,36603
69500,36720
69421,36603
69228,36474
69057,36440
68942,36440
68771,36474
68578,36603
68500,36720
68421,36603
68257,36494
68237,36462
68209,36444
67805,36040
67787,36012
67678,35940
67582,35921
67582,35921
67550,35914
67517,35921
66079,35921
66046,35914
66014,35921
65918,35940
65809,36012
65791,36040
65305,36526
65228,36474
65057,36440
64942,36440
64911,36446
64755,36290
64737,36262
64628,36190
64532,36171
64532,36171
64500,36164
64467,36171
62832,36171
62800,36164
62767,36171
62671,36190
62562,36262
62544,36290
62307,36527
62228,36474
62057,36440
61942,36440
61771,36474
61692,36527
61455,36290
61437,36262
61328,36190
61232,36171
61232,36171
61200,36164
61167,36171
60532,36171
60499,36164
60467,36171
60467,36171
60371,36190
60262,36262
60244,36290
60088,36446
60057,36440
59942,36440
59771,36474
59578,36603
59500,36720
59421,36603
59228,36474
59057,36440
58942,36440
58771,36474
58578,36603
58500,36720
58421,36603
58228,36474
58057,36440
57942,36440
57771,36474
57578,36603
57500,36720
57421,36603
57228,36474
57057,36440
56942,36440
56771,36474
56578,36603
56572,36612
56546,36548
56476,36478
56384,36440
56112,36440
56050,36502
56050,36975
56057,36975
56057,37075
56050,37075
56050,37547
56112,37609
56384,37609
56476,37571
56546,37501
56572,37437
56578,37446
56771,37575
56942,37609
57057,37609
57228,37575
57421,37446
57500,37329
57578,37446
57771,37575
57942,37609
58057,37609
58228,37575
58421,37446
58500,37329
58578,37446
58671,37508
58671,38029
58521,38179
58435,38387
58435,38612
58521,38820
58679,38978
58887,39064
59112,39064
59320,38978
59478,38820
59492,38788
59505,38820
59664,38978
59871,39064
60096,39064
60099,39063
60244,39209
60262,39237
60290,39255
60671,39636
60671,40426
60606,40469
60493,40638
60484,40607
60350,40441
60162,40339
60134,40333
60050,40382
60050,40950
60057,40950
60057,41050
60050,41050
60050,41617
60134,41666
60162,41660
60350,41558
60484,41392
60493,41361
60606,41530
60787,41651
61000,41693
61171,41659
61171,46340
61000,46306
60787,46348
60606,46469
60500,46628
60393,46469
60212,46348
60000,46306
59787,46348
59703,46404
56251,42952
56232,42923
56116,42846
56015,42826
56015,42826
55980,42819
55946,42826
55181,42826
54040,41685
54212,41651
54393,41530
54500,41371
54606,41530
54787,41651
55000,41693
55212,41651
55393,41530
55500,41371
55606,41530
55787,41651
56000,41693
56212,41651
56393,41530
56500,41371
56606,41530
56787,41651
57000,41693
57212,41651
57393,41530
57500,41371
57606,41530
57787,41651
58000,41693
58212,41651
58393,41530
58500,41371
58606,41530
58787,41651
59000,41693
59212,41651
59393,41530
59506,41361
59515,41392
59649,41558
59837,41660
59865,41666
59950,41617
59950,41050
59942,41050
59942,40950
59950,40950
59950,40382
59865,40333
59837,40339
59649,40441
59515,40607
59506,40638
59393,40469
59212,40348
59000,40306
58787,40348
58606,40469
58500,40628
58393,40469
58212,40348
58000,40306
57787,40348
57606,40469
57500,40628
57393,40469
57212,40348
57000,40306
56787,40348
56606,40469
56500,40628
56393,40469
56212,40348
56000,40306
55787,40348
55606,40469
55500,40628
55393,40469
55212,40348
55000,40306
54947,40316
54758,40128
54739,40099
54623,40022
54522,40002
54522,40002
54487,39995
54453,40002
45877,40002
45843,39995
45809,40002
45809,40002
45707,40022
45666,40050
45621,40079
45621,40079
45592,40099
45572,40128
45305,40396
45294,40403
45212,40348
45000,40306
44787,40348
44606,40469
44486,40649
44454,40808
44208,40808
44234,40745
44234,40254
44046,39800
43699,39453
43245,39265
42754,39265
42300,39453
41953,39800
41769,40244
41769,37672
42211,37672
42211,38298
42249,38390
42319,38460
42411,38499
43037,38499
43100,38436
43100,37610
43200,37610
43200,38436
43262,38499
43888,38499
43980,38460
44050,38390
44056,38378
44056,39430
44075,39527
44130,39610
44213,39665
44311,39684
45689,39684
45786,39665
45869,39610
45924,39527
45943,39430
45943,39000
53423,39000
53467,39220
53592,39407
53779,39532
53944,39564
54055,39564
54220,39532
54407,39407
54532,39220
54576,39000
54553,38887
56435,38887
56435,39112
56521,39320
56679,39478
56887,39564
57112,39564
57320,39478
57478,39320
57564,39112
57564,38887
57478,38679
57320,38521
57112,38435
56887,38435
56679,38521
56521,38679
56435,38887
54553,38887
54532,38779
54407,38592
54220,38467
54055,38435
53944,38435
53779,38467
53592,38592
53467,38779
53423,39000
45943,39000
45943,38115
46797,38115
46797,38371
46895,38607
47076,38789
47312,38887
47568,38887
47805,38789
47986,38607
48084,38371
48084,38115
47986,37878
47805,37697
47568,37599
47312,37599
47076,37697
46895,37878
46797,38115
45943,38115
45943,38052
45924,37954
45869,37871
45786,37816
45689,37797
44311,37797
44213,37816
44130,37871
44089,37934
44089,37672
44026,37610
43200,37610
43100,37610
42273,37610
42211,37672
41769,37672
41769,36821
42211,36821
42211,37447
42273,37510
43100,37510
43100,36683
43200,36683
43200,37510
44026,37510
44089,37447
44089,37185
44099,37209
44169,37279
44261,37318
44887,37318
44950,37255
44950,36429
45050,36429
45050,37255
45112,37318
45738,37318
45830,37279
45900,37209
45939,37117
45939,36879
52895,36879
52895,37120
52987,37342
53157,37512
53379,37604
53620,37604
53842,37512
53911,37442
53933,37495
54004,37566
54095,37604
54387,37604
54450,37541
54450,37050
54550,37050
54550,37541
54612,37604
54904,37604
54995,37566
55066,37495
55104,37404
55104,37137
55415,37137
55415,37409
55453,37501
55523,37571
55615,37609
55887,37609
55950,37547
55950,37075
55477,37075
55415,37137
55104,37137
55104,37112
55041,37050
54550,37050
54450,37050
54442,37050
54442,36950
54450,36950
54450,36458
54550,36458
54550,36950
55041,36950
55104,36887
55104,36640
55415,36640
55415,36912
55477,36975
55950,36975
55950,36502
55887,36440
55615,36440
55523,36478
55453,36548
55415,36640
55104,36640
55104,36595
55066,36504
54995,36433
54904,36395
54612,36395
54550,36458
54450,36458
54387,36395
54095,36395
54004,36433
53933,36504
53911,36557
53842,36487
53620,36395
53379,36395
53157,36487
52987,36657
52895,36879
45939,36879
45939,36491
45876,36429
45050,36429
44950,36429
44123,36429
44061,36491
44061,36753
44050,36729
43980,36659
43888,36621
43262,36621
43200,36683
43100,36683
43037,36621
42411,36621
42319,36659
42249,36729
42211,36821
41769,36821
41769,35640
44061,35640
44061,36266
44123,36329
44950,36329
44950,35502
45050,35502
45050,36329
45876,36329
45939,36266
45939,35762
46792,35762
46792,36550
46811,36647
46867,36730
46949,36785
47047,36805
47834,36805
47932,36785
48014,36730
48070,36647
48089,36550
48089,35762
48070,35665
48014,35582
47932,35527
47834,35508
47047,35508
46949,35527
46867,35582
46811,35665
46792,35762
45939,35762
45939,35640
45900,35548
45830,35478
45738,35440
45112,35440
45050,35502
44950,35502
44887,35440
44261,35440
44169,35478
44099,35548
44061,35640
41769,35640
41769,35223
41787,35122
41826,35054
41886,35004
41972,34973
42011,34969
73976,34969
74077,34987
" /> 
<polyline style="fill-rule:evenodd;"
points="55606,52089
55787,52210
56000,52252
56212,52210
56290,52158
56523,52391
56543,52420
56572,52439
56572,52439
56615,52469
56658,52497
56759,52517
56759,52517
56794,52524
56828,52517
60161,52517
60195,52524
60230,52517
60230,52517
60331,52497
60446,52420
60449,52416
60449,52547
47550,52547
47550,52117
47530,52020
47485,51952
47500,51930
47606,52089
47787,52210
48000,52252
48212,52210
48393,52089
48500,51930
48606,52089
48787,52210
49000,52252
49212,52210
49393,52089
49500,51930
49606,52089
49787,52210
50000,52252
50212,52210
50393,52089
50500,51930
50606,52089
50787,52210
51000,52252
51212,52210
51393,52089
51500,51930
51606,52089
51787,52210
52000,52252
52212,52210
52393,52089
52500,51930
52606,52089
52787,52210
53000,52252
53212,52210
53393,52089
53500,51930
53606,52089
53787,52210
54000,52252
54212,52210
54393,52089
54500,51930
54606,52089
54787,52210
55000,52252
55212,52210
55393,52089
55500,51930
55606,52089
" /> 
<polyline style="fill-rule:evenodd;"
points="55151,48450
55151,49777
55000,49747
54787,49789
54606,49910
54500,50069
54393,49910
54348,49880
54348,47647
55151,48450
" /> 
<polyline style="fill-rule:evenodd;"
points="47606,47530
47787,47651
48000,47693
48084,47676
50192,49785
50000,49747
49787,49789
49606,49910
49500,50069
49393,49910
49212,49789
49000,49747
48787,49789
48606,49910
48500,50069
48393,49910
48348,49880
48348,48834
48355,48799
48348,48765
48348,48765
48328,48664
48299,48621
48270,48577
48270,48577
48251,48548
48222,48529
47348,47655
47348,47560
47393,47530
47500,47371
47606,47530
" /> 
<polyline style="fill-rule:evenodd;"
points="67509,40032
67553,40076
67553,41490
67486,41590
67454,41749
67454,42250
67486,42409
67553,42509
67553,49990
67500,50069
67393,49910
67328,49867
67328,40186
67501,40013
67509,40032
" /> 
<polyline style="fill-rule:evenodd;"
points="65914,43553
66139,43543
66183,43525
66183,49502
65922,49762
65816,49783
65816,43518
65914,43553
" /> 
<polyline style="fill-rule:evenodd;"
points="46000,41693
46052,41683
47491,43122
47511,43151
47540,43170
47540,43170
47626,43228
47728,43248
47728,43248
47762,43255
47796,43248
49561,43248
51889,45576
47120,45576
47073,45556
46926,45556
46791,45612
46687,45716
46631,45851
46631,45998
46687,46133
46791,46237
46926,46293
47073,46293
47120,46273
51918,46273
51959,46314
51787,46348
51606,46469
51493,46638
51484,46607
51350,46441
51162,46339
51134,46333
51050,46382
51050,46950
51057,46950
51057,47050
51050,47050
51050,47617
51134,47666
51162,47660
51350,47558
51484,47392
51493,47361
51606,47530
51787,47651
52000,47693
52212,47651
52393,47530
52500,47371
52606,47530
52787,47651
53000,47693
53151,47663
53151,49777
53000,49747
52991,49748
50893,47650
50950,47617
50950,47050
50942,47050
50942,46950
50950,46950
50950,46382
50865,46333
50837,46339
50649,46441
50515,46607
50506,46638
50393,46469
50212,46348
50000,46306
49787,46348
49606,46469
49500,46628
49393,46469
49212,46348
49000,46306
48787,46348
48606,46469
48500,46628
48393,46469
48212,46348
48000,46306
47787,46348
47606,46469
47500,46628
47393,46469
47212,46348
47000,46306
46787,46348
46606,46469
46500,46628
46393,46469
46212,46348
46000,46306
45875,46331
45875,41668
46000,41693
" /> 
<polyline style="fill-rule:evenodd;"
points="52606,41530
52787,41651
53000,41693
53052,41683
54766,43397
54786,43426
54815,43445
54815,43445
54863,43477
54901,43503
55003,43523
55003,43523
55037,43530
55071,43523
55836,43523
58712,46398
58703,46404
58126,45827
58107,45798
57991,45721
57890,45701
57890,45701
57855,45694
57821,45701
57394,45701
55920,44227
55901,44198
55785,44121
55684,44101
55684,44101
55650,44094
55615,44101
55420,44101
55373,44081
55226,44081
55091,44137
55011,44218
52351,41558
52393,41530
52500,41371
52606,41530
" /> 
<polyline style="fill-rule:evenodd;"
points="62787,41651
63000,41693
63171,41659
63171,46330
63169,46339
63000,46306
62787,46348
62781,46352
62781,41647
62787,41651
" /> 
<polyline style="fill-rule:evenodd;"
points="62000,41693
62124,41668
62124,46273
62076,46321
62000,46306
61828,46340
61828,41659
62000,41693
" /> 
<polyline style="fill-rule:evenodd;"
points="66076,42978
66070,42984
66076,42989
66005,43060
66000,43054
65994,43060
65923,42989
65929,42984
65923,42978
65994,42907
66000,42913
66005,42907
66076,42978
" /> 
<polyline style="fill-rule:evenodd;"
points="66183,41464
66112,41435
65887,41435
65816,41464
65816,39589
66183,39589
66183,41464
" /> 
<polyline style="fill-rule:evenodd;"
points="67399,37617
67399,38221
67364,38198
67268,38179
67268,38179
67236,38172
67203,38179
66524,38179
66492,38172
66459,38179
66459,38179
66363,38198
66290,38247
66255,38270
66236,38298
66124,38410
66079,38410
66890,37599
66942,37609
67057,37609
67228,37575
67305,37523
67399,37617
" /> 
<polyline style="fill-rule:evenodd;"
points="60578,37446
60771,37575
60788,37579
60790,37580
61168,37958
61112,37935
60887,37935
60679,38021
60521,38179
60492,38249
60463,38179
60304,38021
60096,37935
59871,37935
59664,38021
59505,38179
59492,38211
59478,38179
59328,38029
59328,37508
59421,37446
59500,37329
59578,37446
59771,37575
59942,37609
60057,37609
60228,37575
60421,37446
60500,37329
60578,37446
" /> 
</g> 
</svg>
