<?xml version="1.0" standalone="no"?>
 <!DOCTYPE svg PUBLIC "-//W3C//DTD SVG 1.1//EN" 
 "http://www.w3.org/Graphics/SVG/1.1/DTD/svg11.dtd"> 
<svg xmlns="http://www.w3.org/2000/svg" version="1.1" 
    width="29.7002cm" height="21.0007cm" viewBox="0 0 116930 82680 ">
<title>SVG Picture created as Lawo 28x13-B.SilkS.svg date 2019/01/29 23:39:52 </title>
  <desc>Picture generated by PCBNEW </desc>
<g style="fill:#000000; fill-opacity:1;stroke:#000000; stroke-opacity:1;
stroke-linecap:round; stroke-linejoin:round; "
 transform="translate(0 0) scale(1 1)">
</g>
<g style="fill:#000000; fill-opacity:0.0; 
stroke:#000000; stroke-width:-0.000393701; stroke-opacity:1; 
stroke-linecap:round; stroke-linejoin:round;">
</g>
<g style="fill:#000000; fill-opacity:0.0; 
stroke:#000000; stroke-width:59.0551; stroke-opacity:1; 
stroke-linecap:round; stroke-linejoin:round;">
<path d="M60224 42068
L60421 42068
" />
<path d="M60421 42377
L60421 41786
L60139 41786
" />
<path d="M59830 42377
L59886 42349
L59914 42293
L59914 41786
" />
<path d="M59605 42377
L59605 41983
" />
<path d="M59605 41786
L59633 41814
L59605 41843
L59577 41814
L59605 41786
L59605 41843
" />
<path d="M59324 41983
L59324 42574
" />
<path d="M59324 42011
L59268 41983
L59155 41983
L59099 42011
L59071 42039
L59043 42096
L59043 42264
L59071 42321
L59099 42349
L59155 42377
L59268 42377
L59324 42349
" />
<path d="M58424 41786
L58086 41786
" />
<path d="M58255 42377
L58255 41786
" />
<path d="M57890 42377
L57890 41786
" />
<path d="M57636 42377
L57636 42068
L57665 42011
L57721 41983
L57805 41983
L57861 42011
L57890 42039
" />
<path d="M57130 42349
L57187 42377
L57299 42377
L57355 42349
L57383 42293
L57383 42068
L57355 42011
L57299 41983
L57187 41983
L57130 42011
L57102 42068
L57102 42124
L57383 42180
" />
<path d="M56399 42377
L56399 41786
L56259 41786
L56174 41814
L56118 41871
L56090 41927
L56062 42039
L56062 42124
L56090 42236
L56118 42293
L56174 42349
L56259 42377
L56399 42377
" />
<path d="M55724 42377
L55780 42349
L55809 42321
L55837 42264
L55837 42096
L55809 42039
L55780 42011
L55724 41983
L55640 41983
L55584 42011
L55555 42039
L55527 42096
L55527 42264
L55555 42321
L55584 42349
L55640 42377
L55724 42377
" />
<path d="M55359 41983
L55134 41983
" />
<path d="M55274 41786
L55274 42293
L55246 42349
L55190 42377
L55134 42377
" />
<path d="M60139 43322
L60421 43322
L60421 42731
" />
<path d="M59689 43322
L59689 43012
L59717 42956
L59774 42928
L59886 42928
L59942 42956
" />
<path d="M59689 43294
L59746 43322
L59886 43322
L59942 43294
L59971 43237
L59971 43181
L59942 43125
L59886 43097
L59746 43097
L59689 43069
" />
<path d="M59464 42928
L59352 43322
L59239 43041
L59127 43322
L59014 42928
" />
<path d="M58705 43322
L58761 43294
L58789 43266
L58818 43209
L58818 43041
L58789 42984
L58761 42956
L58705 42928
L58621 42928
L58564 42956
L58536 42984
L58508 43041
L58508 43209
L58536 43266
L58564 43294
L58621 43322
L58705 43322
" />
<path d="M57833 42787
L57805 42759
L57749 42731
L57608 42731
L57552 42759
L57524 42787
L57496 42844
L57496 42900
L57524 42984
L57861 43322
L57496 43322
" />
<path d="M57158 42984
L57215 42956
L57243 42928
L57271 42872
L57271 42844
L57243 42787
L57215 42759
L57158 42731
L57046 42731
L56990 42759
L56962 42787
L56933 42844
L56933 42872
L56962 42928
L56990 42956
L57046 42984
L57158 42984
L57215 43012
L57243 43041
L57271 43097
L57271 43209
L57243 43266
L57215 43294
L57158 43322
L57046 43322
L56990 43294
L56962 43266
L56933 43209
L56933 43097
L56962 43041
L56990 43012
L57046 42984
" />
<path d="M56737 43322
L56427 42928
" />
<path d="M56737 42928
L56427 43322
" />
<path d="M55893 43322
L56230 43322
" />
<path d="M56062 43322
L56062 42731
L56118 42816
L56174 42872
L56230 42900
" />
<path d="M55696 42731
L55331 42731
L55527 42956
L55443 42956
L55387 42984
L55359 43012
L55331 43069
L55331 43209
L55359 43266
L55387 43294
L55443 43322
L55612 43322
L55668 43294
L55696 43266
" />
<path d="M54431 43012
L54627 43012
" />
<path d="M54627 43322
L54627 42731
L54346 42731
" />
<path d="M54037 43322
L54093 43294
L54121 43237
L54121 42731
" />
<path d="M53812 43322
L53812 42928
" />
<path d="M53812 42731
L53840 42759
L53812 42787
L53784 42759
L53812 42731
L53812 42787
" />
<path d="M53531 42928
L53531 43519
" />
<path d="M53531 42956
L53475 42928
L53362 42928
L53306 42956
L53278 42984
L53250 43041
L53250 43209
L53278 43266
L53306 43294
L53362 43322
L53475 43322
L53531 43294
" />
<path d="M52546 43322
L52546 42731
L52406 42731
L52322 42759
L52265 42816
L52237 42872
L52209 42984
L52209 43069
L52237 43181
L52265 43237
L52322 43294
L52406 43322
L52546 43322
" />
<path d="M51872 43322
L51928 43294
L51956 43266
L51984 43209
L51984 43041
L51956 42984
L51928 42956
L51872 42928
L51787 42928
L51731 42956
L51703 42984
L51675 43041
L51675 43209
L51703 43266
L51731 43294
L51787 43322
L51872 43322
" />
<path d="M51506 42928
L51281 42928
" />
<path d="M51422 42731
L51422 43237
L51394 43294
L51337 43322
L51281 43322
" />
<path d="M50634 43322
L50634 42731
" />
<path d="M50353 42928
L50353 43322
" />
<path d="M50353 42984
L50325 42956
L50269 42928
L50184 42928
L50128 42956
L50100 43012
L50100 43322
" />
<path d="M49903 42928
L49678 42928
" />
<path d="M49819 42731
L49819 43237
L49791 43294
L49734 43322
L49678 43322
" />
<path d="M49256 43294
L49313 43322
L49425 43322
L49481 43294
L49509 43237
L49509 43012
L49481 42956
L49425 42928
L49313 42928
L49256 42956
L49228 43012
L49228 43069
L49509 43125
" />
<path d="M48975 43322
L48975 42928
" />
<path d="M48975 43041
L48947 42984
L48919 42956
L48863 42928
L48806 42928
" />
<path d="M48694 42928
L48469 42928
" />
<path d="M48609 43322
L48609 42816
L48581 42759
L48525 42731
L48469 42731
" />
<path d="M48019 43322
L48019 43012
L48047 42956
L48103 42928
L48216 42928
L48272 42956
" />
<path d="M48019 43294
L48075 43322
L48216 43322
L48272 43294
L48300 43237
L48300 43181
L48272 43125
L48216 43097
L48075 43097
L48019 43069
" />
<path d="M47485 43294
L47541 43322
L47653 43322
L47710 43294
L47738 43266
L47766 43209
L47766 43041
L47738 42984
L47710 42956
L47653 42928
L47541 42928
L47485 42956
" />
<path d="M47007 43294
L47063 43322
L47175 43322
L47232 43294
L47260 43237
L47260 43012
L47232 42956
L47175 42928
L47063 42928
L47007 42956
L46978 43012
L46978 43069
L47260 43125
" />
<path d="M60308 43676
L60252 43676
L60196 43704
L60167 43732
L60139 43789
L60111 43901
L60111 44042
L60139 44154
L60167 44210
L60196 44239
L60252 44267
L60308 44267
L60364 44239
L60392 44210
L60421 44154
L60449 44042
L60449 43901
L60421 43789
L60392 43732
L60364 43704
L60308 43676
" />
<path d="M59858 44210
L59830 44239
L59858 44267
L59886 44239
L59858 44210
L59858 44267
" />
<path d="M59268 44267
L59605 44267
" />
<path d="M59436 44267
L59436 43676
L59492 43760
L59549 43817
L59605 43845
" />
<path d="M59043 43732
L59014 43704
L58958 43676
L58818 43676
L58761 43704
L58733 43732
L58705 43789
L58705 43845
L58733 43929
L59071 44267
L58705 44267
" />
<path d="M60252 44621
L60252 45043
L60280 45127
L60336 45183
L60421 45212
L60477 45212
" />
<path d="M59717 45212
L59717 44902
L59746 44846
L59802 44818
L59914 44818
L59971 44846
" />
<path d="M59717 45183
L59774 45212
L59914 45212
L59971 45183
L59999 45127
L59999 45071
L59971 45015
L59914 44987
L59774 44987
L59717 44958
" />
<path d="M59436 44818
L59436 45212
" />
<path d="M59436 44874
L59408 44846
L59352 44818
L59268 44818
L59211 44846
L59183 44902
L59183 45212
" />
<path d="M58649 44818
L58649 45212
" />
<path d="M58902 44818
L58902 45127
L58874 45183
L58818 45212
L58733 45212
L58677 45183
L58649 45155
" />
<path d="M58115 45212
L58115 44902
L58143 44846
L58199 44818
L58311 44818
L58368 44846
" />
<path d="M58115 45183
L58171 45212
L58311 45212
L58368 45183
L58396 45127
L58396 45071
L58368 45015
L58311 44987
L58171 44987
L58115 44958
" />
<path d="M57833 45212
L57833 44818
" />
<path d="M57833 44930
L57805 44874
L57777 44846
L57721 44818
L57665 44818
" />
<path d="M57524 44818
L57383 45212
" />
<path d="M57243 44818
L57383 45212
L57440 45352
L57468 45380
L57524 45408
" />
<path d="M56596 44677
L56568 44649
L56512 44621
L56371 44621
L56315 44649
L56287 44677
L56259 44733
L56259 44790
L56287 44874
L56624 45212
L56259 45212
" />
<path d="M55893 44621
L55837 44621
L55780 44649
L55752 44677
L55724 44733
L55696 44846
L55696 44987
L55724 45099
L55752 45155
L55780 45183
L55837 45212
L55893 45212
L55949 45183
L55977 45155
L56005 45099
L56034 44987
L56034 44846
L56005 44733
L55977 44677
L55949 44649
L55893 44621
" />
<path d="M55134 45212
L55471 45212
" />
<path d="M55302 45212
L55302 44621
L55359 44705
L55415 44762
L55471 44790
" />
<path d="M54852 45212
L54740 45212
L54684 45183
L54656 45155
L54599 45071
L54571 44958
L54571 44733
L54599 44677
L54627 44649
L54684 44621
L54796 44621
L54852 44649
L54881 44677
L54909 44733
L54909 44874
L54881 44930
L54852 44958
L54796 44987
L54684 44987
L54627 44958
L54599 44930
L54571 44874
" />
<path d="M60083 46156
L60280 45875
" />
<path d="M60421 46156
L60421 45566
L60196 45566
L60139 45594
L60111 45622
L60083 45678
L60083 45763
L60111 45819
L60139 45847
L60196 45875
L60421 45875
" />
<path d="M59746 46156
L59802 46128
L59830 46100
L59858 46044
L59858 45875
L59830 45819
L59802 45791
L59746 45763
L59661 45763
L59605 45791
L59577 45819
L59549 45875
L59549 46044
L59577 46100
L59605 46128
L59661 46156
L59746 46156
" />
<path d="M59296 46156
L59296 45566
" />
<path d="M59296 45791
L59239 45763
L59127 45763
L59071 45791
L59043 45819
L59014 45875
L59014 46044
L59043 46100
L59071 46128
L59127 46156
L59239 46156
L59296 46128
" />
<path d="M58536 46128
L58593 46156
L58705 46156
L58761 46128
L58789 46072
L58789 45847
L58761 45791
L58705 45763
L58593 45763
L58536 45791
L58508 45847
L58508 45903
L58789 45960
" />
<path d="M58255 46156
L58255 45763
" />
<path d="M58255 45875
L58227 45819
L58199 45791
L58143 45763
L58086 45763
" />
<path d="M57974 45763
L57749 45763
" />
<path d="M57890 45566
L57890 46072
L57861 46128
L57805 46156
L57749 46156
" />
<path d="M56765 46156
L56962 45875
" />
<path d="M57102 46156
L57102 45566
L56877 45566
L56821 45594
L56793 45622
L56765 45678
L56765 45763
L56793 45819
L56821 45847
L56877 45875
L57102 45875
" />
<path d="M56427 46156
L56483 46128
L56512 46100
L56540 46044
L56540 45875
L56512 45819
L56483 45791
L56427 45763
L56343 45763
L56287 45791
L56259 45819
L56230 45875
L56230 46044
L56259 46100
L56287 46128
L56343 46156
L56427 46156
" />
<path d="M56483 45566
L56455 45594
L56483 45622
L56512 45594
L56483 45566
L56483 45622
" />
<path d="M56259 45566
L56230 45594
L56259 45622
L56287 45594
L56259 45566
L56259 45622
" />
<path d="M55977 46156
L55977 45763
" />
<path d="M55977 45819
L55949 45791
L55893 45763
L55809 45763
L55752 45791
L55724 45847
L55724 46156
" />
<path d="M55724 45847
L55696 45791
L55640 45763
L55555 45763
L55499 45791
L55471 45847
L55471 46156
" />
<path d="M54965 46128
L55021 46156
L55134 46156
L55190 46128
L55218 46072
L55218 45847
L55190 45791
L55134 45763
L55021 45763
L54965 45791
L54937 45847
L54937 45903
L55218 45960
" />
<path d="M54684 46156
L54684 45763
" />
<path d="M54684 45875
L54656 45819
L54627 45791
L54571 45763
L54515 45763
" />
</g>
<g style="fill:#000000; fill-opacity:0.0; 
stroke:#000000; stroke-width:78.7402; stroke-opacity:1; 
stroke-linecap:round; stroke-linejoin:round;">
<path d="M47500 49250
L47500 48875
" />
<path d="M47500 52250
L47500 51875
" />
<path d="M47500 53000
L47500 52625
" />
<path d="M47500 50000
L47500 49625
" />
<path d="M47500 50750
L47500 50375
" />
<path d="M47500 51500
L47500 51125
" />
<path d="M60500 49250
L60500 48875
" />
<path d="M60500 50000
L60500 49625
" />
<path d="M60500 50750
L60500 50375
" />
<path d="M60500 51500
L60500 51125
" />
</g>
<g style="fill:#000000; fill-opacity:0.0; 
stroke:#000000; stroke-width:59.0551; stroke-opacity:1; 
stroke-linecap:round; stroke-linejoin:round;">
<path d="M54368 48792
L54473 48642
" />
<path d="M54548 48792
L54548 48477
L54428 48477
L54398 48492
L54383 48507
L54368 48537
L54368 48582
L54383 48612
L54398 48627
L54428 48642
L54548 48642
" />
<path d="M54188 48792
L54218 48777
L54233 48762
L54248 48732
L54248 48642
L54233 48612
L54218 48597
L54188 48582
L54143 48582
L54113 48597
L54098 48612
L54083 48642
L54083 48732
L54098 48762
L54113 48777
L54143 48792
L54188 48792
" />
<path d="M53978 48582
L53918 48792
L53858 48642
L53798 48792
L53738 48582
" />
<path d="M53633 48777
L53603 48792
L53543 48792
L53513 48777
L53498 48747
L53498 48732
L53513 48702
L53543 48687
L53588 48687
L53618 48672
L53633 48642
L53633 48627
L53618 48597
L53588 48582
L53543 48582
L53513 48597
" />
<path d="M66268 48762
L66283 48777
L66328 48792
L66358 48792
L66403 48777
L66433 48747
L66448 48717
L66463 48657
L66463 48612
L66448 48552
L66433 48522
L66403 48492
L66358 48477
L66328 48477
L66283 48492
L66268 48507
" />
<path d="M66088 48792
L66118 48777
L66133 48762
L66148 48732
L66148 48642
L66133 48612
L66118 48597
L66088 48582
L66043 48582
L66013 48597
L65998 48612
L65983 48642
L65983 48732
L65998 48762
L66013 48777
L66043 48792
L66088 48792
" />
<path d="M65803 48792
L65833 48777
L65848 48747
L65848 48477
" />
<path d="M65548 48582
L65548 48792
" />
<path d="M65683 48582
L65683 48747
L65668 48777
L65638 48792
L65593 48792
L65563 48777
L65548 48762
" />
<path d="M65398 48792
L65398 48582
" />
<path d="M65398 48612
L65383 48597
L65353 48582
L65308 48582
L65278 48597
L65263 48627
L65263 48792
" />
<path d="M65263 48627
L65248 48597
L65218 48582
L65173 48582
L65143 48597
L65128 48627
L65128 48792
" />
<path d="M64978 48582
L64978 48792
" />
<path d="M64978 48612
L64963 48597
L64933 48582
L64888 48582
L64858 48597
L64843 48627
L64843 48792
" />
<path d="M64708 48777
L64678 48792
L64618 48792
L64588 48777
L64573 48747
L64573 48732
L64588 48702
L64618 48687
L64663 48687
L64693 48672
L64708 48642
L64708 48627
L64693 48597
L64663 48582
L64618 48582
L64588 48597
" />
<path d="M64221 42377
L64221 41786
L63996 41786
L63939 41814
L63911 41843
L63883 41899
L63883 41983
L63911 42039
L63939 42068
L63996 42096
L64221 42096
" />
<path d="M63630 42377
L63630 41983
" />
<path d="M63630 42096
L63602 42039
L63574 42011
L63517 41983
L63461 41983
" />
<path d="M63180 42377
L63236 42349
L63264 42321
L63292 42264
L63292 42096
L63264 42039
L63236 42011
L63180 41983
L63096 41983
L63039 42011
L63011 42039
L62983 42096
L62983 42264
L63011 42321
L63039 42349
L63096 42377
L63180 42377
" />
<path d="M62730 41983
L62730 42489
L62758 42546
L62814 42574
L62843 42574
" />
<path d="M62730 41786
L62758 41814
L62730 41843
L62702 41814
L62730 41786
L62730 41843
" />
<path d="M62224 42349
L62280 42377
L62393 42377
L62449 42349
L62477 42293
L62477 42068
L62449 42011
L62393 41983
L62280 41983
L62224 42011
L62196 42068
L62196 42124
L62477 42180
" />
<path d="M61690 42349
L61746 42377
L61858 42377
L61915 42349
L61943 42321
L61971 42264
L61971 42096
L61943 42039
L61915 42011
L61858 41983
L61746 41983
L61690 42011
" />
<path d="M61521 41983
L61296 41983
" />
<path d="M61436 41786
L61436 42293
L61408 42349
L61352 42377
L61296 42377
" />
<path d="M61099 42321
L61071 42349
L61099 42377
L61127 42349
L61099 42321
L61099 42377
" />
<path d="M61099 42011
L61071 42039
L61099 42068
L61127 42039
L61099 42011
L61099 42068
" />
<path d="M64221 43322
L64221 42731
L63996 42731
L63939 42759
L63911 42787
L63883 42844
L63883 42928
L63911 42984
L63939 43012
L63996 43041
L64221 43041
" />
<path d="M63377 43322
L63377 43012
L63405 42956
L63461 42928
L63574 42928
L63630 42956
" />
<path d="M63377 43294
L63433 43322
L63574 43322
L63630 43294
L63658 43237
L63658 43181
L63630 43125
L63574 43097
L63433 43097
L63377 43069
" />
<path d="M63096 43322
L63096 42928
" />
<path d="M63096 43041
L63068 42984
L63039 42956
L62983 42928
L62927 42928
" />
<path d="M62814 42928
L62589 42928
" />
<path d="M62730 42731
L62730 43237
L62702 43294
L62646 43322
L62589 43322
" />
<path d="M62393 43266
L62364 43294
L62393 43322
L62421 43294
L62393 43266
L62393 43322
" />
<path d="M62393 42956
L62364 42984
L62393 43012
L62421 42984
L62393 42956
L62393 43012
" />
<path d="M64305 43676
L64108 44267
L63911 43676
" />
<path d="M63489 44239
L63546 44267
L63658 44267
L63714 44239
L63742 44182
L63742 43957
L63714 43901
L63658 43873
L63546 43873
L63489 43901
L63461 43957
L63461 44014
L63742 44070
" />
<path d="M63208 44267
L63208 43873
" />
<path d="M63208 43985
L63180 43929
L63152 43901
L63096 43873
L63039 43873
" />
<path d="M62871 44239
L62814 44267
L62702 44267
L62646 44239
L62618 44182
L62618 44154
L62646 44098
L62702 44070
L62786 44070
L62843 44042
L62871 43985
L62871 43957
L62843 43901
L62786 43873
L62702 43873
L62646 43901
" />
<path d="M62364 44267
L62364 43873
" />
<path d="M62364 43676
L62393 43704
L62364 43732
L62336 43704
L62364 43676
L62364 43732
" />
<path d="M61999 44267
L62055 44239
L62083 44210
L62111 44154
L62111 43985
L62083 43929
L62055 43901
L61999 43873
L61915 43873
L61858 43901
L61830 43929
L61802 43985
L61802 44154
L61830 44210
L61858 44239
L61915 44267
L61999 44267
" />
<path d="M61549 43873
L61549 44267
" />
<path d="M61549 43929
L61521 43901
L61465 43873
L61380 43873
L61324 43901
L61296 43957
L61296 44267
" />
<path d="M61015 44210
L60987 44239
L61015 44267
L61043 44239
L61015 44210
L61015 44267
" />
<path d="M61015 43901
L60987 43929
L61015 43957
L61043 43929
L61015 43901
L61015 43957
" />
<path d="M64221 45212
L64221 44621
L64080 44621
L63996 44649
L63939 44705
L63911 44762
L63883 44874
L63883 44958
L63911 45071
L63939 45127
L63996 45183
L64080 45212
L64221 45212
" />
<path d="M63377 45212
L63377 44902
L63405 44846
L63461 44818
L63574 44818
L63630 44846
" />
<path d="M63377 45183
L63433 45212
L63574 45212
L63630 45183
L63658 45127
L63658 45071
L63630 45015
L63574 44987
L63433 44987
L63377 44958
" />
<path d="M63180 44818
L62955 44818
" />
<path d="M63096 44621
L63096 45127
L63068 45183
L63011 45212
L62955 45212
" />
<path d="M62533 45183
L62589 45212
L62702 45212
L62758 45183
L62786 45127
L62786 44902
L62758 44846
L62702 44818
L62589 44818
L62533 44846
L62505 44902
L62505 44958
L62786 45015
" />
<path d="M62252 45155
L62224 45183
L62252 45212
L62280 45183
L62252 45155
L62252 45212
" />
<path d="M62252 44846
L62224 44874
L62252 44902
L62280 44874
L62252 44846
L62252 44902
" />
<path d="M64024 45847
L63939 45875
L63911 45903
L63883 45960
L63883 46044
L63911 46100
L63939 46128
L63996 46156
L64221 46156
L64221 45566
L64024 45566
L63967 45594
L63939 45622
L63911 45678
L63911 45735
L63939 45791
L63967 45819
L64024 45847
L64221 45847
" />
<path d="M63686 45763
L63546 46156
" />
<path d="M63405 45763
L63546 46156
L63602 46297
L63630 46325
L63686 46353
" />
<path d="M63180 46100
L63152 46128
L63180 46156
L63208 46128
L63180 46100
L63180 46156
" />
<path d="M63180 45791
L63152 45819
L63180 45847
L63208 45819
L63180 45791
L63180 45847
" />
</g>
<g style="fill:#000000; fill-opacity:0.0; 
stroke:#000000; stroke-width:78.7402; stroke-opacity:1; 
stroke-linecap:round; stroke-linejoin:round;">
<path d="M60500 53000
L60500 52625
" />
<path d="M61500 48800 A250 250 0.0 0 0 61250 48550 " />
<path d="M61250 53325 A250 250 0.0 0 0 61500 53075 " />
<path d="M60500 52250
L60500 51875
" />
<path d="M61500 53075
L61500 48800
" />
<path d="M67500 48800 A250 250 0.0 0 0 67250 48550 " />
<path d="M67250 48550
L66775 48550
" />
<path d="M45500 53075
L45500 48800
" />
</g>
<g style="fill:#000000; fill-opacity:0.0; 
stroke:#000000; stroke-width:59.0551; stroke-opacity:1; 
stroke-linecap:round; stroke-linejoin:round;">
<path d="M60251 49127
L60206 49142
L60131 49142
L60101 49127
L60086 49112
L60071 49082
L60071 49052
L60086 49022
L60101 49007
L60131 48992
L60191 48977
L60221 48962
L60236 48947
L60251 48917
L60251 48887
L60236 48857
L60221 48842
L60191 48827
L60116 48827
L60071 48842
" />
<path d="M59816 49127
L59846 49142
L59906 49142
L59936 49127
L59951 49097
L59951 48977
L59936 48947
L59906 48932
L59846 48932
L59816 48947
L59801 48977
L59801 49007
L59951 49037
" />
<path d="M59711 48932
L59591 48932
" />
<path d="M59666 48827
L59666 49097
L59651 49127
L59621 49142
L59591 49142
" />
</g>
<g style="fill:#000000; fill-opacity:0.0; 
stroke:#000000; stroke-width:78.7402; stroke-opacity:1; 
stroke-linecap:round; stroke-linejoin:round;">
<path d="M64275 48550
L62750 48550
" />
<path d="M62500 53075
L62500 48800
" />
<path d="M62500 53075 A250 250 0.0 0 0 62750 53325 " />
<path d="M67250 53325 A250 250 0.0 0 0 67500 53075 " />
<path d="M67500 53075
L67500 48800
" />
<path d="M67250 53325
L62750 53325
" />
<path d="M62750 48550 A250 250 0.0 0 0 62500 48800 " />
<path d="M45750 48550 A250 250 0.0 0 0 45500 48800 " />
<path d="M45500 53075 A250 250 0.0 0 0 45750 53325 " />
<path d="M45750 53325
L61250 53325
" />
</g>
<g style="fill:#000000; fill-opacity:0.0; 
stroke:#000000; stroke-width:59.0551; stroke-opacity:1; 
stroke-linecap:round; stroke-linejoin:round;">
<path d="M57827 52276
L57827 52471
L57947 52366
L57947 52411
L57962 52441
L57977 52456
L58007 52471
L58082 52471
L58112 52456
L58127 52441
L58142 52411
L58142 52321
L58127 52291
L58112 52276
" />
<path d="M60006 53042
L60111 52892
" />
<path d="M60186 53042
L60186 52727
L60066 52727
L60036 52742
L60021 52757
L60006 52787
L60006 52832
L60021 52862
L60036 52877
L60066 52892
L60186 52892
" />
<path d="M59751 53027
L59781 53042
L59841 53042
L59871 53027
L59886 52997
L59886 52877
L59871 52847
L59841 52832
L59781 52832
L59751 52847
L59736 52877
L59736 52907
L59886 52937
" />
<path d="M59616 53027
L59586 53042
L59526 53042
L59496 53027
L59481 52997
L59481 52982
L59496 52952
L59526 52937
L59571 52937
L59601 52922
L59616 52892
L59616 52877
L59601 52847
L59571 52832
L59526 52832
L59496 52847
" />
<path d="M59226 53027
L59256 53042
L59316 53042
L59346 53027
L59361 52997
L59361 52877
L59346 52847
L59316 52832
L59256 52832
L59226 52847
L59211 52877
L59211 52907
L59361 52937
" />
<path d="M59121 52832
L59001 52832
" />
<path d="M59076 52727
L59076 52997
L59061 53027
L59031 53042
L59001 53042
" />
<path d="M54827 52441
L54827 52381
L54842 52351
L54857 52336
L54902 52306
L54962 52291
L55082 52291
L55112 52306
L55127 52321
L55142 52351
L55142 52411
L55127 52441
L55112 52456
L55082 52471
L55007 52471
L54977 52456
L54962 52441
L54947 52411
L54947 52351
L54962 52321
L54977 52306
L55007 52291
" />
<path d="M67827 52261
L68142 52366
L67827 52471
" />
<path d="M68112 52756
L68127 52741
L68142 52696
L68142 52666
L68127 52621
L68097 52591
L68067 52576
L68007 52561
L67962 52561
L67902 52576
L67872 52591
L67842 52621
L67827 52666
L67827 52696
L67842 52741
L67857 52756
" />
<path d="M68112 53071
L68127 53056
L68142 53011
L68142 52981
L68127 52936
L68097 52906
L68067 52891
L68007 52876
L67962 52876
L67902 52891
L67872 52906
L67842 52936
L67827 52981
L67827 53011
L67842 53056
L67857 53071
" />
<path d="M55827 52456
L55827 52306
L55977 52291
L55962 52306
L55947 52336
L55947 52411
L55962 52441
L55977 52456
L56007 52471
L56082 52471
L56112 52456
L56127 52441
L56142 52411
L56142 52336
L56127 52306
L56112 52291
" />
<path d="M64052 52291
L64052 52441
" />
<path d="M64142 52261
L63827 52366
L64142 52471
" />
<path d="M63857 52561
L63842 52576
L63827 52606
L63827 52681
L63842 52711
L63857 52726
L63887 52741
L63917 52741
L63962 52726
L64142 52546
L64142 52741
" />
<path d="M63052 52291
L63052 52441
" />
<path d="M63142 52261
L62827 52366
L63142 52471
" />
<path d="M62827 52636
L62827 52666
L62842 52696
L62857 52711
L62887 52726
L62947 52741
L63022 52741
L63082 52726
L63112 52711
L63127 52696
L63142 52666
L63142 52636
L63127 52606
L63112 52591
L63082 52576
L63022 52561
L62947 52561
L62887 52576
L62857 52591
L62842 52606
L62827 52636
" />
<path d="M49142 52471
L49142 52291
" />
<path d="M49142 52381
L48827 52381
L48872 52351
L48902 52321
L48917 52291
" />
<path d="M48857 52591
L48842 52606
L48827 52636
L48827 52711
L48842 52741
L48857 52756
L48887 52771
L48917 52771
L48962 52756
L49142 52576
L49142 52771
" />
<path d="M68842 52471
L68827 52441
L68827 52396
L68842 52351
L68872 52321
L68902 52306
L68962 52291
L69007 52291
L69067 52306
L69097 52321
L69127 52351
L69142 52396
L69142 52426
L69127 52471
L69112 52486
L69007 52486
L69007 52426
" />
<path d="M69142 52621
L68827 52621
L69142 52801
L68827 52801
" />
<path d="M69142 52951
L68827 52951
L68827 53026
L68842 53071
L68872 53101
L68902 53116
L68962 53131
L69007 53131
L69067 53116
L69097 53101
L69127 53071
L69142 53026
L69142 52951
" />
<path d="M56932 52441
L57142 52441
" />
<path d="M56812 52366
L57037 52291
L57037 52486
" />
<path d="M65977 52306
L65977 52411
" />
<path d="M66142 52456
L66142 52306
L65827 52306
L65827 52456
" />
<path d="M66142 52591
L65932 52591
" />
<path d="M65962 52591
L65947 52606
L65932 52636
L65932 52681
L65947 52711
L65977 52726
L66142 52726
" />
<path d="M65977 52726
L65947 52741
L65932 52771
L65932 52816
L65947 52846
L65977 52861
L66142 52861
" />
<path d="M66142 53191
L65992 53086
" />
<path d="M66142 53011
L65827 53011
L65827 53131
L65842 53161
L65857 53176
L65887 53191
L65932 53191
L65962 53176
L65977 53161
L65992 53131
L65992 53011
" />
<path d="M51142 52471
L51142 52291
" />
<path d="M51142 52381
L50827 52381
L50872 52351
L50902 52321
L50917 52291
" />
<path d="M50827 52666
L50827 52696
L50842 52726
L50857 52741
L50887 52756
L50947 52771
L51022 52771
L51082 52756
L51112 52741
L51127 52726
L51142 52696
L51142 52666
L51127 52636
L51112 52621
L51082 52606
L51022 52591
L50947 52591
L50887 52606
L50857 52621
L50842 52636
L50827 52666
" />
<path d="M53827 52276
L53827 52486
L54142 52351
" />
<path d="M64977 52411
L64992 52456
L65007 52471
L65037 52486
L65082 52486
L65112 52471
L65127 52456
L65142 52426
L65142 52306
L64827 52306
L64827 52411
L64842 52441
L64857 52456
L64887 52471
L64917 52471
L64947 52456
L64962 52441
L64977 52411
L64977 52306
" />
<path d="M64827 52681
L64827 52711
L64842 52741
L64857 52756
L64887 52771
L64947 52786
L65022 52786
L65082 52771
L65112 52756
L65127 52741
L65142 52711
L65142 52681
L65127 52651
L65112 52636
L65082 52621
L65022 52606
L64947 52606
L64887 52621
L64857 52636
L64842 52651
L64827 52681
" />
<path d="M50142 52471
L50142 52291
" />
<path d="M50142 52381
L49827 52381
L49872 52351
L49902 52321
L49917 52291
" />
<path d="M50142 52771
L50142 52591
" />
<path d="M50142 52681
L49827 52681
L49872 52651
L49902 52621
L49917 52591
" />
<path d="M58857 52291
L58842 52306
L58827 52336
L58827 52411
L58842 52441
L58857 52456
L58887 52471
L58917 52471
L58962 52456
L59142 52276
L59142 52471
" />
<path d="M48142 52471
L48142 52291
" />
<path d="M48142 52381
L47827 52381
L47872 52351
L47902 52321
L47917 52291
" />
<path d="M47827 52576
L47827 52771
L47947 52666
L47947 52711
L47962 52741
L47977 52756
L48007 52771
L48082 52771
L48112 52756
L48127 52741
L48142 52711
L48142 52621
L48127 52591
L48112 52576
" />
<path d="M52142 52321
L52142 52381
L52127 52411
L52112 52426
L52067 52456
L52007 52471
L51887 52471
L51857 52456
L51842 52441
L51827 52411
L51827 52351
L51842 52321
L51857 52306
L51887 52291
L51962 52291
L51992 52306
L52007 52321
L52022 52351
L52022 52411
L52007 52441
L51992 52456
L51962 52471
" />
<path d="M52962 52351
L52947 52321
L52932 52306
L52902 52291
L52887 52291
L52857 52306
L52842 52321
L52827 52351
L52827 52411
L52842 52441
L52857 52456
L52887 52471
L52902 52471
L52932 52456
L52947 52441
L52962 52411
L52962 52351
L52977 52321
L52992 52306
L53022 52291
L53082 52291
L53112 52306
L53127 52321
L53142 52351
L53142 52411
L53127 52441
L53112 52456
L53082 52471
L53022 52471
L52992 52456
L52977 52441
L52962 52411
" />
<path d="M69827 52261
L70142 52366
L69827 52471
" />
<path d="M70127 52561
L70142 52606
L70142 52681
L70127 52711
L70112 52726
L70082 52741
L70052 52741
L70022 52726
L70007 52711
L69992 52681
L69977 52621
L69962 52591
L69947 52576
L69917 52561
L69887 52561
L69857 52576
L69842 52591
L69827 52621
L69827 52696
L69842 52741
" />
<path d="M70127 52861
L70142 52906
L70142 52981
L70127 53011
L70112 53026
L70082 53041
L70052 53041
L70022 53026
L70007 53011
L69992 52981
L69977 52921
L69962 52891
L69947 52876
L69917 52861
L69887 52861
L69857 52876
L69842 52891
L69827 52921
L69827 52996
L69842 53041
" />
<path d="M61842 52471
L61827 52441
L61827 52396
L61842 52351
L61872 52321
L61902 52306
L61962 52291
L62007 52291
L62067 52306
L62097 52321
L62127 52351
L62142 52396
L62142 52426
L62127 52471
L62112 52486
L62007 52486
L62007 52426
" />
<path d="M62142 52621
L61827 52621
L62142 52801
L61827 52801
" />
<path d="M62142 52951
L61827 52951
L61827 53026
L61842 53071
L61872 53101
L61902 53116
L61962 53131
L62007 53131
L62067 53116
L62097 53101
L62127 53071
L62142 53026
L62142 52951
" />
<path d="M60142 52471
L60142 52291
" />
<path d="M60142 52381
L59827 52381
L59872 52351
L59902 52321
L59917 52291
" />
</g>
<g style="fill:#000000; fill-opacity:0.0; 
stroke:#000000; stroke-width:78.7402; stroke-opacity:1; 
stroke-linecap:round; stroke-linejoin:round;">
<path d="M45750 48550
L53200 48550
" />
<path d="M61250 48550
L54900 48550
" />
</g>
<g style="fill:#000000; fill-opacity:0.0; 
stroke:#000000; stroke-width:59.0551; stroke-opacity:1; 
stroke-linecap:round; stroke-linejoin:round;">
<path d="M60142 49690
L60142 49511
" />
<path d="M60142 49601
L59827 49601
L59872 49571
L59902 49541
L59917 49511
" />
<path d="M48142 49391
L48142 49211
" />
<path d="M48142 49301
L47827 49301
L47872 49271
L47902 49241
L47917 49211
" />
<path d="M47827 49496
L47827 49690
L47947 49586
L47947 49630
L47962 49660
L47977 49675
L48007 49690
L48082 49690
L48112 49675
L48127 49660
L48142 49630
L48142 49541
L48127 49511
L48112 49496
" />
<path d="M49142 49391
L49142 49211
" />
<path d="M49142 49301
L48827 49301
L48872 49271
L48902 49241
L48917 49211
" />
<path d="M48857 49511
L48842 49526
L48827 49556
L48827 49630
L48842 49660
L48857 49675
L48887 49690
L48917 49690
L48962 49675
L49142 49496
L49142 49690
" />
<path d="M50142 49391
L50142 49211
" />
<path d="M50142 49301
L49827 49301
L49872 49271
L49902 49241
L49917 49211
" />
<path d="M50142 49690
L50142 49511
" />
<path d="M50142 49601
L49827 49601
L49872 49571
L49902 49541
L49917 49511
" />
<path d="M51142 49391
L51142 49211
" />
<path d="M51142 49301
L50827 49301
L50872 49271
L50902 49241
L50917 49211
" />
<path d="M50827 49586
L50827 49616
L50842 49645
L50857 49660
L50887 49675
L50947 49690
L51022 49690
L51082 49675
L51112 49660
L51127 49645
L51142 49616
L51142 49586
L51127 49556
L51112 49541
L51082 49526
L51022 49511
L50947 49511
L50887 49526
L50857 49541
L50842 49556
L50827 49586
" />
<path d="M52142 49541
L52142 49601
L52127 49630
L52112 49645
L52067 49675
L52007 49690
L51887 49690
L51857 49675
L51842 49660
L51827 49630
L51827 49571
L51842 49541
L51857 49526
L51887 49511
L51962 49511
L51992 49526
L52007 49541
L52022 49571
L52022 49630
L52007 49660
L51992 49675
L51962 49690
" />
<path d="M52962 49571
L52947 49541
L52932 49526
L52902 49511
L52887 49511
L52857 49526
L52842 49541
L52827 49571
L52827 49630
L52842 49660
L52857 49675
L52887 49690
L52902 49690
L52932 49675
L52947 49660
L52962 49630
L52962 49571
L52977 49541
L52992 49526
L53022 49511
L53082 49511
L53112 49526
L53127 49541
L53142 49571
L53142 49630
L53127 49660
L53112 49675
L53082 49690
L53022 49690
L52992 49675
L52977 49660
L52962 49630
" />
<path d="M53827 49496
L53827 49705
L54142 49571
" />
<path d="M54827 49660
L54827 49601
L54842 49571
L54857 49556
L54902 49526
L54962 49511
L55082 49511
L55112 49526
L55127 49541
L55142 49571
L55142 49630
L55127 49660
L55112 49675
L55082 49690
L55007 49690
L54977 49675
L54962 49660
L54947 49630
L54947 49571
L54962 49541
L54977 49526
L55007 49511
" />
<path d="M55827 49675
L55827 49526
L55977 49511
L55962 49526
L55947 49556
L55947 49630
L55962 49660
L55977 49675
L56007 49690
L56082 49690
L56112 49675
L56127 49660
L56142 49630
L56142 49556
L56127 49526
L56112 49511
" />
<path d="M56932 49660
L57142 49660
" />
<path d="M56812 49586
L57037 49511
L57037 49705
" />
<path d="M57827 49496
L57827 49690
L57947 49586
L57947 49630
L57962 49660
L57977 49675
L58007 49690
L58082 49690
L58112 49675
L58127 49660
L58142 49630
L58142 49541
L58127 49511
L58112 49496
" />
<path d="M58857 49511
L58842 49526
L58827 49556
L58827 49630
L58842 49660
L58857 49675
L58887 49690
L58917 49690
L58962 49675
L59142 49496
L59142 49690
" />
<path d="M61842 49031
L61827 49001
L61827 48956
L61842 48911
L61872 48881
L61902 48866
L61962 48851
L62007 48851
L62067 48866
L62097 48881
L62127 48911
L62142 48956
L62142 48986
L62127 49031
L62112 49046
L62007 49046
L62007 48986
" />
<path d="M62142 49181
L61827 49181
L62142 49361
L61827 49361
" />
<path d="M62142 49511
L61827 49511
L61827 49586
L61842 49630
L61872 49660
L61902 49675
L61962 49690
L62007 49690
L62067 49675
L62097 49660
L62127 49630
L62142 49586
L62142 49511
" />
<path d="M63052 49241
L63052 49391
" />
<path d="M63142 49211
L62827 49316
L63142 49421
" />
<path d="M63142 49690
L63142 49511
" />
<path d="M63142 49601
L62827 49601
L62872 49571
L62902 49541
L62917 49511
" />
<path d="M64142 48731
L63827 48731
L63827 48806
L63842 48851
L63872 48881
L63902 48896
L63962 48911
L64007 48911
L64067 48896
L64097 48881
L64127 48851
L64142 48806
L64142 48731
" />
<path d="M64052 49031
L64052 49181
" />
<path d="M64142 49001
L63827 49106
L64142 49211
" />
<path d="M63827 49271
L63827 49451
" />
<path d="M64142 49361
L63827 49361
" />
<path d="M64052 49541
L64052 49690
" />
<path d="M64142 49511
L63827 49616
L64142 49720
" />
<path d="M64977 49316
L64992 49361
L65007 49376
L65037 49391
L65082 49391
L65112 49376
L65127 49361
L65142 49331
L65142 49211
L64827 49211
L64827 49316
L64842 49346
L64857 49361
L64887 49376
L64917 49376
L64947 49361
L64962 49346
L64977 49316
L64977 49211
" />
<path d="M65142 49690
L65142 49511
" />
<path d="M65142 49601
L64827 49601
L64872 49571
L64902 49541
L64917 49511
" />
<path d="M66977 48941
L66977 49046
" />
<path d="M67142 49091
L67142 48941
L66827 48941
L66827 49091
" />
<path d="M67142 49271
L67127 49241
L67112 49226
L67082 49211
L66992 49211
L66962 49226
L66947 49241
L66932 49271
L66932 49316
L66947 49346
L66962 49361
L66992 49376
L67082 49376
L67112 49361
L67127 49346
L67142 49316
L67142 49271
" />
<path d="M67142 49690
L66992 49586
" />
<path d="M67142 49511
L66827 49511
L66827 49630
L66842 49660
L66857 49675
L66887 49690
L66932 49690
L66962 49675
L66977 49660
L66992 49630
L66992 49511
" />
<path d="M67827 48881
L68142 48986
L67827 49091
" />
<path d="M68112 49376
L68127 49361
L68142 49316
L68142 49286
L68127 49241
L68097 49211
L68067 49196
L68007 49181
L67962 49181
L67902 49196
L67872 49211
L67842 49241
L67827 49286
L67827 49316
L67842 49361
L67857 49376
" />
<path d="M68112 49690
L68127 49675
L68142 49630
L68142 49601
L68127 49556
L68097 49526
L68067 49511
L68007 49496
L67962 49496
L67902 49511
L67872 49526
L67842 49556
L67827 49601
L67827 49630
L67842 49675
L67857 49690
" />
<path d="M68842 49031
L68827 49001
L68827 48956
L68842 48911
L68872 48881
L68902 48866
L68962 48851
L69007 48851
L69067 48866
L69097 48881
L69127 48911
L69142 48956
L69142 48986
L69127 49031
L69112 49046
L69007 49046
L69007 48986
" />
<path d="M69142 49181
L68827 49181
L69142 49361
L68827 49361
" />
<path d="M69142 49511
L68827 49511
L68827 49586
L68842 49630
L68872 49660
L68902 49675
L68962 49690
L69007 49690
L69067 49675
L69097 49660
L69127 49630
L69142 49586
L69142 49511
" />
<path d="M69827 48911
L70142 49016
L69827 49121
" />
<path d="M70127 49211
L70142 49256
L70142 49331
L70127 49361
L70112 49376
L70082 49391
L70052 49391
L70022 49376
L70007 49361
L69992 49331
L69977 49271
L69962 49241
L69947 49226
L69917 49211
L69887 49211
L69857 49226
L69842 49241
L69827 49271
L69827 49346
L69842 49391
" />
<path d="M70127 49511
L70142 49556
L70142 49630
L70127 49660
L70112 49675
L70082 49690
L70052 49690
L70022 49675
L70007 49660
L69992 49630
L69977 49571
L69962 49541
L69947 49526
L69917 49511
L69887 49511
L69857 49526
L69842 49541
L69827 49571
L69827 49645
L69842 49690
" />
<path d="M43831 42233
L43726 42547
L43621 42233
" />
<path d="M43381 42547
L43381 42383
L43396 42353
L43426 42338
L43486 42338
L43516 42353
" />
<path d="M43381 42532
L43411 42547
L43486 42547
L43516 42532
L43531 42502
L43531 42473
L43516 42443
L43486 42428
L43411 42428
L43381 42413
" />
<path d="M43186 42547
L43216 42532
L43231 42502
L43231 42233
" />
<path d="M42931 42338
L42931 42547
" />
<path d="M43066 42338
L43066 42502
L43051 42532
L43021 42547
L42976 42547
L42946 42532
L42931 42517
" />
<path d="M42661 42532
L42691 42547
L42751 42547
L42781 42532
L42796 42502
L42796 42383
L42781 42353
L42751 42338
L42691 42338
L42661 42353
L42646 42383
L42646 42413
L42796 42443
" />
<path d="M43726 42764
L43696 42764
L43666 42779
L43651 42794
L43636 42824
L43621 42884
L43621 42959
L43636 43019
L43651 43049
L43666 43064
L43696 43079
L43726 43079
L43756 43064
L43771 43049
L43786 43019
L43801 42959
L43801 42884
L43786 42824
L43771 42794
L43756 42779
L43726 42764
" />
<path d="M43486 43049
L43471 43064
L43486 43079
L43501 43064
L43486 43049
L43486 43079
" />
<path d="M43171 43079
L43351 43079
" />
<path d="M43261 43079
L43261 42764
L43291 42809
L43321 42839
L43351 42854
" />
<path d="M43036 42869
L43036 43184
" />
<path d="M42886 43034
L42871 43064
L42841 43079
" />
<path d="M43036 43034
L43021 43064
L42991 43079
L42931 43079
L42901 43064
L42886 43034
L42886 42869
" />
<path d="M42601 42914
L42706 42914
" />
<path d="M42706 43079
L42706 42764
L42556 42764
" />
<path d="M43801 43326
L43786 43311
L43756 43296
L43681 43296
L43651 43311
L43636 43326
L43621 43356
L43621 43386
L43636 43431
L43816 43610
L43621 43610
" />
<path d="M43501 43326
L43486 43311
L43456 43296
L43381 43296
L43351 43311
L43336 43326
L43321 43356
L43321 43386
L43336 43431
L43516 43610
L43321 43610
" />
<path d="M43186 43401
L43186 43715
" />
<path d="M43036 43565
L43021 43595
L42991 43610
" />
<path d="M43186 43565
L43171 43595
L43141 43610
L43081 43610
L43051 43595
L43036 43565
L43036 43401
" />
<path d="M42751 43446
L42856 43446
" />
<path d="M42856 43610
L42856 43296
L42706 43296
" />
<path d="M43726 43827
L43696 43827
L43666 43842
L43651 43857
L43636 43887
L43621 43947
L43621 44022
L43636 44082
L43651 44112
L43666 44127
L43696 44142
L43726 44142
L43756 44127
L43771 44112
L43786 44082
L43801 44022
L43801 43947
L43786 43887
L43771 43857
L43756 43842
L43726 43827
" />
<path d="M43486 44112
L43471 44127
L43486 44142
L43501 44127
L43486 44112
L43486 44142
" />
<path d="M43171 44142
L43351 44142
" />
<path d="M43261 44142
L43261 43827
L43291 43872
L43321 43902
L43351 43917
" />
<path d="M43036 43932
L43036 44247
" />
<path d="M42886 44097
L42871 44127
L42841 44142
" />
<path d="M43036 44097
L43021 44127
L42991 44142
L42931 44142
L42901 44127
L42886 44097
L42886 43932
" />
<path d="M42601 43977
L42706 43977
" />
<path d="M42706 44142
L42706 43827
L42556 43827
" />
<path d="M43621 44673
L43801 44673
" />
<path d="M43711 44673
L43711 44359
L43741 44404
L43771 44434
L43801 44449
" />
<path d="M43336 44359
L43486 44359
L43501 44508
L43486 44494
L43456 44479
L43381 44479
L43351 44494
L43336 44508
L43321 44538
L43321 44613
L43336 44643
L43351 44658
L43381 44673
L43456 44673
L43486 44658
L43501 44643
" />
<path d="M43186 44673
L43186 44359
" />
<path d="M43156 44553
L43066 44673
" />
<path d="M43066 44464
L43186 44583
" />
<path d="M43801 44920
L43786 44905
L43756 44890
L43681 44890
L43651 44905
L43636 44920
L43621 44950
L43621 44980
L43636 45025
L43816 45205
L43621 45205
" />
<path d="M43501 44920
L43486 44905
L43456 44890
L43381 44890
L43351 44905
L43336 44920
L43321 44950
L43321 44980
L43336 45025
L43516 45205
L43321 45205
" />
<path d="M43126 44890
L43096 44890
L43066 44905
L43051 44920
L43036 44950
L43021 45010
L43021 45085
L43036 45145
L43051 45175
L43066 45190
L43096 45205
L43126 45205
L43156 45190
L43171 45175
L43186 45145
L43201 45085
L43201 45010
L43186 44950
L43171 44920
L43156 44905
L43126 44890
" />
<path d="M43801 45452
L43786 45437
L43756 45422
L43681 45422
L43651 45437
L43636 45452
L43621 45482
L43621 45511
L43636 45556
L43816 45736
L43621 45736
" />
<path d="M43351 45526
L43351 45736
" />
<path d="M43426 45407
L43501 45631
L43306 45631
" />
<path d="M43231 45422
L43126 45736
L43021 45422
" />
<path d="M42916 45616
L42676 45616
" />
<path d="M42526 45526
L42286 45616
L42526 45706
" />
<path d="M41986 45422
L42136 45422
L42151 45571
L42136 45556
L42106 45541
L42031 45541
L42001 45556
L41986 45571
L41971 45601
L41971 45676
L41986 45706
L42001 45721
L42031 45736
L42106 45736
L42136 45721
L42151 45706
" />
<path d="M41881 45422
L41776 45736
L41671 45422
" />
<path d="M42850 35300
L42950 35300
" />
<path d="M42650 35300
L42750 35300
" />
<path d="M42450 35300
L42550 35300
" />
<path d="M42950 35150
L42450 35150
" />
</g>
<g style="fill:#000000; fill-opacity:0.0; 
stroke:#000000; stroke-width:78.7402; stroke-opacity:1; 
stroke-linecap:round; stroke-linejoin:round;">
<path d="M45500 46000
L41519 46000
" />
<path d="M45500 42000
L45500 46000
" />
<path d="M41519 42000
L45500 42000
" />
<path d="M65500 36300
L65500 37400
" />
<path d="M65300 37600 A200 200 0.0 0 0 65500 37400 " />
<path d="M65500 37400 A200 200 0.0 0 0 65700 37600 " />
<path d="M73300 37600 A200 200 0.0 0 0 73500 37400 " />
<path d="M73500 36300
L73500 37400
" />
<path d="M65700 37600
L73300 37600
" />
<path d="M58700 37600
L65300 37600
" />
<path d="M58300 37600
L55600 37600
" />
<path d="M58500 37400
L58500 36200
" />
<path d="M55400 37400
L55400 36300
" />
<path d="M58500 37400 A200 200 0.0 0 0 58700 37600 " />
<path d="M58300 37600 A200 200 0.0 0 0 58500 37400 " />
<path d="M55400 37400 A200 200 0.0 0 0 55600 37600 " />
</g>
<g style="fill:#000000; fill-opacity:0.0; 
stroke:#000000; stroke-width:59.0551; stroke-opacity:1; 
stroke-linecap:round; stroke-linejoin:round;">
<path d="M45474 34984
L45343 35378
L45212 34984
" />
<path d="M45081 35378
L45081 34984
" />
<path d="M44893 35378
L44893 34984
L44668 35378
L44668 34984
" />
<path d="M44481 35340
L44462 35359
L44481 35378
L44499 35359
L44481 35340
L44481 35378
" />
<path d="M44481 35134
L44462 35153
L44481 35171
L44499 35153
L44481 35134
L44481 35171
" />
<path d="M44012 35021
L43993 35003
L43956 34984
L43862 34984
L43824 35003
L43806 35021
L43787 35059
L43787 35096
L43806 35153
L44031 35378
L43787 35378
" />
<path d="M43450 35115
L43450 35378
" />
<path d="M43543 34965
L43637 35246
L43393 35246
" />
<path d="M43300 34984
L43168 35378
L43037 34984
" />
<path d="M42100 35378
L42325 35378
" />
<path d="M42212 35378
L42212 34984
L42250 35040
L42287 35078
L42325 35096
" />
<path d="M41950 35265
L41762 35265
" />
<path d="M41987 35378
L41856 34984
L41725 35378
" />
<path d="M42650 36050
L42250 36050
" />
<path d="M43119.3 35829.8 A278.444 278.444 0.0 1 0 43107.1 36285.8 " />
<path d="M43950 36150
L43950 35950
" />
<path d="M41950 36050
L41750 36050
" />
<path d="M43850 36050
L44050 36050
" />
<path d="M43110 36050
L43550 36050
" />
<circle cx="42950" cy="36050" r="141.421" /> 
</g>
<g style="fill:#000000; fill-opacity:0.0; 
stroke:#000000; stroke-width:78.7402; stroke-opacity:1; 
stroke-linecap:round; stroke-linejoin:round;">
<path d="M58500 36250
L58500 35250
" />
<path d="M55900 35000 A500 500 0.0 0 0 55400 35500 " />
<path d="M58000 35000
L58250 35000
" />
<path d="M59000 35000
L58750 35000
" />
<path d="M58500 35250 A250 250 0.0 0 0 58250 35000 " />
<path d="M58750 35000 A250 250 0.0 0 0 58500 35250 " />
<path d="M65500 35250 A250 250 0.0 0 0 65250 35000 " />
<path d="M65750 35000 A250 250 0.0 0 0 65500 35250 " />
<path d="M65000 35000
L65250 35000
" />
<path d="M66000 35000
L65750 35000
" />
<path d="M65500 36250
L65500 35250
" />
<path d="M73500 35500 A500 500 0.0 0 0 73000 35000 " />
</g>
<g style="fill:#000000; fill-opacity:0.0; 
stroke:#000000; stroke-width:59.0551; stroke-opacity:1; 
stroke-linecap:round; stroke-linejoin:round;">
<path d="M61052 35750
L61052 35900
" />
<path d="M61142 35720
L60827 35825
L61142 35930
" />
<path d="M60827 36095
L60827 36125
L60842 36155
L60857 36170
L60887 36185
L60947 36200
L61022 36200
L61082 36185
L61112 36170
L61127 36155
L61142 36125
L61142 36095
L61127 36065
L61112 36050
L61082 36035
L61022 36020
L60947 36020
L60887 36035
L60857 36050
L60842 36065
L60827 36095
" />
</g>
<g style="fill:#000000; fill-opacity:0.0; 
stroke:#000000; stroke-width:78.7402; stroke-opacity:1; 
stroke-linecap:round; stroke-linejoin:round;">
<path d="M55900 35000
L56250 35000
" />
<path d="M55400 36250
L55400 35500
" />
<path d="M58000 35000
L57750 35000
" />
</g>
<g style="fill:#000000; fill-opacity:0.0; 
stroke:#000000; stroke-width:59.0551; stroke-opacity:1; 
stroke-linecap:round; stroke-linejoin:round;">
<path d="M57453 35242
L57453 34927
L57333 34927
L57303 34942
L57288 34957
L57273 34987
L57273 35032
L57288 35062
L57303 35077
L57333 35092
L57453 35092
" />
<path d="M57168 34927
L57093 35242
L57033 35017
L56973 35242
L56898 34927
" />
<path d="M56598 35242
L56703 35092
" />
<path d="M56778 35242
L56778 34927
L56658 34927
L56628 34942
L56613 34957
L56598 34987
L56598 35032
L56613 35062
L56628 35077
L56658 35092
L56778 35092
" />
</g>
<g style="fill:#000000; fill-opacity:0.0; 
stroke:#000000; stroke-width:78.7402; stroke-opacity:1; 
stroke-linecap:round; stroke-linejoin:round;">
<path d="M73500 35500
L73500 36250
" />
<path d="M70600 35000
L73000 35000
" />
<path d="M66000 35000
L68100 35000
" />
<path d="M63000 35000
L65000 35000
" />
<path d="M59000 35000
L61250 35000
" />
</g>
<g style="fill:#000000; fill-opacity:0.0; 
stroke:#000000; stroke-width:59.0551; stroke-opacity:1; 
stroke-linecap:round; stroke-linejoin:round;">
<path d="M70093 35212
L70108 35227
L70153 35242
L70183 35242
L70228 35227
L70258 35197
L70273 35167
L70288 35107
L70288 35062
L70273 35002
L70258 34972
L70228 34942
L70183 34927
L70153 34927
L70108 34942
L70093 34957
" />
<path d="M69913 35242
L69943 35227
L69958 35212
L69973 35182
L69973 35092
L69958 35062
L69943 35047
L69913 35032
L69868 35032
L69838 35047
L69823 35062
L69808 35092
L69808 35182
L69823 35212
L69838 35227
L69868 35242
L69913 35242
" />
<path d="M69628 35242
L69658 35227
L69673 35197
L69673 34927
" />
<path d="M69373 35032
L69373 35242
" />
<path d="M69508 35032
L69508 35197
L69493 35227
L69463 35242
L69418 35242
L69388 35227
L69373 35212
" />
<path d="M69223 35242
L69223 35032
" />
<path d="M69223 35062
L69208 35047
L69178 35032
L69133 35032
L69103 35047
L69088 35077
L69088 35242
" />
<path d="M69088 35077
L69073 35047
L69043 35032
L68998 35032
L68968 35047
L68953 35077
L68953 35242
" />
<path d="M68803 35032
L68803 35242
" />
<path d="M68803 35062
L68788 35047
L68758 35032
L68713 35032
L68683 35047
L68668 35077
L68668 35242
" />
<path d="M68533 35227
L68503 35242
L68443 35242
L68413 35227
L68398 35197
L68398 35182
L68413 35152
L68443 35137
L68488 35137
L68518 35122
L68533 35092
L68533 35077
L68518 35047
L68488 35032
L68443 35032
L68413 35047
" />
<path d="M62468 35242
L62573 35092
" />
<path d="M62648 35242
L62648 34927
L62528 34927
L62498 34942
L62483 34957
L62468 34987
L62468 35032
L62483 35062
L62498 35077
L62528 35092
L62648 35092
" />
<path d="M62288 35242
L62318 35227
L62333 35212
L62348 35182
L62348 35092
L62333 35062
L62318 35047
L62288 35032
L62243 35032
L62213 35047
L62198 35062
L62183 35092
L62183 35182
L62198 35212
L62213 35227
L62243 35242
L62288 35242
" />
<path d="M62078 35032
L62018 35242
L61958 35092
L61898 35242
L61838 35032
" />
<path d="M61733 35227
L61703 35242
L61643 35242
L61613 35227
L61598 35197
L61598 35182
L61613 35152
L61643 35137
L61688 35137
L61718 35122
L61733 35092
L61733 35077
L61718 35047
L61688 35032
L61643 35032
L61613 35047
" />
<path d="M72977 35825
L72992 35870
L73007 35885
L73037 35900
L73082 35900
L73112 35885
L73127 35870
L73142 35840
L73142 35720
L72827 35720
L72827 35825
L72842 35855
L72857 35870
L72887 35885
L72917 35885
L72947 35870
L72962 35855
L72977 35825
L72977 35720
" />
<path d="M73142 36200
L73142 36020
" />
<path d="M73142 36110
L72827 36110
L72872 36080
L72902 36050
L72917 36020
" />
<path d="M71052 35750
L71052 35900
" />
<path d="M71142 35720
L70827 35825
L71142 35930
" />
<path d="M70857 36020
L70842 36035
L70827 36065
L70827 36140
L70842 36170
L70857 36185
L70887 36200
L70917 36200
L70962 36185
L71142 36005
L71142 36200
" />
<path d="M64977 35825
L64992 35870
L65007 35885
L65037 35900
L65082 35900
L65112 35885
L65127 35870
L65142 35840
L65142 35720
L64827 35720
L64827 35825
L64842 35855
L64857 35870
L64887 35885
L64917 35885
L64947 35870
L64962 35855
L64977 35825
L64977 35720
" />
<path d="M65142 36200
L65142 36020
" />
<path d="M65142 36110
L64827 36110
L64872 36080
L64902 36050
L64917 36020
" />
<path d="M63977 35825
L63992 35870
L64007 35885
L64037 35900
L64082 35900
L64112 35885
L64127 35870
L64142 35840
L64142 35720
L63827 35720
L63827 35825
L63842 35855
L63857 35870
L63887 35885
L63917 35885
L63947 35870
L63962 35855
L63977 35825
L63977 35720
" />
<path d="M63827 36095
L63827 36125
L63842 36155
L63857 36170
L63887 36185
L63947 36200
L64022 36200
L64082 36185
L64112 36170
L64127 36155
L64142 36125
L64142 36095
L64127 36065
L64112 36050
L64082 36035
L64022 36020
L63947 36020
L63887 36035
L63857 36050
L63842 36065
L63827 36095
" />
<path d="M71977 35825
L71992 35870
L72007 35885
L72037 35900
L72082 35900
L72112 35885
L72127 35870
L72142 35840
L72142 35720
L71827 35720
L71827 35825
L71842 35855
L71857 35870
L71887 35885
L71917 35885
L71947 35870
L71962 35855
L71977 35825
L71977 35720
" />
<path d="M71827 36095
L71827 36125
L71842 36155
L71857 36170
L71887 36185
L71947 36200
L72022 36200
L72082 36185
L72112 36170
L72127 36155
L72142 36125
L72142 36095
L72127 36065
L72112 36050
L72082 36035
L72022 36020
L71947 36020
L71887 36035
L71857 36050
L71842 36065
L71827 36095
" />
<path d="M70052 35750
L70052 35900
" />
<path d="M70142 35720
L69827 35825
L70142 35930
" />
<path d="M70142 36200
L70142 36020
" />
<path d="M70142 36110
L69827 36110
L69872 36080
L69902 36050
L69917 36020
" />
<path d="M69052 35750
L69052 35900
" />
<path d="M69142 35720
L68827 35825
L69142 35930
" />
<path d="M68827 36095
L68827 36125
L68842 36155
L68857 36170
L68887 36185
L68947 36200
L69022 36200
L69082 36185
L69112 36170
L69127 36155
L69142 36125
L69142 36095
L69127 36065
L69112 36050
L69082 36035
L69022 36020
L68947 36020
L68887 36035
L68857 36050
L68842 36065
L68827 36095
" />
<path d="M68142 35241
L67827 35241
L67827 35316
L67842 35361
L67872 35391
L67902 35406
L67962 35421
L68007 35421
L68067 35406
L68097 35391
L68127 35361
L68142 35316
L68142 35241
" />
<path d="M68052 35541
L68052 35691
" />
<path d="M68142 35511
L67827 35616
L68142 35721
" />
<path d="M67827 35781
L67827 35961
" />
<path d="M68142 35871
L67827 35871
" />
<path d="M68052 36051
L68052 36201
" />
<path d="M68142 36021
L67827 36126
L68142 36231
" />
<path d="M66977 35450
L66977 35555
" />
<path d="M67142 35600
L67142 35450
L66827 35450
L66827 35600
" />
<path d="M67142 35780
L67127 35750
L67112 35735
L67082 35720
L66992 35720
L66962 35735
L66947 35750
L66932 35780
L66932 35825
L66947 35855
L66962 35870
L66992 35885
L67082 35885
L67112 35870
L67127 35855
L67142 35825
L67142 35780
" />
<path d="M67142 36200
L66992 36095
" />
<path d="M67142 36020
L66827 36020
L66827 36140
L66842 36170
L66857 36185
L66887 36200
L66932 36200
L66962 36185
L66977 36170
L66992 36140
L66992 36020
" />
<path d="M65977 35315
L65977 35420
" />
<path d="M66142 35465
L66142 35315
L65827 35315
L65827 35465
" />
<path d="M66142 35600
L65932 35600
" />
<path d="M65962 35600
L65947 35615
L65932 35645
L65932 35690
L65947 35720
L65977 35735
L66142 35735
" />
<path d="M65977 35735
L65947 35750
L65932 35780
L65932 35825
L65947 35855
L65977 35870
L66142 35870
" />
<path d="M66142 36200
L65992 36095
" />
<path d="M66142 36020
L65827 36020
L65827 36140
L65842 36170
L65857 36185
L65887 36200
L65932 36200
L65962 36185
L65977 36170
L65992 36140
L65992 36020
" />
<path d="M63052 35750
L63052 35900
" />
<path d="M63142 35720
L62827 35825
L63142 35930
" />
<path d="M62857 36020
L62842 36035
L62827 36065
L62827 36140
L62842 36170
L62857 36185
L62887 36200
L62917 36200
L62962 36185
L63142 36005
L63142 36200
" />
<path d="M62052 35750
L62052 35900
" />
<path d="M62142 35720
L61827 35825
L62142 35930
" />
<path d="M62142 36200
L62142 36020
" />
<path d="M62142 36110
L61827 36110
L61872 36080
L61902 36050
L61917 36020
" />
<path d="M60142 35240
L59827 35240
L59827 35315
L59842 35360
L59872 35390
L59902 35405
L59962 35420
L60007 35420
L60067 35405
L60097 35390
L60127 35360
L60142 35315
L60142 35240
" />
<path d="M60052 35540
L60052 35690
" />
<path d="M60142 35510
L59827 35615
L60142 35720
" />
<path d="M59827 35780
L59827 35960
" />
<path d="M60142 35870
L59827 35870
" />
<path d="M60052 36050
L60052 36200
" />
<path d="M60142 36020
L59827 36125
L60142 36230
" />
<path d="M58977 36050
L58977 36155
" />
<path d="M59142 36200
L59142 36050
L58827 36050
L58827 36200
" />
<path d="M57827 35540
L58142 35645
L57827 35750
" />
<path d="M58142 35855
L57827 35855
" />
<path d="M58142 36005
L57827 36005
L58142 36185
L57827 36185
" />
<path d="M56827 35915
L56827 35765
L56977 35750
L56962 35765
L56947 35795
L56947 35870
L56962 35900
L56977 35915
L57007 35930
L57082 35930
L57112 35915
L57127 35900
L57142 35870
L57142 35795
L57127 35765
L57112 35750
" />
<path d="M56827 36020
L57142 36125
L56827 36230
" />
<path d="M55842 35540
L55827 35510
L55827 35465
L55842 35420
L55872 35390
L55902 35375
L55962 35360
L56007 35360
L56067 35375
L56097 35390
L56127 35420
L56142 35465
L56142 35495
L56127 35540
L56112 35555
L56007 35555
L56007 35495
" />
<path d="M56142 35690
L55827 35690
L56142 35870
L55827 35870
" />
<path d="M56142 36020
L55827 36020
L55827 36095
L55842 36140
L55872 36170
L55902 36185
L55962 36200
L56007 36200
L56067 36185
L56097 36170
L56127 36140
L56142 36095
L56142 36020
" />
<path d="M45136 42547
L45136 42233
L45016 42233
L44986 42248
L44971 42263
L44956 42293
L44956 42338
L44971 42368
L44986 42383
L45016 42398
L45136 42398
" />
<path d="M44686 42547
L44686 42383
L44701 42353
L44731 42338
L44791 42338
L44821 42353
" />
<path d="M44686 42532
L44716 42547
L44791 42547
L44821 42532
L44836 42502
L44836 42473
L44821 42443
L44791 42428
L44716 42428
L44686 42413
" />
<path d="M44536 42547
L44536 42338
" />
<path d="M44536 42398
L44521 42368
L44506 42353
L44476 42338
L44446 42338
" />
<path d="M44386 42338
L44266 42338
" />
<path d="M44341 42233
L44341 42502
L44326 42532
L44296 42547
L44266 42547
" />
<path d="M44956 43049
L44971 43064
L45016 43079
L45046 43079
L45091 43064
L45121 43034
L45136 43004
L45151 42944
L45151 42899
L45136 42839
L45121 42809
L45091 42779
L45046 42764
L45016 42764
L44971 42779
L44956 42794
" />
<path d="M44656 43079
L44836 43079
" />
<path d="M44746 43079
L44746 42764
L44776 42809
L44806 42839
L44836 42854
" />
<path d="M44956 43580
L44971 43595
L45016 43610
L45046 43610
L45091 43595
L45121 43565
L45136 43535
L45151 43476
L45151 43431
L45136 43371
L45121 43341
L45091 43311
L45046 43296
L45016 43296
L44971 43311
L44956 43326
" />
<path d="M44836 43326
L44821 43311
L44791 43296
L44716 43296
L44686 43311
L44671 43326
L44656 43356
L44656 43386
L44671 43431
L44851 43610
L44656 43610
" />
<path d="M44956 44112
L44971 44127
L45016 44142
L45046 44142
L45091 44127
L45121 44097
L45136 44067
L45151 44007
L45151 43962
L45136 43902
L45121 43872
L45091 43842
L45046 43827
L45016 43827
L44971 43842
L44956 43857
" />
<path d="M44851 43827
L44656 43827
L44761 43947
L44716 43947
L44686 43962
L44671 43977
L44656 44007
L44656 44082
L44671 44112
L44686 44127
L44716 44142
L44806 44142
L44836 44127
L44851 44112
" />
<path d="M44956 44673
L45061 44523
" />
<path d="M45136 44673
L45136 44359
L45016 44359
L44986 44374
L44971 44389
L44956 44419
L44956 44464
L44971 44494
L44986 44508
L45016 44523
L45136 44523
" />
<path d="M44656 44673
L44836 44673
" />
<path d="M44746 44673
L44746 44359
L44776 44404
L44806 44434
L44836 44449
" />
<path d="M44956 45205
L45061 45055
" />
<path d="M45136 45205
L45136 44890
L45016 44890
L44986 44905
L44971 44920
L44956 44950
L44956 44995
L44971 45025
L44986 45040
L45016 45055
L45136 45055
" />
<path d="M44836 44920
L44821 44905
L44791 44890
L44716 44890
L44686 44905
L44671 44920
L44656 44950
L44656 44980
L44671 45025
L44851 45205
L44656 45205
" />
<path d="M45136 45422
L45136 45676
L45121 45706
L45106 45721
L45076 45736
L45016 45736
L44986 45721
L44971 45706
L44956 45676
L44956 45422
" />
<path d="M44641 45736
L44821 45736
" />
<path d="M44731 45736
L44731 45422
L44761 45467
L44791 45497
L44821 45511
" />
</g>
<g style="fill:#000000; fill-opacity:0.0; 
stroke:#000000; stroke-width:47.2441; stroke-opacity:1; 
stroke-linecap:round; stroke-linejoin:round;">
<path d="M46393 53161
L46393 52059
" />
<path d="M46393 52059
L45606 52059
" />
<path d="M45606 52059
L45606 53161
" />
<path d="M45606 53161
L46393 53161
" />
<path d="M61393 48838
L60606 48838
" />
<path d="M61393 49940
L61393 48838
" />
<path d="M60606 49940
L61393 49940
" />
<path d="M60606 48838
L60606 49940
" />
<path d="M46606 48838
L46606 49940
" />
<path d="M46606 49940
L47393 49940
" />
<path d="M47393 49940
L47393 48838
" />
<path d="M47393 48838
L46606 48838
" />
<path d="M45606 48838
L45606 49940
" />
<path d="M45606 49940
L46393 49940
" />
<path d="M46393 49940
L46393 48838
" />
<path d="M46393 48838
L45606 48838
" />
<path d="M60606 53161
L61393 53161
" />
<path d="M60606 52059
L60606 53161
" />
<path d="M61393 52059
L60606 52059
" />
<path d="M61393 53161
L61393 52059
" />
<path d="M46606 53151
L47393 53151
" />
<path d="M46606 52048
L46606 53151
" />
<path d="M47393 52048
L46606 52048
" />
<path d="M47393 53151
L47393 52048
" />
</g> 
</svg>
