<?xml version="1.0" standalone="no"?>
 <!DOCTYPE svg PUBLIC "-//W3C//DTD SVG 1.1//EN" 
 "http://www.w3.org/Graphics/SVG/1.1/DTD/svg11.dtd"> 
<svg xmlns="http://www.w3.org/2000/svg" version="1.1" 
    width="29.7002cm" height="21.0007cm" viewBox="0 0 116930 82680 ">
<title>SVG Picture created as Lawo 28x13-F.SilkS.svg date 2019/01/29 23:39:52 </title>
  <desc>Picture generated by PCBNEW </desc>
<g style="fill:#000000; fill-opacity:1;stroke:#000000; stroke-opacity:1;
stroke-linecap:round; stroke-linejoin:round; "
 transform="translate(0 0) scale(1 1)">
</g>
<g style="fill:#000000; fill-opacity:0.0; 
stroke:#000000; stroke-width:-0.000393701; stroke-opacity:1; 
stroke-linecap:round; stroke-linejoin:round;">
</g>
<g style="fill:#000000; fill-opacity:0.0; 
stroke:#000000; stroke-width:59.0551; stroke-opacity:1; 
stroke-linecap:round; stroke-linejoin:round;">
<path d="M41775 35378
L41775 34984
L41925 34984
L41962 35003
L41981 35021
L42000 35059
L42000 35115
L41981 35153
L41962 35171
L41925 35190
L41775 35190
" />
<path d="M42131 34984
L42225 35378
L42300 35096
L42374 35378
L42468 34984
" />
<path d="M42843 35378
L42712 35190
" />
<path d="M42618 35378
L42618 34984
L42768 34984
L42806 35003
L42824 35021
L42843 35059
L42843 35115
L42824 35153
L42806 35171
L42768 35190
L42618 35190
" />
<path d="M48812 35578
L48812 35184
L48962 35184
L49000 35203
L49018 35221
L49037 35259
L49037 35315
L49018 35353
L49000 35371
L48962 35390
L48812 35390
" />
<path d="M49168 35184
L49262 35578
L49337 35296
L49412 35578
L49506 35184
" />
<path d="M49881 35578
L49750 35390
" />
<path d="M49656 35578
L49656 35184
L49806 35184
L49843 35203
L49862 35221
L49881 35259
L49881 35315
L49862 35353
L49843 35371
L49806 35390
L49656 35390
" />
<path d="M49956 35615
L50256 35615
" />
<path d="M50331 35559
L50387 35578
L50481 35578
L50518 35559
L50537 35540
L50556 35503
L50556 35465
L50537 35428
L50518 35409
L50481 35390
L50406 35371
L50368 35353
L50349 35334
L50331 35296
L50331 35259
L50349 35221
L50368 35203
L50406 35184
L50499 35184
L50556 35203
" />
<path d="M50687 35184
L50781 35578
L50856 35296
L50931 35578
L51024 35184
" />
</g>
<g style="fill:#000000; fill-opacity:0.0; 
stroke:#000000; stroke-width:78.7402; stroke-opacity:1; 
stroke-linecap:round; stroke-linejoin:round;">
<path d="M73500 35500 A500 500 0.0 0 0 73000 35000 " />
<path d="M65500 35250 A250 250 0.0 0 0 65250 35000 " />
<path d="M65750 35000 A250 250 0.0 0 0 65500 35250 " />
<path d="M65000 35000
L65250 35000
" />
<path d="M66000 35000
L65750 35000
" />
<path d="M65500 35250
L65500 36250
" />
<path d="M58750 35000
L59000 35000
" />
<path d="M58250 35000
L58000 35000
" />
<path d="M58500 35250
L58500 36250
" />
<path d="M58750 35000 A250 250 0.0 0 0 58500 35250 " />
<path d="M58500 35250 A250 250 0.0 0 0 58250 35000 " />
<path d="M55900 35000 A500 500 0.0 0 0 55400 35500 " />
</g>
<g style="fill:#000000; fill-opacity:0.0; 
stroke:#000000; stroke-width:59.0551; stroke-opacity:1; 
stroke-linecap:round; stroke-linejoin:round;">
<path d="M63052 36201
L63052 36051
" />
<path d="M63142 36231
L62827 36126
L63142 36021
" />
<path d="M62857 35931
L62842 35916
L62827 35886
L62827 35811
L62842 35781
L62857 35766
L62887 35751
L62917 35751
L62962 35766
L63142 35946
L63142 35751
" />
</g>
<g style="fill:#000000; fill-opacity:0.0; 
stroke:#000000; stroke-width:78.7402; stroke-opacity:1; 
stroke-linecap:round; stroke-linejoin:round;">
<path d="M55900 35000
L56250 35000
" />
<path d="M55400 36250
L55400 35500
" />
<path d="M58000 35000
L57750 35000
" />
</g>
<g style="fill:#000000; fill-opacity:0.0; 
stroke:#000000; stroke-width:59.0551; stroke-opacity:1; 
stroke-linecap:round; stroke-linejoin:round;">
<path d="M56613 35242
L56613 34927
L56733 34927
L56763 34942
L56778 34957
L56793 34987
L56793 35032
L56778 35062
L56763 35077
L56733 35092
L56613 35092
" />
<path d="M56898 34927
L56973 35242
L57033 35017
L57093 35242
L57168 34927
" />
<path d="M57468 35242
L57363 35092
" />
<path d="M57288 35242
L57288 34927
L57408 34927
L57438 34942
L57453 34957
L57468 34987
L57468 35032
L57453 35062
L57438 35077
L57408 35092
L57288 35092
" />
</g>
<g style="fill:#000000; fill-opacity:0.0; 
stroke:#000000; stroke-width:78.7402; stroke-opacity:1; 
stroke-linecap:round; stroke-linejoin:round;">
<path d="M73500 35500
L73500 36250
" />
<path d="M70600 35000
L73000 35000
" />
<path d="M66000 35000
L68100 35000
" />
<path d="M63000 35000
L65000 35000
" />
<path d="M59000 35000
L61250 35000
" />
</g>
<g style="fill:#000000; fill-opacity:0.0; 
stroke:#000000; stroke-width:59.0551; stroke-opacity:1; 
stroke-linecap:round; stroke-linejoin:round;">
<path d="M68593 35212
L68578 35227
L68533 35242
L68503 35242
L68458 35227
L68428 35197
L68413 35167
L68398 35107
L68398 35062
L68413 35002
L68428 34972
L68458 34942
L68503 34927
L68533 34927
L68578 34942
L68593 34957
" />
<path d="M68773 35242
L68743 35227
L68728 35212
L68713 35182
L68713 35092
L68728 35062
L68743 35047
L68773 35032
L68818 35032
L68848 35047
L68863 35062
L68878 35092
L68878 35182
L68863 35212
L68848 35227
L68818 35242
L68773 35242
" />
<path d="M69058 35242
L69028 35227
L69013 35197
L69013 34927
" />
<path d="M69313 35032
L69313 35242
" />
<path d="M69178 35032
L69178 35197
L69193 35227
L69223 35242
L69268 35242
L69298 35227
L69313 35212
" />
<path d="M69463 35242
L69463 35032
" />
<path d="M69463 35062
L69478 35047
L69508 35032
L69553 35032
L69583 35047
L69598 35077
L69598 35242
" />
<path d="M69598 35077
L69613 35047
L69643 35032
L69688 35032
L69718 35047
L69733 35077
L69733 35242
" />
<path d="M69883 35032
L69883 35242
" />
<path d="M69883 35062
L69898 35047
L69928 35032
L69973 35032
L70003 35047
L70018 35077
L70018 35242
" />
<path d="M70153 35227
L70183 35242
L70243 35242
L70273 35227
L70288 35197
L70288 35182
L70273 35152
L70243 35137
L70198 35137
L70168 35122
L70153 35092
L70153 35077
L70168 35047
L70198 35032
L70243 35032
L70273 35047
" />
<path d="M61793 35242
L61688 35092
" />
<path d="M61613 35242
L61613 34927
L61733 34927
L61763 34942
L61778 34957
L61793 34987
L61793 35032
L61778 35062
L61763 35077
L61733 35092
L61613 35092
" />
<path d="M61973 35242
L61943 35227
L61928 35212
L61913 35182
L61913 35092
L61928 35062
L61943 35047
L61973 35032
L62018 35032
L62048 35047
L62063 35062
L62078 35092
L62078 35182
L62063 35212
L62048 35227
L62018 35242
L61973 35242
" />
<path d="M62183 35032
L62243 35242
L62303 35092
L62363 35242
L62423 35032
" />
<path d="M62528 35227
L62558 35242
L62618 35242
L62648 35227
L62663 35197
L62663 35182
L62648 35152
L62618 35137
L62573 35137
L62543 35122
L62528 35092
L62528 35077
L62543 35047
L62573 35032
L62618 35032
L62648 35047
" />
<path d="M66977 36186
L66977 36081
" />
<path d="M67142 36036
L67142 36186
L66827 36186
L66827 36036
" />
<path d="M67142 35856
L67127 35886
L67112 35901
L67082 35916
L66992 35916
L66962 35901
L66947 35886
L66932 35856
L66932 35811
L66947 35781
L66962 35766
L66992 35751
L67082 35751
L67112 35766
L67127 35781
L67142 35811
L67142 35856
" />
<path d="M67142 35436
L66992 35541
" />
<path d="M67142 35616
L66827 35616
L66827 35496
L66842 35466
L66857 35451
L66887 35436
L66932 35436
L66962 35451
L66977 35466
L66992 35496
L66992 35616
" />
<path d="M68142 36186
L67827 36186
L67827 36111
L67842 36066
L67872 36036
L67902 36021
L67962 36006
L68007 36006
L68067 36021
L68097 36036
L68127 36066
L68142 36111
L68142 36186
" />
<path d="M68052 35886
L68052 35736
" />
<path d="M68142 35916
L67827 35811
L68142 35706
" />
<path d="M67827 35646
L67827 35466
" />
<path d="M68142 35556
L67827 35556
" />
<path d="M68052 35376
L68052 35226
" />
<path d="M68142 35406
L67827 35301
L68142 35196
" />
<path d="M58977 36186
L58977 36081
" />
<path d="M59142 36036
L59142 36186
L58827 36186
L58827 36036
" />
<path d="M60142 36186
L59827 36186
L59827 36111
L59842 36066
L59872 36036
L59902 36021
L59962 36006
L60007 36006
L60067 36021
L60097 36036
L60127 36066
L60142 36111
L60142 36186
" />
<path d="M60052 35886
L60052 35736
" />
<path d="M60142 35916
L59827 35811
L60142 35706
" />
<path d="M59827 35646
L59827 35466
" />
<path d="M60142 35556
L59827 35556
" />
<path d="M60052 35376
L60052 35226
" />
<path d="M60142 35406
L59827 35301
L60142 35196
" />
<path d="M65977 36186
L65977 36081
" />
<path d="M66142 36036
L66142 36186
L65827 36186
L65827 36036
" />
<path d="M66142 35901
L65932 35901
" />
<path d="M65962 35901
L65947 35886
L65932 35856
L65932 35811
L65947 35781
L65977 35766
L66142 35766
" />
<path d="M65977 35766
L65947 35751
L65932 35721
L65932 35676
L65947 35646
L65977 35631
L66142 35631
" />
<path d="M66142 35301
L65992 35406
" />
<path d="M66142 35481
L65827 35481
L65827 35361
L65842 35331
L65857 35316
L65887 35301
L65932 35301
L65962 35316
L65977 35331
L65992 35361
L65992 35481
" />
<path d="M72977 36081
L72992 36036
L73007 36021
L73037 36006
L73082 36006
L73112 36021
L73127 36036
L73142 36066
L73142 36186
L72827 36186
L72827 36081
L72842 36051
L72857 36036
L72887 36021
L72917 36021
L72947 36036
L72962 36051
L72977 36081
L72977 36186
" />
<path d="M73142 35706
L73142 35886
" />
<path d="M73142 35796
L72827 35796
L72872 35826
L72902 35856
L72917 35886
" />
<path d="M71977 36081
L71992 36036
L72007 36021
L72037 36006
L72082 36006
L72112 36021
L72127 36036
L72142 36066
L72142 36186
L71827 36186
L71827 36081
L71842 36051
L71857 36036
L71887 36021
L71917 36021
L71947 36036
L71962 36051
L71977 36081
L71977 36186
" />
<path d="M71827 35811
L71827 35781
L71842 35751
L71857 35736
L71887 35721
L71947 35706
L72022 35706
L72082 35721
L72112 35736
L72127 35751
L72142 35781
L72142 35811
L72127 35841
L72112 35856
L72082 35871
L72022 35886
L71947 35886
L71887 35871
L71857 35856
L71842 35841
L71827 35811
" />
<path d="M71052 36201
L71052 36051
" />
<path d="M71142 36231
L70827 36126
L71142 36021
" />
<path d="M70857 35931
L70842 35916
L70827 35886
L70827 35811
L70842 35781
L70857 35766
L70887 35751
L70917 35751
L70962 35766
L71142 35946
L71142 35751
" />
<path d="M70052 36201
L70052 36051
" />
<path d="M70142 36231
L69827 36126
L70142 36021
" />
<path d="M70142 35751
L70142 35931
" />
<path d="M70142 35841
L69827 35841
L69872 35871
L69902 35901
L69917 35931
" />
<path d="M69052 36201
L69052 36051
" />
<path d="M69142 36231
L68827 36126
L69142 36021
" />
<path d="M68827 35856
L68827 35826
L68842 35796
L68857 35781
L68887 35766
L68947 35751
L69022 35751
L69082 35766
L69112 35781
L69127 35796
L69142 35826
L69142 35856
L69127 35886
L69112 35901
L69082 35916
L69022 35931
L68947 35931
L68887 35916
L68857 35901
L68842 35886
L68827 35856
" />
<path d="M64977 36081
L64992 36036
L65007 36021
L65037 36006
L65082 36006
L65112 36021
L65127 36036
L65142 36066
L65142 36186
L64827 36186
L64827 36081
L64842 36051
L64857 36036
L64887 36021
L64917 36021
L64947 36036
L64962 36051
L64977 36081
L64977 36186
" />
<path d="M65142 35706
L65142 35886
" />
<path d="M65142 35796
L64827 35796
L64872 35826
L64902 35856
L64917 35886
" />
<path d="M63977 36081
L63992 36036
L64007 36021
L64037 36006
L64082 36006
L64112 36021
L64127 36036
L64142 36066
L64142 36186
L63827 36186
L63827 36081
L63842 36051
L63857 36036
L63887 36021
L63917 36021
L63947 36036
L63962 36051
L63977 36081
L63977 36186
" />
<path d="M63827 35811
L63827 35781
L63842 35751
L63857 35736
L63887 35721
L63947 35706
L64022 35706
L64082 35721
L64112 35736
L64127 35751
L64142 35781
L64142 35811
L64127 35841
L64112 35856
L64082 35871
L64022 35886
L63947 35886
L63887 35871
L63857 35856
L63842 35841
L63827 35811
" />
<path d="M62052 36201
L62052 36051
" />
<path d="M62142 36231
L61827 36126
L62142 36021
" />
<path d="M62142 35751
L62142 35931
" />
<path d="M62142 35841
L61827 35841
L61872 35871
L61902 35901
L61917 35931
" />
<path d="M61052 36201
L61052 36051
" />
<path d="M61142 36231
L60827 36126
L61142 36021
" />
<path d="M60827 35856
L60827 35826
L60842 35796
L60857 35781
L60887 35766
L60947 35751
L61022 35751
L61082 35766
L61112 35781
L61127 35796
L61142 35826
L61142 35856
L61127 35886
L61112 35901
L61082 35916
L61022 35931
L60947 35931
L60887 35916
L60857 35901
L60842 35886
L60827 35856
" />
<path d="M57827 36231
L58142 36126
L57827 36021
" />
<path d="M58142 35916
L57827 35916
" />
<path d="M58142 35766
L57827 35766
L58142 35586
L57827 35586
" />
<path d="M56827 36035
L56827 36185
L56977 36200
L56962 36185
L56947 36155
L56947 36080
L56962 36050
L56977 36035
L57007 36020
L57082 36020
L57112 36035
L57127 36050
L57142 36080
L57142 36155
L57127 36185
L57112 36200
" />
<path d="M56827 35930
L57142 35825
L56827 35720
" />
<path d="M55842 36020
L55827 36050
L55827 36095
L55842 36140
L55872 36170
L55902 36185
L55962 36200
L56007 36200
L56067 36185
L56097 36170
L56127 36140
L56142 36095
L56142 36065
L56127 36020
L56112 36005
L56007 36005
L56007 36065
" />
<path d="M56142 35870
L55827 35870
L56142 35690
L55827 35690
" />
<path d="M56142 35540
L55827 35540
L55827 35465
L55842 35420
L55872 35390
L55902 35375
L55962 35360
L56007 35360
L56067 35375
L56097 35390
L56127 35420
L56142 35465
L56142 35540
" />
</g>
<g style="fill:#000000; fill-opacity:0.0; 
stroke:#000000; stroke-width:47.2441; stroke-opacity:1; 
stroke-linecap:round; stroke-linejoin:round;">
<path d="M56763 39385
L56763 39515
" />
<path d="M56763 39515
L54236 39515
" />
<path d="M54236 39515
L54236 39385
" />
<path d="M56763 38614
L56763 38484
" />
<path d="M56763 38484
L54236 38484
" />
<path d="M54236 38484
L54236 38614
" />
</g>
<g style="fill:#000000; fill-opacity:0.0; 
stroke:#000000; stroke-width:150; stroke-opacity:1; 
stroke-linecap:round; stroke-linejoin:round;">
<path d="M44500 43500
L44100 43500
" />
<path d="M44500 44500
L44100 44500
" />
</g>
<g style="fill:#000000; fill-opacity:0.0; 
stroke:#000000; stroke-width:100; stroke-opacity:1; 
stroke-linecap:round; stroke-linejoin:round;">
<path d="M44500 44500 A500 500 0.0 0 0 45000 44000 " />
<path d="M45000 44000 A500 500 0.0 0 0 44500 43500 " />
</g>
<g style="fill:#000000; fill-opacity:0.0; 
stroke:#000000; stroke-width:150; stroke-opacity:1; 
stroke-linecap:round; stroke-linejoin:round;">
<path d="M44500 43500
L44500 44500
" />
</g>
<g style="fill:#000000; fill-opacity:0.0; 
stroke:#000000; stroke-width:100; stroke-opacity:1; 
stroke-linecap:round; stroke-linejoin:round;">
<path d="M45700 42000
L45700 46000
" />
<path d="M63300 42000
L63300 46000
" />
<path d="M55000 46000
L55000 42000
" />
<path d="M54000 42000
L54000 46000
" />
</g>
<g style="fill:#000000; fill-opacity:0.0; 
stroke:#000000; stroke-width:150; stroke-opacity:1; 
stroke-linecap:round; stroke-linejoin:round;">
<path d="M44100 41200
L44100 46800
" />
<path d="M44500 47500
L44500 40500
" />
<path d="M64500 40500
L64500 47500
" />
<path d="M64900 46800
L64900 41200
" />
<path d="M64900 41200
L44100 41200
" />
<path d="M44500 40500
L64500 40500
" />
<path d="M64900 46800
L44100 46800
" />
<path d="M44500 47500
L64500 47500
" />
</g>
<g style="fill:#000000; fill-opacity:0.0; 
stroke:#000000; stroke-width:100; stroke-opacity:1; 
stroke-linecap:round; stroke-linejoin:round;">
<path d="M63300 46000
L45700 46000
" />
<path d="M45700 42000
L63300 42000
" />
</g>
<g style="fill:#000000; fill-opacity:0.0; 
stroke:#000000; stroke-width:59.0551; stroke-opacity:1; 
stroke-linecap:round; stroke-linejoin:round;">
<path d="M47637 34837
L47637 39562
" />
<path d="M47637 39562
L52362 39562
" />
<path d="M52362 39562
L52362 34837
" />
<path d="M52362 34837
L47637 34837
" />
</g>
<g style="fill:#000000; fill-opacity:0.0; 
stroke:#000000; stroke-width:120; stroke-opacity:1; 
stroke-linecap:round; stroke-linejoin:round;">
<path d="M74279 52692
L74279 49307
" />
<path d="M41720 52692
L41720 49307
" />
<path d="M74279 49307
L41720 49307
" />
<path d="M41720 52692
L74279 52692
" />
<path d="M72094 52692
L72094 49307
" />
<path d="M43905 52692
L43905 49307
" />
</g>
<g style="fill:#000000; fill-opacity:0.0; 
stroke:#000000; stroke-width:118; stroke-opacity:1; 
stroke-linecap:round; stroke-linejoin:round;">
<path d="M57094 49346
L57094 49700
" />
<path d="M57094 49700
L58905 49700
" />
<path d="M58905 49700
L58905 49346
" />
</g>
<g style="fill:#000000; fill-opacity:0.0; 
stroke:#000000; stroke-width:59.0551; stroke-opacity:1; 
stroke-linecap:round; stroke-linejoin:round;">
<path d="M46772 34725
L43228 34725
" />
<path d="M43228 34725
L43228 39056
" />
<path d="M43228 39056
L46772 39056
" />
<path d="M46772 39056
L46772 34725
" />
</g>
<g style="fill:#000000; fill-opacity:0.0; 
stroke:#000000; stroke-width:47.2441; stroke-opacity:1; 
stroke-linecap:round; stroke-linejoin:round;">
<path d="M58799 38062
L60185 38062
" />
<path d="M58799 38937
L60185 38937
" />
<path d="M58799 38062
L58799 38107
" />
<path d="M58799 38892
L58799 38937
" />
<path d="M60185 38062
L60185 38107
" />
<path d="M60185 38892
L60185 38937
" />
<path d="M68744 40629
L69255 40629
" />
<path d="M69000 40866
L69000 40393
" />
<path d="M68860 38499
L69139 38499
" />
<path d="M68779 38515
L69220 38515
" />
<path d="M68721 38531
L69278 38531
" />
<path d="M68673 38546
L69326 38546
" />
<path d="M68632 38562
L69367 38562
" />
<path d="M68595 38578
L69404 38578
" />
<path d="M68562 38594
L69437 38594
" />
<path d="M68531 38609
L69468 38609
" />
<path d="M68503 38625
L69496 38625
" />
<path d="M69385 38641
L69522 38641
" />
<path d="M68477 38641
L68614 38641
" />
<path d="M69385 38657
L69547 38657
" />
<path d="M68452 38657
L68614 38657
" />
<path d="M69385 38672
L69570 38672
" />
<path d="M68429 38672
L68614 38672
" />
<path d="M69385 38688
L69592 38688
" />
<path d="M68407 38688
L68614 38688
" />
<path d="M69385 38704
L69612 38704
" />
<path d="M68387 38704
L68614 38704
" />
<path d="M69385 38720
L69632 38720
" />
<path d="M68367 38720
L68614 38720
" />
<path d="M69385 38735
L69651 38735
" />
<path d="M68348 38735
L68614 38735
" />
<path d="M69385 38751
L69668 38751
" />
<path d="M68331 38751
L68614 38751
" />
<path d="M69385 38767
L69685 38767
" />
<path d="M68314 38767
L68614 38767
" />
<path d="M69385 38783
L69701 38783
" />
<path d="M68298 38783
L68614 38783
" />
<path d="M69385 38798
L69717 38798
" />
<path d="M68282 38798
L68614 38798
" />
<path d="M69385 38814
L69732 38814
" />
<path d="M68267 38814
L68614 38814
" />
<path d="M69385 38830
L69746 38830
" />
<path d="M68253 38830
L68614 38830
" />
<path d="M69385 38846
L69760 38846
" />
<path d="M68239 38846
L68614 38846
" />
<path d="M69385 38861
L69773 38861
" />
<path d="M68226 38861
L68614 38861
" />
<path d="M69385 38877
L69786 38877
" />
<path d="M68213 38877
L68614 38877
" />
<path d="M69385 38893
L69798 38893
" />
<path d="M68201 38893
L68614 38893
" />
<path d="M69385 38909
L69810 38909
" />
<path d="M68189 38909
L68614 38909
" />
<path d="M69385 38924
L69821 38924
" />
<path d="M68178 38924
L68614 38924
" />
<path d="M69385 38940
L69831 38940
" />
<path d="M68168 38940
L68614 38940
" />
<path d="M69385 38956
L69842 38956
" />
<path d="M68157 38956
L68614 38956
" />
<path d="M69385 38972
L69852 38972
" />
<path d="M68147 38972
L68614 38972
" />
<path d="M69385 38987
L69861 38987
" />
<path d="M68138 38987
L68614 38987
" />
<path d="M69385 39003
L69870 39003
" />
<path d="M68129 39003
L68614 39003
" />
<path d="M69385 39019
L69879 39019
" />
<path d="M68120 39019
L68614 39019
" />
<path d="M69385 39035
L69888 39035
" />
<path d="M68111 39035
L68614 39035
" />
<path d="M69385 39050
L69896 39050
" />
<path d="M68103 39050
L68614 39050
" />
<path d="M69385 39066
L69903 39066
" />
<path d="M68096 39066
L68614 39066
" />
<path d="M69385 39082
L69911 39082
" />
<path d="M68088 39082
L68614 39082
" />
<path d="M69385 39098
L69918 39098
" />
<path d="M68081 39098
L68614 39098
" />
<path d="M69385 39113
L69925 39113
" />
<path d="M68074 39113
L68614 39113
" />
<path d="M69385 39129
L69931 39129
" />
<path d="M68068 39129
L68614 39129
" />
<path d="M69385 39145
L69937 39145
" />
<path d="M68062 39145
L68614 39145
" />
<path d="M69385 39161
L69943 39161
" />
<path d="M68056 39161
L68614 39161
" />
<path d="M69385 39176
L69948 39176
" />
<path d="M68051 39176
L68614 39176
" />
<path d="M69385 39192
L69954 39192
" />
<path d="M68045 39192
L68614 39192
" />
<path d="M69385 39208
L69959 39208
" />
<path d="M68040 39208
L68614 39208
" />
<path d="M69385 39224
L69963 39224
" />
<path d="M68036 39224
L68614 39224
" />
<path d="M69385 39240
L69968 39240
" />
<path d="M68031 39240
L68614 39240
" />
<path d="M69385 39255
L69972 39255
" />
<path d="M68027 39255
L68614 39255
" />
<path d="M69385 39271
L69976 39271
" />
<path d="M68023 39271
L68614 39271
" />
<path d="M69385 39287
L69979 39287
" />
<path d="M68020 39287
L68614 39287
" />
<path d="M69385 39303
L69983 39303
" />
<path d="M68016 39303
L68614 39303
" />
<path d="M69385 39318
L69986 39318
" />
<path d="M68013 39318
L68614 39318
" />
<path d="M69385 39334
L69989 39334
" />
<path d="M68010 39334
L68614 39334
" />
<path d="M69385 39350
L69991 39350
" />
<path d="M68008 39350
L68614 39350
" />
<path d="M69385 39366
L69994 39366
" />
<path d="M68005 39366
L68614 39366
" />
<path d="M69385 39381
L69996 39381
" />
<path d="M68003 39381
L68614 39381
" />
<path d="M69385 39397
L69998 39397
" />
<path d="M68001 39397
L68614 39397
" />
<path d="M68000 39413
L69999 39413
" />
<path d="M67998 39429
L70001 39429
" />
<path d="M67997 39444
L70002 39444
" />
<path d="M67996 39460
L70003 39460
" />
<path d="M67996 39476
L70003 39476
" />
<path d="M67996 39492
L70003 39492
" />
<path d="M67996 39507
L70003 39507
" />
<path d="M69464.5 38600.1 A1019.69 1019.69 0.0 0 0 68535.4 38600.2 " />
<path d="M69464.6 40415.6 A1019.69 1019.69 0.0 0 0 69464.5 38600.1 " />
<path d="M68535.5 38600.1 A1019.69 1019.69 0.0 0 0 68535.4 40415.6 " />
<path d="M63185 48792
L63185 48837
" />
<path d="M63185 47962
L63185 48007
" />
<path d="M61799 48792
L61799 48837
" />
<path d="M61799 47962
L61799 48007
" />
<path d="M61799 48837
L63185 48837
" />
<path d="M61799 47962
L63185 47962
" />
<path d="M55476 37548
L55476 37025
" />
<path d="M56000 37548
L55476 37548
" />
<path d="M56500 36501
L56500 37548
" />
<path d="M73523 36501
L56500 36501
" />
<path d="M73523 37548
L73523 36501
" />
<path d="M56500 37548
L73523 37548
" />
<path d="M52892 36391
L52892 37608
" />
<circle cx="53900" cy="37000" r="984.252" /> 
<path d="M52892.1 37608.2 A1177.17 1177.17 0.0 0 0 55077.2 36999.8 " />
<path d="M55077.2 37000.2 A1177.17 1177.17 0.0 0 0 52892.1 36391.8 " />
<path d="M63763 39015
L63763 38885
" />
<path d="M61236 39015
L63763 39015
" />
<path d="M61236 38885
L61236 39015
" />
<path d="M63763 37984
L63763 38114
" />
<path d="M61236 37984
L63763 37984
" />
<path d="M61236 38114
L61236 37984
" />
<path d="M71346 41306
L71346 44397
" />
<path d="M71346 44397
L66645 44397
" />
<path d="M66645 44397
L66645 41306
" />
<path d="M66645 41306
L71346 41306
" />
<path d="M71476 42141
L71476 41176
" />
<path d="M71476 41176
L70559 41176
" />
</g>
<g style="fill:#000000; fill-opacity:0.0; 
stroke:#000000; stroke-width:59.0551; stroke-opacity:1; 
stroke-linecap:round; stroke-linejoin:round;">
<path d="M53034 39178
L52903 38990
" />
<path d="M52809 39178
L52809 38784
L52959 38784
L52996 38803
L53015 38821
L53034 38859
L53034 38915
L53015 38953
L52996 38971
L52959 38990
L52809 38990
" />
<path d="M53184 38821
L53203 38803
L53240 38784
L53334 38784
L53371 38803
L53390 38821
L53409 38859
L53409 38896
L53390 38953
L53165 39178
L53409 39178
" />
<path d="M43115 44178
L43115 43784
" />
<path d="M43528 44140
L43509 44159
L43453 44178
L43415 44178
L43359 44159
L43321 44121
L43303 44084
L43284 44009
L43284 43953
L43303 43878
L43321 43840
L43359 43803
L43415 43784
L43453 43784
L43509 43803
L43528 43821
" />
<path d="M43903 44178
L43678 44178
" />
<path d="M43790 44178
L43790 43784
L43753 43840
L43715 43878
L43678 43896
" />
</g>
<g style="fill:#000000; fill-opacity:0.0; 
stroke:#000000; stroke-width:78.7402; stroke-opacity:1; 
stroke-linecap:round; stroke-linejoin:round;">
<path d="M48397 43957
L48200 43957
" />
<path d="M48200 44267
L48200 43676
L48481 43676
" />
<path d="M48706 44267
L48706 43676
L48931 43676
L48987 43704
L49015 43732
L49043 43789
L49043 43873
L49015 43929
L48987 43957
L48931 43985
L48706 43985
" />
<path d="M49268 43732
L49296 43704
L49353 43676
L49493 43676
L49550 43704
L49578 43732
L49606 43789
L49606 43845
L49578 43929
L49240 44267
L49606 44267
" />
<path d="M49943 43929
L49887 43901
L49859 43873
L49831 43817
L49831 43789
L49859 43732
L49887 43704
L49943 43676
L50056 43676
L50112 43704
L50140 43732
L50168 43789
L50168 43817
L50140 43873
L50112 43901
L50056 43929
L49943 43929
L49887 43957
L49859 43985
L49831 44042
L49831 44154
L49859 44210
L49887 44239
L49943 44267
L50056 44267
L50112 44239
L50140 44210
L50168 44154
L50168 44042
L50140 43985
L50112 43957
L50056 43929
" />
<path d="M50534 43676
L50590 43676
L50646 43704
L50674 43732
L50703 43789
L50731 43901
L50731 44042
L50703 44154
L50674 44210
L50646 44239
L50590 44267
L50534 44267
L50478 44239
L50449 44210
L50421 44154
L50393 44042
L50393 43901
L50421 43789
L50449 43732
L50478 43704
L50534 43676
" />
<path d="M51096 43676
L51152 43676
L51209 43704
L51237 43732
L51265 43789
L51293 43901
L51293 44042
L51265 44154
L51237 44210
L51209 44239
L51152 44267
L51096 44267
L51040 44239
L51012 44210
L50984 44154
L50956 44042
L50956 43901
L50984 43789
L51012 43732
L51040 43704
L51096 43676
" />
<path d="M51799 44267
L51799 43957
L51771 43901
L51715 43873
L51602 43873
L51546 43901
" />
<path d="M51799 44239
L51743 44267
L51602 44267
L51546 44239
L51518 44182
L51518 44126
L51546 44070
L51602 44042
L51743 44042
L51799 44014
" />
</g>
<g style="fill:#000000; fill-opacity:0.0; 
stroke:#000000; stroke-width:80; stroke-opacity:1; 
stroke-linecap:round; stroke-linejoin:round;">
<path d="M57812 48928
L57812 48534
" />
<path d="M58206 48928
L57981 48928
" />
<path d="M58093 48928
L58093 48534
L58056 48590
L58018 48628
L57981 48646
" />
</g>
<g style="fill:#000000; fill-opacity:0.0; 
stroke:#000000; stroke-width:59.0551; stroke-opacity:1; 
stroke-linecap:round; stroke-linejoin:round;">
<path d="M58134 38640
L58115 38659
L58059 38678
L58021 38678
L57965 38659
L57928 38621
L57909 38584
L57890 38509
L57890 38453
L57909 38378
L57928 38340
L57965 38303
L58021 38284
L58059 38284
L58115 38303
L58134 38321
" />
<path d="M58509 38678
L58284 38678
" />
<path d="M58396 38678
L58396 38284
L58359 38340
L58321 38378
L58284 38396
" />
<path d="M68934 38140
L68915 38159
L68859 38178
L68821 38178
L68765 38159
L68728 38121
L68709 38084
L68690 38009
L68690 37953
L68709 37878
L68728 37840
L68765 37803
L68821 37784
L68859 37784
L68915 37803
L68934 37821
" />
<path d="M69084 37821
L69103 37803
L69140 37784
L69234 37784
L69271 37803
L69290 37821
L69309 37859
L69309 37896
L69290 37953
L69065 38178
L69309 38178
" />
<path d="M60934 48540
L60915 48559
L60859 48578
L60821 48578
L60765 48559
L60728 48521
L60709 48484
L60690 48409
L60690 48353
L60709 48278
L60728 48240
L60765 48203
L60821 48184
L60859 48184
L60915 48203
L60934 48221
" />
<path d="M61065 48184
L61309 48184
L61178 48334
L61234 48334
L61271 48353
L61290 48371
L61309 48409
L61309 48503
L61290 48540
L61271 48559
L61234 48578
L61121 48578
L61084 48559
L61065 48540
" />
<path d="M73812 37203
L73812 36809
" />
<path d="M73981 36846
L74000 36828
L74037 36809
L74131 36809
L74168 36828
L74187 36846
L74206 36884
L74206 36921
L74187 36978
L73962 37203
L74206 37203
" />
<path d="M53559 35578
L53371 35578
L53371 35184
" />
<path d="M53690 35371
L53821 35371
" />
<path d="M53878 35578
L53690 35578
L53690 35184
L53878 35184
" />
<path d="M54046 35578
L54046 35184
L54140 35184
L54196 35203
L54234 35240
L54253 35278
L54271 35353
L54271 35409
L54253 35484
L54234 35521
L54196 35559
L54140 35578
L54046 35578
" />
<path d="M54646 35578
L54421 35578
" />
<path d="M54534 35578
L54534 35184
L54496 35240
L54459 35278
L54421 35296
" />
<path d="M64834 38678
L64703 38490
" />
<path d="M64609 38678
L64609 38284
L64759 38284
L64796 38303
L64815 38321
L64834 38359
L64834 38415
L64815 38453
L64796 38471
L64759 38490
L64609 38490
" />
<path d="M65209 38678
L64984 38678
" />
<path d="M65096 38678
L65096 38284
L65059 38340
L65021 38378
L64984 38396
" />
<path d="M68700 44567
L68700 44886
L68718 44923
L68737 44942
L68775 44961
L68850 44961
L68887 44942
L68906 44923
L68925 44886
L68925 44567
" />
<path d="M69318 44961
L69093 44961
" />
<path d="M69206 44961
L69206 44567
L69168 44623
L69131 44661
L69093 44679
" />
</g> 
</svg>
