<?xml version="1.0" standalone="no"?>
 <!DOCTYPE svg PUBLIC "-//W3C//DTD SVG 1.1//EN" 
 "http://www.w3.org/Graphics/SVG/1.1/DTD/svg11.dtd"> 
<svg xmlns="http://www.w3.org/2000/svg" version="1.1" 
    width="29.7002cm" height="21.0007cm" viewBox="0 0 116930 82680 ">
<title>SVG Picture created as Lawo 28x13 Interface-PTH-drl_map.svg date 2019/06/23 04:24:55 </title>
  <desc>Picture generated by PCBNEW </desc>
<g style="fill:#000000; fill-opacity:1;stroke:#000000; stroke-opacity:1;
stroke-linecap:round; stroke-linejoin:round; "
 transform="translate(0 0) scale(1 1)">
</g>
<g style="fill:#000000; fill-opacity:0.0; 
stroke:#000000; stroke-width:-0.000393701; stroke-opacity:1; 
stroke-linecap:round; stroke-linejoin:round;">
</g>
<g style="fill:#000000; fill-opacity:0.0; 
stroke:#000000; stroke-width:39.3701; stroke-opacity:1; 
stroke-linecap:round; stroke-linejoin:round;">
<path d="M41500 53150
L41500 35200
" />
<path d="M74500 53150
L74500 35200
" />
<path d="M74000 53650
L42000 53650
" />
<path d="M42000 34700
L74000 34700
" />
<path d="M42000 34700 A500 500 0.0 0 0 41500 35200 " />
<path d="M41500 53150 A500 500 0.0 0 0 42000 53650 " />
<path d="M74500 35200 A500 500 0.0 0 0 74000 34700 " />
<path d="M74000 53650 A500 500 0.0 0 0 74500 53150 " />
</g>
<g style="fill:#000000; fill-opacity:0.0; 
stroke:#000000; stroke-width:78.7402; stroke-opacity:1; 
stroke-linecap:round; stroke-linejoin:round;">
<path d="M46421 44421
L46578 44578
" />
<path d="M46578 44421
L46421 44578
" />
<path d="M46421 44921
L46578 45078
" />
<path d="M46578 44921
L46421 45078
" />
<path d="M46421 45421
L46578 45578
" />
<path d="M46578 45421
L46421 45578
" />
<path d="M46421 48171
L46578 48328
" />
<path d="M46578 48171
L46421 48328
" />
<path d="M46921 44921
L47078 45078
" />
<path d="M47078 44921
L46921 45078
" />
<path d="M46921 45846
L47078 46003
" />
<path d="M47078 45846
L46921 46003
" />
<path d="M47421 43421
L47578 43578
" />
<path d="M47578 43421
L47421 43578
" />
<path d="M47921 43421
L48078 43578
" />
<path d="M48078 43421
L47921 43578
" />
<path d="M47921 43921
L48078 44078
" />
<path d="M48078 43921
L47921 44078
" />
<path d="M47921 48021
L48078 48178
" />
<path d="M48078 48021
L47921 48178
" />
<path d="M48421 43421
L48578 43578
" />
<path d="M48578 43421
L48421 43578
" />
<path d="M48921 44921
L49078 45078
" />
<path d="M49078 44921
L48921 45078
" />
<path d="M48921 49421
L49078 49578
" />
<path d="M49078 49421
L48921 49578
" />
<path d="M49421 44421
L49578 44578
" />
<path d="M49578 44421
L49421 44578
" />
<path d="M49421 44921
L49578 45078
" />
<path d="M49578 44921
L49421 45078
" />
<path d="M49421 45421
L49578 45578
" />
<path d="M49578 45421
L49421 45578
" />
<path d="M52421 48021
L52578 48178
" />
<path d="M52578 48021
L52421 48178
" />
<path d="M52921 41921
L53078 42078
" />
<path d="M53078 41921
L52921 42078
" />
<path d="M52921 49421
L53078 49578
" />
<path d="M53078 49421
L52921 49578
" />
<path d="M54421 48021
L54578 48178
" />
<path d="M54578 48021
L54421 48178
" />
<path d="M54421 49421
L54578 49578
" />
<path d="M54578 49421
L54421 49578
" />
<path d="M54921 41921
L55078 42078
" />
<path d="M55078 41921
L54921 42078
" />
<path d="M54921 43721
L55078 43878
" />
<path d="M55078 43721
L54921 43878
" />
<path d="M55221 44371
L55378 44528
" />
<path d="M55378 44371
L55221 44528
" />
<path d="M56421 41921
L56578 42078
" />
<path d="M56578 41921
L56421 42078
" />
<path d="M56421 52396
L56578 52553
" />
<path d="M56578 52396
L56421 52553
" />
<path d="M57421 41921
L57578 42078
" />
<path d="M57578 41921
L57421 42078
" />
<path d="M57921 37721
L58078 37878
" />
<path d="M58078 37721
L57921 37878
" />
<path d="M58171 38021
L58328 38178
" />
<path d="M58328 38021
L58171 38178
" />
<path d="M58421 37721
L58578 37878
" />
<path d="M58578 37721
L58421 37878
" />
<path d="M58421 41921
L58578 42078
" />
<path d="M58578 41921
L58421 42078
" />
<path d="M59421 37721
L59578 37878
" />
<path d="M59578 37721
L59421 37878
" />
<path d="M59921 41921
L60078 42078
" />
<path d="M60078 41921
L59921 42078
" />
<path d="M59921 45921
L60078 46078
" />
<path d="M60078 45921
L59921 46078
" />
<path d="M60921 45921
L61078 46078
" />
<path d="M61078 45921
L60921 46078
" />
<path d="M61921 41921
L62078 42078
" />
<path d="M62078 41921
L61921 42078
" />
<path d="M62921 41921
L63078 42078
" />
<path d="M63078 41921
L62921 42078
" />
<path d="M62921 45921
L63078 46078
" />
<path d="M63078 45921
L62921 46078
" />
<path d="M64421 41921
L64578 42078
" />
<path d="M64578 41921
L64421 42078
" />
<path d="M64421 45921
L64578 46078
" />
<path d="M64578 45921
L64421 46078
" />
<path d="M65921 40921
L66078 41078
" />
<path d="M66078 40921
L65921 41078
" />
<path d="M65921 45921
L66078 46078
" />
<path d="M66078 45921
L65921 46078
" />
<path d="M66921 37771
L67078 37928
" />
<path d="M67078 37771
L66921 37928
" />
<path d="M67371 40921
L67528 41078
" />
<path d="M67528 40921
L67371 41078
" />
<path d="M67371 49421
L67528 49578
" />
<path d="M67528 49421
L67371 49578
" />
<path d="M68921 37771
L69078 37928
" />
<path d="M69078 37771
L68921 37928
" />
<path d="M68921 40921
L69078 41078
" />
<path d="M69078 40921
L68921 41078
" />
<path d="M68921 42921
L69078 43078
" />
<path d="M69078 42921
L68921 43078
" />
<path d="M68921 46921
L69078 47078
" />
<path d="M69078 46921
L68921 47078
" />
<path d="M68921 49421
L69078 49578
" />
<path d="M69078 49421
L68921 49578
" />
<circle cx="67905" cy="39768.5" r="118.11" /> 
<path d="M69400 39158
L69400 39473
" />
<path d="M69242 39315
L69557 39315
" />
<path d="M69400 40142
L69400 40457
" />
<path d="M69242 40300
L69557 40300
" />
<path d="M54000 38842
L54000 39157
" />
<path d="M53842 39000
L54157 39000
" />
<path d="M57000 38842
L57000 39157
" />
<path d="M56842 39000
L57157 39000
" />
<path d="M59000 38342
L59000 38657
" />
<path d="M58842 38500
L59157 38500
" />
<path d="M59984 38342
L59984 38657
" />
<path d="M59826 38500
L60141 38500
" />
<path d="M66000 41842
L66000 42157
" />
<path d="M65842 42000
L66157 42000
" />
<path d="M66000 42826
L66000 43141
" />
<path d="M65842 42984
L66157 42984
" />
<path d="M61000 38342
L61000 38657
" />
<path d="M60842 38500
L61157 38500
" />
<path d="M64000 38342
L64000 38657
" />
<path d="M63842 38500
L64157 38500
" />
<polyline fill="none;"
points="45111,41111
45111,40888
44888,40888
44888,41111
45111,41111
" /> 
<polyline fill="none;"
points="45111,47111
45111,46888
44888,46888
44888,47111
45111,47111
" /> 
<polyline fill="none;"
points="46111,41111
46111,40888
45888,40888
45888,41111
46111,41111
" /> 
<polyline fill="none;"
points="46111,47111
46111,46888
45888,46888
45888,47111
46111,47111
" /> 
<polyline fill="none;"
points="47111,41111
47111,40888
46888,40888
46888,41111
47111,41111
" /> 
<polyline fill="none;"
points="47111,47111
47111,46888
46888,46888
46888,47111
47111,47111
" /> 
<polyline fill="none;"
points="48111,41111
48111,40888
47888,40888
47888,41111
48111,41111
" /> 
<polyline fill="none;"
points="48111,47111
48111,46888
47888,46888
47888,47111
48111,47111
" /> 
<polyline fill="none;"
points="49111,41111
49111,40888
48888,40888
48888,41111
49111,41111
" /> 
<polyline fill="none;"
points="49111,47111
49111,46888
48888,46888
48888,47111
49111,47111
" /> 
<polyline fill="none;"
points="50111,41111
50111,40888
49888,40888
49888,41111
50111,41111
" /> 
<polyline fill="none;"
points="50111,47111
50111,46888
49888,46888
49888,47111
50111,47111
" /> 
<polyline fill="none;"
points="51111,41111
51111,40888
50888,40888
50888,41111
51111,41111
" /> 
<polyline fill="none;"
points="51111,47111
51111,46888
50888,46888
50888,47111
51111,47111
" /> 
<polyline fill="none;"
points="52111,41111
52111,40888
51888,40888
51888,41111
52111,41111
" /> 
<polyline fill="none;"
points="52111,47111
52111,46888
51888,46888
51888,47111
52111,47111
" /> 
<polyline fill="none;"
points="53111,41111
53111,40888
52888,40888
52888,41111
53111,41111
" /> 
<polyline fill="none;"
points="53111,47111
53111,46888
52888,46888
52888,47111
53111,47111
" /> 
<polyline fill="none;"
points="54111,41111
54111,40888
53888,40888
53888,41111
54111,41111
" /> 
<polyline fill="none;"
points="54111,47111
54111,46888
53888,46888
53888,47111
54111,47111
" /> 
<polyline fill="none;"
points="55111,41111
55111,40888
54888,40888
54888,41111
55111,41111
" /> 
<polyline fill="none;"
points="55111,47111
55111,46888
54888,46888
54888,47111
55111,47111
" /> 
<polyline fill="none;"
points="56111,41111
56111,40888
55888,40888
55888,41111
56111,41111
" /> 
<polyline fill="none;"
points="56111,47111
56111,46888
55888,46888
55888,47111
56111,47111
" /> 
<polyline fill="none;"
points="57111,41111
57111,40888
56888,40888
56888,41111
57111,41111
" /> 
<polyline fill="none;"
points="57111,47111
57111,46888
56888,46888
56888,47111
57111,47111
" /> 
<polyline fill="none;"
points="58111,41111
58111,40888
57888,40888
57888,41111
58111,41111
" /> 
<polyline fill="none;"
points="58111,47111
58111,46888
57888,46888
57888,47111
58111,47111
" /> 
<polyline fill="none;"
points="59111,41111
59111,40888
58888,40888
58888,41111
59111,41111
" /> 
<polyline fill="none;"
points="59111,47111
59111,46888
58888,46888
58888,47111
59111,47111
" /> 
<polyline fill="none;"
points="60111,41111
60111,40888
59888,40888
59888,41111
60111,41111
" /> 
<polyline fill="none;"
points="60111,47111
60111,46888
59888,46888
59888,47111
60111,47111
" /> 
<polyline fill="none;"
points="61111,41111
61111,40888
60888,40888
60888,41111
61111,41111
" /> 
<polyline fill="none;"
points="61111,47111
61111,46888
60888,46888
60888,47111
61111,47111
" /> 
<polyline fill="none;"
points="62111,41111
62111,40888
61888,40888
61888,41111
62111,41111
" /> 
<polyline fill="none;"
points="62111,47111
62111,46888
61888,46888
61888,47111
62111,47111
" /> 
<polyline fill="none;"
points="63111,41111
63111,40888
62888,40888
62888,41111
63111,41111
" /> 
<polyline fill="none;"
points="63111,47111
63111,46888
62888,46888
62888,47111
63111,47111
" /> 
<polyline fill="none;"
points="64111,41111
64111,40888
63888,40888
63888,41111
64111,41111
" /> 
<polyline fill="none;"
points="64111,47111
64111,46888
63888,46888
63888,47111
64111,47111
" /> 
<polyline fill="none;"
points="53500,37177
53677,37000
53500,36822
53322,37000
53500,37177
" /> 
<polyline fill="none;"
points="54500,37177
54677,37000
54500,36822
54322,37000
54500,37177
" /> 
<path d="M67803 41803
L68196 42196
" />
<path d="M68196 41803
L67803 42196
" />
<circle cx="68000" cy="42000" r="196.85" /> 
<path d="M68803 41803
L69196 42196
" />
<path d="M69196 41803
L68803 42196
" />
<circle cx="69000" cy="42000" r="196.85" /> 
<path d="M69803 41803
L70196 42196
" />
<path d="M70196 41803
L69803 42196
" />
<circle cx="70000" cy="42000" r="196.85" /> 
<path d="M65803 38803
L66196 39196
" />
<path d="M66196 38803
L65803 39196
" />
<circle cx="66000" cy="39000" r="196.85" /> 
<path d="M66803 38803
L67196 39196
" />
<path d="M67196 38803
L66803 39196
" />
<circle cx="67000" cy="39000" r="196.85" /> 
<path d="M45803 50303
L46196 50696
" />
<path d="M46196 50303
L45803 50696
" />
<circle cx="46000" cy="50500" r="196.85" /> 
<path d="M45803 51303
L46196 51696
" />
<path d="M46196 51303
L45803 51696
" />
<circle cx="46000" cy="51500" r="196.85" /> 
<path d="M46803 50303
L47196 50696
" />
<path d="M47196 50303
L46803 50696
" />
<circle cx="47000" cy="50500" r="196.85" /> 
<path d="M46803 51303
L47196 51696
" />
<path d="M47196 51303
L46803 51696
" />
<circle cx="47000" cy="51500" r="196.85" /> 
<path d="M47803 50303
L48196 50696
" />
<path d="M48196 50303
L47803 50696
" />
<circle cx="48000" cy="50500" r="196.85" /> 
<path d="M47803 51303
L48196 51696
" />
<path d="M48196 51303
L47803 51696
" />
<circle cx="48000" cy="51500" r="196.85" /> 
<path d="M48803 50303
L49196 50696
" />
<path d="M49196 50303
L48803 50696
" />
<circle cx="49000" cy="50500" r="196.85" /> 
<path d="M48803 51303
L49196 51696
" />
<path d="M49196 51303
L48803 51696
" />
<circle cx="49000" cy="51500" r="196.85" /> 
<path d="M49803 50303
L50196 50696
" />
<path d="M50196 50303
L49803 50696
" />
<circle cx="50000" cy="50500" r="196.85" /> 
<path d="M49803 51303
L50196 51696
" />
<path d="M50196 51303
L49803 51696
" />
<circle cx="50000" cy="51500" r="196.85" /> 
<path d="M50803 50303
L51196 50696
" />
<path d="M51196 50303
L50803 50696
" />
<circle cx="51000" cy="50500" r="196.85" /> 
<path d="M50803 51303
L51196 51696
" />
<path d="M51196 51303
L50803 51696
" />
<circle cx="51000" cy="51500" r="196.85" /> 
<path d="M51803 50303
L52196 50696
" />
<path d="M52196 50303
L51803 50696
" />
<circle cx="52000" cy="50500" r="196.85" /> 
<path d="M51803 51303
L52196 51696
" />
<path d="M52196 51303
L51803 51696
" />
<circle cx="52000" cy="51500" r="196.85" /> 
<path d="M52803 50303
L53196 50696
" />
<path d="M53196 50303
L52803 50696
" />
<circle cx="53000" cy="50500" r="196.85" /> 
<path d="M52803 51303
L53196 51696
" />
<path d="M53196 51303
L52803 51696
" />
<circle cx="53000" cy="51500" r="196.85" /> 
<path d="M53803 50303
L54196 50696
" />
<path d="M54196 50303
L53803 50696
" />
<circle cx="54000" cy="50500" r="196.85" /> 
<path d="M53803 51303
L54196 51696
" />
<path d="M54196 51303
L53803 51696
" />
<circle cx="54000" cy="51500" r="196.85" /> 
<path d="M54803 50303
L55196 50696
" />
<path d="M55196 50303
L54803 50696
" />
<circle cx="55000" cy="50500" r="196.85" /> 
<path d="M54803 51303
L55196 51696
" />
<path d="M55196 51303
L54803 51696
" />
<circle cx="55000" cy="51500" r="196.85" /> 
<path d="M55803 50303
L56196 50696
" />
<path d="M56196 50303
L55803 50696
" />
<circle cx="56000" cy="50500" r="196.85" /> 
<path d="M55803 51303
L56196 51696
" />
<path d="M56196 51303
L55803 51696
" />
<circle cx="56000" cy="51500" r="196.85" /> 
<path d="M56803 50303
L57196 50696
" />
<path d="M57196 50303
L56803 50696
" />
<circle cx="57000" cy="50500" r="196.85" /> 
<path d="M56803 51303
L57196 51696
" />
<path d="M57196 51303
L56803 51696
" />
<circle cx="57000" cy="51500" r="196.85" /> 
<path d="M57803 50303
L58196 50696
" />
<path d="M58196 50303
L57803 50696
" />
<circle cx="58000" cy="50500" r="196.85" /> 
<path d="M57803 51303
L58196 51696
" />
<path d="M58196 51303
L57803 51696
" />
<circle cx="58000" cy="51500" r="196.85" /> 
<path d="M58803 50303
L59196 50696
" />
<path d="M59196 50303
L58803 50696
" />
<circle cx="59000" cy="50500" r="196.85" /> 
<path d="M58803 51303
L59196 51696
" />
<path d="M59196 51303
L58803 51696
" />
<circle cx="59000" cy="51500" r="196.85" /> 
<path d="M59803 50303
L60196 50696
" />
<path d="M60196 50303
L59803 50696
" />
<circle cx="60000" cy="50500" r="196.85" /> 
<path d="M59803 51303
L60196 51696
" />
<path d="M60196 51303
L59803 51696
" />
<circle cx="60000" cy="51500" r="196.85" /> 
<path d="M60803 50303
L61196 50696
" />
<path d="M61196 50303
L60803 50696
" />
<circle cx="61000" cy="50500" r="196.85" /> 
<path d="M60803 51303
L61196 51696
" />
<path d="M61196 51303
L60803 51696
" />
<circle cx="61000" cy="51500" r="196.85" /> 
<path d="M61803 50303
L62196 50696
" />
<path d="M62196 50303
L61803 50696
" />
<circle cx="62000" cy="50500" r="196.85" /> 
<path d="M61803 51303
L62196 51696
" />
<path d="M62196 51303
L61803 51696
" />
<circle cx="62000" cy="51500" r="196.85" /> 
<path d="M62803 50303
L63196 50696
" />
<path d="M63196 50303
L62803 50696
" />
<circle cx="63000" cy="50500" r="196.85" /> 
<path d="M62803 51303
L63196 51696
" />
<path d="M63196 51303
L62803 51696
" />
<circle cx="63000" cy="51500" r="196.85" /> 
<path d="M63803 50303
L64196 50696
" />
<path d="M64196 50303
L63803 50696
" />
<circle cx="64000" cy="50500" r="196.85" /> 
<path d="M63803 51303
L64196 51696
" />
<path d="M64196 51303
L63803 51696
" />
<circle cx="64000" cy="51500" r="196.85" /> 
<path d="M64803 50303
L65196 50696
" />
<path d="M65196 50303
L64803 50696
" />
<circle cx="65000" cy="50500" r="196.85" /> 
<path d="M64803 51303
L65196 51696
" />
<path d="M65196 51303
L64803 51696
" />
<circle cx="65000" cy="51500" r="196.85" /> 
<path d="M65803 50303
L66196 50696
" />
<path d="M66196 50303
L65803 50696
" />
<circle cx="66000" cy="50500" r="196.85" /> 
<path d="M65803 51303
L66196 51696
" />
<path d="M66196 51303
L65803 51696
" />
<circle cx="66000" cy="51500" r="196.85" /> 
<path d="M66803 50303
L67196 50696
" />
<path d="M67196 50303
L66803 50696
" />
<circle cx="67000" cy="50500" r="196.85" /> 
<path d="M66803 51303
L67196 51696
" />
<path d="M67196 51303
L66803 51696
" />
<circle cx="67000" cy="51500" r="196.85" /> 
<path d="M67803 50303
L68196 50696
" />
<path d="M68196 50303
L67803 50696
" />
<circle cx="68000" cy="50500" r="196.85" /> 
<path d="M67803 51303
L68196 51696
" />
<path d="M68196 51303
L67803 51696
" />
<circle cx="68000" cy="51500" r="196.85" /> 
<path d="M68803 50303
L69196 50696
" />
<path d="M69196 50303
L68803 50696
" />
<circle cx="69000" cy="50500" r="196.85" /> 
<path d="M68803 51303
L69196 51696
" />
<path d="M69196 51303
L68803 51696
" />
<circle cx="69000" cy="51500" r="196.85" /> 
<path d="M69803 50303
L70196 50696
" />
<path d="M70196 50303
L69803 50696
" />
<circle cx="70000" cy="50500" r="196.85" /> 
<path d="M69803 51303
L70196 51696
" />
<path d="M70196 51303
L69803 51696
" />
<circle cx="70000" cy="51500" r="196.85" /> 
<path d="M55803 36828
L56196 37221
" />
<path d="M56196 36828
L55803 37221
" />
<circle cx="56000" cy="37025" r="196.85" /> 
<path d="M56803 36828
L57196 37221
" />
<path d="M57196 36828
L56803 37221
" />
<circle cx="57000" cy="37025" r="196.85" /> 
<path d="M57803 36828
L58196 37221
" />
<path d="M58196 36828
L57803 37221
" />
<circle cx="58000" cy="37025" r="196.85" /> 
<path d="M58803 36828
L59196 37221
" />
<path d="M59196 36828
L58803 37221
" />
<circle cx="59000" cy="37025" r="196.85" /> 
<path d="M59803 36828
L60196 37221
" />
<path d="M60196 36828
L59803 37221
" />
<circle cx="60000" cy="37025" r="196.85" /> 
<path d="M60803 36828
L61196 37221
" />
<path d="M61196 36828
L60803 37221
" />
<circle cx="61000" cy="37025" r="196.85" /> 
<path d="M61803 36828
L62196 37221
" />
<path d="M62196 36828
L61803 37221
" />
<circle cx="62000" cy="37025" r="196.85" /> 
<path d="M62803 36828
L63196 37221
" />
<path d="M63196 36828
L62803 37221
" />
<circle cx="63000" cy="37025" r="196.85" /> 
<path d="M63803 36828
L64196 37221
" />
<path d="M64196 36828
L63803 37221
" />
<circle cx="64000" cy="37025" r="196.85" /> 
<path d="M64803 36828
L65196 37221
" />
<path d="M65196 36828
L64803 37221
" />
<circle cx="65000" cy="37025" r="196.85" /> 
<path d="M65803 36828
L66196 37221
" />
<path d="M66196 36828
L65803 37221
" />
<circle cx="66000" cy="37025" r="196.85" /> 
<path d="M66803 36828
L67196 37221
" />
<path d="M67196 36828
L66803 37221
" />
<circle cx="67000" cy="37025" r="196.85" /> 
<path d="M67803 36828
L68196 37221
" />
<path d="M68196 36828
L67803 37221
" />
<circle cx="68000" cy="37025" r="196.85" /> 
<path d="M68803 36828
L69196 37221
" />
<path d="M69196 36828
L68803 37221
" />
<circle cx="69000" cy="37025" r="196.85" /> 
<path d="M69803 36828
L70196 37221
" />
<path d="M70196 36828
L69803 37221
" />
<circle cx="70000" cy="37025" r="196.85" /> 
<path d="M70803 36828
L71196 37221
" />
<path d="M71196 36828
L70803 37221
" />
<circle cx="71000" cy="37025" r="196.85" /> 
<path d="M71803 36828
L72196 37221
" />
<path d="M72196 36828
L71803 37221
" />
<circle cx="72000" cy="37025" r="196.85" /> 
<path d="M72803 36828
L73196 37221
" />
<path d="M73196 36828
L72803 37221
" />
<circle cx="73000" cy="37025" r="196.85" /> 
<path d="M42953 37363
L43347 37757
" />
<path d="M43347 37363
L42953 37757
" />
<path d="M43150 37363
L43150 37757
" />
<path d="M42953 37560
L43347 37560
" />
<path d="M42992 37166
L42992 37953
" />
<path d="M43307 37166
L43307 37953
" />
<path d="M42992.4 37953.5 A157.63 157.63 0.0 0 0 43307.6 37953.5 " />
<path d="M43307.6 37166.5 A157.63 157.63 0.0 0 0 42992.4 37166.5 " />
<path d="M44803 36182
L45197 36576
" />
<path d="M45197 36182
L44803 36576
" />
<path d="M45000 36182
L45000 36576
" />
<path d="M44803 36379
L45197 36379
" />
<path d="M45393 36221
L44606 36221
" />
<path d="M45393 36536
L44606 36536
" />
<path d="M44606.5 36221.4 A157.63 157.63 0.0 0 0 44606.5 36536.6 " />
<path d="M45393.5 36536.6 A157.63 157.63 0.0 0 0 45393.5 36221.4 " />
<path d="M44803 38544
L45197 38938
" />
<path d="M45197 38544
L44803 38938
" />
<path d="M45000 38544
L45000 38938
" />
<path d="M44803 38741
L45197 38741
" />
<path d="M45393 38583
L44606 38583
" />
<path d="M45393 38898
L44606 38898
" />
<path d="M44606.5 38583.4 A157.63 157.63 0.0 0 0 44606.5 38898.6 " />
<path d="M45393.5 38898.6 A157.63 157.63 0.0 0 0 45393.5 38583.4 " />
<path d="M47204 35920
L47677 36392
" />
<path d="M47677 35920
L47204 36392
" />
<polyline fill="none;"
points="47607,36323
47607,35989
47273,35989
47273,36323
47607,36323
" /> 
<path d="M47204 38007
L47677 38479
" />
<path d="M47677 38007
L47204 38479
" />
<polyline fill="none;"
points="47607,38410
47607,38076
47273,38076
47273,38410
47607,38410
" /> 
<path d="M42489 50559
L43670 51740
" />
<path d="M43670 50559
L42489 51740
" />
<polyline fill="none;"
points="43080,51740
43670,51150
43080,50559
42489,51150
43080,51740
" /> 
<path d="M43783 50753
L42635 50475
" />
<path d="M43524 51824
L42376 51546
" />
<path d="M42635.6 50475.4 A551.181 551.181 0.0 0 0 42376.4 51546.9 " />
<path d="M43524.4 51824.6 A551.181 551.181 0.0 0 0 43783.6 50753.1 " />
<path d="M72329 50559
L73510 51740
" />
<path d="M73510 50559
L72329 51740
" />
<polyline fill="none;"
points="72920,51740
73510,51150
72920,50559
72329,51150
72920,51740
" /> 
<path d="M72475 51824
L73623 51546
" />
<path d="M72216 50753
L73364 50475
" />
<path d="M73623.6 51546.9 A551.181 551.181 0.0 0 0 73364.4 50475.4 " />
<path d="M72216.4 50753.1 A551.181 551.181 0.0 1 0 72475.6 51824.6 " />
<path d="M43000 46870
L43000 48129
" />
<path d="M42370 47500
L43629 47500
" />
<circle cx="43000" cy="47500" r="629.921" /> 
<path d="M43000 39870
L43000 41129
" />
<path d="M42370 40500
L43629 40500
" />
<circle cx="43000" cy="40500" r="629.921" /> 
<path d="M73000 46870
L73000 48129
" />
<path d="M72370 47500
L73629 47500
" />
<circle cx="73000" cy="47500" r="629.921" /> 
<path d="M73000 39870
L73000 41129
" />
<path d="M72370 40500
L73629 40500
" />
<circle cx="73000" cy="40500" r="629.921" /> 
</g>
<g style="fill:#000000; fill-opacity:0.0; 
stroke:#000000; stroke-width:118.11; stroke-opacity:1; 
stroke-linecap:round; stroke-linejoin:round;">
<path d="M42607 55503
L42607 54322
L42889 54322
L43057 54378
L43170 54490
L43226 54603
L43282 54828
L43282 54997
L43226 55221
L43170 55334
L43057 55446
L42889 55503
L42607 55503
" />
<path d="M43789 55503
L43789 54715
" />
<path d="M43789 54940
L43845 54828
L43901 54772
L44014 54715
L44126 54715
" />
<path d="M44520 55503
L44520 54715
" />
<path d="M44520 54322
L44464 54378
L44520 54434
L44576 54378
L44520 54322
L44520 54434
" />
<path d="M45251 55503
L45138 55446
L45082 55334
L45082 54322
" />
<path d="M45870 55503
L45757 55446
L45701 55334
L45701 54322
" />
<path d="M47219 55503
L47219 54322
L47613 55165
L48007 54322
L48007 55503
" />
<path d="M49075 55503
L49075 54884
L49019 54772
L48907 54715
L48682 54715
L48569 54772
" />
<path d="M49075 55446
L48963 55503
L48682 55503
L48569 55446
L48513 55334
L48513 55221
L48569 55109
L48682 55053
L48963 55053
L49075 54997
" />
<path d="M49638 54715
L49638 55896
" />
<path d="M49638 54772
L49750 54715
L49975 54715
L50088 54772
L50144 54828
L50200 54940
L50200 55278
L50144 55390
L50088 55446
L49975 55503
L49750 55503
L49638 55446
" />
<path d="M50706 55390
L50763 55446
L50706 55503
L50650 55446
L50706 55390
L50706 55503
" />
<path d="M50706 54772
L50763 54828
L50706 54884
L50650 54828
L50706 54772
L50706 54884
" />
<path d="M41322 57370
L41480 57527
" />
<path d="M41480 57370
L41322 57527
" />
<path d="M42832 56802
L42945 56802
L43057 56858
L43114 56914
L43170 57027
L43226 57252
L43226 57533
L43170 57758
L43114 57871
L43057 57927
L42945 57983
L42832 57983
L42720 57927
L42664 57871
L42607 57758
L42551 57533
L42551 57252
L42607 57027
L42664 56914
L42720 56858
L42832 56802
" />
<path d="M43732 57871
L43789 57927
L43732 57983
L43676 57927
L43732 57871
L43732 57983
" />
<path d="M44801 57196
L44801 57983
" />
<path d="M44520 56746
L44239 57589
L44970 57589
" />
<path d="M45645 56802
L45757 56802
L45870 56858
L45926 56914
L45982 57027
L46038 57252
L46038 57533
L45982 57758
L45926 57871
L45870 57927
L45757 57983
L45645 57983
L45532 57927
L45476 57871
L45420 57758
L45363 57533
L45363 57252
L45420 57027
L45476 56914
L45532 56858
L45645 56802
" />
<path d="M46544 57983
L46544 57196
" />
<path d="M46544 57308
L46601 57252
L46713 57196
L46882 57196
L46994 57252
L47051 57364
L47051 57983
" />
<path d="M47051 57364
L47107 57252
L47219 57196
L47388 57196
L47501 57252
L47557 57364
L47557 57983
" />
<path d="M48119 57983
L48119 57196
" />
<path d="M48119 57308
L48176 57252
L48288 57196
L48457 57196
L48569 57252
L48625 57364
L48625 57983
" />
<path d="M48625 57364
L48682 57252
L48794 57196
L48963 57196
L49075 57252
L49132 57364
L49132 57983
" />
<path d="M51438 56746
L50425 58264
" />
<path d="M52956 56802
L53069 56802
L53181 56858
L53237 56914
L53294 57027
L53350 57252
L53350 57533
L53294 57758
L53237 57871
L53181 57927
L53069 57983
L52956 57983
L52844 57927
L52787 57871
L52731 57758
L52675 57533
L52675 57252
L52731 57027
L52787 56914
L52844 56858
L52956 56802
" />
<path d="M53856 57871
L53912 57927
L53856 57983
L53800 57927
L53856 57871
L53856 57983
" />
<path d="M54643 56802
L54756 56802
L54868 56858
L54925 56914
L54981 57027
L55037 57252
L55037 57533
L54981 57758
L54925 57871
L54868 57927
L54756 57983
L54643 57983
L54531 57927
L54475 57871
L54419 57758
L54362 57533
L54362 57252
L54419 57027
L54475 56914
L54531 56858
L54643 56802
" />
<path d="M56162 57983
L55487 57983
" />
<path d="M55825 57983
L55825 56802
L55712 56971
L55600 57083
L55487 57139
" />
<path d="M57174 56802
L56949 56802
L56837 56858
L56781 56914
L56668 57083
L56612 57308
L56612 57758
L56668 57871
L56724 57927
L56837 57983
L57062 57983
L57174 57927
L57231 57871
L57287 57758
L57287 57477
L57231 57364
L57174 57308
L57062 57252
L56837 57252
L56724 57308
L56668 57364
L56612 57477
" />
<path d="M57737 56802
L57737 57027
" />
<path d="M58187 56802
L58187 57027
" />
<path d="M59930 58433
L59874 58377
L59762 58208
L59705 58096
L59649 57927
L59593 57646
L59593 57421
L59649 57139
L59705 56971
L59762 56858
L59874 56689
L59930 56633
" />
<path d="M60943 56802
L60380 56802
L60324 57364
L60380 57308
L60493 57252
L60774 57252
L60886 57308
L60943 57364
L60999 57477
L60999 57758
L60943 57871
L60886 57927
L60774 57983
L60493 57983
L60380 57927
L60324 57871
" />
<path d="M61730 56802
L61843 56802
L61955 56858
L62011 56914
L62068 57027
L62124 57252
L62124 57533
L62068 57758
L62011 57871
L61955 57927
L61843 57983
L61730 57983
L61618 57927
L61561 57871
L61505 57758
L61449 57533
L61449 57252
L61505 57027
L61561 56914
L61618 56858
L61730 56802
" />
<path d="M63530 57983
L63530 56802
" />
<path d="M64036 57983
L64036 57364
L63980 57252
L63867 57196
L63699 57196
L63586 57252
L63530 57308
" />
<path d="M64767 57983
L64655 57927
L64598 57871
L64542 57758
L64542 57421
L64598 57308
L64655 57252
L64767 57196
L64936 57196
L65048 57252
L65105 57308
L65161 57421
L65161 57758
L65105 57871
L65048 57927
L64936 57983
L64767 57983
" />
<path d="M65836 57983
L65723 57927
L65667 57814
L65667 56802
" />
<path d="M66736 57927
L66623 57983
L66398 57983
L66286 57927
L66230 57814
L66230 57364
L66286 57252
L66398 57196
L66623 57196
L66736 57252
L66792 57364
L66792 57477
L66230 57589
" />
<path d="M67242 57927
L67354 57983
L67579 57983
L67692 57927
L67748 57814
L67748 57758
L67692 57646
L67579 57589
L67411 57589
L67298 57533
L67242 57421
L67242 57364
L67298 57252
L67411 57196
L67579 57196
L67692 57252
" />
<path d="M68142 58433
L68198 58377
L68311 58208
L68367 58096
L68423 57927
L68479 57646
L68479 57421
L68423 57139
L68367 56971
L68311 56858
L68198 56689
L68142 56633
" />
<circle cx="41362.2" cy="59008.3" r="118.11" /> 
<path d="M42832 58361
L42945 58361
L43057 58417
L43114 58473
L43170 58586
L43226 58811
L43226 59092
L43170 59317
L43114 59430
L43057 59486
L42945 59542
L42832 59542
L42720 59486
L42664 59430
L42607 59317
L42551 59092
L42551 58811
L42607 58586
L42664 58473
L42720 58417
L42832 58361
" />
<path d="M43732 59430
L43789 59486
L43732 59542
L43676 59486
L43732 59430
L43732 59542
" />
<path d="M44801 58361
L44576 58361
L44464 58417
L44407 58473
L44295 58642
L44239 58867
L44239 59317
L44295 59430
L44351 59486
L44464 59542
L44688 59542
L44801 59486
L44857 59430
L44913 59317
L44913 59036
L44857 58923
L44801 58867
L44688 58811
L44464 58811
L44351 58867
L44295 58923
L44239 59036
" />
<path d="M45645 58361
L45757 58361
L45870 58417
L45926 58473
L45982 58586
L46038 58811
L46038 59092
L45982 59317
L45926 59430
L45870 59486
L45757 59542
L45645 59542
L45532 59486
L45476 59430
L45420 59317
L45363 59092
L45363 58811
L45420 58586
L45476 58473
L45532 58417
L45645 58361
" />
<path d="M46544 59542
L46544 58755
" />
<path d="M46544 58867
L46601 58811
L46713 58755
L46882 58755
L46994 58811
L47051 58923
L47051 59542
" />
<path d="M47051 58923
L47107 58811
L47219 58755
L47388 58755
L47501 58811
L47557 58923
L47557 59542
" />
<path d="M48119 59542
L48119 58755
" />
<path d="M48119 58867
L48176 58811
L48288 58755
L48457 58755
L48569 58811
L48625 58923
L48625 59542
" />
<path d="M48625 58923
L48682 58811
L48794 58755
L48963 58755
L49075 58811
L49132 58923
L49132 59542
" />
<path d="M51438 58305
L50425 59823
" />
<path d="M52956 58361
L53069 58361
L53181 58417
L53237 58473
L53294 58586
L53350 58811
L53350 59092
L53294 59317
L53237 59430
L53181 59486
L53069 59542
L52956 59542
L52844 59486
L52787 59430
L52731 59317
L52675 59092
L52675 58811
L52731 58586
L52787 58473
L52844 58417
L52956 58361
" />
<path d="M53856 59430
L53912 59486
L53856 59542
L53800 59486
L53856 59430
L53856 59542
" />
<path d="M54643 58361
L54756 58361
L54868 58417
L54925 58473
L54981 58586
L55037 58811
L55037 59092
L54981 59317
L54925 59430
L54868 59486
L54756 59542
L54643 59542
L54531 59486
L54475 59430
L54419 59317
L54362 59092
L54362 58811
L54419 58586
L54475 58473
L54531 58417
L54643 58361
" />
<path d="M55487 58473
L55543 58417
L55656 58361
L55937 58361
L56050 58417
L56106 58473
L56162 58586
L56162 58698
L56106 58867
L55431 59542
L56162 59542
" />
<path d="M57174 58755
L57174 59542
" />
<path d="M56893 58305
L56612 59148
L57343 59148
" />
<path d="M57737 58361
L57737 58586
" />
<path d="M58187 58361
L58187 58586
" />
<path d="M59930 59992
L59874 59936
L59762 59767
L59705 59655
L59649 59486
L59593 59205
L59593 58980
L59649 58698
L59705 58530
L59762 58417
L59874 58248
L59930 58192
" />
<path d="M60999 59542
L60324 59542
" />
<path d="M60661 59542
L60661 58361
L60549 58530
L60437 58642
L60324 58698
" />
<path d="M62405 59542
L62405 58361
" />
<path d="M62911 59542
L62911 58923
L62855 58811
L62742 58755
L62574 58755
L62461 58811
L62405 58867
" />
<path d="M63642 59542
L63530 59486
L63474 59430
L63417 59317
L63417 58980
L63474 58867
L63530 58811
L63642 58755
L63811 58755
L63924 58811
L63980 58867
L64036 58980
L64036 59317
L63980 59430
L63924 59486
L63811 59542
L63642 59542
" />
<path d="M64711 59542
L64598 59486
L64542 59373
L64542 58361
" />
<path d="M65611 59486
L65498 59542
L65273 59542
L65161 59486
L65105 59373
L65105 58923
L65161 58811
L65273 58755
L65498 58755
L65611 58811
L65667 58923
L65667 59036
L65105 59148
" />
<path d="M66061 59992
L66117 59936
L66230 59767
L66286 59655
L66342 59486
L66398 59205
L66398 58980
L66342 58698
L66286 58530
L66230 58417
L66117 58248
L66061 58192
" />
<path d="M41322 60409
L41322 60724
" />
<path d="M41165 60567
L41480 60567
" />
<path d="M42832 59920
L42945 59920
L43057 59976
L43114 60033
L43170 60145
L43226 60370
L43226 60651
L43170 60876
L43114 60989
L43057 61045
L42945 61101
L42832 61101
L42720 61045
L42664 60989
L42607 60876
L42551 60651
L42551 60370
L42607 60145
L42664 60033
L42720 59976
L42832 59920
" />
<path d="M43732 60989
L43789 61045
L43732 61101
L43676 61045
L43732 60989
L43732 61101
" />
<path d="M44464 60426
L44351 60370
L44295 60314
L44239 60201
L44239 60145
L44295 60033
L44351 59976
L44464 59920
L44688 59920
L44801 59976
L44857 60033
L44913 60145
L44913 60201
L44857 60314
L44801 60370
L44688 60426
L44464 60426
L44351 60482
L44295 60539
L44239 60651
L44239 60876
L44295 60989
L44351 61045
L44464 61101
L44688 61101
L44801 61045
L44857 60989
L44913 60876
L44913 60651
L44857 60539
L44801 60482
L44688 60426
" />
<path d="M45645 59920
L45757 59920
L45870 59976
L45926 60033
L45982 60145
L46038 60370
L46038 60651
L45982 60876
L45926 60989
L45870 61045
L45757 61101
L45645 61101
L45532 61045
L45476 60989
L45420 60876
L45363 60651
L45363 60370
L45420 60145
L45476 60033
L45532 59976
L45645 59920
" />
<path d="M46544 61101
L46544 60314
" />
<path d="M46544 60426
L46601 60370
L46713 60314
L46882 60314
L46994 60370
L47051 60482
L47051 61101
" />
<path d="M47051 60482
L47107 60370
L47219 60314
L47388 60314
L47501 60370
L47557 60482
L47557 61101
" />
<path d="M48119 61101
L48119 60314
" />
<path d="M48119 60426
L48176 60370
L48288 60314
L48457 60314
L48569 60370
L48625 60482
L48625 61101
" />
<path d="M48625 60482
L48682 60370
L48794 60314
L48963 60314
L49075 60370
L49132 60482
L49132 61101
" />
<path d="M51438 59864
L50425 61382
" />
<path d="M52956 59920
L53069 59920
L53181 59976
L53237 60033
L53294 60145
L53350 60370
L53350 60651
L53294 60876
L53237 60989
L53181 61045
L53069 61101
L52956 61101
L52844 61045
L52787 60989
L52731 60876
L52675 60651
L52675 60370
L52731 60145
L52787 60033
L52844 59976
L52956 59920
" />
<path d="M53856 60989
L53912 61045
L53856 61101
L53800 61045
L53856 60989
L53856 61101
" />
<path d="M54643 59920
L54756 59920
L54868 59976
L54925 60033
L54981 60145
L55037 60370
L55037 60651
L54981 60876
L54925 60989
L54868 61045
L54756 61101
L54643 61101
L54531 61045
L54475 60989
L54419 60876
L54362 60651
L54362 60370
L54419 60145
L54475 60033
L54531 59976
L54643 59920
" />
<path d="M55431 59920
L56162 59920
L55768 60370
L55937 60370
L56050 60426
L56106 60482
L56162 60595
L56162 60876
L56106 60989
L56050 61045
L55937 61101
L55600 61101
L55487 61045
L55431 60989
" />
<path d="M57287 61101
L56612 61101
" />
<path d="M56949 61101
L56949 59920
L56837 60089
L56724 60201
L56612 60257
" />
<path d="M57737 59920
L57737 60145
" />
<path d="M58187 59920
L58187 60145
" />
<path d="M59930 61551
L59874 61495
L59762 61326
L59705 61214
L59649 61045
L59593 60764
L59593 60539
L59649 60257
L59705 60089
L59762 59976
L59874 59808
L59930 59751
" />
<path d="M60999 61101
L60324 61101
" />
<path d="M60661 61101
L60661 59920
L60549 60089
L60437 60201
L60324 60257
" />
<path d="M61730 59920
L61843 59920
L61955 59976
L62011 60033
L62068 60145
L62124 60370
L62124 60651
L62068 60876
L62011 60989
L61955 61045
L61843 61101
L61730 61101
L61618 61045
L61561 60989
L61505 60876
L61449 60651
L61449 60370
L61505 60145
L61561 60033
L61618 59976
L61730 59920
" />
<path d="M63530 61101
L63530 59920
" />
<path d="M64036 61101
L64036 60482
L63980 60370
L63867 60314
L63699 60314
L63586 60370
L63530 60426
" />
<path d="M64767 61101
L64655 61045
L64598 60989
L64542 60876
L64542 60539
L64598 60426
L64655 60370
L64767 60314
L64936 60314
L65048 60370
L65105 60426
L65161 60539
L65161 60876
L65105 60989
L65048 61045
L64936 61101
L64767 61101
" />
<path d="M65836 61101
L65723 61045
L65667 60932
L65667 59920
" />
<path d="M66736 61045
L66623 61101
L66398 61101
L66286 61045
L66230 60932
L66230 60482
L66286 60370
L66398 60314
L66623 60314
L66736 60370
L66792 60482
L66792 60595
L66230 60707
" />
<path d="M67242 61045
L67354 61101
L67579 61101
L67692 61045
L67748 60932
L67748 60876
L67692 60764
L67579 60707
L67411 60707
L67298 60651
L67242 60539
L67242 60482
L67298 60370
L67411 60314
L67579 60314
L67692 60370
" />
<path d="M68142 61551
L68198 61495
L68311 61326
L68367 61214
L68423 61045
L68479 60764
L68479 60539
L68423 60257
L68367 60089
L68311 59976
L68198 59808
L68142 59751
" />
<polyline fill="none;"
points="41434,62237
41434,62015
41211,62015
41211,62237
41434,62237
" /> 
<path d="M42832 61479
L42945 61479
L43057 61535
L43114 61592
L43170 61704
L43226 61929
L43226 62210
L43170 62435
L43114 62548
L43057 62604
L42945 62660
L42832 62660
L42720 62604
L42664 62548
L42607 62435
L42551 62210
L42551 61929
L42607 61704
L42664 61592
L42720 61535
L42832 61479
" />
<path d="M43732 62548
L43789 62604
L43732 62660
L43676 62604
L43732 62548
L43732 62660
" />
<path d="M44464 61985
L44351 61929
L44295 61873
L44239 61760
L44239 61704
L44295 61592
L44351 61535
L44464 61479
L44688 61479
L44801 61535
L44857 61592
L44913 61704
L44913 61760
L44857 61873
L44801 61929
L44688 61985
L44464 61985
L44351 62042
L44295 62098
L44239 62210
L44239 62435
L44295 62548
L44351 62604
L44464 62660
L44688 62660
L44801 62604
L44857 62548
L44913 62435
L44913 62210
L44857 62098
L44801 62042
L44688 61985
" />
<path d="M45645 61479
L45757 61479
L45870 61535
L45926 61592
L45982 61704
L46038 61929
L46038 62210
L45982 62435
L45926 62548
L45870 62604
L45757 62660
L45645 62660
L45532 62604
L45476 62548
L45420 62435
L45363 62210
L45363 61929
L45420 61704
L45476 61592
L45532 61535
L45645 61479
" />
<path d="M46544 62660
L46544 61873
" />
<path d="M46544 61985
L46601 61929
L46713 61873
L46882 61873
L46994 61929
L47051 62042
L47051 62660
" />
<path d="M47051 62042
L47107 61929
L47219 61873
L47388 61873
L47501 61929
L47557 62042
L47557 62660
" />
<path d="M48119 62660
L48119 61873
" />
<path d="M48119 61985
L48176 61929
L48288 61873
L48457 61873
L48569 61929
L48625 62042
L48625 62660
" />
<path d="M48625 62042
L48682 61929
L48794 61873
L48963 61873
L49075 61929
L49132 62042
L49132 62660
" />
<path d="M51438 61423
L50425 62941
" />
<path d="M52956 61479
L53069 61479
L53181 61535
L53237 61592
L53294 61704
L53350 61929
L53350 62210
L53294 62435
L53237 62548
L53181 62604
L53069 62660
L52956 62660
L52844 62604
L52787 62548
L52731 62435
L52675 62210
L52675 61929
L52731 61704
L52787 61592
L52844 61535
L52956 61479
" />
<path d="M53856 62548
L53912 62604
L53856 62660
L53800 62604
L53856 62548
L53856 62660
" />
<path d="M54643 61479
L54756 61479
L54868 61535
L54925 61592
L54981 61704
L55037 61929
L55037 62210
L54981 62435
L54925 62548
L54868 62604
L54756 62660
L54643 62660
L54531 62604
L54475 62548
L54419 62435
L54362 62210
L54362 61929
L54419 61704
L54475 61592
L54531 61535
L54643 61479
" />
<path d="M55431 61479
L56162 61479
L55768 61929
L55937 61929
L56050 61985
L56106 62042
L56162 62154
L56162 62435
L56106 62548
L56050 62604
L55937 62660
L55600 62660
L55487 62604
L55431 62548
" />
<path d="M56612 61592
L56668 61535
L56781 61479
L57062 61479
L57174 61535
L57231 61592
L57287 61704
L57287 61817
L57231 61985
L56556 62660
L57287 62660
" />
<path d="M57737 61479
L57737 61704
" />
<path d="M58187 61479
L58187 61704
" />
<path d="M59930 63110
L59874 63054
L59762 62885
L59705 62773
L59649 62604
L59593 62323
L59593 62098
L59649 61817
L59705 61648
L59762 61535
L59874 61367
L59930 61310
" />
<path d="M60886 61873
L60886 62660
" />
<path d="M60605 61423
L60324 62266
L61055 62266
" />
<path d="M61730 61479
L61843 61479
L61955 61535
L62011 61592
L62068 61704
L62124 61929
L62124 62210
L62068 62435
L62011 62548
L61955 62604
L61843 62660
L61730 62660
L61618 62604
L61561 62548
L61505 62435
L61449 62210
L61449 61929
L61505 61704
L61561 61592
L61618 61535
L61730 61479
" />
<path d="M63530 62660
L63530 61479
" />
<path d="M64036 62660
L64036 62042
L63980 61929
L63867 61873
L63699 61873
L63586 61929
L63530 61985
" />
<path d="M64767 62660
L64655 62604
L64598 62548
L64542 62435
L64542 62098
L64598 61985
L64655 61929
L64767 61873
L64936 61873
L65048 61929
L65105 61985
L65161 62098
L65161 62435
L65105 62548
L65048 62604
L64936 62660
L64767 62660
" />
<path d="M65836 62660
L65723 62604
L65667 62491
L65667 61479
" />
<path d="M66736 62604
L66623 62660
L66398 62660
L66286 62604
L66230 62491
L66230 62042
L66286 61929
L66398 61873
L66623 61873
L66736 61929
L66792 62042
L66792 62154
L66230 62266
" />
<path d="M67242 62604
L67354 62660
L67579 62660
L67692 62604
L67748 62491
L67748 62435
L67692 62323
L67579 62266
L67411 62266
L67298 62210
L67242 62098
L67242 62042
L67298 61929
L67411 61873
L67579 61873
L67692 61929
" />
<path d="M68142 63110
L68198 63054
L68311 62885
L68367 62773
L68423 62604
L68479 62323
L68479 62098
L68423 61817
L68367 61648
L68311 61535
L68198 61367
L68142 61310
" />
<polyline fill="none;"
points="41303,63862
41480,63685
41303,63508
41125,63685
41303,63862
" /> 
<path d="M42832 63038
L42945 63038
L43057 63094
L43114 63151
L43170 63263
L43226 63488
L43226 63769
L43170 63994
L43114 64107
L43057 64163
L42945 64219
L42832 64219
L42720 64163
L42664 64107
L42607 63994
L42551 63769
L42551 63488
L42607 63263
L42664 63151
L42720 63094
L42832 63038
" />
<path d="M43732 64107
L43789 64163
L43732 64219
L43676 64163
L43732 64107
L43732 64219
" />
<path d="M44351 64219
L44576 64219
L44688 64163
L44745 64107
L44857 63938
L44913 63713
L44913 63263
L44857 63151
L44801 63094
L44688 63038
L44464 63038
L44351 63094
L44295 63151
L44239 63263
L44239 63544
L44295 63657
L44351 63713
L44464 63769
L44688 63769
L44801 63713
L44857 63657
L44913 63544
" />
<path d="M45645 63038
L45757 63038
L45870 63094
L45926 63151
L45982 63263
L46038 63488
L46038 63769
L45982 63994
L45926 64107
L45870 64163
L45757 64219
L45645 64219
L45532 64163
L45476 64107
L45420 63994
L45363 63769
L45363 63488
L45420 63263
L45476 63151
L45532 63094
L45645 63038
" />
<path d="M46544 64219
L46544 63432
" />
<path d="M46544 63544
L46601 63488
L46713 63432
L46882 63432
L46994 63488
L47051 63601
L47051 64219
" />
<path d="M47051 63601
L47107 63488
L47219 63432
L47388 63432
L47501 63488
L47557 63601
L47557 64219
" />
<path d="M48119 64219
L48119 63432
" />
<path d="M48119 63544
L48176 63488
L48288 63432
L48457 63432
L48569 63488
L48625 63601
L48625 64219
" />
<path d="M48625 63601
L48682 63488
L48794 63432
L48963 63432
L49075 63488
L49132 63601
L49132 64219
" />
<path d="M51438 62982
L50425 64500
" />
<path d="M52956 63038
L53069 63038
L53181 63094
L53237 63151
L53294 63263
L53350 63488
L53350 63769
L53294 63994
L53237 64107
L53181 64163
L53069 64219
L52956 64219
L52844 64163
L52787 64107
L52731 63994
L52675 63769
L52675 63488
L52731 63263
L52787 63151
L52844 63094
L52956 63038
" />
<path d="M53856 64107
L53912 64163
L53856 64219
L53800 64163
L53856 64107
L53856 64219
" />
<path d="M54643 63038
L54756 63038
L54868 63094
L54925 63151
L54981 63263
L55037 63488
L55037 63769
L54981 63994
L54925 64107
L54868 64163
L54756 64219
L54643 64219
L54531 64163
L54475 64107
L54419 63994
L54362 63769
L54362 63488
L54419 63263
L54475 63151
L54531 63094
L54643 63038
" />
<path d="M55431 63038
L56162 63038
L55768 63488
L55937 63488
L56050 63544
L56106 63601
L56162 63713
L56162 63994
L56106 64107
L56050 64163
L55937 64219
L55600 64219
L55487 64163
L55431 64107
" />
<path d="M57231 63038
L56668 63038
L56612 63601
L56668 63544
L56781 63488
L57062 63488
L57174 63544
L57231 63601
L57287 63713
L57287 63994
L57231 64107
L57174 64163
L57062 64219
L56781 64219
L56668 64163
L56612 64107
" />
<path d="M57737 63038
L57737 63263
" />
<path d="M58187 63038
L58187 63263
" />
<path d="M59930 64669
L59874 64613
L59762 64444
L59705 64332
L59649 64163
L59593 63882
L59593 63657
L59649 63376
L59705 63207
L59762 63094
L59874 62926
L59930 62869
" />
<path d="M60324 63151
L60380 63094
L60493 63038
L60774 63038
L60886 63094
L60943 63151
L60999 63263
L60999 63376
L60943 63544
L60268 64219
L60999 64219
" />
<path d="M62405 64219
L62405 63038
" />
<path d="M62911 64219
L62911 63601
L62855 63488
L62742 63432
L62574 63432
L62461 63488
L62405 63544
" />
<path d="M63642 64219
L63530 64163
L63474 64107
L63417 63994
L63417 63657
L63474 63544
L63530 63488
L63642 63432
L63811 63432
L63924 63488
L63980 63544
L64036 63657
L64036 63994
L63980 64107
L63924 64163
L63811 64219
L63642 64219
" />
<path d="M64711 64219
L64598 64163
L64542 64051
L64542 63038
" />
<path d="M65611 64163
L65498 64219
L65273 64219
L65161 64163
L65105 64051
L65105 63601
L65161 63488
L65273 63432
L65498 63432
L65611 63488
L65667 63601
L65667 63713
L65105 63826
" />
<path d="M66117 64163
L66230 64219
L66455 64219
L66567 64163
L66623 64051
L66623 63994
L66567 63882
L66455 63826
L66286 63826
L66173 63769
L66117 63657
L66117 63601
L66173 63488
L66286 63432
L66455 63432
L66567 63488
" />
<path d="M67017 64669
L67073 64613
L67186 64444
L67242 64332
L67298 64163
L67354 63882
L67354 63657
L67298 63376
L67242 63207
L67186 63094
L67073 62926
L67017 62869
" />
<path d="M41086 65047
L41480 65441
" />
<path d="M41480 65047
L41086 65441
" />
<circle cx="41283.5" cy="65244.5" r="196.85" /> 
<path d="M43226 65778
L42551 65778
" />
<path d="M42889 65778
L42889 64597
L42776 64766
L42664 64878
L42551 64935
" />
<path d="M43732 65666
L43789 65722
L43732 65778
L43676 65722
L43732 65666
L43732 65778
" />
<path d="M44520 64597
L44632 64597
L44745 64653
L44801 64710
L44857 64822
L44913 65047
L44913 65328
L44857 65553
L44801 65666
L44745 65722
L44632 65778
L44520 65778
L44407 65722
L44351 65666
L44295 65553
L44239 65328
L44239 65047
L44295 64822
L44351 64710
L44407 64653
L44520 64597
" />
<path d="M45645 64597
L45757 64597
L45870 64653
L45926 64710
L45982 64822
L46038 65047
L46038 65328
L45982 65553
L45926 65666
L45870 65722
L45757 65778
L45645 65778
L45532 65722
L45476 65666
L45420 65553
L45363 65328
L45363 65047
L45420 64822
L45476 64710
L45532 64653
L45645 64597
" />
<path d="M46544 65778
L46544 64991
" />
<path d="M46544 65103
L46601 65047
L46713 64991
L46882 64991
L46994 65047
L47051 65160
L47051 65778
" />
<path d="M47051 65160
L47107 65047
L47219 64991
L47388 64991
L47501 65047
L47557 65160
L47557 65778
" />
<path d="M48119 65778
L48119 64991
" />
<path d="M48119 65103
L48176 65047
L48288 64991
L48457 64991
L48569 65047
L48625 65160
L48625 65778
" />
<path d="M48625 65160
L48682 65047
L48794 64991
L48963 64991
L49075 65047
L49132 65160
L49132 65778
" />
<path d="M51438 64541
L50425 66060
" />
<path d="M52956 64597
L53069 64597
L53181 64653
L53237 64710
L53294 64822
L53350 65047
L53350 65328
L53294 65553
L53237 65666
L53181 65722
L53069 65778
L52956 65778
L52844 65722
L52787 65666
L52731 65553
L52675 65328
L52675 65047
L52731 64822
L52787 64710
L52844 64653
L52956 64597
" />
<path d="M53856 65666
L53912 65722
L53856 65778
L53800 65722
L53856 65666
L53856 65778
" />
<path d="M54643 64597
L54756 64597
L54868 64653
L54925 64710
L54981 64822
L55037 65047
L55037 65328
L54981 65553
L54925 65666
L54868 65722
L54756 65778
L54643 65778
L54531 65722
L54475 65666
L54419 65553
L54362 65328
L54362 65047
L54419 64822
L54475 64710
L54531 64653
L54643 64597
" />
<path d="M55431 64597
L56162 64597
L55768 65047
L55937 65047
L56050 65103
L56106 65160
L56162 65272
L56162 65553
L56106 65666
L56050 65722
L55937 65778
L55600 65778
L55487 65722
L55431 65666
" />
<path d="M56724 65778
L56949 65778
L57062 65722
L57118 65666
L57231 65497
L57287 65272
L57287 64822
L57231 64710
L57174 64653
L57062 64597
L56837 64597
L56724 64653
L56668 64710
L56612 64822
L56612 65103
L56668 65216
L56724 65272
L56837 65328
L57062 65328
L57174 65272
L57231 65216
L57287 65103
" />
<path d="M57737 64597
L57737 64822
" />
<path d="M58187 64597
L58187 64822
" />
<path d="M59930 66228
L59874 66172
L59762 66003
L59705 65891
L59649 65722
L59593 65441
L59593 65216
L59649 64935
L59705 64766
L59762 64653
L59874 64485
L59930 64428
" />
<path d="M60268 64597
L61055 64597
L60549 65778
" />
<path d="M61393 64597
L62124 64597
L61730 65047
L61899 65047
L62011 65103
L62068 65160
L62124 65272
L62124 65553
L62068 65666
L62011 65722
L61899 65778
L61561 65778
L61449 65722
L61393 65666
" />
<path d="M63530 65778
L63530 64597
" />
<path d="M64036 65778
L64036 65160
L63980 65047
L63867 64991
L63699 64991
L63586 65047
L63530 65103
" />
<path d="M64767 65778
L64655 65722
L64598 65666
L64542 65553
L64542 65216
L64598 65103
L64655 65047
L64767 64991
L64936 64991
L65048 65047
L65105 65103
L65161 65216
L65161 65553
L65105 65666
L65048 65722
L64936 65778
L64767 65778
" />
<path d="M65836 65778
L65723 65722
L65667 65610
L65667 64597
" />
<path d="M66736 65722
L66623 65778
L66398 65778
L66286 65722
L66230 65610
L66230 65160
L66286 65047
L66398 64991
L66623 64991
L66736 65047
L66792 65160
L66792 65272
L66230 65385
" />
<path d="M67242 65722
L67354 65778
L67579 65778
L67692 65722
L67748 65610
L67748 65553
L67692 65441
L67579 65385
L67411 65385
L67298 65328
L67242 65216
L67242 65160
L67298 65047
L67411 64991
L67579 64991
L67692 65047
" />
<path d="M68142 66228
L68198 66172
L68311 66003
L68367 65891
L68423 65722
L68479 65441
L68479 65216
L68423 64935
L68367 64766
L68311 64653
L68198 64485
L68142 64428
" />
<path d="M41086 66606
L41480 67000
" />
<path d="M41480 66606
L41086 67000
" />
<path d="M41283 66606
L41283 67000
" />
<path d="M41086 66803
L41480 66803
" />
<path d="M43226 67337
L42551 67337
" />
<path d="M42889 67337
L42889 66156
L42776 66325
L42664 66437
L42551 66494
" />
<path d="M43732 67225
L43789 67281
L43732 67337
L43676 67281
L43732 67225
L43732 67337
" />
<path d="M44520 66156
L44632 66156
L44745 66212
L44801 66269
L44857 66381
L44913 66606
L44913 66887
L44857 67112
L44801 67225
L44745 67281
L44632 67337
L44520 67337
L44407 67281
L44351 67225
L44295 67112
L44239 66887
L44239 66606
L44295 66381
L44351 66269
L44407 66212
L44520 66156
" />
<path d="M45645 66156
L45757 66156
L45870 66212
L45926 66269
L45982 66381
L46038 66606
L46038 66887
L45982 67112
L45926 67225
L45870 67281
L45757 67337
L45645 67337
L45532 67281
L45476 67225
L45420 67112
L45363 66887
L45363 66606
L45420 66381
L45476 66269
L45532 66212
L45645 66156
" />
<path d="M46544 67337
L46544 66550
" />
<path d="M46544 66662
L46601 66606
L46713 66550
L46882 66550
L46994 66606
L47051 66719
L47051 67337
" />
<path d="M47051 66719
L47107 66606
L47219 66550
L47388 66550
L47501 66606
L47557 66719
L47557 67337
" />
<path d="M48119 67337
L48119 66550
" />
<path d="M48119 66662
L48176 66606
L48288 66550
L48457 66550
L48569 66606
L48625 66719
L48625 67337
" />
<path d="M48625 66719
L48682 66606
L48794 66550
L48963 66550
L49075 66606
L49132 66719
L49132 67337
" />
<path d="M51438 66100
L50425 67619
" />
<path d="M52956 66156
L53069 66156
L53181 66212
L53237 66269
L53294 66381
L53350 66606
L53350 66887
L53294 67112
L53237 67225
L53181 67281
L53069 67337
L52956 67337
L52844 67281
L52787 67225
L52731 67112
L52675 66887
L52675 66606
L52731 66381
L52787 66269
L52844 66212
L52956 66156
" />
<path d="M53856 67225
L53912 67281
L53856 67337
L53800 67281
L53856 67225
L53856 67337
" />
<path d="M54643 66156
L54756 66156
L54868 66212
L54925 66269
L54981 66381
L55037 66606
L55037 66887
L54981 67112
L54925 67225
L54868 67281
L54756 67337
L54643 67337
L54531 67281
L54475 67225
L54419 67112
L54362 66887
L54362 66606
L54419 66381
L54475 66269
L54531 66212
L54643 66156
" />
<path d="M55431 66156
L56162 66156
L55768 66606
L55937 66606
L56050 66662
L56106 66719
L56162 66831
L56162 67112
L56106 67225
L56050 67281
L55937 67337
L55600 67337
L55487 67281
L55431 67225
" />
<path d="M56724 67337
L56949 67337
L57062 67281
L57118 67225
L57231 67056
L57287 66831
L57287 66381
L57231 66269
L57174 66212
L57062 66156
L56837 66156
L56724 66212
L56668 66269
L56612 66381
L56612 66662
L56668 66775
L56724 66831
L56837 66887
L57062 66887
L57174 66831
L57231 66775
L57287 66662
" />
<path d="M57737 66156
L57737 66381
" />
<path d="M58187 66156
L58187 66381
" />
<path d="M59930 67787
L59874 67731
L59762 67562
L59705 67450
L59649 67281
L59593 67000
L59593 66775
L59649 66494
L59705 66325
L59762 66212
L59874 66044
L59930 65988
" />
<path d="M60605 66156
L60718 66156
L60830 66212
L60886 66269
L60943 66381
L60999 66606
L60999 66887
L60943 67112
L60886 67225
L60830 67281
L60718 67337
L60605 67337
L60493 67281
L60437 67225
L60380 67112
L60324 66887
L60324 66606
L60380 66381
L60437 66269
L60493 66212
L60605 66156
" />
<path d="M62405 67337
L62405 66156
" />
<path d="M62911 67337
L62911 66719
L62855 66606
L62742 66550
L62574 66550
L62461 66606
L62405 66662
" />
<path d="M63642 67337
L63530 67281
L63474 67225
L63417 67112
L63417 66775
L63474 66662
L63530 66606
L63642 66550
L63811 66550
L63924 66606
L63980 66662
L64036 66775
L64036 67112
L63980 67225
L63924 67281
L63811 67337
L63642 67337
" />
<path d="M64711 67337
L64598 67281
L64542 67169
L64542 66156
" />
<path d="M65611 67281
L65498 67337
L65273 67337
L65161 67281
L65105 67169
L65105 66719
L65161 66606
L65273 66550
L65498 66550
L65611 66606
L65667 66719
L65667 66831
L65105 66944
" />
<path d="M66117 67281
L66230 67337
L66455 67337
L66567 67281
L66623 67169
L66623 67112
L66567 67000
L66455 66944
L66286 66944
L66173 66887
L66117 66775
L66117 66719
L66173 66606
L66286 66550
L66455 66550
L66567 66606
" />
<path d="M68029 66887
L68929 66887
" />
<path d="M68479 67337
L68479 66437
" />
<path d="M70279 66156
L71010 66156
L70616 66606
L70785 66606
L70898 66662
L70954 66719
L71010 66831
L71010 67112
L70954 67225
L70898 67281
L70785 67337
L70448 67337
L70335 67281
L70279 67225
" />
<path d="M72360 67281
L72473 67337
L72697 67337
L72810 67281
L72866 67169
L72866 67112
L72810 67000
L72697 66944
L72529 66944
L72416 66887
L72360 66775
L72360 66719
L72416 66606
L72529 66550
L72697 66550
L72810 66606
" />
<path d="M73541 67337
L73429 67281
L73372 67169
L73372 66156
" />
<path d="M74160 67337
L74047 67281
L73991 67225
L73935 67112
L73935 66775
L73991 66662
L74047 66606
L74160 66550
L74329 66550
L74441 66606
L74497 66662
L74553 66775
L74553 67112
L74497 67225
L74441 67281
L74329 67337
L74160 67337
" />
<path d="M74891 66550
L75341 66550
" />
<path d="M75060 66156
L75060 67169
L75116 67281
L75228 67337
L75341 67337
" />
<path d="M75678 67281
L75791 67337
L76016 67337
L76128 67281
L76185 67169
L76185 67112
L76128 67000
L76016 66944
L75847 66944
L75735 66887
L75678 66775
L75678 66719
L75735 66606
L75847 66550
L76016 66550
L76128 66606
" />
<path d="M76578 67787
L76634 67731
L76747 67562
L76803 67450
L76859 67281
L76916 67000
L76916 66775
L76859 66494
L76803 66325
L76747 66212
L76634 66044
L76578 65988
" />
<path d="M41007 68126
L41480 68598
" />
<path d="M41480 68126
L41007 68598
" />
<polyline fill="none;"
points="41411,68529
41411,68195
41077,68195
41077,68529
41411,68529
" /> 
<path d="M43226 68896
L42551 68896
" />
<path d="M42889 68896
L42889 67715
L42776 67884
L42664 67997
L42551 68053
" />
<path d="M43732 68784
L43789 68840
L43732 68896
L43676 68840
L43732 68784
L43732 68896
" />
<path d="M44239 67828
L44295 67772
L44407 67715
L44688 67715
L44801 67772
L44857 67828
L44913 67940
L44913 68053
L44857 68221
L44182 68896
L44913 68896
" />
<path d="M45645 67715
L45757 67715
L45870 67772
L45926 67828
L45982 67940
L46038 68165
L46038 68446
L45982 68671
L45926 68784
L45870 68840
L45757 68896
L45645 68896
L45532 68840
L45476 68784
L45420 68671
L45363 68446
L45363 68165
L45420 67940
L45476 67828
L45532 67772
L45645 67715
" />
<path d="M46544 68896
L46544 68109
" />
<path d="M46544 68221
L46601 68165
L46713 68109
L46882 68109
L46994 68165
L47051 68278
L47051 68896
" />
<path d="M47051 68278
L47107 68165
L47219 68109
L47388 68109
L47501 68165
L47557 68278
L47557 68896
" />
<path d="M48119 68896
L48119 68109
" />
<path d="M48119 68221
L48176 68165
L48288 68109
L48457 68109
L48569 68165
L48625 68278
L48625 68896
" />
<path d="M48625 68278
L48682 68165
L48794 68109
L48963 68109
L49075 68165
L49132 68278
L49132 68896
" />
<path d="M51438 67659
L50425 69178
" />
<path d="M52956 67715
L53069 67715
L53181 67772
L53237 67828
L53294 67940
L53350 68165
L53350 68446
L53294 68671
L53237 68784
L53181 68840
L53069 68896
L52956 68896
L52844 68840
L52787 68784
L52731 68671
L52675 68446
L52675 68165
L52731 67940
L52787 67828
L52844 67772
L52956 67715
" />
<path d="M53856 68784
L53912 68840
L53856 68896
L53800 68840
L53856 68784
L53856 68896
" />
<path d="M54643 67715
L54756 67715
L54868 67772
L54925 67828
L54981 67940
L55037 68165
L55037 68446
L54981 68671
L54925 68784
L54868 68840
L54756 68896
L54643 68896
L54531 68840
L54475 68784
L54419 68671
L54362 68446
L54362 68165
L54419 67940
L54475 67828
L54531 67772
L54643 67715
" />
<path d="M56050 68109
L56050 68896
" />
<path d="M55768 67659
L55487 68503
L56218 68503
" />
<path d="M56556 67715
L57343 67715
L56837 68896
" />
<path d="M57737 67715
L57737 67940
" />
<path d="M58187 67715
L58187 67940
" />
<path d="M59930 69346
L59874 69290
L59762 69121
L59705 69009
L59649 68840
L59593 68559
L59593 68334
L59649 68053
L59705 67884
L59762 67772
L59874 67603
L59930 67547
" />
<path d="M60324 67828
L60380 67772
L60493 67715
L60774 67715
L60886 67772
L60943 67828
L60999 67940
L60999 68053
L60943 68221
L60268 68896
L60999 68896
" />
<path d="M62405 68896
L62405 67715
" />
<path d="M62911 68896
L62911 68278
L62855 68165
L62742 68109
L62574 68109
L62461 68165
L62405 68221
" />
<path d="M63642 68896
L63530 68840
L63474 68784
L63417 68671
L63417 68334
L63474 68221
L63530 68165
L63642 68109
L63811 68109
L63924 68165
L63980 68221
L64036 68334
L64036 68671
L63980 68784
L63924 68840
L63811 68896
L63642 68896
" />
<path d="M64711 68896
L64598 68840
L64542 68728
L64542 67715
" />
<path d="M65611 68840
L65498 68896
L65273 68896
L65161 68840
L65105 68728
L65105 68278
L65161 68165
L65273 68109
L65498 68109
L65611 68165
L65667 68278
L65667 68390
L65105 68503
" />
<path d="M66117 68840
L66230 68896
L66455 68896
L66567 68840
L66623 68728
L66623 68671
L66567 68559
L66455 68503
L66286 68503
L66173 68446
L66117 68334
L66117 68278
L66173 68165
L66286 68109
L66455 68109
L66567 68165
" />
<path d="M67017 69346
L67073 69290
L67186 69121
L67242 69009
L67298 68840
L67354 68559
L67354 68334
L67298 68053
L67242 67884
L67186 67772
L67073 67603
L67017 67547
" />
<path d="M40299 69331
L41480 70512
" />
<path d="M41480 69331
L40299 70512
" />
<polyline fill="none;"
points="40889,70512
41480,69921
40889,69331
40299,69921
40889,70512
" /> 
<path d="M42495 69274
L43226 69274
L42832 69724
L43001 69724
L43114 69781
L43170 69837
L43226 69949
L43226 70230
L43170 70343
L43114 70399
L43001 70455
L42664 70455
L42551 70399
L42495 70343
" />
<path d="M43732 70343
L43789 70399
L43732 70455
L43676 70399
L43732 70343
L43732 70455
" />
<path d="M44520 69274
L44632 69274
L44745 69331
L44801 69387
L44857 69499
L44913 69724
L44913 70006
L44857 70230
L44801 70343
L44745 70399
L44632 70455
L44520 70455
L44407 70399
L44351 70343
L44295 70230
L44239 70006
L44239 69724
L44295 69499
L44351 69387
L44407 69331
L44520 69274
" />
<path d="M45645 69274
L45757 69274
L45870 69331
L45926 69387
L45982 69499
L46038 69724
L46038 70006
L45982 70230
L45926 70343
L45870 70399
L45757 70455
L45645 70455
L45532 70399
L45476 70343
L45420 70230
L45363 70006
L45363 69724
L45420 69499
L45476 69387
L45532 69331
L45645 69274
" />
<path d="M46544 70455
L46544 69668
" />
<path d="M46544 69781
L46601 69724
L46713 69668
L46882 69668
L46994 69724
L47051 69837
L47051 70455
" />
<path d="M47051 69837
L47107 69724
L47219 69668
L47388 69668
L47501 69724
L47557 69837
L47557 70455
" />
<path d="M48119 70455
L48119 69668
" />
<path d="M48119 69781
L48176 69724
L48288 69668
L48457 69668
L48569 69724
L48625 69837
L48625 70455
" />
<path d="M48625 69837
L48682 69724
L48794 69668
L48963 69668
L49075 69724
L49132 69837
L49132 70455
" />
<path d="M51438 69218
L50425 70737
" />
<path d="M52956 69274
L53069 69274
L53181 69331
L53237 69387
L53294 69499
L53350 69724
L53350 70006
L53294 70230
L53237 70343
L53181 70399
L53069 70455
L52956 70455
L52844 70399
L52787 70343
L52731 70230
L52675 70006
L52675 69724
L52731 69499
L52787 69387
L52844 69331
L52956 69274
" />
<path d="M53856 70343
L53912 70399
L53856 70455
L53800 70399
L53856 70343
L53856 70455
" />
<path d="M55037 70455
L54362 70455
" />
<path d="M54700 70455
L54700 69274
L54587 69443
L54475 69556
L54362 69612
" />
<path d="M56162 70455
L55487 70455
" />
<path d="M55825 70455
L55825 69274
L55712 69443
L55600 69556
L55487 69612
" />
<path d="M56837 69781
L56724 69724
L56668 69668
L56612 69556
L56612 69499
L56668 69387
L56724 69331
L56837 69274
L57062 69274
L57174 69331
L57231 69387
L57287 69499
L57287 69556
L57231 69668
L57174 69724
L57062 69781
L56837 69781
L56724 69837
L56668 69893
L56612 70006
L56612 70230
L56668 70343
L56724 70399
L56837 70455
L57062 70455
L57174 70399
L57231 70343
L57287 70230
L57287 70006
L57231 69893
L57174 69837
L57062 69781
" />
<path d="M57737 69274
L57737 69499
" />
<path d="M58187 69274
L58187 69499
" />
<path d="M59930 70905
L59874 70849
L59762 70680
L59705 70568
L59649 70399
L59593 70118
L59593 69893
L59649 69612
L59705 69443
L59762 69331
L59874 69162
L59930 69106
" />
<path d="M60605 69274
L60718 69274
L60830 69331
L60886 69387
L60943 69499
L60999 69724
L60999 70006
L60943 70230
L60886 70343
L60830 70399
L60718 70455
L60605 70455
L60493 70399
L60437 70343
L60380 70230
L60324 70006
L60324 69724
L60380 69499
L60437 69387
L60493 69331
L60605 69274
" />
<path d="M62405 70455
L62405 69274
" />
<path d="M62911 70455
L62911 69837
L62855 69724
L62742 69668
L62574 69668
L62461 69724
L62405 69781
" />
<path d="M63642 70455
L63530 70399
L63474 70343
L63417 70230
L63417 69893
L63474 69781
L63530 69724
L63642 69668
L63811 69668
L63924 69724
L63980 69781
L64036 69893
L64036 70230
L63980 70343
L63924 70399
L63811 70455
L63642 70455
" />
<path d="M64711 70455
L64598 70399
L64542 70287
L64542 69274
" />
<path d="M65611 70399
L65498 70455
L65273 70455
L65161 70399
L65105 70287
L65105 69837
L65161 69724
L65273 69668
L65498 69668
L65611 69724
L65667 69837
L65667 69949
L65105 70062
" />
<path d="M66117 70399
L66230 70455
L66455 70455
L66567 70399
L66623 70287
L66623 70230
L66567 70118
L66455 70062
L66286 70062
L66173 70006
L66117 69893
L66117 69837
L66173 69724
L66286 69668
L66455 69668
L66567 69724
" />
<path d="M68029 70006
L68929 70006
" />
<path d="M68479 70455
L68479 69556
" />
<path d="M70335 69387
L70392 69331
L70504 69274
L70785 69274
L70898 69331
L70954 69387
L71010 69499
L71010 69612
L70954 69781
L70279 70455
L71010 70455
" />
<path d="M72360 70399
L72473 70455
L72697 70455
L72810 70399
L72866 70287
L72866 70230
L72810 70118
L72697 70062
L72529 70062
L72416 70006
L72360 69893
L72360 69837
L72416 69724
L72529 69668
L72697 69668
L72810 69724
" />
<path d="M73541 70455
L73429 70399
L73372 70287
L73372 69274
" />
<path d="M74160 70455
L74047 70399
L73991 70343
L73935 70230
L73935 69893
L73991 69781
L74047 69724
L74160 69668
L74329 69668
L74441 69724
L74497 69781
L74553 69893
L74553 70230
L74497 70343
L74441 70399
L74329 70455
L74160 70455
" />
<path d="M74891 69668
L75341 69668
" />
<path d="M75060 69274
L75060 70287
L75116 70399
L75228 70455
L75341 70455
" />
<path d="M75678 70399
L75791 70455
L76016 70455
L76128 70399
L76185 70287
L76185 70230
L76128 70118
L76016 70062
L75847 70062
L75735 70006
L75678 69893
L75678 69837
L75735 69724
L75847 69668
L76016 69668
L76128 69724
" />
<path d="M76578 70905
L76634 70849
L76747 70680
L76803 70568
L76859 70399
L76916 70118
L76916 69893
L76859 69612
L76803 69443
L76747 69331
L76634 69162
L76578 69106
" />
<path d="M40850 70984
L40850 72244
" />
<path d="M40220 71614
L41480 71614
" />
<circle cx="40850.4" cy="71614.6" r="629.921" /> 
<path d="M42495 70967
L43226 70967
L42832 71417
L43001 71417
L43114 71473
L43170 71530
L43226 71642
L43226 71923
L43170 72036
L43114 72092
L43001 72148
L42664 72148
L42551 72092
L42495 72036
" />
<path d="M43732 72036
L43789 72092
L43732 72148
L43676 72092
L43732 72036
L43732 72148
" />
<path d="M44239 71080
L44295 71024
L44407 70967
L44688 70967
L44801 71024
L44857 71080
L44913 71192
L44913 71305
L44857 71473
L44182 72148
L44913 72148
" />
<path d="M45645 70967
L45757 70967
L45870 71024
L45926 71080
L45982 71192
L46038 71417
L46038 71698
L45982 71923
L45926 72036
L45870 72092
L45757 72148
L45645 72148
L45532 72092
L45476 72036
L45420 71923
L45363 71698
L45363 71417
L45420 71192
L45476 71080
L45532 71024
L45645 70967
" />
<path d="M46544 72148
L46544 71361
" />
<path d="M46544 71473
L46601 71417
L46713 71361
L46882 71361
L46994 71417
L47051 71530
L47051 72148
" />
<path d="M47051 71530
L47107 71417
L47219 71361
L47388 71361
L47501 71417
L47557 71530
L47557 72148
" />
<path d="M48119 72148
L48119 71361
" />
<path d="M48119 71473
L48176 71417
L48288 71361
L48457 71361
L48569 71417
L48625 71530
L48625 72148
" />
<path d="M48625 71530
L48682 71417
L48794 71361
L48963 71361
L49075 71417
L49132 71530
L49132 72148
" />
<path d="M51438 70911
L50425 72430
" />
<path d="M52956 70967
L53069 70967
L53181 71024
L53237 71080
L53294 71192
L53350 71417
L53350 71698
L53294 71923
L53237 72036
L53181 72092
L53069 72148
L52956 72148
L52844 72092
L52787 72036
L52731 71923
L52675 71698
L52675 71417
L52731 71192
L52787 71080
L52844 71024
L52956 70967
" />
<path d="M53856 72036
L53912 72092
L53856 72148
L53800 72092
L53856 72036
L53856 72148
" />
<path d="M55037 72148
L54362 72148
" />
<path d="M54700 72148
L54700 70967
L54587 71136
L54475 71248
L54362 71305
" />
<path d="M55487 71080
L55543 71024
L55656 70967
L55937 70967
L56050 71024
L56106 71080
L56162 71192
L56162 71305
L56106 71473
L55431 72148
L56162 72148
" />
<path d="M57174 70967
L56949 70967
L56837 71024
L56781 71080
L56668 71248
L56612 71473
L56612 71923
L56668 72036
L56724 72092
L56837 72148
L57062 72148
L57174 72092
L57231 72036
L57287 71923
L57287 71642
L57231 71530
L57174 71473
L57062 71417
L56837 71417
L56724 71473
L56668 71530
L56612 71642
" />
<path d="M57737 70967
L57737 71192
" />
<path d="M58187 70967
L58187 71192
" />
<path d="M59930 72598
L59874 72542
L59762 72373
L59705 72261
L59649 72092
L59593 71811
L59593 71586
L59649 71305
L59705 71136
L59762 71024
L59874 70855
L59930 70799
" />
<path d="M60886 71361
L60886 72148
" />
<path d="M60605 70911
L60324 71755
L61055 71755
" />
<path d="M62405 72148
L62405 70967
" />
<path d="M62911 72148
L62911 71530
L62855 71417
L62742 71361
L62574 71361
L62461 71417
L62405 71473
" />
<path d="M63642 72148
L63530 72092
L63474 72036
L63417 71923
L63417 71586
L63474 71473
L63530 71417
L63642 71361
L63811 71361
L63924 71417
L63980 71473
L64036 71586
L64036 71923
L63980 72036
L63924 72092
L63811 72148
L63642 72148
" />
<path d="M64711 72148
L64598 72092
L64542 71980
L64542 70967
" />
<path d="M65611 72092
L65498 72148
L65273 72148
L65161 72092
L65105 71980
L65105 71530
L65161 71417
L65273 71361
L65498 71361
L65611 71417
L65667 71530
L65667 71642
L65105 71755
" />
<path d="M66117 72092
L66230 72148
L66455 72148
L66567 72092
L66623 71980
L66623 71923
L66567 71811
L66455 71755
L66286 71755
L66173 71698
L66117 71586
L66117 71530
L66173 71417
L66286 71361
L66455 71361
L66567 71417
" />
<path d="M67017 72598
L67073 72542
L67186 72373
L67242 72261
L67298 72092
L67354 71811
L67354 71586
L67298 71305
L67242 71136
L67186 71024
L67073 70855
L67017 70799
" />
</g> 
</svg>
