<?xml version="1.0" standalone="no"?>
 <!DOCTYPE svg PUBLIC "-//W3C//DTD SVG 1.1//EN" 
 "http://www.w3.org/Graphics/SVG/1.1/DTD/svg11.dtd"> 
<svg xmlns="http://www.w3.org/2000/svg" version="1.1" 
    width="29.7002cm" height="21.0007cm" viewBox="0 0 116930 82680 ">
<title>SVG Picture created as Lawo 28x13-F.Cu.svg date 2019/01/29 23:39:52 </title>
  <desc>Picture generated by PCBNEW </desc>
<g style="fill:#000000; fill-opacity:1;stroke:#000000; stroke-opacity:1;
stroke-linecap:round; stroke-linejoin:round; "
 transform="translate(0 0) scale(1 1)">
</g>
<g style="fill:#000000; fill-opacity:0.0; 
stroke:#000000; stroke-width:-0.000393701; stroke-opacity:1; 
stroke-linecap:round; stroke-linejoin:round;">
</g>
<g style="fill:#000000; fill-opacity:0.0; 
stroke:#000000; stroke-width:118.11; stroke-opacity:1; 
stroke-linecap:round; stroke-linejoin:round;">
<path d="M72676 44773
L72676 44435
" />
<path d="M73267 44604
L72676 44604
" />
<path d="M72676 44126
L72676 44014
L72704 43957
L72760 43901
L72873 43873
L73070 43873
L73182 43901
L73239 43957
L73267 44014
L73267 44126
L73239 44182
L73182 44239
L73070 44267
L72873 44267
L72760 44239
L72704 44182
L72676 44126
" />
<path d="M73267 43620
L72676 43620
L72676 43395
L72704 43339
L72732 43311
L72789 43282
L72873 43282
L72929 43311
L72957 43339
L72985 43395
L72985 43620
" />
</g>
<g style="fill:#000000; fill-opacity:1.0; 
stroke:#000000; stroke-width:0; stroke-opacity:1; 
stroke-linecap:round; stroke-linejoin:round;">
<circle cx="57000" cy="39000" r="314.961" /> 
</g>
<g style="fill:#000000; fill-opacity:1.0; 
stroke:#000000; stroke-width:39.3701; stroke-opacity:1; 
stroke-linecap:round; stroke-linejoin:round;">
</g>
<g style="fill:#000000; fill-opacity:1.0; 
stroke:#000000; stroke-width:629.921; stroke-opacity:1; 
stroke-linecap:round; stroke-linejoin:round;">
</g>
<g style="fill:#000000; fill-opacity:0.0; 
stroke:#000000; stroke-width:629.921; stroke-opacity:1; 
stroke-linecap:round; stroke-linejoin:round;">
<path d="M54000 39000
L54000 39000
" />
</g>
<g style="fill:#000000; fill-opacity:0.0; 
stroke:#000000; stroke-width:591; stroke-opacity:1; 
stroke-linecap:round; stroke-linejoin:round;">
<path d="M45000 40862
L45000 41137
" />
<path d="M46000 40862
L46000 41137
" />
<path d="M47000 40862
L47000 41137
" />
<path d="M48000 40862
L48000 41137
" />
<path d="M49000 40862
L49000 41137
" />
<path d="M50000 40862
L50000 41137
" />
<path d="M51000 40862
L51000 41137
" />
<path d="M52000 40862
L52000 41137
" />
<path d="M53000 40862
L53000 41137
" />
<path d="M54000 40862
L54000 41137
" />
<path d="M55000 40862
L55000 41137
" />
<path d="M56000 40862
L56000 41137
" />
<path d="M57000 40862
L57000 41137
" />
<path d="M58000 40862
L58000 41137
" />
<path d="M59000 40862
L59000 41137
" />
<path d="M60000 40862
L60000 41137
" />
<path d="M61000 40862
L61000 41137
" />
<path d="M62000 40862
L62000 41137
" />
<path d="M63000 40862
L63000 41137
" />
<path d="M64000 40862
L64000 41137
" />
<path d="M64000 46862
L64000 47137
" />
<path d="M63000 46862
L63000 47137
" />
<path d="M62000 46862
L62000 47137
" />
<path d="M61000 46862
L61000 47137
" />
<path d="M60000 46862
L60000 47137
" />
<path d="M59000 46862
L59000 47137
" />
<path d="M58000 46862
L58000 47137
" />
<path d="M57000 46862
L57000 47137
" />
<path d="M56000 46862
L56000 47137
" />
<path d="M55000 46862
L55000 47137
" />
<path d="M54000 46862
L54000 47137
" />
<path d="M53000 46862
L53000 47137
" />
<path d="M52000 46862
L52000 47137
" />
<path d="M51000 46862
L51000 47137
" />
<path d="M50000 46862
L50000 47137
" />
<path d="M49000 46862
L49000 47137
" />
<path d="M48000 46862
L48000 47137
" />
<path d="M47000 46862
L47000 47137
" />
<path d="M46000 46862
L46000 47137
" />
<path d="M45000 46862
L45000 47137
" />
</g>
<g style="fill:#000000; fill-opacity:0.0; 
stroke:#000000; stroke-width:0; stroke-opacity:1; 
stroke-linecap:round; stroke-linejoin:round;">
</g>
<g style="fill:#000000; fill-opacity:1.0; 
stroke:#000000; stroke-width:0; stroke-opacity:1; 
stroke-linecap:round; stroke-linejoin:round;">
<polyline style="fill-rule:evenodd;"
points="47047,35762
47834,35762
47834,36550
47047,36550
47047,35762
" /> 
<circle cx="47440.9" cy="38243.3" r="393.701" /> 
</g>
<g style="fill:#000000; fill-opacity:1.0; 
stroke:#000000; stroke-width:39.3701; stroke-opacity:1; 
stroke-linecap:round; stroke-linejoin:round;">
</g>
<g style="fill:#000000; fill-opacity:1.0; 
stroke:#000000; stroke-width:1535.43; stroke-opacity:1; 
stroke-linecap:round; stroke-linejoin:round;">
</g>
<g style="fill:#000000; fill-opacity:0.0; 
stroke:#000000; stroke-width:1535.43; stroke-opacity:1; 
stroke-linecap:round; stroke-linejoin:round;">
<path d="M72346 51288
L73493 51011
" />
<path d="M43653 51288
L42506 51011
" />
</g>
<g style="fill:#000000; fill-opacity:0.0; 
stroke:#000000; stroke-width:590.551; stroke-opacity:1; 
stroke-linecap:round; stroke-linejoin:round;">
<path d="M50000 51696
L50000 51500
" />
<path d="M50000 50500
L50000 50303
" />
<path d="M49000 50500
L49000 50303
" />
<path d="M49000 51696
L49000 51500
" />
<path d="M48000 51696
L48000 51500
" />
<path d="M48000 50500
L48000 50303
" />
<path d="M46000 50500
L46000 50303
" />
<path d="M46000 51696
L46000 51500
" />
<path d="M47000 51696
L47000 51500
" />
<path d="M47000 50500
L47000 50303
" />
<path d="M52000 50500
L52000 50303
" />
<path d="M52000 51696
L52000 51500
" />
<path d="M51000 51696
L51000 51500
" />
<path d="M51000 50500
L51000 50303
" />
<path d="M53000 50500
L53000 50303
" />
<path d="M53000 51696
L53000 51500
" />
<path d="M54000 51696
L54000 51500
" />
<path d="M54000 50500
L54000 50303
" />
<path d="M55000 50500
L55000 50303
" />
<path d="M55000 51696
L55000 51500
" />
<path d="M57000 50500
L57000 50303
" />
<path d="M57000 51696
L57000 51500
" />
<path d="M56000 51696
L56000 51500
" />
<path d="M56000 50500
L56000 50303
" />
<path d="M58000 50500
L58000 50303
" />
<path d="M58000 51696
L58000 51500
" />
<path d="M59000 51696
L59000 51500
" />
<path d="M59000 50500
L59000 50303
" />
<path d="M60000 50500
L60000 50303
" />
<path d="M60000 51696
L60000 51500
" />
<path d="M61000 51696
L61000 51500
" />
<path d="M61000 50500
L61000 50303
" />
<path d="M62000 50500
L62000 50303
" />
<path d="M62000 51696
L62000 51500
" />
<path d="M63000 51696
L63000 51500
" />
<path d="M63000 50500
L63000 50303
" />
<path d="M64000 50500
L64000 50303
" />
<path d="M64000 51696
L64000 51500
" />
<path d="M65000 51696
L65000 51500
" />
<path d="M65000 50500
L65000 50303
" />
<path d="M66000 50500
L66000 50303
" />
<path d="M66000 51696
L66000 51500
" />
<path d="M67000 51696
L67000 51500
" />
<path d="M67000 50500
L67000 50303
" />
</g>
<g style="fill:#000000; fill-opacity:0.0; 
stroke:#000000; stroke-width:0; stroke-opacity:1; 
stroke-linecap:round; stroke-linejoin:round;">
</g>
<g style="fill:#000000; fill-opacity:1.0; 
stroke:#000000; stroke-width:0; stroke-opacity:1; 
stroke-linecap:round; stroke-linejoin:round;">
<polyline style="fill-rule:evenodd;"
points="70295,50007
70295,50795
69704,50795
69704,50007
70295,50007
" /> 
</g>
<g style="fill:#000000; fill-opacity:1.0; 
stroke:#000000; stroke-width:590.551; stroke-opacity:1; 
stroke-linecap:round; stroke-linejoin:round;">
</g>
<g style="fill:#000000; fill-opacity:0.0; 
stroke:#000000; stroke-width:590.551; stroke-opacity:1; 
stroke-linecap:round; stroke-linejoin:round;">
<path d="M70000 51696
L70000 51500
" />
<path d="M69000 50500
L69000 50303
" />
<path d="M69000 51696
L69000 51500
" />
<path d="M68000 50500
L68000 50303
" />
<path d="M68000 51696
L68000 51500
" />
</g>
<g style="fill:#000000; fill-opacity:1.0; 
stroke:#000000; stroke-width:0; stroke-opacity:1; 
stroke-linecap:round; stroke-linejoin:round;">
<circle cx="43000" cy="47500" r="984.252" /> 
</g>
<g style="fill:#000000; fill-opacity:1.0; 
stroke:#000000; stroke-width:39.3701; stroke-opacity:1; 
stroke-linecap:round; stroke-linejoin:round;">
</g>
<g style="fill:#000000; fill-opacity:1.0; 
stroke:#000000; stroke-width:0; stroke-opacity:1; 
stroke-linecap:round; stroke-linejoin:round;">
<circle cx="73000" cy="40500" r="984.252" /> 
</g>
<g style="fill:#000000; fill-opacity:1.0; 
stroke:#000000; stroke-width:39.3701; stroke-opacity:1; 
stroke-linecap:round; stroke-linejoin:round;">
</g>
<g style="fill:#000000; fill-opacity:1.0; 
stroke:#000000; stroke-width:0; stroke-opacity:1; 
stroke-linecap:round; stroke-linejoin:round;">
<circle cx="73000" cy="47500" r="984.252" /> 
</g>
<g style="fill:#000000; fill-opacity:1.0; 
stroke:#000000; stroke-width:39.3701; stroke-opacity:1; 
stroke-linecap:round; stroke-linejoin:round;">
</g>
<g style="fill:#000000; fill-opacity:1.0; 
stroke:#000000; stroke-width:0; stroke-opacity:1; 
stroke-linecap:round; stroke-linejoin:round;">
<circle cx="43000" cy="40500" r="984.252" /> 
</g>
<g style="fill:#000000; fill-opacity:1.0; 
stroke:#000000; stroke-width:39.3701; stroke-opacity:1; 
stroke-linecap:round; stroke-linejoin:round;">
</g>
<g style="fill:#000000; fill-opacity:1.0; 
stroke:#000000; stroke-width:0; stroke-opacity:1; 
stroke-linecap:round; stroke-linejoin:round;">
<polyline style="fill-rule:evenodd;"
points="44311,38052
45689,38052
45689,39430
44311,39430
44311,38052
" /> 
<polyline style="fill-rule:evenodd;"
points="44311,35690
45689,35690
45689,37068
44311,37068
44311,35690
" /> 
<polyline style="fill-rule:evenodd;"
points="42461,36871
43839,36871
43839,38249
42461,38249
42461,36871
" /> 
<circle cx="59000" cy="38500" r="314.961" /> 
</g>
<g style="fill:#000000; fill-opacity:1.0; 
stroke:#000000; stroke-width:39.3701; stroke-opacity:1; 
stroke-linecap:round; stroke-linejoin:round;">
</g>
<g style="fill:#000000; fill-opacity:1.0; 
stroke:#000000; stroke-width:0; stroke-opacity:1; 
stroke-linecap:round; stroke-linejoin:round;">
<circle cx="59984.3" cy="38500" r="314.961" /> 
</g>
<g style="fill:#000000; fill-opacity:1.0; 
stroke:#000000; stroke-width:39.3701; stroke-opacity:1; 
stroke-linecap:round; stroke-linejoin:round;">
</g>
<g style="fill:#000000; fill-opacity:1.0; 
stroke:#000000; stroke-width:0; stroke-opacity:1; 
stroke-linecap:round; stroke-linejoin:round;">
<circle cx="69000" cy="39015.7" r="314.961" /> 
</g>
<g style="fill:#000000; fill-opacity:1.0; 
stroke:#000000; stroke-width:39.3701; stroke-opacity:1; 
stroke-linecap:round; stroke-linejoin:round;">
</g>
<g style="fill:#000000; fill-opacity:1.0; 
stroke:#000000; stroke-width:0; stroke-opacity:1; 
stroke-linecap:round; stroke-linejoin:round;">
<polyline style="fill-rule:evenodd;"
points="69314,40314
68685,40314
68685,39685
69314,39685
69314,40314
" /> 
<circle cx="62984.3" cy="48400" r="314.961" /> 
</g>
<g style="fill:#000000; fill-opacity:1.0; 
stroke:#000000; stroke-width:39.3701; stroke-opacity:1; 
stroke-linecap:round; stroke-linejoin:round;">
</g>
<g style="fill:#000000; fill-opacity:1.0; 
stroke:#000000; stroke-width:0; stroke-opacity:1; 
stroke-linecap:round; stroke-linejoin:round;">
<circle cx="62000" cy="48400" r="314.961" /> 
</g>
<g style="fill:#000000; fill-opacity:1.0; 
stroke:#000000; stroke-width:39.3701; stroke-opacity:1; 
stroke-linecap:round; stroke-linejoin:round;">
</g>
<g style="fill:#000000; fill-opacity:1.0; 
stroke:#000000; stroke-width:669.291; stroke-opacity:1; 
stroke-linecap:round; stroke-linejoin:round;">
</g>
<g style="fill:#000000; fill-opacity:0.0; 
stroke:#000000; stroke-width:669.291; stroke-opacity:1; 
stroke-linecap:round; stroke-linejoin:round;">
<path d="M73000 37025
L73000 37025
" />
<path d="M72000 37025
L72000 37025
" />
<path d="M71000 37025
L71000 37025
" />
<path d="M70000 37025
L70000 37025
" />
<path d="M69000 37025
L69000 37025
" />
<path d="M68000 37025
L68000 37025
" />
<path d="M67000 37025
L67000 37025
" />
<path d="M66000 37025
L66000 37025
" />
<path d="M65000 37025
L65000 37025
" />
<path d="M64000 37025
L64000 37025
" />
<path d="M63000 37025
L63000 37025
" />
<path d="M62000 37025
L62000 37025
" />
<path d="M61000 37025
L61000 37025
" />
<path d="M60000 37025
L60000 37025
" />
<path d="M59000 37025
L59000 37025
" />
<path d="M58000 37025
L58000 37025
" />
<path d="M57000 37025
L57000 37025
" />
</g>
<g style="fill:#000000; fill-opacity:0.0; 
stroke:#000000; stroke-width:0; stroke-opacity:1; 
stroke-linecap:round; stroke-linejoin:round;">
</g>
<g style="fill:#000000; fill-opacity:1.0; 
stroke:#000000; stroke-width:0; stroke-opacity:1; 
stroke-linecap:round; stroke-linejoin:round;">
<polyline style="fill-rule:evenodd;"
points="56334,37359
55665,37359
55665,36690
56334,36690
56334,37359
" /> 
<circle cx="54400" cy="37000" r="354.331" /> 
</g>
<g style="fill:#000000; fill-opacity:1.0; 
stroke:#000000; stroke-width:39.3701; stroke-opacity:1; 
stroke-linecap:round; stroke-linejoin:round;">
</g>
<g style="fill:#000000; fill-opacity:1.0; 
stroke:#000000; stroke-width:0; stroke-opacity:1; 
stroke-linecap:round; stroke-linejoin:round;">
<polyline style="fill-rule:evenodd;"
points="53045,37354
53045,36645
53754,36645
53754,37354
53045,37354
" /> 
</g>
<g style="fill:#000000; fill-opacity:1.0; 
stroke:#000000; stroke-width:629.921; stroke-opacity:1; 
stroke-linecap:round; stroke-linejoin:round;">
</g>
<g style="fill:#000000; fill-opacity:0.0; 
stroke:#000000; stroke-width:629.921; stroke-opacity:1; 
stroke-linecap:round; stroke-linejoin:round;">
<path d="M64000 38500
L64000 38500
" />
</g>
<g style="fill:#000000; fill-opacity:1.0; 
stroke:#000000; stroke-width:0; stroke-opacity:1; 
stroke-linecap:round; stroke-linejoin:round;">
<circle cx="61000" cy="38500" r="314.961" /> 
</g>
<g style="fill:#000000; fill-opacity:1.0; 
stroke:#000000; stroke-width:39.3701; stroke-opacity:1; 
stroke-linecap:round; stroke-linejoin:round;">
</g>
<g style="fill:#000000; fill-opacity:1.0; 
stroke:#000000; stroke-width:590.551; stroke-opacity:1; 
stroke-linecap:round; stroke-linejoin:round;">
</g>
<g style="fill:#000000; fill-opacity:0.0; 
stroke:#000000; stroke-width:590.551; stroke-opacity:1; 
stroke-linecap:round; stroke-linejoin:round;">
<path d="M68000 42338
L68000 41944
" />
<path d="M69000 42338
L69000 41944
" />
</g>
<g style="fill:#000000; fill-opacity:0.0; 
stroke:#000000; stroke-width:0; stroke-opacity:1; 
stroke-linecap:round; stroke-linejoin:round;">
</g>
<g style="fill:#000000; fill-opacity:1.0; 
stroke:#000000; stroke-width:0; stroke-opacity:1; 
stroke-linecap:round; stroke-linejoin:round;">
<polyline style="fill-rule:evenodd;"
points="70295,41649
70295,42633
69704,42633
69704,41649
70295,41649
" /> 
<circle cx="63000" cy="42100" r="118.11" /> 
</g>
<g style="fill:#000000; fill-opacity:1.0; 
stroke:#000000; stroke-width:39.3701; stroke-opacity:1; 
stroke-linecap:round; stroke-linejoin:round;">
</g>
<g style="fill:#000000; fill-opacity:1.0; 
stroke:#000000; stroke-width:0; stroke-opacity:1; 
stroke-linecap:round; stroke-linejoin:round;">
<circle cx="62000" cy="42100" r="118.11" /> 
</g>
<g style="fill:#000000; fill-opacity:1.0; 
stroke:#000000; stroke-width:39.3701; stroke-opacity:1; 
stroke-linecap:round; stroke-linejoin:round;">
</g>
<g style="fill:#000000; fill-opacity:1.0; 
stroke:#000000; stroke-width:0; stroke-opacity:1; 
stroke-linecap:round; stroke-linejoin:round;">
<circle cx="60000" cy="42100" r="118.11" /> 
</g>
<g style="fill:#000000; fill-opacity:1.0; 
stroke:#000000; stroke-width:39.3701; stroke-opacity:1; 
stroke-linecap:round; stroke-linejoin:round;">
</g>
<g style="fill:#000000; fill-opacity:1.0; 
stroke:#000000; stroke-width:0; stroke-opacity:1; 
stroke-linecap:round; stroke-linejoin:round;">
<circle cx="69000" cy="49300" r="118.11" /> 
</g>
<g style="fill:#000000; fill-opacity:1.0; 
stroke:#000000; stroke-width:39.3701; stroke-opacity:1; 
stroke-linecap:round; stroke-linejoin:round;">
</g>
<g style="fill:#000000; fill-opacity:1.0; 
stroke:#000000; stroke-width:0; stroke-opacity:1; 
stroke-linecap:round; stroke-linejoin:round;">
<circle cx="54500" cy="48050" r="118.11" /> 
</g>
<g style="fill:#000000; fill-opacity:1.0; 
stroke:#000000; stroke-width:39.3701; stroke-opacity:1; 
stroke-linecap:round; stroke-linejoin:round;">
</g>
<g style="fill:#000000; fill-opacity:1.0; 
stroke:#000000; stroke-width:0; stroke-opacity:1; 
stroke-linecap:round; stroke-linejoin:round;">
<circle cx="53000" cy="49600" r="118.11" /> 
</g>
<g style="fill:#000000; fill-opacity:1.0; 
stroke:#000000; stroke-width:39.3701; stroke-opacity:1; 
stroke-linecap:round; stroke-linejoin:round;">
</g>
<g style="fill:#000000; fill-opacity:1.0; 
stroke:#000000; stroke-width:0; stroke-opacity:1; 
stroke-linecap:round; stroke-linejoin:round;">
<circle cx="53000" cy="47875" r="118.11" /> 
</g>
<g style="fill:#000000; fill-opacity:1.0; 
stroke:#000000; stroke-width:39.3701; stroke-opacity:1; 
stroke-linecap:round; stroke-linejoin:round;">
</g>
<g style="fill:#000000; fill-opacity:1.0; 
stroke:#000000; stroke-width:0; stroke-opacity:1; 
stroke-linecap:round; stroke-linejoin:round;">
<circle cx="54500" cy="49600" r="118.11" /> 
</g>
<g style="fill:#000000; fill-opacity:1.0; 
stroke:#000000; stroke-width:39.3701; stroke-opacity:1; 
stroke-linecap:round; stroke-linejoin:round;">
</g>
<g style="fill:#000000; fill-opacity:1.0; 
stroke:#000000; stroke-width:0; stroke-opacity:1; 
stroke-linecap:round; stroke-linejoin:round;">
<circle cx="56450" cy="52450" r="118.11" /> 
</g>
<g style="fill:#000000; fill-opacity:1.0; 
stroke:#000000; stroke-width:39.3701; stroke-opacity:1; 
stroke-linecap:round; stroke-linejoin:round;">
</g>
<g style="fill:#000000; fill-opacity:1.0; 
stroke:#000000; stroke-width:0; stroke-opacity:1; 
stroke-linecap:round; stroke-linejoin:round;">
<circle cx="49000" cy="48800" r="118.11" /> 
</g>
<g style="fill:#000000; fill-opacity:1.0; 
stroke:#000000; stroke-width:39.3701; stroke-opacity:1; 
stroke-linecap:round; stroke-linejoin:round;">
</g>
<g style="fill:#000000; fill-opacity:1.0; 
stroke:#000000; stroke-width:0; stroke-opacity:1; 
stroke-linecap:round; stroke-linejoin:round;">
<circle cx="65000" cy="38500" r="118.11" /> 
</g>
<g style="fill:#000000; fill-opacity:1.0; 
stroke:#000000; stroke-width:39.3701; stroke-opacity:1; 
stroke-linecap:round; stroke-linejoin:round;">
</g>
<g style="fill:#000000; fill-opacity:1.0; 
stroke:#000000; stroke-width:0; stroke-opacity:1; 
stroke-linecap:round; stroke-linejoin:round;">
<circle cx="63000" cy="45900" r="118.11" /> 
</g>
<g style="fill:#000000; fill-opacity:1.0; 
stroke:#000000; stroke-width:39.3701; stroke-opacity:1; 
stroke-linecap:round; stroke-linejoin:round;">
</g>
<g style="fill:#000000; fill-opacity:1.0; 
stroke:#000000; stroke-width:0; stroke-opacity:1; 
stroke-linecap:round; stroke-linejoin:round;">
<circle cx="55000" cy="42100" r="118.11" /> 
</g>
<g style="fill:#000000; fill-opacity:1.0; 
stroke:#000000; stroke-width:39.3701; stroke-opacity:1; 
stroke-linecap:round; stroke-linejoin:round;">
</g>
<g style="fill:#000000; fill-opacity:1.0; 
stroke:#000000; stroke-width:0; stroke-opacity:1; 
stroke-linecap:round; stroke-linejoin:round;">
<circle cx="48000" cy="48050" r="118.11" /> 
</g>
<g style="fill:#000000; fill-opacity:1.0; 
stroke:#000000; stroke-width:39.3701; stroke-opacity:1; 
stroke-linecap:round; stroke-linejoin:round;">
</g>
<g style="fill:#000000; fill-opacity:1.0; 
stroke:#000000; stroke-width:0; stroke-opacity:1; 
stroke-linecap:round; stroke-linejoin:round;">
<circle cx="64850" cy="45900" r="118.11" /> 
</g>
<g style="fill:#000000; fill-opacity:1.0; 
stroke:#000000; stroke-width:39.3701; stroke-opacity:1; 
stroke-linecap:round; stroke-linejoin:round;">
</g>
<g style="fill:#000000; fill-opacity:1.0; 
stroke:#000000; stroke-width:0; stroke-opacity:1; 
stroke-linecap:round; stroke-linejoin:round;">
<circle cx="64850" cy="42100" r="118.11" /> 
</g>
<g style="fill:#000000; fill-opacity:1.0; 
stroke:#000000; stroke-width:39.3701; stroke-opacity:1; 
stroke-linecap:round; stroke-linejoin:round;">
</g>
<g style="fill:#000000; fill-opacity:1.0; 
stroke:#000000; stroke-width:0; stroke-opacity:1; 
stroke-linecap:round; stroke-linejoin:round;">
<circle cx="66000" cy="41000" r="118.11" /> 
</g>
<g style="fill:#000000; fill-opacity:1.0; 
stroke:#000000; stroke-width:39.3701; stroke-opacity:1; 
stroke-linecap:round; stroke-linejoin:round;">
</g>
<g style="fill:#000000; fill-opacity:1.0; 
stroke:#000000; stroke-width:0; stroke-opacity:1; 
stroke-linecap:round; stroke-linejoin:round;">
<circle cx="46000" cy="45800" r="118.11" /> 
</g>
<g style="fill:#000000; fill-opacity:1.0; 
stroke:#000000; stroke-width:39.3701; stroke-opacity:1; 
stroke-linecap:round; stroke-linejoin:round;">
</g>
<g style="fill:#000000; fill-opacity:1.0; 
stroke:#000000; stroke-width:0; stroke-opacity:1; 
stroke-linecap:round; stroke-linejoin:round;">
<circle cx="60000" cy="45900" r="118.11" /> 
</g>
<g style="fill:#000000; fill-opacity:1.0; 
stroke:#000000; stroke-width:39.3701; stroke-opacity:1; 
stroke-linecap:round; stroke-linejoin:round;">
</g>
<g style="fill:#000000; fill-opacity:1.0; 
stroke:#000000; stroke-width:0; stroke-opacity:1; 
stroke-linecap:round; stroke-linejoin:round;">
<circle cx="56500" cy="42100" r="118.11" /> 
</g>
<g style="fill:#000000; fill-opacity:1.0; 
stroke:#000000; stroke-width:39.3701; stroke-opacity:1; 
stroke-linecap:round; stroke-linejoin:round;">
</g>
<g style="fill:#000000; fill-opacity:1.0; 
stroke:#000000; stroke-width:0; stroke-opacity:1; 
stroke-linecap:round; stroke-linejoin:round;">
<circle cx="57500" cy="42100" r="118.11" /> 
</g>
<g style="fill:#000000; fill-opacity:1.0; 
stroke:#000000; stroke-width:39.3701; stroke-opacity:1; 
stroke-linecap:round; stroke-linejoin:round;">
</g>
<g style="fill:#000000; fill-opacity:1.0; 
stroke:#000000; stroke-width:0; stroke-opacity:1; 
stroke-linecap:round; stroke-linejoin:round;">
<circle cx="58500" cy="42100" r="118.11" /> 
</g>
<g style="fill:#000000; fill-opacity:1.0; 
stroke:#000000; stroke-width:39.3701; stroke-opacity:1; 
stroke-linecap:round; stroke-linejoin:round;">
</g>
<g style="fill:#000000; fill-opacity:1.0; 
stroke:#000000; stroke-width:0; stroke-opacity:1; 
stroke-linecap:round; stroke-linejoin:round;">
<circle cx="69000" cy="41000" r="118.11" /> 
</g>
<g style="fill:#000000; fill-opacity:1.0; 
stroke:#000000; stroke-width:39.3701; stroke-opacity:1; 
stroke-linecap:round; stroke-linejoin:round;">
</g>
<g style="fill:#000000; fill-opacity:1.0; 
stroke:#000000; stroke-width:0; stroke-opacity:1; 
stroke-linecap:round; stroke-linejoin:round;">
<circle cx="50000" cy="44000" r="118.11" /> 
</g>
<g style="fill:#000000; fill-opacity:1.0; 
stroke:#000000; stroke-width:39.3701; stroke-opacity:1; 
stroke-linecap:round; stroke-linejoin:round;">
</g>
<g style="fill:#000000; fill-opacity:1.0; 
stroke:#000000; stroke-width:0; stroke-opacity:1; 
stroke-linecap:round; stroke-linejoin:round;">
<circle cx="48000" cy="44000" r="118.11" /> 
</g>
<g style="fill:#000000; fill-opacity:1.0; 
stroke:#000000; stroke-width:39.3701; stroke-opacity:1; 
stroke-linecap:round; stroke-linejoin:round;">
</g>
<g style="fill:#000000; fill-opacity:1.0; 
stroke:#000000; stroke-width:0; stroke-opacity:1; 
stroke-linecap:round; stroke-linejoin:round;">
<circle cx="46000" cy="42100" r="118.11" /> 
</g>
<g style="fill:#000000; fill-opacity:1.0; 
stroke:#000000; stroke-width:39.3701; stroke-opacity:1; 
stroke-linecap:round; stroke-linejoin:round;">
</g>
<g style="fill:#000000; fill-opacity:1.0; 
stroke:#000000; stroke-width:0; stroke-opacity:1; 
stroke-linecap:round; stroke-linejoin:round;">
<circle cx="66000" cy="45900" r="118.11" /> 
</g>
<g style="fill:#000000; fill-opacity:1.0; 
stroke:#000000; stroke-width:39.3701; stroke-opacity:1; 
stroke-linecap:round; stroke-linejoin:round;">
</g>
<g style="fill:#000000; fill-opacity:1.0; 
stroke:#000000; stroke-width:0; stroke-opacity:1; 
stroke-linecap:round; stroke-linejoin:round;">
<circle cx="69000" cy="45900" r="118.11" /> 
</g>
<g style="fill:#000000; fill-opacity:1.0; 
stroke:#000000; stroke-width:39.3701; stroke-opacity:1; 
stroke-linecap:round; stroke-linejoin:round;">
</g>
<g style="fill:#000000; fill-opacity:1.0; 
stroke:#000000; stroke-width:0; stroke-opacity:1; 
stroke-linecap:round; stroke-linejoin:round;">
<circle cx="58500" cy="37750" r="118.11" /> 
</g>
<g style="fill:#000000; fill-opacity:1.0; 
stroke:#000000; stroke-width:39.3701; stroke-opacity:1; 
stroke-linecap:round; stroke-linejoin:round;">
</g>
<g style="fill:#000000; fill-opacity:1.0; 
stroke:#000000; stroke-width:0; stroke-opacity:1; 
stroke-linecap:round; stroke-linejoin:round;">
<circle cx="60500" cy="37750" r="118.11" /> 
</g>
<g style="fill:#000000; fill-opacity:1.0; 
stroke:#000000; stroke-width:39.3701; stroke-opacity:1; 
stroke-linecap:round; stroke-linejoin:round;">
</g>
<g style="fill:#000000; fill-opacity:1.0; 
stroke:#000000; stroke-width:0; stroke-opacity:1; 
stroke-linecap:round; stroke-linejoin:round;">
<circle cx="66000" cy="38500" r="118.11" /> 
</g>
<g style="fill:#000000; fill-opacity:1.0; 
stroke:#000000; stroke-width:39.3701; stroke-opacity:1; 
stroke-linecap:round; stroke-linejoin:round;">
</g>
<g style="fill:#000000; fill-opacity:1.0; 
stroke:#000000; stroke-width:0; stroke-opacity:1; 
stroke-linecap:round; stroke-linejoin:round;">
<circle cx="67650" cy="39468.5" r="216.535" /> 
</g>
<g style="fill:#000000; fill-opacity:1.0; 
stroke:#000000; stroke-width:39.3701; stroke-opacity:1; 
stroke-linecap:round; stroke-linejoin:round;">
</g>
<g style="fill:#000000; fill-opacity:1.0; 
stroke:#000000; stroke-width:0; stroke-opacity:1; 
stroke-linecap:round; stroke-linejoin:round;">
<circle cx="46500" cy="48250" r="118.11" /> 
</g>
<g style="fill:#000000; fill-opacity:1.0; 
stroke:#000000; stroke-width:39.3701; stroke-opacity:1; 
stroke-linecap:round; stroke-linejoin:round;">
</g>
<g style="fill:#000000; fill-opacity:1.0; 
stroke:#000000; stroke-width:0; stroke-opacity:1; 
stroke-linecap:round; stroke-linejoin:round;">
<circle cx="55600" cy="44100" r="118.11" /> 
</g>
<g style="fill:#000000; fill-opacity:1.0; 
stroke:#000000; stroke-width:39.3701; stroke-opacity:1; 
stroke-linecap:round; stroke-linejoin:round;">
</g>
<g style="fill:#000000; fill-opacity:1.0; 
stroke:#000000; stroke-width:0; stroke-opacity:1; 
stroke-linecap:round; stroke-linejoin:round;">
<circle cx="46800" cy="45900" r="118.11" /> 
</g>
<g style="fill:#000000; fill-opacity:1.0; 
stroke:#000000; stroke-width:39.3701; stroke-opacity:1; 
stroke-linecap:round; stroke-linejoin:round;">
</g>
<g style="fill:#000000; fill-opacity:1.0; 
stroke:#000000; stroke-width:393.701; stroke-opacity:1; 
stroke-linecap:round; stroke-linejoin:round;">
</g>
<g style="fill:#000000; fill-opacity:0.0; 
stroke:#000000; stroke-width:393.701; stroke-opacity:1; 
stroke-linecap:round; stroke-linejoin:round;">
<path d="M62000 50500
L62000 51500
" />
<path d="M69000 51500
L69000 50500
" />
<path d="M69000 51500
L69000 52300
" />
<path d="M69000 50500
L69000 49800
" />
<path d="M62000 50500
L62000 49900
" />
<path d="M62000 51500
L62000 52100
" />
<path d="M51000 47000
L51000 46350
" />
<path d="M51000 47000
L51000 47600
" />
<path d="M60000 41000
L60000 41600
" />
<path d="M70000 50500
L70000 51500
" />
<path d="M70000 41100
L68900 40000
" />
<path d="M50000 41000
L50000 40802
" />
<path d="M49197 40000
L47440 38243
" />
<path d="M50000 40802
L49197 40000
" />
<path d="M69000 40000
L67438 40000
" />
<path d="M67438 40000
L49197 40000
" />
<path d="M70000 41100
L70000 42141
" />
<path d="M68000 50500
L68000 51500
" />
<path d="M61000 47400
L62000 48400
" />
<path d="M61000 47000
L61000 47400
" />
<path d="M61000 46862
L65721 42141
" />
<path d="M65721 42141
L68000 42141
" />
<path d="M61000 47000
L61000 46862
" />
<path d="M67343 39468
L67650 39468
" />
<path d="M58643 39468
L67343 39468
" />
<path d="M57000 37025
L57000 37825
" />
<path d="M57575 38425
L57600 38425
" />
<path d="M57000 39000
L57575 38425
" />
<path d="M57600 38425
L58643 39468
" />
<path d="M57000 37825
L57600 38425
" />
</g>
<g style="fill:#000000; fill-opacity:0.0; 
stroke:#000000; stroke-width:196.85; stroke-opacity:1; 
stroke-linecap:round; stroke-linejoin:round;">
<path d="M51472 50695
L51140 51027
" />
<path d="M51472 50107
L51472 50695
" />
<path d="M55999 44195
L53505 46689
" />
<path d="M53505 46689
L53505 48074
" />
<path d="M50772 51027
L50300 51500
" />
<path d="M56000 41000
L56000 44195
" />
<path d="M53505 48074
L51472 50107
" />
<path d="M50300 51500
L50000 51500
" />
<path d="M56000 44195
L55999 44195
" />
<path d="M51140 51027
L50772 51027
" />
<path d="M49472 51027
L49000 51500
" />
<path d="M49472 50162
L49472 51027
" />
<path d="M52472 45727
L52472 47827
" />
<path d="M51100 49200
L50435 49200
" />
<path d="M52472 47827
L51100 49200
" />
<path d="M54000 44200
L52472 45727
" />
<path d="M50435 49200
L49472 50162
" />
<path d="M54000 41000
L54000 44200
" />
<path d="M52000 47000
L52000 47137
" />
<path d="M49000 50137
L49000 50500
" />
<path d="M49000 50245
L50345 48900
" />
<path d="M49000 50500
L49000 50245
" />
<path d="M50345 48900
L51000 48900
" />
<path d="M52000 47900
L52000 47000
" />
<path d="M51000 48900
L52000 47900
" />
<path d="M52300 51500
L52000 51500
" />
<path d="M52772 51027
L52300 51500
" />
<path d="M53527 50640
L53140 51027
" />
<path d="M53527 49972
L53527 50640
" />
<path d="M58000 44194
L55495 46699
" />
<path d="M55495 46699
L55495 48005
" />
<path d="M55495 48005
L53527 49972
" />
<path d="M53140 51027
L52772 51027
" />
<path d="M58000 41000
L58000 44194
" />
<path d="M51000 50137
L51000 50500
" />
<path d="M48000 47000
L48000 47137
" />
<path d="M57000 44195
L57000 41000
" />
<path d="M54804 46389
L54805 46389
" />
<path d="M54527 46667
L54527 46666
" />
<path d="M54500 46695
L54527 46667
" />
<path d="M54500 47469
L54500 46695
" />
<path d="M52527 49442
L54500 47469
" />
<path d="M52527 50695
L52527 49442
" />
<path d="M52250 50972
L52527 50695
" />
<path d="M51827 50972
L52250 50972
" />
<path d="M51300 51500
L51827 50972
" />
<path d="M54527 46666
L54804 46389
" />
<path d="M54805 46389
L57000 44195
" />
<path d="M51000 51500
L51300 51500
" />
<path d="M56490 47899
L56490 46704
" />
<path d="M55527 50640
L55527 48862
" />
<path d="M55195 50972
L55527 50640
" />
<path d="M59000 41629
L59000 41000
" />
<path d="M55527 48862
L56490 47899
" />
<path d="M53827 50972
L55195 50972
" />
<path d="M53300 51500
L53827 50972
" />
<path d="M59000 44194
L59000 41629
" />
<path d="M56490 46704
L59000 44194
" />
<path d="M53000 51500
L53300 51500
" />
<path d="M48804 52169
L53330 52169
" />
<path d="M53330 52169
L54000 51500
" />
<path d="M48527 51892
L48804 52169
" />
<path d="M48527 44472
L48527 51892
" />
<path d="M52000 41000
L48527 44472
" />
<path d="M55000 49000
L55000 50500
" />
<path d="M56000 48000
L55000 49000
" />
<path d="M56000 47000
L56000 48000
" />
<path d="M45000 42000
L45000 41629
" />
<path d="M47472 44472
L45000 42000
" />
<path d="M45000 41629
L45000 41000
" />
<path d="M56864 51500
L55920 52444
" />
<path d="M47472 51837
L47472 44472
" />
<path d="M48079 52444
L47472 51837
" />
<path d="M55920 52444
L48079 52444
" />
<path d="M57000 51500
L56864 51500
" />
<path d="M57000 47000
L57000 50500
" />
<path d="M58000 47000
L58000 50500
" />
<path d="M59000 47000
L59000 50500
" />
<path d="M60000 47000
L60000 50500
" />
</g>
<g style="fill:#000000; fill-opacity:0.0; 
stroke:#000000; stroke-width:157.48; stroke-opacity:1; 
stroke-linecap:round; stroke-linejoin:round;">
<path d="M70791 42508
L63000 50300
" />
<path d="M70791 37791
L70791 42508
" />
<path d="M70025 37025
L70791 37791
" />
<path d="M63000 50300
L63000 50500
" />
<path d="M70000 37025
L70025 37025
" />
<path d="M64000 51500
L63500 51000
" />
<path d="M63500 51000
L63500 50134
" />
<path d="M63500 50134
L71027 42606
" />
<path d="M71027 42606
L71027 37027
" />
<path d="M71027 37027
L71000 37000
" />
<path d="M65000 49302
L65000 50500
" />
<path d="M71500 38500
L71500 42802
" />
<path d="M71500 42802
L65000 49302
" />
<path d="M73000 37000
L71500 38500
" />
<path d="M72000 37100
L72000 37000
" />
<path d="M71263 37836
L72000 37100
" />
<path d="M71263 42704
L71263 37836
" />
<path d="M64500 51000
L64500 49468
" />
<path d="M64500 49468
L71263 42704
" />
<path d="M65000 51500
L64500 51000
" />
</g>
<g style="fill:#000000; fill-opacity:0.0; 
stroke:#000000; stroke-width:393.701; stroke-opacity:1; 
stroke-linecap:round; stroke-linejoin:round;">
<path d="M54400 38600
L54400 37000
" />
<path d="M54000 39000
L54400 38600
" />
<path d="M45000 38740
L45156 38740
" />
<path d="M45156 38740
L45256 38740
" />
<path d="M45000 38740
L45156 38740
" />
<path d="M45000 38740
L45000 38597
" />
<path d="M45000 38597
L47440 36156
" />
<path d="M58000 37000
L58000 36600
" />
<path d="M58000 36600
L57556 36156
" />
<path d="M57556 36156
L47440 36156
" />
</g>
<g style="fill:#000000; fill-opacity:0.0; 
stroke:#000000; stroke-width:196.85; stroke-opacity:1; 
stroke-linecap:round; stroke-linejoin:round;">
<path d="M53000 46705
L53000 47000
" />
<path d="M55600 44105
L53000 46705
" />
<path d="M55600 44100
L55600 44105
" />
<path d="M46681 46018
L46800 45900
" />
<path d="M46500 46200
L46681 46018
" />
<path d="M46500 48250
L46500 46200
" />
</g>
<g style="fill:#000000; fill-opacity:1.0; 
stroke:#000000; stroke-width:100; stroke-opacity:1; 
stroke-linecap:round; stroke-linejoin:round;">
<polyline style="fill-rule:evenodd;"
points="74077,34987
74145,35026
74195,35086
74226,35172
74230,35211
74230,50305
74034,50125
73654,49985
73352,49998
72009,50323
71734,50450
71460,50748
71320,51128
71337,51532
71507,51900
71805,52174
72185,52314
72487,52301
73830,51976
74105,51849
74230,51713
74230,53126
74212,53227
74173,53295
74113,53345
74027,53376
73988,53380
42023,53380
41922,53362
41854,53323
41804,53263
41773,53177
41769,53138
41769,51713
41894,51849
42169,51976
43512,52301
43814,52314
44194,52174
44492,51900
44662,51532
44679,51128
44539,50748
44265,50450
43990,50323
42647,49998
42345,49985
41965,50125
41769,50305
41769,37672
42211,37672
42211,38298
42249,38390
42319,38460
42411,38499
43037,38499
43100,38436
43100,37610
43200,37610
43200,38436
43262,38499
43888,38499
43980,38460
44050,38390
44056,38378
44056,39430
44075,39527
44130,39610
44213,39665
44311,39684
45689,39684
45786,39665
45869,39610
45924,39527
45943,39430
45943,38285
47117,37112
52795,37112
52795,37404
52833,37495
52904,37566
52995,37604
53287,37604
53350,37541
53350,37050
52858,37050
52795,37112
47117,37112
47424,36805
47834,36805
47932,36785
48014,36730
48070,36647
48078,36603
52795,36603
52795,36887
52858,36950
53350,36950
53350,36942
53450,36942
53450,36950
53457,36950
53457,37050
53450,37050
53450,37541
53512,37604
53804,37604
53895,37566
53953,37509
53953,38414
53930,38437
53779,38467
53592,38592
53467,38779
53423,39000
53467,39220
53592,39407
53779,39532
53884,39553
49382,39553
48084,38255
48084,38115
47986,37878
47805,37697
47568,37599
47312,37599
47076,37697
46895,37878
46797,38115
46797,38371
46895,38607
47076,38789
47312,38887
47452,38887
48850,40284
48875,40322
48885,40329
48787,40348
48606,40469
48500,40628
48393,40469
48212,40348
48000,40306
47787,40348
47606,40469
47500,40628
47393,40469
47212,40348
47000,40306
46787,40348
46606,40469
46500,40628
46393,40469
46212,40348
46000,40306
45787,40348
45606,40469
45500,40628
45393,40469
45212,40348
45000,40306
44787,40348
44606,40469
44486,40649
44454,40808
44454,41191
44486,41350
44606,41530
44651,41560
44651,41664
44651,41664
44651,41965
44644,42000
44651,42034
44651,42034
44671,42135
44748,42251
44777,42270
47124,44616
47124,45720
47112,45691
47008,45587
46873,45531
46726,45531
46591,45587
46487,45691
46468,45739
46277,45929
46248,45948
46229,45977
46229,45977
46171,46064
46144,46200
46151,46234
46151,46336
46000,46306
45787,46348
45606,46469
45500,46628
45393,46469
45212,46348
45000,46306
44787,46348
44606,46469
44486,46649
44454,46808
44454,47191
44486,47350
44606,47530
44787,47651
45000,47693
45212,47651
45393,47530
45500,47371
45606,47530
45787,47651
46000,47693
46151,47663
46151,48129
46131,48176
46131,48323
46187,48458
46291,48562
46426,48618
46573,48618
46708,48562
46812,48458
46868,48323
46868,48176
46848,48129
46848,47663
47000,47693
47124,47668
47124,49771
47000,49747
46787,49789
46606,49910
46500,50069
46393,49910
46212,49789
46000,49747
45787,49789
45606,49910
45486,50090
45454,50249
45454,50553
45486,50712
45606,50893
45766,51000
45606,51106
45486,51287
45454,51446
45454,51750
45486,51909
45606,52089
45787,52210
46000,52252
46212,52210
46393,52089
46500,51930
46606,52089
46787,52210
47000,52252
47212,52210
47296,52154
47809,52666
47828,52696
47857,52715
47857,52715
47943,52773
48045,52793
48045,52793
48079,52800
48114,52793
55885,52793
55920,52800
55954,52793
55954,52793
56056,52773
56171,52696
56190,52666
56703,52154
56787,52210
57000,52252
57212,52210
57393,52089
57500,51930
57606,52089
57787,52210
58000,52252
58212,52210
58393,52089
58500,51930
58606,52089
58787,52210
59000,52252
59212,52210
59393,52089
59500,51930
59606,52089
59787,52210
60000,52252
60212,52210
60393,52089
60500,51930
60606,52089
60787,52210
61000,52252
61212,52210
61393,52089
61503,51924
61507,51941
61639,52111
61825,52217
61865,52225
61950,52177
61950,51648
61942,51648
61942,51548
61950,51548
61950,51019
61915,51000
61950,50980
61950,50451
61942,50451
61942,50351
61950,50351
61950,49822
61865,49774
61825,49782
61639,49888
61507,50058
61503,50075
61393,49910
61212,49789
61000,49747
60787,49789
60606,49910
60500,50069
60393,49910
60348,49880
60348,47560
60393,47530
60500,47371
60555,47453
60579,47574
60677,47722
60715,47747
61435,48466
61435,48512
61521,48720
61679,48878
61887,48964
62112,48964
62320,48878
62402,48796
62658,48796
62687,48893
62898,48969
63123,48958
63281,48893
63310,48796
62984,48470
62658,48796
62402,48796
62478,48720
62489,48694
62490,48696
62587,48726
62913,48400
63054,48400
63381,48726
63477,48696
63553,48485
63543,48260
63477,48103
63381,48073
63054,48400
62913,48400
62587,48073
62490,48103
62489,48105
62478,48079
62402,48003
62658,48003
62984,48329
63310,48003
63281,47906
63069,47830
62845,47841
62687,47906
62658,48003
62402,48003
62320,47921
62112,47835
62066,47835
61907,47675
62000,47693
62212,47651
62393,47530
62500,47371
62606,47530
62787,47651
63000,47693
63212,47651
63393,47530
63500,47371
63606,47530
63787,47651
64000,47693
64212,47651
64393,47530
64513,47350
64545,47191
64545,46808
64513,46649
64393,46469
64212,46348
64000,46306
63787,46348
63606,46469
63500,46628
63393,46469
63212,46348
63000,46306
62787,46348
62606,46469
62500,46628
62393,46469
62212,46348
62156,46337
65906,42588
67511,42588
67606,42731
67787,42851
68000,42894
68212,42851
68393,42731
68506,42562
68515,42593
68649,42759
68837,42861
68865,42866
68950,42818
68950,42191
68942,42191
68942,42091
68950,42091
68950,41464
68865,41416
68837,41421
68649,41523
68515,41689
68506,41720
68393,41551
68212,41430
68000,41388
67787,41430
67606,41551
67511,41694
65765,41694
65721,41685
65677,41694
65546,41720
65399,41819
65374,41856
60905,46325
60787,46348
60606,46469
60500,46628
60393,46469
60212,46348
60000,46306
59787,46348
59606,46469
59500,46628
59393,46469
59212,46348
59000,46306
58787,46348
58606,46469
58500,46628
58393,46469
58212,46348
58000,46306
57787,46348
57606,46469
57500,46628
57393,46469
57287,46398
59222,44464
59251,44445
59273,44412
59310,44356
59328,44329
59348,44228
59348,44228
59355,44194
59348,44159
59348,41560
59393,41530
59506,41361
59515,41392
59649,41558
59837,41660
59865,41666
59950,41617
59950,41050
59942,41050
59942,40950
59950,40950
59950,40942
60050,40942
60050,40950
60057,40950
60057,41050
60050,41050
60050,41617
60134,41666
60162,41660
60350,41558
60484,41392
60493,41361
60606,41530
60787,41651
61000,41693
61212,41651
61393,41530
61500,41371
61606,41530
61787,41651
62000,41693
62212,41651
62393,41530
62500,41371
62606,41530
62787,41651
63000,41693
63212,41651
63393,41530
63500,41371
63606,41530
63787,41651
64000,41693
64212,41651
64393,41530
64513,41350
64545,41191
64545,40808
64513,40649
64393,40469
64359,40446
68472,40446
68504,40495
68587,40550
68685,40569
68837,40569
69553,41285
69553,41449
69524,41468
69469,41551
69450,41647
69350,41523
69162,41421
69134,41416
69050,41464
69050,42091
69057,42091
69057,42191
69050,42191
69050,42818
69134,42866
69162,42861
69350,42759
69450,42635
69469,42731
69524,42813
69607,42868
69704,42888
69946,42888
63073,49761
63000,49747
62787,49789
62606,49910
62496,50075
62492,50058
62360,49888
62174,49782
62134,49774
62050,49822
62050,50351
62057,50351
62057,50451
62050,50451
62050,50980
62084,51000
62050,51019
62050,51548
62057,51548
62057,51648
62050,51648
62050,52177
62134,52225
62174,52217
62360,52111
62492,51941
62496,51924
62606,52089
62787,52210
63000,52252
63212,52210
63393,52089
63500,51930
63606,52089
63787,52210
64000,52252
64212,52210
64393,52089
64500,51930
64606,52089
64787,52210
65000,52252
65212,52210
65393,52089
65500,51930
65606,52089
65787,52210
66000,52252
66212,52210
66393,52089
66500,51930
66606,52089
66787,52210
67000,52252
67212,52210
67393,52089
67500,51930
67606,52089
67787,52210
68000,52252
68212,52210
68393,52089
68503,51924
68507,51941
68639,52111
68825,52217
68865,52225
68950,52177
68950,51648
68942,51648
68942,51548
68950,51548
68950,51019
68915,51000
68950,50980
68950,50451
68942,50451
68942,50351
68950,50351
68950,49822
69050,49822
69050,50351
69057,50351
69057,50451
69050,50451
69050,50980
69084,51000
69050,51019
69050,51548
69057,51548
69057,51648
69050,51648
69050,52177
69134,52225
69174,52217
69360,52111
69492,51941
69496,51924
69606,52089
69787,52210
70000,52252
70212,52210
70393,52089
70513,51909
70545,51750
70545,51446
70513,51287
70446,51187
70446,50994
70475,50975
70530,50892
70550,50795
70550,50007
70530,49910
70475,49827
70392,49772
70295,49752
69704,49752
69607,49772
69524,49827
69469,49910
69450,50004
69360,49888
69174,49782
69134,49774
69050,49822
68950,49822
68865,49774
68825,49782
68639,49888
68507,50058
68503,50075
68393,49910
68212,49789
68000,49747
67787,49789
67606,49910
67500,50069
67393,49910
67212,49789
67000,49747
66787,49789
66606,49910
66500,50069
66393,49910
66212,49789
66000,49747
65787,49789
65606,49910
65500,50069
65393,49910
65328,49867
65328,49438
71709,43057
71737,43039
71809,42930
71823,42861
72295,42861
72295,45138
73799,45138
73799,42861
72295,42861
71823,42861
71828,42834
71828,42834
71835,42802
71828,42769
71828,38636
72869,37595
72942,37609
73057,37609
73228,37575
73421,37446
73550,37253
73596,37025
73550,36796
73421,36603
73228,36474
73057,36440
72942,36440
72771,36474
72578,36603
72500,36720
72421,36603
72228,36474
72057,36440
71942,36440
71771,36474
71578,36603
71500,36720
71421,36603
71228,36474
71057,36440
70942,36440
70771,36474
70578,36603
70500,36720
70421,36603
70228,36474
70057,36440
69942,36440
69771,36474
69578,36603
69500,36720
69421,36603
69228,36474
69057,36440
68942,36440
68771,36474
68578,36603
68500,36720
68421,36603
68228,36474
68057,36440
67942,36440
67771,36474
67578,36603
67500,36720
67421,36603
67228,36474
67057,36440
66942,36440
66771,36474
66578,36603
66500,36720
66421,36603
66228,36474
66057,36440
65942,36440
65771,36474
65578,36603
65500,36720
65421,36603
65228,36474
65057,36440
64942,36440
64771,36474
64578,36603
64500,36720
64421,36603
64228,36474
64057,36440
63942,36440
63771,36474
63578,36603
63500,36720
63421,36603
63228,36474
63057,36440
62942,36440
62771,36474
62578,36603
62500,36720
62421,36603
62228,36474
62057,36440
61942,36440
61771,36474
61578,36603
61500,36720
61421,36603
61228,36474
61057,36440
60942,36440
60771,36474
60578,36603
60500,36720
60421,36603
60228,36474
60057,36440
59942,36440
59771,36474
59578,36603
59500,36720
59421,36603
59228,36474
59057,36440
58942,36440
58771,36474
58578,36603
58500,36720
58447,36642
58455,36599
58436,36504
58420,36425
58322,36277
58284,36252
57903,35871
57878,35834
57731,35735
57600,35709
57556,35701
57512,35709
48078,35709
48070,35665
48014,35582
47932,35527
47834,35508
47047,35508
46949,35527
46867,35582
46811,35665
46792,35762
46792,36173
45939,37026
45939,36491
45876,36429
45050,36429
45050,37255
45112,37318
45647,37318
45168,37797
44311,37797
44213,37816
44130,37871
44089,37934
44089,37672
44026,37610
43200,37610
43100,37610
42273,37610
42211,37672
41769,37672
41769,36821
42211,36821
42211,37447
42273,37510
43100,37510
43100,36683
43200,36683
43200,37510
44026,37510
44089,37447
44089,37185
44099,37209
44169,37279
44261,37318
44887,37318
44950,37255
44950,36429
44123,36429
44061,36491
44061,36753
44050,36729
43980,36659
43888,36621
43262,36621
43200,36683
43100,36683
43037,36621
42411,36621
42319,36659
42249,36729
42211,36821
41769,36821
41769,35640
44061,35640
44061,36266
44123,36329
44950,36329
44950,35502
45050,35502
45050,36329
45876,36329
45939,36266
45939,35640
45900,35548
45830,35478
45738,35440
45112,35440
45050,35502
44950,35502
44887,35440
44261,35440
44169,35478
44099,35548
44061,35640
41769,35640
41769,35223
41787,35122
41826,35054
41886,35004
41972,34973
42011,34969
73976,34969
74077,34987
" /> 
<polyline style="fill-rule:evenodd;"
points="54651,49880
54606,49910
54500,50069
54393,49910
54212,49789
54204,49787
54651,49341
54651,49880
" /> 
<polyline style="fill-rule:evenodd;"
points="53000,47693
53156,47662
53156,47930
51263,49823
51212,49789
51000,49747
50787,49789
50606,49910
50500,50069
50393,49910
50287,49839
50579,49548
51065,49548
51100,49555
51134,49548
51134,49548
51235,49528
51351,49451
51370,49422
52694,48097
52723,48078
52752,48035
52800,47963
52821,47861
52821,47861
52827,47827
52821,47793
52821,47658
53000,47693
" /> 
<polyline style="fill-rule:evenodd;"
points="55000,47693
55146,47664
55146,47860
53305,49701
53276,49721
53225,49797
53212,49789
53000,49747
52875,49771
52875,49586
54722,47740
54751,47720
54770,47691
54796,47653
55000,47693
" /> 
<polyline style="fill-rule:evenodd;"
points="48178,49782
48000,49747
47821,49782
47821,47658
48000,47693
48178,47658
48178,49782
" /> 
<polyline style="fill-rule:evenodd;"
points="53606,41530
53651,41560
53651,44055
52250,45456
52221,45476
52144,45591
52124,45693
52124,45693
52117,45727
52124,45761
52124,46331
52000,46306
51787,46348
51606,46469
51493,46638
51484,46607
51350,46441
51162,46339
51134,46333
51050,46382
51050,46950
51057,46950
51057,47050
51050,47050
51050,47617
51134,47666
51162,47660
51350,47558
51484,47392
51493,47361
51606,47530
51651,47560
51651,47755
50855,48551
50379,48551
50345,48544
50310,48551
50310,48551
50209,48571
50199,48578
50123,48629
50123,48629
50094,48648
50074,48677
49004,49748
49000,49747
48875,49771
48875,47668
49000,47693
49212,47651
49393,47530
49500,47371
49606,47530
49787,47651
50000,47693
50212,47651
50393,47530
50506,47361
50515,47392
50649,47558
50837,47660
50865,47666
50950,47617
50950,47050
50942,47050
50942,46950
50950,46950
50950,46382
50865,46333
50837,46339
50649,46441
50515,46607
50506,46638
50393,46469
50212,46348
50000,46306
49787,46348
49606,46469
49500,46628
49393,46469
49212,46348
49000,46306
48875,46331
48875,44616
51832,41660
52000,41693
52212,41651
52393,41530
52500,41371
52606,41530
52787,41651
53000,41693
53212,41651
53393,41530
53500,41371
53606,41530
" /> 
<polyline style="fill-rule:evenodd;"
points="58606,41530
58651,41560
58651,41664
58651,41664
58651,44049
56296,46404
56287,46398
58222,44464
58251,44445
58273,44412
58328,44329
58332,44308
58348,44228
58348,44228
58355,44194
58348,44159
58348,41560
58393,41530
58500,41371
58606,41530
" /> 
<polyline style="fill-rule:evenodd;"
points="57606,41530
57651,41560
57651,44049
55296,46404
55288,46399
57222,44465
57251,44446
57274,44412
57328,44330
57332,44308
57348,44229
57348,44229
57355,44195
57348,44160
57348,41560
57393,41530
57500,41371
57606,41530
" /> 
<polyline style="fill-rule:evenodd;"
points="56606,41530
56651,41560
56651,44050
54584,46117
54582,46119
54582,46119
54553,46138
54533,46167
54305,46396
54294,46403
54287,46398
56219,44467
56251,44446
56328,44330
56348,44229
56348,44229
56355,44195
56348,44160
56348,41560
56393,41530
56500,41371
56606,41530
" /> 
<polyline style="fill-rule:evenodd;"
points="50606,41530
50787,41651
50844,41662
48305,44202
48276,44221
48199,44336
48178,44438
48178,44438
48172,44472
48178,44506
48178,46341
48000,46306
47821,46341
47821,44506
47827,44472
47821,44438
47821,44438
47800,44336
47772,44294
47743,44250
47743,44250
47723,44221
47694,44202
45348,41855
45348,41560
45393,41530
45500,41371
45606,41530
45787,41651
46000,41693
46212,41651
46393,41530
46500,41371
46606,41530
46787,41651
47000,41693
47212,41651
47393,41530
47500,41371
47606,41530
47787,41651
48000,41693
48212,41651
48393,41530
48500,41371
48606,41530
48787,41651
49000,41693
49212,41651
49393,41530
49500,41371
49606,41530
49787,41651
50000,41693
50212,41651
50393,41530
50500,41371
50606,41530
" /> 
<polyline style="fill-rule:evenodd;"
points="55606,41530
55651,41560
55651,43731
55526,43731
55391,43787
55287,43891
55264,43947
52882,46329
52821,46341
52821,45871
54222,44470
54251,44451
54277,44412
54314,44356
54328,44335
54348,44234
54348,44234
54355,44200
54348,44165
54348,41560
54393,41530
54500,41371
54606,41530
54787,41651
55000,41693
55212,41651
55393,41530
55500,41371
55606,41530
" /> 
<polyline style="fill-rule:evenodd;"
points="69578,37446
69771,37575
69942,37609
70057,37609
70130,37595
70462,37927
70462,41460
70446,41449
70446,41144
70455,41100
70420,40925
70322,40777
70284,40752
69569,40037
69569,39685
69550,39587
69495,39504
69412,39449
69320,39431
69326,39412
69000,39086
68673,39412
68679,39431
68587,39449
68504,39504
68472,39553
68116,39553
68116,39375
68045,39204
67914,39072
67742,39001
67557,39001
67509,39021
64193,39021
64336,38953
64357,38930
68430,38930
68441,39154
68506,39312
68603,39341
68929,39015
69070,39015
69396,39341
69493,39312
69569,39101
69558,38876
69493,38718
69396,38689
69070,39015
68929,39015
68603,38689
68506,38718
68430,38930
64357,38930
64484,38790
64547,38637
64537,38618
68673,38618
69000,38945
69326,38618
69296,38522
69085,38446
68860,38456
68703,38522
68673,38618
64537,38618
64499,38550
64050,38550
64050,38557
63950,38557
63950,38550
63500,38550
63452,38637
63515,38790
63663,38953
63806,39021
61216,39021
61320,38978
61478,38820
61564,38612
61564,38387
61554,38362
63452,38362
63500,38450
63950,38450
63950,37999
64050,37999
64050,38450
64499,38450
64547,38362
64484,38209
64336,38046
64137,37952
64050,37999
63950,37999
63862,37952
63663,38046
63515,38209
63452,38362
61554,38362
61478,38179
61320,38021
61112,37935
60887,37935
60679,38021
60521,38179
60492,38249
60463,38179
60304,38021
60096,37935
59871,37935
59664,38021
59505,38179
59492,38211
59478,38179
59320,38021
59112,37935
58887,37935
58679,38021
58521,38179
58435,38387
58435,38612
58446,38639
57947,38140
57922,38102
57884,38077
57446,37639
57446,37408
57500,37329
57578,37446
57771,37575
57942,37609
58057,37609
58228,37575
58421,37446
58500,37329
58578,37446
58771,37575
58942,37609
59057,37609
59228,37575
59421,37446
59500,37329
59578,37446
59771,37575
59942,37609
60057,37609
60228,37575
60421,37446
60500,37329
60578,37446
60771,37575
60942,37609
61057,37609
61228,37575
61421,37446
61500,37329
61578,37446
61771,37575
61942,37609
62057,37609
62228,37575
62421,37446
62500,37329
62578,37446
62771,37575
62942,37609
63057,37609
63228,37575
63421,37446
63500,37329
63578,37446
63771,37575
63942,37609
64057,37609
64228,37575
64421,37446
64500,37329
64578,37446
64771,37575
64942,37609
65057,37609
65228,37575
65421,37446
65500,37329
65578,37446
65771,37575
65942,37609
66057,37609
66228,37575
66421,37446
66500,37329
66578,37446
66771,37575
66942,37609
67057,37609
67228,37575
67421,37446
67500,37329
67578,37446
67771,37575
67942,37609
68057,37609
68228,37575
68421,37446
68500,37329
68578,37446
68771,37575
68942,37609
69057,37609
69228,37575
69421,37446
69500,37329
69578,37446
" /> 
<polyline style="fill-rule:evenodd;"
points="55415,36640
55415,36912
55477,36975
55950,36975
55950,36967
56050,36967
56050,36975
56057,36975
56057,37075
56050,37075
56050,37547
56112,37609
56384,37609
56476,37571
56546,37501
56553,37485
56553,37780
56544,37825
56579,37999
56579,37999
56677,38147
56715,38172
56955,38412
56933,38435
56887,38435
56679,38521
56521,38679
56435,38887
56435,39112
56521,39320
56679,39478
56859,39553
54115,39553
54220,39532
54407,39407
54532,39220
54562,39069
54684,38947
54722,38922
54820,38774
54846,38644
54846,38644
54855,38600
54846,38555
54846,37407
54912,37342
54997,37137
55415,37137
55415,37409
55453,37501
55523,37571
55615,37609
55887,37609
55950,37547
55950,37075
55477,37075
55415,37137
54997,37137
55004,37120
55004,36879
54912,36657
54858,36603
55430,36603
55415,36640
" /> 
</g> 
</svg>
