<?xml version="1.0" standalone="no"?>
 <!DOCTYPE svg PUBLIC "-//W3C//DTD SVG 1.1//EN" 
 "http://www.w3.org/Graphics/SVG/1.1/DTD/svg11.dtd"> 
<svg xmlns="http://www.w3.org/2000/svg" version="1.1" 
    width="29.7002cm" height="21.0007cm" viewBox="0 0 116930 82680 ">
<title>SVG Picture created as Lawo 28x13 Interface-F.SilkS.svg date 2019/06/23 04:24:49 </title>
  <desc>Picture generated by PCBNEW </desc>
<g style="fill:#000000; fill-opacity:1;stroke:#000000; stroke-opacity:1;
stroke-linecap:round; stroke-linejoin:round; "
 transform="translate(0 0) scale(1 1)">
</g>
<g style="fill:#000000; fill-opacity:0.0; 
stroke:#000000; stroke-width:-0.000393701; stroke-opacity:1; 
stroke-linecap:round; stroke-linejoin:round;">
</g>
<g style="fill:#000000; fill-opacity:0.0; 
stroke:#000000; stroke-width:78.7402; stroke-opacity:1; 
stroke-linecap:round; stroke-linejoin:round;">
<path d="M67500 38300
L67500 37750
" />
<path d="M65500 38300
L65500 37750
" />
<path d="M45500 52500
L45500 49500
" />
<path d="M67500 52500
L67500 49500
" />
<path d="M62500 52500
L62500 49500
" />
<path d="M61500 52500
L61500 49500
" />
<path d="M61249 53323
L51529 53323
" />
</g>
<g style="fill:#000000; fill-opacity:0.0; 
stroke:#000000; stroke-width:59.0551; stroke-opacity:1; 
stroke-linecap:round; stroke-linejoin:round;">
<path d="M46156 53367
L46051 53217
" />
<path d="M45976 53367
L45976 53052
L46096 53052
L46126 53067
L46141 53082
L46156 53112
L46156 53157
L46141 53187
L46126 53202
L46096 53217
L45976 53217
" />
<path d="M46336 53367
L46306 53352
L46291 53337
L46276 53307
L46276 53217
L46291 53187
L46306 53172
L46336 53157
L46381 53157
L46411 53172
L46426 53187
L46441 53217
L46441 53307
L46426 53337
L46411 53352
L46381 53367
L46336 53367
" />
<path d="M46546 53157
L46606 53367
L46666 53217
L46726 53367
L46786 53157
" />
<path d="M46891 53352
L46921 53367
L46981 53367
L47011 53352
L47026 53322
L47026 53307
L47011 53277
L46981 53262
L46936 53262
L46906 53247
L46891 53217
L46891 53202
L46906 53172
L46936 53157
L46981 53157
L47011 53172
" />
</g>
<g style="fill:#000000; fill-opacity:0.0; 
stroke:#000000; stroke-width:78.7402; stroke-opacity:1; 
stroke-linecap:round; stroke-linejoin:round;">
<path d="M47540 53330
L47260 53330
" />
<path d="M61249.8 53323.1 A250 250 0.0 0 0 61499.8 53073.1 " />
<path d="M61500 53065
L61500 52900
" />
<path d="M45499 53078
L45500 52890
" />
<path d="M45499.8 53078.1 A250 250 0.0 0 0 45749.8 53328.1 " />
<path d="M62500 53075 A250 250 0.0 0 0 62750 53325 " />
<path d="M67500 52900
L67500 53075
" />
<path d="M62500 52900
L62500 53075
" />
<path d="M63775 53325
L62750 53325
" />
<path d="M67250 53325
L66200 53325
" />
<path d="M67250 53325 A250 250 0.0 0 0 67500 53075 " />
</g>
<g style="fill:#000000; fill-opacity:0.0; 
stroke:#000000; stroke-width:59.0551; stroke-opacity:1; 
stroke-linecap:round; stroke-linejoin:round;">
<path d="M64231 53337
L64216 53352
L64171 53367
L64141 53367
L64096 53352
L64066 53322
L64051 53292
L64036 53232
L64036 53187
L64051 53127
L64066 53097
L64096 53067
L64141 53052
L64171 53052
L64216 53067
L64231 53082
" />
<path d="M64411 53367
L64381 53352
L64366 53337
L64351 53307
L64351 53217
L64366 53187
L64381 53172
L64411 53157
L64456 53157
L64486 53172
L64501 53187
L64516 53217
L64516 53307
L64501 53337
L64486 53352
L64456 53367
L64411 53367
" />
<path d="M64696 53367
L64666 53352
L64651 53322
L64651 53052
" />
<path d="M64951 53157
L64951 53367
" />
<path d="M64816 53157
L64816 53322
L64831 53352
L64861 53367
L64906 53367
L64936 53352
L64951 53337
" />
<path d="M65101 53367
L65101 53157
" />
<path d="M65101 53187
L65116 53172
L65146 53157
L65191 53157
L65221 53172
L65236 53202
L65236 53367
" />
<path d="M65236 53202
L65251 53172
L65281 53157
L65326 53157
L65356 53172
L65371 53202
L65371 53367
" />
<path d="M65521 53157
L65521 53367
" />
<path d="M65521 53187
L65536 53172
L65566 53157
L65611 53157
L65641 53172
L65656 53202
L65656 53367
" />
<path d="M65791 53352
L65821 53367
L65881 53367
L65911 53352
L65926 53322
L65926 53307
L65911 53277
L65881 53262
L65836 53262
L65806 53247
L65791 53217
L65791 53202
L65806 53172
L65836 53157
L65881 53157
L65911 53172
" />
<path d="M55834 52952
L55834 53102
L55984 53117
L55969 53102
L55954 53072
L55954 52997
L55969 52967
L55984 52952
L56014 52937
L56089 52937
L56119 52952
L56134 52967
L56149 52997
L56149 53072
L56134 53102
L56119 53117
" />
<path d="M54834 52967
L54834 53027
L54849 53057
L54864 53072
L54909 53102
L54969 53117
L55089 53117
L55119 53102
L55134 53087
L55149 53057
L55149 52997
L55134 52967
L55119 52952
L55089 52937
L55014 52937
L54984 52952
L54969 52967
L54954 52997
L54954 53057
L54969 53087
L54984 53102
L55014 53117
" />
<path d="M57834 53132
L57834 52937
L57954 53042
L57954 52997
L57969 52967
L57984 52952
L58014 52937
L58089 52937
L58119 52952
L58134 52967
L58149 52997
L58149 53087
L58134 53117
L58119 53132
" />
<path d="M60149 52937
L60149 53117
" />
<path d="M60149 53027
L59834 53027
L59879 53057
L59909 53087
L59924 53117
" />
<path d="M52969 53057
L52954 53087
L52939 53102
L52909 53117
L52894 53117
L52864 53102
L52849 53087
L52834 53057
L52834 52997
L52849 52967
L52864 52952
L52894 52937
L52909 52937
L52939 52952
L52954 52967
L52969 52997
L52969 53057
L52984 53087
L52999 53102
L53029 53117
L53089 53117
L53119 53102
L53134 53087
L53149 53057
L53149 52997
L53134 52967
L53119 52952
L53089 52937
L53029 52937
L52999 52952
L52984 52967
L52969 52997
" />
<path d="M52149 53087
L52149 53027
L52134 52997
L52119 52982
L52074 52952
L52014 52937
L51894 52937
L51864 52952
L51849 52967
L51834 52997
L51834 53057
L51849 53087
L51864 53102
L51894 53117
L51969 53117
L51999 53102
L52014 53087
L52029 53057
L52029 52997
L52014 52967
L51999 52952
L51969 52937
" />
<path d="M48149 53237
L48149 53416
" />
<path d="M48149 53326
L47834 53326
L47879 53356
L47909 53386
L47924 53416
" />
<path d="M47834 53132
L47834 52937
L47954 53042
L47954 52997
L47969 52967
L47984 52952
L48014 52937
L48089 52937
L48119 52952
L48134 52967
L48149 52997
L48149 53087
L48134 53117
L48119 53132
" />
<path d="M58864 53117
L58849 53102
L58834 53072
L58834 52997
L58849 52967
L58864 52952
L58894 52937
L58924 52937
L58969 52952
L59149 53132
L59149 52937
" />
<path d="M50149 53237
L50149 53416
" />
<path d="M50149 53326
L49834 53326
L49879 53356
L49909 53386
L49924 53416
" />
<path d="M50149 52937
L50149 53117
" />
<path d="M50149 53027
L49834 53027
L49879 53057
L49909 53087
L49924 53117
" />
<path d="M53834 53132
L53834 52922
L54149 53057
" />
<path d="M51149 53237
L51149 53416
" />
<path d="M51149 53326
L50834 53326
L50879 53356
L50909 53386
L50924 53416
" />
<path d="M50834 53042
L50834 53012
L50849 52982
L50864 52967
L50894 52952
L50954 52937
L51029 52937
L51089 52952
L51119 52967
L51134 52982
L51149 53012
L51149 53042
L51134 53072
L51119 53087
L51089 53102
L51029 53117
L50954 53117
L50894 53102
L50864 53087
L50849 53072
L50834 53042
" />
<path d="M56939 52967
L57149 52967
" />
<path d="M56819 53042
L57044 53117
L57044 52922
" />
<path d="M49149 53237
L49149 53416
" />
<path d="M49149 53326
L48834 53326
L48879 53356
L48909 53386
L48924 53416
" />
<path d="M48864 53117
L48849 53102
L48834 53072
L48834 52997
L48849 52967
L48864 52952
L48894 52937
L48924 52937
L48969 52952
L49149 53132
L49149 52937
" />
</g>
<g style="fill:#000000; fill-opacity:0.0; 
stroke:#000000; stroke-width:78.7402; stroke-opacity:1; 
stroke-linecap:round; stroke-linejoin:round;">
<path d="M65500 40650
L65500 39750
" />
<path d="M65500 40650 A250 250 0.0 0 0 65750 40900 " />
<path d="M67250 40900
L65750 40900
" />
<path d="M67500 40650
L67500 39750
" />
<path d="M67250 40900 A250 250 0.0 0 0 67500 40650 " />
</g>
<g style="fill:#000000; fill-opacity:0.0; 
stroke:#000000; stroke-width:59.0551; stroke-opacity:1; 
stroke-linecap:round; stroke-linejoin:round;">
<path d="M66977 40586
L66977 40481
" />
<path d="M67142 40436
L67142 40586
L66827 40586
L66827 40436
" />
<path d="M67172 40376
L67172 40136
" />
<path d="M67112 39881
L67127 39896
L67142 39941
L67142 39971
L67127 40016
L67097 40046
L67067 40061
L67007 40076
L66962 40076
L66902 40061
L66872 40046
L66842 40016
L66827 39971
L66827 39941
L66842 39896
L66857 39881
" />
<path d="M65977 40571
L65977 40466
" />
<path d="M66142 40421
L66142 40571
L65827 40571
L65827 40421
" />
<path d="M66172 40361
L66172 40121
" />
<path d="M65977 39941
L65992 39896
L66007 39881
L66037 39866
L66082 39866
L66112 39881
L66127 39896
L66142 39926
L66142 40046
L65827 40046
L65827 39941
L65842 39911
L65857 39896
L65887 39881
L65917 39881
L65947 39896
L65962 39911
L65977 39941
L65977 40046
" />
<path d="M41895 35378
L41895 34984
L42045 34984
L42082 35003
L42101 35021
L42120 35059
L42120 35115
L42101 35153
L42082 35171
L42045 35190
L41895 35190
" />
<path d="M42251 34984
L42345 35378
L42420 35096
L42494 35378
L42588 34984
" />
<path d="M42963 35378
L42832 35190
" />
<path d="M42738 35378
L42738 34984
L42888 34984
L42926 35003
L42944 35021
L42963 35059
L42963 35115
L42944 35153
L42926 35171
L42888 35190
L42738 35190
" />
<path d="M48912 35678
L48912 35284
L49062 35284
L49100 35303
L49118 35321
L49137 35359
L49137 35415
L49118 35453
L49100 35471
L49062 35490
L48912 35490
" />
<path d="M49268 35284
L49362 35678
L49437 35396
L49512 35678
L49606 35284
" />
<path d="M49981 35678
L49850 35490
" />
<path d="M49756 35678
L49756 35284
L49906 35284
L49943 35303
L49962 35321
L49981 35359
L49981 35415
L49962 35453
L49943 35471
L49906 35490
L49756 35490
" />
<path d="M50056 35715
L50356 35715
" />
<path d="M50431 35659
L50487 35678
L50581 35678
L50618 35659
L50637 35640
L50656 35603
L50656 35565
L50637 35528
L50618 35509
L50581 35490
L50506 35471
L50468 35453
L50449 35434
L50431 35396
L50431 35359
L50449 35321
L50468 35303
L50506 35284
L50599 35284
L50656 35303
" />
<path d="M50787 35284
L50881 35678
L50956 35396
L51031 35678
L51124 35284
" />
</g>
<g style="fill:#000000; fill-opacity:0.0; 
stroke:#000000; stroke-width:78.7402; stroke-opacity:1; 
stroke-linecap:round; stroke-linejoin:round;">
<path d="M73500 35500 A500 500 0.0 0 0 73000 35000 " />
<path d="M65500 35250 A250 250 0.0 0 0 65250 35000 " />
<path d="M65750 35000 A250 250 0.0 0 0 65500 35250 " />
<path d="M65000 35000
L65250 35000
" />
<path d="M66000 35000
L65750 35000
" />
<path d="M65500 35250
L65500 36250
" />
<path d="M58750 35000
L59000 35000
" />
<path d="M58250 35000
L58000 35000
" />
<path d="M58500 35250
L58500 36250
" />
<path d="M58750 35000 A250 250 0.0 0 0 58500 35250 " />
<path d="M58500 35250 A250 250 0.0 0 0 58250 35000 " />
<path d="M55900 35000 A500 500 0.0 0 0 55400 35500 " />
</g>
<g style="fill:#000000; fill-opacity:0.0; 
stroke:#000000; stroke-width:59.0551; stroke-opacity:1; 
stroke-linecap:round; stroke-linejoin:round;">
<path d="M63052 36201
L63052 36051
" />
<path d="M63142 36231
L62827 36126
L63142 36021
" />
<path d="M62857 35931
L62842 35916
L62827 35886
L62827 35811
L62842 35781
L62857 35766
L62887 35751
L62917 35751
L62962 35766
L63142 35946
L63142 35751
" />
</g>
<g style="fill:#000000; fill-opacity:0.0; 
stroke:#000000; stroke-width:78.7402; stroke-opacity:1; 
stroke-linecap:round; stroke-linejoin:round;">
<path d="M55900 35000
L56250 35000
" />
<path d="M55400 36250
L55400 35500
" />
<path d="M58000 35000
L57750 35000
" />
</g>
<g style="fill:#000000; fill-opacity:0.0; 
stroke:#000000; stroke-width:59.0551; stroke-opacity:1; 
stroke-linecap:round; stroke-linejoin:round;">
<path d="M56613 35242
L56613 34927
L56733 34927
L56763 34942
L56778 34957
L56793 34987
L56793 35032
L56778 35062
L56763 35077
L56733 35092
L56613 35092
" />
<path d="M56898 34927
L56973 35242
L57033 35017
L57093 35242
L57168 34927
" />
<path d="M57468 35242
L57363 35092
" />
<path d="M57288 35242
L57288 34927
L57408 34927
L57438 34942
L57453 34957
L57468 34987
L57468 35032
L57453 35062
L57438 35077
L57408 35092
L57288 35092
" />
</g>
<g style="fill:#000000; fill-opacity:0.0; 
stroke:#000000; stroke-width:78.7402; stroke-opacity:1; 
stroke-linecap:round; stroke-linejoin:round;">
<path d="M73500 35500
L73500 36250
" />
<path d="M70600 35000
L73000 35000
" />
<path d="M66000 35000
L68100 35000
" />
<path d="M63000 35000
L65000 35000
" />
<path d="M59000 35000
L61250 35000
" />
</g>
<g style="fill:#000000; fill-opacity:0.0; 
stroke:#000000; stroke-width:59.0551; stroke-opacity:1; 
stroke-linecap:round; stroke-linejoin:round;">
<path d="M68593 35212
L68578 35227
L68533 35242
L68503 35242
L68458 35227
L68428 35197
L68413 35167
L68398 35107
L68398 35062
L68413 35002
L68428 34972
L68458 34942
L68503 34927
L68533 34927
L68578 34942
L68593 34957
" />
<path d="M68773 35242
L68743 35227
L68728 35212
L68713 35182
L68713 35092
L68728 35062
L68743 35047
L68773 35032
L68818 35032
L68848 35047
L68863 35062
L68878 35092
L68878 35182
L68863 35212
L68848 35227
L68818 35242
L68773 35242
" />
<path d="M69058 35242
L69028 35227
L69013 35197
L69013 34927
" />
<path d="M69313 35032
L69313 35242
" />
<path d="M69178 35032
L69178 35197
L69193 35227
L69223 35242
L69268 35242
L69298 35227
L69313 35212
" />
<path d="M69463 35242
L69463 35032
" />
<path d="M69463 35062
L69478 35047
L69508 35032
L69553 35032
L69583 35047
L69598 35077
L69598 35242
" />
<path d="M69598 35077
L69613 35047
L69643 35032
L69688 35032
L69718 35047
L69733 35077
L69733 35242
" />
<path d="M69883 35032
L69883 35242
" />
<path d="M69883 35062
L69898 35047
L69928 35032
L69973 35032
L70003 35047
L70018 35077
L70018 35242
" />
<path d="M70153 35227
L70183 35242
L70243 35242
L70273 35227
L70288 35197
L70288 35182
L70273 35152
L70243 35137
L70198 35137
L70168 35122
L70153 35092
L70153 35077
L70168 35047
L70198 35032
L70243 35032
L70273 35047
" />
<path d="M61793 35242
L61688 35092
" />
<path d="M61613 35242
L61613 34927
L61733 34927
L61763 34942
L61778 34957
L61793 34987
L61793 35032
L61778 35062
L61763 35077
L61733 35092
L61613 35092
" />
<path d="M61973 35242
L61943 35227
L61928 35212
L61913 35182
L61913 35092
L61928 35062
L61943 35047
L61973 35032
L62018 35032
L62048 35047
L62063 35062
L62078 35092
L62078 35182
L62063 35212
L62048 35227
L62018 35242
L61973 35242
" />
<path d="M62183 35032
L62243 35242
L62303 35092
L62363 35242
L62423 35032
" />
<path d="M62528 35227
L62558 35242
L62618 35242
L62648 35227
L62663 35197
L62663 35182
L62648 35152
L62618 35137
L62573 35137
L62543 35122
L62528 35092
L62528 35077
L62543 35047
L62573 35032
L62618 35032
L62648 35047
" />
<path d="M66977 36186
L66977 36081
" />
<path d="M67142 36036
L67142 36186
L66827 36186
L66827 36036
" />
<path d="M67172 35976
L67172 35736
" />
<path d="M67142 35661
L66827 35661
L66827 35586
L66842 35541
L66872 35511
L66902 35496
L66962 35481
L67007 35481
L67067 35496
L67097 35511
L67127 35541
L67142 35586
L67142 35661
" />
<path d="M68142 36186
L67827 36186
L67827 36111
L67842 36066
L67872 36036
L67902 36021
L67962 36006
L68007 36006
L68067 36021
L68097 36036
L68127 36066
L68142 36111
L68142 36186
" />
<path d="M68052 35886
L68052 35736
" />
<path d="M68142 35916
L67827 35811
L68142 35706
" />
<path d="M67827 35646
L67827 35466
" />
<path d="M68142 35556
L67827 35556
" />
<path d="M68052 35376
L68052 35226
" />
<path d="M68142 35406
L67827 35301
L68142 35196
" />
<path d="M58977 36186
L58977 36081
" />
<path d="M59142 36036
L59142 36186
L58827 36186
L58827 36036
" />
<path d="M60142 36186
L59827 36186
L59827 36111
L59842 36066
L59872 36036
L59902 36021
L59962 36006
L60007 36006
L60067 36021
L60097 36036
L60127 36066
L60142 36111
L60142 36186
" />
<path d="M60052 35886
L60052 35736
" />
<path d="M60142 35916
L59827 35811
L60142 35706
" />
<path d="M59827 35646
L59827 35466
" />
<path d="M60142 35556
L59827 35556
" />
<path d="M60052 35376
L60052 35226
" />
<path d="M60142 35406
L59827 35301
L60142 35196
" />
<path d="M65977 36186
L65977 36081
" />
<path d="M66142 36036
L66142 36186
L65827 36186
L65827 36036
" />
<path d="M66172 35976
L66172 35736
" />
<path d="M66052 35676
L66052 35526
" />
<path d="M66142 35706
L65827 35601
L66142 35496
" />
<path d="M72977 36081
L72992 36036
L73007 36021
L73037 36006
L73082 36006
L73112 36021
L73127 36036
L73142 36066
L73142 36186
L72827 36186
L72827 36081
L72842 36051
L72857 36036
L72887 36021
L72917 36021
L72947 36036
L72962 36051
L72977 36081
L72977 36186
" />
<path d="M73142 35706
L73142 35886
" />
<path d="M73142 35796
L72827 35796
L72872 35826
L72902 35856
L72917 35886
" />
<path d="M71977 36081
L71992 36036
L72007 36021
L72037 36006
L72082 36006
L72112 36021
L72127 36036
L72142 36066
L72142 36186
L71827 36186
L71827 36081
L71842 36051
L71857 36036
L71887 36021
L71917 36021
L71947 36036
L71962 36051
L71977 36081
L71977 36186
" />
<path d="M71827 35811
L71827 35781
L71842 35751
L71857 35736
L71887 35721
L71947 35706
L72022 35706
L72082 35721
L72112 35736
L72127 35751
L72142 35781
L72142 35811
L72127 35841
L72112 35856
L72082 35871
L72022 35886
L71947 35886
L71887 35871
L71857 35856
L71842 35841
L71827 35811
" />
<path d="M71052 36201
L71052 36051
" />
<path d="M71142 36231
L70827 36126
L71142 36021
" />
<path d="M70857 35931
L70842 35916
L70827 35886
L70827 35811
L70842 35781
L70857 35766
L70887 35751
L70917 35751
L70962 35766
L71142 35946
L71142 35751
" />
<path d="M70052 36201
L70052 36051
" />
<path d="M70142 36231
L69827 36126
L70142 36021
" />
<path d="M70142 35751
L70142 35931
" />
<path d="M70142 35841
L69827 35841
L69872 35871
L69902 35901
L69917 35931
" />
<path d="M69052 36201
L69052 36051
" />
<path d="M69142 36231
L68827 36126
L69142 36021
" />
<path d="M68827 35856
L68827 35826
L68842 35796
L68857 35781
L68887 35766
L68947 35751
L69022 35751
L69082 35766
L69112 35781
L69127 35796
L69142 35826
L69142 35856
L69127 35886
L69112 35901
L69082 35916
L69022 35931
L68947 35931
L68887 35916
L68857 35901
L68842 35886
L68827 35856
" />
<path d="M64977 36081
L64992 36036
L65007 36021
L65037 36006
L65082 36006
L65112 36021
L65127 36036
L65142 36066
L65142 36186
L64827 36186
L64827 36081
L64842 36051
L64857 36036
L64887 36021
L64917 36021
L64947 36036
L64962 36051
L64977 36081
L64977 36186
" />
<path d="M65142 35706
L65142 35886
" />
<path d="M65142 35796
L64827 35796
L64872 35826
L64902 35856
L64917 35886
" />
<path d="M63977 36081
L63992 36036
L64007 36021
L64037 36006
L64082 36006
L64112 36021
L64127 36036
L64142 36066
L64142 36186
L63827 36186
L63827 36081
L63842 36051
L63857 36036
L63887 36021
L63917 36021
L63947 36036
L63962 36051
L63977 36081
L63977 36186
" />
<path d="M63827 35811
L63827 35781
L63842 35751
L63857 35736
L63887 35721
L63947 35706
L64022 35706
L64082 35721
L64112 35736
L64127 35751
L64142 35781
L64142 35811
L64127 35841
L64112 35856
L64082 35871
L64022 35886
L63947 35886
L63887 35871
L63857 35856
L63842 35841
L63827 35811
" />
<path d="M62052 36201
L62052 36051
" />
<path d="M62142 36231
L61827 36126
L62142 36021
" />
<path d="M62142 35751
L62142 35931
" />
<path d="M62142 35841
L61827 35841
L61872 35871
L61902 35901
L61917 35931
" />
<path d="M61052 36201
L61052 36051
" />
<path d="M61142 36231
L60827 36126
L61142 36021
" />
<path d="M60827 35856
L60827 35826
L60842 35796
L60857 35781
L60887 35766
L60947 35751
L61022 35751
L61082 35766
L61112 35781
L61127 35796
L61142 35826
L61142 35856
L61127 35886
L61112 35901
L61082 35916
L61022 35931
L60947 35931
L60887 35916
L60857 35901
L60842 35886
L60827 35856
" />
<path d="M57827 36231
L58142 36126
L57827 36021
" />
<path d="M58142 35916
L57827 35916
" />
<path d="M58142 35766
L57827 35766
L58142 35586
L57827 35586
" />
<path d="M56827 36035
L56827 36185
L56977 36200
L56962 36185
L56947 36155
L56947 36080
L56962 36050
L56977 36035
L57007 36020
L57082 36020
L57112 36035
L57127 36050
L57142 36080
L57142 36155
L57127 36185
L57112 36200
" />
<path d="M56827 35930
L57142 35825
L56827 35720
" />
<path d="M55842 36020
L55827 36050
L55827 36095
L55842 36140
L55872 36170
L55902 36185
L55962 36200
L56007 36200
L56067 36185
L56097 36170
L56127 36140
L56142 36095
L56142 36065
L56127 36020
L56112 36005
L56007 36005
L56007 36065
" />
<path d="M56142 35870
L55827 35870
L56142 35690
L55827 35690
" />
<path d="M56142 35540
L55827 35540
L55827 35465
L55842 35420
L55872 35390
L55902 35375
L55962 35360
L56007 35360
L56067 35375
L56097 35390
L56127 35420
L56142 35465
L56142 35540
" />
</g>
<g style="fill:#000000; fill-opacity:0.0; 
stroke:#000000; stroke-width:47.2441; stroke-opacity:1; 
stroke-linecap:round; stroke-linejoin:round;">
<path d="M66437 41799
L66437 43185
" />
<path d="M65562 41799
L65562 43185
" />
<path d="M66437 41799
L66392 41799
" />
<path d="M65607 41799
L65562 41799
" />
<path d="M66437 43185
L66392 43185
" />
<path d="M65607 43185
L65562 43185
" />
<path d="M55007 37608
L55007 36391
" />
<circle cx="54000" cy="37000" r="984.252" /> 
<path d="M55007.9 36391.8 A1177.17 1177.17 0.0 0 0 52822.8 37000.2 " />
<path d="M52822.8 36999.8 A1177.17 1177.17 0.0 0 0 55007.9 37608.2 " />
<path d="M56763 39385
L56763 39515
" />
<path d="M56763 39515
L54236 39515
" />
<path d="M54236 39515
L54236 39385
" />
<path d="M56763 38614
L56763 38484
" />
<path d="M56763 38484
L54236 38484
" />
<path d="M54236 38484
L54236 38614
" />
</g>
<g style="fill:#000000; fill-opacity:0.0; 
stroke:#000000; stroke-width:150; stroke-opacity:1; 
stroke-linecap:round; stroke-linejoin:round;">
<path d="M44500 43500
L44100 43500
" />
<path d="M44500 44500
L44100 44500
" />
</g>
<g style="fill:#000000; fill-opacity:0.0; 
stroke:#000000; stroke-width:100; stroke-opacity:1; 
stroke-linecap:round; stroke-linejoin:round;">
<path d="M44500 44500 A500 500 0.0 0 0 45000 44000 " />
<path d="M45000 44000 A500 500 0.0 0 0 44500 43500 " />
</g>
<g style="fill:#000000; fill-opacity:0.0; 
stroke:#000000; stroke-width:150; stroke-opacity:1; 
stroke-linecap:round; stroke-linejoin:round;">
<path d="M44500 43500
L44500 44500
" />
</g>
<g style="fill:#000000; fill-opacity:0.0; 
stroke:#000000; stroke-width:100; stroke-opacity:1; 
stroke-linecap:round; stroke-linejoin:round;">
<path d="M45700 42000
L45700 46000
" />
<path d="M63300 42000
L63300 46000
" />
<path d="M55000 46000
L55000 42000
" />
<path d="M54000 42000
L54000 46000
" />
</g>
<g style="fill:#000000; fill-opacity:0.0; 
stroke:#000000; stroke-width:150; stroke-opacity:1; 
stroke-linecap:round; stroke-linejoin:round;">
<path d="M44100 41200
L44100 46800
" />
<path d="M44500 47500
L44500 40500
" />
<path d="M64500 40500
L64500 47500
" />
<path d="M64900 46800
L64900 41200
" />
<path d="M64900 41200
L44100 41200
" />
<path d="M44500 40500
L64500 40500
" />
<path d="M64900 46800
L44100 46800
" />
<path d="M44500 47500
L64500 47500
" />
</g>
<g style="fill:#000000; fill-opacity:0.0; 
stroke:#000000; stroke-width:100; stroke-opacity:1; 
stroke-linecap:round; stroke-linejoin:round;">
<path d="M63300 46000
L45700 46000
" />
<path d="M45700 42000
L63300 42000
" />
</g>
<g style="fill:#000000; fill-opacity:0.0; 
stroke:#000000; stroke-width:59.0551; stroke-opacity:1; 
stroke-linecap:round; stroke-linejoin:round;">
<path d="M47637 34837
L47637 39562
" />
<path d="M47637 39562
L52362 39562
" />
<path d="M52362 39562
L52362 34837
" />
<path d="M52362 34837
L47637 34837
" />
</g>
<g style="fill:#000000; fill-opacity:0.0; 
stroke:#000000; stroke-width:120; stroke-opacity:1; 
stroke-linecap:round; stroke-linejoin:round;">
<path d="M74279 52692
L74279 49307
" />
<path d="M41720 52692
L41720 49307
" />
<path d="M74279 49307
L41720 49307
" />
<path d="M41720 52692
L74279 52692
" />
<path d="M72094 52692
L72094 49307
" />
<path d="M43905 52692
L43905 49307
" />
</g>
<g style="fill:#000000; fill-opacity:0.0; 
stroke:#000000; stroke-width:118; stroke-opacity:1; 
stroke-linecap:round; stroke-linejoin:round;">
<path d="M57094 49346
L57094 49700
" />
<path d="M57094 49700
L58905 49700
" />
<path d="M58905 49700
L58905 49346
" />
</g>
<g style="fill:#000000; fill-opacity:0.0; 
stroke:#000000; stroke-width:59.0551; stroke-opacity:1; 
stroke-linecap:round; stroke-linejoin:round;">
<path d="M46772 34725
L43228 34725
" />
<path d="M43228 34725
L43228 39056
" />
<path d="M43228 39056
L46772 39056
" />
<path d="M46772 39056
L46772 34725
" />
</g>
<g style="fill:#000000; fill-opacity:0.0; 
stroke:#000000; stroke-width:47.2441; stroke-opacity:1; 
stroke-linecap:round; stroke-linejoin:round;">
<path d="M58799 38062
L60185 38062
" />
<path d="M58799 38937
L60185 38937
" />
<path d="M58799 38062
L58799 38107
" />
<path d="M58799 38892
L58799 38937
" />
<path d="M60185 38062
L60185 38107
" />
<path d="M60185 38892
L60185 38937
" />
<path d="M69144 40929
L69655 40929
" />
<path d="M69400 41166
L69400 40693
" />
<path d="M69260 38799
L69539 38799
" />
<path d="M69179 38815
L69620 38815
" />
<path d="M69121 38831
L69678 38831
" />
<path d="M69073 38846
L69726 38846
" />
<path d="M69032 38862
L69767 38862
" />
<path d="M68995 38878
L69804 38878
" />
<path d="M68962 38894
L69837 38894
" />
<path d="M68931 38909
L69868 38909
" />
<path d="M68903 38925
L69896 38925
" />
<path d="M69785 38941
L69922 38941
" />
<path d="M68877 38941
L69014 38941
" />
<path d="M69785 38957
L69947 38957
" />
<path d="M68852 38957
L69014 38957
" />
<path d="M69785 38972
L69970 38972
" />
<path d="M68829 38972
L69014 38972
" />
<path d="M69785 38988
L69992 38988
" />
<path d="M68807 38988
L69014 38988
" />
<path d="M69785 39004
L70012 39004
" />
<path d="M68787 39004
L69014 39004
" />
<path d="M69785 39020
L70032 39020
" />
<path d="M68767 39020
L69014 39020
" />
<path d="M69785 39035
L70051 39035
" />
<path d="M68748 39035
L69014 39035
" />
<path d="M69785 39051
L70068 39051
" />
<path d="M68731 39051
L69014 39051
" />
<path d="M69785 39067
L70085 39067
" />
<path d="M68714 39067
L69014 39067
" />
<path d="M69785 39083
L70101 39083
" />
<path d="M68698 39083
L69014 39083
" />
<path d="M69785 39098
L70117 39098
" />
<path d="M68682 39098
L69014 39098
" />
<path d="M69785 39114
L70132 39114
" />
<path d="M68667 39114
L69014 39114
" />
<path d="M69785 39130
L70146 39130
" />
<path d="M68653 39130
L69014 39130
" />
<path d="M69785 39146
L70160 39146
" />
<path d="M68639 39146
L69014 39146
" />
<path d="M69785 39161
L70173 39161
" />
<path d="M68626 39161
L69014 39161
" />
<path d="M69785 39177
L70186 39177
" />
<path d="M68613 39177
L69014 39177
" />
<path d="M69785 39193
L70198 39193
" />
<path d="M68601 39193
L69014 39193
" />
<path d="M69785 39209
L70210 39209
" />
<path d="M68589 39209
L69014 39209
" />
<path d="M69785 39224
L70221 39224
" />
<path d="M68578 39224
L69014 39224
" />
<path d="M69785 39240
L70231 39240
" />
<path d="M68568 39240
L69014 39240
" />
<path d="M69785 39256
L70242 39256
" />
<path d="M68557 39256
L69014 39256
" />
<path d="M69785 39272
L70252 39272
" />
<path d="M68547 39272
L69014 39272
" />
<path d="M69785 39287
L70261 39287
" />
<path d="M68538 39287
L69014 39287
" />
<path d="M69785 39303
L70270 39303
" />
<path d="M68529 39303
L69014 39303
" />
<path d="M69785 39319
L70279 39319
" />
<path d="M68520 39319
L69014 39319
" />
<path d="M69785 39335
L70288 39335
" />
<path d="M68511 39335
L69014 39335
" />
<path d="M69785 39350
L70296 39350
" />
<path d="M68503 39350
L69014 39350
" />
<path d="M69785 39366
L70303 39366
" />
<path d="M68496 39366
L69014 39366
" />
<path d="M69785 39382
L70311 39382
" />
<path d="M68488 39382
L69014 39382
" />
<path d="M69785 39398
L70318 39398
" />
<path d="M68481 39398
L69014 39398
" />
<path d="M69785 39413
L70325 39413
" />
<path d="M68474 39413
L69014 39413
" />
<path d="M69785 39429
L70331 39429
" />
<path d="M68468 39429
L69014 39429
" />
<path d="M69785 39445
L70337 39445
" />
<path d="M68462 39445
L69014 39445
" />
<path d="M69785 39461
L70343 39461
" />
<path d="M68456 39461
L69014 39461
" />
<path d="M69785 39476
L70348 39476
" />
<path d="M68451 39476
L69014 39476
" />
<path d="M69785 39492
L70354 39492
" />
<path d="M68445 39492
L69014 39492
" />
<path d="M69785 39508
L70359 39508
" />
<path d="M68440 39508
L69014 39508
" />
<path d="M69785 39524
L70363 39524
" />
<path d="M68436 39524
L69014 39524
" />
<path d="M69785 39540
L70368 39540
" />
<path d="M68431 39540
L69014 39540
" />
<path d="M69785 39555
L70372 39555
" />
<path d="M68427 39555
L69014 39555
" />
<path d="M69785 39571
L70376 39571
" />
<path d="M68423 39571
L69014 39571
" />
<path d="M69785 39587
L70379 39587
" />
<path d="M68420 39587
L69014 39587
" />
<path d="M69785 39603
L70383 39603
" />
<path d="M68416 39603
L69014 39603
" />
<path d="M69785 39618
L70386 39618
" />
<path d="M68413 39618
L69014 39618
" />
<path d="M69785 39634
L70389 39634
" />
<path d="M68410 39634
L69014 39634
" />
<path d="M69785 39650
L70391 39650
" />
<path d="M68408 39650
L69014 39650
" />
<path d="M69785 39666
L70394 39666
" />
<path d="M68405 39666
L69014 39666
" />
<path d="M69785 39681
L70396 39681
" />
<path d="M68403 39681
L69014 39681
" />
<path d="M69785 39697
L70398 39697
" />
<path d="M68401 39697
L69014 39697
" />
<path d="M68400 39713
L70399 39713
" />
<path d="M68398 39729
L70401 39729
" />
<path d="M68397 39744
L70402 39744
" />
<path d="M68396 39760
L70403 39760
" />
<path d="M68396 39776
L70403 39776
" />
<path d="M68396 39792
L70403 39792
" />
<path d="M68396 39807
L70403 39807
" />
<path d="M69864.5 38900.1 A1019.69 1019.69 0.0 0 0 68935.4 38900.2 " />
<path d="M69864.6 40715.6 A1019.69 1019.69 0.0 0 0 69864.5 38900.1 " />
<path d="M68935.5 38900.1 A1019.69 1019.69 0.0 0 0 68935.4 40715.6 " />
<path d="M55476 37548
L55476 37025
" />
<path d="M56000 37548
L55476 37548
" />
<path d="M56500 36501
L56500 37548
" />
<path d="M73523 36501
L56500 36501
" />
<path d="M73523 37548
L73523 36501
" />
<path d="M56500 37548
L73523 37548
" />
<path d="M63763 39015
L63763 38885
" />
<path d="M61236 39015
L63763 39015
" />
<path d="M61236 38885
L61236 39015
" />
<path d="M63763 37984
L63763 38114
" />
<path d="M61236 37984
L63763 37984
" />
<path d="M61236 38114
L61236 37984
" />
<path d="M71476 41035
L70559 41035
" />
<path d="M71476 42000
L71476 41035
" />
<path d="M66645 41165
L71346 41165
" />
<path d="M66645 44255
L66645 41165
" />
<path d="M71346 44255
L66645 44255
" />
<path d="M71346 41165
L71346 44255
" />
<path d="M66500 39523
L67523 39523
" />
<path d="M67523 39523
L67523 38476
" />
<path d="M67523 38476
L66500 38476
" />
<path d="M66500 38476
L66500 39523
" />
<path d="M66000 39523
L65476 39523
" />
<path d="M65476 39523
L65476 39000
" />
</g>
<g style="fill:#000000; fill-opacity:0.0; 
stroke:#000000; stroke-width:59.0551; stroke-opacity:1; 
stroke-linecap:round; stroke-linejoin:round;">
<path d="M65934 43940
L65915 43959
L65859 43978
L65821 43978
L65765 43959
L65728 43921
L65709 43884
L65690 43809
L65690 43753
L65709 43678
L65728 43640
L65765 43603
L65821 43584
L65859 43584
L65915 43603
L65934 43621
" />
<path d="M66065 43584
L66309 43584
L66178 43734
L66234 43734
L66271 43753
L66290 43771
L66309 43809
L66309 43903
L66290 43940
L66271 43959
L66234 43978
L66121 43978
L66084 43959
L66065 43940
" />
<path d="M53559 35678
L53371 35678
L53371 35284
" />
<path d="M53690 35471
L53821 35471
" />
<path d="M53878 35678
L53690 35678
L53690 35284
L53878 35284
" />
<path d="M54046 35678
L54046 35284
L54140 35284
L54196 35303
L54234 35340
L54253 35378
L54271 35453
L54271 35509
L54253 35584
L54234 35621
L54196 35659
L54140 35678
L54046 35678
" />
<path d="M54646 35678
L54421 35678
" />
<path d="M54534 35678
L54534 35284
L54496 35340
L54459 35378
L54421 35396
" />
<path d="M53034 39178
L52903 38990
" />
<path d="M52809 39178
L52809 38784
L52959 38784
L52996 38803
L53015 38821
L53034 38859
L53034 38915
L53015 38953
L52996 38971
L52959 38990
L52809 38990
" />
<path d="M53184 38821
L53203 38803
L53240 38784
L53334 38784
L53371 38803
L53390 38821
L53409 38859
L53409 38896
L53390 38953
L53165 39178
L53409 39178
" />
<path d="M43115 44178
L43115 43784
" />
<path d="M43528 44140
L43509 44159
L43453 44178
L43415 44178
L43359 44159
L43321 44121
L43303 44084
L43284 44009
L43284 43953
L43303 43878
L43321 43840
L43359 43803
L43415 43784
L43453 43784
L43509 43803
L43528 43821
" />
<path d="M43903 44178
L43678 44178
" />
<path d="M43790 44178
L43790 43784
L43753 43840
L43715 43878
L43678 43896
" />
</g>
<g style="fill:#000000; fill-opacity:0.0; 
stroke:#000000; stroke-width:80; stroke-opacity:1; 
stroke-linecap:round; stroke-linejoin:round;">
<path d="M57812 48928
L57812 48534
" />
<path d="M58206 48928
L57981 48928
" />
<path d="M58093 48928
L58093 48534
L58056 48590
L58018 48628
L57981 48646
" />
</g>
<g style="fill:#000000; fill-opacity:0.0; 
stroke:#000000; stroke-width:59.0551; stroke-opacity:1; 
stroke-linecap:round; stroke-linejoin:round;">
<path d="M58134 38640
L58115 38659
L58059 38678
L58021 38678
L57965 38659
L57928 38621
L57909 38584
L57890 38509
L57890 38453
L57909 38378
L57928 38340
L57965 38303
L58021 38284
L58059 38284
L58115 38303
L58134 38321
" />
<path d="M58509 38678
L58284 38678
" />
<path d="M58396 38678
L58396 38284
L58359 38340
L58321 38378
L58284 38396
" />
<path d="M69334 38540
L69315 38559
L69259 38578
L69221 38578
L69165 38559
L69128 38521
L69109 38484
L69090 38409
L69090 38353
L69109 38278
L69128 38240
L69165 38203
L69221 38184
L69259 38184
L69315 38203
L69334 38221
" />
<path d="M69484 38221
L69503 38203
L69540 38184
L69634 38184
L69671 38203
L69690 38221
L69709 38259
L69709 38296
L69690 38353
L69465 38578
L69709 38578
" />
<path d="M73812 37203
L73812 36809
" />
<path d="M73981 36846
L74000 36828
L74037 36809
L74131 36809
L74168 36828
L74187 36846
L74206 36884
L74206 36921
L74187 36978
L73962 37203
L74206 37203
" />
<path d="M64834 38678
L64703 38490
" />
<path d="M64609 38678
L64609 38284
L64759 38284
L64796 38303
L64815 38321
L64834 38359
L64834 38415
L64815 38453
L64796 38471
L64759 38490
L64609 38490
" />
<path d="M65209 38678
L64984 38678
" />
<path d="M65096 38678
L65096 38284
L65059 38340
L65021 38378
L64984 38396
" />
<path d="M68700 44426
L68700 44744
L68718 44782
L68737 44801
L68775 44819
L68850 44819
L68887 44801
L68906 44782
L68925 44744
L68925 44426
" />
<path d="M69318 44819
L69093 44819
" />
<path d="M69206 44819
L69206 44426
L69168 44482
L69131 44519
L69093 44538
" />
<path d="M67812 39178
L67812 38784
" />
<path d="M67962 38784
L68206 38784
L68074 38934
L68131 38934
L68168 38953
L68187 38971
L68206 39009
L68206 39103
L68187 39140
L68168 39159
L68131 39178
L68018 39178
L67981 39159
L67962 39140
" />
</g> 
</svg>
